G04 #@! TF.GenerationSoftware,KiCad,Pcbnew,9.0.4-9.0.4-0~ubuntu22.04.1*
G04 #@! TF.CreationDate,2025-10-19T11:48:27+01:00*
G04 #@! TF.ProjectId,CD40106_VCO,43443430-3130-4365-9f56-434f2e6b6963,rev?*
G04 #@! TF.SameCoordinates,Original*
G04 #@! TF.FileFunction,Legend,Bot*
G04 #@! TF.FilePolarity,Positive*
%FSLAX46Y46*%
G04 Gerber Fmt 4.6, Leading zero omitted, Abs format (unit mm)*
G04 Created by KiCad (PCBNEW 9.0.4-9.0.4-0~ubuntu22.04.1) date 2025-10-19 11:48:27*
%MOMM*%
%LPD*%
G01*
G04 APERTURE LIST*
%ADD10C,0.150000*%
%ADD11C,0.120000*%
%ADD12R,1.930000X1.830000*%
%ADD13C,2.130000*%
%ADD14C,4.000000*%
%ADD15C,1.800000*%
%ADD16C,3.200000*%
%ADD17C,1.600000*%
%ADD18R,1.600000X1.600000*%
%ADD19O,1.600000X1.600000*%
%ADD20R,1.700000X1.700000*%
%ADD21O,1.700000X1.700000*%
%ADD22C,0.800000*%
G04 APERTURE END LIST*
D10*
X157583333Y-73874819D02*
X157583333Y-74589104D01*
X157583333Y-74589104D02*
X157630952Y-74731961D01*
X157630952Y-74731961D02*
X157726190Y-74827200D01*
X157726190Y-74827200D02*
X157869047Y-74874819D01*
X157869047Y-74874819D02*
X157964285Y-74874819D01*
X156964285Y-74303390D02*
X157059523Y-74255771D01*
X157059523Y-74255771D02*
X157107142Y-74208152D01*
X157107142Y-74208152D02*
X157154761Y-74112914D01*
X157154761Y-74112914D02*
X157154761Y-74065295D01*
X157154761Y-74065295D02*
X157107142Y-73970057D01*
X157107142Y-73970057D02*
X157059523Y-73922438D01*
X157059523Y-73922438D02*
X156964285Y-73874819D01*
X156964285Y-73874819D02*
X156773809Y-73874819D01*
X156773809Y-73874819D02*
X156678571Y-73922438D01*
X156678571Y-73922438D02*
X156630952Y-73970057D01*
X156630952Y-73970057D02*
X156583333Y-74065295D01*
X156583333Y-74065295D02*
X156583333Y-74112914D01*
X156583333Y-74112914D02*
X156630952Y-74208152D01*
X156630952Y-74208152D02*
X156678571Y-74255771D01*
X156678571Y-74255771D02*
X156773809Y-74303390D01*
X156773809Y-74303390D02*
X156964285Y-74303390D01*
X156964285Y-74303390D02*
X157059523Y-74351009D01*
X157059523Y-74351009D02*
X157107142Y-74398628D01*
X157107142Y-74398628D02*
X157154761Y-74493866D01*
X157154761Y-74493866D02*
X157154761Y-74684342D01*
X157154761Y-74684342D02*
X157107142Y-74779580D01*
X157107142Y-74779580D02*
X157059523Y-74827200D01*
X157059523Y-74827200D02*
X156964285Y-74874819D01*
X156964285Y-74874819D02*
X156773809Y-74874819D01*
X156773809Y-74874819D02*
X156678571Y-74827200D01*
X156678571Y-74827200D02*
X156630952Y-74779580D01*
X156630952Y-74779580D02*
X156583333Y-74684342D01*
X156583333Y-74684342D02*
X156583333Y-74493866D01*
X156583333Y-74493866D02*
X156630952Y-74398628D01*
X156630952Y-74398628D02*
X156678571Y-74351009D01*
X156678571Y-74351009D02*
X156773809Y-74303390D01*
X111083333Y-73874819D02*
X111083333Y-74589104D01*
X111083333Y-74589104D02*
X111130952Y-74731961D01*
X111130952Y-74731961D02*
X111226190Y-74827200D01*
X111226190Y-74827200D02*
X111369047Y-74874819D01*
X111369047Y-74874819D02*
X111464285Y-74874819D01*
X110178571Y-73874819D02*
X110369047Y-73874819D01*
X110369047Y-73874819D02*
X110464285Y-73922438D01*
X110464285Y-73922438D02*
X110511904Y-73970057D01*
X110511904Y-73970057D02*
X110607142Y-74112914D01*
X110607142Y-74112914D02*
X110654761Y-74303390D01*
X110654761Y-74303390D02*
X110654761Y-74684342D01*
X110654761Y-74684342D02*
X110607142Y-74779580D01*
X110607142Y-74779580D02*
X110559523Y-74827200D01*
X110559523Y-74827200D02*
X110464285Y-74874819D01*
X110464285Y-74874819D02*
X110273809Y-74874819D01*
X110273809Y-74874819D02*
X110178571Y-74827200D01*
X110178571Y-74827200D02*
X110130952Y-74779580D01*
X110130952Y-74779580D02*
X110083333Y-74684342D01*
X110083333Y-74684342D02*
X110083333Y-74446247D01*
X110083333Y-74446247D02*
X110130952Y-74351009D01*
X110130952Y-74351009D02*
X110178571Y-74303390D01*
X110178571Y-74303390D02*
X110273809Y-74255771D01*
X110273809Y-74255771D02*
X110464285Y-74255771D01*
X110464285Y-74255771D02*
X110559523Y-74303390D01*
X110559523Y-74303390D02*
X110607142Y-74351009D01*
X110607142Y-74351009D02*
X110654761Y-74446247D01*
D11*
X155920000Y-78020000D02*
X155920000Y-95860000D01*
X158580000Y-75420000D02*
X157250000Y-75420000D01*
X158580000Y-76750000D02*
X158580000Y-75420000D01*
X158580000Y-78020000D02*
X155920000Y-78020000D01*
X158580000Y-78020000D02*
X158580000Y-95860000D01*
X158580000Y-95860000D02*
X155920000Y-95860000D01*
X109420000Y-78020000D02*
X109420000Y-95860000D01*
X112080000Y-75420000D02*
X110750000Y-75420000D01*
X112080000Y-76750000D02*
X112080000Y-75420000D01*
X112080000Y-78020000D02*
X109420000Y-78020000D01*
X112080000Y-78020000D02*
X112080000Y-95860000D01*
X112080000Y-95860000D02*
X109420000Y-95860000D01*
%LPC*%
D12*
X127500000Y-133250000D03*
D13*
X127500000Y-144650000D03*
X127500000Y-136350000D03*
D14*
X141700000Y-101750000D03*
X150500000Y-101750000D03*
D15*
X143600000Y-108750000D03*
X146100000Y-108750000D03*
X148600000Y-108750000D03*
D16*
X134000000Y-112400000D03*
D17*
X116500000Y-91250000D03*
X121500000Y-91250000D03*
D14*
X141700000Y-81300000D03*
X150500000Y-81300000D03*
D15*
X143600000Y-88300000D03*
X146100000Y-88300000D03*
X148600000Y-88300000D03*
D12*
X153500000Y-133250000D03*
D13*
X153500000Y-144650000D03*
X153500000Y-136350000D03*
D17*
X130000000Y-99250000D03*
X135000000Y-99250000D03*
X133000000Y-85250000D03*
X138000000Y-85250000D03*
D14*
X117500000Y-81300000D03*
X126300000Y-81300000D03*
D15*
X119400000Y-88300000D03*
X121900000Y-88300000D03*
X124400000Y-88300000D03*
D18*
X137800000Y-96050000D03*
D19*
X137800000Y-93510000D03*
X137800000Y-90970000D03*
X137800000Y-88430000D03*
X130180000Y-88430000D03*
X130180000Y-90970000D03*
X130180000Y-93510000D03*
X130180000Y-96050000D03*
D17*
X157200000Y-113100000D03*
X157200000Y-108100000D03*
X142020000Y-112800000D03*
X152180000Y-112800000D03*
D14*
X117500000Y-101750000D03*
X126300000Y-101750000D03*
D15*
X119400000Y-108750000D03*
X121900000Y-108750000D03*
X124400000Y-108750000D03*
D12*
X140500000Y-118500000D03*
D13*
X140500000Y-129900000D03*
X140500000Y-121600000D03*
D12*
X127500000Y-118500000D03*
D13*
X127500000Y-129900000D03*
X127500000Y-121600000D03*
D12*
X140500000Y-133250000D03*
D13*
X140500000Y-144650000D03*
X140500000Y-136350000D03*
D12*
X114500000Y-133250000D03*
D13*
X114500000Y-144650000D03*
X114500000Y-136350000D03*
D12*
X153500000Y-118500000D03*
D13*
X153500000Y-129900000D03*
X153500000Y-121600000D03*
D12*
X114500000Y-118500000D03*
D13*
X114500000Y-129900000D03*
X114500000Y-121600000D03*
D20*
X157250000Y-76750000D03*
D21*
X157250000Y-79290000D03*
X157250000Y-81830000D03*
X157250000Y-84370000D03*
X157250000Y-86910000D03*
X157250000Y-89450000D03*
X157250000Y-91990000D03*
X157250000Y-94530000D03*
D20*
X110750000Y-76750000D03*
D21*
X110750000Y-79290000D03*
X110750000Y-81830000D03*
X110750000Y-84370000D03*
X110750000Y-86910000D03*
X110750000Y-89450000D03*
X110750000Y-91990000D03*
X110750000Y-94530000D03*
D22*
X139400000Y-113800000D03*
X149700000Y-126900000D03*
X149700000Y-127800000D03*
X124800000Y-113400000D03*
X149700000Y-125100000D03*
X134800000Y-139800000D03*
X149800000Y-140000000D03*
X123800000Y-113400000D03*
X124800000Y-112500000D03*
X123800000Y-112500000D03*
X155900000Y-119200000D03*
X149700000Y-126000000D03*
X134000000Y-140200000D03*
X150200000Y-114300000D03*
X157500000Y-101100000D03*
X155900000Y-118300000D03*
X157500000Y-100000000D03*
X140300000Y-113800000D03*
X140300000Y-112900000D03*
X149700000Y-128700000D03*
X149600000Y-115200000D03*
X149800000Y-141000000D03*
X149800000Y-139100000D03*
X134000000Y-139300000D03*
X139400000Y-112900000D03*
X133200000Y-139800000D03*
X143900000Y-142700000D03*
X114700000Y-82300000D03*
X115700000Y-84300000D03*
%LPD*%
M02*
