M48
; DRILL file {KiCad 9.0.4-9.0.4-0~ubuntu22.04.1} date 2025-10-19T11:48:27+0100
; FORMAT={-:-/ absolute / metric / decimal}
; #@! TF.CreationDate,2025-10-19T11:48:27+01:00
; #@! TF.GenerationSoftware,Kicad,Pcbnew,9.0.4-9.0.4-0~ubuntu22.04.1
; #@! TF.FileFunction,Plated,1,2,PTH
FMAT,2
METRIC
; #@! TA.AperFunction,Plated,PTH,ViaDrill
T1C0.400
; #@! TA.AperFunction,Plated,PTH,ComponentDrill
T2C0.800
; #@! TA.AperFunction,Plated,PTH,ComponentDrill
T3C1.000
; #@! TA.AperFunction,Plated,PTH,ComponentDrill
T4C1.220
; #@! TA.AperFunction,Plated,PTH,ComponentDrill
T5C1.420
; #@! TA.AperFunction,Plated,PTH,ComponentDrill
T6C1.430
%
G90
G05
T1
X114.7Y-82.3
X115.7Y-84.3
X123.8Y-112.5
X123.8Y-113.4
X124.8Y-112.5
X124.8Y-113.4
X133.2Y-139.8
X134.0Y-139.3
X134.0Y-140.2
X134.8Y-139.8
X139.4Y-112.9
X139.4Y-113.8
X140.3Y-112.9
X140.3Y-113.8
X143.9Y-142.7
X149.6Y-115.2
X149.7Y-125.1
X149.7Y-126.0
X149.7Y-126.9
X149.7Y-127.8
X149.7Y-128.7
X149.8Y-139.1
X149.8Y-140.0
X149.8Y-141.0
X150.2Y-114.3
X155.9Y-118.3
X155.9Y-119.2
X157.5Y-100.0
X157.5Y-101.1
T2
X116.5Y-91.25
X121.5Y-91.25
X130.0Y-99.25
X130.18Y-88.43
X130.18Y-90.97
X130.18Y-93.51
X130.18Y-96.05
X133.0Y-85.25
X135.0Y-99.25
X137.8Y-88.43
X137.8Y-90.97
X137.8Y-93.51
X137.8Y-96.05
X138.0Y-85.25
X142.02Y-112.8
X152.18Y-112.8
X157.2Y-108.1
X157.2Y-113.1
T3
X110.75Y-76.75
X110.75Y-79.29
X110.75Y-81.83
X110.75Y-84.37
X110.75Y-86.91
X110.75Y-89.45
X110.75Y-91.99
X110.75Y-94.53
X119.4Y-88.3
X119.4Y-108.75
X121.9Y-88.3
X121.9Y-108.75
X124.4Y-88.3
X124.4Y-108.75
X143.6Y-88.3
X143.6Y-108.75
X146.1Y-88.3
X146.1Y-108.75
X148.6Y-88.3
X148.6Y-108.75
X157.25Y-76.75
X157.25Y-79.29
X157.25Y-81.83
X157.25Y-84.37
X157.25Y-86.91
X157.25Y-89.45
X157.25Y-91.99
X157.25Y-94.53
T4
X114.5Y-118.5
X114.5Y-133.25
X127.5Y-118.5
X127.5Y-133.25
X140.5Y-118.5
X140.5Y-133.25
X153.5Y-118.5
X153.5Y-133.25
T5
X114.5Y-121.6
X114.5Y-136.35
X127.5Y-121.6
X127.5Y-136.35
X140.5Y-121.6
X140.5Y-136.35
X153.5Y-121.6
X153.5Y-136.35
T6
X114.5Y-129.9
X114.5Y-144.65
X127.5Y-129.9
X127.5Y-144.65
X140.5Y-129.9
X140.5Y-144.65
X153.5Y-129.9
X153.5Y-144.65
M30
