%TF.GenerationSoftware,KiCad,Pcbnew,9.0.4-9.0.4-0~ubuntu22.04.1*%
%TF.CreationDate,2025-10-19T11:48:27+01:00*%
%TF.ProjectId,CD40106_VCO,43443430-3130-4365-9f56-434f2e6b6963,rev?*%
%TF.SameCoordinates,Original*%
%TF.FileFunction,Drillmap*%
%TF.FilePolarity,Positive*%
%FSLAX45Y45*%
G04 Gerber Fmt 4.5, Leading zero omitted, Abs format (unit mm)*
G04 Created by KiCad (PCBNEW 9.0.4-9.0.4-0~ubuntu22.04.1) date 2025-10-19 11:48:27*
%MOMM*%
%LPD*%
G01*
G04 APERTURE LIST*
%ADD10C,0.050000*%
%ADD11C,0.200000*%
%ADD12C,0.320000*%
G04 APERTURE END LIST*
D10*
X15900000Y-7325000D02*
X15900000Y-14650000D01*
X10900000Y-7325000D02*
X15900000Y-7325000D01*
X10900000Y-7325000D02*
X10900000Y-14650000D01*
X10900000Y-14650000D02*
X15900000Y-14650000D01*
D11*
X11650000Y-8030000D02*
X11850000Y-8230000D01*
X11850000Y-8030000D02*
X11650000Y-8230000D01*
X11650000Y-10075000D02*
X11850000Y-10275000D01*
X11850000Y-10075000D02*
X11650000Y-10275000D01*
X12530000Y-8030000D02*
X12730000Y-8230000D01*
X12730000Y-8030000D02*
X12530000Y-8230000D01*
X12530000Y-10075000D02*
X12730000Y-10275000D01*
X12730000Y-10075000D02*
X12530000Y-10275000D01*
X14070000Y-8030000D02*
X14270000Y-8230000D01*
X14270000Y-8030000D02*
X14070000Y-8230000D01*
X14070000Y-10075000D02*
X14270000Y-10275000D01*
X14270000Y-10075000D02*
X14070000Y-10275000D01*
X14950000Y-8030000D02*
X15150000Y-8230000D01*
X15150000Y-8030000D02*
X14950000Y-8230000D01*
X14950000Y-10075000D02*
X15150000Y-10275000D01*
X15150000Y-10075000D02*
X14950000Y-10275000D01*
D12*
X13560000Y-11240000D02*
G75*
G02*
X13240000Y-11240000I-160000J0D01*
G01*
X13240000Y-11240000D02*
G75*
G02*
X13560000Y-11240000I160000J0D01*
G01*
D11*
X11158277Y-14963984D02*
X11158277Y-14763984D01*
X11158277Y-14763984D02*
X11205896Y-14763984D01*
X11205896Y-14763984D02*
X11234467Y-14773508D01*
X11234467Y-14773508D02*
X11253515Y-14792555D01*
X11253515Y-14792555D02*
X11263039Y-14811603D01*
X11263039Y-14811603D02*
X11272562Y-14849698D01*
X11272562Y-14849698D02*
X11272562Y-14878269D01*
X11272562Y-14878269D02*
X11263039Y-14916365D01*
X11263039Y-14916365D02*
X11253515Y-14935412D01*
X11253515Y-14935412D02*
X11234467Y-14954460D01*
X11234467Y-14954460D02*
X11205896Y-14963984D01*
X11205896Y-14963984D02*
X11158277Y-14963984D01*
X11358277Y-14963984D02*
X11358277Y-14830650D01*
X11358277Y-14868746D02*
X11367801Y-14849698D01*
X11367801Y-14849698D02*
X11377324Y-14840174D01*
X11377324Y-14840174D02*
X11396372Y-14830650D01*
X11396372Y-14830650D02*
X11415420Y-14830650D01*
X11482086Y-14963984D02*
X11482086Y-14830650D01*
X11482086Y-14763984D02*
X11472562Y-14773508D01*
X11472562Y-14773508D02*
X11482086Y-14783031D01*
X11482086Y-14783031D02*
X11491610Y-14773508D01*
X11491610Y-14773508D02*
X11482086Y-14763984D01*
X11482086Y-14763984D02*
X11482086Y-14783031D01*
X11605896Y-14963984D02*
X11586848Y-14954460D01*
X11586848Y-14954460D02*
X11577324Y-14935412D01*
X11577324Y-14935412D02*
X11577324Y-14763984D01*
X11710658Y-14963984D02*
X11691610Y-14954460D01*
X11691610Y-14954460D02*
X11682086Y-14935412D01*
X11682086Y-14935412D02*
X11682086Y-14763984D01*
X11939229Y-14963984D02*
X11939229Y-14763984D01*
X11939229Y-14763984D02*
X12005896Y-14906841D01*
X12005896Y-14906841D02*
X12072562Y-14763984D01*
X12072562Y-14763984D02*
X12072562Y-14963984D01*
X12253515Y-14963984D02*
X12253515Y-14859222D01*
X12253515Y-14859222D02*
X12243991Y-14840174D01*
X12243991Y-14840174D02*
X12224943Y-14830650D01*
X12224943Y-14830650D02*
X12186848Y-14830650D01*
X12186848Y-14830650D02*
X12167801Y-14840174D01*
X12253515Y-14954460D02*
X12234467Y-14963984D01*
X12234467Y-14963984D02*
X12186848Y-14963984D01*
X12186848Y-14963984D02*
X12167801Y-14954460D01*
X12167801Y-14954460D02*
X12158277Y-14935412D01*
X12158277Y-14935412D02*
X12158277Y-14916365D01*
X12158277Y-14916365D02*
X12167801Y-14897317D01*
X12167801Y-14897317D02*
X12186848Y-14887793D01*
X12186848Y-14887793D02*
X12234467Y-14887793D01*
X12234467Y-14887793D02*
X12253515Y-14878269D01*
X12348753Y-14830650D02*
X12348753Y-15030650D01*
X12348753Y-14840174D02*
X12367801Y-14830650D01*
X12367801Y-14830650D02*
X12405896Y-14830650D01*
X12405896Y-14830650D02*
X12424943Y-14840174D01*
X12424943Y-14840174D02*
X12434467Y-14849698D01*
X12434467Y-14849698D02*
X12443991Y-14868746D01*
X12443991Y-14868746D02*
X12443991Y-14925888D01*
X12443991Y-14925888D02*
X12434467Y-14944936D01*
X12434467Y-14944936D02*
X12424943Y-14954460D01*
X12424943Y-14954460D02*
X12405896Y-14963984D01*
X12405896Y-14963984D02*
X12367801Y-14963984D01*
X12367801Y-14963984D02*
X12348753Y-14954460D01*
X12529705Y-14944936D02*
X12539229Y-14954460D01*
X12539229Y-14954460D02*
X12529705Y-14963984D01*
X12529705Y-14963984D02*
X12520182Y-14954460D01*
X12520182Y-14954460D02*
X12529705Y-14944936D01*
X12529705Y-14944936D02*
X12529705Y-14963984D01*
X12529705Y-14840174D02*
X12539229Y-14849698D01*
X12539229Y-14849698D02*
X12529705Y-14859222D01*
X12529705Y-14859222D02*
X12520182Y-14849698D01*
X12520182Y-14849698D02*
X12529705Y-14840174D01*
X12529705Y-14840174D02*
X12529705Y-14859222D01*
X10697500Y-15192500D02*
X10897500Y-15392500D01*
X10897500Y-15192500D02*
X10697500Y-15392500D01*
X11148753Y-15203031D02*
X11158277Y-15193508D01*
X11158277Y-15193508D02*
X11177324Y-15183984D01*
X11177324Y-15183984D02*
X11224943Y-15183984D01*
X11224943Y-15183984D02*
X11243991Y-15193508D01*
X11243991Y-15193508D02*
X11253515Y-15203031D01*
X11253515Y-15203031D02*
X11263039Y-15222079D01*
X11263039Y-15222079D02*
X11263039Y-15241127D01*
X11263039Y-15241127D02*
X11253515Y-15269698D01*
X11253515Y-15269698D02*
X11139229Y-15383984D01*
X11139229Y-15383984D02*
X11263039Y-15383984D01*
X11348753Y-15364936D02*
X11358277Y-15374460D01*
X11358277Y-15374460D02*
X11348753Y-15383984D01*
X11348753Y-15383984D02*
X11339229Y-15374460D01*
X11339229Y-15374460D02*
X11348753Y-15364936D01*
X11348753Y-15364936D02*
X11348753Y-15383984D01*
X11482086Y-15183984D02*
X11501134Y-15183984D01*
X11501134Y-15183984D02*
X11520182Y-15193508D01*
X11520182Y-15193508D02*
X11529705Y-15203031D01*
X11529705Y-15203031D02*
X11539229Y-15222079D01*
X11539229Y-15222079D02*
X11548753Y-15260174D01*
X11548753Y-15260174D02*
X11548753Y-15307793D01*
X11548753Y-15307793D02*
X11539229Y-15345888D01*
X11539229Y-15345888D02*
X11529705Y-15364936D01*
X11529705Y-15364936D02*
X11520182Y-15374460D01*
X11520182Y-15374460D02*
X11501134Y-15383984D01*
X11501134Y-15383984D02*
X11482086Y-15383984D01*
X11482086Y-15383984D02*
X11463039Y-15374460D01*
X11463039Y-15374460D02*
X11453515Y-15364936D01*
X11453515Y-15364936D02*
X11443991Y-15345888D01*
X11443991Y-15345888D02*
X11434467Y-15307793D01*
X11434467Y-15307793D02*
X11434467Y-15260174D01*
X11434467Y-15260174D02*
X11443991Y-15222079D01*
X11443991Y-15222079D02*
X11453515Y-15203031D01*
X11453515Y-15203031D02*
X11463039Y-15193508D01*
X11463039Y-15193508D02*
X11482086Y-15183984D01*
X11672562Y-15183984D02*
X11691610Y-15183984D01*
X11691610Y-15183984D02*
X11710658Y-15193508D01*
X11710658Y-15193508D02*
X11720182Y-15203031D01*
X11720182Y-15203031D02*
X11729705Y-15222079D01*
X11729705Y-15222079D02*
X11739229Y-15260174D01*
X11739229Y-15260174D02*
X11739229Y-15307793D01*
X11739229Y-15307793D02*
X11729705Y-15345888D01*
X11729705Y-15345888D02*
X11720182Y-15364936D01*
X11720182Y-15364936D02*
X11710658Y-15374460D01*
X11710658Y-15374460D02*
X11691610Y-15383984D01*
X11691610Y-15383984D02*
X11672562Y-15383984D01*
X11672562Y-15383984D02*
X11653515Y-15374460D01*
X11653515Y-15374460D02*
X11643991Y-15364936D01*
X11643991Y-15364936D02*
X11634467Y-15345888D01*
X11634467Y-15345888D02*
X11624943Y-15307793D01*
X11624943Y-15307793D02*
X11624943Y-15260174D01*
X11624943Y-15260174D02*
X11634467Y-15222079D01*
X11634467Y-15222079D02*
X11643991Y-15203031D01*
X11643991Y-15203031D02*
X11653515Y-15193508D01*
X11653515Y-15193508D02*
X11672562Y-15183984D01*
X11863039Y-15183984D02*
X11882086Y-15183984D01*
X11882086Y-15183984D02*
X11901134Y-15193508D01*
X11901134Y-15193508D02*
X11910658Y-15203031D01*
X11910658Y-15203031D02*
X11920182Y-15222079D01*
X11920182Y-15222079D02*
X11929705Y-15260174D01*
X11929705Y-15260174D02*
X11929705Y-15307793D01*
X11929705Y-15307793D02*
X11920182Y-15345888D01*
X11920182Y-15345888D02*
X11910658Y-15364936D01*
X11910658Y-15364936D02*
X11901134Y-15374460D01*
X11901134Y-15374460D02*
X11882086Y-15383984D01*
X11882086Y-15383984D02*
X11863039Y-15383984D01*
X11863039Y-15383984D02*
X11843991Y-15374460D01*
X11843991Y-15374460D02*
X11834467Y-15364936D01*
X11834467Y-15364936D02*
X11824943Y-15345888D01*
X11824943Y-15345888D02*
X11815420Y-15307793D01*
X11815420Y-15307793D02*
X11815420Y-15260174D01*
X11815420Y-15260174D02*
X11824943Y-15222079D01*
X11824943Y-15222079D02*
X11834467Y-15203031D01*
X11834467Y-15203031D02*
X11843991Y-15193508D01*
X11843991Y-15193508D02*
X11863039Y-15183984D01*
X12015420Y-15383984D02*
X12015420Y-15250650D01*
X12015420Y-15269698D02*
X12024943Y-15260174D01*
X12024943Y-15260174D02*
X12043991Y-15250650D01*
X12043991Y-15250650D02*
X12072563Y-15250650D01*
X12072563Y-15250650D02*
X12091610Y-15260174D01*
X12091610Y-15260174D02*
X12101134Y-15279222D01*
X12101134Y-15279222D02*
X12101134Y-15383984D01*
X12101134Y-15279222D02*
X12110658Y-15260174D01*
X12110658Y-15260174D02*
X12129705Y-15250650D01*
X12129705Y-15250650D02*
X12158277Y-15250650D01*
X12158277Y-15250650D02*
X12177324Y-15260174D01*
X12177324Y-15260174D02*
X12186848Y-15279222D01*
X12186848Y-15279222D02*
X12186848Y-15383984D01*
X12282086Y-15383984D02*
X12282086Y-15250650D01*
X12282086Y-15269698D02*
X12291610Y-15260174D01*
X12291610Y-15260174D02*
X12310658Y-15250650D01*
X12310658Y-15250650D02*
X12339229Y-15250650D01*
X12339229Y-15250650D02*
X12358277Y-15260174D01*
X12358277Y-15260174D02*
X12367801Y-15279222D01*
X12367801Y-15279222D02*
X12367801Y-15383984D01*
X12367801Y-15279222D02*
X12377324Y-15260174D01*
X12377324Y-15260174D02*
X12396372Y-15250650D01*
X12396372Y-15250650D02*
X12424943Y-15250650D01*
X12424943Y-15250650D02*
X12443991Y-15260174D01*
X12443991Y-15260174D02*
X12453515Y-15279222D01*
X12453515Y-15279222D02*
X12453515Y-15383984D01*
X12843991Y-15174460D02*
X12672563Y-15431603D01*
X13101134Y-15183984D02*
X13120182Y-15183984D01*
X13120182Y-15183984D02*
X13139229Y-15193508D01*
X13139229Y-15193508D02*
X13148753Y-15203031D01*
X13148753Y-15203031D02*
X13158277Y-15222079D01*
X13158277Y-15222079D02*
X13167801Y-15260174D01*
X13167801Y-15260174D02*
X13167801Y-15307793D01*
X13167801Y-15307793D02*
X13158277Y-15345888D01*
X13158277Y-15345888D02*
X13148753Y-15364936D01*
X13148753Y-15364936D02*
X13139229Y-15374460D01*
X13139229Y-15374460D02*
X13120182Y-15383984D01*
X13120182Y-15383984D02*
X13101134Y-15383984D01*
X13101134Y-15383984D02*
X13082086Y-15374460D01*
X13082086Y-15374460D02*
X13072563Y-15364936D01*
X13072563Y-15364936D02*
X13063039Y-15345888D01*
X13063039Y-15345888D02*
X13053515Y-15307793D01*
X13053515Y-15307793D02*
X13053515Y-15260174D01*
X13053515Y-15260174D02*
X13063039Y-15222079D01*
X13063039Y-15222079D02*
X13072563Y-15203031D01*
X13072563Y-15203031D02*
X13082086Y-15193508D01*
X13082086Y-15193508D02*
X13101134Y-15183984D01*
X13253515Y-15364936D02*
X13263039Y-15374460D01*
X13263039Y-15374460D02*
X13253515Y-15383984D01*
X13253515Y-15383984D02*
X13243991Y-15374460D01*
X13243991Y-15374460D02*
X13253515Y-15364936D01*
X13253515Y-15364936D02*
X13253515Y-15383984D01*
X13386848Y-15183984D02*
X13405896Y-15183984D01*
X13405896Y-15183984D02*
X13424944Y-15193508D01*
X13424944Y-15193508D02*
X13434467Y-15203031D01*
X13434467Y-15203031D02*
X13443991Y-15222079D01*
X13443991Y-15222079D02*
X13453515Y-15260174D01*
X13453515Y-15260174D02*
X13453515Y-15307793D01*
X13453515Y-15307793D02*
X13443991Y-15345888D01*
X13443991Y-15345888D02*
X13434467Y-15364936D01*
X13434467Y-15364936D02*
X13424944Y-15374460D01*
X13424944Y-15374460D02*
X13405896Y-15383984D01*
X13405896Y-15383984D02*
X13386848Y-15383984D01*
X13386848Y-15383984D02*
X13367801Y-15374460D01*
X13367801Y-15374460D02*
X13358277Y-15364936D01*
X13358277Y-15364936D02*
X13348753Y-15345888D01*
X13348753Y-15345888D02*
X13339229Y-15307793D01*
X13339229Y-15307793D02*
X13339229Y-15260174D01*
X13339229Y-15260174D02*
X13348753Y-15222079D01*
X13348753Y-15222079D02*
X13358277Y-15203031D01*
X13358277Y-15203031D02*
X13367801Y-15193508D01*
X13367801Y-15193508D02*
X13386848Y-15183984D01*
X13520182Y-15183984D02*
X13653515Y-15183984D01*
X13653515Y-15183984D02*
X13567801Y-15383984D01*
X13758277Y-15269698D02*
X13739229Y-15260174D01*
X13739229Y-15260174D02*
X13729706Y-15250650D01*
X13729706Y-15250650D02*
X13720182Y-15231603D01*
X13720182Y-15231603D02*
X13720182Y-15222079D01*
X13720182Y-15222079D02*
X13729706Y-15203031D01*
X13729706Y-15203031D02*
X13739229Y-15193508D01*
X13739229Y-15193508D02*
X13758277Y-15183984D01*
X13758277Y-15183984D02*
X13796372Y-15183984D01*
X13796372Y-15183984D02*
X13815420Y-15193508D01*
X13815420Y-15193508D02*
X13824944Y-15203031D01*
X13824944Y-15203031D02*
X13834467Y-15222079D01*
X13834467Y-15222079D02*
X13834467Y-15231603D01*
X13834467Y-15231603D02*
X13824944Y-15250650D01*
X13824944Y-15250650D02*
X13815420Y-15260174D01*
X13815420Y-15260174D02*
X13796372Y-15269698D01*
X13796372Y-15269698D02*
X13758277Y-15269698D01*
X13758277Y-15269698D02*
X13739229Y-15279222D01*
X13739229Y-15279222D02*
X13729706Y-15288746D01*
X13729706Y-15288746D02*
X13720182Y-15307793D01*
X13720182Y-15307793D02*
X13720182Y-15345888D01*
X13720182Y-15345888D02*
X13729706Y-15364936D01*
X13729706Y-15364936D02*
X13739229Y-15374460D01*
X13739229Y-15374460D02*
X13758277Y-15383984D01*
X13758277Y-15383984D02*
X13796372Y-15383984D01*
X13796372Y-15383984D02*
X13815420Y-15374460D01*
X13815420Y-15374460D02*
X13824944Y-15364936D01*
X13824944Y-15364936D02*
X13834467Y-15345888D01*
X13834467Y-15345888D02*
X13834467Y-15307793D01*
X13834467Y-15307793D02*
X13824944Y-15288746D01*
X13824944Y-15288746D02*
X13815420Y-15279222D01*
X13815420Y-15279222D02*
X13796372Y-15269698D01*
X13901134Y-15183984D02*
X14034467Y-15183984D01*
X14034467Y-15183984D02*
X13948753Y-15383984D01*
X14101134Y-15183984D02*
X14101134Y-15222079D01*
X14177325Y-15183984D02*
X14177325Y-15222079D01*
X14472563Y-15460174D02*
X14463039Y-15450650D01*
X14463039Y-15450650D02*
X14443991Y-15422079D01*
X14443991Y-15422079D02*
X14434468Y-15403031D01*
X14434468Y-15403031D02*
X14424944Y-15374460D01*
X14424944Y-15374460D02*
X14415420Y-15326841D01*
X14415420Y-15326841D02*
X14415420Y-15288746D01*
X14415420Y-15288746D02*
X14424944Y-15241127D01*
X14424944Y-15241127D02*
X14434468Y-15212555D01*
X14434468Y-15212555D02*
X14443991Y-15193508D01*
X14443991Y-15193508D02*
X14463039Y-15164936D01*
X14463039Y-15164936D02*
X14472563Y-15155412D01*
X14577325Y-15269698D02*
X14558277Y-15260174D01*
X14558277Y-15260174D02*
X14548753Y-15250650D01*
X14548753Y-15250650D02*
X14539229Y-15231603D01*
X14539229Y-15231603D02*
X14539229Y-15222079D01*
X14539229Y-15222079D02*
X14548753Y-15203031D01*
X14548753Y-15203031D02*
X14558277Y-15193508D01*
X14558277Y-15193508D02*
X14577325Y-15183984D01*
X14577325Y-15183984D02*
X14615420Y-15183984D01*
X14615420Y-15183984D02*
X14634468Y-15193508D01*
X14634468Y-15193508D02*
X14643991Y-15203031D01*
X14643991Y-15203031D02*
X14653515Y-15222079D01*
X14653515Y-15222079D02*
X14653515Y-15231603D01*
X14653515Y-15231603D02*
X14643991Y-15250650D01*
X14643991Y-15250650D02*
X14634468Y-15260174D01*
X14634468Y-15260174D02*
X14615420Y-15269698D01*
X14615420Y-15269698D02*
X14577325Y-15269698D01*
X14577325Y-15269698D02*
X14558277Y-15279222D01*
X14558277Y-15279222D02*
X14548753Y-15288746D01*
X14548753Y-15288746D02*
X14539229Y-15307793D01*
X14539229Y-15307793D02*
X14539229Y-15345888D01*
X14539229Y-15345888D02*
X14548753Y-15364936D01*
X14548753Y-15364936D02*
X14558277Y-15374460D01*
X14558277Y-15374460D02*
X14577325Y-15383984D01*
X14577325Y-15383984D02*
X14615420Y-15383984D01*
X14615420Y-15383984D02*
X14634468Y-15374460D01*
X14634468Y-15374460D02*
X14643991Y-15364936D01*
X14643991Y-15364936D02*
X14653515Y-15345888D01*
X14653515Y-15345888D02*
X14653515Y-15307793D01*
X14653515Y-15307793D02*
X14643991Y-15288746D01*
X14643991Y-15288746D02*
X14634468Y-15279222D01*
X14634468Y-15279222D02*
X14615420Y-15269698D01*
X14891610Y-15383984D02*
X14891610Y-15183984D01*
X14977325Y-15383984D02*
X14977325Y-15279222D01*
X14977325Y-15279222D02*
X14967801Y-15260174D01*
X14967801Y-15260174D02*
X14948753Y-15250650D01*
X14948753Y-15250650D02*
X14920182Y-15250650D01*
X14920182Y-15250650D02*
X14901134Y-15260174D01*
X14901134Y-15260174D02*
X14891610Y-15269698D01*
X15101134Y-15383984D02*
X15082087Y-15374460D01*
X15082087Y-15374460D02*
X15072563Y-15364936D01*
X15072563Y-15364936D02*
X15063039Y-15345888D01*
X15063039Y-15345888D02*
X15063039Y-15288746D01*
X15063039Y-15288746D02*
X15072563Y-15269698D01*
X15072563Y-15269698D02*
X15082087Y-15260174D01*
X15082087Y-15260174D02*
X15101134Y-15250650D01*
X15101134Y-15250650D02*
X15129706Y-15250650D01*
X15129706Y-15250650D02*
X15148753Y-15260174D01*
X15148753Y-15260174D02*
X15158277Y-15269698D01*
X15158277Y-15269698D02*
X15167801Y-15288746D01*
X15167801Y-15288746D02*
X15167801Y-15345888D01*
X15167801Y-15345888D02*
X15158277Y-15364936D01*
X15158277Y-15364936D02*
X15148753Y-15374460D01*
X15148753Y-15374460D02*
X15129706Y-15383984D01*
X15129706Y-15383984D02*
X15101134Y-15383984D01*
X15282087Y-15383984D02*
X15263039Y-15374460D01*
X15263039Y-15374460D02*
X15253515Y-15355412D01*
X15253515Y-15355412D02*
X15253515Y-15183984D01*
X15434468Y-15374460D02*
X15415420Y-15383984D01*
X15415420Y-15383984D02*
X15377325Y-15383984D01*
X15377325Y-15383984D02*
X15358277Y-15374460D01*
X15358277Y-15374460D02*
X15348753Y-15355412D01*
X15348753Y-15355412D02*
X15348753Y-15279222D01*
X15348753Y-15279222D02*
X15358277Y-15260174D01*
X15358277Y-15260174D02*
X15377325Y-15250650D01*
X15377325Y-15250650D02*
X15415420Y-15250650D01*
X15415420Y-15250650D02*
X15434468Y-15260174D01*
X15434468Y-15260174D02*
X15443991Y-15279222D01*
X15443991Y-15279222D02*
X15443991Y-15298269D01*
X15443991Y-15298269D02*
X15348753Y-15317317D01*
X15520182Y-15374460D02*
X15539230Y-15383984D01*
X15539230Y-15383984D02*
X15577325Y-15383984D01*
X15577325Y-15383984D02*
X15596372Y-15374460D01*
X15596372Y-15374460D02*
X15605896Y-15355412D01*
X15605896Y-15355412D02*
X15605896Y-15345888D01*
X15605896Y-15345888D02*
X15596372Y-15326841D01*
X15596372Y-15326841D02*
X15577325Y-15317317D01*
X15577325Y-15317317D02*
X15548753Y-15317317D01*
X15548753Y-15317317D02*
X15529706Y-15307793D01*
X15529706Y-15307793D02*
X15520182Y-15288746D01*
X15520182Y-15288746D02*
X15520182Y-15279222D01*
X15520182Y-15279222D02*
X15529706Y-15260174D01*
X15529706Y-15260174D02*
X15548753Y-15250650D01*
X15548753Y-15250650D02*
X15577325Y-15250650D01*
X15577325Y-15250650D02*
X15596372Y-15260174D01*
X15672563Y-15460174D02*
X15682087Y-15450650D01*
X15682087Y-15450650D02*
X15701134Y-15422079D01*
X15701134Y-15422079D02*
X15710658Y-15403031D01*
X15710658Y-15403031D02*
X15720182Y-15374460D01*
X15720182Y-15374460D02*
X15729706Y-15326841D01*
X15729706Y-15326841D02*
X15729706Y-15288746D01*
X15729706Y-15288746D02*
X15720182Y-15241127D01*
X15720182Y-15241127D02*
X15710658Y-15212555D01*
X15710658Y-15212555D02*
X15701134Y-15193508D01*
X15701134Y-15193508D02*
X15682087Y-15164936D01*
X15682087Y-15164936D02*
X15672563Y-15155412D01*
X16034468Y-15460174D02*
X16024944Y-15450650D01*
X16024944Y-15450650D02*
X16005896Y-15422079D01*
X16005896Y-15422079D02*
X15996372Y-15403031D01*
X15996372Y-15403031D02*
X15986849Y-15374460D01*
X15986849Y-15374460D02*
X15977325Y-15326841D01*
X15977325Y-15326841D02*
X15977325Y-15288746D01*
X15977325Y-15288746D02*
X15986849Y-15241127D01*
X15986849Y-15241127D02*
X15996372Y-15212555D01*
X15996372Y-15212555D02*
X16005896Y-15193508D01*
X16005896Y-15193508D02*
X16024944Y-15164936D01*
X16024944Y-15164936D02*
X16034468Y-15155412D01*
X16110658Y-15250650D02*
X16110658Y-15383984D01*
X16110658Y-15269698D02*
X16120182Y-15260174D01*
X16120182Y-15260174D02*
X16139230Y-15250650D01*
X16139230Y-15250650D02*
X16167801Y-15250650D01*
X16167801Y-15250650D02*
X16186849Y-15260174D01*
X16186849Y-15260174D02*
X16196372Y-15279222D01*
X16196372Y-15279222D02*
X16196372Y-15383984D01*
X16320182Y-15383984D02*
X16301134Y-15374460D01*
X16301134Y-15374460D02*
X16291611Y-15364936D01*
X16291611Y-15364936D02*
X16282087Y-15345888D01*
X16282087Y-15345888D02*
X16282087Y-15288746D01*
X16282087Y-15288746D02*
X16291611Y-15269698D01*
X16291611Y-15269698D02*
X16301134Y-15260174D01*
X16301134Y-15260174D02*
X16320182Y-15250650D01*
X16320182Y-15250650D02*
X16348753Y-15250650D01*
X16348753Y-15250650D02*
X16367801Y-15260174D01*
X16367801Y-15260174D02*
X16377325Y-15269698D01*
X16377325Y-15269698D02*
X16386849Y-15288746D01*
X16386849Y-15288746D02*
X16386849Y-15345888D01*
X16386849Y-15345888D02*
X16377325Y-15364936D01*
X16377325Y-15364936D02*
X16367801Y-15374460D01*
X16367801Y-15374460D02*
X16348753Y-15383984D01*
X16348753Y-15383984D02*
X16320182Y-15383984D01*
X16443992Y-15250650D02*
X16520182Y-15250650D01*
X16472563Y-15183984D02*
X16472563Y-15355412D01*
X16472563Y-15355412D02*
X16482087Y-15374460D01*
X16482087Y-15374460D02*
X16501134Y-15383984D01*
X16501134Y-15383984D02*
X16520182Y-15383984D01*
X16739230Y-15250650D02*
X16739230Y-15450650D01*
X16739230Y-15260174D02*
X16758277Y-15250650D01*
X16758277Y-15250650D02*
X16796373Y-15250650D01*
X16796373Y-15250650D02*
X16815420Y-15260174D01*
X16815420Y-15260174D02*
X16824944Y-15269698D01*
X16824944Y-15269698D02*
X16834468Y-15288746D01*
X16834468Y-15288746D02*
X16834468Y-15345888D01*
X16834468Y-15345888D02*
X16824944Y-15364936D01*
X16824944Y-15364936D02*
X16815420Y-15374460D01*
X16815420Y-15374460D02*
X16796373Y-15383984D01*
X16796373Y-15383984D02*
X16758277Y-15383984D01*
X16758277Y-15383984D02*
X16739230Y-15374460D01*
X16948754Y-15383984D02*
X16929706Y-15374460D01*
X16929706Y-15374460D02*
X16920182Y-15355412D01*
X16920182Y-15355412D02*
X16920182Y-15183984D01*
X17110658Y-15383984D02*
X17110658Y-15279222D01*
X17110658Y-15279222D02*
X17101135Y-15260174D01*
X17101135Y-15260174D02*
X17082087Y-15250650D01*
X17082087Y-15250650D02*
X17043992Y-15250650D01*
X17043992Y-15250650D02*
X17024944Y-15260174D01*
X17110658Y-15374460D02*
X17091611Y-15383984D01*
X17091611Y-15383984D02*
X17043992Y-15383984D01*
X17043992Y-15383984D02*
X17024944Y-15374460D01*
X17024944Y-15374460D02*
X17015420Y-15355412D01*
X17015420Y-15355412D02*
X17015420Y-15336365D01*
X17015420Y-15336365D02*
X17024944Y-15317317D01*
X17024944Y-15317317D02*
X17043992Y-15307793D01*
X17043992Y-15307793D02*
X17091611Y-15307793D01*
X17091611Y-15307793D02*
X17110658Y-15298269D01*
X17177325Y-15250650D02*
X17253515Y-15250650D01*
X17205896Y-15183984D02*
X17205896Y-15355412D01*
X17205896Y-15355412D02*
X17215420Y-15374460D01*
X17215420Y-15374460D02*
X17234468Y-15383984D01*
X17234468Y-15383984D02*
X17253515Y-15383984D01*
X17396373Y-15374460D02*
X17377325Y-15383984D01*
X17377325Y-15383984D02*
X17339230Y-15383984D01*
X17339230Y-15383984D02*
X17320182Y-15374460D01*
X17320182Y-15374460D02*
X17310658Y-15355412D01*
X17310658Y-15355412D02*
X17310658Y-15279222D01*
X17310658Y-15279222D02*
X17320182Y-15260174D01*
X17320182Y-15260174D02*
X17339230Y-15250650D01*
X17339230Y-15250650D02*
X17377325Y-15250650D01*
X17377325Y-15250650D02*
X17396373Y-15260174D01*
X17396373Y-15260174D02*
X17405896Y-15279222D01*
X17405896Y-15279222D02*
X17405896Y-15298269D01*
X17405896Y-15298269D02*
X17310658Y-15317317D01*
X17577325Y-15383984D02*
X17577325Y-15183984D01*
X17577325Y-15374460D02*
X17558277Y-15383984D01*
X17558277Y-15383984D02*
X17520182Y-15383984D01*
X17520182Y-15383984D02*
X17501135Y-15374460D01*
X17501135Y-15374460D02*
X17491611Y-15364936D01*
X17491611Y-15364936D02*
X17482087Y-15345888D01*
X17482087Y-15345888D02*
X17482087Y-15288746D01*
X17482087Y-15288746D02*
X17491611Y-15269698D01*
X17491611Y-15269698D02*
X17501135Y-15260174D01*
X17501135Y-15260174D02*
X17520182Y-15250650D01*
X17520182Y-15250650D02*
X17558277Y-15250650D01*
X17558277Y-15250650D02*
X17577325Y-15260174D01*
X17653516Y-15460174D02*
X17663039Y-15450650D01*
X17663039Y-15450650D02*
X17682087Y-15422079D01*
X17682087Y-15422079D02*
X17691611Y-15403031D01*
X17691611Y-15403031D02*
X17701135Y-15374460D01*
X17701135Y-15374460D02*
X17710658Y-15326841D01*
X17710658Y-15326841D02*
X17710658Y-15288746D01*
X17710658Y-15288746D02*
X17701135Y-15241127D01*
X17701135Y-15241127D02*
X17691611Y-15212555D01*
X17691611Y-15212555D02*
X17682087Y-15193508D01*
X17682087Y-15193508D02*
X17663039Y-15164936D01*
X17663039Y-15164936D02*
X17653516Y-15155412D01*
X10897500Y-15612500D02*
G75*
G02*
X10697500Y-15612500I-100000J0D01*
G01*
X10697500Y-15612500D02*
G75*
G02*
X10897500Y-15612500I100000J0D01*
G01*
X11139229Y-15503984D02*
X11263039Y-15503984D01*
X11263039Y-15503984D02*
X11196372Y-15580174D01*
X11196372Y-15580174D02*
X11224943Y-15580174D01*
X11224943Y-15580174D02*
X11243991Y-15589698D01*
X11243991Y-15589698D02*
X11253515Y-15599222D01*
X11253515Y-15599222D02*
X11263039Y-15618269D01*
X11263039Y-15618269D02*
X11263039Y-15665888D01*
X11263039Y-15665888D02*
X11253515Y-15684936D01*
X11253515Y-15684936D02*
X11243991Y-15694460D01*
X11243991Y-15694460D02*
X11224943Y-15703984D01*
X11224943Y-15703984D02*
X11167801Y-15703984D01*
X11167801Y-15703984D02*
X11148753Y-15694460D01*
X11148753Y-15694460D02*
X11139229Y-15684936D01*
X11348753Y-15684936D02*
X11358277Y-15694460D01*
X11358277Y-15694460D02*
X11348753Y-15703984D01*
X11348753Y-15703984D02*
X11339229Y-15694460D01*
X11339229Y-15694460D02*
X11348753Y-15684936D01*
X11348753Y-15684936D02*
X11348753Y-15703984D01*
X11434467Y-15523031D02*
X11443991Y-15513508D01*
X11443991Y-15513508D02*
X11463039Y-15503984D01*
X11463039Y-15503984D02*
X11510658Y-15503984D01*
X11510658Y-15503984D02*
X11529705Y-15513508D01*
X11529705Y-15513508D02*
X11539229Y-15523031D01*
X11539229Y-15523031D02*
X11548753Y-15542079D01*
X11548753Y-15542079D02*
X11548753Y-15561127D01*
X11548753Y-15561127D02*
X11539229Y-15589698D01*
X11539229Y-15589698D02*
X11424943Y-15703984D01*
X11424943Y-15703984D02*
X11548753Y-15703984D01*
X11672562Y-15503984D02*
X11691610Y-15503984D01*
X11691610Y-15503984D02*
X11710658Y-15513508D01*
X11710658Y-15513508D02*
X11720182Y-15523031D01*
X11720182Y-15523031D02*
X11729705Y-15542079D01*
X11729705Y-15542079D02*
X11739229Y-15580174D01*
X11739229Y-15580174D02*
X11739229Y-15627793D01*
X11739229Y-15627793D02*
X11729705Y-15665888D01*
X11729705Y-15665888D02*
X11720182Y-15684936D01*
X11720182Y-15684936D02*
X11710658Y-15694460D01*
X11710658Y-15694460D02*
X11691610Y-15703984D01*
X11691610Y-15703984D02*
X11672562Y-15703984D01*
X11672562Y-15703984D02*
X11653515Y-15694460D01*
X11653515Y-15694460D02*
X11643991Y-15684936D01*
X11643991Y-15684936D02*
X11634467Y-15665888D01*
X11634467Y-15665888D02*
X11624943Y-15627793D01*
X11624943Y-15627793D02*
X11624943Y-15580174D01*
X11624943Y-15580174D02*
X11634467Y-15542079D01*
X11634467Y-15542079D02*
X11643991Y-15523031D01*
X11643991Y-15523031D02*
X11653515Y-15513508D01*
X11653515Y-15513508D02*
X11672562Y-15503984D01*
X11863039Y-15503984D02*
X11882086Y-15503984D01*
X11882086Y-15503984D02*
X11901134Y-15513508D01*
X11901134Y-15513508D02*
X11910658Y-15523031D01*
X11910658Y-15523031D02*
X11920182Y-15542079D01*
X11920182Y-15542079D02*
X11929705Y-15580174D01*
X11929705Y-15580174D02*
X11929705Y-15627793D01*
X11929705Y-15627793D02*
X11920182Y-15665888D01*
X11920182Y-15665888D02*
X11910658Y-15684936D01*
X11910658Y-15684936D02*
X11901134Y-15694460D01*
X11901134Y-15694460D02*
X11882086Y-15703984D01*
X11882086Y-15703984D02*
X11863039Y-15703984D01*
X11863039Y-15703984D02*
X11843991Y-15694460D01*
X11843991Y-15694460D02*
X11834467Y-15684936D01*
X11834467Y-15684936D02*
X11824943Y-15665888D01*
X11824943Y-15665888D02*
X11815420Y-15627793D01*
X11815420Y-15627793D02*
X11815420Y-15580174D01*
X11815420Y-15580174D02*
X11824943Y-15542079D01*
X11824943Y-15542079D02*
X11834467Y-15523031D01*
X11834467Y-15523031D02*
X11843991Y-15513508D01*
X11843991Y-15513508D02*
X11863039Y-15503984D01*
X12015420Y-15703984D02*
X12015420Y-15570650D01*
X12015420Y-15589698D02*
X12024943Y-15580174D01*
X12024943Y-15580174D02*
X12043991Y-15570650D01*
X12043991Y-15570650D02*
X12072563Y-15570650D01*
X12072563Y-15570650D02*
X12091610Y-15580174D01*
X12091610Y-15580174D02*
X12101134Y-15599222D01*
X12101134Y-15599222D02*
X12101134Y-15703984D01*
X12101134Y-15599222D02*
X12110658Y-15580174D01*
X12110658Y-15580174D02*
X12129705Y-15570650D01*
X12129705Y-15570650D02*
X12158277Y-15570650D01*
X12158277Y-15570650D02*
X12177324Y-15580174D01*
X12177324Y-15580174D02*
X12186848Y-15599222D01*
X12186848Y-15599222D02*
X12186848Y-15703984D01*
X12282086Y-15703984D02*
X12282086Y-15570650D01*
X12282086Y-15589698D02*
X12291610Y-15580174D01*
X12291610Y-15580174D02*
X12310658Y-15570650D01*
X12310658Y-15570650D02*
X12339229Y-15570650D01*
X12339229Y-15570650D02*
X12358277Y-15580174D01*
X12358277Y-15580174D02*
X12367801Y-15599222D01*
X12367801Y-15599222D02*
X12367801Y-15703984D01*
X12367801Y-15599222D02*
X12377324Y-15580174D01*
X12377324Y-15580174D02*
X12396372Y-15570650D01*
X12396372Y-15570650D02*
X12424943Y-15570650D01*
X12424943Y-15570650D02*
X12443991Y-15580174D01*
X12443991Y-15580174D02*
X12453515Y-15599222D01*
X12453515Y-15599222D02*
X12453515Y-15703984D01*
X12843991Y-15494460D02*
X12672563Y-15751603D01*
X13101134Y-15503984D02*
X13120182Y-15503984D01*
X13120182Y-15503984D02*
X13139229Y-15513508D01*
X13139229Y-15513508D02*
X13148753Y-15523031D01*
X13148753Y-15523031D02*
X13158277Y-15542079D01*
X13158277Y-15542079D02*
X13167801Y-15580174D01*
X13167801Y-15580174D02*
X13167801Y-15627793D01*
X13167801Y-15627793D02*
X13158277Y-15665888D01*
X13158277Y-15665888D02*
X13148753Y-15684936D01*
X13148753Y-15684936D02*
X13139229Y-15694460D01*
X13139229Y-15694460D02*
X13120182Y-15703984D01*
X13120182Y-15703984D02*
X13101134Y-15703984D01*
X13101134Y-15703984D02*
X13082086Y-15694460D01*
X13082086Y-15694460D02*
X13072563Y-15684936D01*
X13072563Y-15684936D02*
X13063039Y-15665888D01*
X13063039Y-15665888D02*
X13053515Y-15627793D01*
X13053515Y-15627793D02*
X13053515Y-15580174D01*
X13053515Y-15580174D02*
X13063039Y-15542079D01*
X13063039Y-15542079D02*
X13072563Y-15523031D01*
X13072563Y-15523031D02*
X13082086Y-15513508D01*
X13082086Y-15513508D02*
X13101134Y-15503984D01*
X13253515Y-15684936D02*
X13263039Y-15694460D01*
X13263039Y-15694460D02*
X13253515Y-15703984D01*
X13253515Y-15703984D02*
X13243991Y-15694460D01*
X13243991Y-15694460D02*
X13253515Y-15684936D01*
X13253515Y-15684936D02*
X13253515Y-15703984D01*
X13453515Y-15703984D02*
X13339229Y-15703984D01*
X13396372Y-15703984D02*
X13396372Y-15503984D01*
X13396372Y-15503984D02*
X13377325Y-15532555D01*
X13377325Y-15532555D02*
X13358277Y-15551603D01*
X13358277Y-15551603D02*
X13339229Y-15561127D01*
X13529706Y-15523031D02*
X13539229Y-15513508D01*
X13539229Y-15513508D02*
X13558277Y-15503984D01*
X13558277Y-15503984D02*
X13605896Y-15503984D01*
X13605896Y-15503984D02*
X13624944Y-15513508D01*
X13624944Y-15513508D02*
X13634467Y-15523031D01*
X13634467Y-15523031D02*
X13643991Y-15542079D01*
X13643991Y-15542079D02*
X13643991Y-15561127D01*
X13643991Y-15561127D02*
X13634467Y-15589698D01*
X13634467Y-15589698D02*
X13520182Y-15703984D01*
X13520182Y-15703984D02*
X13643991Y-15703984D01*
X13815420Y-15503984D02*
X13777325Y-15503984D01*
X13777325Y-15503984D02*
X13758277Y-15513508D01*
X13758277Y-15513508D02*
X13748753Y-15523031D01*
X13748753Y-15523031D02*
X13729706Y-15551603D01*
X13729706Y-15551603D02*
X13720182Y-15589698D01*
X13720182Y-15589698D02*
X13720182Y-15665888D01*
X13720182Y-15665888D02*
X13729706Y-15684936D01*
X13729706Y-15684936D02*
X13739229Y-15694460D01*
X13739229Y-15694460D02*
X13758277Y-15703984D01*
X13758277Y-15703984D02*
X13796372Y-15703984D01*
X13796372Y-15703984D02*
X13815420Y-15694460D01*
X13815420Y-15694460D02*
X13824944Y-15684936D01*
X13824944Y-15684936D02*
X13834467Y-15665888D01*
X13834467Y-15665888D02*
X13834467Y-15618269D01*
X13834467Y-15618269D02*
X13824944Y-15599222D01*
X13824944Y-15599222D02*
X13815420Y-15589698D01*
X13815420Y-15589698D02*
X13796372Y-15580174D01*
X13796372Y-15580174D02*
X13758277Y-15580174D01*
X13758277Y-15580174D02*
X13739229Y-15589698D01*
X13739229Y-15589698D02*
X13729706Y-15599222D01*
X13729706Y-15599222D02*
X13720182Y-15618269D01*
X13958277Y-15503984D02*
X13977325Y-15503984D01*
X13977325Y-15503984D02*
X13996372Y-15513508D01*
X13996372Y-15513508D02*
X14005896Y-15523031D01*
X14005896Y-15523031D02*
X14015420Y-15542079D01*
X14015420Y-15542079D02*
X14024944Y-15580174D01*
X14024944Y-15580174D02*
X14024944Y-15627793D01*
X14024944Y-15627793D02*
X14015420Y-15665888D01*
X14015420Y-15665888D02*
X14005896Y-15684936D01*
X14005896Y-15684936D02*
X13996372Y-15694460D01*
X13996372Y-15694460D02*
X13977325Y-15703984D01*
X13977325Y-15703984D02*
X13958277Y-15703984D01*
X13958277Y-15703984D02*
X13939229Y-15694460D01*
X13939229Y-15694460D02*
X13929706Y-15684936D01*
X13929706Y-15684936D02*
X13920182Y-15665888D01*
X13920182Y-15665888D02*
X13910658Y-15627793D01*
X13910658Y-15627793D02*
X13910658Y-15580174D01*
X13910658Y-15580174D02*
X13920182Y-15542079D01*
X13920182Y-15542079D02*
X13929706Y-15523031D01*
X13929706Y-15523031D02*
X13939229Y-15513508D01*
X13939229Y-15513508D02*
X13958277Y-15503984D01*
X14101134Y-15503984D02*
X14101134Y-15542079D01*
X14177325Y-15503984D02*
X14177325Y-15542079D01*
X14472563Y-15780174D02*
X14463039Y-15770650D01*
X14463039Y-15770650D02*
X14443991Y-15742079D01*
X14443991Y-15742079D02*
X14434468Y-15723031D01*
X14434468Y-15723031D02*
X14424944Y-15694460D01*
X14424944Y-15694460D02*
X14415420Y-15646841D01*
X14415420Y-15646841D02*
X14415420Y-15608746D01*
X14415420Y-15608746D02*
X14424944Y-15561127D01*
X14424944Y-15561127D02*
X14434468Y-15532555D01*
X14434468Y-15532555D02*
X14443991Y-15513508D01*
X14443991Y-15513508D02*
X14463039Y-15484936D01*
X14463039Y-15484936D02*
X14472563Y-15475412D01*
X14653515Y-15703984D02*
X14539229Y-15703984D01*
X14596372Y-15703984D02*
X14596372Y-15503984D01*
X14596372Y-15503984D02*
X14577325Y-15532555D01*
X14577325Y-15532555D02*
X14558277Y-15551603D01*
X14558277Y-15551603D02*
X14539229Y-15561127D01*
X14891610Y-15703984D02*
X14891610Y-15503984D01*
X14977325Y-15703984D02*
X14977325Y-15599222D01*
X14977325Y-15599222D02*
X14967801Y-15580174D01*
X14967801Y-15580174D02*
X14948753Y-15570650D01*
X14948753Y-15570650D02*
X14920182Y-15570650D01*
X14920182Y-15570650D02*
X14901134Y-15580174D01*
X14901134Y-15580174D02*
X14891610Y-15589698D01*
X15101134Y-15703984D02*
X15082087Y-15694460D01*
X15082087Y-15694460D02*
X15072563Y-15684936D01*
X15072563Y-15684936D02*
X15063039Y-15665888D01*
X15063039Y-15665888D02*
X15063039Y-15608746D01*
X15063039Y-15608746D02*
X15072563Y-15589698D01*
X15072563Y-15589698D02*
X15082087Y-15580174D01*
X15082087Y-15580174D02*
X15101134Y-15570650D01*
X15101134Y-15570650D02*
X15129706Y-15570650D01*
X15129706Y-15570650D02*
X15148753Y-15580174D01*
X15148753Y-15580174D02*
X15158277Y-15589698D01*
X15158277Y-15589698D02*
X15167801Y-15608746D01*
X15167801Y-15608746D02*
X15167801Y-15665888D01*
X15167801Y-15665888D02*
X15158277Y-15684936D01*
X15158277Y-15684936D02*
X15148753Y-15694460D01*
X15148753Y-15694460D02*
X15129706Y-15703984D01*
X15129706Y-15703984D02*
X15101134Y-15703984D01*
X15282087Y-15703984D02*
X15263039Y-15694460D01*
X15263039Y-15694460D02*
X15253515Y-15675412D01*
X15253515Y-15675412D02*
X15253515Y-15503984D01*
X15434468Y-15694460D02*
X15415420Y-15703984D01*
X15415420Y-15703984D02*
X15377325Y-15703984D01*
X15377325Y-15703984D02*
X15358277Y-15694460D01*
X15358277Y-15694460D02*
X15348753Y-15675412D01*
X15348753Y-15675412D02*
X15348753Y-15599222D01*
X15348753Y-15599222D02*
X15358277Y-15580174D01*
X15358277Y-15580174D02*
X15377325Y-15570650D01*
X15377325Y-15570650D02*
X15415420Y-15570650D01*
X15415420Y-15570650D02*
X15434468Y-15580174D01*
X15434468Y-15580174D02*
X15443991Y-15599222D01*
X15443991Y-15599222D02*
X15443991Y-15618269D01*
X15443991Y-15618269D02*
X15348753Y-15637317D01*
X15510658Y-15780174D02*
X15520182Y-15770650D01*
X15520182Y-15770650D02*
X15539230Y-15742079D01*
X15539230Y-15742079D02*
X15548753Y-15723031D01*
X15548753Y-15723031D02*
X15558277Y-15694460D01*
X15558277Y-15694460D02*
X15567801Y-15646841D01*
X15567801Y-15646841D02*
X15567801Y-15608746D01*
X15567801Y-15608746D02*
X15558277Y-15561127D01*
X15558277Y-15561127D02*
X15548753Y-15532555D01*
X15548753Y-15532555D02*
X15539230Y-15513508D01*
X15539230Y-15513508D02*
X15520182Y-15484936D01*
X15520182Y-15484936D02*
X15510658Y-15475412D01*
X15872563Y-15780174D02*
X15863039Y-15770650D01*
X15863039Y-15770650D02*
X15843991Y-15742079D01*
X15843991Y-15742079D02*
X15834468Y-15723031D01*
X15834468Y-15723031D02*
X15824944Y-15694460D01*
X15824944Y-15694460D02*
X15815420Y-15646841D01*
X15815420Y-15646841D02*
X15815420Y-15608746D01*
X15815420Y-15608746D02*
X15824944Y-15561127D01*
X15824944Y-15561127D02*
X15834468Y-15532555D01*
X15834468Y-15532555D02*
X15843991Y-15513508D01*
X15843991Y-15513508D02*
X15863039Y-15484936D01*
X15863039Y-15484936D02*
X15872563Y-15475412D01*
X15948753Y-15570650D02*
X15948753Y-15703984D01*
X15948753Y-15589698D02*
X15958277Y-15580174D01*
X15958277Y-15580174D02*
X15977325Y-15570650D01*
X15977325Y-15570650D02*
X16005896Y-15570650D01*
X16005896Y-15570650D02*
X16024944Y-15580174D01*
X16024944Y-15580174D02*
X16034468Y-15599222D01*
X16034468Y-15599222D02*
X16034468Y-15703984D01*
X16158277Y-15703984D02*
X16139230Y-15694460D01*
X16139230Y-15694460D02*
X16129706Y-15684936D01*
X16129706Y-15684936D02*
X16120182Y-15665888D01*
X16120182Y-15665888D02*
X16120182Y-15608746D01*
X16120182Y-15608746D02*
X16129706Y-15589698D01*
X16129706Y-15589698D02*
X16139230Y-15580174D01*
X16139230Y-15580174D02*
X16158277Y-15570650D01*
X16158277Y-15570650D02*
X16186849Y-15570650D01*
X16186849Y-15570650D02*
X16205896Y-15580174D01*
X16205896Y-15580174D02*
X16215420Y-15589698D01*
X16215420Y-15589698D02*
X16224944Y-15608746D01*
X16224944Y-15608746D02*
X16224944Y-15665888D01*
X16224944Y-15665888D02*
X16215420Y-15684936D01*
X16215420Y-15684936D02*
X16205896Y-15694460D01*
X16205896Y-15694460D02*
X16186849Y-15703984D01*
X16186849Y-15703984D02*
X16158277Y-15703984D01*
X16282087Y-15570650D02*
X16358277Y-15570650D01*
X16310658Y-15503984D02*
X16310658Y-15675412D01*
X16310658Y-15675412D02*
X16320182Y-15694460D01*
X16320182Y-15694460D02*
X16339230Y-15703984D01*
X16339230Y-15703984D02*
X16358277Y-15703984D01*
X16577325Y-15570650D02*
X16577325Y-15770650D01*
X16577325Y-15580174D02*
X16596372Y-15570650D01*
X16596372Y-15570650D02*
X16634468Y-15570650D01*
X16634468Y-15570650D02*
X16653515Y-15580174D01*
X16653515Y-15580174D02*
X16663039Y-15589698D01*
X16663039Y-15589698D02*
X16672563Y-15608746D01*
X16672563Y-15608746D02*
X16672563Y-15665888D01*
X16672563Y-15665888D02*
X16663039Y-15684936D01*
X16663039Y-15684936D02*
X16653515Y-15694460D01*
X16653515Y-15694460D02*
X16634468Y-15703984D01*
X16634468Y-15703984D02*
X16596372Y-15703984D01*
X16596372Y-15703984D02*
X16577325Y-15694460D01*
X16786849Y-15703984D02*
X16767801Y-15694460D01*
X16767801Y-15694460D02*
X16758277Y-15675412D01*
X16758277Y-15675412D02*
X16758277Y-15503984D01*
X16948754Y-15703984D02*
X16948754Y-15599222D01*
X16948754Y-15599222D02*
X16939230Y-15580174D01*
X16939230Y-15580174D02*
X16920182Y-15570650D01*
X16920182Y-15570650D02*
X16882087Y-15570650D01*
X16882087Y-15570650D02*
X16863039Y-15580174D01*
X16948754Y-15694460D02*
X16929706Y-15703984D01*
X16929706Y-15703984D02*
X16882087Y-15703984D01*
X16882087Y-15703984D02*
X16863039Y-15694460D01*
X16863039Y-15694460D02*
X16853515Y-15675412D01*
X16853515Y-15675412D02*
X16853515Y-15656365D01*
X16853515Y-15656365D02*
X16863039Y-15637317D01*
X16863039Y-15637317D02*
X16882087Y-15627793D01*
X16882087Y-15627793D02*
X16929706Y-15627793D01*
X16929706Y-15627793D02*
X16948754Y-15618269D01*
X17015420Y-15570650D02*
X17091611Y-15570650D01*
X17043992Y-15503984D02*
X17043992Y-15675412D01*
X17043992Y-15675412D02*
X17053515Y-15694460D01*
X17053515Y-15694460D02*
X17072563Y-15703984D01*
X17072563Y-15703984D02*
X17091611Y-15703984D01*
X17234468Y-15694460D02*
X17215420Y-15703984D01*
X17215420Y-15703984D02*
X17177325Y-15703984D01*
X17177325Y-15703984D02*
X17158277Y-15694460D01*
X17158277Y-15694460D02*
X17148754Y-15675412D01*
X17148754Y-15675412D02*
X17148754Y-15599222D01*
X17148754Y-15599222D02*
X17158277Y-15580174D01*
X17158277Y-15580174D02*
X17177325Y-15570650D01*
X17177325Y-15570650D02*
X17215420Y-15570650D01*
X17215420Y-15570650D02*
X17234468Y-15580174D01*
X17234468Y-15580174D02*
X17243992Y-15599222D01*
X17243992Y-15599222D02*
X17243992Y-15618269D01*
X17243992Y-15618269D02*
X17148754Y-15637317D01*
X17415420Y-15703984D02*
X17415420Y-15503984D01*
X17415420Y-15694460D02*
X17396373Y-15703984D01*
X17396373Y-15703984D02*
X17358277Y-15703984D01*
X17358277Y-15703984D02*
X17339230Y-15694460D01*
X17339230Y-15694460D02*
X17329706Y-15684936D01*
X17329706Y-15684936D02*
X17320182Y-15665888D01*
X17320182Y-15665888D02*
X17320182Y-15608746D01*
X17320182Y-15608746D02*
X17329706Y-15589698D01*
X17329706Y-15589698D02*
X17339230Y-15580174D01*
X17339230Y-15580174D02*
X17358277Y-15570650D01*
X17358277Y-15570650D02*
X17396373Y-15570650D01*
X17396373Y-15570650D02*
X17415420Y-15580174D01*
X17491611Y-15780174D02*
X17501135Y-15770650D01*
X17501135Y-15770650D02*
X17520182Y-15742079D01*
X17520182Y-15742079D02*
X17529706Y-15723031D01*
X17529706Y-15723031D02*
X17539230Y-15694460D01*
X17539230Y-15694460D02*
X17548754Y-15646841D01*
X17548754Y-15646841D02*
X17548754Y-15608746D01*
X17548754Y-15608746D02*
X17539230Y-15561127D01*
X17539230Y-15561127D02*
X17529706Y-15532555D01*
X17529706Y-15532555D02*
X17520182Y-15513508D01*
X17520182Y-15513508D02*
X17501135Y-15484936D01*
X17501135Y-15484936D02*
X17491611Y-15475412D01*
M02*
