%TF.GenerationSoftware,KiCad,Pcbnew,7.0.7-7.0.7~ubuntu22.04.1*%
%TF.CreationDate,2023-12-10T22:01:40+01:00*%
%TF.ProjectId,CD40106_VCO,43443430-3130-4365-9f56-434f2e6b6963,rev?*%
%TF.SameCoordinates,Original*%
%TF.FileFunction,Drillmap*%
%TF.FilePolarity,Positive*%
%FSLAX45Y45*%
G04 Gerber Fmt 4.5, Leading zero omitted, Abs format (unit mm)*
G04 Created by KiCad (PCBNEW 7.0.7-7.0.7~ubuntu22.04.1) date 2023-12-10 22:01:40*
%MOMM*%
%LPD*%
G01*
G04 APERTURE LIST*
%ADD10C,0.050000*%
%ADD11C,0.200000*%
%ADD12C,0.030000*%
%ADD13C,0.040000*%
%ADD14C,0.080000*%
%ADD15C,0.100000*%
%ADD16C,0.122000*%
%ADD17C,0.142000*%
%ADD18C,0.143000*%
G04 APERTURE END LIST*
D10*
X15900000Y-7325000D02*
X15900000Y-14650000D01*
X10900000Y-7325000D02*
X15900000Y-7325000D01*
X10900000Y-7325000D02*
X10900000Y-14650000D01*
X10900000Y-14650000D02*
X15900000Y-14650000D01*
D11*
D12*
X14775000Y-9275000D02*
X14805000Y-9305000D01*
X14805000Y-9275000D02*
X14775000Y-9305000D01*
X14775000Y-9345000D02*
X14805000Y-9375000D01*
X14805000Y-9345000D02*
X14775000Y-9375000D01*
X14845000Y-9275000D02*
X14875000Y-9305000D01*
X14875000Y-9275000D02*
X14845000Y-9305000D01*
X14845000Y-9345000D02*
X14875000Y-9375000D01*
X14875000Y-9345000D02*
X14845000Y-9375000D01*
X14955000Y-12215000D02*
X14985000Y-12245000D01*
X14985000Y-12215000D02*
X14955000Y-12245000D01*
X14955000Y-12285000D02*
X14985000Y-12315000D01*
X14985000Y-12285000D02*
X14955000Y-12315000D01*
X14955000Y-12355000D02*
X14985000Y-12385000D01*
X14985000Y-12355000D02*
X14955000Y-12385000D01*
D13*
X11490000Y-8230000D02*
G75*
G03*
X11490000Y-8230000I-20000J0D01*
G01*
X11590000Y-8430000D02*
G75*
G03*
X11590000Y-8430000I-20000J0D01*
G01*
X12400000Y-11250000D02*
G75*
G03*
X12400000Y-11250000I-20000J0D01*
G01*
X12400000Y-11340000D02*
G75*
G03*
X12400000Y-11340000I-20000J0D01*
G01*
X12500000Y-11250000D02*
G75*
G03*
X12500000Y-11250000I-20000J0D01*
G01*
X12500000Y-11340000D02*
G75*
G03*
X12500000Y-11340000I-20000J0D01*
G01*
X13340000Y-13980000D02*
G75*
G03*
X13340000Y-13980000I-20000J0D01*
G01*
X13420000Y-13930000D02*
G75*
G03*
X13420000Y-13930000I-20000J0D01*
G01*
X13420000Y-14020000D02*
G75*
G03*
X13420000Y-14020000I-20000J0D01*
G01*
X13500000Y-13980000D02*
G75*
G03*
X13500000Y-13980000I-20000J0D01*
G01*
X13960000Y-11290000D02*
G75*
G03*
X13960000Y-11290000I-20000J0D01*
G01*
X13960000Y-11380000D02*
G75*
G03*
X13960000Y-11380000I-20000J0D01*
G01*
X14050000Y-11290000D02*
G75*
G03*
X14050000Y-11290000I-20000J0D01*
G01*
X14050000Y-11380000D02*
G75*
G03*
X14050000Y-11380000I-20000J0D01*
G01*
X14410000Y-14270000D02*
G75*
G03*
X14410000Y-14270000I-20000J0D01*
G01*
X14980000Y-11520000D02*
G75*
G03*
X14980000Y-11520000I-20000J0D01*
G01*
X15040000Y-11430000D02*
G75*
G03*
X15040000Y-11430000I-20000J0D01*
G01*
X15610000Y-11830000D02*
G75*
G03*
X15610000Y-11830000I-20000J0D01*
G01*
X15610000Y-11920000D02*
G75*
G03*
X15610000Y-11920000I-20000J0D01*
G01*
X15770000Y-10000000D02*
G75*
G03*
X15770000Y-10000000I-20000J0D01*
G01*
X15770000Y-10110000D02*
G75*
G03*
X15770000Y-10110000I-20000J0D01*
G01*
D14*
X11650000Y-9085000D02*
X11650000Y-9165000D01*
X11610000Y-9125000D02*
X11690000Y-9125000D01*
X12150000Y-9085000D02*
X12150000Y-9165000D01*
X12110000Y-9125000D02*
X12190000Y-9125000D01*
X13000000Y-9885000D02*
X13000000Y-9965000D01*
X12960000Y-9925000D02*
X13040000Y-9925000D01*
X13018000Y-8803000D02*
X13018000Y-8883000D01*
X12978000Y-8843000D02*
X13058000Y-8843000D01*
X13018000Y-9057000D02*
X13018000Y-9137000D01*
X12978000Y-9097000D02*
X13058000Y-9097000D01*
X13018000Y-9311000D02*
X13018000Y-9391000D01*
X12978000Y-9351000D02*
X13058000Y-9351000D01*
X13018000Y-9565000D02*
X13018000Y-9645000D01*
X12978000Y-9605000D02*
X13058000Y-9605000D01*
X13300000Y-8485000D02*
X13300000Y-8565000D01*
X13260000Y-8525000D02*
X13340000Y-8525000D01*
X13500000Y-9885000D02*
X13500000Y-9965000D01*
X13460000Y-9925000D02*
X13540000Y-9925000D01*
X13780000Y-8803000D02*
X13780000Y-8883000D01*
X13740000Y-8843000D02*
X13820000Y-8843000D01*
X13780000Y-9057000D02*
X13780000Y-9137000D01*
X13740000Y-9097000D02*
X13820000Y-9097000D01*
X13780000Y-9311000D02*
X13780000Y-9391000D01*
X13740000Y-9351000D02*
X13820000Y-9351000D01*
X13780000Y-9565000D02*
X13780000Y-9645000D01*
X13740000Y-9605000D02*
X13820000Y-9605000D01*
X13800000Y-8485000D02*
X13800000Y-8565000D01*
X13760000Y-8525000D02*
X13840000Y-8525000D01*
X15725000Y-10723000D02*
X15725000Y-10803000D01*
X15685000Y-10763000D02*
X15765000Y-10763000D01*
X15725000Y-11485000D02*
X15725000Y-11565000D01*
X15685000Y-11525000D02*
X15765000Y-11525000D01*
D15*
X11110356Y-7710356D02*
X11110356Y-7639644D01*
X11039644Y-7639644D01*
X11039644Y-7710356D01*
X11110356Y-7710356D01*
X11110356Y-7964356D02*
X11110356Y-7893644D01*
X11039644Y-7893644D01*
X11039644Y-7964356D01*
X11110356Y-7964356D01*
X11110356Y-8218356D02*
X11110356Y-8147644D01*
X11039644Y-8147644D01*
X11039644Y-8218356D01*
X11110356Y-8218356D01*
X11110356Y-8472356D02*
X11110356Y-8401644D01*
X11039644Y-8401644D01*
X11039644Y-8472356D01*
X11110356Y-8472356D01*
X11110356Y-8726356D02*
X11110356Y-8655644D01*
X11039644Y-8655644D01*
X11039644Y-8726356D01*
X11110356Y-8726356D01*
X11110356Y-8980356D02*
X11110356Y-8909644D01*
X11039644Y-8909644D01*
X11039644Y-8980356D01*
X11110356Y-8980356D01*
X11110356Y-9234356D02*
X11110356Y-9163644D01*
X11039644Y-9163644D01*
X11039644Y-9234356D01*
X11110356Y-9234356D01*
X11110356Y-9488356D02*
X11110356Y-9417644D01*
X11039644Y-9417644D01*
X11039644Y-9488356D01*
X11110356Y-9488356D01*
X11975356Y-8865356D02*
X11975356Y-8794644D01*
X11904644Y-8794644D01*
X11904644Y-8865356D01*
X11975356Y-8865356D01*
X11975356Y-10910356D02*
X11975356Y-10839644D01*
X11904644Y-10839644D01*
X11904644Y-10910356D01*
X11975356Y-10910356D01*
X12225356Y-8865356D02*
X12225356Y-8794644D01*
X12154644Y-8794644D01*
X12154644Y-8865356D01*
X12225356Y-8865356D01*
X12225356Y-10910356D02*
X12225356Y-10839644D01*
X12154644Y-10839644D01*
X12154644Y-10910356D01*
X12225356Y-10910356D01*
X12475356Y-8865356D02*
X12475356Y-8794644D01*
X12404644Y-8794644D01*
X12404644Y-8865356D01*
X12475356Y-8865356D01*
X12475356Y-10910356D02*
X12475356Y-10839644D01*
X12404644Y-10839644D01*
X12404644Y-10910356D01*
X12475356Y-10910356D01*
X14395356Y-8865356D02*
X14395356Y-8794644D01*
X14324644Y-8794644D01*
X14324644Y-8865356D01*
X14395356Y-8865356D01*
X14395356Y-10910356D02*
X14395356Y-10839644D01*
X14324644Y-10839644D01*
X14324644Y-10910356D01*
X14395356Y-10910356D01*
X14645356Y-8865356D02*
X14645356Y-8794644D01*
X14574644Y-8794644D01*
X14574644Y-8865356D01*
X14645356Y-8865356D01*
X14645356Y-10910356D02*
X14645356Y-10839644D01*
X14574644Y-10839644D01*
X14574644Y-10910356D01*
X14645356Y-10910356D01*
X14895356Y-8865356D02*
X14895356Y-8794644D01*
X14824644Y-8794644D01*
X14824644Y-8865356D01*
X14895356Y-8865356D01*
X14895356Y-10910356D02*
X14895356Y-10839644D01*
X14824644Y-10839644D01*
X14824644Y-10910356D01*
X14895356Y-10910356D01*
X15760356Y-7710356D02*
X15760356Y-7639644D01*
X15689644Y-7639644D01*
X15689644Y-7710356D01*
X15760356Y-7710356D01*
X15760356Y-7964356D02*
X15760356Y-7893644D01*
X15689644Y-7893644D01*
X15689644Y-7964356D01*
X15760356Y-7964356D01*
X15760356Y-8218356D02*
X15760356Y-8147644D01*
X15689644Y-8147644D01*
X15689644Y-8218356D01*
X15760356Y-8218356D01*
X15760356Y-8472356D02*
X15760356Y-8401644D01*
X15689644Y-8401644D01*
X15689644Y-8472356D01*
X15760356Y-8472356D01*
X15760356Y-8726356D02*
X15760356Y-8655644D01*
X15689644Y-8655644D01*
X15689644Y-8726356D01*
X15760356Y-8726356D01*
X15760356Y-8980356D02*
X15760356Y-8909644D01*
X15689644Y-8909644D01*
X15689644Y-8980356D01*
X15760356Y-8980356D01*
X15760356Y-9234356D02*
X15760356Y-9163644D01*
X15689644Y-9163644D01*
X15689644Y-9234356D01*
X15760356Y-9234356D01*
X15760356Y-9488356D02*
X15760356Y-9417644D01*
X15689644Y-9417644D01*
X15689644Y-9488356D01*
X15760356Y-9488356D01*
D16*
X11450000Y-11911000D02*
X11511000Y-11850000D01*
X11450000Y-11789000D01*
X11389000Y-11850000D01*
X11450000Y-11911000D01*
X11450000Y-13386000D02*
X11511000Y-13325000D01*
X11450000Y-13264000D01*
X11389000Y-13325000D01*
X11450000Y-13386000D01*
X12750000Y-11911000D02*
X12811000Y-11850000D01*
X12750000Y-11789000D01*
X12689000Y-11850000D01*
X12750000Y-11911000D01*
X12750000Y-13386000D02*
X12811000Y-13325000D01*
X12750000Y-13264000D01*
X12689000Y-13325000D01*
X12750000Y-13386000D01*
X14050000Y-11911000D02*
X14111000Y-11850000D01*
X14050000Y-11789000D01*
X13989000Y-11850000D01*
X14050000Y-11911000D01*
X14050000Y-13386000D02*
X14111000Y-13325000D01*
X14050000Y-13264000D01*
X13989000Y-13325000D01*
X14050000Y-13386000D01*
X15350000Y-11911000D02*
X15411000Y-11850000D01*
X15350000Y-11789000D01*
X15289000Y-11850000D01*
X15350000Y-11911000D01*
X15350000Y-13386000D02*
X15411000Y-13325000D01*
X15350000Y-13264000D01*
X15289000Y-13325000D01*
X15350000Y-13386000D01*
D17*
X11379000Y-12089000D02*
X11521000Y-12231000D01*
X11521000Y-12089000D02*
X11379000Y-12231000D01*
X11521000Y-12160000D02*
G75*
G03*
X11521000Y-12160000I-71000J0D01*
G01*
X11379000Y-13564000D02*
X11521000Y-13706000D01*
X11521000Y-13564000D02*
X11379000Y-13706000D01*
X11521000Y-13635000D02*
G75*
G03*
X11521000Y-13635000I-71000J0D01*
G01*
X12679000Y-12089000D02*
X12821000Y-12231000D01*
X12821000Y-12089000D02*
X12679000Y-12231000D01*
X12821000Y-12160000D02*
G75*
G03*
X12821000Y-12160000I-71000J0D01*
G01*
X12679000Y-13564000D02*
X12821000Y-13706000D01*
X12821000Y-13564000D02*
X12679000Y-13706000D01*
X12821000Y-13635000D02*
G75*
G03*
X12821000Y-13635000I-71000J0D01*
G01*
X13979000Y-12089000D02*
X14121000Y-12231000D01*
X14121000Y-12089000D02*
X13979000Y-12231000D01*
X14121000Y-12160000D02*
G75*
G03*
X14121000Y-12160000I-71000J0D01*
G01*
X13979000Y-13564000D02*
X14121000Y-13706000D01*
X14121000Y-13564000D02*
X13979000Y-13706000D01*
X14121000Y-13635000D02*
G75*
G03*
X14121000Y-13635000I-71000J0D01*
G01*
X15279000Y-12089000D02*
X15421000Y-12231000D01*
X15421000Y-12089000D02*
X15279000Y-12231000D01*
X15421000Y-12160000D02*
G75*
G03*
X15421000Y-12160000I-71000J0D01*
G01*
X15279000Y-13564000D02*
X15421000Y-13706000D01*
X15421000Y-13564000D02*
X15279000Y-13706000D01*
X15421000Y-13635000D02*
G75*
G03*
X15421000Y-13635000I-71000J0D01*
G01*
D18*
X11378500Y-12918500D02*
X11521500Y-13061500D01*
X11521500Y-12918500D02*
X11378500Y-13061500D01*
X11450000Y-12918500D02*
X11450000Y-13061500D01*
X11378500Y-12990000D02*
X11521500Y-12990000D01*
X11378500Y-14393500D02*
X11521500Y-14536500D01*
X11521500Y-14393500D02*
X11378500Y-14536500D01*
X11450000Y-14393500D02*
X11450000Y-14536500D01*
X11378500Y-14465000D02*
X11521500Y-14465000D01*
X12678500Y-12918500D02*
X12821500Y-13061500D01*
X12821500Y-12918500D02*
X12678500Y-13061500D01*
X12750000Y-12918500D02*
X12750000Y-13061500D01*
X12678500Y-12990000D02*
X12821500Y-12990000D01*
X12678500Y-14393500D02*
X12821500Y-14536500D01*
X12821500Y-14393500D02*
X12678500Y-14536500D01*
X12750000Y-14393500D02*
X12750000Y-14536500D01*
X12678500Y-14465000D02*
X12821500Y-14465000D01*
X13978500Y-12918500D02*
X14121500Y-13061500D01*
X14121500Y-12918500D02*
X13978500Y-13061500D01*
X14050000Y-12918500D02*
X14050000Y-13061500D01*
X13978500Y-12990000D02*
X14121500Y-12990000D01*
X13978500Y-14393500D02*
X14121500Y-14536500D01*
X14121500Y-14393500D02*
X13978500Y-14536500D01*
X14050000Y-14393500D02*
X14050000Y-14536500D01*
X13978500Y-14465000D02*
X14121500Y-14465000D01*
X15278500Y-12918500D02*
X15421500Y-13061500D01*
X15421500Y-12918500D02*
X15278500Y-13061500D01*
X15350000Y-12918500D02*
X15350000Y-13061500D01*
X15278500Y-12990000D02*
X15421500Y-12990000D01*
X15278500Y-14393500D02*
X15421500Y-14536500D01*
X15421500Y-14393500D02*
X15278500Y-14536500D01*
X15350000Y-14393500D02*
X15350000Y-14536500D01*
X15278500Y-14465000D02*
X15421500Y-14465000D01*
D11*
X11158277Y-14963984D02*
X11158277Y-14763984D01*
X11158277Y-14763984D02*
X11205896Y-14763984D01*
X11205896Y-14763984D02*
X11234467Y-14773508D01*
X11234467Y-14773508D02*
X11253515Y-14792555D01*
X11253515Y-14792555D02*
X11263039Y-14811603D01*
X11263039Y-14811603D02*
X11272562Y-14849698D01*
X11272562Y-14849698D02*
X11272562Y-14878269D01*
X11272562Y-14878269D02*
X11263039Y-14916365D01*
X11263039Y-14916365D02*
X11253515Y-14935412D01*
X11253515Y-14935412D02*
X11234467Y-14954460D01*
X11234467Y-14954460D02*
X11205896Y-14963984D01*
X11205896Y-14963984D02*
X11158277Y-14963984D01*
X11358277Y-14963984D02*
X11358277Y-14830650D01*
X11358277Y-14868746D02*
X11367801Y-14849698D01*
X11367801Y-14849698D02*
X11377324Y-14840174D01*
X11377324Y-14840174D02*
X11396372Y-14830650D01*
X11396372Y-14830650D02*
X11415420Y-14830650D01*
X11482086Y-14963984D02*
X11482086Y-14830650D01*
X11482086Y-14763984D02*
X11472562Y-14773508D01*
X11472562Y-14773508D02*
X11482086Y-14783031D01*
X11482086Y-14783031D02*
X11491610Y-14773508D01*
X11491610Y-14773508D02*
X11482086Y-14763984D01*
X11482086Y-14763984D02*
X11482086Y-14783031D01*
X11605896Y-14963984D02*
X11586848Y-14954460D01*
X11586848Y-14954460D02*
X11577324Y-14935412D01*
X11577324Y-14935412D02*
X11577324Y-14763984D01*
X11710658Y-14963984D02*
X11691610Y-14954460D01*
X11691610Y-14954460D02*
X11682086Y-14935412D01*
X11682086Y-14935412D02*
X11682086Y-14763984D01*
X11939229Y-14963984D02*
X11939229Y-14763984D01*
X11939229Y-14763984D02*
X12005896Y-14906841D01*
X12005896Y-14906841D02*
X12072562Y-14763984D01*
X12072562Y-14763984D02*
X12072562Y-14963984D01*
X12253515Y-14963984D02*
X12253515Y-14859222D01*
X12253515Y-14859222D02*
X12243991Y-14840174D01*
X12243991Y-14840174D02*
X12224943Y-14830650D01*
X12224943Y-14830650D02*
X12186848Y-14830650D01*
X12186848Y-14830650D02*
X12167801Y-14840174D01*
X12253515Y-14954460D02*
X12234467Y-14963984D01*
X12234467Y-14963984D02*
X12186848Y-14963984D01*
X12186848Y-14963984D02*
X12167801Y-14954460D01*
X12167801Y-14954460D02*
X12158277Y-14935412D01*
X12158277Y-14935412D02*
X12158277Y-14916365D01*
X12158277Y-14916365D02*
X12167801Y-14897317D01*
X12167801Y-14897317D02*
X12186848Y-14887793D01*
X12186848Y-14887793D02*
X12234467Y-14887793D01*
X12234467Y-14887793D02*
X12253515Y-14878269D01*
X12348753Y-14830650D02*
X12348753Y-15030650D01*
X12348753Y-14840174D02*
X12367801Y-14830650D01*
X12367801Y-14830650D02*
X12405896Y-14830650D01*
X12405896Y-14830650D02*
X12424943Y-14840174D01*
X12424943Y-14840174D02*
X12434467Y-14849698D01*
X12434467Y-14849698D02*
X12443991Y-14868746D01*
X12443991Y-14868746D02*
X12443991Y-14925888D01*
X12443991Y-14925888D02*
X12434467Y-14944936D01*
X12434467Y-14944936D02*
X12424943Y-14954460D01*
X12424943Y-14954460D02*
X12405896Y-14963984D01*
X12405896Y-14963984D02*
X12367801Y-14963984D01*
X12367801Y-14963984D02*
X12348753Y-14954460D01*
X12529705Y-14944936D02*
X12539229Y-14954460D01*
X12539229Y-14954460D02*
X12529705Y-14963984D01*
X12529705Y-14963984D02*
X12520182Y-14954460D01*
X12520182Y-14954460D02*
X12529705Y-14944936D01*
X12529705Y-14944936D02*
X12529705Y-14963984D01*
X12529705Y-14840174D02*
X12539229Y-14849698D01*
X12539229Y-14849698D02*
X12529705Y-14859222D01*
X12529705Y-14859222D02*
X12520182Y-14849698D01*
X12520182Y-14849698D02*
X12529705Y-14840174D01*
X12529705Y-14840174D02*
X12529705Y-14859222D01*
D12*
X10867500Y-15277500D02*
X10897500Y-15307500D01*
X10897500Y-15277500D02*
X10867500Y-15307500D01*
D11*
X11196372Y-15183984D02*
X11215420Y-15183984D01*
X11215420Y-15183984D02*
X11234467Y-15193508D01*
X11234467Y-15193508D02*
X11243991Y-15203031D01*
X11243991Y-15203031D02*
X11253515Y-15222079D01*
X11253515Y-15222079D02*
X11263039Y-15260174D01*
X11263039Y-15260174D02*
X11263039Y-15307793D01*
X11263039Y-15307793D02*
X11253515Y-15345888D01*
X11253515Y-15345888D02*
X11243991Y-15364936D01*
X11243991Y-15364936D02*
X11234467Y-15374460D01*
X11234467Y-15374460D02*
X11215420Y-15383984D01*
X11215420Y-15383984D02*
X11196372Y-15383984D01*
X11196372Y-15383984D02*
X11177324Y-15374460D01*
X11177324Y-15374460D02*
X11167801Y-15364936D01*
X11167801Y-15364936D02*
X11158277Y-15345888D01*
X11158277Y-15345888D02*
X11148753Y-15307793D01*
X11148753Y-15307793D02*
X11148753Y-15260174D01*
X11148753Y-15260174D02*
X11158277Y-15222079D01*
X11158277Y-15222079D02*
X11167801Y-15203031D01*
X11167801Y-15203031D02*
X11177324Y-15193508D01*
X11177324Y-15193508D02*
X11196372Y-15183984D01*
X11348753Y-15364936D02*
X11358277Y-15374460D01*
X11358277Y-15374460D02*
X11348753Y-15383984D01*
X11348753Y-15383984D02*
X11339229Y-15374460D01*
X11339229Y-15374460D02*
X11348753Y-15364936D01*
X11348753Y-15364936D02*
X11348753Y-15383984D01*
X11424943Y-15183984D02*
X11548753Y-15183984D01*
X11548753Y-15183984D02*
X11482086Y-15260174D01*
X11482086Y-15260174D02*
X11510658Y-15260174D01*
X11510658Y-15260174D02*
X11529705Y-15269698D01*
X11529705Y-15269698D02*
X11539229Y-15279222D01*
X11539229Y-15279222D02*
X11548753Y-15298269D01*
X11548753Y-15298269D02*
X11548753Y-15345888D01*
X11548753Y-15345888D02*
X11539229Y-15364936D01*
X11539229Y-15364936D02*
X11529705Y-15374460D01*
X11529705Y-15374460D02*
X11510658Y-15383984D01*
X11510658Y-15383984D02*
X11453515Y-15383984D01*
X11453515Y-15383984D02*
X11434467Y-15374460D01*
X11434467Y-15374460D02*
X11424943Y-15364936D01*
X11672562Y-15183984D02*
X11691610Y-15183984D01*
X11691610Y-15183984D02*
X11710658Y-15193508D01*
X11710658Y-15193508D02*
X11720182Y-15203031D01*
X11720182Y-15203031D02*
X11729705Y-15222079D01*
X11729705Y-15222079D02*
X11739229Y-15260174D01*
X11739229Y-15260174D02*
X11739229Y-15307793D01*
X11739229Y-15307793D02*
X11729705Y-15345888D01*
X11729705Y-15345888D02*
X11720182Y-15364936D01*
X11720182Y-15364936D02*
X11710658Y-15374460D01*
X11710658Y-15374460D02*
X11691610Y-15383984D01*
X11691610Y-15383984D02*
X11672562Y-15383984D01*
X11672562Y-15383984D02*
X11653515Y-15374460D01*
X11653515Y-15374460D02*
X11643991Y-15364936D01*
X11643991Y-15364936D02*
X11634467Y-15345888D01*
X11634467Y-15345888D02*
X11624943Y-15307793D01*
X11624943Y-15307793D02*
X11624943Y-15260174D01*
X11624943Y-15260174D02*
X11634467Y-15222079D01*
X11634467Y-15222079D02*
X11643991Y-15203031D01*
X11643991Y-15203031D02*
X11653515Y-15193508D01*
X11653515Y-15193508D02*
X11672562Y-15183984D01*
X11863039Y-15183984D02*
X11882086Y-15183984D01*
X11882086Y-15183984D02*
X11901134Y-15193508D01*
X11901134Y-15193508D02*
X11910658Y-15203031D01*
X11910658Y-15203031D02*
X11920182Y-15222079D01*
X11920182Y-15222079D02*
X11929705Y-15260174D01*
X11929705Y-15260174D02*
X11929705Y-15307793D01*
X11929705Y-15307793D02*
X11920182Y-15345888D01*
X11920182Y-15345888D02*
X11910658Y-15364936D01*
X11910658Y-15364936D02*
X11901134Y-15374460D01*
X11901134Y-15374460D02*
X11882086Y-15383984D01*
X11882086Y-15383984D02*
X11863039Y-15383984D01*
X11863039Y-15383984D02*
X11843991Y-15374460D01*
X11843991Y-15374460D02*
X11834467Y-15364936D01*
X11834467Y-15364936D02*
X11824943Y-15345888D01*
X11824943Y-15345888D02*
X11815420Y-15307793D01*
X11815420Y-15307793D02*
X11815420Y-15260174D01*
X11815420Y-15260174D02*
X11824943Y-15222079D01*
X11824943Y-15222079D02*
X11834467Y-15203031D01*
X11834467Y-15203031D02*
X11843991Y-15193508D01*
X11843991Y-15193508D02*
X11863039Y-15183984D01*
X12015420Y-15383984D02*
X12015420Y-15250650D01*
X12015420Y-15269698D02*
X12024943Y-15260174D01*
X12024943Y-15260174D02*
X12043991Y-15250650D01*
X12043991Y-15250650D02*
X12072563Y-15250650D01*
X12072563Y-15250650D02*
X12091610Y-15260174D01*
X12091610Y-15260174D02*
X12101134Y-15279222D01*
X12101134Y-15279222D02*
X12101134Y-15383984D01*
X12101134Y-15279222D02*
X12110658Y-15260174D01*
X12110658Y-15260174D02*
X12129705Y-15250650D01*
X12129705Y-15250650D02*
X12158277Y-15250650D01*
X12158277Y-15250650D02*
X12177324Y-15260174D01*
X12177324Y-15260174D02*
X12186848Y-15279222D01*
X12186848Y-15279222D02*
X12186848Y-15383984D01*
X12282086Y-15383984D02*
X12282086Y-15250650D01*
X12282086Y-15269698D02*
X12291610Y-15260174D01*
X12291610Y-15260174D02*
X12310658Y-15250650D01*
X12310658Y-15250650D02*
X12339229Y-15250650D01*
X12339229Y-15250650D02*
X12358277Y-15260174D01*
X12358277Y-15260174D02*
X12367801Y-15279222D01*
X12367801Y-15279222D02*
X12367801Y-15383984D01*
X12367801Y-15279222D02*
X12377324Y-15260174D01*
X12377324Y-15260174D02*
X12396372Y-15250650D01*
X12396372Y-15250650D02*
X12424943Y-15250650D01*
X12424943Y-15250650D02*
X12443991Y-15260174D01*
X12443991Y-15260174D02*
X12453515Y-15279222D01*
X12453515Y-15279222D02*
X12453515Y-15383984D01*
X12843991Y-15174460D02*
X12672563Y-15431603D01*
X13101134Y-15183984D02*
X13120182Y-15183984D01*
X13120182Y-15183984D02*
X13139229Y-15193508D01*
X13139229Y-15193508D02*
X13148753Y-15203031D01*
X13148753Y-15203031D02*
X13158277Y-15222079D01*
X13158277Y-15222079D02*
X13167801Y-15260174D01*
X13167801Y-15260174D02*
X13167801Y-15307793D01*
X13167801Y-15307793D02*
X13158277Y-15345888D01*
X13158277Y-15345888D02*
X13148753Y-15364936D01*
X13148753Y-15364936D02*
X13139229Y-15374460D01*
X13139229Y-15374460D02*
X13120182Y-15383984D01*
X13120182Y-15383984D02*
X13101134Y-15383984D01*
X13101134Y-15383984D02*
X13082086Y-15374460D01*
X13082086Y-15374460D02*
X13072563Y-15364936D01*
X13072563Y-15364936D02*
X13063039Y-15345888D01*
X13063039Y-15345888D02*
X13053515Y-15307793D01*
X13053515Y-15307793D02*
X13053515Y-15260174D01*
X13053515Y-15260174D02*
X13063039Y-15222079D01*
X13063039Y-15222079D02*
X13072563Y-15203031D01*
X13072563Y-15203031D02*
X13082086Y-15193508D01*
X13082086Y-15193508D02*
X13101134Y-15183984D01*
X13253515Y-15364936D02*
X13263039Y-15374460D01*
X13263039Y-15374460D02*
X13253515Y-15383984D01*
X13253515Y-15383984D02*
X13243991Y-15374460D01*
X13243991Y-15374460D02*
X13253515Y-15364936D01*
X13253515Y-15364936D02*
X13253515Y-15383984D01*
X13386848Y-15183984D02*
X13405896Y-15183984D01*
X13405896Y-15183984D02*
X13424944Y-15193508D01*
X13424944Y-15193508D02*
X13434467Y-15203031D01*
X13434467Y-15203031D02*
X13443991Y-15222079D01*
X13443991Y-15222079D02*
X13453515Y-15260174D01*
X13453515Y-15260174D02*
X13453515Y-15307793D01*
X13453515Y-15307793D02*
X13443991Y-15345888D01*
X13443991Y-15345888D02*
X13434467Y-15364936D01*
X13434467Y-15364936D02*
X13424944Y-15374460D01*
X13424944Y-15374460D02*
X13405896Y-15383984D01*
X13405896Y-15383984D02*
X13386848Y-15383984D01*
X13386848Y-15383984D02*
X13367801Y-15374460D01*
X13367801Y-15374460D02*
X13358277Y-15364936D01*
X13358277Y-15364936D02*
X13348753Y-15345888D01*
X13348753Y-15345888D02*
X13339229Y-15307793D01*
X13339229Y-15307793D02*
X13339229Y-15260174D01*
X13339229Y-15260174D02*
X13348753Y-15222079D01*
X13348753Y-15222079D02*
X13358277Y-15203031D01*
X13358277Y-15203031D02*
X13367801Y-15193508D01*
X13367801Y-15193508D02*
X13386848Y-15183984D01*
X13643991Y-15383984D02*
X13529706Y-15383984D01*
X13586848Y-15383984D02*
X13586848Y-15183984D01*
X13586848Y-15183984D02*
X13567801Y-15212555D01*
X13567801Y-15212555D02*
X13548753Y-15231603D01*
X13548753Y-15231603D02*
X13529706Y-15241127D01*
X13834467Y-15383984D02*
X13720182Y-15383984D01*
X13777325Y-15383984D02*
X13777325Y-15183984D01*
X13777325Y-15183984D02*
X13758277Y-15212555D01*
X13758277Y-15212555D02*
X13739229Y-15231603D01*
X13739229Y-15231603D02*
X13720182Y-15241127D01*
X13948753Y-15269698D02*
X13929706Y-15260174D01*
X13929706Y-15260174D02*
X13920182Y-15250650D01*
X13920182Y-15250650D02*
X13910658Y-15231603D01*
X13910658Y-15231603D02*
X13910658Y-15222079D01*
X13910658Y-15222079D02*
X13920182Y-15203031D01*
X13920182Y-15203031D02*
X13929706Y-15193508D01*
X13929706Y-15193508D02*
X13948753Y-15183984D01*
X13948753Y-15183984D02*
X13986848Y-15183984D01*
X13986848Y-15183984D02*
X14005896Y-15193508D01*
X14005896Y-15193508D02*
X14015420Y-15203031D01*
X14015420Y-15203031D02*
X14024944Y-15222079D01*
X14024944Y-15222079D02*
X14024944Y-15231603D01*
X14024944Y-15231603D02*
X14015420Y-15250650D01*
X14015420Y-15250650D02*
X14005896Y-15260174D01*
X14005896Y-15260174D02*
X13986848Y-15269698D01*
X13986848Y-15269698D02*
X13948753Y-15269698D01*
X13948753Y-15269698D02*
X13929706Y-15279222D01*
X13929706Y-15279222D02*
X13920182Y-15288746D01*
X13920182Y-15288746D02*
X13910658Y-15307793D01*
X13910658Y-15307793D02*
X13910658Y-15345888D01*
X13910658Y-15345888D02*
X13920182Y-15364936D01*
X13920182Y-15364936D02*
X13929706Y-15374460D01*
X13929706Y-15374460D02*
X13948753Y-15383984D01*
X13948753Y-15383984D02*
X13986848Y-15383984D01*
X13986848Y-15383984D02*
X14005896Y-15374460D01*
X14005896Y-15374460D02*
X14015420Y-15364936D01*
X14015420Y-15364936D02*
X14024944Y-15345888D01*
X14024944Y-15345888D02*
X14024944Y-15307793D01*
X14024944Y-15307793D02*
X14015420Y-15288746D01*
X14015420Y-15288746D02*
X14005896Y-15279222D01*
X14005896Y-15279222D02*
X13986848Y-15269698D01*
X14101134Y-15183984D02*
X14101134Y-15222079D01*
X14177325Y-15183984D02*
X14177325Y-15222079D01*
X14472563Y-15460174D02*
X14463039Y-15450650D01*
X14463039Y-15450650D02*
X14443991Y-15422079D01*
X14443991Y-15422079D02*
X14434468Y-15403031D01*
X14434468Y-15403031D02*
X14424944Y-15374460D01*
X14424944Y-15374460D02*
X14415420Y-15326841D01*
X14415420Y-15326841D02*
X14415420Y-15288746D01*
X14415420Y-15288746D02*
X14424944Y-15241127D01*
X14424944Y-15241127D02*
X14434468Y-15212555D01*
X14434468Y-15212555D02*
X14443991Y-15193508D01*
X14443991Y-15193508D02*
X14463039Y-15164936D01*
X14463039Y-15164936D02*
X14472563Y-15155412D01*
X14529706Y-15183984D02*
X14663039Y-15183984D01*
X14663039Y-15183984D02*
X14577325Y-15383984D01*
X14891610Y-15383984D02*
X14891610Y-15183984D01*
X14977325Y-15383984D02*
X14977325Y-15279222D01*
X14977325Y-15279222D02*
X14967801Y-15260174D01*
X14967801Y-15260174D02*
X14948753Y-15250650D01*
X14948753Y-15250650D02*
X14920182Y-15250650D01*
X14920182Y-15250650D02*
X14901134Y-15260174D01*
X14901134Y-15260174D02*
X14891610Y-15269698D01*
X15101134Y-15383984D02*
X15082087Y-15374460D01*
X15082087Y-15374460D02*
X15072563Y-15364936D01*
X15072563Y-15364936D02*
X15063039Y-15345888D01*
X15063039Y-15345888D02*
X15063039Y-15288746D01*
X15063039Y-15288746D02*
X15072563Y-15269698D01*
X15072563Y-15269698D02*
X15082087Y-15260174D01*
X15082087Y-15260174D02*
X15101134Y-15250650D01*
X15101134Y-15250650D02*
X15129706Y-15250650D01*
X15129706Y-15250650D02*
X15148753Y-15260174D01*
X15148753Y-15260174D02*
X15158277Y-15269698D01*
X15158277Y-15269698D02*
X15167801Y-15288746D01*
X15167801Y-15288746D02*
X15167801Y-15345888D01*
X15167801Y-15345888D02*
X15158277Y-15364936D01*
X15158277Y-15364936D02*
X15148753Y-15374460D01*
X15148753Y-15374460D02*
X15129706Y-15383984D01*
X15129706Y-15383984D02*
X15101134Y-15383984D01*
X15282087Y-15383984D02*
X15263039Y-15374460D01*
X15263039Y-15374460D02*
X15253515Y-15355412D01*
X15253515Y-15355412D02*
X15253515Y-15183984D01*
X15434468Y-15374460D02*
X15415420Y-15383984D01*
X15415420Y-15383984D02*
X15377325Y-15383984D01*
X15377325Y-15383984D02*
X15358277Y-15374460D01*
X15358277Y-15374460D02*
X15348753Y-15355412D01*
X15348753Y-15355412D02*
X15348753Y-15279222D01*
X15348753Y-15279222D02*
X15358277Y-15260174D01*
X15358277Y-15260174D02*
X15377325Y-15250650D01*
X15377325Y-15250650D02*
X15415420Y-15250650D01*
X15415420Y-15250650D02*
X15434468Y-15260174D01*
X15434468Y-15260174D02*
X15443991Y-15279222D01*
X15443991Y-15279222D02*
X15443991Y-15298269D01*
X15443991Y-15298269D02*
X15348753Y-15317317D01*
X15520182Y-15374460D02*
X15539230Y-15383984D01*
X15539230Y-15383984D02*
X15577325Y-15383984D01*
X15577325Y-15383984D02*
X15596372Y-15374460D01*
X15596372Y-15374460D02*
X15605896Y-15355412D01*
X15605896Y-15355412D02*
X15605896Y-15345888D01*
X15605896Y-15345888D02*
X15596372Y-15326841D01*
X15596372Y-15326841D02*
X15577325Y-15317317D01*
X15577325Y-15317317D02*
X15548753Y-15317317D01*
X15548753Y-15317317D02*
X15529706Y-15307793D01*
X15529706Y-15307793D02*
X15520182Y-15288746D01*
X15520182Y-15288746D02*
X15520182Y-15279222D01*
X15520182Y-15279222D02*
X15529706Y-15260174D01*
X15529706Y-15260174D02*
X15548753Y-15250650D01*
X15548753Y-15250650D02*
X15577325Y-15250650D01*
X15577325Y-15250650D02*
X15596372Y-15260174D01*
X15672563Y-15460174D02*
X15682087Y-15450650D01*
X15682087Y-15450650D02*
X15701134Y-15422079D01*
X15701134Y-15422079D02*
X15710658Y-15403031D01*
X15710658Y-15403031D02*
X15720182Y-15374460D01*
X15720182Y-15374460D02*
X15729706Y-15326841D01*
X15729706Y-15326841D02*
X15729706Y-15288746D01*
X15729706Y-15288746D02*
X15720182Y-15241127D01*
X15720182Y-15241127D02*
X15710658Y-15212555D01*
X15710658Y-15212555D02*
X15701134Y-15193508D01*
X15701134Y-15193508D02*
X15682087Y-15164936D01*
X15682087Y-15164936D02*
X15672563Y-15155412D01*
D13*
X10897500Y-15556500D02*
G75*
G03*
X10897500Y-15556500I-20000J0D01*
G01*
D11*
X11196372Y-15447984D02*
X11215420Y-15447984D01*
X11215420Y-15447984D02*
X11234467Y-15457508D01*
X11234467Y-15457508D02*
X11243991Y-15467031D01*
X11243991Y-15467031D02*
X11253515Y-15486079D01*
X11253515Y-15486079D02*
X11263039Y-15524174D01*
X11263039Y-15524174D02*
X11263039Y-15571793D01*
X11263039Y-15571793D02*
X11253515Y-15609888D01*
X11253515Y-15609888D02*
X11243991Y-15628936D01*
X11243991Y-15628936D02*
X11234467Y-15638460D01*
X11234467Y-15638460D02*
X11215420Y-15647984D01*
X11215420Y-15647984D02*
X11196372Y-15647984D01*
X11196372Y-15647984D02*
X11177324Y-15638460D01*
X11177324Y-15638460D02*
X11167801Y-15628936D01*
X11167801Y-15628936D02*
X11158277Y-15609888D01*
X11158277Y-15609888D02*
X11148753Y-15571793D01*
X11148753Y-15571793D02*
X11148753Y-15524174D01*
X11148753Y-15524174D02*
X11158277Y-15486079D01*
X11158277Y-15486079D02*
X11167801Y-15467031D01*
X11167801Y-15467031D02*
X11177324Y-15457508D01*
X11177324Y-15457508D02*
X11196372Y-15447984D01*
X11348753Y-15628936D02*
X11358277Y-15638460D01*
X11358277Y-15638460D02*
X11348753Y-15647984D01*
X11348753Y-15647984D02*
X11339229Y-15638460D01*
X11339229Y-15638460D02*
X11348753Y-15628936D01*
X11348753Y-15628936D02*
X11348753Y-15647984D01*
X11529705Y-15514650D02*
X11529705Y-15647984D01*
X11482086Y-15438460D02*
X11434467Y-15581317D01*
X11434467Y-15581317D02*
X11558277Y-15581317D01*
X11672562Y-15447984D02*
X11691610Y-15447984D01*
X11691610Y-15447984D02*
X11710658Y-15457508D01*
X11710658Y-15457508D02*
X11720182Y-15467031D01*
X11720182Y-15467031D02*
X11729705Y-15486079D01*
X11729705Y-15486079D02*
X11739229Y-15524174D01*
X11739229Y-15524174D02*
X11739229Y-15571793D01*
X11739229Y-15571793D02*
X11729705Y-15609888D01*
X11729705Y-15609888D02*
X11720182Y-15628936D01*
X11720182Y-15628936D02*
X11710658Y-15638460D01*
X11710658Y-15638460D02*
X11691610Y-15647984D01*
X11691610Y-15647984D02*
X11672562Y-15647984D01*
X11672562Y-15647984D02*
X11653515Y-15638460D01*
X11653515Y-15638460D02*
X11643991Y-15628936D01*
X11643991Y-15628936D02*
X11634467Y-15609888D01*
X11634467Y-15609888D02*
X11624943Y-15571793D01*
X11624943Y-15571793D02*
X11624943Y-15524174D01*
X11624943Y-15524174D02*
X11634467Y-15486079D01*
X11634467Y-15486079D02*
X11643991Y-15467031D01*
X11643991Y-15467031D02*
X11653515Y-15457508D01*
X11653515Y-15457508D02*
X11672562Y-15447984D01*
X11863039Y-15447984D02*
X11882086Y-15447984D01*
X11882086Y-15447984D02*
X11901134Y-15457508D01*
X11901134Y-15457508D02*
X11910658Y-15467031D01*
X11910658Y-15467031D02*
X11920182Y-15486079D01*
X11920182Y-15486079D02*
X11929705Y-15524174D01*
X11929705Y-15524174D02*
X11929705Y-15571793D01*
X11929705Y-15571793D02*
X11920182Y-15609888D01*
X11920182Y-15609888D02*
X11910658Y-15628936D01*
X11910658Y-15628936D02*
X11901134Y-15638460D01*
X11901134Y-15638460D02*
X11882086Y-15647984D01*
X11882086Y-15647984D02*
X11863039Y-15647984D01*
X11863039Y-15647984D02*
X11843991Y-15638460D01*
X11843991Y-15638460D02*
X11834467Y-15628936D01*
X11834467Y-15628936D02*
X11824943Y-15609888D01*
X11824943Y-15609888D02*
X11815420Y-15571793D01*
X11815420Y-15571793D02*
X11815420Y-15524174D01*
X11815420Y-15524174D02*
X11824943Y-15486079D01*
X11824943Y-15486079D02*
X11834467Y-15467031D01*
X11834467Y-15467031D02*
X11843991Y-15457508D01*
X11843991Y-15457508D02*
X11863039Y-15447984D01*
X12015420Y-15647984D02*
X12015420Y-15514650D01*
X12015420Y-15533698D02*
X12024943Y-15524174D01*
X12024943Y-15524174D02*
X12043991Y-15514650D01*
X12043991Y-15514650D02*
X12072563Y-15514650D01*
X12072563Y-15514650D02*
X12091610Y-15524174D01*
X12091610Y-15524174D02*
X12101134Y-15543222D01*
X12101134Y-15543222D02*
X12101134Y-15647984D01*
X12101134Y-15543222D02*
X12110658Y-15524174D01*
X12110658Y-15524174D02*
X12129705Y-15514650D01*
X12129705Y-15514650D02*
X12158277Y-15514650D01*
X12158277Y-15514650D02*
X12177324Y-15524174D01*
X12177324Y-15524174D02*
X12186848Y-15543222D01*
X12186848Y-15543222D02*
X12186848Y-15647984D01*
X12282086Y-15647984D02*
X12282086Y-15514650D01*
X12282086Y-15533698D02*
X12291610Y-15524174D01*
X12291610Y-15524174D02*
X12310658Y-15514650D01*
X12310658Y-15514650D02*
X12339229Y-15514650D01*
X12339229Y-15514650D02*
X12358277Y-15524174D01*
X12358277Y-15524174D02*
X12367801Y-15543222D01*
X12367801Y-15543222D02*
X12367801Y-15647984D01*
X12367801Y-15543222D02*
X12377324Y-15524174D01*
X12377324Y-15524174D02*
X12396372Y-15514650D01*
X12396372Y-15514650D02*
X12424943Y-15514650D01*
X12424943Y-15514650D02*
X12443991Y-15524174D01*
X12443991Y-15524174D02*
X12453515Y-15543222D01*
X12453515Y-15543222D02*
X12453515Y-15647984D01*
X12843991Y-15438460D02*
X12672563Y-15695603D01*
X13101134Y-15447984D02*
X13120182Y-15447984D01*
X13120182Y-15447984D02*
X13139229Y-15457508D01*
X13139229Y-15457508D02*
X13148753Y-15467031D01*
X13148753Y-15467031D02*
X13158277Y-15486079D01*
X13158277Y-15486079D02*
X13167801Y-15524174D01*
X13167801Y-15524174D02*
X13167801Y-15571793D01*
X13167801Y-15571793D02*
X13158277Y-15609888D01*
X13158277Y-15609888D02*
X13148753Y-15628936D01*
X13148753Y-15628936D02*
X13139229Y-15638460D01*
X13139229Y-15638460D02*
X13120182Y-15647984D01*
X13120182Y-15647984D02*
X13101134Y-15647984D01*
X13101134Y-15647984D02*
X13082086Y-15638460D01*
X13082086Y-15638460D02*
X13072563Y-15628936D01*
X13072563Y-15628936D02*
X13063039Y-15609888D01*
X13063039Y-15609888D02*
X13053515Y-15571793D01*
X13053515Y-15571793D02*
X13053515Y-15524174D01*
X13053515Y-15524174D02*
X13063039Y-15486079D01*
X13063039Y-15486079D02*
X13072563Y-15467031D01*
X13072563Y-15467031D02*
X13082086Y-15457508D01*
X13082086Y-15457508D02*
X13101134Y-15447984D01*
X13253515Y-15628936D02*
X13263039Y-15638460D01*
X13263039Y-15638460D02*
X13253515Y-15647984D01*
X13253515Y-15647984D02*
X13243991Y-15638460D01*
X13243991Y-15638460D02*
X13253515Y-15628936D01*
X13253515Y-15628936D02*
X13253515Y-15647984D01*
X13386848Y-15447984D02*
X13405896Y-15447984D01*
X13405896Y-15447984D02*
X13424944Y-15457508D01*
X13424944Y-15457508D02*
X13434467Y-15467031D01*
X13434467Y-15467031D02*
X13443991Y-15486079D01*
X13443991Y-15486079D02*
X13453515Y-15524174D01*
X13453515Y-15524174D02*
X13453515Y-15571793D01*
X13453515Y-15571793D02*
X13443991Y-15609888D01*
X13443991Y-15609888D02*
X13434467Y-15628936D01*
X13434467Y-15628936D02*
X13424944Y-15638460D01*
X13424944Y-15638460D02*
X13405896Y-15647984D01*
X13405896Y-15647984D02*
X13386848Y-15647984D01*
X13386848Y-15647984D02*
X13367801Y-15638460D01*
X13367801Y-15638460D02*
X13358277Y-15628936D01*
X13358277Y-15628936D02*
X13348753Y-15609888D01*
X13348753Y-15609888D02*
X13339229Y-15571793D01*
X13339229Y-15571793D02*
X13339229Y-15524174D01*
X13339229Y-15524174D02*
X13348753Y-15486079D01*
X13348753Y-15486079D02*
X13358277Y-15467031D01*
X13358277Y-15467031D02*
X13367801Y-15457508D01*
X13367801Y-15457508D02*
X13386848Y-15447984D01*
X13643991Y-15647984D02*
X13529706Y-15647984D01*
X13586848Y-15647984D02*
X13586848Y-15447984D01*
X13586848Y-15447984D02*
X13567801Y-15476555D01*
X13567801Y-15476555D02*
X13548753Y-15495603D01*
X13548753Y-15495603D02*
X13529706Y-15505127D01*
X13824944Y-15447984D02*
X13729706Y-15447984D01*
X13729706Y-15447984D02*
X13720182Y-15543222D01*
X13720182Y-15543222D02*
X13729706Y-15533698D01*
X13729706Y-15533698D02*
X13748753Y-15524174D01*
X13748753Y-15524174D02*
X13796372Y-15524174D01*
X13796372Y-15524174D02*
X13815420Y-15533698D01*
X13815420Y-15533698D02*
X13824944Y-15543222D01*
X13824944Y-15543222D02*
X13834467Y-15562269D01*
X13834467Y-15562269D02*
X13834467Y-15609888D01*
X13834467Y-15609888D02*
X13824944Y-15628936D01*
X13824944Y-15628936D02*
X13815420Y-15638460D01*
X13815420Y-15638460D02*
X13796372Y-15647984D01*
X13796372Y-15647984D02*
X13748753Y-15647984D01*
X13748753Y-15647984D02*
X13729706Y-15638460D01*
X13729706Y-15638460D02*
X13720182Y-15628936D01*
X13901134Y-15447984D02*
X14034467Y-15447984D01*
X14034467Y-15447984D02*
X13948753Y-15647984D01*
X14101134Y-15447984D02*
X14101134Y-15486079D01*
X14177325Y-15447984D02*
X14177325Y-15486079D01*
X14472563Y-15724174D02*
X14463039Y-15714650D01*
X14463039Y-15714650D02*
X14443991Y-15686079D01*
X14443991Y-15686079D02*
X14434468Y-15667031D01*
X14434468Y-15667031D02*
X14424944Y-15638460D01*
X14424944Y-15638460D02*
X14415420Y-15590841D01*
X14415420Y-15590841D02*
X14415420Y-15552746D01*
X14415420Y-15552746D02*
X14424944Y-15505127D01*
X14424944Y-15505127D02*
X14434468Y-15476555D01*
X14434468Y-15476555D02*
X14443991Y-15457508D01*
X14443991Y-15457508D02*
X14463039Y-15428936D01*
X14463039Y-15428936D02*
X14472563Y-15419412D01*
X14539229Y-15467031D02*
X14548753Y-15457508D01*
X14548753Y-15457508D02*
X14567801Y-15447984D01*
X14567801Y-15447984D02*
X14615420Y-15447984D01*
X14615420Y-15447984D02*
X14634468Y-15457508D01*
X14634468Y-15457508D02*
X14643991Y-15467031D01*
X14643991Y-15467031D02*
X14653515Y-15486079D01*
X14653515Y-15486079D02*
X14653515Y-15505127D01*
X14653515Y-15505127D02*
X14643991Y-15533698D01*
X14643991Y-15533698D02*
X14529706Y-15647984D01*
X14529706Y-15647984D02*
X14653515Y-15647984D01*
X14843991Y-15647984D02*
X14729706Y-15647984D01*
X14786848Y-15647984D02*
X14786848Y-15447984D01*
X14786848Y-15447984D02*
X14767801Y-15476555D01*
X14767801Y-15476555D02*
X14748753Y-15495603D01*
X14748753Y-15495603D02*
X14729706Y-15505127D01*
X15082087Y-15647984D02*
X15082087Y-15447984D01*
X15167801Y-15647984D02*
X15167801Y-15543222D01*
X15167801Y-15543222D02*
X15158277Y-15524174D01*
X15158277Y-15524174D02*
X15139230Y-15514650D01*
X15139230Y-15514650D02*
X15110658Y-15514650D01*
X15110658Y-15514650D02*
X15091610Y-15524174D01*
X15091610Y-15524174D02*
X15082087Y-15533698D01*
X15291610Y-15647984D02*
X15272563Y-15638460D01*
X15272563Y-15638460D02*
X15263039Y-15628936D01*
X15263039Y-15628936D02*
X15253515Y-15609888D01*
X15253515Y-15609888D02*
X15253515Y-15552746D01*
X15253515Y-15552746D02*
X15263039Y-15533698D01*
X15263039Y-15533698D02*
X15272563Y-15524174D01*
X15272563Y-15524174D02*
X15291610Y-15514650D01*
X15291610Y-15514650D02*
X15320182Y-15514650D01*
X15320182Y-15514650D02*
X15339230Y-15524174D01*
X15339230Y-15524174D02*
X15348753Y-15533698D01*
X15348753Y-15533698D02*
X15358277Y-15552746D01*
X15358277Y-15552746D02*
X15358277Y-15609888D01*
X15358277Y-15609888D02*
X15348753Y-15628936D01*
X15348753Y-15628936D02*
X15339230Y-15638460D01*
X15339230Y-15638460D02*
X15320182Y-15647984D01*
X15320182Y-15647984D02*
X15291610Y-15647984D01*
X15472563Y-15647984D02*
X15453515Y-15638460D01*
X15453515Y-15638460D02*
X15443991Y-15619412D01*
X15443991Y-15619412D02*
X15443991Y-15447984D01*
X15624944Y-15638460D02*
X15605896Y-15647984D01*
X15605896Y-15647984D02*
X15567801Y-15647984D01*
X15567801Y-15647984D02*
X15548753Y-15638460D01*
X15548753Y-15638460D02*
X15539230Y-15619412D01*
X15539230Y-15619412D02*
X15539230Y-15543222D01*
X15539230Y-15543222D02*
X15548753Y-15524174D01*
X15548753Y-15524174D02*
X15567801Y-15514650D01*
X15567801Y-15514650D02*
X15605896Y-15514650D01*
X15605896Y-15514650D02*
X15624944Y-15524174D01*
X15624944Y-15524174D02*
X15634468Y-15543222D01*
X15634468Y-15543222D02*
X15634468Y-15562269D01*
X15634468Y-15562269D02*
X15539230Y-15581317D01*
X15710658Y-15638460D02*
X15729706Y-15647984D01*
X15729706Y-15647984D02*
X15767801Y-15647984D01*
X15767801Y-15647984D02*
X15786849Y-15638460D01*
X15786849Y-15638460D02*
X15796372Y-15619412D01*
X15796372Y-15619412D02*
X15796372Y-15609888D01*
X15796372Y-15609888D02*
X15786849Y-15590841D01*
X15786849Y-15590841D02*
X15767801Y-15581317D01*
X15767801Y-15581317D02*
X15739230Y-15581317D01*
X15739230Y-15581317D02*
X15720182Y-15571793D01*
X15720182Y-15571793D02*
X15710658Y-15552746D01*
X15710658Y-15552746D02*
X15710658Y-15543222D01*
X15710658Y-15543222D02*
X15720182Y-15524174D01*
X15720182Y-15524174D02*
X15739230Y-15514650D01*
X15739230Y-15514650D02*
X15767801Y-15514650D01*
X15767801Y-15514650D02*
X15786849Y-15524174D01*
X15863039Y-15724174D02*
X15872563Y-15714650D01*
X15872563Y-15714650D02*
X15891611Y-15686079D01*
X15891611Y-15686079D02*
X15901134Y-15667031D01*
X15901134Y-15667031D02*
X15910658Y-15638460D01*
X15910658Y-15638460D02*
X15920182Y-15590841D01*
X15920182Y-15590841D02*
X15920182Y-15552746D01*
X15920182Y-15552746D02*
X15910658Y-15505127D01*
X15910658Y-15505127D02*
X15901134Y-15476555D01*
X15901134Y-15476555D02*
X15891611Y-15457508D01*
X15891611Y-15457508D02*
X15872563Y-15428936D01*
X15872563Y-15428936D02*
X15863039Y-15419412D01*
D14*
X10857500Y-15780500D02*
X10857500Y-15860500D01*
X10817500Y-15820500D02*
X10897500Y-15820500D01*
D11*
X11196372Y-15711984D02*
X11215420Y-15711984D01*
X11215420Y-15711984D02*
X11234467Y-15721508D01*
X11234467Y-15721508D02*
X11243991Y-15731031D01*
X11243991Y-15731031D02*
X11253515Y-15750079D01*
X11253515Y-15750079D02*
X11263039Y-15788174D01*
X11263039Y-15788174D02*
X11263039Y-15835793D01*
X11263039Y-15835793D02*
X11253515Y-15873888D01*
X11253515Y-15873888D02*
X11243991Y-15892936D01*
X11243991Y-15892936D02*
X11234467Y-15902460D01*
X11234467Y-15902460D02*
X11215420Y-15911984D01*
X11215420Y-15911984D02*
X11196372Y-15911984D01*
X11196372Y-15911984D02*
X11177324Y-15902460D01*
X11177324Y-15902460D02*
X11167801Y-15892936D01*
X11167801Y-15892936D02*
X11158277Y-15873888D01*
X11158277Y-15873888D02*
X11148753Y-15835793D01*
X11148753Y-15835793D02*
X11148753Y-15788174D01*
X11148753Y-15788174D02*
X11158277Y-15750079D01*
X11158277Y-15750079D02*
X11167801Y-15731031D01*
X11167801Y-15731031D02*
X11177324Y-15721508D01*
X11177324Y-15721508D02*
X11196372Y-15711984D01*
X11348753Y-15892936D02*
X11358277Y-15902460D01*
X11358277Y-15902460D02*
X11348753Y-15911984D01*
X11348753Y-15911984D02*
X11339229Y-15902460D01*
X11339229Y-15902460D02*
X11348753Y-15892936D01*
X11348753Y-15892936D02*
X11348753Y-15911984D01*
X11472562Y-15797698D02*
X11453515Y-15788174D01*
X11453515Y-15788174D02*
X11443991Y-15778650D01*
X11443991Y-15778650D02*
X11434467Y-15759603D01*
X11434467Y-15759603D02*
X11434467Y-15750079D01*
X11434467Y-15750079D02*
X11443991Y-15731031D01*
X11443991Y-15731031D02*
X11453515Y-15721508D01*
X11453515Y-15721508D02*
X11472562Y-15711984D01*
X11472562Y-15711984D02*
X11510658Y-15711984D01*
X11510658Y-15711984D02*
X11529705Y-15721508D01*
X11529705Y-15721508D02*
X11539229Y-15731031D01*
X11539229Y-15731031D02*
X11548753Y-15750079D01*
X11548753Y-15750079D02*
X11548753Y-15759603D01*
X11548753Y-15759603D02*
X11539229Y-15778650D01*
X11539229Y-15778650D02*
X11529705Y-15788174D01*
X11529705Y-15788174D02*
X11510658Y-15797698D01*
X11510658Y-15797698D02*
X11472562Y-15797698D01*
X11472562Y-15797698D02*
X11453515Y-15807222D01*
X11453515Y-15807222D02*
X11443991Y-15816746D01*
X11443991Y-15816746D02*
X11434467Y-15835793D01*
X11434467Y-15835793D02*
X11434467Y-15873888D01*
X11434467Y-15873888D02*
X11443991Y-15892936D01*
X11443991Y-15892936D02*
X11453515Y-15902460D01*
X11453515Y-15902460D02*
X11472562Y-15911984D01*
X11472562Y-15911984D02*
X11510658Y-15911984D01*
X11510658Y-15911984D02*
X11529705Y-15902460D01*
X11529705Y-15902460D02*
X11539229Y-15892936D01*
X11539229Y-15892936D02*
X11548753Y-15873888D01*
X11548753Y-15873888D02*
X11548753Y-15835793D01*
X11548753Y-15835793D02*
X11539229Y-15816746D01*
X11539229Y-15816746D02*
X11529705Y-15807222D01*
X11529705Y-15807222D02*
X11510658Y-15797698D01*
X11672562Y-15711984D02*
X11691610Y-15711984D01*
X11691610Y-15711984D02*
X11710658Y-15721508D01*
X11710658Y-15721508D02*
X11720182Y-15731031D01*
X11720182Y-15731031D02*
X11729705Y-15750079D01*
X11729705Y-15750079D02*
X11739229Y-15788174D01*
X11739229Y-15788174D02*
X11739229Y-15835793D01*
X11739229Y-15835793D02*
X11729705Y-15873888D01*
X11729705Y-15873888D02*
X11720182Y-15892936D01*
X11720182Y-15892936D02*
X11710658Y-15902460D01*
X11710658Y-15902460D02*
X11691610Y-15911984D01*
X11691610Y-15911984D02*
X11672562Y-15911984D01*
X11672562Y-15911984D02*
X11653515Y-15902460D01*
X11653515Y-15902460D02*
X11643991Y-15892936D01*
X11643991Y-15892936D02*
X11634467Y-15873888D01*
X11634467Y-15873888D02*
X11624943Y-15835793D01*
X11624943Y-15835793D02*
X11624943Y-15788174D01*
X11624943Y-15788174D02*
X11634467Y-15750079D01*
X11634467Y-15750079D02*
X11643991Y-15731031D01*
X11643991Y-15731031D02*
X11653515Y-15721508D01*
X11653515Y-15721508D02*
X11672562Y-15711984D01*
X11863039Y-15711984D02*
X11882086Y-15711984D01*
X11882086Y-15711984D02*
X11901134Y-15721508D01*
X11901134Y-15721508D02*
X11910658Y-15731031D01*
X11910658Y-15731031D02*
X11920182Y-15750079D01*
X11920182Y-15750079D02*
X11929705Y-15788174D01*
X11929705Y-15788174D02*
X11929705Y-15835793D01*
X11929705Y-15835793D02*
X11920182Y-15873888D01*
X11920182Y-15873888D02*
X11910658Y-15892936D01*
X11910658Y-15892936D02*
X11901134Y-15902460D01*
X11901134Y-15902460D02*
X11882086Y-15911984D01*
X11882086Y-15911984D02*
X11863039Y-15911984D01*
X11863039Y-15911984D02*
X11843991Y-15902460D01*
X11843991Y-15902460D02*
X11834467Y-15892936D01*
X11834467Y-15892936D02*
X11824943Y-15873888D01*
X11824943Y-15873888D02*
X11815420Y-15835793D01*
X11815420Y-15835793D02*
X11815420Y-15788174D01*
X11815420Y-15788174D02*
X11824943Y-15750079D01*
X11824943Y-15750079D02*
X11834467Y-15731031D01*
X11834467Y-15731031D02*
X11843991Y-15721508D01*
X11843991Y-15721508D02*
X11863039Y-15711984D01*
X12015420Y-15911984D02*
X12015420Y-15778650D01*
X12015420Y-15797698D02*
X12024943Y-15788174D01*
X12024943Y-15788174D02*
X12043991Y-15778650D01*
X12043991Y-15778650D02*
X12072563Y-15778650D01*
X12072563Y-15778650D02*
X12091610Y-15788174D01*
X12091610Y-15788174D02*
X12101134Y-15807222D01*
X12101134Y-15807222D02*
X12101134Y-15911984D01*
X12101134Y-15807222D02*
X12110658Y-15788174D01*
X12110658Y-15788174D02*
X12129705Y-15778650D01*
X12129705Y-15778650D02*
X12158277Y-15778650D01*
X12158277Y-15778650D02*
X12177324Y-15788174D01*
X12177324Y-15788174D02*
X12186848Y-15807222D01*
X12186848Y-15807222D02*
X12186848Y-15911984D01*
X12282086Y-15911984D02*
X12282086Y-15778650D01*
X12282086Y-15797698D02*
X12291610Y-15788174D01*
X12291610Y-15788174D02*
X12310658Y-15778650D01*
X12310658Y-15778650D02*
X12339229Y-15778650D01*
X12339229Y-15778650D02*
X12358277Y-15788174D01*
X12358277Y-15788174D02*
X12367801Y-15807222D01*
X12367801Y-15807222D02*
X12367801Y-15911984D01*
X12367801Y-15807222D02*
X12377324Y-15788174D01*
X12377324Y-15788174D02*
X12396372Y-15778650D01*
X12396372Y-15778650D02*
X12424943Y-15778650D01*
X12424943Y-15778650D02*
X12443991Y-15788174D01*
X12443991Y-15788174D02*
X12453515Y-15807222D01*
X12453515Y-15807222D02*
X12453515Y-15911984D01*
X12843991Y-15702460D02*
X12672563Y-15959603D01*
X13101134Y-15711984D02*
X13120182Y-15711984D01*
X13120182Y-15711984D02*
X13139229Y-15721508D01*
X13139229Y-15721508D02*
X13148753Y-15731031D01*
X13148753Y-15731031D02*
X13158277Y-15750079D01*
X13158277Y-15750079D02*
X13167801Y-15788174D01*
X13167801Y-15788174D02*
X13167801Y-15835793D01*
X13167801Y-15835793D02*
X13158277Y-15873888D01*
X13158277Y-15873888D02*
X13148753Y-15892936D01*
X13148753Y-15892936D02*
X13139229Y-15902460D01*
X13139229Y-15902460D02*
X13120182Y-15911984D01*
X13120182Y-15911984D02*
X13101134Y-15911984D01*
X13101134Y-15911984D02*
X13082086Y-15902460D01*
X13082086Y-15902460D02*
X13072563Y-15892936D01*
X13072563Y-15892936D02*
X13063039Y-15873888D01*
X13063039Y-15873888D02*
X13053515Y-15835793D01*
X13053515Y-15835793D02*
X13053515Y-15788174D01*
X13053515Y-15788174D02*
X13063039Y-15750079D01*
X13063039Y-15750079D02*
X13072563Y-15731031D01*
X13072563Y-15731031D02*
X13082086Y-15721508D01*
X13082086Y-15721508D02*
X13101134Y-15711984D01*
X13253515Y-15892936D02*
X13263039Y-15902460D01*
X13263039Y-15902460D02*
X13253515Y-15911984D01*
X13253515Y-15911984D02*
X13243991Y-15902460D01*
X13243991Y-15902460D02*
X13253515Y-15892936D01*
X13253515Y-15892936D02*
X13253515Y-15911984D01*
X13386848Y-15711984D02*
X13405896Y-15711984D01*
X13405896Y-15711984D02*
X13424944Y-15721508D01*
X13424944Y-15721508D02*
X13434467Y-15731031D01*
X13434467Y-15731031D02*
X13443991Y-15750079D01*
X13443991Y-15750079D02*
X13453515Y-15788174D01*
X13453515Y-15788174D02*
X13453515Y-15835793D01*
X13453515Y-15835793D02*
X13443991Y-15873888D01*
X13443991Y-15873888D02*
X13434467Y-15892936D01*
X13434467Y-15892936D02*
X13424944Y-15902460D01*
X13424944Y-15902460D02*
X13405896Y-15911984D01*
X13405896Y-15911984D02*
X13386848Y-15911984D01*
X13386848Y-15911984D02*
X13367801Y-15902460D01*
X13367801Y-15902460D02*
X13358277Y-15892936D01*
X13358277Y-15892936D02*
X13348753Y-15873888D01*
X13348753Y-15873888D02*
X13339229Y-15835793D01*
X13339229Y-15835793D02*
X13339229Y-15788174D01*
X13339229Y-15788174D02*
X13348753Y-15750079D01*
X13348753Y-15750079D02*
X13358277Y-15731031D01*
X13358277Y-15731031D02*
X13367801Y-15721508D01*
X13367801Y-15721508D02*
X13386848Y-15711984D01*
X13520182Y-15711984D02*
X13643991Y-15711984D01*
X13643991Y-15711984D02*
X13577325Y-15788174D01*
X13577325Y-15788174D02*
X13605896Y-15788174D01*
X13605896Y-15788174D02*
X13624944Y-15797698D01*
X13624944Y-15797698D02*
X13634467Y-15807222D01*
X13634467Y-15807222D02*
X13643991Y-15826269D01*
X13643991Y-15826269D02*
X13643991Y-15873888D01*
X13643991Y-15873888D02*
X13634467Y-15892936D01*
X13634467Y-15892936D02*
X13624944Y-15902460D01*
X13624944Y-15902460D02*
X13605896Y-15911984D01*
X13605896Y-15911984D02*
X13548753Y-15911984D01*
X13548753Y-15911984D02*
X13529706Y-15902460D01*
X13529706Y-15902460D02*
X13520182Y-15892936D01*
X13834467Y-15911984D02*
X13720182Y-15911984D01*
X13777325Y-15911984D02*
X13777325Y-15711984D01*
X13777325Y-15711984D02*
X13758277Y-15740555D01*
X13758277Y-15740555D02*
X13739229Y-15759603D01*
X13739229Y-15759603D02*
X13720182Y-15769127D01*
X14015420Y-15711984D02*
X13920182Y-15711984D01*
X13920182Y-15711984D02*
X13910658Y-15807222D01*
X13910658Y-15807222D02*
X13920182Y-15797698D01*
X13920182Y-15797698D02*
X13939229Y-15788174D01*
X13939229Y-15788174D02*
X13986848Y-15788174D01*
X13986848Y-15788174D02*
X14005896Y-15797698D01*
X14005896Y-15797698D02*
X14015420Y-15807222D01*
X14015420Y-15807222D02*
X14024944Y-15826269D01*
X14024944Y-15826269D02*
X14024944Y-15873888D01*
X14024944Y-15873888D02*
X14015420Y-15892936D01*
X14015420Y-15892936D02*
X14005896Y-15902460D01*
X14005896Y-15902460D02*
X13986848Y-15911984D01*
X13986848Y-15911984D02*
X13939229Y-15911984D01*
X13939229Y-15911984D02*
X13920182Y-15902460D01*
X13920182Y-15902460D02*
X13910658Y-15892936D01*
X14101134Y-15711984D02*
X14101134Y-15750079D01*
X14177325Y-15711984D02*
X14177325Y-15750079D01*
X14472563Y-15988174D02*
X14463039Y-15978650D01*
X14463039Y-15978650D02*
X14443991Y-15950079D01*
X14443991Y-15950079D02*
X14434468Y-15931031D01*
X14434468Y-15931031D02*
X14424944Y-15902460D01*
X14424944Y-15902460D02*
X14415420Y-15854841D01*
X14415420Y-15854841D02*
X14415420Y-15816746D01*
X14415420Y-15816746D02*
X14424944Y-15769127D01*
X14424944Y-15769127D02*
X14434468Y-15740555D01*
X14434468Y-15740555D02*
X14443991Y-15721508D01*
X14443991Y-15721508D02*
X14463039Y-15692936D01*
X14463039Y-15692936D02*
X14472563Y-15683412D01*
X14653515Y-15911984D02*
X14539229Y-15911984D01*
X14596372Y-15911984D02*
X14596372Y-15711984D01*
X14596372Y-15711984D02*
X14577325Y-15740555D01*
X14577325Y-15740555D02*
X14558277Y-15759603D01*
X14558277Y-15759603D02*
X14539229Y-15769127D01*
X14824944Y-15711984D02*
X14786848Y-15711984D01*
X14786848Y-15711984D02*
X14767801Y-15721508D01*
X14767801Y-15721508D02*
X14758277Y-15731031D01*
X14758277Y-15731031D02*
X14739229Y-15759603D01*
X14739229Y-15759603D02*
X14729706Y-15797698D01*
X14729706Y-15797698D02*
X14729706Y-15873888D01*
X14729706Y-15873888D02*
X14739229Y-15892936D01*
X14739229Y-15892936D02*
X14748753Y-15902460D01*
X14748753Y-15902460D02*
X14767801Y-15911984D01*
X14767801Y-15911984D02*
X14805896Y-15911984D01*
X14805896Y-15911984D02*
X14824944Y-15902460D01*
X14824944Y-15902460D02*
X14834468Y-15892936D01*
X14834468Y-15892936D02*
X14843991Y-15873888D01*
X14843991Y-15873888D02*
X14843991Y-15826269D01*
X14843991Y-15826269D02*
X14834468Y-15807222D01*
X14834468Y-15807222D02*
X14824944Y-15797698D01*
X14824944Y-15797698D02*
X14805896Y-15788174D01*
X14805896Y-15788174D02*
X14767801Y-15788174D01*
X14767801Y-15788174D02*
X14748753Y-15797698D01*
X14748753Y-15797698D02*
X14739229Y-15807222D01*
X14739229Y-15807222D02*
X14729706Y-15826269D01*
X15082087Y-15911984D02*
X15082087Y-15711984D01*
X15167801Y-15911984D02*
X15167801Y-15807222D01*
X15167801Y-15807222D02*
X15158277Y-15788174D01*
X15158277Y-15788174D02*
X15139230Y-15778650D01*
X15139230Y-15778650D02*
X15110658Y-15778650D01*
X15110658Y-15778650D02*
X15091610Y-15788174D01*
X15091610Y-15788174D02*
X15082087Y-15797698D01*
X15291610Y-15911984D02*
X15272563Y-15902460D01*
X15272563Y-15902460D02*
X15263039Y-15892936D01*
X15263039Y-15892936D02*
X15253515Y-15873888D01*
X15253515Y-15873888D02*
X15253515Y-15816746D01*
X15253515Y-15816746D02*
X15263039Y-15797698D01*
X15263039Y-15797698D02*
X15272563Y-15788174D01*
X15272563Y-15788174D02*
X15291610Y-15778650D01*
X15291610Y-15778650D02*
X15320182Y-15778650D01*
X15320182Y-15778650D02*
X15339230Y-15788174D01*
X15339230Y-15788174D02*
X15348753Y-15797698D01*
X15348753Y-15797698D02*
X15358277Y-15816746D01*
X15358277Y-15816746D02*
X15358277Y-15873888D01*
X15358277Y-15873888D02*
X15348753Y-15892936D01*
X15348753Y-15892936D02*
X15339230Y-15902460D01*
X15339230Y-15902460D02*
X15320182Y-15911984D01*
X15320182Y-15911984D02*
X15291610Y-15911984D01*
X15472563Y-15911984D02*
X15453515Y-15902460D01*
X15453515Y-15902460D02*
X15443991Y-15883412D01*
X15443991Y-15883412D02*
X15443991Y-15711984D01*
X15624944Y-15902460D02*
X15605896Y-15911984D01*
X15605896Y-15911984D02*
X15567801Y-15911984D01*
X15567801Y-15911984D02*
X15548753Y-15902460D01*
X15548753Y-15902460D02*
X15539230Y-15883412D01*
X15539230Y-15883412D02*
X15539230Y-15807222D01*
X15539230Y-15807222D02*
X15548753Y-15788174D01*
X15548753Y-15788174D02*
X15567801Y-15778650D01*
X15567801Y-15778650D02*
X15605896Y-15778650D01*
X15605896Y-15778650D02*
X15624944Y-15788174D01*
X15624944Y-15788174D02*
X15634468Y-15807222D01*
X15634468Y-15807222D02*
X15634468Y-15826269D01*
X15634468Y-15826269D02*
X15539230Y-15845317D01*
X15710658Y-15902460D02*
X15729706Y-15911984D01*
X15729706Y-15911984D02*
X15767801Y-15911984D01*
X15767801Y-15911984D02*
X15786849Y-15902460D01*
X15786849Y-15902460D02*
X15796372Y-15883412D01*
X15796372Y-15883412D02*
X15796372Y-15873888D01*
X15796372Y-15873888D02*
X15786849Y-15854841D01*
X15786849Y-15854841D02*
X15767801Y-15845317D01*
X15767801Y-15845317D02*
X15739230Y-15845317D01*
X15739230Y-15845317D02*
X15720182Y-15835793D01*
X15720182Y-15835793D02*
X15710658Y-15816746D01*
X15710658Y-15816746D02*
X15710658Y-15807222D01*
X15710658Y-15807222D02*
X15720182Y-15788174D01*
X15720182Y-15788174D02*
X15739230Y-15778650D01*
X15739230Y-15778650D02*
X15767801Y-15778650D01*
X15767801Y-15778650D02*
X15786849Y-15788174D01*
X15863039Y-15988174D02*
X15872563Y-15978650D01*
X15872563Y-15978650D02*
X15891611Y-15950079D01*
X15891611Y-15950079D02*
X15901134Y-15931031D01*
X15901134Y-15931031D02*
X15910658Y-15902460D01*
X15910658Y-15902460D02*
X15920182Y-15854841D01*
X15920182Y-15854841D02*
X15920182Y-15816746D01*
X15920182Y-15816746D02*
X15910658Y-15769127D01*
X15910658Y-15769127D02*
X15901134Y-15740555D01*
X15901134Y-15740555D02*
X15891611Y-15721508D01*
X15891611Y-15721508D02*
X15872563Y-15692936D01*
X15872563Y-15692936D02*
X15863039Y-15683412D01*
D15*
X10882856Y-16119856D02*
X10882856Y-16049144D01*
X10812144Y-16049144D01*
X10812144Y-16119856D01*
X10882856Y-16119856D01*
D11*
X11263039Y-16175984D02*
X11148753Y-16175984D01*
X11205896Y-16175984D02*
X11205896Y-15975984D01*
X11205896Y-15975984D02*
X11186848Y-16004555D01*
X11186848Y-16004555D02*
X11167801Y-16023603D01*
X11167801Y-16023603D02*
X11148753Y-16033127D01*
X11348753Y-16156936D02*
X11358277Y-16166460D01*
X11358277Y-16166460D02*
X11348753Y-16175984D01*
X11348753Y-16175984D02*
X11339229Y-16166460D01*
X11339229Y-16166460D02*
X11348753Y-16156936D01*
X11348753Y-16156936D02*
X11348753Y-16175984D01*
X11482086Y-15975984D02*
X11501134Y-15975984D01*
X11501134Y-15975984D02*
X11520182Y-15985508D01*
X11520182Y-15985508D02*
X11529705Y-15995031D01*
X11529705Y-15995031D02*
X11539229Y-16014079D01*
X11539229Y-16014079D02*
X11548753Y-16052174D01*
X11548753Y-16052174D02*
X11548753Y-16099793D01*
X11548753Y-16099793D02*
X11539229Y-16137888D01*
X11539229Y-16137888D02*
X11529705Y-16156936D01*
X11529705Y-16156936D02*
X11520182Y-16166460D01*
X11520182Y-16166460D02*
X11501134Y-16175984D01*
X11501134Y-16175984D02*
X11482086Y-16175984D01*
X11482086Y-16175984D02*
X11463039Y-16166460D01*
X11463039Y-16166460D02*
X11453515Y-16156936D01*
X11453515Y-16156936D02*
X11443991Y-16137888D01*
X11443991Y-16137888D02*
X11434467Y-16099793D01*
X11434467Y-16099793D02*
X11434467Y-16052174D01*
X11434467Y-16052174D02*
X11443991Y-16014079D01*
X11443991Y-16014079D02*
X11453515Y-15995031D01*
X11453515Y-15995031D02*
X11463039Y-15985508D01*
X11463039Y-15985508D02*
X11482086Y-15975984D01*
X11672562Y-15975984D02*
X11691610Y-15975984D01*
X11691610Y-15975984D02*
X11710658Y-15985508D01*
X11710658Y-15985508D02*
X11720182Y-15995031D01*
X11720182Y-15995031D02*
X11729705Y-16014079D01*
X11729705Y-16014079D02*
X11739229Y-16052174D01*
X11739229Y-16052174D02*
X11739229Y-16099793D01*
X11739229Y-16099793D02*
X11729705Y-16137888D01*
X11729705Y-16137888D02*
X11720182Y-16156936D01*
X11720182Y-16156936D02*
X11710658Y-16166460D01*
X11710658Y-16166460D02*
X11691610Y-16175984D01*
X11691610Y-16175984D02*
X11672562Y-16175984D01*
X11672562Y-16175984D02*
X11653515Y-16166460D01*
X11653515Y-16166460D02*
X11643991Y-16156936D01*
X11643991Y-16156936D02*
X11634467Y-16137888D01*
X11634467Y-16137888D02*
X11624943Y-16099793D01*
X11624943Y-16099793D02*
X11624943Y-16052174D01*
X11624943Y-16052174D02*
X11634467Y-16014079D01*
X11634467Y-16014079D02*
X11643991Y-15995031D01*
X11643991Y-15995031D02*
X11653515Y-15985508D01*
X11653515Y-15985508D02*
X11672562Y-15975984D01*
X11863039Y-15975984D02*
X11882086Y-15975984D01*
X11882086Y-15975984D02*
X11901134Y-15985508D01*
X11901134Y-15985508D02*
X11910658Y-15995031D01*
X11910658Y-15995031D02*
X11920182Y-16014079D01*
X11920182Y-16014079D02*
X11929705Y-16052174D01*
X11929705Y-16052174D02*
X11929705Y-16099793D01*
X11929705Y-16099793D02*
X11920182Y-16137888D01*
X11920182Y-16137888D02*
X11910658Y-16156936D01*
X11910658Y-16156936D02*
X11901134Y-16166460D01*
X11901134Y-16166460D02*
X11882086Y-16175984D01*
X11882086Y-16175984D02*
X11863039Y-16175984D01*
X11863039Y-16175984D02*
X11843991Y-16166460D01*
X11843991Y-16166460D02*
X11834467Y-16156936D01*
X11834467Y-16156936D02*
X11824943Y-16137888D01*
X11824943Y-16137888D02*
X11815420Y-16099793D01*
X11815420Y-16099793D02*
X11815420Y-16052174D01*
X11815420Y-16052174D02*
X11824943Y-16014079D01*
X11824943Y-16014079D02*
X11834467Y-15995031D01*
X11834467Y-15995031D02*
X11843991Y-15985508D01*
X11843991Y-15985508D02*
X11863039Y-15975984D01*
X12015420Y-16175984D02*
X12015420Y-16042650D01*
X12015420Y-16061698D02*
X12024943Y-16052174D01*
X12024943Y-16052174D02*
X12043991Y-16042650D01*
X12043991Y-16042650D02*
X12072563Y-16042650D01*
X12072563Y-16042650D02*
X12091610Y-16052174D01*
X12091610Y-16052174D02*
X12101134Y-16071222D01*
X12101134Y-16071222D02*
X12101134Y-16175984D01*
X12101134Y-16071222D02*
X12110658Y-16052174D01*
X12110658Y-16052174D02*
X12129705Y-16042650D01*
X12129705Y-16042650D02*
X12158277Y-16042650D01*
X12158277Y-16042650D02*
X12177324Y-16052174D01*
X12177324Y-16052174D02*
X12186848Y-16071222D01*
X12186848Y-16071222D02*
X12186848Y-16175984D01*
X12282086Y-16175984D02*
X12282086Y-16042650D01*
X12282086Y-16061698D02*
X12291610Y-16052174D01*
X12291610Y-16052174D02*
X12310658Y-16042650D01*
X12310658Y-16042650D02*
X12339229Y-16042650D01*
X12339229Y-16042650D02*
X12358277Y-16052174D01*
X12358277Y-16052174D02*
X12367801Y-16071222D01*
X12367801Y-16071222D02*
X12367801Y-16175984D01*
X12367801Y-16071222D02*
X12377324Y-16052174D01*
X12377324Y-16052174D02*
X12396372Y-16042650D01*
X12396372Y-16042650D02*
X12424943Y-16042650D01*
X12424943Y-16042650D02*
X12443991Y-16052174D01*
X12443991Y-16052174D02*
X12453515Y-16071222D01*
X12453515Y-16071222D02*
X12453515Y-16175984D01*
X12843991Y-15966460D02*
X12672563Y-16223603D01*
X13101134Y-15975984D02*
X13120182Y-15975984D01*
X13120182Y-15975984D02*
X13139229Y-15985508D01*
X13139229Y-15985508D02*
X13148753Y-15995031D01*
X13148753Y-15995031D02*
X13158277Y-16014079D01*
X13158277Y-16014079D02*
X13167801Y-16052174D01*
X13167801Y-16052174D02*
X13167801Y-16099793D01*
X13167801Y-16099793D02*
X13158277Y-16137888D01*
X13158277Y-16137888D02*
X13148753Y-16156936D01*
X13148753Y-16156936D02*
X13139229Y-16166460D01*
X13139229Y-16166460D02*
X13120182Y-16175984D01*
X13120182Y-16175984D02*
X13101134Y-16175984D01*
X13101134Y-16175984D02*
X13082086Y-16166460D01*
X13082086Y-16166460D02*
X13072563Y-16156936D01*
X13072563Y-16156936D02*
X13063039Y-16137888D01*
X13063039Y-16137888D02*
X13053515Y-16099793D01*
X13053515Y-16099793D02*
X13053515Y-16052174D01*
X13053515Y-16052174D02*
X13063039Y-16014079D01*
X13063039Y-16014079D02*
X13072563Y-15995031D01*
X13072563Y-15995031D02*
X13082086Y-15985508D01*
X13082086Y-15985508D02*
X13101134Y-15975984D01*
X13253515Y-16156936D02*
X13263039Y-16166460D01*
X13263039Y-16166460D02*
X13253515Y-16175984D01*
X13253515Y-16175984D02*
X13243991Y-16166460D01*
X13243991Y-16166460D02*
X13253515Y-16156936D01*
X13253515Y-16156936D02*
X13253515Y-16175984D01*
X13386848Y-15975984D02*
X13405896Y-15975984D01*
X13405896Y-15975984D02*
X13424944Y-15985508D01*
X13424944Y-15985508D02*
X13434467Y-15995031D01*
X13434467Y-15995031D02*
X13443991Y-16014079D01*
X13443991Y-16014079D02*
X13453515Y-16052174D01*
X13453515Y-16052174D02*
X13453515Y-16099793D01*
X13453515Y-16099793D02*
X13443991Y-16137888D01*
X13443991Y-16137888D02*
X13434467Y-16156936D01*
X13434467Y-16156936D02*
X13424944Y-16166460D01*
X13424944Y-16166460D02*
X13405896Y-16175984D01*
X13405896Y-16175984D02*
X13386848Y-16175984D01*
X13386848Y-16175984D02*
X13367801Y-16166460D01*
X13367801Y-16166460D02*
X13358277Y-16156936D01*
X13358277Y-16156936D02*
X13348753Y-16137888D01*
X13348753Y-16137888D02*
X13339229Y-16099793D01*
X13339229Y-16099793D02*
X13339229Y-16052174D01*
X13339229Y-16052174D02*
X13348753Y-16014079D01*
X13348753Y-16014079D02*
X13358277Y-15995031D01*
X13358277Y-15995031D02*
X13367801Y-15985508D01*
X13367801Y-15985508D02*
X13386848Y-15975984D01*
X13520182Y-15975984D02*
X13643991Y-15975984D01*
X13643991Y-15975984D02*
X13577325Y-16052174D01*
X13577325Y-16052174D02*
X13605896Y-16052174D01*
X13605896Y-16052174D02*
X13624944Y-16061698D01*
X13624944Y-16061698D02*
X13634467Y-16071222D01*
X13634467Y-16071222D02*
X13643991Y-16090269D01*
X13643991Y-16090269D02*
X13643991Y-16137888D01*
X13643991Y-16137888D02*
X13634467Y-16156936D01*
X13634467Y-16156936D02*
X13624944Y-16166460D01*
X13624944Y-16166460D02*
X13605896Y-16175984D01*
X13605896Y-16175984D02*
X13548753Y-16175984D01*
X13548753Y-16175984D02*
X13529706Y-16166460D01*
X13529706Y-16166460D02*
X13520182Y-16156936D01*
X13739229Y-16175984D02*
X13777325Y-16175984D01*
X13777325Y-16175984D02*
X13796372Y-16166460D01*
X13796372Y-16166460D02*
X13805896Y-16156936D01*
X13805896Y-16156936D02*
X13824944Y-16128365D01*
X13824944Y-16128365D02*
X13834467Y-16090269D01*
X13834467Y-16090269D02*
X13834467Y-16014079D01*
X13834467Y-16014079D02*
X13824944Y-15995031D01*
X13824944Y-15995031D02*
X13815420Y-15985508D01*
X13815420Y-15985508D02*
X13796372Y-15975984D01*
X13796372Y-15975984D02*
X13758277Y-15975984D01*
X13758277Y-15975984D02*
X13739229Y-15985508D01*
X13739229Y-15985508D02*
X13729706Y-15995031D01*
X13729706Y-15995031D02*
X13720182Y-16014079D01*
X13720182Y-16014079D02*
X13720182Y-16061698D01*
X13720182Y-16061698D02*
X13729706Y-16080746D01*
X13729706Y-16080746D02*
X13739229Y-16090269D01*
X13739229Y-16090269D02*
X13758277Y-16099793D01*
X13758277Y-16099793D02*
X13796372Y-16099793D01*
X13796372Y-16099793D02*
X13815420Y-16090269D01*
X13815420Y-16090269D02*
X13824944Y-16080746D01*
X13824944Y-16080746D02*
X13834467Y-16061698D01*
X14005896Y-16042650D02*
X14005896Y-16175984D01*
X13958277Y-15966460D02*
X13910658Y-16109317D01*
X13910658Y-16109317D02*
X14034467Y-16109317D01*
X14101134Y-15975984D02*
X14101134Y-16014079D01*
X14177325Y-15975984D02*
X14177325Y-16014079D01*
X14472563Y-16252174D02*
X14463039Y-16242650D01*
X14463039Y-16242650D02*
X14443991Y-16214079D01*
X14443991Y-16214079D02*
X14434468Y-16195031D01*
X14434468Y-16195031D02*
X14424944Y-16166460D01*
X14424944Y-16166460D02*
X14415420Y-16118841D01*
X14415420Y-16118841D02*
X14415420Y-16080746D01*
X14415420Y-16080746D02*
X14424944Y-16033127D01*
X14424944Y-16033127D02*
X14434468Y-16004555D01*
X14434468Y-16004555D02*
X14443991Y-15985508D01*
X14443991Y-15985508D02*
X14463039Y-15956936D01*
X14463039Y-15956936D02*
X14472563Y-15947412D01*
X14539229Y-15995031D02*
X14548753Y-15985508D01*
X14548753Y-15985508D02*
X14567801Y-15975984D01*
X14567801Y-15975984D02*
X14615420Y-15975984D01*
X14615420Y-15975984D02*
X14634468Y-15985508D01*
X14634468Y-15985508D02*
X14643991Y-15995031D01*
X14643991Y-15995031D02*
X14653515Y-16014079D01*
X14653515Y-16014079D02*
X14653515Y-16033127D01*
X14653515Y-16033127D02*
X14643991Y-16061698D01*
X14643991Y-16061698D02*
X14529706Y-16175984D01*
X14529706Y-16175984D02*
X14653515Y-16175984D01*
X14767801Y-16061698D02*
X14748753Y-16052174D01*
X14748753Y-16052174D02*
X14739229Y-16042650D01*
X14739229Y-16042650D02*
X14729706Y-16023603D01*
X14729706Y-16023603D02*
X14729706Y-16014079D01*
X14729706Y-16014079D02*
X14739229Y-15995031D01*
X14739229Y-15995031D02*
X14748753Y-15985508D01*
X14748753Y-15985508D02*
X14767801Y-15975984D01*
X14767801Y-15975984D02*
X14805896Y-15975984D01*
X14805896Y-15975984D02*
X14824944Y-15985508D01*
X14824944Y-15985508D02*
X14834468Y-15995031D01*
X14834468Y-15995031D02*
X14843991Y-16014079D01*
X14843991Y-16014079D02*
X14843991Y-16023603D01*
X14843991Y-16023603D02*
X14834468Y-16042650D01*
X14834468Y-16042650D02*
X14824944Y-16052174D01*
X14824944Y-16052174D02*
X14805896Y-16061698D01*
X14805896Y-16061698D02*
X14767801Y-16061698D01*
X14767801Y-16061698D02*
X14748753Y-16071222D01*
X14748753Y-16071222D02*
X14739229Y-16080746D01*
X14739229Y-16080746D02*
X14729706Y-16099793D01*
X14729706Y-16099793D02*
X14729706Y-16137888D01*
X14729706Y-16137888D02*
X14739229Y-16156936D01*
X14739229Y-16156936D02*
X14748753Y-16166460D01*
X14748753Y-16166460D02*
X14767801Y-16175984D01*
X14767801Y-16175984D02*
X14805896Y-16175984D01*
X14805896Y-16175984D02*
X14824944Y-16166460D01*
X14824944Y-16166460D02*
X14834468Y-16156936D01*
X14834468Y-16156936D02*
X14843991Y-16137888D01*
X14843991Y-16137888D02*
X14843991Y-16099793D01*
X14843991Y-16099793D02*
X14834468Y-16080746D01*
X14834468Y-16080746D02*
X14824944Y-16071222D01*
X14824944Y-16071222D02*
X14805896Y-16061698D01*
X15082087Y-16175984D02*
X15082087Y-15975984D01*
X15167801Y-16175984D02*
X15167801Y-16071222D01*
X15167801Y-16071222D02*
X15158277Y-16052174D01*
X15158277Y-16052174D02*
X15139230Y-16042650D01*
X15139230Y-16042650D02*
X15110658Y-16042650D01*
X15110658Y-16042650D02*
X15091610Y-16052174D01*
X15091610Y-16052174D02*
X15082087Y-16061698D01*
X15291610Y-16175984D02*
X15272563Y-16166460D01*
X15272563Y-16166460D02*
X15263039Y-16156936D01*
X15263039Y-16156936D02*
X15253515Y-16137888D01*
X15253515Y-16137888D02*
X15253515Y-16080746D01*
X15253515Y-16080746D02*
X15263039Y-16061698D01*
X15263039Y-16061698D02*
X15272563Y-16052174D01*
X15272563Y-16052174D02*
X15291610Y-16042650D01*
X15291610Y-16042650D02*
X15320182Y-16042650D01*
X15320182Y-16042650D02*
X15339230Y-16052174D01*
X15339230Y-16052174D02*
X15348753Y-16061698D01*
X15348753Y-16061698D02*
X15358277Y-16080746D01*
X15358277Y-16080746D02*
X15358277Y-16137888D01*
X15358277Y-16137888D02*
X15348753Y-16156936D01*
X15348753Y-16156936D02*
X15339230Y-16166460D01*
X15339230Y-16166460D02*
X15320182Y-16175984D01*
X15320182Y-16175984D02*
X15291610Y-16175984D01*
X15472563Y-16175984D02*
X15453515Y-16166460D01*
X15453515Y-16166460D02*
X15443991Y-16147412D01*
X15443991Y-16147412D02*
X15443991Y-15975984D01*
X15624944Y-16166460D02*
X15605896Y-16175984D01*
X15605896Y-16175984D02*
X15567801Y-16175984D01*
X15567801Y-16175984D02*
X15548753Y-16166460D01*
X15548753Y-16166460D02*
X15539230Y-16147412D01*
X15539230Y-16147412D02*
X15539230Y-16071222D01*
X15539230Y-16071222D02*
X15548753Y-16052174D01*
X15548753Y-16052174D02*
X15567801Y-16042650D01*
X15567801Y-16042650D02*
X15605896Y-16042650D01*
X15605896Y-16042650D02*
X15624944Y-16052174D01*
X15624944Y-16052174D02*
X15634468Y-16071222D01*
X15634468Y-16071222D02*
X15634468Y-16090269D01*
X15634468Y-16090269D02*
X15539230Y-16109317D01*
X15710658Y-16166460D02*
X15729706Y-16175984D01*
X15729706Y-16175984D02*
X15767801Y-16175984D01*
X15767801Y-16175984D02*
X15786849Y-16166460D01*
X15786849Y-16166460D02*
X15796372Y-16147412D01*
X15796372Y-16147412D02*
X15796372Y-16137888D01*
X15796372Y-16137888D02*
X15786849Y-16118841D01*
X15786849Y-16118841D02*
X15767801Y-16109317D01*
X15767801Y-16109317D02*
X15739230Y-16109317D01*
X15739230Y-16109317D02*
X15720182Y-16099793D01*
X15720182Y-16099793D02*
X15710658Y-16080746D01*
X15710658Y-16080746D02*
X15710658Y-16071222D01*
X15710658Y-16071222D02*
X15720182Y-16052174D01*
X15720182Y-16052174D02*
X15739230Y-16042650D01*
X15739230Y-16042650D02*
X15767801Y-16042650D01*
X15767801Y-16042650D02*
X15786849Y-16052174D01*
X15863039Y-16252174D02*
X15872563Y-16242650D01*
X15872563Y-16242650D02*
X15891611Y-16214079D01*
X15891611Y-16214079D02*
X15901134Y-16195031D01*
X15901134Y-16195031D02*
X15910658Y-16166460D01*
X15910658Y-16166460D02*
X15920182Y-16118841D01*
X15920182Y-16118841D02*
X15920182Y-16080746D01*
X15920182Y-16080746D02*
X15910658Y-16033127D01*
X15910658Y-16033127D02*
X15901134Y-16004555D01*
X15901134Y-16004555D02*
X15891611Y-15985508D01*
X15891611Y-15985508D02*
X15872563Y-15956936D01*
X15872563Y-15956936D02*
X15863039Y-15947412D01*
D16*
X10836500Y-16409500D02*
X10897500Y-16348500D01*
X10836500Y-16287500D01*
X10775500Y-16348500D01*
X10836500Y-16409500D01*
D11*
X11263039Y-16439984D02*
X11148753Y-16439984D01*
X11205896Y-16439984D02*
X11205896Y-16239984D01*
X11205896Y-16239984D02*
X11186848Y-16268555D01*
X11186848Y-16268555D02*
X11167801Y-16287603D01*
X11167801Y-16287603D02*
X11148753Y-16297127D01*
X11348753Y-16420936D02*
X11358277Y-16430460D01*
X11358277Y-16430460D02*
X11348753Y-16439984D01*
X11348753Y-16439984D02*
X11339229Y-16430460D01*
X11339229Y-16430460D02*
X11348753Y-16420936D01*
X11348753Y-16420936D02*
X11348753Y-16439984D01*
X11434467Y-16259031D02*
X11443991Y-16249508D01*
X11443991Y-16249508D02*
X11463039Y-16239984D01*
X11463039Y-16239984D02*
X11510658Y-16239984D01*
X11510658Y-16239984D02*
X11529705Y-16249508D01*
X11529705Y-16249508D02*
X11539229Y-16259031D01*
X11539229Y-16259031D02*
X11548753Y-16278079D01*
X11548753Y-16278079D02*
X11548753Y-16297127D01*
X11548753Y-16297127D02*
X11539229Y-16325698D01*
X11539229Y-16325698D02*
X11424943Y-16439984D01*
X11424943Y-16439984D02*
X11548753Y-16439984D01*
X11624943Y-16259031D02*
X11634467Y-16249508D01*
X11634467Y-16249508D02*
X11653515Y-16239984D01*
X11653515Y-16239984D02*
X11701134Y-16239984D01*
X11701134Y-16239984D02*
X11720182Y-16249508D01*
X11720182Y-16249508D02*
X11729705Y-16259031D01*
X11729705Y-16259031D02*
X11739229Y-16278079D01*
X11739229Y-16278079D02*
X11739229Y-16297127D01*
X11739229Y-16297127D02*
X11729705Y-16325698D01*
X11729705Y-16325698D02*
X11615420Y-16439984D01*
X11615420Y-16439984D02*
X11739229Y-16439984D01*
X11863039Y-16239984D02*
X11882086Y-16239984D01*
X11882086Y-16239984D02*
X11901134Y-16249508D01*
X11901134Y-16249508D02*
X11910658Y-16259031D01*
X11910658Y-16259031D02*
X11920182Y-16278079D01*
X11920182Y-16278079D02*
X11929705Y-16316174D01*
X11929705Y-16316174D02*
X11929705Y-16363793D01*
X11929705Y-16363793D02*
X11920182Y-16401888D01*
X11920182Y-16401888D02*
X11910658Y-16420936D01*
X11910658Y-16420936D02*
X11901134Y-16430460D01*
X11901134Y-16430460D02*
X11882086Y-16439984D01*
X11882086Y-16439984D02*
X11863039Y-16439984D01*
X11863039Y-16439984D02*
X11843991Y-16430460D01*
X11843991Y-16430460D02*
X11834467Y-16420936D01*
X11834467Y-16420936D02*
X11824943Y-16401888D01*
X11824943Y-16401888D02*
X11815420Y-16363793D01*
X11815420Y-16363793D02*
X11815420Y-16316174D01*
X11815420Y-16316174D02*
X11824943Y-16278079D01*
X11824943Y-16278079D02*
X11834467Y-16259031D01*
X11834467Y-16259031D02*
X11843991Y-16249508D01*
X11843991Y-16249508D02*
X11863039Y-16239984D01*
X12015420Y-16439984D02*
X12015420Y-16306650D01*
X12015420Y-16325698D02*
X12024943Y-16316174D01*
X12024943Y-16316174D02*
X12043991Y-16306650D01*
X12043991Y-16306650D02*
X12072563Y-16306650D01*
X12072563Y-16306650D02*
X12091610Y-16316174D01*
X12091610Y-16316174D02*
X12101134Y-16335222D01*
X12101134Y-16335222D02*
X12101134Y-16439984D01*
X12101134Y-16335222D02*
X12110658Y-16316174D01*
X12110658Y-16316174D02*
X12129705Y-16306650D01*
X12129705Y-16306650D02*
X12158277Y-16306650D01*
X12158277Y-16306650D02*
X12177324Y-16316174D01*
X12177324Y-16316174D02*
X12186848Y-16335222D01*
X12186848Y-16335222D02*
X12186848Y-16439984D01*
X12282086Y-16439984D02*
X12282086Y-16306650D01*
X12282086Y-16325698D02*
X12291610Y-16316174D01*
X12291610Y-16316174D02*
X12310658Y-16306650D01*
X12310658Y-16306650D02*
X12339229Y-16306650D01*
X12339229Y-16306650D02*
X12358277Y-16316174D01*
X12358277Y-16316174D02*
X12367801Y-16335222D01*
X12367801Y-16335222D02*
X12367801Y-16439984D01*
X12367801Y-16335222D02*
X12377324Y-16316174D01*
X12377324Y-16316174D02*
X12396372Y-16306650D01*
X12396372Y-16306650D02*
X12424943Y-16306650D01*
X12424943Y-16306650D02*
X12443991Y-16316174D01*
X12443991Y-16316174D02*
X12453515Y-16335222D01*
X12453515Y-16335222D02*
X12453515Y-16439984D01*
X12843991Y-16230460D02*
X12672563Y-16487603D01*
X13101134Y-16239984D02*
X13120182Y-16239984D01*
X13120182Y-16239984D02*
X13139229Y-16249508D01*
X13139229Y-16249508D02*
X13148753Y-16259031D01*
X13148753Y-16259031D02*
X13158277Y-16278079D01*
X13158277Y-16278079D02*
X13167801Y-16316174D01*
X13167801Y-16316174D02*
X13167801Y-16363793D01*
X13167801Y-16363793D02*
X13158277Y-16401888D01*
X13158277Y-16401888D02*
X13148753Y-16420936D01*
X13148753Y-16420936D02*
X13139229Y-16430460D01*
X13139229Y-16430460D02*
X13120182Y-16439984D01*
X13120182Y-16439984D02*
X13101134Y-16439984D01*
X13101134Y-16439984D02*
X13082086Y-16430460D01*
X13082086Y-16430460D02*
X13072563Y-16420936D01*
X13072563Y-16420936D02*
X13063039Y-16401888D01*
X13063039Y-16401888D02*
X13053515Y-16363793D01*
X13053515Y-16363793D02*
X13053515Y-16316174D01*
X13053515Y-16316174D02*
X13063039Y-16278079D01*
X13063039Y-16278079D02*
X13072563Y-16259031D01*
X13072563Y-16259031D02*
X13082086Y-16249508D01*
X13082086Y-16249508D02*
X13101134Y-16239984D01*
X13253515Y-16420936D02*
X13263039Y-16430460D01*
X13263039Y-16430460D02*
X13253515Y-16439984D01*
X13253515Y-16439984D02*
X13243991Y-16430460D01*
X13243991Y-16430460D02*
X13253515Y-16420936D01*
X13253515Y-16420936D02*
X13253515Y-16439984D01*
X13386848Y-16239984D02*
X13405896Y-16239984D01*
X13405896Y-16239984D02*
X13424944Y-16249508D01*
X13424944Y-16249508D02*
X13434467Y-16259031D01*
X13434467Y-16259031D02*
X13443991Y-16278079D01*
X13443991Y-16278079D02*
X13453515Y-16316174D01*
X13453515Y-16316174D02*
X13453515Y-16363793D01*
X13453515Y-16363793D02*
X13443991Y-16401888D01*
X13443991Y-16401888D02*
X13434467Y-16420936D01*
X13434467Y-16420936D02*
X13424944Y-16430460D01*
X13424944Y-16430460D02*
X13405896Y-16439984D01*
X13405896Y-16439984D02*
X13386848Y-16439984D01*
X13386848Y-16439984D02*
X13367801Y-16430460D01*
X13367801Y-16430460D02*
X13358277Y-16420936D01*
X13358277Y-16420936D02*
X13348753Y-16401888D01*
X13348753Y-16401888D02*
X13339229Y-16363793D01*
X13339229Y-16363793D02*
X13339229Y-16316174D01*
X13339229Y-16316174D02*
X13348753Y-16278079D01*
X13348753Y-16278079D02*
X13358277Y-16259031D01*
X13358277Y-16259031D02*
X13367801Y-16249508D01*
X13367801Y-16249508D02*
X13386848Y-16239984D01*
X13624944Y-16306650D02*
X13624944Y-16439984D01*
X13577325Y-16230460D02*
X13529706Y-16373317D01*
X13529706Y-16373317D02*
X13653515Y-16373317D01*
X13758277Y-16325698D02*
X13739229Y-16316174D01*
X13739229Y-16316174D02*
X13729706Y-16306650D01*
X13729706Y-16306650D02*
X13720182Y-16287603D01*
X13720182Y-16287603D02*
X13720182Y-16278079D01*
X13720182Y-16278079D02*
X13729706Y-16259031D01*
X13729706Y-16259031D02*
X13739229Y-16249508D01*
X13739229Y-16249508D02*
X13758277Y-16239984D01*
X13758277Y-16239984D02*
X13796372Y-16239984D01*
X13796372Y-16239984D02*
X13815420Y-16249508D01*
X13815420Y-16249508D02*
X13824944Y-16259031D01*
X13824944Y-16259031D02*
X13834467Y-16278079D01*
X13834467Y-16278079D02*
X13834467Y-16287603D01*
X13834467Y-16287603D02*
X13824944Y-16306650D01*
X13824944Y-16306650D02*
X13815420Y-16316174D01*
X13815420Y-16316174D02*
X13796372Y-16325698D01*
X13796372Y-16325698D02*
X13758277Y-16325698D01*
X13758277Y-16325698D02*
X13739229Y-16335222D01*
X13739229Y-16335222D02*
X13729706Y-16344746D01*
X13729706Y-16344746D02*
X13720182Y-16363793D01*
X13720182Y-16363793D02*
X13720182Y-16401888D01*
X13720182Y-16401888D02*
X13729706Y-16420936D01*
X13729706Y-16420936D02*
X13739229Y-16430460D01*
X13739229Y-16430460D02*
X13758277Y-16439984D01*
X13758277Y-16439984D02*
X13796372Y-16439984D01*
X13796372Y-16439984D02*
X13815420Y-16430460D01*
X13815420Y-16430460D02*
X13824944Y-16420936D01*
X13824944Y-16420936D02*
X13834467Y-16401888D01*
X13834467Y-16401888D02*
X13834467Y-16363793D01*
X13834467Y-16363793D02*
X13824944Y-16344746D01*
X13824944Y-16344746D02*
X13815420Y-16335222D01*
X13815420Y-16335222D02*
X13796372Y-16325698D01*
X13958277Y-16239984D02*
X13977325Y-16239984D01*
X13977325Y-16239984D02*
X13996372Y-16249508D01*
X13996372Y-16249508D02*
X14005896Y-16259031D01*
X14005896Y-16259031D02*
X14015420Y-16278079D01*
X14015420Y-16278079D02*
X14024944Y-16316174D01*
X14024944Y-16316174D02*
X14024944Y-16363793D01*
X14024944Y-16363793D02*
X14015420Y-16401888D01*
X14015420Y-16401888D02*
X14005896Y-16420936D01*
X14005896Y-16420936D02*
X13996372Y-16430460D01*
X13996372Y-16430460D02*
X13977325Y-16439984D01*
X13977325Y-16439984D02*
X13958277Y-16439984D01*
X13958277Y-16439984D02*
X13939229Y-16430460D01*
X13939229Y-16430460D02*
X13929706Y-16420936D01*
X13929706Y-16420936D02*
X13920182Y-16401888D01*
X13920182Y-16401888D02*
X13910658Y-16363793D01*
X13910658Y-16363793D02*
X13910658Y-16316174D01*
X13910658Y-16316174D02*
X13920182Y-16278079D01*
X13920182Y-16278079D02*
X13929706Y-16259031D01*
X13929706Y-16259031D02*
X13939229Y-16249508D01*
X13939229Y-16249508D02*
X13958277Y-16239984D01*
X14101134Y-16239984D02*
X14101134Y-16278079D01*
X14177325Y-16239984D02*
X14177325Y-16278079D01*
X14472563Y-16516174D02*
X14463039Y-16506650D01*
X14463039Y-16506650D02*
X14443991Y-16478079D01*
X14443991Y-16478079D02*
X14434468Y-16459031D01*
X14434468Y-16459031D02*
X14424944Y-16430460D01*
X14424944Y-16430460D02*
X14415420Y-16382841D01*
X14415420Y-16382841D02*
X14415420Y-16344746D01*
X14415420Y-16344746D02*
X14424944Y-16297127D01*
X14424944Y-16297127D02*
X14434468Y-16268555D01*
X14434468Y-16268555D02*
X14443991Y-16249508D01*
X14443991Y-16249508D02*
X14463039Y-16220936D01*
X14463039Y-16220936D02*
X14472563Y-16211412D01*
X14577325Y-16325698D02*
X14558277Y-16316174D01*
X14558277Y-16316174D02*
X14548753Y-16306650D01*
X14548753Y-16306650D02*
X14539229Y-16287603D01*
X14539229Y-16287603D02*
X14539229Y-16278079D01*
X14539229Y-16278079D02*
X14548753Y-16259031D01*
X14548753Y-16259031D02*
X14558277Y-16249508D01*
X14558277Y-16249508D02*
X14577325Y-16239984D01*
X14577325Y-16239984D02*
X14615420Y-16239984D01*
X14615420Y-16239984D02*
X14634468Y-16249508D01*
X14634468Y-16249508D02*
X14643991Y-16259031D01*
X14643991Y-16259031D02*
X14653515Y-16278079D01*
X14653515Y-16278079D02*
X14653515Y-16287603D01*
X14653515Y-16287603D02*
X14643991Y-16306650D01*
X14643991Y-16306650D02*
X14634468Y-16316174D01*
X14634468Y-16316174D02*
X14615420Y-16325698D01*
X14615420Y-16325698D02*
X14577325Y-16325698D01*
X14577325Y-16325698D02*
X14558277Y-16335222D01*
X14558277Y-16335222D02*
X14548753Y-16344746D01*
X14548753Y-16344746D02*
X14539229Y-16363793D01*
X14539229Y-16363793D02*
X14539229Y-16401888D01*
X14539229Y-16401888D02*
X14548753Y-16420936D01*
X14548753Y-16420936D02*
X14558277Y-16430460D01*
X14558277Y-16430460D02*
X14577325Y-16439984D01*
X14577325Y-16439984D02*
X14615420Y-16439984D01*
X14615420Y-16439984D02*
X14634468Y-16430460D01*
X14634468Y-16430460D02*
X14643991Y-16420936D01*
X14643991Y-16420936D02*
X14653515Y-16401888D01*
X14653515Y-16401888D02*
X14653515Y-16363793D01*
X14653515Y-16363793D02*
X14643991Y-16344746D01*
X14643991Y-16344746D02*
X14634468Y-16335222D01*
X14634468Y-16335222D02*
X14615420Y-16325698D01*
X14891610Y-16439984D02*
X14891610Y-16239984D01*
X14977325Y-16439984D02*
X14977325Y-16335222D01*
X14977325Y-16335222D02*
X14967801Y-16316174D01*
X14967801Y-16316174D02*
X14948753Y-16306650D01*
X14948753Y-16306650D02*
X14920182Y-16306650D01*
X14920182Y-16306650D02*
X14901134Y-16316174D01*
X14901134Y-16316174D02*
X14891610Y-16325698D01*
X15101134Y-16439984D02*
X15082087Y-16430460D01*
X15082087Y-16430460D02*
X15072563Y-16420936D01*
X15072563Y-16420936D02*
X15063039Y-16401888D01*
X15063039Y-16401888D02*
X15063039Y-16344746D01*
X15063039Y-16344746D02*
X15072563Y-16325698D01*
X15072563Y-16325698D02*
X15082087Y-16316174D01*
X15082087Y-16316174D02*
X15101134Y-16306650D01*
X15101134Y-16306650D02*
X15129706Y-16306650D01*
X15129706Y-16306650D02*
X15148753Y-16316174D01*
X15148753Y-16316174D02*
X15158277Y-16325698D01*
X15158277Y-16325698D02*
X15167801Y-16344746D01*
X15167801Y-16344746D02*
X15167801Y-16401888D01*
X15167801Y-16401888D02*
X15158277Y-16420936D01*
X15158277Y-16420936D02*
X15148753Y-16430460D01*
X15148753Y-16430460D02*
X15129706Y-16439984D01*
X15129706Y-16439984D02*
X15101134Y-16439984D01*
X15282087Y-16439984D02*
X15263039Y-16430460D01*
X15263039Y-16430460D02*
X15253515Y-16411412D01*
X15253515Y-16411412D02*
X15253515Y-16239984D01*
X15434468Y-16430460D02*
X15415420Y-16439984D01*
X15415420Y-16439984D02*
X15377325Y-16439984D01*
X15377325Y-16439984D02*
X15358277Y-16430460D01*
X15358277Y-16430460D02*
X15348753Y-16411412D01*
X15348753Y-16411412D02*
X15348753Y-16335222D01*
X15348753Y-16335222D02*
X15358277Y-16316174D01*
X15358277Y-16316174D02*
X15377325Y-16306650D01*
X15377325Y-16306650D02*
X15415420Y-16306650D01*
X15415420Y-16306650D02*
X15434468Y-16316174D01*
X15434468Y-16316174D02*
X15443991Y-16335222D01*
X15443991Y-16335222D02*
X15443991Y-16354269D01*
X15443991Y-16354269D02*
X15348753Y-16373317D01*
X15520182Y-16430460D02*
X15539230Y-16439984D01*
X15539230Y-16439984D02*
X15577325Y-16439984D01*
X15577325Y-16439984D02*
X15596372Y-16430460D01*
X15596372Y-16430460D02*
X15605896Y-16411412D01*
X15605896Y-16411412D02*
X15605896Y-16401888D01*
X15605896Y-16401888D02*
X15596372Y-16382841D01*
X15596372Y-16382841D02*
X15577325Y-16373317D01*
X15577325Y-16373317D02*
X15548753Y-16373317D01*
X15548753Y-16373317D02*
X15529706Y-16363793D01*
X15529706Y-16363793D02*
X15520182Y-16344746D01*
X15520182Y-16344746D02*
X15520182Y-16335222D01*
X15520182Y-16335222D02*
X15529706Y-16316174D01*
X15529706Y-16316174D02*
X15548753Y-16306650D01*
X15548753Y-16306650D02*
X15577325Y-16306650D01*
X15577325Y-16306650D02*
X15596372Y-16316174D01*
X15672563Y-16516174D02*
X15682087Y-16506650D01*
X15682087Y-16506650D02*
X15701134Y-16478079D01*
X15701134Y-16478079D02*
X15710658Y-16459031D01*
X15710658Y-16459031D02*
X15720182Y-16430460D01*
X15720182Y-16430460D02*
X15729706Y-16382841D01*
X15729706Y-16382841D02*
X15729706Y-16344746D01*
X15729706Y-16344746D02*
X15720182Y-16297127D01*
X15720182Y-16297127D02*
X15710658Y-16268555D01*
X15710658Y-16268555D02*
X15701134Y-16249508D01*
X15701134Y-16249508D02*
X15682087Y-16220936D01*
X15682087Y-16220936D02*
X15672563Y-16211412D01*
D17*
X10755500Y-16541500D02*
X10897500Y-16683500D01*
X10897500Y-16541500D02*
X10755500Y-16683500D01*
X10897500Y-16612500D02*
G75*
G03*
X10897500Y-16612500I-71000J0D01*
G01*
D11*
X11263039Y-16703984D02*
X11148753Y-16703984D01*
X11205896Y-16703984D02*
X11205896Y-16503984D01*
X11205896Y-16503984D02*
X11186848Y-16532555D01*
X11186848Y-16532555D02*
X11167801Y-16551603D01*
X11167801Y-16551603D02*
X11148753Y-16561127D01*
X11348753Y-16684936D02*
X11358277Y-16694460D01*
X11358277Y-16694460D02*
X11348753Y-16703984D01*
X11348753Y-16703984D02*
X11339229Y-16694460D01*
X11339229Y-16694460D02*
X11348753Y-16684936D01*
X11348753Y-16684936D02*
X11348753Y-16703984D01*
X11529705Y-16570650D02*
X11529705Y-16703984D01*
X11482086Y-16494460D02*
X11434467Y-16637317D01*
X11434467Y-16637317D02*
X11558277Y-16637317D01*
X11624943Y-16523031D02*
X11634467Y-16513508D01*
X11634467Y-16513508D02*
X11653515Y-16503984D01*
X11653515Y-16503984D02*
X11701134Y-16503984D01*
X11701134Y-16503984D02*
X11720182Y-16513508D01*
X11720182Y-16513508D02*
X11729705Y-16523031D01*
X11729705Y-16523031D02*
X11739229Y-16542079D01*
X11739229Y-16542079D02*
X11739229Y-16561127D01*
X11739229Y-16561127D02*
X11729705Y-16589698D01*
X11729705Y-16589698D02*
X11615420Y-16703984D01*
X11615420Y-16703984D02*
X11739229Y-16703984D01*
X11863039Y-16503984D02*
X11882086Y-16503984D01*
X11882086Y-16503984D02*
X11901134Y-16513508D01*
X11901134Y-16513508D02*
X11910658Y-16523031D01*
X11910658Y-16523031D02*
X11920182Y-16542079D01*
X11920182Y-16542079D02*
X11929705Y-16580174D01*
X11929705Y-16580174D02*
X11929705Y-16627793D01*
X11929705Y-16627793D02*
X11920182Y-16665888D01*
X11920182Y-16665888D02*
X11910658Y-16684936D01*
X11910658Y-16684936D02*
X11901134Y-16694460D01*
X11901134Y-16694460D02*
X11882086Y-16703984D01*
X11882086Y-16703984D02*
X11863039Y-16703984D01*
X11863039Y-16703984D02*
X11843991Y-16694460D01*
X11843991Y-16694460D02*
X11834467Y-16684936D01*
X11834467Y-16684936D02*
X11824943Y-16665888D01*
X11824943Y-16665888D02*
X11815420Y-16627793D01*
X11815420Y-16627793D02*
X11815420Y-16580174D01*
X11815420Y-16580174D02*
X11824943Y-16542079D01*
X11824943Y-16542079D02*
X11834467Y-16523031D01*
X11834467Y-16523031D02*
X11843991Y-16513508D01*
X11843991Y-16513508D02*
X11863039Y-16503984D01*
X12015420Y-16703984D02*
X12015420Y-16570650D01*
X12015420Y-16589698D02*
X12024943Y-16580174D01*
X12024943Y-16580174D02*
X12043991Y-16570650D01*
X12043991Y-16570650D02*
X12072563Y-16570650D01*
X12072563Y-16570650D02*
X12091610Y-16580174D01*
X12091610Y-16580174D02*
X12101134Y-16599222D01*
X12101134Y-16599222D02*
X12101134Y-16703984D01*
X12101134Y-16599222D02*
X12110658Y-16580174D01*
X12110658Y-16580174D02*
X12129705Y-16570650D01*
X12129705Y-16570650D02*
X12158277Y-16570650D01*
X12158277Y-16570650D02*
X12177324Y-16580174D01*
X12177324Y-16580174D02*
X12186848Y-16599222D01*
X12186848Y-16599222D02*
X12186848Y-16703984D01*
X12282086Y-16703984D02*
X12282086Y-16570650D01*
X12282086Y-16589698D02*
X12291610Y-16580174D01*
X12291610Y-16580174D02*
X12310658Y-16570650D01*
X12310658Y-16570650D02*
X12339229Y-16570650D01*
X12339229Y-16570650D02*
X12358277Y-16580174D01*
X12358277Y-16580174D02*
X12367801Y-16599222D01*
X12367801Y-16599222D02*
X12367801Y-16703984D01*
X12367801Y-16599222D02*
X12377324Y-16580174D01*
X12377324Y-16580174D02*
X12396372Y-16570650D01*
X12396372Y-16570650D02*
X12424943Y-16570650D01*
X12424943Y-16570650D02*
X12443991Y-16580174D01*
X12443991Y-16580174D02*
X12453515Y-16599222D01*
X12453515Y-16599222D02*
X12453515Y-16703984D01*
X12843991Y-16494460D02*
X12672563Y-16751603D01*
X13101134Y-16503984D02*
X13120182Y-16503984D01*
X13120182Y-16503984D02*
X13139229Y-16513508D01*
X13139229Y-16513508D02*
X13148753Y-16523031D01*
X13148753Y-16523031D02*
X13158277Y-16542079D01*
X13158277Y-16542079D02*
X13167801Y-16580174D01*
X13167801Y-16580174D02*
X13167801Y-16627793D01*
X13167801Y-16627793D02*
X13158277Y-16665888D01*
X13158277Y-16665888D02*
X13148753Y-16684936D01*
X13148753Y-16684936D02*
X13139229Y-16694460D01*
X13139229Y-16694460D02*
X13120182Y-16703984D01*
X13120182Y-16703984D02*
X13101134Y-16703984D01*
X13101134Y-16703984D02*
X13082086Y-16694460D01*
X13082086Y-16694460D02*
X13072563Y-16684936D01*
X13072563Y-16684936D02*
X13063039Y-16665888D01*
X13063039Y-16665888D02*
X13053515Y-16627793D01*
X13053515Y-16627793D02*
X13053515Y-16580174D01*
X13053515Y-16580174D02*
X13063039Y-16542079D01*
X13063039Y-16542079D02*
X13072563Y-16523031D01*
X13072563Y-16523031D02*
X13082086Y-16513508D01*
X13082086Y-16513508D02*
X13101134Y-16503984D01*
X13253515Y-16684936D02*
X13263039Y-16694460D01*
X13263039Y-16694460D02*
X13253515Y-16703984D01*
X13253515Y-16703984D02*
X13243991Y-16694460D01*
X13243991Y-16694460D02*
X13253515Y-16684936D01*
X13253515Y-16684936D02*
X13253515Y-16703984D01*
X13386848Y-16503984D02*
X13405896Y-16503984D01*
X13405896Y-16503984D02*
X13424944Y-16513508D01*
X13424944Y-16513508D02*
X13434467Y-16523031D01*
X13434467Y-16523031D02*
X13443991Y-16542079D01*
X13443991Y-16542079D02*
X13453515Y-16580174D01*
X13453515Y-16580174D02*
X13453515Y-16627793D01*
X13453515Y-16627793D02*
X13443991Y-16665888D01*
X13443991Y-16665888D02*
X13434467Y-16684936D01*
X13434467Y-16684936D02*
X13424944Y-16694460D01*
X13424944Y-16694460D02*
X13405896Y-16703984D01*
X13405896Y-16703984D02*
X13386848Y-16703984D01*
X13386848Y-16703984D02*
X13367801Y-16694460D01*
X13367801Y-16694460D02*
X13358277Y-16684936D01*
X13358277Y-16684936D02*
X13348753Y-16665888D01*
X13348753Y-16665888D02*
X13339229Y-16627793D01*
X13339229Y-16627793D02*
X13339229Y-16580174D01*
X13339229Y-16580174D02*
X13348753Y-16542079D01*
X13348753Y-16542079D02*
X13358277Y-16523031D01*
X13358277Y-16523031D02*
X13367801Y-16513508D01*
X13367801Y-16513508D02*
X13386848Y-16503984D01*
X13634467Y-16503984D02*
X13539229Y-16503984D01*
X13539229Y-16503984D02*
X13529706Y-16599222D01*
X13529706Y-16599222D02*
X13539229Y-16589698D01*
X13539229Y-16589698D02*
X13558277Y-16580174D01*
X13558277Y-16580174D02*
X13605896Y-16580174D01*
X13605896Y-16580174D02*
X13624944Y-16589698D01*
X13624944Y-16589698D02*
X13634467Y-16599222D01*
X13634467Y-16599222D02*
X13643991Y-16618269D01*
X13643991Y-16618269D02*
X13643991Y-16665888D01*
X13643991Y-16665888D02*
X13634467Y-16684936D01*
X13634467Y-16684936D02*
X13624944Y-16694460D01*
X13624944Y-16694460D02*
X13605896Y-16703984D01*
X13605896Y-16703984D02*
X13558277Y-16703984D01*
X13558277Y-16703984D02*
X13539229Y-16694460D01*
X13539229Y-16694460D02*
X13529706Y-16684936D01*
X13824944Y-16503984D02*
X13729706Y-16503984D01*
X13729706Y-16503984D02*
X13720182Y-16599222D01*
X13720182Y-16599222D02*
X13729706Y-16589698D01*
X13729706Y-16589698D02*
X13748753Y-16580174D01*
X13748753Y-16580174D02*
X13796372Y-16580174D01*
X13796372Y-16580174D02*
X13815420Y-16589698D01*
X13815420Y-16589698D02*
X13824944Y-16599222D01*
X13824944Y-16599222D02*
X13834467Y-16618269D01*
X13834467Y-16618269D02*
X13834467Y-16665888D01*
X13834467Y-16665888D02*
X13824944Y-16684936D01*
X13824944Y-16684936D02*
X13815420Y-16694460D01*
X13815420Y-16694460D02*
X13796372Y-16703984D01*
X13796372Y-16703984D02*
X13748753Y-16703984D01*
X13748753Y-16703984D02*
X13729706Y-16694460D01*
X13729706Y-16694460D02*
X13720182Y-16684936D01*
X13929706Y-16703984D02*
X13967801Y-16703984D01*
X13967801Y-16703984D02*
X13986848Y-16694460D01*
X13986848Y-16694460D02*
X13996372Y-16684936D01*
X13996372Y-16684936D02*
X14015420Y-16656365D01*
X14015420Y-16656365D02*
X14024944Y-16618269D01*
X14024944Y-16618269D02*
X14024944Y-16542079D01*
X14024944Y-16542079D02*
X14015420Y-16523031D01*
X14015420Y-16523031D02*
X14005896Y-16513508D01*
X14005896Y-16513508D02*
X13986848Y-16503984D01*
X13986848Y-16503984D02*
X13948753Y-16503984D01*
X13948753Y-16503984D02*
X13929706Y-16513508D01*
X13929706Y-16513508D02*
X13920182Y-16523031D01*
X13920182Y-16523031D02*
X13910658Y-16542079D01*
X13910658Y-16542079D02*
X13910658Y-16589698D01*
X13910658Y-16589698D02*
X13920182Y-16608746D01*
X13920182Y-16608746D02*
X13929706Y-16618269D01*
X13929706Y-16618269D02*
X13948753Y-16627793D01*
X13948753Y-16627793D02*
X13986848Y-16627793D01*
X13986848Y-16627793D02*
X14005896Y-16618269D01*
X14005896Y-16618269D02*
X14015420Y-16608746D01*
X14015420Y-16608746D02*
X14024944Y-16589698D01*
X14101134Y-16503984D02*
X14101134Y-16542079D01*
X14177325Y-16503984D02*
X14177325Y-16542079D01*
X14472563Y-16780174D02*
X14463039Y-16770650D01*
X14463039Y-16770650D02*
X14443991Y-16742079D01*
X14443991Y-16742079D02*
X14434468Y-16723031D01*
X14434468Y-16723031D02*
X14424944Y-16694460D01*
X14424944Y-16694460D02*
X14415420Y-16646841D01*
X14415420Y-16646841D02*
X14415420Y-16608746D01*
X14415420Y-16608746D02*
X14424944Y-16561127D01*
X14424944Y-16561127D02*
X14434468Y-16532555D01*
X14434468Y-16532555D02*
X14443991Y-16513508D01*
X14443991Y-16513508D02*
X14463039Y-16484936D01*
X14463039Y-16484936D02*
X14472563Y-16475412D01*
X14577325Y-16589698D02*
X14558277Y-16580174D01*
X14558277Y-16580174D02*
X14548753Y-16570650D01*
X14548753Y-16570650D02*
X14539229Y-16551603D01*
X14539229Y-16551603D02*
X14539229Y-16542079D01*
X14539229Y-16542079D02*
X14548753Y-16523031D01*
X14548753Y-16523031D02*
X14558277Y-16513508D01*
X14558277Y-16513508D02*
X14577325Y-16503984D01*
X14577325Y-16503984D02*
X14615420Y-16503984D01*
X14615420Y-16503984D02*
X14634468Y-16513508D01*
X14634468Y-16513508D02*
X14643991Y-16523031D01*
X14643991Y-16523031D02*
X14653515Y-16542079D01*
X14653515Y-16542079D02*
X14653515Y-16551603D01*
X14653515Y-16551603D02*
X14643991Y-16570650D01*
X14643991Y-16570650D02*
X14634468Y-16580174D01*
X14634468Y-16580174D02*
X14615420Y-16589698D01*
X14615420Y-16589698D02*
X14577325Y-16589698D01*
X14577325Y-16589698D02*
X14558277Y-16599222D01*
X14558277Y-16599222D02*
X14548753Y-16608746D01*
X14548753Y-16608746D02*
X14539229Y-16627793D01*
X14539229Y-16627793D02*
X14539229Y-16665888D01*
X14539229Y-16665888D02*
X14548753Y-16684936D01*
X14548753Y-16684936D02*
X14558277Y-16694460D01*
X14558277Y-16694460D02*
X14577325Y-16703984D01*
X14577325Y-16703984D02*
X14615420Y-16703984D01*
X14615420Y-16703984D02*
X14634468Y-16694460D01*
X14634468Y-16694460D02*
X14643991Y-16684936D01*
X14643991Y-16684936D02*
X14653515Y-16665888D01*
X14653515Y-16665888D02*
X14653515Y-16627793D01*
X14653515Y-16627793D02*
X14643991Y-16608746D01*
X14643991Y-16608746D02*
X14634468Y-16599222D01*
X14634468Y-16599222D02*
X14615420Y-16589698D01*
X14891610Y-16703984D02*
X14891610Y-16503984D01*
X14977325Y-16703984D02*
X14977325Y-16599222D01*
X14977325Y-16599222D02*
X14967801Y-16580174D01*
X14967801Y-16580174D02*
X14948753Y-16570650D01*
X14948753Y-16570650D02*
X14920182Y-16570650D01*
X14920182Y-16570650D02*
X14901134Y-16580174D01*
X14901134Y-16580174D02*
X14891610Y-16589698D01*
X15101134Y-16703984D02*
X15082087Y-16694460D01*
X15082087Y-16694460D02*
X15072563Y-16684936D01*
X15072563Y-16684936D02*
X15063039Y-16665888D01*
X15063039Y-16665888D02*
X15063039Y-16608746D01*
X15063039Y-16608746D02*
X15072563Y-16589698D01*
X15072563Y-16589698D02*
X15082087Y-16580174D01*
X15082087Y-16580174D02*
X15101134Y-16570650D01*
X15101134Y-16570650D02*
X15129706Y-16570650D01*
X15129706Y-16570650D02*
X15148753Y-16580174D01*
X15148753Y-16580174D02*
X15158277Y-16589698D01*
X15158277Y-16589698D02*
X15167801Y-16608746D01*
X15167801Y-16608746D02*
X15167801Y-16665888D01*
X15167801Y-16665888D02*
X15158277Y-16684936D01*
X15158277Y-16684936D02*
X15148753Y-16694460D01*
X15148753Y-16694460D02*
X15129706Y-16703984D01*
X15129706Y-16703984D02*
X15101134Y-16703984D01*
X15282087Y-16703984D02*
X15263039Y-16694460D01*
X15263039Y-16694460D02*
X15253515Y-16675412D01*
X15253515Y-16675412D02*
X15253515Y-16503984D01*
X15434468Y-16694460D02*
X15415420Y-16703984D01*
X15415420Y-16703984D02*
X15377325Y-16703984D01*
X15377325Y-16703984D02*
X15358277Y-16694460D01*
X15358277Y-16694460D02*
X15348753Y-16675412D01*
X15348753Y-16675412D02*
X15348753Y-16599222D01*
X15348753Y-16599222D02*
X15358277Y-16580174D01*
X15358277Y-16580174D02*
X15377325Y-16570650D01*
X15377325Y-16570650D02*
X15415420Y-16570650D01*
X15415420Y-16570650D02*
X15434468Y-16580174D01*
X15434468Y-16580174D02*
X15443991Y-16599222D01*
X15443991Y-16599222D02*
X15443991Y-16618269D01*
X15443991Y-16618269D02*
X15348753Y-16637317D01*
X15520182Y-16694460D02*
X15539230Y-16703984D01*
X15539230Y-16703984D02*
X15577325Y-16703984D01*
X15577325Y-16703984D02*
X15596372Y-16694460D01*
X15596372Y-16694460D02*
X15605896Y-16675412D01*
X15605896Y-16675412D02*
X15605896Y-16665888D01*
X15605896Y-16665888D02*
X15596372Y-16646841D01*
X15596372Y-16646841D02*
X15577325Y-16637317D01*
X15577325Y-16637317D02*
X15548753Y-16637317D01*
X15548753Y-16637317D02*
X15529706Y-16627793D01*
X15529706Y-16627793D02*
X15520182Y-16608746D01*
X15520182Y-16608746D02*
X15520182Y-16599222D01*
X15520182Y-16599222D02*
X15529706Y-16580174D01*
X15529706Y-16580174D02*
X15548753Y-16570650D01*
X15548753Y-16570650D02*
X15577325Y-16570650D01*
X15577325Y-16570650D02*
X15596372Y-16580174D01*
X15672563Y-16780174D02*
X15682087Y-16770650D01*
X15682087Y-16770650D02*
X15701134Y-16742079D01*
X15701134Y-16742079D02*
X15710658Y-16723031D01*
X15710658Y-16723031D02*
X15720182Y-16694460D01*
X15720182Y-16694460D02*
X15729706Y-16646841D01*
X15729706Y-16646841D02*
X15729706Y-16608746D01*
X15729706Y-16608746D02*
X15720182Y-16561127D01*
X15720182Y-16561127D02*
X15710658Y-16532555D01*
X15710658Y-16532555D02*
X15701134Y-16513508D01*
X15701134Y-16513508D02*
X15682087Y-16484936D01*
X15682087Y-16484936D02*
X15672563Y-16475412D01*
D18*
X10754500Y-16805000D02*
X10897500Y-16948000D01*
X10897500Y-16805000D02*
X10754500Y-16948000D01*
X10826000Y-16805000D02*
X10826000Y-16948000D01*
X10754500Y-16876500D02*
X10897500Y-16876500D01*
D11*
X11263039Y-16967984D02*
X11148753Y-16967984D01*
X11205896Y-16967984D02*
X11205896Y-16767984D01*
X11205896Y-16767984D02*
X11186848Y-16796555D01*
X11186848Y-16796555D02*
X11167801Y-16815603D01*
X11167801Y-16815603D02*
X11148753Y-16825127D01*
X11348753Y-16948936D02*
X11358277Y-16958460D01*
X11358277Y-16958460D02*
X11348753Y-16967984D01*
X11348753Y-16967984D02*
X11339229Y-16958460D01*
X11339229Y-16958460D02*
X11348753Y-16948936D01*
X11348753Y-16948936D02*
X11348753Y-16967984D01*
X11529705Y-16834650D02*
X11529705Y-16967984D01*
X11482086Y-16758460D02*
X11434467Y-16901317D01*
X11434467Y-16901317D02*
X11558277Y-16901317D01*
X11615420Y-16767984D02*
X11739229Y-16767984D01*
X11739229Y-16767984D02*
X11672562Y-16844174D01*
X11672562Y-16844174D02*
X11701134Y-16844174D01*
X11701134Y-16844174D02*
X11720182Y-16853698D01*
X11720182Y-16853698D02*
X11729705Y-16863222D01*
X11729705Y-16863222D02*
X11739229Y-16882270D01*
X11739229Y-16882270D02*
X11739229Y-16929889D01*
X11739229Y-16929889D02*
X11729705Y-16948936D01*
X11729705Y-16948936D02*
X11720182Y-16958460D01*
X11720182Y-16958460D02*
X11701134Y-16967984D01*
X11701134Y-16967984D02*
X11643991Y-16967984D01*
X11643991Y-16967984D02*
X11624943Y-16958460D01*
X11624943Y-16958460D02*
X11615420Y-16948936D01*
X11863039Y-16767984D02*
X11882086Y-16767984D01*
X11882086Y-16767984D02*
X11901134Y-16777508D01*
X11901134Y-16777508D02*
X11910658Y-16787031D01*
X11910658Y-16787031D02*
X11920182Y-16806079D01*
X11920182Y-16806079D02*
X11929705Y-16844174D01*
X11929705Y-16844174D02*
X11929705Y-16891793D01*
X11929705Y-16891793D02*
X11920182Y-16929889D01*
X11920182Y-16929889D02*
X11910658Y-16948936D01*
X11910658Y-16948936D02*
X11901134Y-16958460D01*
X11901134Y-16958460D02*
X11882086Y-16967984D01*
X11882086Y-16967984D02*
X11863039Y-16967984D01*
X11863039Y-16967984D02*
X11843991Y-16958460D01*
X11843991Y-16958460D02*
X11834467Y-16948936D01*
X11834467Y-16948936D02*
X11824943Y-16929889D01*
X11824943Y-16929889D02*
X11815420Y-16891793D01*
X11815420Y-16891793D02*
X11815420Y-16844174D01*
X11815420Y-16844174D02*
X11824943Y-16806079D01*
X11824943Y-16806079D02*
X11834467Y-16787031D01*
X11834467Y-16787031D02*
X11843991Y-16777508D01*
X11843991Y-16777508D02*
X11863039Y-16767984D01*
X12015420Y-16967984D02*
X12015420Y-16834650D01*
X12015420Y-16853698D02*
X12024943Y-16844174D01*
X12024943Y-16844174D02*
X12043991Y-16834650D01*
X12043991Y-16834650D02*
X12072563Y-16834650D01*
X12072563Y-16834650D02*
X12091610Y-16844174D01*
X12091610Y-16844174D02*
X12101134Y-16863222D01*
X12101134Y-16863222D02*
X12101134Y-16967984D01*
X12101134Y-16863222D02*
X12110658Y-16844174D01*
X12110658Y-16844174D02*
X12129705Y-16834650D01*
X12129705Y-16834650D02*
X12158277Y-16834650D01*
X12158277Y-16834650D02*
X12177324Y-16844174D01*
X12177324Y-16844174D02*
X12186848Y-16863222D01*
X12186848Y-16863222D02*
X12186848Y-16967984D01*
X12282086Y-16967984D02*
X12282086Y-16834650D01*
X12282086Y-16853698D02*
X12291610Y-16844174D01*
X12291610Y-16844174D02*
X12310658Y-16834650D01*
X12310658Y-16834650D02*
X12339229Y-16834650D01*
X12339229Y-16834650D02*
X12358277Y-16844174D01*
X12358277Y-16844174D02*
X12367801Y-16863222D01*
X12367801Y-16863222D02*
X12367801Y-16967984D01*
X12367801Y-16863222D02*
X12377324Y-16844174D01*
X12377324Y-16844174D02*
X12396372Y-16834650D01*
X12396372Y-16834650D02*
X12424943Y-16834650D01*
X12424943Y-16834650D02*
X12443991Y-16844174D01*
X12443991Y-16844174D02*
X12453515Y-16863222D01*
X12453515Y-16863222D02*
X12453515Y-16967984D01*
X12843991Y-16758460D02*
X12672563Y-17015603D01*
X13101134Y-16767984D02*
X13120182Y-16767984D01*
X13120182Y-16767984D02*
X13139229Y-16777508D01*
X13139229Y-16777508D02*
X13148753Y-16787031D01*
X13148753Y-16787031D02*
X13158277Y-16806079D01*
X13158277Y-16806079D02*
X13167801Y-16844174D01*
X13167801Y-16844174D02*
X13167801Y-16891793D01*
X13167801Y-16891793D02*
X13158277Y-16929889D01*
X13158277Y-16929889D02*
X13148753Y-16948936D01*
X13148753Y-16948936D02*
X13139229Y-16958460D01*
X13139229Y-16958460D02*
X13120182Y-16967984D01*
X13120182Y-16967984D02*
X13101134Y-16967984D01*
X13101134Y-16967984D02*
X13082086Y-16958460D01*
X13082086Y-16958460D02*
X13072563Y-16948936D01*
X13072563Y-16948936D02*
X13063039Y-16929889D01*
X13063039Y-16929889D02*
X13053515Y-16891793D01*
X13053515Y-16891793D02*
X13053515Y-16844174D01*
X13053515Y-16844174D02*
X13063039Y-16806079D01*
X13063039Y-16806079D02*
X13072563Y-16787031D01*
X13072563Y-16787031D02*
X13082086Y-16777508D01*
X13082086Y-16777508D02*
X13101134Y-16767984D01*
X13253515Y-16948936D02*
X13263039Y-16958460D01*
X13263039Y-16958460D02*
X13253515Y-16967984D01*
X13253515Y-16967984D02*
X13243991Y-16958460D01*
X13243991Y-16958460D02*
X13253515Y-16948936D01*
X13253515Y-16948936D02*
X13253515Y-16967984D01*
X13386848Y-16767984D02*
X13405896Y-16767984D01*
X13405896Y-16767984D02*
X13424944Y-16777508D01*
X13424944Y-16777508D02*
X13434467Y-16787031D01*
X13434467Y-16787031D02*
X13443991Y-16806079D01*
X13443991Y-16806079D02*
X13453515Y-16844174D01*
X13453515Y-16844174D02*
X13453515Y-16891793D01*
X13453515Y-16891793D02*
X13443991Y-16929889D01*
X13443991Y-16929889D02*
X13434467Y-16948936D01*
X13434467Y-16948936D02*
X13424944Y-16958460D01*
X13424944Y-16958460D02*
X13405896Y-16967984D01*
X13405896Y-16967984D02*
X13386848Y-16967984D01*
X13386848Y-16967984D02*
X13367801Y-16958460D01*
X13367801Y-16958460D02*
X13358277Y-16948936D01*
X13358277Y-16948936D02*
X13348753Y-16929889D01*
X13348753Y-16929889D02*
X13339229Y-16891793D01*
X13339229Y-16891793D02*
X13339229Y-16844174D01*
X13339229Y-16844174D02*
X13348753Y-16806079D01*
X13348753Y-16806079D02*
X13358277Y-16787031D01*
X13358277Y-16787031D02*
X13367801Y-16777508D01*
X13367801Y-16777508D02*
X13386848Y-16767984D01*
X13634467Y-16767984D02*
X13539229Y-16767984D01*
X13539229Y-16767984D02*
X13529706Y-16863222D01*
X13529706Y-16863222D02*
X13539229Y-16853698D01*
X13539229Y-16853698D02*
X13558277Y-16844174D01*
X13558277Y-16844174D02*
X13605896Y-16844174D01*
X13605896Y-16844174D02*
X13624944Y-16853698D01*
X13624944Y-16853698D02*
X13634467Y-16863222D01*
X13634467Y-16863222D02*
X13643991Y-16882270D01*
X13643991Y-16882270D02*
X13643991Y-16929889D01*
X13643991Y-16929889D02*
X13634467Y-16948936D01*
X13634467Y-16948936D02*
X13624944Y-16958460D01*
X13624944Y-16958460D02*
X13605896Y-16967984D01*
X13605896Y-16967984D02*
X13558277Y-16967984D01*
X13558277Y-16967984D02*
X13539229Y-16958460D01*
X13539229Y-16958460D02*
X13529706Y-16948936D01*
X13815420Y-16767984D02*
X13777325Y-16767984D01*
X13777325Y-16767984D02*
X13758277Y-16777508D01*
X13758277Y-16777508D02*
X13748753Y-16787031D01*
X13748753Y-16787031D02*
X13729706Y-16815603D01*
X13729706Y-16815603D02*
X13720182Y-16853698D01*
X13720182Y-16853698D02*
X13720182Y-16929889D01*
X13720182Y-16929889D02*
X13729706Y-16948936D01*
X13729706Y-16948936D02*
X13739229Y-16958460D01*
X13739229Y-16958460D02*
X13758277Y-16967984D01*
X13758277Y-16967984D02*
X13796372Y-16967984D01*
X13796372Y-16967984D02*
X13815420Y-16958460D01*
X13815420Y-16958460D02*
X13824944Y-16948936D01*
X13824944Y-16948936D02*
X13834467Y-16929889D01*
X13834467Y-16929889D02*
X13834467Y-16882270D01*
X13834467Y-16882270D02*
X13824944Y-16863222D01*
X13824944Y-16863222D02*
X13815420Y-16853698D01*
X13815420Y-16853698D02*
X13796372Y-16844174D01*
X13796372Y-16844174D02*
X13758277Y-16844174D01*
X13758277Y-16844174D02*
X13739229Y-16853698D01*
X13739229Y-16853698D02*
X13729706Y-16863222D01*
X13729706Y-16863222D02*
X13720182Y-16882270D01*
X13901134Y-16767984D02*
X14024944Y-16767984D01*
X14024944Y-16767984D02*
X13958277Y-16844174D01*
X13958277Y-16844174D02*
X13986848Y-16844174D01*
X13986848Y-16844174D02*
X14005896Y-16853698D01*
X14005896Y-16853698D02*
X14015420Y-16863222D01*
X14015420Y-16863222D02*
X14024944Y-16882270D01*
X14024944Y-16882270D02*
X14024944Y-16929889D01*
X14024944Y-16929889D02*
X14015420Y-16948936D01*
X14015420Y-16948936D02*
X14005896Y-16958460D01*
X14005896Y-16958460D02*
X13986848Y-16967984D01*
X13986848Y-16967984D02*
X13929706Y-16967984D01*
X13929706Y-16967984D02*
X13910658Y-16958460D01*
X13910658Y-16958460D02*
X13901134Y-16948936D01*
X14101134Y-16767984D02*
X14101134Y-16806079D01*
X14177325Y-16767984D02*
X14177325Y-16806079D01*
X14472563Y-17044174D02*
X14463039Y-17034650D01*
X14463039Y-17034650D02*
X14443991Y-17006079D01*
X14443991Y-17006079D02*
X14434468Y-16987031D01*
X14434468Y-16987031D02*
X14424944Y-16958460D01*
X14424944Y-16958460D02*
X14415420Y-16910841D01*
X14415420Y-16910841D02*
X14415420Y-16872746D01*
X14415420Y-16872746D02*
X14424944Y-16825127D01*
X14424944Y-16825127D02*
X14434468Y-16796555D01*
X14434468Y-16796555D02*
X14443991Y-16777508D01*
X14443991Y-16777508D02*
X14463039Y-16748936D01*
X14463039Y-16748936D02*
X14472563Y-16739412D01*
X14577325Y-16853698D02*
X14558277Y-16844174D01*
X14558277Y-16844174D02*
X14548753Y-16834650D01*
X14548753Y-16834650D02*
X14539229Y-16815603D01*
X14539229Y-16815603D02*
X14539229Y-16806079D01*
X14539229Y-16806079D02*
X14548753Y-16787031D01*
X14548753Y-16787031D02*
X14558277Y-16777508D01*
X14558277Y-16777508D02*
X14577325Y-16767984D01*
X14577325Y-16767984D02*
X14615420Y-16767984D01*
X14615420Y-16767984D02*
X14634468Y-16777508D01*
X14634468Y-16777508D02*
X14643991Y-16787031D01*
X14643991Y-16787031D02*
X14653515Y-16806079D01*
X14653515Y-16806079D02*
X14653515Y-16815603D01*
X14653515Y-16815603D02*
X14643991Y-16834650D01*
X14643991Y-16834650D02*
X14634468Y-16844174D01*
X14634468Y-16844174D02*
X14615420Y-16853698D01*
X14615420Y-16853698D02*
X14577325Y-16853698D01*
X14577325Y-16853698D02*
X14558277Y-16863222D01*
X14558277Y-16863222D02*
X14548753Y-16872746D01*
X14548753Y-16872746D02*
X14539229Y-16891793D01*
X14539229Y-16891793D02*
X14539229Y-16929889D01*
X14539229Y-16929889D02*
X14548753Y-16948936D01*
X14548753Y-16948936D02*
X14558277Y-16958460D01*
X14558277Y-16958460D02*
X14577325Y-16967984D01*
X14577325Y-16967984D02*
X14615420Y-16967984D01*
X14615420Y-16967984D02*
X14634468Y-16958460D01*
X14634468Y-16958460D02*
X14643991Y-16948936D01*
X14643991Y-16948936D02*
X14653515Y-16929889D01*
X14653515Y-16929889D02*
X14653515Y-16891793D01*
X14653515Y-16891793D02*
X14643991Y-16872746D01*
X14643991Y-16872746D02*
X14634468Y-16863222D01*
X14634468Y-16863222D02*
X14615420Y-16853698D01*
X14891610Y-16967984D02*
X14891610Y-16767984D01*
X14977325Y-16967984D02*
X14977325Y-16863222D01*
X14977325Y-16863222D02*
X14967801Y-16844174D01*
X14967801Y-16844174D02*
X14948753Y-16834650D01*
X14948753Y-16834650D02*
X14920182Y-16834650D01*
X14920182Y-16834650D02*
X14901134Y-16844174D01*
X14901134Y-16844174D02*
X14891610Y-16853698D01*
X15101134Y-16967984D02*
X15082087Y-16958460D01*
X15082087Y-16958460D02*
X15072563Y-16948936D01*
X15072563Y-16948936D02*
X15063039Y-16929889D01*
X15063039Y-16929889D02*
X15063039Y-16872746D01*
X15063039Y-16872746D02*
X15072563Y-16853698D01*
X15072563Y-16853698D02*
X15082087Y-16844174D01*
X15082087Y-16844174D02*
X15101134Y-16834650D01*
X15101134Y-16834650D02*
X15129706Y-16834650D01*
X15129706Y-16834650D02*
X15148753Y-16844174D01*
X15148753Y-16844174D02*
X15158277Y-16853698D01*
X15158277Y-16853698D02*
X15167801Y-16872746D01*
X15167801Y-16872746D02*
X15167801Y-16929889D01*
X15167801Y-16929889D02*
X15158277Y-16948936D01*
X15158277Y-16948936D02*
X15148753Y-16958460D01*
X15148753Y-16958460D02*
X15129706Y-16967984D01*
X15129706Y-16967984D02*
X15101134Y-16967984D01*
X15282087Y-16967984D02*
X15263039Y-16958460D01*
X15263039Y-16958460D02*
X15253515Y-16939412D01*
X15253515Y-16939412D02*
X15253515Y-16767984D01*
X15434468Y-16958460D02*
X15415420Y-16967984D01*
X15415420Y-16967984D02*
X15377325Y-16967984D01*
X15377325Y-16967984D02*
X15358277Y-16958460D01*
X15358277Y-16958460D02*
X15348753Y-16939412D01*
X15348753Y-16939412D02*
X15348753Y-16863222D01*
X15348753Y-16863222D02*
X15358277Y-16844174D01*
X15358277Y-16844174D02*
X15377325Y-16834650D01*
X15377325Y-16834650D02*
X15415420Y-16834650D01*
X15415420Y-16834650D02*
X15434468Y-16844174D01*
X15434468Y-16844174D02*
X15443991Y-16863222D01*
X15443991Y-16863222D02*
X15443991Y-16882270D01*
X15443991Y-16882270D02*
X15348753Y-16901317D01*
X15520182Y-16958460D02*
X15539230Y-16967984D01*
X15539230Y-16967984D02*
X15577325Y-16967984D01*
X15577325Y-16967984D02*
X15596372Y-16958460D01*
X15596372Y-16958460D02*
X15605896Y-16939412D01*
X15605896Y-16939412D02*
X15605896Y-16929889D01*
X15605896Y-16929889D02*
X15596372Y-16910841D01*
X15596372Y-16910841D02*
X15577325Y-16901317D01*
X15577325Y-16901317D02*
X15548753Y-16901317D01*
X15548753Y-16901317D02*
X15529706Y-16891793D01*
X15529706Y-16891793D02*
X15520182Y-16872746D01*
X15520182Y-16872746D02*
X15520182Y-16863222D01*
X15520182Y-16863222D02*
X15529706Y-16844174D01*
X15529706Y-16844174D02*
X15548753Y-16834650D01*
X15548753Y-16834650D02*
X15577325Y-16834650D01*
X15577325Y-16834650D02*
X15596372Y-16844174D01*
X15672563Y-17044174D02*
X15682087Y-17034650D01*
X15682087Y-17034650D02*
X15701134Y-17006079D01*
X15701134Y-17006079D02*
X15710658Y-16987031D01*
X15710658Y-16987031D02*
X15720182Y-16958460D01*
X15720182Y-16958460D02*
X15729706Y-16910841D01*
X15729706Y-16910841D02*
X15729706Y-16872746D01*
X15729706Y-16872746D02*
X15720182Y-16825127D01*
X15720182Y-16825127D02*
X15710658Y-16796555D01*
X15710658Y-16796555D02*
X15701134Y-16777508D01*
X15701134Y-16777508D02*
X15682087Y-16748936D01*
X15682087Y-16748936D02*
X15672563Y-16739412D01*
M02*
