G04 #@! TF.GenerationSoftware,KiCad,Pcbnew,7.0.7-7.0.7~ubuntu22.04.1*
G04 #@! TF.CreationDate,2023-12-10T22:01:40+01:00*
G04 #@! TF.ProjectId,CD40106_VCO,43443430-3130-4365-9f56-434f2e6b6963,rev?*
G04 #@! TF.SameCoordinates,Original*
G04 #@! TF.FileFunction,Soldermask,Top*
G04 #@! TF.FilePolarity,Negative*
%FSLAX46Y46*%
G04 Gerber Fmt 4.6, Leading zero omitted, Abs format (unit mm)*
G04 Created by KiCad (PCBNEW 7.0.7-7.0.7~ubuntu22.04.1) date 2023-12-10 22:01:40*
%MOMM*%
%LPD*%
G01*
G04 APERTURE LIST*
%ADD10R,1.930000X1.830000*%
%ADD11C,2.130000*%
%ADD12C,4.000000*%
%ADD13C,1.800000*%
%ADD14C,3.200000*%
%ADD15C,1.600000*%
%ADD16R,1.600000X1.600000*%
%ADD17O,1.600000X1.600000*%
%ADD18R,1.700000X1.700000*%
%ADD19O,1.700000X1.700000*%
%ADD20C,0.800000*%
%ADD21C,0.600000*%
G04 APERTURE END LIST*
D10*
X127500000Y-133250000D03*
D11*
X127500000Y-144650000D03*
X127500000Y-136350000D03*
D12*
X141700000Y-101750000D03*
X150500000Y-101750000D03*
D13*
X143600000Y-108750000D03*
X146100000Y-108750000D03*
X148600000Y-108750000D03*
D14*
X134000000Y-112400000D03*
D15*
X116500000Y-91250000D03*
X121500000Y-91250000D03*
D12*
X141700000Y-81300000D03*
X150500000Y-81300000D03*
D13*
X143600000Y-88300000D03*
X146100000Y-88300000D03*
X148600000Y-88300000D03*
D10*
X153500000Y-133250000D03*
D11*
X153500000Y-144650000D03*
X153500000Y-136350000D03*
D15*
X130000000Y-99250000D03*
X135000000Y-99250000D03*
X133000000Y-85250000D03*
X138000000Y-85250000D03*
D12*
X117500000Y-81300000D03*
X126300000Y-81300000D03*
D13*
X119400000Y-88300000D03*
X121900000Y-88300000D03*
X124400000Y-88300000D03*
D16*
X137800000Y-96050000D03*
D17*
X137800000Y-93510000D03*
X137800000Y-90970000D03*
X137800000Y-88430000D03*
X130180000Y-88430000D03*
X130180000Y-90970000D03*
X130180000Y-93510000D03*
X130180000Y-96050000D03*
D12*
X117500000Y-101750000D03*
X126300000Y-101750000D03*
D13*
X119400000Y-108750000D03*
X121900000Y-108750000D03*
X124400000Y-108750000D03*
D10*
X140500000Y-118500000D03*
D11*
X140500000Y-129900000D03*
X140500000Y-121600000D03*
D10*
X127500000Y-118500000D03*
D11*
X127500000Y-129900000D03*
X127500000Y-121600000D03*
D10*
X140500000Y-133250000D03*
D11*
X140500000Y-144650000D03*
X140500000Y-136350000D03*
D10*
X114500000Y-133250000D03*
D11*
X114500000Y-144650000D03*
X114500000Y-136350000D03*
D10*
X153500000Y-118500000D03*
D11*
X153500000Y-129900000D03*
X153500000Y-121600000D03*
D10*
X114500000Y-118500000D03*
D11*
X114500000Y-129900000D03*
X114500000Y-121600000D03*
D16*
X157250000Y-107630000D03*
D17*
X157250000Y-115250000D03*
D18*
X157250000Y-76750000D03*
D19*
X157250000Y-79290000D03*
X157250000Y-81830000D03*
X157250000Y-84370000D03*
X157250000Y-86910000D03*
X157250000Y-89450000D03*
X157250000Y-91990000D03*
X157250000Y-94530000D03*
D18*
X110750000Y-76750000D03*
D19*
X110750000Y-79290000D03*
X110750000Y-81830000D03*
X110750000Y-84370000D03*
X110750000Y-86910000D03*
X110750000Y-89450000D03*
X110750000Y-91990000D03*
X110750000Y-94530000D03*
D20*
X139400000Y-113800000D03*
D21*
X148600000Y-93600000D03*
D20*
X124800000Y-113400000D03*
X134800000Y-139800000D03*
X123800000Y-113400000D03*
X124800000Y-112500000D03*
X123800000Y-112500000D03*
X155900000Y-119200000D03*
D21*
X149700000Y-123000000D03*
D20*
X134000000Y-140200000D03*
X150200000Y-114300000D03*
X157500000Y-101100000D03*
X155900000Y-118300000D03*
X157500000Y-100000000D03*
X140300000Y-113800000D03*
D21*
X147900000Y-93600000D03*
X149700000Y-123700000D03*
D20*
X140300000Y-112900000D03*
X149600000Y-115200000D03*
X134000000Y-139300000D03*
D21*
X149700000Y-122300000D03*
D20*
X139400000Y-112900000D03*
D21*
X147900000Y-92900000D03*
X148600000Y-92900000D03*
D20*
X133200000Y-139800000D03*
X143900000Y-142700000D03*
X114700000Y-82300000D03*
X115700000Y-84300000D03*
M02*
