G04 #@! TF.GenerationSoftware,KiCad,Pcbnew,9.0.4-9.0.4-0~ubuntu22.04.1*
G04 #@! TF.CreationDate,2025-10-19T11:48:27+01:00*
G04 #@! TF.ProjectId,CD40106_VCO,43443430-3130-4365-9f56-434f2e6b6963,rev?*
G04 #@! TF.SameCoordinates,Original*
G04 #@! TF.FileFunction,Copper,L2,Bot*
G04 #@! TF.FilePolarity,Positive*
%FSLAX46Y46*%
G04 Gerber Fmt 4.6, Leading zero omitted, Abs format (unit mm)*
G04 Created by KiCad (PCBNEW 9.0.4-9.0.4-0~ubuntu22.04.1) date 2025-10-19 11:48:27*
%MOMM*%
%LPD*%
G01*
G04 APERTURE LIST*
G04 #@! TA.AperFunction,ComponentPad*
%ADD10R,1.930000X1.830000*%
G04 #@! TD*
G04 #@! TA.AperFunction,ComponentPad*
%ADD11C,2.130000*%
G04 #@! TD*
G04 #@! TA.AperFunction,WasherPad*
%ADD12C,4.000000*%
G04 #@! TD*
G04 #@! TA.AperFunction,ComponentPad*
%ADD13C,1.800000*%
G04 #@! TD*
G04 #@! TA.AperFunction,ComponentPad*
%ADD14C,1.600000*%
G04 #@! TD*
G04 #@! TA.AperFunction,ComponentPad*
%ADD15R,1.600000X1.600000*%
G04 #@! TD*
G04 #@! TA.AperFunction,ComponentPad*
%ADD16O,1.600000X1.600000*%
G04 #@! TD*
G04 #@! TA.AperFunction,ComponentPad*
%ADD17R,1.700000X1.700000*%
G04 #@! TD*
G04 #@! TA.AperFunction,ComponentPad*
%ADD18O,1.700000X1.700000*%
G04 #@! TD*
G04 #@! TA.AperFunction,ViaPad*
%ADD19C,0.800000*%
G04 #@! TD*
G04 #@! TA.AperFunction,Conductor*
%ADD20C,0.300000*%
G04 #@! TD*
G04 APERTURE END LIST*
D10*
X127500000Y-133250000D03*
D11*
X127500000Y-144650000D03*
X127500000Y-136350000D03*
D12*
X141700000Y-101750000D03*
X150500000Y-101750000D03*
D13*
X143600000Y-108750000D03*
X146100000Y-108750000D03*
X148600000Y-108750000D03*
D14*
X116500000Y-91250000D03*
X121500000Y-91250000D03*
D12*
X141700000Y-81300000D03*
X150500000Y-81300000D03*
D13*
X143600000Y-88300000D03*
X146100000Y-88300000D03*
X148600000Y-88300000D03*
D10*
X153500000Y-133250000D03*
D11*
X153500000Y-144650000D03*
X153500000Y-136350000D03*
D14*
X130000000Y-99250000D03*
X135000000Y-99250000D03*
X133000000Y-85250000D03*
X138000000Y-85250000D03*
D12*
X117500000Y-81300000D03*
X126300000Y-81300000D03*
D13*
X119400000Y-88300000D03*
X121900000Y-88300000D03*
X124400000Y-88300000D03*
D15*
X137800000Y-96050000D03*
D16*
X137800000Y-93510000D03*
X137800000Y-90970000D03*
X137800000Y-88430000D03*
X130180000Y-88430000D03*
X130180000Y-90970000D03*
X130180000Y-93510000D03*
X130180000Y-96050000D03*
D14*
X157200000Y-113100000D03*
X157200000Y-108100000D03*
X142020000Y-112800000D03*
X152180000Y-112800000D03*
D12*
X117500000Y-101750000D03*
X126300000Y-101750000D03*
D13*
X119400000Y-108750000D03*
X121900000Y-108750000D03*
X124400000Y-108750000D03*
D10*
X140500000Y-118500000D03*
D11*
X140500000Y-129900000D03*
X140500000Y-121600000D03*
D10*
X127500000Y-118500000D03*
D11*
X127500000Y-129900000D03*
X127500000Y-121600000D03*
D10*
X140500000Y-133250000D03*
D11*
X140500000Y-144650000D03*
X140500000Y-136350000D03*
D10*
X114500000Y-133250000D03*
D11*
X114500000Y-144650000D03*
X114500000Y-136350000D03*
D10*
X153500000Y-118500000D03*
D11*
X153500000Y-129900000D03*
X153500000Y-121600000D03*
D10*
X114500000Y-118500000D03*
D11*
X114500000Y-129900000D03*
X114500000Y-121600000D03*
D17*
X157250000Y-76750000D03*
D18*
X157250000Y-79290000D03*
X157250000Y-81830000D03*
X157250000Y-84370000D03*
X157250000Y-86910000D03*
X157250000Y-89450000D03*
X157250000Y-91990000D03*
X157250000Y-94530000D03*
D17*
X110750000Y-76750000D03*
D18*
X110750000Y-79290000D03*
X110750000Y-81830000D03*
X110750000Y-84370000D03*
X110750000Y-86910000D03*
X110750000Y-89450000D03*
X110750000Y-91990000D03*
X110750000Y-94530000D03*
D19*
X139400000Y-113800000D03*
X149700000Y-126900000D03*
X149700000Y-127800000D03*
X124800000Y-113400000D03*
X149700000Y-125100000D03*
X134800000Y-139800000D03*
X149800000Y-140000000D03*
X123800000Y-113400000D03*
X124800000Y-112500000D03*
X123800000Y-112500000D03*
X155900000Y-119200000D03*
X149700000Y-126000000D03*
X134000000Y-140200000D03*
X150200000Y-114300000D03*
X157500000Y-101100000D03*
X155900000Y-118300000D03*
X157500000Y-100000000D03*
X140300000Y-113800000D03*
X140300000Y-112900000D03*
X149700000Y-128700000D03*
X149600000Y-115200000D03*
X149800000Y-141000000D03*
X149800000Y-139100000D03*
X134000000Y-139300000D03*
X139400000Y-112900000D03*
X133200000Y-139800000D03*
X143900000Y-142700000D03*
X114700000Y-82300000D03*
X115700000Y-84300000D03*
D20*
X114810000Y-96050000D02*
X130180000Y-96050000D01*
X110750000Y-91990000D02*
X114810000Y-96050000D01*
X114020000Y-97800000D02*
X110750000Y-94530000D01*
X143600000Y-92550000D02*
X138350000Y-97800000D01*
X138350000Y-97800000D02*
X114020000Y-97800000D01*
X143600000Y-88300000D02*
X143600000Y-92550000D01*
X157250000Y-89450000D02*
X154600000Y-92100000D01*
X154600000Y-113200000D02*
X147700000Y-120100000D01*
X154600000Y-92100000D02*
X154600000Y-113200000D01*
X147700000Y-120100000D02*
X147700000Y-138900000D01*
X147700000Y-138900000D02*
X143900000Y-142700000D01*
X114230000Y-81830000D02*
X110750000Y-81830000D01*
X114700000Y-82300000D02*
X114230000Y-81830000D01*
X116710000Y-93510000D02*
X110750000Y-87550000D01*
X130180000Y-93510000D02*
X116710000Y-93510000D01*
X110750000Y-87550000D02*
X110750000Y-86910000D01*
X130180000Y-93510000D02*
X130180000Y-90970000D01*
X115630000Y-84370000D02*
X115700000Y-84300000D01*
X110750000Y-84370000D02*
X115630000Y-84370000D01*
X157250000Y-81830000D02*
X153800000Y-85280000D01*
X153800000Y-85280000D02*
X153800000Y-111180000D01*
X153800000Y-111180000D02*
X152180000Y-112800000D01*
X138350000Y-94800000D02*
X116100000Y-94800000D01*
X139100000Y-94050000D02*
X138350000Y-94800000D01*
X137800000Y-90970000D02*
X139100000Y-92270000D01*
X116100000Y-94800000D02*
X110750000Y-89450000D01*
X139100000Y-92270000D02*
X139100000Y-94050000D01*
X120920000Y-89820000D02*
X134110000Y-89820000D01*
X134110000Y-89820000D02*
X137800000Y-93510000D01*
X119400000Y-88300000D02*
X120920000Y-89820000D01*
X146900000Y-119400000D02*
X142020000Y-114520000D01*
X142020000Y-114520000D02*
X142020000Y-112800000D01*
X146900000Y-138250000D02*
X140500000Y-144650000D01*
X146900000Y-119400000D02*
X146900000Y-138250000D01*
G04 #@! TA.AperFunction,Conductor*
G36*
X158441621Y-73770502D02*
G01*
X158488114Y-73824158D01*
X158499500Y-73876500D01*
X158499500Y-75325346D01*
X158479498Y-75393467D01*
X158425842Y-75439960D01*
X158355568Y-75450064D01*
X158329468Y-75443402D01*
X158209094Y-75398505D01*
X158148597Y-75392000D01*
X157504000Y-75392000D01*
X157504000Y-76319297D01*
X157442993Y-76284075D01*
X157315826Y-76250000D01*
X157184174Y-76250000D01*
X157057007Y-76284075D01*
X156996000Y-76319297D01*
X156996000Y-75392000D01*
X156351402Y-75392000D01*
X156290906Y-75398505D01*
X156154035Y-75449555D01*
X156154034Y-75449555D01*
X156037095Y-75537095D01*
X155949555Y-75654034D01*
X155949555Y-75654035D01*
X155898505Y-75790906D01*
X155892000Y-75851402D01*
X155892000Y-76496000D01*
X156819297Y-76496000D01*
X156784075Y-76557007D01*
X156750000Y-76684174D01*
X156750000Y-76815826D01*
X156784075Y-76942993D01*
X156819297Y-77004000D01*
X155892000Y-77004000D01*
X155892000Y-77648597D01*
X155898505Y-77709093D01*
X155949555Y-77845964D01*
X155949555Y-77845965D01*
X156037095Y-77962904D01*
X156154034Y-78050444D01*
X156272096Y-78094478D01*
X156328932Y-78137024D01*
X156353743Y-78203545D01*
X156338652Y-78272919D01*
X156317160Y-78301629D01*
X156213794Y-78404995D01*
X156088108Y-78577987D01*
X155991029Y-78768515D01*
X155991026Y-78768521D01*
X155924952Y-78971878D01*
X155924951Y-78971883D01*
X155924951Y-78971884D01*
X155891500Y-79183084D01*
X155891500Y-79396916D01*
X155924951Y-79608116D01*
X155924952Y-79608121D01*
X155930708Y-79625836D01*
X155991028Y-79811483D01*
X156088106Y-80002009D01*
X156213794Y-80175004D01*
X156213796Y-80175006D01*
X156213798Y-80175009D01*
X156364990Y-80326201D01*
X156364993Y-80326203D01*
X156364996Y-80326206D01*
X156537991Y-80451894D01*
X156537996Y-80451896D01*
X156539088Y-80452566D01*
X156539418Y-80452931D01*
X156541996Y-80454804D01*
X156541602Y-80455345D01*
X156586721Y-80505213D01*
X156598328Y-80575255D01*
X156570226Y-80640453D01*
X156541870Y-80665023D01*
X156541996Y-80665196D01*
X156539982Y-80666658D01*
X156539088Y-80667434D01*
X156537987Y-80668108D01*
X156364993Y-80793796D01*
X156364990Y-80793798D01*
X156213798Y-80944990D01*
X156213796Y-80944993D01*
X156088108Y-81117987D01*
X155991029Y-81308515D01*
X155991026Y-81308521D01*
X155924952Y-81511878D01*
X155924951Y-81511883D01*
X155924951Y-81511884D01*
X155891500Y-81723084D01*
X155891500Y-81936916D01*
X155924951Y-82148116D01*
X155924952Y-82148120D01*
X155925255Y-82150031D01*
X155916155Y-82220442D01*
X155889901Y-82258837D01*
X153288511Y-84860228D01*
X153288506Y-84860235D01*
X153232808Y-84943591D01*
X153232809Y-84943592D01*
X153216446Y-84968081D01*
X153166807Y-85087919D01*
X153166806Y-85087922D01*
X153141500Y-85215139D01*
X153141500Y-100962295D01*
X153121498Y-101030416D01*
X153067842Y-101076909D01*
X152997568Y-101087013D01*
X152932988Y-101057519D01*
X152896571Y-101003910D01*
X152821210Y-100788543D01*
X152821209Y-100788542D01*
X152821204Y-100788526D01*
X152698958Y-100534679D01*
X152698957Y-100534678D01*
X152698956Y-100534675D01*
X152549057Y-100296114D01*
X152373395Y-100075839D01*
X152174160Y-99876604D01*
X151953885Y-99700942D01*
X151715324Y-99551043D01*
X151461483Y-99428800D01*
X151461478Y-99428798D01*
X151461474Y-99428796D01*
X151461468Y-99428793D01*
X151461456Y-99428789D01*
X151195542Y-99335741D01*
X150920854Y-99273045D01*
X150920857Y-99273045D01*
X150640876Y-99241500D01*
X150640874Y-99241500D01*
X150359126Y-99241500D01*
X150359124Y-99241500D01*
X150079144Y-99273045D01*
X149804457Y-99335741D01*
X149538543Y-99428789D01*
X149538516Y-99428800D01*
X149284675Y-99551043D01*
X149046114Y-99700942D01*
X148825839Y-99876604D01*
X148626604Y-100075839D01*
X148450942Y-100296114D01*
X148301043Y-100534675D01*
X148178800Y-100788516D01*
X148178789Y-100788543D01*
X148085741Y-101054457D01*
X148023045Y-101329144D01*
X147991500Y-101609124D01*
X147991500Y-101890875D01*
X148023045Y-102170855D01*
X148085741Y-102445542D01*
X148178789Y-102711456D01*
X148178800Y-102711483D01*
X148301043Y-102965324D01*
X148450942Y-103203885D01*
X148626604Y-103424160D01*
X148825839Y-103623395D01*
X149046114Y-103799057D01*
X149284675Y-103948956D01*
X149284678Y-103948957D01*
X149284679Y-103948958D01*
X149538526Y-104071204D01*
X149538542Y-104071209D01*
X149538543Y-104071210D01*
X149804457Y-104164258D01*
X149804460Y-104164258D01*
X149804464Y-104164260D01*
X150079144Y-104226954D01*
X150079145Y-104226954D01*
X150079148Y-104226955D01*
X150244271Y-104245559D01*
X150359124Y-104258500D01*
X150359126Y-104258500D01*
X150640876Y-104258500D01*
X150711977Y-104250488D01*
X150920852Y-104226955D01*
X151195536Y-104164260D01*
X151461474Y-104071204D01*
X151715321Y-103948958D01*
X151953884Y-103799058D01*
X151997940Y-103763924D01*
X152174160Y-103623395D01*
X152373395Y-103424160D01*
X152549057Y-103203885D01*
X152698956Y-102965324D01*
X152698955Y-102965324D01*
X152698958Y-102965321D01*
X152821204Y-102711474D01*
X152896571Y-102496089D01*
X152937949Y-102438397D01*
X153003949Y-102412235D01*
X153073617Y-102425908D01*
X153124833Y-102475075D01*
X153141500Y-102537704D01*
X153141500Y-110855048D01*
X153121498Y-110923169D01*
X153104595Y-110944144D01*
X152565135Y-111483603D01*
X152502823Y-111517628D01*
X152456329Y-111518955D01*
X152282981Y-111491500D01*
X152077019Y-111491500D01*
X151873592Y-111523720D01*
X151873590Y-111523720D01*
X151873587Y-111523721D01*
X151677714Y-111587364D01*
X151677708Y-111587367D01*
X151494193Y-111680873D01*
X151327567Y-111801934D01*
X151327564Y-111801936D01*
X151181936Y-111947564D01*
X151181934Y-111947567D01*
X151060873Y-112114193D01*
X150967367Y-112297708D01*
X150967364Y-112297714D01*
X150903721Y-112493587D01*
X150903720Y-112493590D01*
X150903720Y-112493592D01*
X150871500Y-112697019D01*
X150871500Y-112902981D01*
X150886395Y-112997022D01*
X150903721Y-113106412D01*
X150955204Y-113264861D01*
X150967366Y-113302290D01*
X151060871Y-113485803D01*
X151181932Y-113652430D01*
X151181934Y-113652432D01*
X151181936Y-113652435D01*
X151327564Y-113798063D01*
X151327567Y-113798065D01*
X151327570Y-113798068D01*
X151494197Y-113919129D01*
X151677710Y-114012634D01*
X151873592Y-114076280D01*
X152077019Y-114108500D01*
X152077022Y-114108500D01*
X152282978Y-114108500D01*
X152282981Y-114108500D01*
X152467046Y-114079346D01*
X152537454Y-114088445D01*
X152591768Y-114134167D01*
X152612741Y-114201995D01*
X152593714Y-114270395D01*
X152575849Y-114292890D01*
X147703914Y-119164824D01*
X147641602Y-119198850D01*
X147570787Y-119193785D01*
X147513951Y-119151238D01*
X147498410Y-119123947D01*
X147492633Y-119110000D01*
X147483555Y-119088083D01*
X147411491Y-118980231D01*
X142715405Y-114284145D01*
X142700460Y-114256776D01*
X142683604Y-114230548D01*
X142682698Y-114224249D01*
X142681379Y-114221833D01*
X142678500Y-114195050D01*
X142678500Y-114003165D01*
X142698502Y-113935044D01*
X142730436Y-113901232D01*
X142872430Y-113798068D01*
X143018068Y-113652430D01*
X143139129Y-113485803D01*
X143232634Y-113302290D01*
X143296280Y-113106408D01*
X143328500Y-112902981D01*
X143328500Y-112697019D01*
X143296280Y-112493592D01*
X143232634Y-112297710D01*
X143139129Y-112114197D01*
X143018068Y-111947570D01*
X143018065Y-111947567D01*
X143018063Y-111947564D01*
X142872435Y-111801936D01*
X142872432Y-111801934D01*
X142872430Y-111801932D01*
X142705803Y-111680871D01*
X142522290Y-111587366D01*
X142522287Y-111587365D01*
X142522285Y-111587364D01*
X142326412Y-111523721D01*
X142326410Y-111523720D01*
X142326408Y-111523720D01*
X142122981Y-111491500D01*
X141917019Y-111491500D01*
X141713592Y-111523720D01*
X141713590Y-111523720D01*
X141713587Y-111523721D01*
X141517714Y-111587364D01*
X141517708Y-111587367D01*
X141334193Y-111680873D01*
X141167567Y-111801934D01*
X141167564Y-111801936D01*
X141021936Y-111947564D01*
X141021934Y-111947567D01*
X140900873Y-112114193D01*
X140807367Y-112297708D01*
X140807364Y-112297714D01*
X140743721Y-112493587D01*
X140743720Y-112493590D01*
X140743720Y-112493592D01*
X140711500Y-112697019D01*
X140711500Y-112902981D01*
X140726395Y-112997022D01*
X140743721Y-113106412D01*
X140795204Y-113264861D01*
X140807366Y-113302290D01*
X140900871Y-113485803D01*
X141021932Y-113652430D01*
X141021934Y-113652432D01*
X141021936Y-113652435D01*
X141167564Y-113798063D01*
X141167567Y-113798065D01*
X141167570Y-113798068D01*
X141309562Y-113901230D01*
X141352915Y-113957451D01*
X141361500Y-114003165D01*
X141361500Y-114584860D01*
X141386806Y-114712077D01*
X141436445Y-114831917D01*
X141508509Y-114939769D01*
X141508513Y-114939773D01*
X146204595Y-119635855D01*
X146238621Y-119698167D01*
X146241500Y-119724950D01*
X146241500Y-137925049D01*
X146221498Y-137993170D01*
X146204595Y-138014144D01*
X141100454Y-143118284D01*
X141038142Y-143152310D01*
X140972424Y-143149022D01*
X140868470Y-143115246D01*
X140868467Y-143115245D01*
X140868463Y-143115244D01*
X140868462Y-143115244D01*
X140623837Y-143076500D01*
X140376163Y-143076500D01*
X140131538Y-143115244D01*
X140131536Y-143115244D01*
X140131533Y-143115245D01*
X139895988Y-143191778D01*
X139675302Y-143304224D01*
X139474930Y-143449803D01*
X139474927Y-143449805D01*
X139299805Y-143624927D01*
X139299803Y-143624930D01*
X139154224Y-143825302D01*
X139041778Y-144045988D01*
X138965245Y-144281533D01*
X138926500Y-144526165D01*
X138926500Y-144773834D01*
X138965245Y-145018466D01*
X139041778Y-145254011D01*
X139041779Y-145254014D01*
X139041780Y-145254015D01*
X139154222Y-145474694D01*
X139299801Y-145675067D01*
X139299803Y-145675069D01*
X139299805Y-145675072D01*
X139409138Y-145784405D01*
X139443164Y-145846717D01*
X139438099Y-145917532D01*
X139395552Y-145974368D01*
X139329032Y-145999179D01*
X139320043Y-145999500D01*
X128679957Y-145999500D01*
X128611836Y-145979498D01*
X128565343Y-145925842D01*
X128555239Y-145855568D01*
X128584733Y-145790988D01*
X128590862Y-145784405D01*
X128700194Y-145675072D01*
X128700199Y-145675067D01*
X128845778Y-145474694D01*
X128958220Y-145254015D01*
X129034756Y-145018462D01*
X129073500Y-144773837D01*
X129073500Y-144526163D01*
X129034756Y-144281538D01*
X128958220Y-144045985D01*
X128845778Y-143825306D01*
X128700199Y-143624933D01*
X128700196Y-143624930D01*
X128700194Y-143624927D01*
X128525072Y-143449805D01*
X128525069Y-143449803D01*
X128525067Y-143449801D01*
X128324694Y-143304222D01*
X128104015Y-143191780D01*
X128104014Y-143191779D01*
X128104011Y-143191778D01*
X127868466Y-143115245D01*
X127868464Y-143115244D01*
X127868462Y-143115244D01*
X127623837Y-143076500D01*
X127376163Y-143076500D01*
X127131538Y-143115244D01*
X127131536Y-143115244D01*
X127131533Y-143115245D01*
X126895988Y-143191778D01*
X126675302Y-143304224D01*
X126474930Y-143449803D01*
X126474927Y-143449805D01*
X126299805Y-143624927D01*
X126299803Y-143624930D01*
X126154224Y-143825302D01*
X126041778Y-144045988D01*
X125965245Y-144281533D01*
X125926500Y-144526165D01*
X125926500Y-144773834D01*
X125965245Y-145018466D01*
X126041778Y-145254011D01*
X126041779Y-145254014D01*
X126041780Y-145254015D01*
X126154222Y-145474694D01*
X126299801Y-145675067D01*
X126299803Y-145675069D01*
X126299805Y-145675072D01*
X126409138Y-145784405D01*
X126443164Y-145846717D01*
X126438099Y-145917532D01*
X126395552Y-145974368D01*
X126329032Y-145999179D01*
X126320043Y-145999500D01*
X115679957Y-145999500D01*
X115611836Y-145979498D01*
X115565343Y-145925842D01*
X115555239Y-145855568D01*
X115584733Y-145790988D01*
X115590862Y-145784405D01*
X115700194Y-145675072D01*
X115700199Y-145675067D01*
X115845778Y-145474694D01*
X115958220Y-145254015D01*
X116034756Y-145018462D01*
X116073500Y-144773837D01*
X116073500Y-144526163D01*
X116034756Y-144281538D01*
X115958220Y-144045985D01*
X115845778Y-143825306D01*
X115700199Y-143624933D01*
X115700196Y-143624930D01*
X115700194Y-143624927D01*
X115525072Y-143449805D01*
X115525069Y-143449803D01*
X115525067Y-143449801D01*
X115324694Y-143304222D01*
X115104015Y-143191780D01*
X115104014Y-143191779D01*
X115104011Y-143191778D01*
X114868466Y-143115245D01*
X114868464Y-143115244D01*
X114868462Y-143115244D01*
X114623837Y-143076500D01*
X114376163Y-143076500D01*
X114131538Y-143115244D01*
X114131536Y-143115244D01*
X114131533Y-143115245D01*
X113895988Y-143191778D01*
X113675302Y-143304224D01*
X113474930Y-143449803D01*
X113474927Y-143449805D01*
X113299805Y-143624927D01*
X113299803Y-143624930D01*
X113154224Y-143825302D01*
X113041778Y-144045988D01*
X112965245Y-144281533D01*
X112926500Y-144526165D01*
X112926500Y-144773834D01*
X112965245Y-145018466D01*
X113041778Y-145254011D01*
X113041779Y-145254014D01*
X113041780Y-145254015D01*
X113154222Y-145474694D01*
X113299801Y-145675067D01*
X113299803Y-145675069D01*
X113299805Y-145675072D01*
X113409138Y-145784405D01*
X113443164Y-145846717D01*
X113438099Y-145917532D01*
X113395552Y-145974368D01*
X113329032Y-145999179D01*
X113320043Y-145999500D01*
X109626501Y-145999500D01*
X109558380Y-145979498D01*
X109511887Y-145925842D01*
X109500501Y-145873500D01*
X109500501Y-136226165D01*
X112926500Y-136226165D01*
X112926500Y-136473834D01*
X112965245Y-136718466D01*
X113041778Y-136954011D01*
X113041779Y-136954014D01*
X113041780Y-136954015D01*
X113154222Y-137174694D01*
X113299801Y-137375067D01*
X113299803Y-137375069D01*
X113299805Y-137375072D01*
X113474927Y-137550194D01*
X113474930Y-137550196D01*
X113474933Y-137550199D01*
X113675306Y-137695778D01*
X113895985Y-137808220D01*
X114131538Y-137884756D01*
X114376163Y-137923500D01*
X114376165Y-137923500D01*
X114623835Y-137923500D01*
X114623837Y-137923500D01*
X114868462Y-137884756D01*
X115104015Y-137808220D01*
X115324694Y-137695778D01*
X115525067Y-137550199D01*
X115700199Y-137375067D01*
X115845778Y-137174694D01*
X115958220Y-136954015D01*
X116034756Y-136718462D01*
X116073500Y-136473837D01*
X116073500Y-136226165D01*
X125926500Y-136226165D01*
X125926500Y-136473834D01*
X125965245Y-136718466D01*
X126041778Y-136954011D01*
X126041779Y-136954014D01*
X126041780Y-136954015D01*
X126154222Y-137174694D01*
X126299801Y-137375067D01*
X126299803Y-137375069D01*
X126299805Y-137375072D01*
X126474927Y-137550194D01*
X126474930Y-137550196D01*
X126474933Y-137550199D01*
X126675306Y-137695778D01*
X126895985Y-137808220D01*
X127131538Y-137884756D01*
X127376163Y-137923500D01*
X127376165Y-137923500D01*
X127623835Y-137923500D01*
X127623837Y-137923500D01*
X127868462Y-137884756D01*
X128104015Y-137808220D01*
X128324694Y-137695778D01*
X128525067Y-137550199D01*
X128700199Y-137375067D01*
X128845778Y-137174694D01*
X128958220Y-136954015D01*
X129034756Y-136718462D01*
X129073500Y-136473837D01*
X129073500Y-136226165D01*
X138926500Y-136226165D01*
X138926500Y-136473834D01*
X138965245Y-136718466D01*
X139041778Y-136954011D01*
X139041779Y-136954014D01*
X139041780Y-136954015D01*
X139154222Y-137174694D01*
X139299801Y-137375067D01*
X139299803Y-137375069D01*
X139299805Y-137375072D01*
X139474927Y-137550194D01*
X139474930Y-137550196D01*
X139474933Y-137550199D01*
X139675306Y-137695778D01*
X139895985Y-137808220D01*
X140131538Y-137884756D01*
X140376163Y-137923500D01*
X140376165Y-137923500D01*
X140623835Y-137923500D01*
X140623837Y-137923500D01*
X140868462Y-137884756D01*
X141104015Y-137808220D01*
X141324694Y-137695778D01*
X141525067Y-137550199D01*
X141700199Y-137375067D01*
X141845778Y-137174694D01*
X141958220Y-136954015D01*
X142034756Y-136718462D01*
X142073500Y-136473837D01*
X142073500Y-136226163D01*
X142034756Y-135981538D01*
X141958220Y-135745985D01*
X141845778Y-135525306D01*
X141700199Y-135324933D01*
X141700196Y-135324930D01*
X141700194Y-135324927D01*
X141525072Y-135149805D01*
X141525069Y-135149803D01*
X141525067Y-135149801D01*
X141324694Y-135004222D01*
X141142257Y-134911265D01*
X141090644Y-134862519D01*
X141073578Y-134793604D01*
X141096479Y-134726402D01*
X141152076Y-134682250D01*
X141199462Y-134673000D01*
X141513585Y-134673000D01*
X141513597Y-134672999D01*
X141574093Y-134666494D01*
X141710964Y-134615444D01*
X141710965Y-134615444D01*
X141827904Y-134527904D01*
X141915444Y-134410965D01*
X141915444Y-134410964D01*
X141966494Y-134274093D01*
X141972999Y-134213597D01*
X141973000Y-134213585D01*
X141973000Y-133504000D01*
X141055049Y-133504000D01*
X141086558Y-133427931D01*
X141110000Y-133310080D01*
X141110000Y-133189920D01*
X141086558Y-133072069D01*
X141055049Y-132996000D01*
X141973000Y-132996000D01*
X141973000Y-132286414D01*
X141972999Y-132286402D01*
X141966494Y-132225906D01*
X141915444Y-132089035D01*
X141915444Y-132089034D01*
X141827904Y-131972095D01*
X141710965Y-131884555D01*
X141574093Y-131833505D01*
X141513597Y-131827000D01*
X140754000Y-131827000D01*
X140754000Y-132694950D01*
X140677931Y-132663442D01*
X140560080Y-132640000D01*
X140439920Y-132640000D01*
X140322069Y-132663442D01*
X140246000Y-132694950D01*
X140246000Y-131827000D01*
X139486402Y-131827000D01*
X139425906Y-131833505D01*
X139289035Y-131884555D01*
X139289034Y-131884555D01*
X139172095Y-131972095D01*
X139084555Y-132089034D01*
X139084555Y-132089035D01*
X139033505Y-132225906D01*
X139027000Y-132286402D01*
X139027000Y-132996000D01*
X139944951Y-132996000D01*
X139913442Y-133072069D01*
X139890000Y-133189920D01*
X139890000Y-133310080D01*
X139913442Y-133427931D01*
X139944951Y-133504000D01*
X139027000Y-133504000D01*
X139027000Y-134213597D01*
X139033505Y-134274093D01*
X139084555Y-134410964D01*
X139084555Y-134410965D01*
X139172095Y-134527904D01*
X139289034Y-134615444D01*
X139425906Y-134666494D01*
X139486402Y-134672999D01*
X139486415Y-134673000D01*
X139800538Y-134673000D01*
X139868659Y-134693002D01*
X139915152Y-134746658D01*
X139925256Y-134816932D01*
X139895762Y-134881512D01*
X139857743Y-134911265D01*
X139685652Y-134998950D01*
X139675302Y-135004224D01*
X139474930Y-135149803D01*
X139474927Y-135149805D01*
X139299805Y-135324927D01*
X139299803Y-135324930D01*
X139154224Y-135525302D01*
X139041778Y-135745988D01*
X138965245Y-135981533D01*
X138926500Y-136226165D01*
X129073500Y-136226165D01*
X129073500Y-136226163D01*
X129034756Y-135981538D01*
X128958220Y-135745985D01*
X128845778Y-135525306D01*
X128700199Y-135324933D01*
X128700196Y-135324930D01*
X128700194Y-135324927D01*
X128525072Y-135149805D01*
X128525069Y-135149803D01*
X128525067Y-135149801D01*
X128324694Y-135004222D01*
X128142257Y-134911265D01*
X128090644Y-134862519D01*
X128073578Y-134793604D01*
X128096479Y-134726402D01*
X128152076Y-134682250D01*
X128199462Y-134673000D01*
X128513585Y-134673000D01*
X128513597Y-134672999D01*
X128574093Y-134666494D01*
X128710964Y-134615444D01*
X128710965Y-134615444D01*
X128827904Y-134527904D01*
X128915444Y-134410965D01*
X128915444Y-134410964D01*
X128966494Y-134274093D01*
X128972999Y-134213597D01*
X128973000Y-134213585D01*
X128973000Y-133504000D01*
X128055049Y-133504000D01*
X128086558Y-133427931D01*
X128110000Y-133310080D01*
X128110000Y-133189920D01*
X128086558Y-133072069D01*
X128055049Y-132996000D01*
X128973000Y-132996000D01*
X128973000Y-132286414D01*
X128972999Y-132286402D01*
X128966494Y-132225906D01*
X128915444Y-132089035D01*
X128915444Y-132089034D01*
X128827904Y-131972095D01*
X128710965Y-131884555D01*
X128574093Y-131833505D01*
X128513597Y-131827000D01*
X127754000Y-131827000D01*
X127754000Y-132694950D01*
X127677931Y-132663442D01*
X127560080Y-132640000D01*
X127439920Y-132640000D01*
X127322069Y-132663442D01*
X127246000Y-132694950D01*
X127246000Y-131827000D01*
X126486402Y-131827000D01*
X126425906Y-131833505D01*
X126289035Y-131884555D01*
X126289034Y-131884555D01*
X126172095Y-131972095D01*
X126084555Y-132089034D01*
X126084555Y-132089035D01*
X126033505Y-132225906D01*
X126027000Y-132286402D01*
X126027000Y-132996000D01*
X126944951Y-132996000D01*
X126913442Y-133072069D01*
X126890000Y-133189920D01*
X126890000Y-133310080D01*
X126913442Y-133427931D01*
X126944951Y-133504000D01*
X126027000Y-133504000D01*
X126027000Y-134213597D01*
X126033505Y-134274093D01*
X126084555Y-134410964D01*
X126084555Y-134410965D01*
X126172095Y-134527904D01*
X126289034Y-134615444D01*
X126425906Y-134666494D01*
X126486402Y-134672999D01*
X126486415Y-134673000D01*
X126800538Y-134673000D01*
X126868659Y-134693002D01*
X126915152Y-134746658D01*
X126925256Y-134816932D01*
X126895762Y-134881512D01*
X126857743Y-134911265D01*
X126685652Y-134998950D01*
X126675302Y-135004224D01*
X126474930Y-135149803D01*
X126474927Y-135149805D01*
X126299805Y-135324927D01*
X126299803Y-135324930D01*
X126154224Y-135525302D01*
X126041778Y-135745988D01*
X125965245Y-135981533D01*
X125926500Y-136226165D01*
X116073500Y-136226165D01*
X116073500Y-136226163D01*
X116034756Y-135981538D01*
X115958220Y-135745985D01*
X115845778Y-135525306D01*
X115700199Y-135324933D01*
X115700196Y-135324930D01*
X115700194Y-135324927D01*
X115525072Y-135149805D01*
X115525069Y-135149803D01*
X115525067Y-135149801D01*
X115324694Y-135004222D01*
X115142257Y-134911265D01*
X115090644Y-134862519D01*
X115073578Y-134793604D01*
X115096479Y-134726402D01*
X115152076Y-134682250D01*
X115199462Y-134673000D01*
X115513585Y-134673000D01*
X115513597Y-134672999D01*
X115574093Y-134666494D01*
X115710964Y-134615444D01*
X115710965Y-134615444D01*
X115827904Y-134527904D01*
X115915444Y-134410965D01*
X115915444Y-134410964D01*
X115966494Y-134274093D01*
X115972999Y-134213597D01*
X115973000Y-134213585D01*
X115973000Y-133504000D01*
X115055049Y-133504000D01*
X115086558Y-133427931D01*
X115110000Y-133310080D01*
X115110000Y-133189920D01*
X115086558Y-133072069D01*
X115055049Y-132996000D01*
X115973000Y-132996000D01*
X115973000Y-132286414D01*
X115972999Y-132286402D01*
X115966494Y-132225906D01*
X115915444Y-132089035D01*
X115915444Y-132089034D01*
X115827904Y-131972095D01*
X115710965Y-131884555D01*
X115574093Y-131833505D01*
X115513597Y-131827000D01*
X114754000Y-131827000D01*
X114754000Y-132694950D01*
X114677931Y-132663442D01*
X114560080Y-132640000D01*
X114439920Y-132640000D01*
X114322069Y-132663442D01*
X114246000Y-132694950D01*
X114246000Y-131827000D01*
X113486402Y-131827000D01*
X113425906Y-131833505D01*
X113289035Y-131884555D01*
X113289034Y-131884555D01*
X113172095Y-131972095D01*
X113084555Y-132089034D01*
X113084555Y-132089035D01*
X113033505Y-132225906D01*
X113027000Y-132286402D01*
X113027000Y-132996000D01*
X113944951Y-132996000D01*
X113913442Y-133072069D01*
X113890000Y-133189920D01*
X113890000Y-133310080D01*
X113913442Y-133427931D01*
X113944951Y-133504000D01*
X113027000Y-133504000D01*
X113027000Y-134213597D01*
X113033505Y-134274093D01*
X113084555Y-134410964D01*
X113084555Y-134410965D01*
X113172095Y-134527904D01*
X113289034Y-134615444D01*
X113425906Y-134666494D01*
X113486402Y-134672999D01*
X113486415Y-134673000D01*
X113800538Y-134673000D01*
X113868659Y-134693002D01*
X113915152Y-134746658D01*
X113925256Y-134816932D01*
X113895762Y-134881512D01*
X113857743Y-134911265D01*
X113685652Y-134998950D01*
X113675302Y-135004224D01*
X113474930Y-135149803D01*
X113474927Y-135149805D01*
X113299805Y-135324927D01*
X113299803Y-135324930D01*
X113154224Y-135525302D01*
X113041778Y-135745988D01*
X112965245Y-135981533D01*
X112926500Y-136226165D01*
X109500501Y-136226165D01*
X109500501Y-129776165D01*
X112926500Y-129776165D01*
X112926500Y-130023834D01*
X112965245Y-130268466D01*
X113041778Y-130504011D01*
X113041779Y-130504014D01*
X113041780Y-130504015D01*
X113154222Y-130724694D01*
X113299801Y-130925067D01*
X113299803Y-130925069D01*
X113299805Y-130925072D01*
X113474927Y-131100194D01*
X113474930Y-131100196D01*
X113474933Y-131100199D01*
X113675306Y-131245778D01*
X113895985Y-131358220D01*
X114131538Y-131434756D01*
X114376163Y-131473500D01*
X114376165Y-131473500D01*
X114623835Y-131473500D01*
X114623837Y-131473500D01*
X114868462Y-131434756D01*
X115104015Y-131358220D01*
X115324694Y-131245778D01*
X115525067Y-131100199D01*
X115700199Y-130925067D01*
X115845778Y-130724694D01*
X115958220Y-130504015D01*
X116034756Y-130268462D01*
X116073500Y-130023837D01*
X116073500Y-129776165D01*
X125926500Y-129776165D01*
X125926500Y-130023834D01*
X125965245Y-130268466D01*
X126041778Y-130504011D01*
X126041779Y-130504014D01*
X126041780Y-130504015D01*
X126154222Y-130724694D01*
X126299801Y-130925067D01*
X126299803Y-130925069D01*
X126299805Y-130925072D01*
X126474927Y-131100194D01*
X126474930Y-131100196D01*
X126474933Y-131100199D01*
X126675306Y-131245778D01*
X126895985Y-131358220D01*
X127131538Y-131434756D01*
X127376163Y-131473500D01*
X127376165Y-131473500D01*
X127623835Y-131473500D01*
X127623837Y-131473500D01*
X127868462Y-131434756D01*
X128104015Y-131358220D01*
X128324694Y-131245778D01*
X128525067Y-131100199D01*
X128700199Y-130925067D01*
X128845778Y-130724694D01*
X128958220Y-130504015D01*
X129034756Y-130268462D01*
X129073500Y-130023837D01*
X129073500Y-129776165D01*
X138926500Y-129776165D01*
X138926500Y-130023834D01*
X138965245Y-130268466D01*
X139041778Y-130504011D01*
X139041779Y-130504014D01*
X139041780Y-130504015D01*
X139154222Y-130724694D01*
X139299801Y-130925067D01*
X139299803Y-130925069D01*
X139299805Y-130925072D01*
X139474927Y-131100194D01*
X139474930Y-131100196D01*
X139474933Y-131100199D01*
X139675306Y-131245778D01*
X139895985Y-131358220D01*
X140131538Y-131434756D01*
X140376163Y-131473500D01*
X140376165Y-131473500D01*
X140623835Y-131473500D01*
X140623837Y-131473500D01*
X140868462Y-131434756D01*
X141104015Y-131358220D01*
X141324694Y-131245778D01*
X141525067Y-131100199D01*
X141700199Y-130925067D01*
X141845778Y-130724694D01*
X141958220Y-130504015D01*
X142034756Y-130268462D01*
X142073500Y-130023837D01*
X142073500Y-129776163D01*
X142034756Y-129531538D01*
X141958220Y-129295985D01*
X141845778Y-129075306D01*
X141700199Y-128874933D01*
X141700196Y-128874930D01*
X141700194Y-128874927D01*
X141525072Y-128699805D01*
X141525069Y-128699803D01*
X141525067Y-128699801D01*
X141324694Y-128554222D01*
X141104015Y-128441780D01*
X141104014Y-128441779D01*
X141104011Y-128441778D01*
X140868466Y-128365245D01*
X140868464Y-128365244D01*
X140868462Y-128365244D01*
X140623837Y-128326500D01*
X140376163Y-128326500D01*
X140131538Y-128365244D01*
X140131536Y-128365244D01*
X140131533Y-128365245D01*
X139895988Y-128441778D01*
X139675302Y-128554224D01*
X139474930Y-128699803D01*
X139474927Y-128699805D01*
X139299805Y-128874927D01*
X139299803Y-128874930D01*
X139154224Y-129075302D01*
X139041778Y-129295988D01*
X138965245Y-129531533D01*
X138926500Y-129776165D01*
X129073500Y-129776165D01*
X129073500Y-129776163D01*
X129034756Y-129531538D01*
X128958220Y-129295985D01*
X128845778Y-129075306D01*
X128700199Y-128874933D01*
X128700196Y-128874930D01*
X128700194Y-128874927D01*
X128525072Y-128699805D01*
X128525069Y-128699803D01*
X128525067Y-128699801D01*
X128324694Y-128554222D01*
X128104015Y-128441780D01*
X128104014Y-128441779D01*
X128104011Y-128441778D01*
X127868466Y-128365245D01*
X127868464Y-128365244D01*
X127868462Y-128365244D01*
X127623837Y-128326500D01*
X127376163Y-128326500D01*
X127131538Y-128365244D01*
X127131536Y-128365244D01*
X127131533Y-128365245D01*
X126895988Y-128441778D01*
X126675302Y-128554224D01*
X126474930Y-128699803D01*
X126474927Y-128699805D01*
X126299805Y-128874927D01*
X126299803Y-128874930D01*
X126154224Y-129075302D01*
X126041778Y-129295988D01*
X125965245Y-129531533D01*
X125926500Y-129776165D01*
X116073500Y-129776165D01*
X116073500Y-129776163D01*
X116034756Y-129531538D01*
X115958220Y-129295985D01*
X115845778Y-129075306D01*
X115700199Y-128874933D01*
X115700196Y-128874930D01*
X115700194Y-128874927D01*
X115525072Y-128699805D01*
X115525069Y-128699803D01*
X115525067Y-128699801D01*
X115324694Y-128554222D01*
X115104015Y-128441780D01*
X115104014Y-128441779D01*
X115104011Y-128441778D01*
X114868466Y-128365245D01*
X114868464Y-128365244D01*
X114868462Y-128365244D01*
X114623837Y-128326500D01*
X114376163Y-128326500D01*
X114131538Y-128365244D01*
X114131536Y-128365244D01*
X114131533Y-128365245D01*
X113895988Y-128441778D01*
X113675302Y-128554224D01*
X113474930Y-128699803D01*
X113474927Y-128699805D01*
X113299805Y-128874927D01*
X113299803Y-128874930D01*
X113154224Y-129075302D01*
X113041778Y-129295988D01*
X112965245Y-129531533D01*
X112926500Y-129776165D01*
X109500501Y-129776165D01*
X109500501Y-121476205D01*
X112927000Y-121476205D01*
X112927000Y-121723794D01*
X112965734Y-121968349D01*
X113042242Y-122203817D01*
X113042245Y-122203823D01*
X113154651Y-122424433D01*
X113222697Y-122518091D01*
X113222698Y-122518091D01*
X113851379Y-121889409D01*
X113870807Y-121936311D01*
X113948507Y-122052598D01*
X114047402Y-122151493D01*
X114163689Y-122229193D01*
X114210588Y-122248619D01*
X113581907Y-122877300D01*
X113581907Y-122877301D01*
X113675568Y-122945349D01*
X113675569Y-122945350D01*
X113896176Y-123057754D01*
X113896182Y-123057757D01*
X114131650Y-123134265D01*
X114376205Y-123173000D01*
X114623795Y-123173000D01*
X114868349Y-123134265D01*
X115103817Y-123057757D01*
X115103823Y-123057754D01*
X115324435Y-122945347D01*
X115418091Y-122877302D01*
X115418091Y-122877300D01*
X114789410Y-122248619D01*
X114836311Y-122229193D01*
X114952598Y-122151493D01*
X115051493Y-122052598D01*
X115129193Y-121936311D01*
X115148619Y-121889410D01*
X115777300Y-122518091D01*
X115777302Y-122518091D01*
X115845347Y-122424435D01*
X115957754Y-122203823D01*
X115957757Y-122203817D01*
X116034265Y-121968349D01*
X116073000Y-121723794D01*
X116073000Y-121476205D01*
X125927000Y-121476205D01*
X125927000Y-121723794D01*
X125965734Y-121968349D01*
X126042242Y-122203817D01*
X126042245Y-122203823D01*
X126154651Y-122424433D01*
X126222697Y-122518091D01*
X126222698Y-122518091D01*
X126851379Y-121889409D01*
X126870807Y-121936311D01*
X126948507Y-122052598D01*
X127047402Y-122151493D01*
X127163689Y-122229193D01*
X127210588Y-122248619D01*
X126581907Y-122877300D01*
X126581907Y-122877301D01*
X126675568Y-122945349D01*
X126675569Y-122945350D01*
X126896176Y-123057754D01*
X126896182Y-123057757D01*
X127131650Y-123134265D01*
X127376205Y-123173000D01*
X127623795Y-123173000D01*
X127868349Y-123134265D01*
X128103817Y-123057757D01*
X128103823Y-123057754D01*
X128324435Y-122945347D01*
X128418091Y-122877302D01*
X128418091Y-122877300D01*
X127789410Y-122248619D01*
X127836311Y-122229193D01*
X127952598Y-122151493D01*
X128051493Y-122052598D01*
X128129193Y-121936311D01*
X128148619Y-121889410D01*
X128777300Y-122518091D01*
X128777302Y-122518091D01*
X128845347Y-122424435D01*
X128957754Y-122203823D01*
X128957757Y-122203817D01*
X129034265Y-121968349D01*
X129073000Y-121723794D01*
X129073000Y-121476205D01*
X138927000Y-121476205D01*
X138927000Y-121723794D01*
X138965734Y-121968349D01*
X139042242Y-122203817D01*
X139042245Y-122203823D01*
X139154651Y-122424433D01*
X139222697Y-122518091D01*
X139222698Y-122518091D01*
X139851379Y-121889409D01*
X139870807Y-121936311D01*
X139948507Y-122052598D01*
X140047402Y-122151493D01*
X140163689Y-122229193D01*
X140210588Y-122248619D01*
X139581907Y-122877300D01*
X139581907Y-122877301D01*
X139675568Y-122945349D01*
X139675569Y-122945350D01*
X139896176Y-123057754D01*
X139896182Y-123057757D01*
X140131650Y-123134265D01*
X140376205Y-123173000D01*
X140623795Y-123173000D01*
X140868349Y-123134265D01*
X141103817Y-123057757D01*
X141103823Y-123057754D01*
X141324435Y-122945347D01*
X141418091Y-122877302D01*
X141418091Y-122877300D01*
X140789410Y-122248619D01*
X140836311Y-122229193D01*
X140952598Y-122151493D01*
X141051493Y-122052598D01*
X141129193Y-121936311D01*
X141148619Y-121889410D01*
X141777300Y-122518091D01*
X141777302Y-122518091D01*
X141845347Y-122424435D01*
X141957754Y-122203823D01*
X141957757Y-122203817D01*
X142034265Y-121968349D01*
X142073000Y-121723794D01*
X142073000Y-121476205D01*
X142034265Y-121231650D01*
X141957757Y-120996182D01*
X141957754Y-120996176D01*
X141845350Y-120775569D01*
X141845349Y-120775568D01*
X141777301Y-120681907D01*
X141777300Y-120681907D01*
X141148619Y-121310588D01*
X141129193Y-121263689D01*
X141051493Y-121147402D01*
X140952598Y-121048507D01*
X140836311Y-120970807D01*
X140789410Y-120951379D01*
X141418091Y-120322698D01*
X141418091Y-120322697D01*
X141324433Y-120254651D01*
X141141156Y-120161267D01*
X141089541Y-120112519D01*
X141072475Y-120043604D01*
X141095376Y-119976402D01*
X141150973Y-119932250D01*
X141198359Y-119923000D01*
X141513585Y-119923000D01*
X141513597Y-119922999D01*
X141574093Y-119916494D01*
X141710964Y-119865444D01*
X141710965Y-119865444D01*
X141827904Y-119777904D01*
X141915444Y-119660965D01*
X141915444Y-119660964D01*
X141966494Y-119524093D01*
X141972999Y-119463597D01*
X141973000Y-119463585D01*
X141973000Y-118754000D01*
X141055049Y-118754000D01*
X141086558Y-118677931D01*
X141110000Y-118560080D01*
X141110000Y-118439920D01*
X141086558Y-118322069D01*
X141055049Y-118246000D01*
X141973000Y-118246000D01*
X141973000Y-117536414D01*
X141972999Y-117536402D01*
X141966494Y-117475906D01*
X141915444Y-117339035D01*
X141915444Y-117339034D01*
X141827904Y-117222095D01*
X141710965Y-117134555D01*
X141574093Y-117083505D01*
X141513597Y-117077000D01*
X140754000Y-117077000D01*
X140754000Y-117944950D01*
X140677931Y-117913442D01*
X140560080Y-117890000D01*
X140439920Y-117890000D01*
X140322069Y-117913442D01*
X140246000Y-117944950D01*
X140246000Y-117077000D01*
X139486402Y-117077000D01*
X139425906Y-117083505D01*
X139289035Y-117134555D01*
X139289034Y-117134555D01*
X139172095Y-117222095D01*
X139084555Y-117339034D01*
X139084555Y-117339035D01*
X139033505Y-117475906D01*
X139027000Y-117536402D01*
X139027000Y-118246000D01*
X139944951Y-118246000D01*
X139913442Y-118322069D01*
X139890000Y-118439920D01*
X139890000Y-118560080D01*
X139913442Y-118677931D01*
X139944951Y-118754000D01*
X139027000Y-118754000D01*
X139027000Y-119463597D01*
X139033505Y-119524093D01*
X139084555Y-119660964D01*
X139084555Y-119660965D01*
X139172095Y-119777904D01*
X139289034Y-119865444D01*
X139425906Y-119916494D01*
X139486402Y-119922999D01*
X139486415Y-119923000D01*
X139801641Y-119923000D01*
X139869762Y-119943002D01*
X139916255Y-119996658D01*
X139926359Y-120066932D01*
X139896865Y-120131512D01*
X139858843Y-120161267D01*
X139675569Y-120254648D01*
X139581907Y-120322696D01*
X139581907Y-120322698D01*
X140210589Y-120951380D01*
X140163689Y-120970807D01*
X140047402Y-121048507D01*
X139948507Y-121147402D01*
X139870807Y-121263689D01*
X139851380Y-121310589D01*
X139222698Y-120681907D01*
X139222696Y-120681907D01*
X139154648Y-120775569D01*
X139042247Y-120996170D01*
X139042242Y-120996182D01*
X138965734Y-121231650D01*
X138927000Y-121476205D01*
X129073000Y-121476205D01*
X129034265Y-121231650D01*
X128957757Y-120996182D01*
X128957754Y-120996176D01*
X128845350Y-120775569D01*
X128845349Y-120775568D01*
X128777301Y-120681907D01*
X128777300Y-120681907D01*
X128148619Y-121310588D01*
X128129193Y-121263689D01*
X128051493Y-121147402D01*
X127952598Y-121048507D01*
X127836311Y-120970807D01*
X127789410Y-120951379D01*
X128418091Y-120322698D01*
X128418091Y-120322697D01*
X128324433Y-120254651D01*
X128141156Y-120161267D01*
X128089541Y-120112519D01*
X128072475Y-120043604D01*
X128095376Y-119976402D01*
X128150973Y-119932250D01*
X128198359Y-119923000D01*
X128513585Y-119923000D01*
X128513597Y-119922999D01*
X128574093Y-119916494D01*
X128710964Y-119865444D01*
X128710965Y-119865444D01*
X128827904Y-119777904D01*
X128915444Y-119660965D01*
X128915444Y-119660964D01*
X128966494Y-119524093D01*
X128972999Y-119463597D01*
X128973000Y-119463585D01*
X128973000Y-118754000D01*
X128055049Y-118754000D01*
X128086558Y-118677931D01*
X128110000Y-118560080D01*
X128110000Y-118439920D01*
X128086558Y-118322069D01*
X128055049Y-118246000D01*
X128973000Y-118246000D01*
X128973000Y-117536414D01*
X128972999Y-117536402D01*
X128966494Y-117475906D01*
X128915444Y-117339035D01*
X128915444Y-117339034D01*
X128827904Y-117222095D01*
X128710965Y-117134555D01*
X128574093Y-117083505D01*
X128513597Y-117077000D01*
X127754000Y-117077000D01*
X127754000Y-117944950D01*
X127677931Y-117913442D01*
X127560080Y-117890000D01*
X127439920Y-117890000D01*
X127322069Y-117913442D01*
X127246000Y-117944950D01*
X127246000Y-117077000D01*
X126486402Y-117077000D01*
X126425906Y-117083505D01*
X126289035Y-117134555D01*
X126289034Y-117134555D01*
X126172095Y-117222095D01*
X126084555Y-117339034D01*
X126084555Y-117339035D01*
X126033505Y-117475906D01*
X126027000Y-117536402D01*
X126027000Y-118246000D01*
X126944951Y-118246000D01*
X126913442Y-118322069D01*
X126890000Y-118439920D01*
X126890000Y-118560080D01*
X126913442Y-118677931D01*
X126944951Y-118754000D01*
X126027000Y-118754000D01*
X126027000Y-119463597D01*
X126033505Y-119524093D01*
X126084555Y-119660964D01*
X126084555Y-119660965D01*
X126172095Y-119777904D01*
X126289034Y-119865444D01*
X126425906Y-119916494D01*
X126486402Y-119922999D01*
X126486415Y-119923000D01*
X126801641Y-119923000D01*
X126869762Y-119943002D01*
X126916255Y-119996658D01*
X126926359Y-120066932D01*
X126896865Y-120131512D01*
X126858843Y-120161267D01*
X126675569Y-120254648D01*
X126581907Y-120322696D01*
X126581907Y-120322698D01*
X127210589Y-120951380D01*
X127163689Y-120970807D01*
X127047402Y-121048507D01*
X126948507Y-121147402D01*
X126870807Y-121263689D01*
X126851380Y-121310589D01*
X126222698Y-120681907D01*
X126222696Y-120681907D01*
X126154648Y-120775569D01*
X126042247Y-120996170D01*
X126042242Y-120996182D01*
X125965734Y-121231650D01*
X125927000Y-121476205D01*
X116073000Y-121476205D01*
X116034265Y-121231650D01*
X115957757Y-120996182D01*
X115957754Y-120996176D01*
X115845350Y-120775569D01*
X115845349Y-120775568D01*
X115777301Y-120681907D01*
X115777300Y-120681907D01*
X115148619Y-121310588D01*
X115129193Y-121263689D01*
X115051493Y-121147402D01*
X114952598Y-121048507D01*
X114836311Y-120970807D01*
X114789410Y-120951379D01*
X115418091Y-120322698D01*
X115418091Y-120322697D01*
X115324433Y-120254651D01*
X115141156Y-120161267D01*
X115089541Y-120112519D01*
X115072475Y-120043604D01*
X115095376Y-119976402D01*
X115150973Y-119932250D01*
X115198359Y-119923000D01*
X115513585Y-119923000D01*
X115513597Y-119922999D01*
X115574093Y-119916494D01*
X115710964Y-119865444D01*
X115710965Y-119865444D01*
X115827904Y-119777904D01*
X115915444Y-119660965D01*
X115915444Y-119660964D01*
X115966494Y-119524093D01*
X115972999Y-119463597D01*
X115973000Y-119463585D01*
X115973000Y-118754000D01*
X115055049Y-118754000D01*
X115086558Y-118677931D01*
X115110000Y-118560080D01*
X115110000Y-118439920D01*
X115086558Y-118322069D01*
X115055049Y-118246000D01*
X115973000Y-118246000D01*
X115973000Y-117536414D01*
X115972999Y-117536402D01*
X115966494Y-117475906D01*
X115915444Y-117339035D01*
X115915444Y-117339034D01*
X115827904Y-117222095D01*
X115710965Y-117134555D01*
X115574093Y-117083505D01*
X115513597Y-117077000D01*
X114754000Y-117077000D01*
X114754000Y-117944950D01*
X114677931Y-117913442D01*
X114560080Y-117890000D01*
X114439920Y-117890000D01*
X114322069Y-117913442D01*
X114246000Y-117944950D01*
X114246000Y-117077000D01*
X113486402Y-117077000D01*
X113425906Y-117083505D01*
X113289035Y-117134555D01*
X113289034Y-117134555D01*
X113172095Y-117222095D01*
X113084555Y-117339034D01*
X113084555Y-117339035D01*
X113033505Y-117475906D01*
X113027000Y-117536402D01*
X113027000Y-118246000D01*
X113944951Y-118246000D01*
X113913442Y-118322069D01*
X113890000Y-118439920D01*
X113890000Y-118560080D01*
X113913442Y-118677931D01*
X113944951Y-118754000D01*
X113027000Y-118754000D01*
X113027000Y-119463597D01*
X113033505Y-119524093D01*
X113084555Y-119660964D01*
X113084555Y-119660965D01*
X113172095Y-119777904D01*
X113289034Y-119865444D01*
X113425906Y-119916494D01*
X113486402Y-119922999D01*
X113486415Y-119923000D01*
X113801641Y-119923000D01*
X113869762Y-119943002D01*
X113916255Y-119996658D01*
X113926359Y-120066932D01*
X113896865Y-120131512D01*
X113858843Y-120161267D01*
X113675569Y-120254648D01*
X113581907Y-120322696D01*
X113581907Y-120322698D01*
X114210589Y-120951380D01*
X114163689Y-120970807D01*
X114047402Y-121048507D01*
X113948507Y-121147402D01*
X113870807Y-121263689D01*
X113851380Y-121310589D01*
X113222698Y-120681907D01*
X113222696Y-120681907D01*
X113154648Y-120775569D01*
X113042247Y-120996170D01*
X113042242Y-120996182D01*
X112965734Y-121231650D01*
X112927000Y-121476205D01*
X109500501Y-121476205D01*
X109500501Y-117533035D01*
X109500500Y-112278709D01*
X132149500Y-112278709D01*
X132149500Y-112521290D01*
X132181160Y-112761782D01*
X132243944Y-112996095D01*
X132243945Y-112996097D01*
X132243946Y-112996100D01*
X132336776Y-113220212D01*
X132336777Y-113220213D01*
X132336782Y-113220224D01*
X132458061Y-113430285D01*
X132458063Y-113430288D01*
X132458064Y-113430289D01*
X132605735Y-113622738D01*
X132605739Y-113622742D01*
X132605744Y-113622748D01*
X132777251Y-113794255D01*
X132777256Y-113794259D01*
X132777262Y-113794265D01*
X132969711Y-113941936D01*
X132969714Y-113941938D01*
X133179775Y-114063217D01*
X133179779Y-114063218D01*
X133179788Y-114063224D01*
X133403900Y-114156054D01*
X133638211Y-114218838D01*
X133638215Y-114218838D01*
X133638217Y-114218839D01*
X133679312Y-114224249D01*
X133878712Y-114250500D01*
X133878719Y-114250500D01*
X134121281Y-114250500D01*
X134121288Y-114250500D01*
X134359579Y-114219129D01*
X134361782Y-114218839D01*
X134361782Y-114218838D01*
X134361789Y-114218838D01*
X134596100Y-114156054D01*
X134820212Y-114063224D01*
X135030289Y-113941936D01*
X135222738Y-113794265D01*
X135394265Y-113622738D01*
X135541936Y-113430289D01*
X135663224Y-113220212D01*
X135756054Y-112996100D01*
X135818838Y-112761789D01*
X135850500Y-112521288D01*
X135850500Y-112278712D01*
X135818838Y-112038211D01*
X135756054Y-111803900D01*
X135663224Y-111579788D01*
X135663218Y-111579779D01*
X135663217Y-111579775D01*
X135541938Y-111369714D01*
X135541936Y-111369711D01*
X135394265Y-111177262D01*
X135394259Y-111177256D01*
X135394255Y-111177251D01*
X135222748Y-111005744D01*
X135222742Y-111005739D01*
X135222738Y-111005735D01*
X135030289Y-110858064D01*
X135030288Y-110858063D01*
X135030285Y-110858061D01*
X134820224Y-110736782D01*
X134820216Y-110736778D01*
X134820212Y-110736776D01*
X134596100Y-110643946D01*
X134596097Y-110643945D01*
X134596095Y-110643944D01*
X134361782Y-110581160D01*
X134121290Y-110549500D01*
X134121288Y-110549500D01*
X133878712Y-110549500D01*
X133878709Y-110549500D01*
X133638217Y-110581160D01*
X133403904Y-110643944D01*
X133403900Y-110643946D01*
X133179786Y-110736777D01*
X133179775Y-110736782D01*
X132969714Y-110858061D01*
X132777262Y-111005735D01*
X132777251Y-111005744D01*
X132605744Y-111177251D01*
X132605735Y-111177262D01*
X132458061Y-111369714D01*
X132336782Y-111579775D01*
X132336777Y-111579786D01*
X132243946Y-111803900D01*
X132243944Y-111803904D01*
X132181160Y-112038217D01*
X132149500Y-112278709D01*
X109500500Y-112278709D01*
X109500500Y-112274587D01*
X109500500Y-108639149D01*
X117991500Y-108639149D01*
X117991500Y-108860851D01*
X117997193Y-108896792D01*
X118026183Y-109079829D01*
X118094690Y-109290671D01*
X118094692Y-109290676D01*
X118195343Y-109488215D01*
X118195345Y-109488218D01*
X118325658Y-109667578D01*
X118482421Y-109824341D01*
X118482424Y-109824343D01*
X118661785Y-109954657D01*
X118859324Y-110055308D01*
X119070176Y-110123818D01*
X119289149Y-110158500D01*
X119289152Y-110158500D01*
X119510848Y-110158500D01*
X119510851Y-110158500D01*
X119729824Y-110123818D01*
X119940676Y-110055308D01*
X120138215Y-109954657D01*
X120317576Y-109824343D01*
X120474343Y-109667576D01*
X120548064Y-109566107D01*
X120604287Y-109522754D01*
X120675023Y-109516679D01*
X120737814Y-109549811D01*
X120751936Y-109566108D01*
X120825658Y-109667578D01*
X120982421Y-109824341D01*
X120982424Y-109824343D01*
X121161785Y-109954657D01*
X121359324Y-110055308D01*
X121570176Y-110123818D01*
X121789149Y-110158500D01*
X121789152Y-110158500D01*
X122010848Y-110158500D01*
X122010851Y-110158500D01*
X122229824Y-110123818D01*
X122440676Y-110055308D01*
X122638215Y-109954657D01*
X122817576Y-109824343D01*
X122974343Y-109667576D01*
X123048064Y-109566107D01*
X123104287Y-109522754D01*
X123175023Y-109516679D01*
X123237814Y-109549811D01*
X123251936Y-109566108D01*
X123325658Y-109667578D01*
X123482421Y-109824341D01*
X123482424Y-109824343D01*
X123661785Y-109954657D01*
X123859324Y-110055308D01*
X124070176Y-110123818D01*
X124289149Y-110158500D01*
X124289152Y-110158500D01*
X124510848Y-110158500D01*
X124510851Y-110158500D01*
X124729824Y-110123818D01*
X124940676Y-110055308D01*
X125138215Y-109954657D01*
X125317576Y-109824343D01*
X125474343Y-109667576D01*
X125604657Y-109488215D01*
X125705308Y-109290676D01*
X125773818Y-109079824D01*
X125808500Y-108860851D01*
X125808500Y-108639149D01*
X142191500Y-108639149D01*
X142191500Y-108860851D01*
X142197193Y-108896792D01*
X142226183Y-109079829D01*
X142294690Y-109290671D01*
X142294692Y-109290676D01*
X142395343Y-109488215D01*
X142395345Y-109488218D01*
X142525658Y-109667578D01*
X142682421Y-109824341D01*
X142682424Y-109824343D01*
X142861785Y-109954657D01*
X143059324Y-110055308D01*
X143270176Y-110123818D01*
X143489149Y-110158500D01*
X143489152Y-110158500D01*
X143710848Y-110158500D01*
X143710851Y-110158500D01*
X143929824Y-110123818D01*
X144140676Y-110055308D01*
X144338215Y-109954657D01*
X144517576Y-109824343D01*
X144674343Y-109667576D01*
X144748064Y-109566107D01*
X144804287Y-109522754D01*
X144875023Y-109516679D01*
X144937814Y-109549811D01*
X144951936Y-109566108D01*
X145025658Y-109667578D01*
X145182421Y-109824341D01*
X145182424Y-109824343D01*
X145361785Y-109954657D01*
X145559324Y-110055308D01*
X145770176Y-110123818D01*
X145989149Y-110158500D01*
X145989152Y-110158500D01*
X146210848Y-110158500D01*
X146210851Y-110158500D01*
X146429824Y-110123818D01*
X146640676Y-110055308D01*
X146838215Y-109954657D01*
X147017576Y-109824343D01*
X147174343Y-109667576D01*
X147248064Y-109566107D01*
X147304287Y-109522754D01*
X147375023Y-109516679D01*
X147437814Y-109549811D01*
X147451936Y-109566108D01*
X147525658Y-109667578D01*
X147682421Y-109824341D01*
X147682424Y-109824343D01*
X147861785Y-109954657D01*
X148059324Y-110055308D01*
X148270176Y-110123818D01*
X148489149Y-110158500D01*
X148489152Y-110158500D01*
X148710848Y-110158500D01*
X148710851Y-110158500D01*
X148929824Y-110123818D01*
X149140676Y-110055308D01*
X149338215Y-109954657D01*
X149517576Y-109824343D01*
X149674343Y-109667576D01*
X149804657Y-109488215D01*
X149905308Y-109290676D01*
X149973818Y-109079824D01*
X150008500Y-108860851D01*
X150008500Y-108639149D01*
X149973818Y-108420176D01*
X149905308Y-108209324D01*
X149804657Y-108011785D01*
X149674343Y-107832424D01*
X149674341Y-107832421D01*
X149517578Y-107675658D01*
X149338218Y-107545345D01*
X149338217Y-107545344D01*
X149338215Y-107545343D01*
X149140676Y-107444692D01*
X149140673Y-107444691D01*
X149140671Y-107444690D01*
X148929829Y-107376183D01*
X148929825Y-107376182D01*
X148929824Y-107376182D01*
X148710851Y-107341500D01*
X148489149Y-107341500D01*
X148270176Y-107376182D01*
X148270170Y-107376183D01*
X148059328Y-107444690D01*
X148059322Y-107444693D01*
X147861781Y-107545345D01*
X147682421Y-107675658D01*
X147525662Y-107832417D01*
X147451936Y-107933892D01*
X147395713Y-107977245D01*
X147324977Y-107983320D01*
X147262185Y-107950188D01*
X147248064Y-107933892D01*
X147174343Y-107832424D01*
X147174339Y-107832420D01*
X147174337Y-107832417D01*
X147017578Y-107675658D01*
X146838218Y-107545345D01*
X146838217Y-107545344D01*
X146838215Y-107545343D01*
X146640676Y-107444692D01*
X146640673Y-107444691D01*
X146640671Y-107444690D01*
X146429829Y-107376183D01*
X146429825Y-107376182D01*
X146429824Y-107376182D01*
X146210851Y-107341500D01*
X145989149Y-107341500D01*
X145770176Y-107376182D01*
X145770170Y-107376183D01*
X145559328Y-107444690D01*
X145559322Y-107444693D01*
X145361781Y-107545345D01*
X145182421Y-107675658D01*
X145025662Y-107832417D01*
X144951936Y-107933892D01*
X144895713Y-107977245D01*
X144824977Y-107983320D01*
X144762185Y-107950188D01*
X144748064Y-107933892D01*
X144674343Y-107832424D01*
X144674339Y-107832420D01*
X144674337Y-107832417D01*
X144517578Y-107675658D01*
X144338218Y-107545345D01*
X144338217Y-107545344D01*
X144338215Y-107545343D01*
X144140676Y-107444692D01*
X144140673Y-107444691D01*
X144140671Y-107444690D01*
X143929829Y-107376183D01*
X143929825Y-107376182D01*
X143929824Y-107376182D01*
X143710851Y-107341500D01*
X143489149Y-107341500D01*
X143270176Y-107376182D01*
X143270170Y-107376183D01*
X143059328Y-107444690D01*
X143059322Y-107444693D01*
X142861781Y-107545345D01*
X142682421Y-107675658D01*
X142525658Y-107832421D01*
X142395345Y-108011781D01*
X142294693Y-108209322D01*
X142294690Y-108209328D01*
X142226183Y-108420170D01*
X142226182Y-108420175D01*
X142226182Y-108420176D01*
X142191500Y-108639149D01*
X125808500Y-108639149D01*
X125773818Y-108420176D01*
X125705308Y-108209324D01*
X125604657Y-108011785D01*
X125474343Y-107832424D01*
X125474341Y-107832421D01*
X125317578Y-107675658D01*
X125138218Y-107545345D01*
X125138217Y-107545344D01*
X125138215Y-107545343D01*
X124940676Y-107444692D01*
X124940673Y-107444691D01*
X124940671Y-107444690D01*
X124729829Y-107376183D01*
X124729825Y-107376182D01*
X124729824Y-107376182D01*
X124510851Y-107341500D01*
X124289149Y-107341500D01*
X124070176Y-107376182D01*
X124070170Y-107376183D01*
X123859328Y-107444690D01*
X123859322Y-107444693D01*
X123661781Y-107545345D01*
X123482421Y-107675658D01*
X123325662Y-107832417D01*
X123251936Y-107933892D01*
X123195713Y-107977245D01*
X123124977Y-107983320D01*
X123062185Y-107950188D01*
X123048064Y-107933892D01*
X122974343Y-107832424D01*
X122974339Y-107832420D01*
X122974337Y-107832417D01*
X122817578Y-107675658D01*
X122638218Y-107545345D01*
X122638217Y-107545344D01*
X122638215Y-107545343D01*
X122440676Y-107444692D01*
X122440673Y-107444691D01*
X122440671Y-107444690D01*
X122229829Y-107376183D01*
X122229825Y-107376182D01*
X122229824Y-107376182D01*
X122010851Y-107341500D01*
X121789149Y-107341500D01*
X121570176Y-107376182D01*
X121570170Y-107376183D01*
X121359328Y-107444690D01*
X121359322Y-107444693D01*
X121161781Y-107545345D01*
X120982421Y-107675658D01*
X120825662Y-107832417D01*
X120751936Y-107933892D01*
X120695713Y-107977245D01*
X120624977Y-107983320D01*
X120562185Y-107950188D01*
X120548064Y-107933892D01*
X120474343Y-107832424D01*
X120474339Y-107832420D01*
X120474337Y-107832417D01*
X120317578Y-107675658D01*
X120138218Y-107545345D01*
X120138217Y-107545344D01*
X120138215Y-107545343D01*
X119940676Y-107444692D01*
X119940673Y-107444691D01*
X119940671Y-107444690D01*
X119729829Y-107376183D01*
X119729825Y-107376182D01*
X119729824Y-107376182D01*
X119510851Y-107341500D01*
X119289149Y-107341500D01*
X119070176Y-107376182D01*
X119070170Y-107376183D01*
X118859328Y-107444690D01*
X118859322Y-107444693D01*
X118661781Y-107545345D01*
X118482421Y-107675658D01*
X118325658Y-107832421D01*
X118195345Y-108011781D01*
X118094693Y-108209322D01*
X118094690Y-108209328D01*
X118026183Y-108420170D01*
X118026182Y-108420175D01*
X118026182Y-108420176D01*
X117991500Y-108639149D01*
X109500500Y-108639149D01*
X109500500Y-101609124D01*
X114991500Y-101609124D01*
X114991500Y-101890875D01*
X115023045Y-102170855D01*
X115085741Y-102445542D01*
X115178789Y-102711456D01*
X115178800Y-102711483D01*
X115301043Y-102965324D01*
X115450942Y-103203885D01*
X115626604Y-103424160D01*
X115825839Y-103623395D01*
X116046114Y-103799057D01*
X116284675Y-103948956D01*
X116284678Y-103948957D01*
X116284679Y-103948958D01*
X116538526Y-104071204D01*
X116538542Y-104071209D01*
X116538543Y-104071210D01*
X116804457Y-104164258D01*
X116804460Y-104164258D01*
X116804464Y-104164260D01*
X117079144Y-104226954D01*
X117079145Y-104226954D01*
X117079148Y-104226955D01*
X117244271Y-104245559D01*
X117359124Y-104258500D01*
X117359126Y-104258500D01*
X117640876Y-104258500D01*
X117711977Y-104250488D01*
X117920852Y-104226955D01*
X118195536Y-104164260D01*
X118461474Y-104071204D01*
X118715321Y-103948958D01*
X118953884Y-103799058D01*
X118997940Y-103763924D01*
X119174160Y-103623395D01*
X119373395Y-103424160D01*
X119549057Y-103203885D01*
X119698956Y-102965324D01*
X119698955Y-102965324D01*
X119698958Y-102965321D01*
X119821204Y-102711474D01*
X119914260Y-102445536D01*
X119976955Y-102170852D01*
X120008500Y-101890874D01*
X120008500Y-101609126D01*
X120008500Y-101609124D01*
X123791500Y-101609124D01*
X123791500Y-101890875D01*
X123823045Y-102170855D01*
X123885741Y-102445542D01*
X123978789Y-102711456D01*
X123978800Y-102711483D01*
X124101043Y-102965324D01*
X124250942Y-103203885D01*
X124426604Y-103424160D01*
X124625839Y-103623395D01*
X124846114Y-103799057D01*
X125084675Y-103948956D01*
X125084678Y-103948957D01*
X125084679Y-103948958D01*
X125338526Y-104071204D01*
X125338542Y-104071209D01*
X125338543Y-104071210D01*
X125604457Y-104164258D01*
X125604460Y-104164258D01*
X125604464Y-104164260D01*
X125879144Y-104226954D01*
X125879145Y-104226954D01*
X125879148Y-104226955D01*
X126044271Y-104245559D01*
X126159124Y-104258500D01*
X126159126Y-104258500D01*
X126440876Y-104258500D01*
X126511977Y-104250488D01*
X126720852Y-104226955D01*
X126995536Y-104164260D01*
X127261474Y-104071204D01*
X127515321Y-103948958D01*
X127753884Y-103799058D01*
X127797940Y-103763924D01*
X127974160Y-103623395D01*
X128173395Y-103424160D01*
X128349057Y-103203885D01*
X128498956Y-102965324D01*
X128498955Y-102965324D01*
X128498958Y-102965321D01*
X128621204Y-102711474D01*
X128714260Y-102445536D01*
X128776955Y-102170852D01*
X128808500Y-101890874D01*
X128808500Y-101609126D01*
X128808500Y-101609124D01*
X139191500Y-101609124D01*
X139191500Y-101890875D01*
X139223045Y-102170855D01*
X139285741Y-102445542D01*
X139378789Y-102711456D01*
X139378800Y-102711483D01*
X139501043Y-102965324D01*
X139650942Y-103203885D01*
X139826604Y-103424160D01*
X140025839Y-103623395D01*
X140246114Y-103799057D01*
X140484675Y-103948956D01*
X140484678Y-103948957D01*
X140484679Y-103948958D01*
X140738526Y-104071204D01*
X140738542Y-104071209D01*
X140738543Y-104071210D01*
X141004457Y-104164258D01*
X141004460Y-104164258D01*
X141004464Y-104164260D01*
X141279144Y-104226954D01*
X141279145Y-104226954D01*
X141279148Y-104226955D01*
X141444271Y-104245559D01*
X141559124Y-104258500D01*
X141559126Y-104258500D01*
X141840876Y-104258500D01*
X141911977Y-104250488D01*
X142120852Y-104226955D01*
X142395536Y-104164260D01*
X142661474Y-104071204D01*
X142915321Y-103948958D01*
X143153884Y-103799058D01*
X143197940Y-103763924D01*
X143374160Y-103623395D01*
X143573395Y-103424160D01*
X143749057Y-103203885D01*
X143898956Y-102965324D01*
X143898955Y-102965324D01*
X143898958Y-102965321D01*
X144021204Y-102711474D01*
X144114260Y-102445536D01*
X144176955Y-102170852D01*
X144208500Y-101890874D01*
X144208500Y-101609126D01*
X144176955Y-101329148D01*
X144114260Y-101054464D01*
X144105845Y-101030416D01*
X144021210Y-100788543D01*
X144021209Y-100788542D01*
X144021204Y-100788526D01*
X143898958Y-100534679D01*
X143898957Y-100534678D01*
X143898956Y-100534675D01*
X143749057Y-100296114D01*
X143573395Y-100075839D01*
X143374160Y-99876604D01*
X143153885Y-99700942D01*
X142915324Y-99551043D01*
X142661483Y-99428800D01*
X142661478Y-99428798D01*
X142661474Y-99428796D01*
X142661468Y-99428793D01*
X142661456Y-99428789D01*
X142395542Y-99335741D01*
X142120854Y-99273045D01*
X142120857Y-99273045D01*
X141840876Y-99241500D01*
X141840874Y-99241500D01*
X141559126Y-99241500D01*
X141559124Y-99241500D01*
X141279144Y-99273045D01*
X141004457Y-99335741D01*
X140738543Y-99428789D01*
X140738516Y-99428800D01*
X140484675Y-99551043D01*
X140246114Y-99700942D01*
X140025839Y-99876604D01*
X139826604Y-100075839D01*
X139650942Y-100296114D01*
X139501043Y-100534675D01*
X139378800Y-100788516D01*
X139378789Y-100788543D01*
X139285741Y-101054457D01*
X139223045Y-101329144D01*
X139191500Y-101609124D01*
X128808500Y-101609124D01*
X128776955Y-101329148D01*
X128714260Y-101054464D01*
X128705845Y-101030416D01*
X128621210Y-100788543D01*
X128621209Y-100788542D01*
X128621204Y-100788526D01*
X128498958Y-100534679D01*
X128498957Y-100534678D01*
X128498956Y-100534675D01*
X128349057Y-100296114D01*
X128173395Y-100075839D01*
X127974160Y-99876604D01*
X127753885Y-99700942D01*
X127515324Y-99551043D01*
X127261483Y-99428800D01*
X127261478Y-99428798D01*
X127261474Y-99428796D01*
X127261468Y-99428793D01*
X127261456Y-99428789D01*
X126995542Y-99335741D01*
X126720854Y-99273045D01*
X126720857Y-99273045D01*
X126440876Y-99241500D01*
X126440874Y-99241500D01*
X126159126Y-99241500D01*
X126159124Y-99241500D01*
X125879144Y-99273045D01*
X125604457Y-99335741D01*
X125338543Y-99428789D01*
X125338516Y-99428800D01*
X125084675Y-99551043D01*
X124846114Y-99700942D01*
X124625839Y-99876604D01*
X124426604Y-100075839D01*
X124250942Y-100296114D01*
X124101043Y-100534675D01*
X123978800Y-100788516D01*
X123978789Y-100788543D01*
X123885741Y-101054457D01*
X123823045Y-101329144D01*
X123791500Y-101609124D01*
X120008500Y-101609124D01*
X119976955Y-101329148D01*
X119914260Y-101054464D01*
X119905845Y-101030416D01*
X119821210Y-100788543D01*
X119821209Y-100788542D01*
X119821204Y-100788526D01*
X119698958Y-100534679D01*
X119698957Y-100534678D01*
X119698956Y-100534675D01*
X119549057Y-100296114D01*
X119373395Y-100075839D01*
X119174160Y-99876604D01*
X118953885Y-99700942D01*
X118715324Y-99551043D01*
X118461483Y-99428800D01*
X118461478Y-99428798D01*
X118461474Y-99428796D01*
X118461468Y-99428793D01*
X118461456Y-99428789D01*
X118195542Y-99335741D01*
X117920854Y-99273045D01*
X117920857Y-99273045D01*
X117640876Y-99241500D01*
X117640874Y-99241500D01*
X117359126Y-99241500D01*
X117359124Y-99241500D01*
X117079144Y-99273045D01*
X116804457Y-99335741D01*
X116538543Y-99428789D01*
X116538516Y-99428800D01*
X116284675Y-99551043D01*
X116046114Y-99700942D01*
X115825839Y-99876604D01*
X115626604Y-100075839D01*
X115450942Y-100296114D01*
X115301043Y-100534675D01*
X115178800Y-100788516D01*
X115178789Y-100788543D01*
X115085741Y-101054457D01*
X115023045Y-101329144D01*
X114991500Y-101609124D01*
X109500500Y-101609124D01*
X109500500Y-95505901D01*
X109520502Y-95437780D01*
X109574158Y-95391287D01*
X109644432Y-95381183D01*
X109709012Y-95410677D01*
X109715595Y-95416806D01*
X109864990Y-95566201D01*
X109864993Y-95566203D01*
X109864996Y-95566206D01*
X110037991Y-95691894D01*
X110228517Y-95788972D01*
X110431878Y-95855047D01*
X110431879Y-95855047D01*
X110431884Y-95855049D01*
X110643084Y-95888500D01*
X110643087Y-95888500D01*
X110856913Y-95888500D01*
X110856916Y-95888500D01*
X111068116Y-95855049D01*
X111068125Y-95855046D01*
X111070032Y-95854744D01*
X111140443Y-95863843D01*
X111178838Y-95890098D01*
X112348273Y-97059532D01*
X113508510Y-98219769D01*
X113600231Y-98311490D01*
X113708083Y-98383555D01*
X113827923Y-98433194D01*
X113955143Y-98458500D01*
X128729113Y-98458500D01*
X128797234Y-98478502D01*
X128843727Y-98532158D01*
X128853831Y-98602432D01*
X128841380Y-98641703D01*
X128787367Y-98747708D01*
X128787364Y-98747714D01*
X128723721Y-98943587D01*
X128723720Y-98943590D01*
X128723720Y-98943592D01*
X128691500Y-99147019D01*
X128691500Y-99352981D01*
X128723720Y-99556408D01*
X128787366Y-99752290D01*
X128880871Y-99935803D01*
X129001932Y-100102430D01*
X129001934Y-100102432D01*
X129001936Y-100102435D01*
X129147564Y-100248063D01*
X129147567Y-100248065D01*
X129147570Y-100248068D01*
X129314197Y-100369129D01*
X129497710Y-100462634D01*
X129693592Y-100526280D01*
X129897019Y-100558500D01*
X129897022Y-100558500D01*
X130102978Y-100558500D01*
X130102981Y-100558500D01*
X130306408Y-100526280D01*
X130502290Y-100462634D01*
X130685803Y-100369129D01*
X130852430Y-100248068D01*
X130852435Y-100248063D01*
X130900033Y-100200466D01*
X130998063Y-100102435D01*
X130998068Y-100102430D01*
X131119129Y-99935803D01*
X131212634Y-99752290D01*
X131276280Y-99556408D01*
X131308500Y-99352981D01*
X131308500Y-99147019D01*
X131276280Y-98943592D01*
X131212634Y-98747710D01*
X131158619Y-98641701D01*
X131145516Y-98571926D01*
X131172216Y-98506142D01*
X131230243Y-98465235D01*
X131270887Y-98458500D01*
X133729673Y-98458500D01*
X133797794Y-98478502D01*
X133844287Y-98532158D01*
X133854391Y-98602432D01*
X133841940Y-98641703D01*
X133787829Y-98747900D01*
X133787826Y-98747906D01*
X133724208Y-98943703D01*
X133692000Y-99147061D01*
X133692000Y-99352938D01*
X133724208Y-99556296D01*
X133787826Y-99752093D01*
X133787829Y-99752099D01*
X133881297Y-99935540D01*
X133881298Y-99935541D01*
X133912416Y-99978372D01*
X133912417Y-99978372D01*
X134600000Y-99290789D01*
X134600000Y-99302661D01*
X134627259Y-99404394D01*
X134679920Y-99495606D01*
X134754394Y-99570080D01*
X134845606Y-99622741D01*
X134947339Y-99650000D01*
X134959210Y-99650000D01*
X134271626Y-100337582D01*
X134271626Y-100337583D01*
X134314454Y-100368699D01*
X134497900Y-100462170D01*
X134497906Y-100462173D01*
X134693705Y-100525791D01*
X134693701Y-100525791D01*
X134897061Y-100558000D01*
X135102939Y-100558000D01*
X135306296Y-100525791D01*
X135502093Y-100462173D01*
X135502099Y-100462170D01*
X135685541Y-100368701D01*
X135728372Y-100337582D01*
X135728372Y-100337581D01*
X135040791Y-99650000D01*
X135052661Y-99650000D01*
X135154394Y-99622741D01*
X135245606Y-99570080D01*
X135320080Y-99495606D01*
X135372741Y-99404394D01*
X135400000Y-99302661D01*
X135400000Y-99290789D01*
X136087582Y-99978372D01*
X136118701Y-99935541D01*
X136212170Y-99752099D01*
X136212173Y-99752093D01*
X136275791Y-99556296D01*
X136308000Y-99352938D01*
X136308000Y-99147061D01*
X136275791Y-98943703D01*
X136212173Y-98747906D01*
X136212170Y-98747900D01*
X136158060Y-98641703D01*
X136144956Y-98571926D01*
X136171656Y-98506142D01*
X136229683Y-98465235D01*
X136270327Y-98458500D01*
X138414857Y-98458500D01*
X138542077Y-98433194D01*
X138661917Y-98383555D01*
X138769769Y-98311491D01*
X144111490Y-92969769D01*
X144183555Y-92861917D01*
X144233194Y-92742077D01*
X144241164Y-92702009D01*
X144258500Y-92614857D01*
X144258500Y-89622486D01*
X144278502Y-89554365D01*
X144327300Y-89510217D01*
X144338215Y-89504657D01*
X144517576Y-89374343D01*
X144674343Y-89217576D01*
X144748064Y-89116107D01*
X144804287Y-89072754D01*
X144875023Y-89066679D01*
X144937814Y-89099811D01*
X144951935Y-89116106D01*
X144963398Y-89131884D01*
X145025658Y-89217578D01*
X145182421Y-89374341D01*
X145182424Y-89374343D01*
X145361785Y-89504657D01*
X145559324Y-89605308D01*
X145770176Y-89673818D01*
X145989149Y-89708500D01*
X145989152Y-89708500D01*
X146210848Y-89708500D01*
X146210851Y-89708500D01*
X146429824Y-89673818D01*
X146640676Y-89605308D01*
X146838215Y-89504657D01*
X147017576Y-89374343D01*
X147174343Y-89217576D01*
X147248064Y-89116107D01*
X147304287Y-89072754D01*
X147375023Y-89066679D01*
X147437814Y-89099811D01*
X147451935Y-89116106D01*
X147463398Y-89131884D01*
X147525658Y-89217578D01*
X147682421Y-89374341D01*
X147682424Y-89374343D01*
X147861785Y-89504657D01*
X148059324Y-89605308D01*
X148270176Y-89673818D01*
X148489149Y-89708500D01*
X148489152Y-89708500D01*
X148710848Y-89708500D01*
X148710851Y-89708500D01*
X148929824Y-89673818D01*
X149140676Y-89605308D01*
X149338215Y-89504657D01*
X149517576Y-89374343D01*
X149674343Y-89217576D01*
X149804657Y-89038215D01*
X149905308Y-88840676D01*
X149973818Y-88629824D01*
X150008500Y-88410851D01*
X150008500Y-88189149D01*
X149973818Y-87970176D01*
X149905308Y-87759324D01*
X149804657Y-87561785D01*
X149674343Y-87382424D01*
X149674341Y-87382421D01*
X149517578Y-87225658D01*
X149338218Y-87095345D01*
X149338217Y-87095344D01*
X149338215Y-87095343D01*
X149140676Y-86994692D01*
X149140673Y-86994691D01*
X149140671Y-86994690D01*
X148929829Y-86926183D01*
X148929825Y-86926182D01*
X148929824Y-86926182D01*
X148710851Y-86891500D01*
X148489149Y-86891500D01*
X148270176Y-86926182D01*
X148270170Y-86926183D01*
X148059328Y-86994690D01*
X148059322Y-86994693D01*
X147861781Y-87095345D01*
X147682421Y-87225658D01*
X147525662Y-87382417D01*
X147451936Y-87483892D01*
X147395713Y-87527245D01*
X147324977Y-87533320D01*
X147262185Y-87500188D01*
X147248064Y-87483892D01*
X147223492Y-87450072D01*
X147174343Y-87382424D01*
X147174339Y-87382420D01*
X147174337Y-87382417D01*
X147017578Y-87225658D01*
X146838218Y-87095345D01*
X146838217Y-87095344D01*
X146838215Y-87095343D01*
X146640676Y-86994692D01*
X146640673Y-86994691D01*
X146640671Y-86994690D01*
X146429829Y-86926183D01*
X146429825Y-86926182D01*
X146429824Y-86926182D01*
X146210851Y-86891500D01*
X145989149Y-86891500D01*
X145770176Y-86926182D01*
X145770170Y-86926183D01*
X145559328Y-86994690D01*
X145559322Y-86994693D01*
X145361781Y-87095345D01*
X145182421Y-87225658D01*
X145025662Y-87382417D01*
X144951936Y-87483892D01*
X144895713Y-87527245D01*
X144824977Y-87533320D01*
X144762185Y-87500188D01*
X144748064Y-87483892D01*
X144723492Y-87450072D01*
X144674343Y-87382424D01*
X144674339Y-87382420D01*
X144674337Y-87382417D01*
X144517578Y-87225658D01*
X144338218Y-87095345D01*
X144338217Y-87095344D01*
X144338215Y-87095343D01*
X144140676Y-86994692D01*
X144140673Y-86994691D01*
X144140671Y-86994690D01*
X143929829Y-86926183D01*
X143929825Y-86926182D01*
X143929824Y-86926182D01*
X143710851Y-86891500D01*
X143489149Y-86891500D01*
X143270176Y-86926182D01*
X143270170Y-86926183D01*
X143059328Y-86994690D01*
X143059322Y-86994693D01*
X142861781Y-87095345D01*
X142682421Y-87225658D01*
X142525658Y-87382421D01*
X142395345Y-87561781D01*
X142294693Y-87759322D01*
X142294690Y-87759328D01*
X142226183Y-87970170D01*
X142226182Y-87970175D01*
X142226182Y-87970176D01*
X142191500Y-88189149D01*
X142191500Y-88410851D01*
X142216600Y-88569323D01*
X142226183Y-88629829D01*
X142294629Y-88840483D01*
X142294692Y-88840676D01*
X142350000Y-88949224D01*
X142395345Y-89038218D01*
X142525658Y-89217578D01*
X142682421Y-89374341D01*
X142682424Y-89374343D01*
X142861785Y-89504657D01*
X142872698Y-89510217D01*
X142924315Y-89558962D01*
X142941500Y-89622486D01*
X142941500Y-92225050D01*
X142921498Y-92293171D01*
X142904595Y-92314145D01*
X139323595Y-95895145D01*
X139261283Y-95929171D01*
X139190468Y-95924106D01*
X139133632Y-95881559D01*
X139108821Y-95815039D01*
X139108500Y-95806050D01*
X139108500Y-95201367D01*
X139108499Y-95201350D01*
X139101990Y-95140803D01*
X139101989Y-95140802D01*
X139101989Y-95140799D01*
X139086405Y-95099019D01*
X139081340Y-95028207D01*
X139115362Y-94965896D01*
X139611491Y-94469769D01*
X139683555Y-94361917D01*
X139733194Y-94242077D01*
X139737967Y-94218083D01*
X139758500Y-94114857D01*
X139758500Y-92205143D01*
X139753912Y-92182077D01*
X139733195Y-92077923D01*
X139733193Y-92077920D01*
X139733193Y-92077916D01*
X139683557Y-91958087D01*
X139683555Y-91958083D01*
X139658663Y-91920829D01*
X139611491Y-91850231D01*
X139116397Y-91355137D01*
X139082371Y-91292825D01*
X139081043Y-91246335D01*
X139108500Y-91072981D01*
X139108500Y-90867019D01*
X139076280Y-90663592D01*
X139012634Y-90467710D01*
X138919129Y-90284197D01*
X138798068Y-90117570D01*
X138798065Y-90117567D01*
X138798063Y-90117564D01*
X138652435Y-89971936D01*
X138652432Y-89971934D01*
X138652430Y-89971932D01*
X138485803Y-89850871D01*
X138410034Y-89812265D01*
X138358422Y-89763519D01*
X138341356Y-89694604D01*
X138364257Y-89627402D01*
X138410034Y-89587735D01*
X138485803Y-89549129D01*
X138652430Y-89428068D01*
X138798068Y-89282430D01*
X138919129Y-89115803D01*
X139012634Y-88932290D01*
X139076280Y-88736408D01*
X139108500Y-88532981D01*
X139108500Y-88327019D01*
X139076280Y-88123592D01*
X139012634Y-87927710D01*
X138919129Y-87744197D01*
X138798068Y-87577570D01*
X138798065Y-87577567D01*
X138798063Y-87577564D01*
X138652435Y-87431936D01*
X138652432Y-87431934D01*
X138652430Y-87431932D01*
X138485803Y-87310871D01*
X138302290Y-87217366D01*
X138302287Y-87217365D01*
X138302285Y-87217364D01*
X138106412Y-87153721D01*
X138106410Y-87153720D01*
X138106408Y-87153720D01*
X137902981Y-87121500D01*
X137697019Y-87121500D01*
X137493592Y-87153720D01*
X137493590Y-87153720D01*
X137493587Y-87153721D01*
X137297714Y-87217364D01*
X137297708Y-87217367D01*
X137114193Y-87310873D01*
X136947567Y-87431934D01*
X136947564Y-87431936D01*
X136801936Y-87577564D01*
X136801934Y-87577567D01*
X136680873Y-87744193D01*
X136587367Y-87927708D01*
X136587364Y-87927714D01*
X136523721Y-88123587D01*
X136523720Y-88123590D01*
X136523720Y-88123592D01*
X136491500Y-88327019D01*
X136491500Y-88532981D01*
X136523720Y-88736408D01*
X136523721Y-88736412D01*
X136580099Y-88909927D01*
X136587366Y-88932290D01*
X136680871Y-89115803D01*
X136680873Y-89115806D01*
X136692550Y-89131878D01*
X136801932Y-89282430D01*
X136801934Y-89282432D01*
X136801936Y-89282435D01*
X136947564Y-89428063D01*
X136947567Y-89428065D01*
X136947570Y-89428068D01*
X137114197Y-89549129D01*
X137189962Y-89587733D01*
X137241577Y-89636482D01*
X137258643Y-89705397D01*
X137235742Y-89772598D01*
X137189963Y-89812266D01*
X137134665Y-89840442D01*
X137114193Y-89850873D01*
X136947567Y-89971934D01*
X136947564Y-89971936D01*
X136801936Y-90117564D01*
X136801934Y-90117567D01*
X136680873Y-90284193D01*
X136587367Y-90467708D01*
X136587364Y-90467714D01*
X136523721Y-90663587D01*
X136523721Y-90663588D01*
X136523720Y-90663592D01*
X136492486Y-90860799D01*
X136491500Y-90867022D01*
X136491500Y-90966050D01*
X136471498Y-91034171D01*
X136417842Y-91080664D01*
X136347568Y-91090768D01*
X136282988Y-91061274D01*
X136276405Y-91055145D01*
X134529773Y-89308513D01*
X134529769Y-89308509D01*
X134421917Y-89236445D01*
X134376363Y-89217576D01*
X134302080Y-89186807D01*
X134302077Y-89186806D01*
X134174860Y-89161500D01*
X134174857Y-89161500D01*
X131481459Y-89161500D01*
X131413338Y-89141498D01*
X131366845Y-89087842D01*
X131356741Y-89017568D01*
X131369192Y-88978298D01*
X131392630Y-88932297D01*
X131392634Y-88932290D01*
X131456280Y-88736408D01*
X131488500Y-88532981D01*
X131488500Y-88327019D01*
X131456280Y-88123592D01*
X131392634Y-87927710D01*
X131299129Y-87744197D01*
X131178068Y-87577570D01*
X131178065Y-87577567D01*
X131178063Y-87577564D01*
X131032435Y-87431936D01*
X131032432Y-87431934D01*
X131032430Y-87431932D01*
X130865803Y-87310871D01*
X130682290Y-87217366D01*
X130682287Y-87217365D01*
X130682285Y-87217364D01*
X130486412Y-87153721D01*
X130486410Y-87153720D01*
X130486408Y-87153720D01*
X130282981Y-87121500D01*
X130077019Y-87121500D01*
X129873592Y-87153720D01*
X129873590Y-87153720D01*
X129873587Y-87153721D01*
X129677714Y-87217364D01*
X129677708Y-87217367D01*
X129494193Y-87310873D01*
X129327567Y-87431934D01*
X129327564Y-87431936D01*
X129181936Y-87577564D01*
X129181934Y-87577567D01*
X129060873Y-87744193D01*
X128967367Y-87927708D01*
X128967364Y-87927714D01*
X128903721Y-88123587D01*
X128903720Y-88123590D01*
X128903720Y-88123592D01*
X128871500Y-88327019D01*
X128871500Y-88532981D01*
X128903720Y-88736408D01*
X128903721Y-88736412D01*
X128967364Y-88932285D01*
X128967369Y-88932297D01*
X128990808Y-88978298D01*
X129003912Y-89048074D01*
X128977212Y-89113859D01*
X128919184Y-89154765D01*
X128878541Y-89161500D01*
X125746893Y-89161500D01*
X125678772Y-89141498D01*
X125632279Y-89087842D01*
X125622175Y-89017568D01*
X125634626Y-88978298D01*
X125704841Y-88840491D01*
X125704844Y-88840483D01*
X125773329Y-88629710D01*
X125808000Y-88410808D01*
X125808000Y-88189191D01*
X125773329Y-87970289D01*
X125704844Y-87759516D01*
X125704843Y-87759514D01*
X125604229Y-87562047D01*
X125559174Y-87500035D01*
X125559173Y-87500035D01*
X124884157Y-88175051D01*
X124865925Y-88107007D01*
X124800099Y-87992993D01*
X124707007Y-87899901D01*
X124592993Y-87834075D01*
X124524946Y-87815841D01*
X125199963Y-87140824D01*
X125137952Y-87095770D01*
X124940485Y-86995156D01*
X124940483Y-86995155D01*
X124729710Y-86926670D01*
X124510809Y-86892000D01*
X124289191Y-86892000D01*
X124070289Y-86926670D01*
X123859516Y-86995155D01*
X123859514Y-86995156D01*
X123662043Y-87095772D01*
X123600035Y-87140823D01*
X123600035Y-87140825D01*
X124275052Y-87815842D01*
X124207007Y-87834075D01*
X124092993Y-87899901D01*
X123999901Y-87992993D01*
X123934075Y-88107007D01*
X123915842Y-88175052D01*
X123240825Y-87500035D01*
X123230839Y-87500821D01*
X123196022Y-87527670D01*
X123125285Y-87533745D01*
X123062494Y-87500613D01*
X123048372Y-87484316D01*
X123023492Y-87450072D01*
X122974343Y-87382424D01*
X122974340Y-87382421D01*
X122974338Y-87382418D01*
X122817578Y-87225658D01*
X122638218Y-87095345D01*
X122638217Y-87095344D01*
X122638215Y-87095343D01*
X122440676Y-86994692D01*
X122440673Y-86994691D01*
X122440671Y-86994690D01*
X122229829Y-86926183D01*
X122229825Y-86926182D01*
X122229824Y-86926182D01*
X122010851Y-86891500D01*
X121789149Y-86891500D01*
X121570176Y-86926182D01*
X121570170Y-86926183D01*
X121359328Y-86994690D01*
X121359322Y-86994693D01*
X121161781Y-87095345D01*
X120982421Y-87225658D01*
X120825662Y-87382417D01*
X120751936Y-87483892D01*
X120695713Y-87527245D01*
X120624977Y-87533320D01*
X120562185Y-87500188D01*
X120548064Y-87483892D01*
X120523492Y-87450072D01*
X120474343Y-87382424D01*
X120474339Y-87382420D01*
X120474337Y-87382417D01*
X120317578Y-87225658D01*
X120138218Y-87095345D01*
X120138217Y-87095344D01*
X120138215Y-87095343D01*
X119940676Y-86994692D01*
X119940673Y-86994691D01*
X119940671Y-86994690D01*
X119729829Y-86926183D01*
X119729825Y-86926182D01*
X119729824Y-86926182D01*
X119510851Y-86891500D01*
X119289149Y-86891500D01*
X119070176Y-86926182D01*
X119070170Y-86926183D01*
X118859328Y-86994690D01*
X118859322Y-86994693D01*
X118661781Y-87095345D01*
X118482421Y-87225658D01*
X118325658Y-87382421D01*
X118195345Y-87561781D01*
X118094693Y-87759322D01*
X118094690Y-87759328D01*
X118026183Y-87970170D01*
X118026182Y-87970175D01*
X118026182Y-87970176D01*
X117991500Y-88189149D01*
X117991500Y-88410851D01*
X118016600Y-88569323D01*
X118026183Y-88629829D01*
X118094629Y-88840483D01*
X118094692Y-88840676D01*
X118150000Y-88949224D01*
X118195345Y-89038218D01*
X118325658Y-89217578D01*
X118482421Y-89374341D01*
X118482424Y-89374343D01*
X118661785Y-89504657D01*
X118859324Y-89605308D01*
X119070176Y-89673818D01*
X119289149Y-89708500D01*
X119289152Y-89708500D01*
X119510848Y-89708500D01*
X119510851Y-89708500D01*
X119729824Y-89673818D01*
X119741476Y-89670031D01*
X119812441Y-89668002D01*
X119869507Y-89700767D01*
X120206566Y-90037826D01*
X120452928Y-90284188D01*
X120486953Y-90346500D01*
X120481888Y-90417316D01*
X120465769Y-90447343D01*
X120380872Y-90564194D01*
X120287367Y-90747708D01*
X120287364Y-90747714D01*
X120223721Y-90943587D01*
X120223720Y-90943590D01*
X120223720Y-90943592D01*
X120191500Y-91147019D01*
X120191500Y-91352981D01*
X120223720Y-91556408D01*
X120223721Y-91556412D01*
X120274530Y-91712787D01*
X120287366Y-91752290D01*
X120380871Y-91935803D01*
X120501932Y-92102430D01*
X120501934Y-92102432D01*
X120501936Y-92102435D01*
X120647564Y-92248063D01*
X120647567Y-92248065D01*
X120647570Y-92248068D01*
X120814197Y-92369129D01*
X120997710Y-92462634D01*
X121193592Y-92526280D01*
X121397019Y-92558500D01*
X121397022Y-92558500D01*
X121602978Y-92558500D01*
X121602981Y-92558500D01*
X121806408Y-92526280D01*
X122002290Y-92462634D01*
X122185803Y-92369129D01*
X122352430Y-92248068D01*
X122498068Y-92102430D01*
X122619129Y-91935803D01*
X122712634Y-91752290D01*
X122776280Y-91556408D01*
X122808500Y-91352981D01*
X122808500Y-91147019D01*
X122776280Y-90943592D01*
X122712634Y-90747710D01*
X122668810Y-90661702D01*
X122655707Y-90591926D01*
X122682407Y-90526141D01*
X122740435Y-90485235D01*
X122781078Y-90478500D01*
X128790436Y-90478500D01*
X128858557Y-90498502D01*
X128905050Y-90552158D01*
X128915154Y-90622432D01*
X128910269Y-90643437D01*
X128903722Y-90663587D01*
X128903720Y-90663592D01*
X128871500Y-90867019D01*
X128871500Y-91072981D01*
X128903720Y-91276408D01*
X128903721Y-91276412D01*
X128960099Y-91449927D01*
X128967366Y-91472290D01*
X129060871Y-91655803D01*
X129181932Y-91822430D01*
X129181934Y-91822432D01*
X129181936Y-91822435D01*
X129327564Y-91968063D01*
X129327567Y-91968065D01*
X129327570Y-91968068D01*
X129469562Y-92071230D01*
X129472955Y-92075631D01*
X129478012Y-92077941D01*
X129494398Y-92103439D01*
X129512915Y-92127451D01*
X129514188Y-92134232D01*
X129516396Y-92137667D01*
X129521500Y-92173165D01*
X129521500Y-92306833D01*
X129501498Y-92374954D01*
X129469561Y-92408769D01*
X129327567Y-92511933D01*
X129181936Y-92657564D01*
X129181934Y-92657567D01*
X129078770Y-92799561D01*
X129022548Y-92842915D01*
X128976834Y-92851500D01*
X117034950Y-92851500D01*
X116966829Y-92831498D01*
X116945855Y-92814595D01*
X116839041Y-92707781D01*
X116805015Y-92645469D01*
X116810080Y-92574654D01*
X116852627Y-92517818D01*
X116889201Y-92498852D01*
X117002100Y-92462170D01*
X117185541Y-92368701D01*
X117228372Y-92337582D01*
X116540789Y-91650000D01*
X116552661Y-91650000D01*
X116654394Y-91622741D01*
X116745606Y-91570080D01*
X116820080Y-91495606D01*
X116872741Y-91404394D01*
X116900000Y-91302661D01*
X116900000Y-91290791D01*
X117587581Y-91978372D01*
X117587582Y-91978372D01*
X117618701Y-91935541D01*
X117712170Y-91752099D01*
X117712173Y-91752093D01*
X117775791Y-91556296D01*
X117808000Y-91352938D01*
X117808000Y-91147061D01*
X117775791Y-90943703D01*
X117712173Y-90747906D01*
X117712170Y-90747900D01*
X117618699Y-90564454D01*
X117587583Y-90521626D01*
X117587582Y-90521626D01*
X116900000Y-91209208D01*
X116900000Y-91197339D01*
X116872741Y-91095606D01*
X116820080Y-91004394D01*
X116745606Y-90929920D01*
X116654394Y-90877259D01*
X116552661Y-90850000D01*
X116540790Y-90850000D01*
X117228372Y-90162416D01*
X117185541Y-90131298D01*
X117185540Y-90131297D01*
X117002099Y-90037829D01*
X117002093Y-90037826D01*
X116806294Y-89974208D01*
X116806298Y-89974208D01*
X116602939Y-89942000D01*
X116397061Y-89942000D01*
X116193703Y-89974208D01*
X115997906Y-90037826D01*
X115997900Y-90037829D01*
X115814452Y-90131301D01*
X115771625Y-90162416D01*
X116459209Y-90850000D01*
X116447339Y-90850000D01*
X116345606Y-90877259D01*
X116254394Y-90929920D01*
X116179920Y-91004394D01*
X116127259Y-91095606D01*
X116100000Y-91197339D01*
X116100000Y-91209211D01*
X115412415Y-90521626D01*
X115381301Y-90564452D01*
X115287829Y-90747900D01*
X115287828Y-90747903D01*
X115251145Y-90860799D01*
X115211071Y-90919405D01*
X115145674Y-90947041D01*
X115075717Y-90934934D01*
X115042217Y-90910957D01*
X111921238Y-87789978D01*
X111887212Y-87727666D01*
X111892277Y-87656851D01*
X111908399Y-87626819D01*
X111911894Y-87622009D01*
X112008972Y-87431483D01*
X112075049Y-87228116D01*
X112108500Y-87016916D01*
X112108500Y-86803084D01*
X112075049Y-86591884D01*
X112008972Y-86388517D01*
X111911894Y-86197991D01*
X111786206Y-86024996D01*
X111786203Y-86024993D01*
X111786201Y-86024990D01*
X111635009Y-85873798D01*
X111635006Y-85873796D01*
X111635004Y-85873794D01*
X111462009Y-85748106D01*
X111462007Y-85748105D01*
X111460920Y-85747439D01*
X111460591Y-85747075D01*
X111458004Y-85745196D01*
X111458398Y-85744652D01*
X111413283Y-85694796D01*
X111401670Y-85624756D01*
X111429766Y-85559555D01*
X111458130Y-85534978D01*
X111458004Y-85534804D01*
X111460030Y-85533331D01*
X111460920Y-85532561D01*
X111461997Y-85531899D01*
X111462009Y-85531894D01*
X111635004Y-85406206D01*
X111786206Y-85255004D01*
X111895116Y-85105102D01*
X111913035Y-85080439D01*
X111969257Y-85037085D01*
X112014971Y-85028500D01*
X115116799Y-85028500D01*
X115184920Y-85048502D01*
X115186801Y-85049735D01*
X115269664Y-85105102D01*
X115435000Y-85173587D01*
X115610521Y-85208500D01*
X115610522Y-85208500D01*
X115789478Y-85208500D01*
X115789479Y-85208500D01*
X115965000Y-85173587D01*
X116029039Y-85147061D01*
X131692000Y-85147061D01*
X131692000Y-85352938D01*
X131724208Y-85556296D01*
X131787826Y-85752093D01*
X131787829Y-85752099D01*
X131881297Y-85935540D01*
X131881298Y-85935541D01*
X131912416Y-85978372D01*
X132600000Y-85290788D01*
X132600000Y-85302661D01*
X132627259Y-85404394D01*
X132679920Y-85495606D01*
X132754394Y-85570080D01*
X132845606Y-85622741D01*
X132947339Y-85650000D01*
X132959210Y-85650000D01*
X132271626Y-86337582D01*
X132271626Y-86337583D01*
X132314454Y-86368699D01*
X132497900Y-86462170D01*
X132497906Y-86462173D01*
X132693705Y-86525791D01*
X132693701Y-86525791D01*
X132897061Y-86558000D01*
X133102939Y-86558000D01*
X133306296Y-86525791D01*
X133502093Y-86462173D01*
X133502099Y-86462170D01*
X133685541Y-86368701D01*
X133728372Y-86337582D01*
X133728372Y-86337581D01*
X133040791Y-85650000D01*
X133052661Y-85650000D01*
X133154394Y-85622741D01*
X133245606Y-85570080D01*
X133320080Y-85495606D01*
X133372741Y-85404394D01*
X133400000Y-85302661D01*
X133400000Y-85290791D01*
X134087581Y-85978372D01*
X134087582Y-85978372D01*
X134118701Y-85935541D01*
X134212170Y-85752099D01*
X134212173Y-85752093D01*
X134275791Y-85556296D01*
X134308000Y-85352938D01*
X134308000Y-85147061D01*
X134307993Y-85147019D01*
X136691500Y-85147019D01*
X136691500Y-85352981D01*
X136723720Y-85556408D01*
X136723721Y-85556412D01*
X136786006Y-85748106D01*
X136787366Y-85752290D01*
X136880871Y-85935803D01*
X137001932Y-86102430D01*
X137001934Y-86102432D01*
X137001936Y-86102435D01*
X137147564Y-86248063D01*
X137147567Y-86248065D01*
X137147570Y-86248068D01*
X137314197Y-86369129D01*
X137497710Y-86462634D01*
X137693592Y-86526280D01*
X137897019Y-86558500D01*
X137897022Y-86558500D01*
X138102978Y-86558500D01*
X138102981Y-86558500D01*
X138306408Y-86526280D01*
X138502290Y-86462634D01*
X138685803Y-86369129D01*
X138852430Y-86248068D01*
X138998068Y-86102430D01*
X139119129Y-85935803D01*
X139212634Y-85752290D01*
X139276280Y-85556408D01*
X139308500Y-85352981D01*
X139308500Y-85147019D01*
X139276280Y-84943592D01*
X139212634Y-84747710D01*
X139119129Y-84564197D01*
X138998068Y-84397570D01*
X138998065Y-84397567D01*
X138998063Y-84397564D01*
X138852435Y-84251936D01*
X138852432Y-84251934D01*
X138852430Y-84251932D01*
X138686391Y-84131298D01*
X138685806Y-84130873D01*
X138685805Y-84130872D01*
X138685803Y-84130871D01*
X138502290Y-84037366D01*
X138502287Y-84037365D01*
X138502285Y-84037364D01*
X138306412Y-83973721D01*
X138306410Y-83973720D01*
X138306408Y-83973720D01*
X138102981Y-83941500D01*
X137897019Y-83941500D01*
X137693592Y-83973720D01*
X137693590Y-83973720D01*
X137693587Y-83973721D01*
X137497714Y-84037364D01*
X137497708Y-84037367D01*
X137314193Y-84130873D01*
X137147567Y-84251934D01*
X137147564Y-84251936D01*
X137001936Y-84397564D01*
X137001934Y-84397567D01*
X136880873Y-84564193D01*
X136787367Y-84747708D01*
X136787364Y-84747714D01*
X136723721Y-84943587D01*
X136723720Y-84943590D01*
X136723720Y-84943592D01*
X136691500Y-85147019D01*
X134307993Y-85147019D01*
X134275791Y-84943703D01*
X134212173Y-84747906D01*
X134212170Y-84747900D01*
X134118699Y-84564454D01*
X134087583Y-84521626D01*
X134087582Y-84521626D01*
X133400000Y-85209208D01*
X133400000Y-85197339D01*
X133372741Y-85095606D01*
X133320080Y-85004394D01*
X133245606Y-84929920D01*
X133154394Y-84877259D01*
X133052661Y-84850000D01*
X133040790Y-84850000D01*
X133728372Y-84162416D01*
X133685541Y-84131298D01*
X133685540Y-84131297D01*
X133502099Y-84037829D01*
X133502093Y-84037826D01*
X133306294Y-83974208D01*
X133306298Y-83974208D01*
X133102939Y-83942000D01*
X132897061Y-83942000D01*
X132693703Y-83974208D01*
X132497906Y-84037826D01*
X132497900Y-84037829D01*
X132314452Y-84131301D01*
X132271625Y-84162416D01*
X132959209Y-84850000D01*
X132947339Y-84850000D01*
X132845606Y-84877259D01*
X132754394Y-84929920D01*
X132679920Y-85004394D01*
X132627259Y-85095606D01*
X132600000Y-85197339D01*
X132600000Y-85209209D01*
X131912416Y-84521625D01*
X131881301Y-84564452D01*
X131787829Y-84747900D01*
X131787826Y-84747906D01*
X131724208Y-84943703D01*
X131692000Y-85147061D01*
X116029039Y-85147061D01*
X116130336Y-85105102D01*
X116279135Y-85005678D01*
X116405678Y-84879135D01*
X116505102Y-84730336D01*
X116573587Y-84565000D01*
X116608500Y-84389479D01*
X116608500Y-84210521D01*
X116573587Y-84035000D01*
X116505102Y-83869664D01*
X116487656Y-83843555D01*
X116466442Y-83775803D01*
X116485225Y-83707336D01*
X116538042Y-83659893D01*
X116608125Y-83648536D01*
X116634037Y-83654625D01*
X116804457Y-83714258D01*
X116804460Y-83714258D01*
X116804464Y-83714260D01*
X117079144Y-83776954D01*
X117079145Y-83776954D01*
X117079148Y-83776955D01*
X117244271Y-83795559D01*
X117359124Y-83808500D01*
X117359126Y-83808500D01*
X117640876Y-83808500D01*
X117711977Y-83800488D01*
X117920852Y-83776955D01*
X118195536Y-83714260D01*
X118211652Y-83708621D01*
X118308892Y-83674595D01*
X118461474Y-83621204D01*
X118715321Y-83498958D01*
X118953884Y-83349058D01*
X119130139Y-83208500D01*
X119174160Y-83173395D01*
X119373395Y-82974160D01*
X119549057Y-82753885D01*
X119563854Y-82730337D01*
X119698958Y-82515321D01*
X119821204Y-82261474D01*
X119914260Y-81995536D01*
X119976955Y-81720852D01*
X120008500Y-81440874D01*
X120008500Y-81159126D01*
X120008500Y-81159124D01*
X123791500Y-81159124D01*
X123791500Y-81440875D01*
X123823045Y-81720855D01*
X123885741Y-81995542D01*
X123978789Y-82261456D01*
X123978800Y-82261483D01*
X124101043Y-82515324D01*
X124250942Y-82753885D01*
X124426604Y-82974160D01*
X124625839Y-83173395D01*
X124846114Y-83349057D01*
X125084675Y-83498956D01*
X125084678Y-83498957D01*
X125084679Y-83498958D01*
X125338526Y-83621204D01*
X125338542Y-83621209D01*
X125338543Y-83621210D01*
X125604457Y-83714258D01*
X125604460Y-83714258D01*
X125604464Y-83714260D01*
X125879144Y-83776954D01*
X125879145Y-83776954D01*
X125879148Y-83776955D01*
X126044271Y-83795559D01*
X126159124Y-83808500D01*
X126159126Y-83808500D01*
X126440876Y-83808500D01*
X126511977Y-83800488D01*
X126720852Y-83776955D01*
X126995536Y-83714260D01*
X127011652Y-83708621D01*
X127108892Y-83674595D01*
X127261474Y-83621204D01*
X127515321Y-83498958D01*
X127753884Y-83349058D01*
X127930139Y-83208500D01*
X127974160Y-83173395D01*
X128173395Y-82974160D01*
X128349057Y-82753885D01*
X128363854Y-82730337D01*
X128498958Y-82515321D01*
X128621204Y-82261474D01*
X128714260Y-81995536D01*
X128776955Y-81720852D01*
X128808500Y-81440874D01*
X128808500Y-81159126D01*
X128808500Y-81159124D01*
X139191500Y-81159124D01*
X139191500Y-81440875D01*
X139223045Y-81720855D01*
X139285741Y-81995542D01*
X139378789Y-82261456D01*
X139378800Y-82261483D01*
X139501043Y-82515324D01*
X139650942Y-82753885D01*
X139826604Y-82974160D01*
X140025839Y-83173395D01*
X140246114Y-83349057D01*
X140484675Y-83498956D01*
X140484678Y-83498957D01*
X140484679Y-83498958D01*
X140738526Y-83621204D01*
X140738542Y-83621209D01*
X140738543Y-83621210D01*
X141004457Y-83714258D01*
X141004460Y-83714258D01*
X141004464Y-83714260D01*
X141279144Y-83776954D01*
X141279145Y-83776954D01*
X141279148Y-83776955D01*
X141444271Y-83795559D01*
X141559124Y-83808500D01*
X141559126Y-83808500D01*
X141840876Y-83808500D01*
X141911977Y-83800488D01*
X142120852Y-83776955D01*
X142395536Y-83714260D01*
X142411652Y-83708621D01*
X142508892Y-83674595D01*
X142661474Y-83621204D01*
X142915321Y-83498958D01*
X143153884Y-83349058D01*
X143330139Y-83208500D01*
X143374160Y-83173395D01*
X143573395Y-82974160D01*
X143749057Y-82753885D01*
X143763854Y-82730337D01*
X143898958Y-82515321D01*
X144021204Y-82261474D01*
X144114260Y-81995536D01*
X144176955Y-81720852D01*
X144208500Y-81440874D01*
X144208500Y-81159126D01*
X144208500Y-81159124D01*
X147991500Y-81159124D01*
X147991500Y-81440875D01*
X148023045Y-81720855D01*
X148085741Y-81995542D01*
X148178789Y-82261456D01*
X148178800Y-82261483D01*
X148301043Y-82515324D01*
X148450942Y-82753885D01*
X148626604Y-82974160D01*
X148825839Y-83173395D01*
X149046114Y-83349057D01*
X149284675Y-83498956D01*
X149284678Y-83498957D01*
X149284679Y-83498958D01*
X149538526Y-83621204D01*
X149538542Y-83621209D01*
X149538543Y-83621210D01*
X149804457Y-83714258D01*
X149804460Y-83714258D01*
X149804464Y-83714260D01*
X150079144Y-83776954D01*
X150079145Y-83776954D01*
X150079148Y-83776955D01*
X150244271Y-83795559D01*
X150359124Y-83808500D01*
X150359126Y-83808500D01*
X150640876Y-83808500D01*
X150711977Y-83800488D01*
X150920852Y-83776955D01*
X151195536Y-83714260D01*
X151211652Y-83708621D01*
X151308892Y-83674595D01*
X151461474Y-83621204D01*
X151715321Y-83498958D01*
X151953884Y-83349058D01*
X152130139Y-83208500D01*
X152174160Y-83173395D01*
X152373395Y-82974160D01*
X152549057Y-82753885D01*
X152563854Y-82730337D01*
X152698958Y-82515321D01*
X152821204Y-82261474D01*
X152914260Y-81995536D01*
X152976955Y-81720852D01*
X153008500Y-81440874D01*
X153008500Y-81159126D01*
X152976955Y-80879148D01*
X152914260Y-80604464D01*
X152904039Y-80575255D01*
X152821210Y-80338543D01*
X152821209Y-80338542D01*
X152821204Y-80338526D01*
X152698958Y-80084679D01*
X152698957Y-80084678D01*
X152698956Y-80084675D01*
X152549057Y-79846114D01*
X152373395Y-79625839D01*
X152174160Y-79426604D01*
X151953885Y-79250942D01*
X151715324Y-79101043D01*
X151461483Y-78978800D01*
X151461478Y-78978798D01*
X151461474Y-78978796D01*
X151461468Y-78978793D01*
X151461456Y-78978789D01*
X151195542Y-78885741D01*
X150920854Y-78823045D01*
X150920857Y-78823045D01*
X150640876Y-78791500D01*
X150640874Y-78791500D01*
X150359126Y-78791500D01*
X150359124Y-78791500D01*
X150079144Y-78823045D01*
X149804457Y-78885741D01*
X149538543Y-78978789D01*
X149538516Y-78978800D01*
X149284675Y-79101043D01*
X149046114Y-79250942D01*
X148825839Y-79426604D01*
X148626604Y-79625839D01*
X148450942Y-79846114D01*
X148301043Y-80084675D01*
X148178800Y-80338516D01*
X148178789Y-80338543D01*
X148085741Y-80604457D01*
X148023045Y-80879144D01*
X147991500Y-81159124D01*
X144208500Y-81159124D01*
X144176955Y-80879148D01*
X144114260Y-80604464D01*
X144104039Y-80575255D01*
X144021210Y-80338543D01*
X144021209Y-80338542D01*
X144021204Y-80338526D01*
X143898958Y-80084679D01*
X143898957Y-80084678D01*
X143898956Y-80084675D01*
X143749057Y-79846114D01*
X143573395Y-79625839D01*
X143374160Y-79426604D01*
X143153885Y-79250942D01*
X142915324Y-79101043D01*
X142661483Y-78978800D01*
X142661478Y-78978798D01*
X142661474Y-78978796D01*
X142661468Y-78978793D01*
X142661456Y-78978789D01*
X142395542Y-78885741D01*
X142120854Y-78823045D01*
X142120857Y-78823045D01*
X141840876Y-78791500D01*
X141840874Y-78791500D01*
X141559126Y-78791500D01*
X141559124Y-78791500D01*
X141279144Y-78823045D01*
X141004457Y-78885741D01*
X140738543Y-78978789D01*
X140738516Y-78978800D01*
X140484675Y-79101043D01*
X140246114Y-79250942D01*
X140025839Y-79426604D01*
X139826604Y-79625839D01*
X139650942Y-79846114D01*
X139501043Y-80084675D01*
X139378800Y-80338516D01*
X139378789Y-80338543D01*
X139285741Y-80604457D01*
X139223045Y-80879144D01*
X139191500Y-81159124D01*
X128808500Y-81159124D01*
X128776955Y-80879148D01*
X128714260Y-80604464D01*
X128704039Y-80575255D01*
X128621210Y-80338543D01*
X128621209Y-80338542D01*
X128621204Y-80338526D01*
X128498958Y-80084679D01*
X128498957Y-80084678D01*
X128498956Y-80084675D01*
X128349057Y-79846114D01*
X128173395Y-79625839D01*
X127974160Y-79426604D01*
X127753885Y-79250942D01*
X127515324Y-79101043D01*
X127261483Y-78978800D01*
X127261478Y-78978798D01*
X127261474Y-78978796D01*
X127261468Y-78978793D01*
X127261456Y-78978789D01*
X126995542Y-78885741D01*
X126720854Y-78823045D01*
X126720857Y-78823045D01*
X126440876Y-78791500D01*
X126440874Y-78791500D01*
X126159126Y-78791500D01*
X126159124Y-78791500D01*
X125879144Y-78823045D01*
X125604457Y-78885741D01*
X125338543Y-78978789D01*
X125338516Y-78978800D01*
X125084675Y-79101043D01*
X124846114Y-79250942D01*
X124625839Y-79426604D01*
X124426604Y-79625839D01*
X124250942Y-79846114D01*
X124101043Y-80084675D01*
X123978800Y-80338516D01*
X123978789Y-80338543D01*
X123885741Y-80604457D01*
X123823045Y-80879144D01*
X123791500Y-81159124D01*
X120008500Y-81159124D01*
X119976955Y-80879148D01*
X119914260Y-80604464D01*
X119904039Y-80575255D01*
X119821210Y-80338543D01*
X119821209Y-80338542D01*
X119821204Y-80338526D01*
X119698958Y-80084679D01*
X119698957Y-80084678D01*
X119698956Y-80084675D01*
X119549057Y-79846114D01*
X119373395Y-79625839D01*
X119174160Y-79426604D01*
X118953885Y-79250942D01*
X118715324Y-79101043D01*
X118461483Y-78978800D01*
X118461478Y-78978798D01*
X118461474Y-78978796D01*
X118461468Y-78978793D01*
X118461456Y-78978789D01*
X118195542Y-78885741D01*
X117920854Y-78823045D01*
X117920857Y-78823045D01*
X117640876Y-78791500D01*
X117640874Y-78791500D01*
X117359126Y-78791500D01*
X117359124Y-78791500D01*
X117079144Y-78823045D01*
X116804457Y-78885741D01*
X116538543Y-78978789D01*
X116538516Y-78978800D01*
X116284675Y-79101043D01*
X116046114Y-79250942D01*
X115825839Y-79426604D01*
X115626604Y-79625839D01*
X115450942Y-79846114D01*
X115301043Y-80084675D01*
X115178800Y-80338516D01*
X115178789Y-80338543D01*
X115085741Y-80604457D01*
X115023045Y-80879144D01*
X114991500Y-81159124D01*
X114991500Y-81278152D01*
X114986465Y-81295299D01*
X114986536Y-81313170D01*
X114976671Y-81328655D01*
X114971498Y-81346273D01*
X114957991Y-81357976D01*
X114948390Y-81373048D01*
X114931719Y-81380741D01*
X114917842Y-81392766D01*
X114900038Y-81395361D01*
X114883927Y-81402797D01*
X114854113Y-81402058D01*
X114848064Y-81402940D01*
X114844462Y-81402436D01*
X114789479Y-81391500D01*
X114766188Y-81391500D01*
X114757514Y-81390288D01*
X114732823Y-81379130D01*
X114706829Y-81371498D01*
X114695207Y-81362132D01*
X114692817Y-81361052D01*
X114691668Y-81359279D01*
X114685855Y-81354595D01*
X114649773Y-81318513D01*
X114649769Y-81318509D01*
X114541917Y-81246445D01*
X114422080Y-81196807D01*
X114422077Y-81196806D01*
X114294860Y-81171500D01*
X114294857Y-81171500D01*
X112014971Y-81171500D01*
X111946850Y-81151498D01*
X111913035Y-81119561D01*
X111810778Y-80978817D01*
X111786206Y-80944996D01*
X111786203Y-80944993D01*
X111786201Y-80944990D01*
X111635009Y-80793798D01*
X111635006Y-80793796D01*
X111635004Y-80793794D01*
X111462009Y-80668106D01*
X111462007Y-80668105D01*
X111460920Y-80667439D01*
X111460591Y-80667075D01*
X111458004Y-80665196D01*
X111458398Y-80664652D01*
X111413283Y-80614796D01*
X111401670Y-80544756D01*
X111429766Y-80479555D01*
X111458130Y-80454978D01*
X111458004Y-80454804D01*
X111460030Y-80453331D01*
X111460920Y-80452561D01*
X111461997Y-80451899D01*
X111462009Y-80451894D01*
X111635004Y-80326206D01*
X111786206Y-80175004D01*
X111911894Y-80002009D01*
X112008972Y-79811483D01*
X112075049Y-79608116D01*
X112108500Y-79396916D01*
X112108500Y-79183084D01*
X112075049Y-78971884D01*
X112008972Y-78768517D01*
X111911894Y-78577991D01*
X111786206Y-78404996D01*
X111786203Y-78404993D01*
X111786201Y-78404990D01*
X111682840Y-78301629D01*
X111648814Y-78239317D01*
X111653879Y-78168502D01*
X111696426Y-78111666D01*
X111727903Y-78094478D01*
X111845965Y-78050444D01*
X111962904Y-77962904D01*
X112050444Y-77845965D01*
X112050444Y-77845964D01*
X112101494Y-77709093D01*
X112107999Y-77648597D01*
X112108000Y-77648585D01*
X112108000Y-77004000D01*
X111180703Y-77004000D01*
X111215925Y-76942993D01*
X111250000Y-76815826D01*
X111250000Y-76684174D01*
X111215925Y-76557007D01*
X111180703Y-76496000D01*
X112108000Y-76496000D01*
X112108000Y-75851414D01*
X112107999Y-75851402D01*
X112101494Y-75790906D01*
X112050444Y-75654035D01*
X112050444Y-75654034D01*
X111962904Y-75537095D01*
X111845965Y-75449555D01*
X111709093Y-75398505D01*
X111648597Y-75392000D01*
X111004000Y-75392000D01*
X111004000Y-76319297D01*
X110942993Y-76284075D01*
X110815826Y-76250000D01*
X110684174Y-76250000D01*
X110557007Y-76284075D01*
X110496000Y-76319297D01*
X110496000Y-75392000D01*
X109851402Y-75392000D01*
X109790905Y-75398505D01*
X109670532Y-75443402D01*
X109599716Y-75448466D01*
X109537404Y-75414441D01*
X109503379Y-75352129D01*
X109500500Y-75325346D01*
X109500500Y-73876500D01*
X109520502Y-73808379D01*
X109574158Y-73761886D01*
X109626500Y-73750500D01*
X158373500Y-73750500D01*
X158441621Y-73770502D01*
G37*
G04 #@! TD.AperFunction*
G04 #@! TA.AperFunction,Conductor*
G36*
X155809532Y-91925894D02*
G01*
X155866368Y-91968441D01*
X155891179Y-92034961D01*
X155891500Y-92043950D01*
X155891500Y-92096916D01*
X155920061Y-92277240D01*
X155924952Y-92308121D01*
X155986924Y-92498852D01*
X155991028Y-92511483D01*
X156088106Y-92702009D01*
X156213794Y-92875004D01*
X156213796Y-92875006D01*
X156213798Y-92875009D01*
X156364990Y-93026201D01*
X156364993Y-93026203D01*
X156364996Y-93026206D01*
X156537991Y-93151894D01*
X156538001Y-93151899D01*
X156539567Y-93152859D01*
X156540042Y-93153384D01*
X156541996Y-93154804D01*
X156541697Y-93155214D01*
X156587200Y-93205505D01*
X156598808Y-93275546D01*
X156570707Y-93340745D01*
X156542157Y-93365485D01*
X156542258Y-93365624D01*
X156540644Y-93366796D01*
X156539574Y-93367724D01*
X156538255Y-93368532D01*
X156365320Y-93494177D01*
X156214177Y-93645320D01*
X156088536Y-93818249D01*
X155991493Y-94008707D01*
X155991490Y-94008713D01*
X155925440Y-94211995D01*
X155915302Y-94276000D01*
X156819297Y-94276000D01*
X156784075Y-94337007D01*
X156750000Y-94464174D01*
X156750000Y-94595826D01*
X156784075Y-94722993D01*
X156819297Y-94784000D01*
X155915302Y-94784000D01*
X155925440Y-94848004D01*
X155991490Y-95051286D01*
X155991493Y-95051292D01*
X156088536Y-95241750D01*
X156214177Y-95414679D01*
X156365320Y-95565822D01*
X156538249Y-95691463D01*
X156728707Y-95788506D01*
X156728713Y-95788509D01*
X156931998Y-95854560D01*
X156996000Y-95864696D01*
X156996000Y-94960702D01*
X157057007Y-94995925D01*
X157184174Y-95030000D01*
X157315826Y-95030000D01*
X157442993Y-94995925D01*
X157504000Y-94960702D01*
X157504000Y-95864696D01*
X157568001Y-95854560D01*
X157771286Y-95788509D01*
X157771292Y-95788506D01*
X157961750Y-95691463D01*
X158134679Y-95565822D01*
X158134682Y-95565819D01*
X158284405Y-95416097D01*
X158346717Y-95382071D01*
X158417532Y-95387136D01*
X158474368Y-95429683D01*
X158499179Y-95496203D01*
X158499500Y-95505192D01*
X158499500Y-107274668D01*
X158479498Y-107342789D01*
X158425842Y-107389282D01*
X158355568Y-107399386D01*
X158290988Y-107369892D01*
X158271564Y-107348729D01*
X158266312Y-107341500D01*
X158198068Y-107247570D01*
X158198065Y-107247567D01*
X158198063Y-107247564D01*
X158052435Y-107101936D01*
X158052432Y-107101934D01*
X158052430Y-107101932D01*
X157885803Y-106980871D01*
X157702290Y-106887366D01*
X157702287Y-106887365D01*
X157702285Y-106887364D01*
X157506412Y-106823721D01*
X157506410Y-106823720D01*
X157506408Y-106823720D01*
X157302981Y-106791500D01*
X157097019Y-106791500D01*
X156893592Y-106823720D01*
X156893590Y-106823720D01*
X156893587Y-106823721D01*
X156697714Y-106887364D01*
X156697708Y-106887367D01*
X156514193Y-106980873D01*
X156347567Y-107101934D01*
X156347564Y-107101936D01*
X156201936Y-107247564D01*
X156201934Y-107247567D01*
X156080873Y-107414193D01*
X155987367Y-107597708D01*
X155987364Y-107597714D01*
X155923721Y-107793587D01*
X155923720Y-107793590D01*
X155923720Y-107793592D01*
X155891500Y-107997019D01*
X155891500Y-108202981D01*
X155923720Y-108406408D01*
X155923721Y-108406412D01*
X155928193Y-108420176D01*
X155987366Y-108602290D01*
X156080871Y-108785803D01*
X156080873Y-108785806D01*
X156096937Y-108807916D01*
X156201932Y-108952430D01*
X156201934Y-108952432D01*
X156201936Y-108952435D01*
X156347564Y-109098063D01*
X156347567Y-109098065D01*
X156347570Y-109098068D01*
X156514197Y-109219129D01*
X156697710Y-109312634D01*
X156893592Y-109376280D01*
X157097019Y-109408500D01*
X157097022Y-109408500D01*
X157302978Y-109408500D01*
X157302981Y-109408500D01*
X157506408Y-109376280D01*
X157702290Y-109312634D01*
X157885803Y-109219129D01*
X158052430Y-109098068D01*
X158198068Y-108952430D01*
X158271565Y-108851269D01*
X158327786Y-108807916D01*
X158398522Y-108801840D01*
X158461314Y-108834972D01*
X158496225Y-108896792D01*
X158499500Y-108925331D01*
X158499500Y-112274668D01*
X158479498Y-112342789D01*
X158425842Y-112389282D01*
X158355568Y-112399386D01*
X158290988Y-112369892D01*
X158271564Y-112348729D01*
X158267248Y-112342789D01*
X158198068Y-112247570D01*
X158198065Y-112247567D01*
X158198063Y-112247564D01*
X158052435Y-112101936D01*
X158052432Y-112101934D01*
X158052430Y-112101932D01*
X157885803Y-111980871D01*
X157702290Y-111887366D01*
X157702287Y-111887365D01*
X157702285Y-111887364D01*
X157506412Y-111823721D01*
X157506410Y-111823720D01*
X157506408Y-111823720D01*
X157302981Y-111791500D01*
X157097019Y-111791500D01*
X156893592Y-111823720D01*
X156893590Y-111823720D01*
X156893587Y-111823721D01*
X156697714Y-111887364D01*
X156697708Y-111887367D01*
X156514193Y-111980873D01*
X156347567Y-112101934D01*
X156347564Y-112101936D01*
X156201936Y-112247564D01*
X156201934Y-112247567D01*
X156080873Y-112414193D01*
X155987367Y-112597708D01*
X155987364Y-112597714D01*
X155923721Y-112793587D01*
X155923720Y-112793590D01*
X155923720Y-112793592D01*
X155891500Y-112997019D01*
X155891500Y-113202981D01*
X155923720Y-113406408D01*
X155923721Y-113406412D01*
X155958001Y-113511916D01*
X155987366Y-113602290D01*
X156080871Y-113785803D01*
X156080873Y-113785806D01*
X156096937Y-113807916D01*
X156201932Y-113952430D01*
X156201934Y-113952432D01*
X156201936Y-113952435D01*
X156347564Y-114098063D01*
X156347567Y-114098065D01*
X156347570Y-114098068D01*
X156514197Y-114219129D01*
X156697710Y-114312634D01*
X156893592Y-114376280D01*
X157097019Y-114408500D01*
X157097022Y-114408500D01*
X157302978Y-114408500D01*
X157302981Y-114408500D01*
X157506408Y-114376280D01*
X157702290Y-114312634D01*
X157885803Y-114219129D01*
X158052430Y-114098068D01*
X158198068Y-113952430D01*
X158271565Y-113851269D01*
X158327786Y-113807916D01*
X158398522Y-113801840D01*
X158461314Y-113834972D01*
X158496225Y-113896792D01*
X158499500Y-113925331D01*
X158499501Y-145873500D01*
X158479499Y-145941621D01*
X158425843Y-145988114D01*
X158373501Y-145999500D01*
X154679957Y-145999500D01*
X154611836Y-145979498D01*
X154565343Y-145925842D01*
X154555239Y-145855568D01*
X154584733Y-145790988D01*
X154590862Y-145784405D01*
X154700194Y-145675072D01*
X154700199Y-145675067D01*
X154845778Y-145474694D01*
X154958220Y-145254015D01*
X155034756Y-145018462D01*
X155073500Y-144773837D01*
X155073500Y-144526163D01*
X155034756Y-144281538D01*
X154958220Y-144045985D01*
X154845778Y-143825306D01*
X154700199Y-143624933D01*
X154700196Y-143624930D01*
X154700194Y-143624927D01*
X154525072Y-143449805D01*
X154525069Y-143449803D01*
X154525067Y-143449801D01*
X154324694Y-143304222D01*
X154104015Y-143191780D01*
X154104014Y-143191779D01*
X154104011Y-143191778D01*
X153868466Y-143115245D01*
X153868464Y-143115244D01*
X153868462Y-143115244D01*
X153623837Y-143076500D01*
X153376163Y-143076500D01*
X153131538Y-143115244D01*
X153131536Y-143115244D01*
X153131533Y-143115245D01*
X152895988Y-143191778D01*
X152675302Y-143304224D01*
X152474930Y-143449803D01*
X152474927Y-143449805D01*
X152299805Y-143624927D01*
X152299803Y-143624930D01*
X152154224Y-143825302D01*
X152041778Y-144045988D01*
X151965245Y-144281533D01*
X151926500Y-144526165D01*
X151926500Y-144773834D01*
X151965245Y-145018466D01*
X152041778Y-145254011D01*
X152041779Y-145254014D01*
X152041780Y-145254015D01*
X152154222Y-145474694D01*
X152299801Y-145675067D01*
X152299803Y-145675069D01*
X152299805Y-145675072D01*
X152409138Y-145784405D01*
X152443164Y-145846717D01*
X152438099Y-145917532D01*
X152395552Y-145974368D01*
X152329032Y-145999179D01*
X152320043Y-145999500D01*
X141679957Y-145999500D01*
X141611836Y-145979498D01*
X141565343Y-145925842D01*
X141555239Y-145855568D01*
X141584733Y-145790988D01*
X141590862Y-145784405D01*
X141700194Y-145675072D01*
X141700199Y-145675067D01*
X141845778Y-145474694D01*
X141958220Y-145254015D01*
X142034756Y-145018462D01*
X142073500Y-144773837D01*
X142073500Y-144526163D01*
X142034756Y-144281538D01*
X142000975Y-144177575D01*
X141998948Y-144106608D01*
X142031712Y-144049546D01*
X142928668Y-143152590D01*
X142990978Y-143118566D01*
X143061793Y-143123631D01*
X143118629Y-143166178D01*
X143122526Y-143171685D01*
X143135952Y-143191778D01*
X143194322Y-143279135D01*
X143320865Y-143405678D01*
X143469664Y-143505102D01*
X143635000Y-143573587D01*
X143810521Y-143608500D01*
X143810522Y-143608500D01*
X143989478Y-143608500D01*
X143989479Y-143608500D01*
X144165000Y-143573587D01*
X144330336Y-143505102D01*
X144479135Y-143405678D01*
X144605678Y-143279135D01*
X144705102Y-143130336D01*
X144773587Y-142965000D01*
X144808500Y-142789479D01*
X144808500Y-142774950D01*
X144828502Y-142706829D01*
X144845405Y-142685855D01*
X148211487Y-139319773D01*
X148211491Y-139319769D01*
X148254690Y-139255116D01*
X148283555Y-139211917D01*
X148298094Y-139176816D01*
X148333195Y-139092077D01*
X148358500Y-138964856D01*
X148358500Y-138835143D01*
X148358500Y-136226165D01*
X151926500Y-136226165D01*
X151926500Y-136473834D01*
X151965245Y-136718466D01*
X152041778Y-136954011D01*
X152041779Y-136954014D01*
X152041780Y-136954015D01*
X152154222Y-137174694D01*
X152299801Y-137375067D01*
X152299803Y-137375069D01*
X152299805Y-137375072D01*
X152474927Y-137550194D01*
X152474930Y-137550196D01*
X152474933Y-137550199D01*
X152675306Y-137695778D01*
X152895985Y-137808220D01*
X153131538Y-137884756D01*
X153376163Y-137923500D01*
X153376165Y-137923500D01*
X153623835Y-137923500D01*
X153623837Y-137923500D01*
X153868462Y-137884756D01*
X154104015Y-137808220D01*
X154324694Y-137695778D01*
X154525067Y-137550199D01*
X154700199Y-137375067D01*
X154845778Y-137174694D01*
X154958220Y-136954015D01*
X155034756Y-136718462D01*
X155073500Y-136473837D01*
X155073500Y-136226163D01*
X155034756Y-135981538D01*
X154958220Y-135745985D01*
X154845778Y-135525306D01*
X154700199Y-135324933D01*
X154700196Y-135324930D01*
X154700194Y-135324927D01*
X154525072Y-135149805D01*
X154525069Y-135149803D01*
X154525067Y-135149801D01*
X154324694Y-135004222D01*
X154142257Y-134911265D01*
X154090644Y-134862519D01*
X154073578Y-134793604D01*
X154096479Y-134726402D01*
X154152076Y-134682250D01*
X154199462Y-134673000D01*
X154513585Y-134673000D01*
X154513597Y-134672999D01*
X154574093Y-134666494D01*
X154710964Y-134615444D01*
X154710965Y-134615444D01*
X154827904Y-134527904D01*
X154915444Y-134410965D01*
X154915444Y-134410964D01*
X154966494Y-134274093D01*
X154972999Y-134213597D01*
X154973000Y-134213585D01*
X154973000Y-133504000D01*
X154055049Y-133504000D01*
X154086558Y-133427931D01*
X154110000Y-133310080D01*
X154110000Y-133189920D01*
X154086558Y-133072069D01*
X154055049Y-132996000D01*
X154973000Y-132996000D01*
X154973000Y-132286414D01*
X154972999Y-132286402D01*
X154966494Y-132225906D01*
X154915444Y-132089035D01*
X154915444Y-132089034D01*
X154827904Y-131972095D01*
X154710965Y-131884555D01*
X154574093Y-131833505D01*
X154513597Y-131827000D01*
X153754000Y-131827000D01*
X153754000Y-132694950D01*
X153677931Y-132663442D01*
X153560080Y-132640000D01*
X153439920Y-132640000D01*
X153322069Y-132663442D01*
X153246000Y-132694950D01*
X153246000Y-131827000D01*
X152486402Y-131827000D01*
X152425906Y-131833505D01*
X152289035Y-131884555D01*
X152289034Y-131884555D01*
X152172095Y-131972095D01*
X152084555Y-132089034D01*
X152084555Y-132089035D01*
X152033505Y-132225906D01*
X152027000Y-132286402D01*
X152027000Y-132996000D01*
X152944951Y-132996000D01*
X152913442Y-133072069D01*
X152890000Y-133189920D01*
X152890000Y-133310080D01*
X152913442Y-133427931D01*
X152944951Y-133504000D01*
X152027000Y-133504000D01*
X152027000Y-134213597D01*
X152033505Y-134274093D01*
X152084555Y-134410964D01*
X152084555Y-134410965D01*
X152172095Y-134527904D01*
X152289034Y-134615444D01*
X152425906Y-134666494D01*
X152486402Y-134672999D01*
X152486415Y-134673000D01*
X152800538Y-134673000D01*
X152868659Y-134693002D01*
X152915152Y-134746658D01*
X152925256Y-134816932D01*
X152895762Y-134881512D01*
X152857743Y-134911265D01*
X152685652Y-134998950D01*
X152675302Y-135004224D01*
X152474930Y-135149803D01*
X152474927Y-135149805D01*
X152299805Y-135324927D01*
X152299803Y-135324930D01*
X152154224Y-135525302D01*
X152041778Y-135745988D01*
X151965245Y-135981533D01*
X151926500Y-136226165D01*
X148358500Y-136226165D01*
X148358500Y-129776165D01*
X151926500Y-129776165D01*
X151926500Y-130023834D01*
X151965245Y-130268466D01*
X152041778Y-130504011D01*
X152041779Y-130504014D01*
X152041780Y-130504015D01*
X152154222Y-130724694D01*
X152299801Y-130925067D01*
X152299803Y-130925069D01*
X152299805Y-130925072D01*
X152474927Y-131100194D01*
X152474930Y-131100196D01*
X152474933Y-131100199D01*
X152675306Y-131245778D01*
X152895985Y-131358220D01*
X153131538Y-131434756D01*
X153376163Y-131473500D01*
X153376165Y-131473500D01*
X153623835Y-131473500D01*
X153623837Y-131473500D01*
X153868462Y-131434756D01*
X154104015Y-131358220D01*
X154324694Y-131245778D01*
X154525067Y-131100199D01*
X154700199Y-130925067D01*
X154845778Y-130724694D01*
X154958220Y-130504015D01*
X155034756Y-130268462D01*
X155073500Y-130023837D01*
X155073500Y-129776163D01*
X155034756Y-129531538D01*
X154958220Y-129295985D01*
X154845778Y-129075306D01*
X154700199Y-128874933D01*
X154700196Y-128874930D01*
X154700194Y-128874927D01*
X154525072Y-128699805D01*
X154525069Y-128699803D01*
X154525067Y-128699801D01*
X154324694Y-128554222D01*
X154104015Y-128441780D01*
X154104014Y-128441779D01*
X154104011Y-128441778D01*
X153868466Y-128365245D01*
X153868464Y-128365244D01*
X153868462Y-128365244D01*
X153623837Y-128326500D01*
X153376163Y-128326500D01*
X153131538Y-128365244D01*
X153131536Y-128365244D01*
X153131533Y-128365245D01*
X152895988Y-128441778D01*
X152675302Y-128554224D01*
X152474930Y-128699803D01*
X152474927Y-128699805D01*
X152299805Y-128874927D01*
X152299803Y-128874930D01*
X152154224Y-129075302D01*
X152041778Y-129295988D01*
X151965245Y-129531533D01*
X151926500Y-129776165D01*
X148358500Y-129776165D01*
X148358500Y-121476163D01*
X151926500Y-121476163D01*
X151926500Y-121723837D01*
X151960152Y-121936311D01*
X151965245Y-121968466D01*
X152041778Y-122204011D01*
X152041779Y-122204014D01*
X152041780Y-122204015D01*
X152154222Y-122424694D01*
X152299801Y-122625067D01*
X152299803Y-122625069D01*
X152299805Y-122625072D01*
X152474927Y-122800194D01*
X152474930Y-122800196D01*
X152474933Y-122800199D01*
X152675306Y-122945778D01*
X152895985Y-123058220D01*
X153131538Y-123134756D01*
X153376163Y-123173500D01*
X153376165Y-123173500D01*
X153623835Y-123173500D01*
X153623837Y-123173500D01*
X153868462Y-123134756D01*
X154104015Y-123058220D01*
X154324694Y-122945778D01*
X154525067Y-122800199D01*
X154700199Y-122625067D01*
X154845778Y-122424694D01*
X154958220Y-122204015D01*
X155034756Y-121968462D01*
X155073500Y-121723837D01*
X155073500Y-121476163D01*
X155034756Y-121231538D01*
X154958220Y-120995985D01*
X154845778Y-120775306D01*
X154700199Y-120574933D01*
X154700196Y-120574930D01*
X154700194Y-120574927D01*
X154525072Y-120399805D01*
X154525069Y-120399803D01*
X154525067Y-120399801D01*
X154374234Y-120290215D01*
X154324697Y-120254224D01*
X154324696Y-120254223D01*
X154324694Y-120254222D01*
X154142257Y-120161265D01*
X154090644Y-120112519D01*
X154073578Y-120043604D01*
X154096479Y-119976402D01*
X154152076Y-119932250D01*
X154199462Y-119923000D01*
X154513585Y-119923000D01*
X154513597Y-119922999D01*
X154574093Y-119916494D01*
X154710964Y-119865444D01*
X154710965Y-119865444D01*
X154827904Y-119777904D01*
X154915444Y-119660965D01*
X154915444Y-119660964D01*
X154966494Y-119524093D01*
X154972999Y-119463597D01*
X154973000Y-119463585D01*
X154973000Y-118754000D01*
X154055049Y-118754000D01*
X154086558Y-118677931D01*
X154110000Y-118560080D01*
X154110000Y-118439920D01*
X154086558Y-118322069D01*
X154055049Y-118246000D01*
X154973000Y-118246000D01*
X154973000Y-117536414D01*
X154972999Y-117536402D01*
X154966494Y-117475906D01*
X154915444Y-117339035D01*
X154915444Y-117339034D01*
X154827904Y-117222095D01*
X154710965Y-117134555D01*
X154574093Y-117083505D01*
X154513597Y-117077000D01*
X153754000Y-117077000D01*
X153754000Y-117944950D01*
X153677931Y-117913442D01*
X153560080Y-117890000D01*
X153439920Y-117890000D01*
X153322069Y-117913442D01*
X153246000Y-117944950D01*
X153246000Y-117077000D01*
X152486402Y-117077000D01*
X152425906Y-117083505D01*
X152289035Y-117134555D01*
X152289034Y-117134555D01*
X152172095Y-117222095D01*
X152084555Y-117339034D01*
X152084555Y-117339035D01*
X152033505Y-117475906D01*
X152027000Y-117536402D01*
X152027000Y-118246000D01*
X152944951Y-118246000D01*
X152913442Y-118322069D01*
X152890000Y-118439920D01*
X152890000Y-118560080D01*
X152913442Y-118677931D01*
X152944951Y-118754000D01*
X152027000Y-118754000D01*
X152027000Y-119463597D01*
X152033505Y-119524093D01*
X152084555Y-119660964D01*
X152084555Y-119660965D01*
X152172095Y-119777904D01*
X152289034Y-119865444D01*
X152425906Y-119916494D01*
X152486402Y-119922999D01*
X152486415Y-119923000D01*
X152800538Y-119923000D01*
X152868659Y-119943002D01*
X152915152Y-119996658D01*
X152925256Y-120066932D01*
X152895762Y-120131512D01*
X152857743Y-120161265D01*
X152685652Y-120248950D01*
X152675302Y-120254224D01*
X152474930Y-120399803D01*
X152474927Y-120399805D01*
X152299805Y-120574927D01*
X152299803Y-120574930D01*
X152154224Y-120775302D01*
X152041778Y-120995988D01*
X151965245Y-121231533D01*
X151965244Y-121231536D01*
X151965244Y-121231538D01*
X151926500Y-121476163D01*
X148358500Y-121476163D01*
X148358500Y-120424950D01*
X148378502Y-120356829D01*
X148395405Y-120335855D01*
X151287320Y-117443940D01*
X151654260Y-117077000D01*
X155111491Y-113619769D01*
X155183555Y-113511917D01*
X155217369Y-113430285D01*
X155233193Y-113392083D01*
X155233193Y-113392080D01*
X155233195Y-113392077D01*
X155258500Y-113264856D01*
X155258500Y-113135143D01*
X155258500Y-92424950D01*
X155278502Y-92356829D01*
X155295405Y-92335855D01*
X155676405Y-91954855D01*
X155738717Y-91920829D01*
X155809532Y-91925894D01*
G37*
G04 #@! TD.AperFunction*
M02*
