G04 #@! TF.GenerationSoftware,KiCad,Pcbnew,7.0.7-7.0.7~ubuntu22.04.1*
G04 #@! TF.CreationDate,2023-12-10T22:01:40+01:00*
G04 #@! TF.ProjectId,CD40106_VCO,43443430-3130-4365-9f56-434f2e6b6963,rev?*
G04 #@! TF.SameCoordinates,Original*
G04 #@! TF.FileFunction,Legend,Top*
G04 #@! TF.FilePolarity,Positive*
%FSLAX46Y46*%
G04 Gerber Fmt 4.6, Leading zero omitted, Abs format (unit mm)*
G04 Created by KiCad (PCBNEW 7.0.7-7.0.7~ubuntu22.04.1) date 2023-12-10 22:01:40*
%MOMM*%
%LPD*%
G01*
G04 APERTURE LIST*
%ADD10C,0.150000*%
%ADD11C,0.120000*%
%ADD12R,1.930000X1.830000*%
%ADD13C,2.130000*%
%ADD14C,4.000000*%
%ADD15C,1.800000*%
%ADD16C,3.200000*%
%ADD17C,1.600000*%
%ADD18R,1.600000X1.600000*%
%ADD19O,1.600000X1.600000*%
%ADD20R,1.700000X1.700000*%
%ADD21O,1.700000X1.700000*%
%ADD22C,0.800000*%
%ADD23C,0.600000*%
G04 APERTURE END LIST*
D10*
X128023809Y-74654580D02*
X127976190Y-74702200D01*
X127976190Y-74702200D02*
X127833333Y-74749819D01*
X127833333Y-74749819D02*
X127738095Y-74749819D01*
X127738095Y-74749819D02*
X127595238Y-74702200D01*
X127595238Y-74702200D02*
X127500000Y-74606961D01*
X127500000Y-74606961D02*
X127452381Y-74511723D01*
X127452381Y-74511723D02*
X127404762Y-74321247D01*
X127404762Y-74321247D02*
X127404762Y-74178390D01*
X127404762Y-74178390D02*
X127452381Y-73987914D01*
X127452381Y-73987914D02*
X127500000Y-73892676D01*
X127500000Y-73892676D02*
X127595238Y-73797438D01*
X127595238Y-73797438D02*
X127738095Y-73749819D01*
X127738095Y-73749819D02*
X127833333Y-73749819D01*
X127833333Y-73749819D02*
X127976190Y-73797438D01*
X127976190Y-73797438D02*
X128023809Y-73845057D01*
X128452381Y-74749819D02*
X128452381Y-73749819D01*
X128452381Y-73749819D02*
X128690476Y-73749819D01*
X128690476Y-73749819D02*
X128833333Y-73797438D01*
X128833333Y-73797438D02*
X128928571Y-73892676D01*
X128928571Y-73892676D02*
X128976190Y-73987914D01*
X128976190Y-73987914D02*
X129023809Y-74178390D01*
X129023809Y-74178390D02*
X129023809Y-74321247D01*
X129023809Y-74321247D02*
X128976190Y-74511723D01*
X128976190Y-74511723D02*
X128928571Y-74606961D01*
X128928571Y-74606961D02*
X128833333Y-74702200D01*
X128833333Y-74702200D02*
X128690476Y-74749819D01*
X128690476Y-74749819D02*
X128452381Y-74749819D01*
X129880952Y-74083152D02*
X129880952Y-74749819D01*
X129642857Y-73702200D02*
X129404762Y-74416485D01*
X129404762Y-74416485D02*
X130023809Y-74416485D01*
X130595238Y-73749819D02*
X130690476Y-73749819D01*
X130690476Y-73749819D02*
X130785714Y-73797438D01*
X130785714Y-73797438D02*
X130833333Y-73845057D01*
X130833333Y-73845057D02*
X130880952Y-73940295D01*
X130880952Y-73940295D02*
X130928571Y-74130771D01*
X130928571Y-74130771D02*
X130928571Y-74368866D01*
X130928571Y-74368866D02*
X130880952Y-74559342D01*
X130880952Y-74559342D02*
X130833333Y-74654580D01*
X130833333Y-74654580D02*
X130785714Y-74702200D01*
X130785714Y-74702200D02*
X130690476Y-74749819D01*
X130690476Y-74749819D02*
X130595238Y-74749819D01*
X130595238Y-74749819D02*
X130500000Y-74702200D01*
X130500000Y-74702200D02*
X130452381Y-74654580D01*
X130452381Y-74654580D02*
X130404762Y-74559342D01*
X130404762Y-74559342D02*
X130357143Y-74368866D01*
X130357143Y-74368866D02*
X130357143Y-74130771D01*
X130357143Y-74130771D02*
X130404762Y-73940295D01*
X130404762Y-73940295D02*
X130452381Y-73845057D01*
X130452381Y-73845057D02*
X130500000Y-73797438D01*
X130500000Y-73797438D02*
X130595238Y-73749819D01*
X131880952Y-74749819D02*
X131309524Y-74749819D01*
X131595238Y-74749819D02*
X131595238Y-73749819D01*
X131595238Y-73749819D02*
X131500000Y-73892676D01*
X131500000Y-73892676D02*
X131404762Y-73987914D01*
X131404762Y-73987914D02*
X131309524Y-74035533D01*
X132500000Y-73749819D02*
X132595238Y-73749819D01*
X132595238Y-73749819D02*
X132690476Y-73797438D01*
X132690476Y-73797438D02*
X132738095Y-73845057D01*
X132738095Y-73845057D02*
X132785714Y-73940295D01*
X132785714Y-73940295D02*
X132833333Y-74130771D01*
X132833333Y-74130771D02*
X132833333Y-74368866D01*
X132833333Y-74368866D02*
X132785714Y-74559342D01*
X132785714Y-74559342D02*
X132738095Y-74654580D01*
X132738095Y-74654580D02*
X132690476Y-74702200D01*
X132690476Y-74702200D02*
X132595238Y-74749819D01*
X132595238Y-74749819D02*
X132500000Y-74749819D01*
X132500000Y-74749819D02*
X132404762Y-74702200D01*
X132404762Y-74702200D02*
X132357143Y-74654580D01*
X132357143Y-74654580D02*
X132309524Y-74559342D01*
X132309524Y-74559342D02*
X132261905Y-74368866D01*
X132261905Y-74368866D02*
X132261905Y-74130771D01*
X132261905Y-74130771D02*
X132309524Y-73940295D01*
X132309524Y-73940295D02*
X132357143Y-73845057D01*
X132357143Y-73845057D02*
X132404762Y-73797438D01*
X132404762Y-73797438D02*
X132500000Y-73749819D01*
X133690476Y-73749819D02*
X133500000Y-73749819D01*
X133500000Y-73749819D02*
X133404762Y-73797438D01*
X133404762Y-73797438D02*
X133357143Y-73845057D01*
X133357143Y-73845057D02*
X133261905Y-73987914D01*
X133261905Y-73987914D02*
X133214286Y-74178390D01*
X133214286Y-74178390D02*
X133214286Y-74559342D01*
X133214286Y-74559342D02*
X133261905Y-74654580D01*
X133261905Y-74654580D02*
X133309524Y-74702200D01*
X133309524Y-74702200D02*
X133404762Y-74749819D01*
X133404762Y-74749819D02*
X133595238Y-74749819D01*
X133595238Y-74749819D02*
X133690476Y-74702200D01*
X133690476Y-74702200D02*
X133738095Y-74654580D01*
X133738095Y-74654580D02*
X133785714Y-74559342D01*
X133785714Y-74559342D02*
X133785714Y-74321247D01*
X133785714Y-74321247D02*
X133738095Y-74226009D01*
X133738095Y-74226009D02*
X133690476Y-74178390D01*
X133690476Y-74178390D02*
X133595238Y-74130771D01*
X133595238Y-74130771D02*
X133404762Y-74130771D01*
X133404762Y-74130771D02*
X133309524Y-74178390D01*
X133309524Y-74178390D02*
X133261905Y-74226009D01*
X133261905Y-74226009D02*
X133214286Y-74321247D01*
X134833334Y-73749819D02*
X135166667Y-74749819D01*
X135166667Y-74749819D02*
X135500000Y-73749819D01*
X136404762Y-74654580D02*
X136357143Y-74702200D01*
X136357143Y-74702200D02*
X136214286Y-74749819D01*
X136214286Y-74749819D02*
X136119048Y-74749819D01*
X136119048Y-74749819D02*
X135976191Y-74702200D01*
X135976191Y-74702200D02*
X135880953Y-74606961D01*
X135880953Y-74606961D02*
X135833334Y-74511723D01*
X135833334Y-74511723D02*
X135785715Y-74321247D01*
X135785715Y-74321247D02*
X135785715Y-74178390D01*
X135785715Y-74178390D02*
X135833334Y-73987914D01*
X135833334Y-73987914D02*
X135880953Y-73892676D01*
X135880953Y-73892676D02*
X135976191Y-73797438D01*
X135976191Y-73797438D02*
X136119048Y-73749819D01*
X136119048Y-73749819D02*
X136214286Y-73749819D01*
X136214286Y-73749819D02*
X136357143Y-73797438D01*
X136357143Y-73797438D02*
X136404762Y-73845057D01*
X137023810Y-73749819D02*
X137214286Y-73749819D01*
X137214286Y-73749819D02*
X137309524Y-73797438D01*
X137309524Y-73797438D02*
X137404762Y-73892676D01*
X137404762Y-73892676D02*
X137452381Y-74083152D01*
X137452381Y-74083152D02*
X137452381Y-74416485D01*
X137452381Y-74416485D02*
X137404762Y-74606961D01*
X137404762Y-74606961D02*
X137309524Y-74702200D01*
X137309524Y-74702200D02*
X137214286Y-74749819D01*
X137214286Y-74749819D02*
X137023810Y-74749819D01*
X137023810Y-74749819D02*
X136928572Y-74702200D01*
X136928572Y-74702200D02*
X136833334Y-74606961D01*
X136833334Y-74606961D02*
X136785715Y-74416485D01*
X136785715Y-74416485D02*
X136785715Y-74083152D01*
X136785715Y-74083152D02*
X136833334Y-73892676D01*
X136833334Y-73892676D02*
X136928572Y-73797438D01*
X136928572Y-73797438D02*
X137023810Y-73749819D01*
X139166667Y-74749819D02*
X138595239Y-74749819D01*
X138880953Y-74749819D02*
X138880953Y-73749819D01*
X138880953Y-73749819D02*
X138785715Y-73892676D01*
X138785715Y-73892676D02*
X138690477Y-73987914D01*
X138690477Y-73987914D02*
X138595239Y-74035533D01*
X139595239Y-74654580D02*
X139642858Y-74702200D01*
X139642858Y-74702200D02*
X139595239Y-74749819D01*
X139595239Y-74749819D02*
X139547620Y-74702200D01*
X139547620Y-74702200D02*
X139595239Y-74654580D01*
X139595239Y-74654580D02*
X139595239Y-74749819D01*
X140261905Y-73749819D02*
X140357143Y-73749819D01*
X140357143Y-73749819D02*
X140452381Y-73797438D01*
X140452381Y-73797438D02*
X140500000Y-73845057D01*
X140500000Y-73845057D02*
X140547619Y-73940295D01*
X140547619Y-73940295D02*
X140595238Y-74130771D01*
X140595238Y-74130771D02*
X140595238Y-74368866D01*
X140595238Y-74368866D02*
X140547619Y-74559342D01*
X140547619Y-74559342D02*
X140500000Y-74654580D01*
X140500000Y-74654580D02*
X140452381Y-74702200D01*
X140452381Y-74702200D02*
X140357143Y-74749819D01*
X140357143Y-74749819D02*
X140261905Y-74749819D01*
X140261905Y-74749819D02*
X140166667Y-74702200D01*
X140166667Y-74702200D02*
X140119048Y-74654580D01*
X140119048Y-74654580D02*
X140071429Y-74559342D01*
X140071429Y-74559342D02*
X140023810Y-74368866D01*
X140023810Y-74368866D02*
X140023810Y-74130771D01*
X140023810Y-74130771D02*
X140071429Y-73940295D01*
X140071429Y-73940295D02*
X140119048Y-73845057D01*
X140119048Y-73845057D02*
X140166667Y-73797438D01*
X140166667Y-73797438D02*
X140261905Y-73749819D01*
X127547618Y-75836009D02*
X127690475Y-75883628D01*
X127690475Y-75883628D02*
X127738094Y-75931247D01*
X127738094Y-75931247D02*
X127785713Y-76026485D01*
X127785713Y-76026485D02*
X127785713Y-76169342D01*
X127785713Y-76169342D02*
X127738094Y-76264580D01*
X127738094Y-76264580D02*
X127690475Y-76312200D01*
X127690475Y-76312200D02*
X127595237Y-76359819D01*
X127595237Y-76359819D02*
X127214285Y-76359819D01*
X127214285Y-76359819D02*
X127214285Y-75359819D01*
X127214285Y-75359819D02*
X127547618Y-75359819D01*
X127547618Y-75359819D02*
X127642856Y-75407438D01*
X127642856Y-75407438D02*
X127690475Y-75455057D01*
X127690475Y-75455057D02*
X127738094Y-75550295D01*
X127738094Y-75550295D02*
X127738094Y-75645533D01*
X127738094Y-75645533D02*
X127690475Y-75740771D01*
X127690475Y-75740771D02*
X127642856Y-75788390D01*
X127642856Y-75788390D02*
X127547618Y-75836009D01*
X127547618Y-75836009D02*
X127214285Y-75836009D01*
X128357142Y-76359819D02*
X128261904Y-76312200D01*
X128261904Y-76312200D02*
X128214285Y-76216961D01*
X128214285Y-76216961D02*
X128214285Y-75359819D01*
X129119047Y-76312200D02*
X129023809Y-76359819D01*
X129023809Y-76359819D02*
X128833333Y-76359819D01*
X128833333Y-76359819D02*
X128738095Y-76312200D01*
X128738095Y-76312200D02*
X128690476Y-76216961D01*
X128690476Y-76216961D02*
X128690476Y-75836009D01*
X128690476Y-75836009D02*
X128738095Y-75740771D01*
X128738095Y-75740771D02*
X128833333Y-75693152D01*
X128833333Y-75693152D02*
X129023809Y-75693152D01*
X129023809Y-75693152D02*
X129119047Y-75740771D01*
X129119047Y-75740771D02*
X129166666Y-75836009D01*
X129166666Y-75836009D02*
X129166666Y-75931247D01*
X129166666Y-75931247D02*
X128690476Y-76026485D01*
X129976190Y-76312200D02*
X129880952Y-76359819D01*
X129880952Y-76359819D02*
X129690476Y-76359819D01*
X129690476Y-76359819D02*
X129595238Y-76312200D01*
X129595238Y-76312200D02*
X129547619Y-76216961D01*
X129547619Y-76216961D02*
X129547619Y-75836009D01*
X129547619Y-75836009D02*
X129595238Y-75740771D01*
X129595238Y-75740771D02*
X129690476Y-75693152D01*
X129690476Y-75693152D02*
X129880952Y-75693152D01*
X129880952Y-75693152D02*
X129976190Y-75740771D01*
X129976190Y-75740771D02*
X130023809Y-75836009D01*
X130023809Y-75836009D02*
X130023809Y-75931247D01*
X130023809Y-75931247D02*
X129547619Y-76026485D01*
X130452381Y-75693152D02*
X130452381Y-76693152D01*
X130452381Y-75740771D02*
X130547619Y-75693152D01*
X130547619Y-75693152D02*
X130738095Y-75693152D01*
X130738095Y-75693152D02*
X130833333Y-75740771D01*
X130833333Y-75740771D02*
X130880952Y-75788390D01*
X130880952Y-75788390D02*
X130928571Y-75883628D01*
X130928571Y-75883628D02*
X130928571Y-76169342D01*
X130928571Y-76169342D02*
X130880952Y-76264580D01*
X130880952Y-76264580D02*
X130833333Y-76312200D01*
X130833333Y-76312200D02*
X130738095Y-76359819D01*
X130738095Y-76359819D02*
X130547619Y-76359819D01*
X130547619Y-76359819D02*
X130452381Y-76312200D01*
X132071429Y-76312200D02*
X132214286Y-76359819D01*
X132214286Y-76359819D02*
X132452381Y-76359819D01*
X132452381Y-76359819D02*
X132547619Y-76312200D01*
X132547619Y-76312200D02*
X132595238Y-76264580D01*
X132595238Y-76264580D02*
X132642857Y-76169342D01*
X132642857Y-76169342D02*
X132642857Y-76074104D01*
X132642857Y-76074104D02*
X132595238Y-75978866D01*
X132595238Y-75978866D02*
X132547619Y-75931247D01*
X132547619Y-75931247D02*
X132452381Y-75883628D01*
X132452381Y-75883628D02*
X132261905Y-75836009D01*
X132261905Y-75836009D02*
X132166667Y-75788390D01*
X132166667Y-75788390D02*
X132119048Y-75740771D01*
X132119048Y-75740771D02*
X132071429Y-75645533D01*
X132071429Y-75645533D02*
X132071429Y-75550295D01*
X132071429Y-75550295D02*
X132119048Y-75455057D01*
X132119048Y-75455057D02*
X132166667Y-75407438D01*
X132166667Y-75407438D02*
X132261905Y-75359819D01*
X132261905Y-75359819D02*
X132500000Y-75359819D01*
X132500000Y-75359819D02*
X132642857Y-75407438D01*
X133214286Y-76359819D02*
X133119048Y-76312200D01*
X133119048Y-76312200D02*
X133071429Y-76264580D01*
X133071429Y-76264580D02*
X133023810Y-76169342D01*
X133023810Y-76169342D02*
X133023810Y-75883628D01*
X133023810Y-75883628D02*
X133071429Y-75788390D01*
X133071429Y-75788390D02*
X133119048Y-75740771D01*
X133119048Y-75740771D02*
X133214286Y-75693152D01*
X133214286Y-75693152D02*
X133357143Y-75693152D01*
X133357143Y-75693152D02*
X133452381Y-75740771D01*
X133452381Y-75740771D02*
X133500000Y-75788390D01*
X133500000Y-75788390D02*
X133547619Y-75883628D01*
X133547619Y-75883628D02*
X133547619Y-76169342D01*
X133547619Y-76169342D02*
X133500000Y-76264580D01*
X133500000Y-76264580D02*
X133452381Y-76312200D01*
X133452381Y-76312200D02*
X133357143Y-76359819D01*
X133357143Y-76359819D02*
X133214286Y-76359819D01*
X134404762Y-75693152D02*
X134404762Y-76359819D01*
X133976191Y-75693152D02*
X133976191Y-76216961D01*
X133976191Y-76216961D02*
X134023810Y-76312200D01*
X134023810Y-76312200D02*
X134119048Y-76359819D01*
X134119048Y-76359819D02*
X134261905Y-76359819D01*
X134261905Y-76359819D02*
X134357143Y-76312200D01*
X134357143Y-76312200D02*
X134404762Y-76264580D01*
X134880953Y-75693152D02*
X134880953Y-76359819D01*
X134880953Y-75788390D02*
X134928572Y-75740771D01*
X134928572Y-75740771D02*
X135023810Y-75693152D01*
X135023810Y-75693152D02*
X135166667Y-75693152D01*
X135166667Y-75693152D02*
X135261905Y-75740771D01*
X135261905Y-75740771D02*
X135309524Y-75836009D01*
X135309524Y-75836009D02*
X135309524Y-76359819D01*
X136214286Y-76359819D02*
X136214286Y-75359819D01*
X136214286Y-76312200D02*
X136119048Y-76359819D01*
X136119048Y-76359819D02*
X135928572Y-76359819D01*
X135928572Y-76359819D02*
X135833334Y-76312200D01*
X135833334Y-76312200D02*
X135785715Y-76264580D01*
X135785715Y-76264580D02*
X135738096Y-76169342D01*
X135738096Y-76169342D02*
X135738096Y-75883628D01*
X135738096Y-75883628D02*
X135785715Y-75788390D01*
X135785715Y-75788390D02*
X135833334Y-75740771D01*
X135833334Y-75740771D02*
X135928572Y-75693152D01*
X135928572Y-75693152D02*
X136119048Y-75693152D01*
X136119048Y-75693152D02*
X136214286Y-75740771D01*
X137404763Y-75455057D02*
X137452382Y-75407438D01*
X137452382Y-75407438D02*
X137547620Y-75359819D01*
X137547620Y-75359819D02*
X137785715Y-75359819D01*
X137785715Y-75359819D02*
X137880953Y-75407438D01*
X137880953Y-75407438D02*
X137928572Y-75455057D01*
X137928572Y-75455057D02*
X137976191Y-75550295D01*
X137976191Y-75550295D02*
X137976191Y-75645533D01*
X137976191Y-75645533D02*
X137928572Y-75788390D01*
X137928572Y-75788390D02*
X137357144Y-76359819D01*
X137357144Y-76359819D02*
X137976191Y-76359819D01*
X138595239Y-75359819D02*
X138690477Y-75359819D01*
X138690477Y-75359819D02*
X138785715Y-75407438D01*
X138785715Y-75407438D02*
X138833334Y-75455057D01*
X138833334Y-75455057D02*
X138880953Y-75550295D01*
X138880953Y-75550295D02*
X138928572Y-75740771D01*
X138928572Y-75740771D02*
X138928572Y-75978866D01*
X138928572Y-75978866D02*
X138880953Y-76169342D01*
X138880953Y-76169342D02*
X138833334Y-76264580D01*
X138833334Y-76264580D02*
X138785715Y-76312200D01*
X138785715Y-76312200D02*
X138690477Y-76359819D01*
X138690477Y-76359819D02*
X138595239Y-76359819D01*
X138595239Y-76359819D02*
X138500001Y-76312200D01*
X138500001Y-76312200D02*
X138452382Y-76264580D01*
X138452382Y-76264580D02*
X138404763Y-76169342D01*
X138404763Y-76169342D02*
X138357144Y-75978866D01*
X138357144Y-75978866D02*
X138357144Y-75740771D01*
X138357144Y-75740771D02*
X138404763Y-75550295D01*
X138404763Y-75550295D02*
X138452382Y-75455057D01*
X138452382Y-75455057D02*
X138500001Y-75407438D01*
X138500001Y-75407438D02*
X138595239Y-75359819D01*
X139309525Y-75455057D02*
X139357144Y-75407438D01*
X139357144Y-75407438D02*
X139452382Y-75359819D01*
X139452382Y-75359819D02*
X139690477Y-75359819D01*
X139690477Y-75359819D02*
X139785715Y-75407438D01*
X139785715Y-75407438D02*
X139833334Y-75455057D01*
X139833334Y-75455057D02*
X139880953Y-75550295D01*
X139880953Y-75550295D02*
X139880953Y-75645533D01*
X139880953Y-75645533D02*
X139833334Y-75788390D01*
X139833334Y-75788390D02*
X139261906Y-76359819D01*
X139261906Y-76359819D02*
X139880953Y-76359819D01*
X140214287Y-75359819D02*
X140833334Y-75359819D01*
X140833334Y-75359819D02*
X140500001Y-75740771D01*
X140500001Y-75740771D02*
X140642858Y-75740771D01*
X140642858Y-75740771D02*
X140738096Y-75788390D01*
X140738096Y-75788390D02*
X140785715Y-75836009D01*
X140785715Y-75836009D02*
X140833334Y-75931247D01*
X140833334Y-75931247D02*
X140833334Y-76169342D01*
X140833334Y-76169342D02*
X140785715Y-76264580D01*
X140785715Y-76264580D02*
X140738096Y-76312200D01*
X140738096Y-76312200D02*
X140642858Y-76359819D01*
X140642858Y-76359819D02*
X140357144Y-76359819D01*
X140357144Y-76359819D02*
X140261906Y-76312200D01*
X140261906Y-76312200D02*
X140214287Y-76264580D01*
X131547618Y-78831009D02*
X131690475Y-78878628D01*
X131690475Y-78878628D02*
X131738094Y-78926247D01*
X131738094Y-78926247D02*
X131785713Y-79021485D01*
X131785713Y-79021485D02*
X131785713Y-79164342D01*
X131785713Y-79164342D02*
X131738094Y-79259580D01*
X131738094Y-79259580D02*
X131690475Y-79307200D01*
X131690475Y-79307200D02*
X131595237Y-79354819D01*
X131595237Y-79354819D02*
X131214285Y-79354819D01*
X131214285Y-79354819D02*
X131214285Y-78354819D01*
X131214285Y-78354819D02*
X131547618Y-78354819D01*
X131547618Y-78354819D02*
X131642856Y-78402438D01*
X131642856Y-78402438D02*
X131690475Y-78450057D01*
X131690475Y-78450057D02*
X131738094Y-78545295D01*
X131738094Y-78545295D02*
X131738094Y-78640533D01*
X131738094Y-78640533D02*
X131690475Y-78735771D01*
X131690475Y-78735771D02*
X131642856Y-78783390D01*
X131642856Y-78783390D02*
X131547618Y-78831009D01*
X131547618Y-78831009D02*
X131214285Y-78831009D01*
X132357142Y-79354819D02*
X132261904Y-79307200D01*
X132261904Y-79307200D02*
X132214285Y-79259580D01*
X132214285Y-79259580D02*
X132166666Y-79164342D01*
X132166666Y-79164342D02*
X132166666Y-78878628D01*
X132166666Y-78878628D02*
X132214285Y-78783390D01*
X132214285Y-78783390D02*
X132261904Y-78735771D01*
X132261904Y-78735771D02*
X132357142Y-78688152D01*
X132357142Y-78688152D02*
X132499999Y-78688152D01*
X132499999Y-78688152D02*
X132595237Y-78735771D01*
X132595237Y-78735771D02*
X132642856Y-78783390D01*
X132642856Y-78783390D02*
X132690475Y-78878628D01*
X132690475Y-78878628D02*
X132690475Y-79164342D01*
X132690475Y-79164342D02*
X132642856Y-79259580D01*
X132642856Y-79259580D02*
X132595237Y-79307200D01*
X132595237Y-79307200D02*
X132499999Y-79354819D01*
X132499999Y-79354819D02*
X132357142Y-79354819D01*
X133547618Y-79354819D02*
X133547618Y-78831009D01*
X133547618Y-78831009D02*
X133499999Y-78735771D01*
X133499999Y-78735771D02*
X133404761Y-78688152D01*
X133404761Y-78688152D02*
X133214285Y-78688152D01*
X133214285Y-78688152D02*
X133119047Y-78735771D01*
X133547618Y-79307200D02*
X133452380Y-79354819D01*
X133452380Y-79354819D02*
X133214285Y-79354819D01*
X133214285Y-79354819D02*
X133119047Y-79307200D01*
X133119047Y-79307200D02*
X133071428Y-79211961D01*
X133071428Y-79211961D02*
X133071428Y-79116723D01*
X133071428Y-79116723D02*
X133119047Y-79021485D01*
X133119047Y-79021485D02*
X133214285Y-78973866D01*
X133214285Y-78973866D02*
X133452380Y-78973866D01*
X133452380Y-78973866D02*
X133547618Y-78926247D01*
X134023809Y-79354819D02*
X134023809Y-78688152D01*
X134023809Y-78878628D02*
X134071428Y-78783390D01*
X134071428Y-78783390D02*
X134119047Y-78735771D01*
X134119047Y-78735771D02*
X134214285Y-78688152D01*
X134214285Y-78688152D02*
X134309523Y-78688152D01*
X135071428Y-79354819D02*
X135071428Y-78354819D01*
X135071428Y-79307200D02*
X134976190Y-79354819D01*
X134976190Y-79354819D02*
X134785714Y-79354819D01*
X134785714Y-79354819D02*
X134690476Y-79307200D01*
X134690476Y-79307200D02*
X134642857Y-79259580D01*
X134642857Y-79259580D02*
X134595238Y-79164342D01*
X134595238Y-79164342D02*
X134595238Y-78878628D01*
X134595238Y-78878628D02*
X134642857Y-78783390D01*
X134642857Y-78783390D02*
X134690476Y-78735771D01*
X134690476Y-78735771D02*
X134785714Y-78688152D01*
X134785714Y-78688152D02*
X134976190Y-78688152D01*
X134976190Y-78688152D02*
X135071428Y-78735771D01*
X136261905Y-78450057D02*
X136309524Y-78402438D01*
X136309524Y-78402438D02*
X136404762Y-78354819D01*
X136404762Y-78354819D02*
X136642857Y-78354819D01*
X136642857Y-78354819D02*
X136738095Y-78402438D01*
X136738095Y-78402438D02*
X136785714Y-78450057D01*
X136785714Y-78450057D02*
X136833333Y-78545295D01*
X136833333Y-78545295D02*
X136833333Y-78640533D01*
X136833333Y-78640533D02*
X136785714Y-78783390D01*
X136785714Y-78783390D02*
X136214286Y-79354819D01*
X136214286Y-79354819D02*
X136833333Y-79354819D01*
X122660476Y-133784819D02*
X122660476Y-134499104D01*
X122660476Y-134499104D02*
X122612857Y-134641961D01*
X122612857Y-134641961D02*
X122517619Y-134737200D01*
X122517619Y-134737200D02*
X122374762Y-134784819D01*
X122374762Y-134784819D02*
X122279524Y-134784819D01*
X123660476Y-134784819D02*
X123089048Y-134784819D01*
X123374762Y-134784819D02*
X123374762Y-133784819D01*
X123374762Y-133784819D02*
X123279524Y-133927676D01*
X123279524Y-133927676D02*
X123184286Y-134022914D01*
X123184286Y-134022914D02*
X123089048Y-134070533D01*
X124565238Y-133784819D02*
X124089048Y-133784819D01*
X124089048Y-133784819D02*
X124041429Y-134261009D01*
X124041429Y-134261009D02*
X124089048Y-134213390D01*
X124089048Y-134213390D02*
X124184286Y-134165771D01*
X124184286Y-134165771D02*
X124422381Y-134165771D01*
X124422381Y-134165771D02*
X124517619Y-134213390D01*
X124517619Y-134213390D02*
X124565238Y-134261009D01*
X124565238Y-134261009D02*
X124612857Y-134356247D01*
X124612857Y-134356247D02*
X124612857Y-134594342D01*
X124612857Y-134594342D02*
X124565238Y-134689580D01*
X124565238Y-134689580D02*
X124517619Y-134737200D01*
X124517619Y-134737200D02*
X124422381Y-134784819D01*
X124422381Y-134784819D02*
X124184286Y-134784819D01*
X124184286Y-134784819D02*
X124089048Y-134737200D01*
X124089048Y-134737200D02*
X124041429Y-134689580D01*
X154204819Y-107509523D02*
X153204819Y-107509523D01*
X153204819Y-107509523D02*
X153204819Y-107128571D01*
X153204819Y-107128571D02*
X153252438Y-107033333D01*
X153252438Y-107033333D02*
X153300057Y-106985714D01*
X153300057Y-106985714D02*
X153395295Y-106938095D01*
X153395295Y-106938095D02*
X153538152Y-106938095D01*
X153538152Y-106938095D02*
X153633390Y-106985714D01*
X153633390Y-106985714D02*
X153681009Y-107033333D01*
X153681009Y-107033333D02*
X153728628Y-107128571D01*
X153728628Y-107128571D02*
X153728628Y-107509523D01*
X153204819Y-106604761D02*
X154204819Y-106366666D01*
X154204819Y-106366666D02*
X153490533Y-106176190D01*
X153490533Y-106176190D02*
X154204819Y-105985714D01*
X154204819Y-105985714D02*
X153204819Y-105747619D01*
X154204819Y-105366666D02*
X153204819Y-105366666D01*
X153204819Y-105366666D02*
X153919104Y-105033333D01*
X153919104Y-105033333D02*
X153204819Y-104700000D01*
X153204819Y-104700000D02*
X154204819Y-104700000D01*
X154300057Y-104461905D02*
X154300057Y-103700000D01*
X154109580Y-102890476D02*
X154157200Y-102938095D01*
X154157200Y-102938095D02*
X154204819Y-103080952D01*
X154204819Y-103080952D02*
X154204819Y-103176190D01*
X154204819Y-103176190D02*
X154157200Y-103319047D01*
X154157200Y-103319047D02*
X154061961Y-103414285D01*
X154061961Y-103414285D02*
X153966723Y-103461904D01*
X153966723Y-103461904D02*
X153776247Y-103509523D01*
X153776247Y-103509523D02*
X153633390Y-103509523D01*
X153633390Y-103509523D02*
X153442914Y-103461904D01*
X153442914Y-103461904D02*
X153347676Y-103414285D01*
X153347676Y-103414285D02*
X153252438Y-103319047D01*
X153252438Y-103319047D02*
X153204819Y-103176190D01*
X153204819Y-103176190D02*
X153204819Y-103080952D01*
X153204819Y-103080952D02*
X153252438Y-102938095D01*
X153252438Y-102938095D02*
X153300057Y-102890476D01*
X153204819Y-102604761D02*
X154204819Y-102271428D01*
X154204819Y-102271428D02*
X153204819Y-101938095D01*
X154300057Y-101842857D02*
X154300057Y-101080952D01*
X154204819Y-100366666D02*
X154204819Y-100842856D01*
X154204819Y-100842856D02*
X153204819Y-100842856D01*
X153204819Y-100176189D02*
X154204819Y-99842856D01*
X154204819Y-99842856D02*
X153204819Y-99509523D01*
X154204819Y-98699999D02*
X154204819Y-99176189D01*
X154204819Y-99176189D02*
X153204819Y-99176189D01*
X154204819Y-97842856D02*
X154204819Y-98414284D01*
X154204819Y-98128570D02*
X153204819Y-98128570D01*
X153204819Y-98128570D02*
X153347676Y-98223808D01*
X153347676Y-98223808D02*
X153442914Y-98319046D01*
X153442914Y-98319046D02*
X153490533Y-98414284D01*
X118833333Y-91609580D02*
X118785714Y-91657200D01*
X118785714Y-91657200D02*
X118642857Y-91704819D01*
X118642857Y-91704819D02*
X118547619Y-91704819D01*
X118547619Y-91704819D02*
X118404762Y-91657200D01*
X118404762Y-91657200D02*
X118309524Y-91561961D01*
X118309524Y-91561961D02*
X118261905Y-91466723D01*
X118261905Y-91466723D02*
X118214286Y-91276247D01*
X118214286Y-91276247D02*
X118214286Y-91133390D01*
X118214286Y-91133390D02*
X118261905Y-90942914D01*
X118261905Y-90942914D02*
X118309524Y-90847676D01*
X118309524Y-90847676D02*
X118404762Y-90752438D01*
X118404762Y-90752438D02*
X118547619Y-90704819D01*
X118547619Y-90704819D02*
X118642857Y-90704819D01*
X118642857Y-90704819D02*
X118785714Y-90752438D01*
X118785714Y-90752438D02*
X118833333Y-90800057D01*
X119690476Y-90704819D02*
X119500000Y-90704819D01*
X119500000Y-90704819D02*
X119404762Y-90752438D01*
X119404762Y-90752438D02*
X119357143Y-90800057D01*
X119357143Y-90800057D02*
X119261905Y-90942914D01*
X119261905Y-90942914D02*
X119214286Y-91133390D01*
X119214286Y-91133390D02*
X119214286Y-91514342D01*
X119214286Y-91514342D02*
X119261905Y-91609580D01*
X119261905Y-91609580D02*
X119309524Y-91657200D01*
X119309524Y-91657200D02*
X119404762Y-91704819D01*
X119404762Y-91704819D02*
X119595238Y-91704819D01*
X119595238Y-91704819D02*
X119690476Y-91657200D01*
X119690476Y-91657200D02*
X119738095Y-91609580D01*
X119738095Y-91609580D02*
X119785714Y-91514342D01*
X119785714Y-91514342D02*
X119785714Y-91276247D01*
X119785714Y-91276247D02*
X119738095Y-91181009D01*
X119738095Y-91181009D02*
X119690476Y-91133390D01*
X119690476Y-91133390D02*
X119595238Y-91085771D01*
X119595238Y-91085771D02*
X119404762Y-91085771D01*
X119404762Y-91085771D02*
X119309524Y-91133390D01*
X119309524Y-91133390D02*
X119261905Y-91181009D01*
X119261905Y-91181009D02*
X119214286Y-91276247D01*
X153954819Y-84130951D02*
X152954819Y-84130951D01*
X152954819Y-84130951D02*
X152954819Y-83749999D01*
X152954819Y-83749999D02*
X153002438Y-83654761D01*
X153002438Y-83654761D02*
X153050057Y-83607142D01*
X153050057Y-83607142D02*
X153145295Y-83559523D01*
X153145295Y-83559523D02*
X153288152Y-83559523D01*
X153288152Y-83559523D02*
X153383390Y-83607142D01*
X153383390Y-83607142D02*
X153431009Y-83654761D01*
X153431009Y-83654761D02*
X153478628Y-83749999D01*
X153478628Y-83749999D02*
X153478628Y-84130951D01*
X152954819Y-83226189D02*
X153954819Y-82988094D01*
X153954819Y-82988094D02*
X153240533Y-82797618D01*
X153240533Y-82797618D02*
X153954819Y-82607142D01*
X153954819Y-82607142D02*
X152954819Y-82369047D01*
X153954819Y-81988094D02*
X152954819Y-81988094D01*
X152954819Y-81988094D02*
X153669104Y-81654761D01*
X153669104Y-81654761D02*
X152954819Y-81321428D01*
X152954819Y-81321428D02*
X153954819Y-81321428D01*
X153954819Y-80321428D02*
X153954819Y-80892856D01*
X153954819Y-80607142D02*
X152954819Y-80607142D01*
X152954819Y-80607142D02*
X153097676Y-80702380D01*
X153097676Y-80702380D02*
X153192914Y-80797618D01*
X153192914Y-80797618D02*
X153240533Y-80892856D01*
X148660476Y-133784819D02*
X148660476Y-134499104D01*
X148660476Y-134499104D02*
X148612857Y-134641961D01*
X148612857Y-134641961D02*
X148517619Y-134737200D01*
X148517619Y-134737200D02*
X148374762Y-134784819D01*
X148374762Y-134784819D02*
X148279524Y-134784819D01*
X149660476Y-134784819D02*
X149089048Y-134784819D01*
X149374762Y-134784819D02*
X149374762Y-133784819D01*
X149374762Y-133784819D02*
X149279524Y-133927676D01*
X149279524Y-133927676D02*
X149184286Y-134022914D01*
X149184286Y-134022914D02*
X149089048Y-134070533D01*
X149993810Y-133784819D02*
X150612857Y-133784819D01*
X150612857Y-133784819D02*
X150279524Y-134165771D01*
X150279524Y-134165771D02*
X150422381Y-134165771D01*
X150422381Y-134165771D02*
X150517619Y-134213390D01*
X150517619Y-134213390D02*
X150565238Y-134261009D01*
X150565238Y-134261009D02*
X150612857Y-134356247D01*
X150612857Y-134356247D02*
X150612857Y-134594342D01*
X150612857Y-134594342D02*
X150565238Y-134689580D01*
X150565238Y-134689580D02*
X150517619Y-134737200D01*
X150517619Y-134737200D02*
X150422381Y-134784819D01*
X150422381Y-134784819D02*
X150136667Y-134784819D01*
X150136667Y-134784819D02*
X150041429Y-134737200D01*
X150041429Y-134737200D02*
X149993810Y-134689580D01*
X131857142Y-99609580D02*
X131809523Y-99657200D01*
X131809523Y-99657200D02*
X131666666Y-99704819D01*
X131666666Y-99704819D02*
X131571428Y-99704819D01*
X131571428Y-99704819D02*
X131428571Y-99657200D01*
X131428571Y-99657200D02*
X131333333Y-99561961D01*
X131333333Y-99561961D02*
X131285714Y-99466723D01*
X131285714Y-99466723D02*
X131238095Y-99276247D01*
X131238095Y-99276247D02*
X131238095Y-99133390D01*
X131238095Y-99133390D02*
X131285714Y-98942914D01*
X131285714Y-98942914D02*
X131333333Y-98847676D01*
X131333333Y-98847676D02*
X131428571Y-98752438D01*
X131428571Y-98752438D02*
X131571428Y-98704819D01*
X131571428Y-98704819D02*
X131666666Y-98704819D01*
X131666666Y-98704819D02*
X131809523Y-98752438D01*
X131809523Y-98752438D02*
X131857142Y-98800057D01*
X132238095Y-98800057D02*
X132285714Y-98752438D01*
X132285714Y-98752438D02*
X132380952Y-98704819D01*
X132380952Y-98704819D02*
X132619047Y-98704819D01*
X132619047Y-98704819D02*
X132714285Y-98752438D01*
X132714285Y-98752438D02*
X132761904Y-98800057D01*
X132761904Y-98800057D02*
X132809523Y-98895295D01*
X132809523Y-98895295D02*
X132809523Y-98990533D01*
X132809523Y-98990533D02*
X132761904Y-99133390D01*
X132761904Y-99133390D02*
X132190476Y-99704819D01*
X132190476Y-99704819D02*
X132809523Y-99704819D01*
X133428571Y-98704819D02*
X133523809Y-98704819D01*
X133523809Y-98704819D02*
X133619047Y-98752438D01*
X133619047Y-98752438D02*
X133666666Y-98800057D01*
X133666666Y-98800057D02*
X133714285Y-98895295D01*
X133714285Y-98895295D02*
X133761904Y-99085771D01*
X133761904Y-99085771D02*
X133761904Y-99323866D01*
X133761904Y-99323866D02*
X133714285Y-99514342D01*
X133714285Y-99514342D02*
X133666666Y-99609580D01*
X133666666Y-99609580D02*
X133619047Y-99657200D01*
X133619047Y-99657200D02*
X133523809Y-99704819D01*
X133523809Y-99704819D02*
X133428571Y-99704819D01*
X133428571Y-99704819D02*
X133333333Y-99657200D01*
X133333333Y-99657200D02*
X133285714Y-99609580D01*
X133285714Y-99609580D02*
X133238095Y-99514342D01*
X133238095Y-99514342D02*
X133190476Y-99323866D01*
X133190476Y-99323866D02*
X133190476Y-99085771D01*
X133190476Y-99085771D02*
X133238095Y-98895295D01*
X133238095Y-98895295D02*
X133285714Y-98800057D01*
X133285714Y-98800057D02*
X133333333Y-98752438D01*
X133333333Y-98752438D02*
X133428571Y-98704819D01*
X134857142Y-85609580D02*
X134809523Y-85657200D01*
X134809523Y-85657200D02*
X134666666Y-85704819D01*
X134666666Y-85704819D02*
X134571428Y-85704819D01*
X134571428Y-85704819D02*
X134428571Y-85657200D01*
X134428571Y-85657200D02*
X134333333Y-85561961D01*
X134333333Y-85561961D02*
X134285714Y-85466723D01*
X134285714Y-85466723D02*
X134238095Y-85276247D01*
X134238095Y-85276247D02*
X134238095Y-85133390D01*
X134238095Y-85133390D02*
X134285714Y-84942914D01*
X134285714Y-84942914D02*
X134333333Y-84847676D01*
X134333333Y-84847676D02*
X134428571Y-84752438D01*
X134428571Y-84752438D02*
X134571428Y-84704819D01*
X134571428Y-84704819D02*
X134666666Y-84704819D01*
X134666666Y-84704819D02*
X134809523Y-84752438D01*
X134809523Y-84752438D02*
X134857142Y-84800057D01*
X135238095Y-84800057D02*
X135285714Y-84752438D01*
X135285714Y-84752438D02*
X135380952Y-84704819D01*
X135380952Y-84704819D02*
X135619047Y-84704819D01*
X135619047Y-84704819D02*
X135714285Y-84752438D01*
X135714285Y-84752438D02*
X135761904Y-84800057D01*
X135761904Y-84800057D02*
X135809523Y-84895295D01*
X135809523Y-84895295D02*
X135809523Y-84990533D01*
X135809523Y-84990533D02*
X135761904Y-85133390D01*
X135761904Y-85133390D02*
X135190476Y-85704819D01*
X135190476Y-85704819D02*
X135809523Y-85704819D01*
X136761904Y-85704819D02*
X136190476Y-85704819D01*
X136476190Y-85704819D02*
X136476190Y-84704819D01*
X136476190Y-84704819D02*
X136380952Y-84847676D01*
X136380952Y-84847676D02*
X136285714Y-84942914D01*
X136285714Y-84942914D02*
X136190476Y-84990533D01*
X114181009Y-83702380D02*
X114181009Y-84035713D01*
X114704819Y-84035713D02*
X113704819Y-84035713D01*
X113704819Y-84035713D02*
X113704819Y-83559523D01*
X114704819Y-83178570D02*
X114038152Y-83178570D01*
X113704819Y-83178570D02*
X113752438Y-83226189D01*
X113752438Y-83226189D02*
X113800057Y-83178570D01*
X113800057Y-83178570D02*
X113752438Y-83130951D01*
X113752438Y-83130951D02*
X113704819Y-83178570D01*
X113704819Y-83178570D02*
X113800057Y-83178570D01*
X114038152Y-82702380D02*
X114704819Y-82702380D01*
X114133390Y-82702380D02*
X114085771Y-82654761D01*
X114085771Y-82654761D02*
X114038152Y-82559523D01*
X114038152Y-82559523D02*
X114038152Y-82416666D01*
X114038152Y-82416666D02*
X114085771Y-82321428D01*
X114085771Y-82321428D02*
X114181009Y-82273809D01*
X114181009Y-82273809D02*
X114704819Y-82273809D01*
X114657200Y-81416666D02*
X114704819Y-81511904D01*
X114704819Y-81511904D02*
X114704819Y-81702380D01*
X114704819Y-81702380D02*
X114657200Y-81797618D01*
X114657200Y-81797618D02*
X114561961Y-81845237D01*
X114561961Y-81845237D02*
X114181009Y-81845237D01*
X114181009Y-81845237D02*
X114085771Y-81797618D01*
X114085771Y-81797618D02*
X114038152Y-81702380D01*
X114038152Y-81702380D02*
X114038152Y-81511904D01*
X114038152Y-81511904D02*
X114085771Y-81416666D01*
X114085771Y-81416666D02*
X114181009Y-81369047D01*
X114181009Y-81369047D02*
X114276247Y-81369047D01*
X114276247Y-81369047D02*
X114371485Y-81845237D01*
X114704819Y-80416666D02*
X114704819Y-80988094D01*
X114704819Y-80702380D02*
X113704819Y-80702380D01*
X113704819Y-80702380D02*
X113847676Y-80797618D01*
X113847676Y-80797618D02*
X113942914Y-80892856D01*
X113942914Y-80892856D02*
X113990533Y-80988094D01*
X139738095Y-91704819D02*
X139738095Y-92514342D01*
X139738095Y-92514342D02*
X139785714Y-92609580D01*
X139785714Y-92609580D02*
X139833333Y-92657200D01*
X139833333Y-92657200D02*
X139928571Y-92704819D01*
X139928571Y-92704819D02*
X140119047Y-92704819D01*
X140119047Y-92704819D02*
X140214285Y-92657200D01*
X140214285Y-92657200D02*
X140261904Y-92609580D01*
X140261904Y-92609580D02*
X140309523Y-92514342D01*
X140309523Y-92514342D02*
X140309523Y-91704819D01*
X141261904Y-91704819D02*
X140785714Y-91704819D01*
X140785714Y-91704819D02*
X140738095Y-92181009D01*
X140738095Y-92181009D02*
X140785714Y-92133390D01*
X140785714Y-92133390D02*
X140880952Y-92085771D01*
X140880952Y-92085771D02*
X141119047Y-92085771D01*
X141119047Y-92085771D02*
X141214285Y-92133390D01*
X141214285Y-92133390D02*
X141261904Y-92181009D01*
X141261904Y-92181009D02*
X141309523Y-92276247D01*
X141309523Y-92276247D02*
X141309523Y-92514342D01*
X141309523Y-92514342D02*
X141261904Y-92609580D01*
X141261904Y-92609580D02*
X141214285Y-92657200D01*
X141214285Y-92657200D02*
X141119047Y-92704819D01*
X141119047Y-92704819D02*
X140880952Y-92704819D01*
X140880952Y-92704819D02*
X140785714Y-92657200D01*
X140785714Y-92657200D02*
X140738095Y-92609580D01*
X114181009Y-105223809D02*
X114181009Y-105557142D01*
X114704819Y-105557142D02*
X113704819Y-105557142D01*
X113704819Y-105557142D02*
X113704819Y-105080952D01*
X114704819Y-104699999D02*
X113704819Y-104699999D01*
X113704819Y-104699999D02*
X114419104Y-104366666D01*
X114419104Y-104366666D02*
X113704819Y-104033333D01*
X113704819Y-104033333D02*
X114704819Y-104033333D01*
X114800057Y-103795238D02*
X114800057Y-103033333D01*
X114704819Y-102319047D02*
X114704819Y-102795237D01*
X114704819Y-102795237D02*
X113704819Y-102795237D01*
X113704819Y-102128570D02*
X114704819Y-101795237D01*
X114704819Y-101795237D02*
X113704819Y-101461904D01*
X114704819Y-100652380D02*
X114704819Y-101128570D01*
X114704819Y-101128570D02*
X113704819Y-101128570D01*
X114704819Y-99795237D02*
X114704819Y-100366665D01*
X114704819Y-100080951D02*
X113704819Y-100080951D01*
X113704819Y-100080951D02*
X113847676Y-100176189D01*
X113847676Y-100176189D02*
X113942914Y-100271427D01*
X113942914Y-100271427D02*
X113990533Y-100366665D01*
X136136666Y-119034819D02*
X136136666Y-119749104D01*
X136136666Y-119749104D02*
X136089047Y-119891961D01*
X136089047Y-119891961D02*
X135993809Y-119987200D01*
X135993809Y-119987200D02*
X135850952Y-120034819D01*
X135850952Y-120034819D02*
X135755714Y-120034819D01*
X137041428Y-119368152D02*
X137041428Y-120034819D01*
X136803333Y-118987200D02*
X136565238Y-119701485D01*
X136565238Y-119701485D02*
X137184285Y-119701485D01*
X123136666Y-119034819D02*
X123136666Y-119749104D01*
X123136666Y-119749104D02*
X123089047Y-119891961D01*
X123089047Y-119891961D02*
X122993809Y-119987200D01*
X122993809Y-119987200D02*
X122850952Y-120034819D01*
X122850952Y-120034819D02*
X122755714Y-120034819D01*
X124136666Y-120034819D02*
X123565238Y-120034819D01*
X123850952Y-120034819D02*
X123850952Y-119034819D01*
X123850952Y-119034819D02*
X123755714Y-119177676D01*
X123755714Y-119177676D02*
X123660476Y-119272914D01*
X123660476Y-119272914D02*
X123565238Y-119320533D01*
X135660476Y-133784819D02*
X135660476Y-134499104D01*
X135660476Y-134499104D02*
X135612857Y-134641961D01*
X135612857Y-134641961D02*
X135517619Y-134737200D01*
X135517619Y-134737200D02*
X135374762Y-134784819D01*
X135374762Y-134784819D02*
X135279524Y-134784819D01*
X136660476Y-134784819D02*
X136089048Y-134784819D01*
X136374762Y-134784819D02*
X136374762Y-133784819D01*
X136374762Y-133784819D02*
X136279524Y-133927676D01*
X136279524Y-133927676D02*
X136184286Y-134022914D01*
X136184286Y-134022914D02*
X136089048Y-134070533D01*
X137279524Y-133784819D02*
X137374762Y-133784819D01*
X137374762Y-133784819D02*
X137470000Y-133832438D01*
X137470000Y-133832438D02*
X137517619Y-133880057D01*
X137517619Y-133880057D02*
X137565238Y-133975295D01*
X137565238Y-133975295D02*
X137612857Y-134165771D01*
X137612857Y-134165771D02*
X137612857Y-134403866D01*
X137612857Y-134403866D02*
X137565238Y-134594342D01*
X137565238Y-134594342D02*
X137517619Y-134689580D01*
X137517619Y-134689580D02*
X137470000Y-134737200D01*
X137470000Y-134737200D02*
X137374762Y-134784819D01*
X137374762Y-134784819D02*
X137279524Y-134784819D01*
X137279524Y-134784819D02*
X137184286Y-134737200D01*
X137184286Y-134737200D02*
X137136667Y-134689580D01*
X137136667Y-134689580D02*
X137089048Y-134594342D01*
X137089048Y-134594342D02*
X137041429Y-134403866D01*
X137041429Y-134403866D02*
X137041429Y-134165771D01*
X137041429Y-134165771D02*
X137089048Y-133975295D01*
X137089048Y-133975295D02*
X137136667Y-133880057D01*
X137136667Y-133880057D02*
X137184286Y-133832438D01*
X137184286Y-133832438D02*
X137279524Y-133784819D01*
X110136666Y-133784819D02*
X110136666Y-134499104D01*
X110136666Y-134499104D02*
X110089047Y-134641961D01*
X110089047Y-134641961D02*
X109993809Y-134737200D01*
X109993809Y-134737200D02*
X109850952Y-134784819D01*
X109850952Y-134784819D02*
X109755714Y-134784819D01*
X110660476Y-134784819D02*
X110850952Y-134784819D01*
X110850952Y-134784819D02*
X110946190Y-134737200D01*
X110946190Y-134737200D02*
X110993809Y-134689580D01*
X110993809Y-134689580D02*
X111089047Y-134546723D01*
X111089047Y-134546723D02*
X111136666Y-134356247D01*
X111136666Y-134356247D02*
X111136666Y-133975295D01*
X111136666Y-133975295D02*
X111089047Y-133880057D01*
X111089047Y-133880057D02*
X111041428Y-133832438D01*
X111041428Y-133832438D02*
X110946190Y-133784819D01*
X110946190Y-133784819D02*
X110755714Y-133784819D01*
X110755714Y-133784819D02*
X110660476Y-133832438D01*
X110660476Y-133832438D02*
X110612857Y-133880057D01*
X110612857Y-133880057D02*
X110565238Y-133975295D01*
X110565238Y-133975295D02*
X110565238Y-134213390D01*
X110565238Y-134213390D02*
X110612857Y-134308628D01*
X110612857Y-134308628D02*
X110660476Y-134356247D01*
X110660476Y-134356247D02*
X110755714Y-134403866D01*
X110755714Y-134403866D02*
X110946190Y-134403866D01*
X110946190Y-134403866D02*
X111041428Y-134356247D01*
X111041428Y-134356247D02*
X111089047Y-134308628D01*
X111089047Y-134308628D02*
X111136666Y-134213390D01*
X149136666Y-119034819D02*
X149136666Y-119749104D01*
X149136666Y-119749104D02*
X149089047Y-119891961D01*
X149089047Y-119891961D02*
X148993809Y-119987200D01*
X148993809Y-119987200D02*
X148850952Y-120034819D01*
X148850952Y-120034819D02*
X148755714Y-120034819D01*
X149517619Y-119034819D02*
X150136666Y-119034819D01*
X150136666Y-119034819D02*
X149803333Y-119415771D01*
X149803333Y-119415771D02*
X149946190Y-119415771D01*
X149946190Y-119415771D02*
X150041428Y-119463390D01*
X150041428Y-119463390D02*
X150089047Y-119511009D01*
X150089047Y-119511009D02*
X150136666Y-119606247D01*
X150136666Y-119606247D02*
X150136666Y-119844342D01*
X150136666Y-119844342D02*
X150089047Y-119939580D01*
X150089047Y-119939580D02*
X150041428Y-119987200D01*
X150041428Y-119987200D02*
X149946190Y-120034819D01*
X149946190Y-120034819D02*
X149660476Y-120034819D01*
X149660476Y-120034819D02*
X149565238Y-119987200D01*
X149565238Y-119987200D02*
X149517619Y-119939580D01*
X110136666Y-119034819D02*
X110136666Y-119749104D01*
X110136666Y-119749104D02*
X110089047Y-119891961D01*
X110089047Y-119891961D02*
X109993809Y-119987200D01*
X109993809Y-119987200D02*
X109850952Y-120034819D01*
X109850952Y-120034819D02*
X109755714Y-120034819D01*
X110565238Y-119130057D02*
X110612857Y-119082438D01*
X110612857Y-119082438D02*
X110708095Y-119034819D01*
X110708095Y-119034819D02*
X110946190Y-119034819D01*
X110946190Y-119034819D02*
X111041428Y-119082438D01*
X111041428Y-119082438D02*
X111089047Y-119130057D01*
X111089047Y-119130057D02*
X111136666Y-119225295D01*
X111136666Y-119225295D02*
X111136666Y-119320533D01*
X111136666Y-119320533D02*
X111089047Y-119463390D01*
X111089047Y-119463390D02*
X110517619Y-120034819D01*
X110517619Y-120034819D02*
X111136666Y-120034819D01*
X157704819Y-112488094D02*
X156704819Y-112488094D01*
X156704819Y-112488094D02*
X156704819Y-112249999D01*
X156704819Y-112249999D02*
X156752438Y-112107142D01*
X156752438Y-112107142D02*
X156847676Y-112011904D01*
X156847676Y-112011904D02*
X156942914Y-111964285D01*
X156942914Y-111964285D02*
X157133390Y-111916666D01*
X157133390Y-111916666D02*
X157276247Y-111916666D01*
X157276247Y-111916666D02*
X157466723Y-111964285D01*
X157466723Y-111964285D02*
X157561961Y-112011904D01*
X157561961Y-112011904D02*
X157657200Y-112107142D01*
X157657200Y-112107142D02*
X157704819Y-112249999D01*
X157704819Y-112249999D02*
X157704819Y-112488094D01*
X157704819Y-110964285D02*
X157704819Y-111535713D01*
X157704819Y-111249999D02*
X156704819Y-111249999D01*
X156704819Y-111249999D02*
X156847676Y-111345237D01*
X156847676Y-111345237D02*
X156942914Y-111440475D01*
X156942914Y-111440475D02*
X156990533Y-111535713D01*
X157704819Y-106261904D02*
X156704819Y-106261904D01*
X157704819Y-105690476D02*
X157133390Y-106119047D01*
X156704819Y-105690476D02*
X157276247Y-106261904D01*
D11*
X123000000Y-135230000D02*
X123000000Y-145730000D01*
X126440000Y-132250000D02*
X126440000Y-133050000D01*
X126440000Y-132250000D02*
X127300000Y-132250000D01*
X127000000Y-145730000D02*
X123000000Y-145730000D01*
X127150000Y-135230000D02*
X123000000Y-135230000D01*
X132000000Y-135230000D02*
X127850000Y-135230000D01*
X132000000Y-135230000D02*
X132000000Y-145730000D01*
X132000000Y-145730000D02*
X128000000Y-145730000D01*
X129300000Y-139730000D02*
G75*
G03*
X129300000Y-139730000I-1800000J0D01*
G01*
X141130000Y-107870000D02*
X142729000Y-107870000D01*
X141130000Y-107870000D02*
X141130000Y-104005000D01*
X144471000Y-107870000D02*
X145230000Y-107870000D01*
X146971000Y-107870000D02*
X147730000Y-107870000D01*
X149470000Y-107870000D02*
X151070000Y-107870000D01*
X151070000Y-107870000D02*
X151070000Y-104005000D01*
X141130000Y-99495000D02*
X141130000Y-95630000D01*
X151070000Y-99495000D02*
X151070000Y-95630000D01*
X141130000Y-95630000D02*
X151070000Y-95630000D01*
X115380000Y-89880000D02*
X115380000Y-92620000D01*
X115380000Y-89880000D02*
X122620000Y-89880000D01*
X115380000Y-92620000D02*
X122620000Y-92620000D01*
X122620000Y-89880000D02*
X122620000Y-92620000D01*
X141130000Y-87420000D02*
X142729000Y-87420000D01*
X141130000Y-87420000D02*
X141130000Y-83555000D01*
X144471000Y-87420000D02*
X145230000Y-87420000D01*
X146971000Y-87420000D02*
X147730000Y-87420000D01*
X149470000Y-87420000D02*
X151070000Y-87420000D01*
X151070000Y-87420000D02*
X151070000Y-83555000D01*
X141130000Y-79045000D02*
X141130000Y-75180000D01*
X151070000Y-79045000D02*
X151070000Y-75180000D01*
X141130000Y-75180000D02*
X151070000Y-75180000D01*
X149000000Y-135230000D02*
X149000000Y-145730000D01*
X152440000Y-132250000D02*
X152440000Y-133050000D01*
X152440000Y-132250000D02*
X153300000Y-132250000D01*
X153000000Y-145730000D02*
X149000000Y-145730000D01*
X153150000Y-135230000D02*
X149000000Y-135230000D01*
X158000000Y-135230000D02*
X153850000Y-135230000D01*
X158000000Y-135230000D02*
X158000000Y-145730000D01*
X158000000Y-145730000D02*
X154000000Y-145730000D01*
X155300000Y-139730000D02*
G75*
G03*
X155300000Y-139730000I-1800000J0D01*
G01*
X128880000Y-97880000D02*
X128880000Y-100620000D01*
X128880000Y-97880000D02*
X136120000Y-97880000D01*
X128880000Y-100620000D02*
X136120000Y-100620000D01*
X136120000Y-97880000D02*
X136120000Y-100620000D01*
X131880000Y-83880000D02*
X131880000Y-86620000D01*
X131880000Y-83880000D02*
X139120000Y-83880000D01*
X131880000Y-86620000D02*
X139120000Y-86620000D01*
X139120000Y-83880000D02*
X139120000Y-86620000D01*
X116930000Y-87420000D02*
X118529000Y-87420000D01*
X116930000Y-87420000D02*
X116930000Y-83555000D01*
X120271000Y-87420000D02*
X121030000Y-87420000D01*
X122771000Y-87420000D02*
X123530000Y-87420000D01*
X125270000Y-87420000D02*
X126870000Y-87420000D01*
X126870000Y-87420000D02*
X126870000Y-83555000D01*
X116930000Y-79045000D02*
X116930000Y-75180000D01*
X126870000Y-79045000D02*
X126870000Y-75180000D01*
X116930000Y-75180000D02*
X126870000Y-75180000D01*
X139130000Y-97440000D02*
X139130000Y-87040000D01*
X139130000Y-87040000D02*
X128850000Y-87040000D01*
X136640000Y-97380000D02*
X136640000Y-87100000D01*
X136640000Y-87100000D02*
X131340000Y-87100000D01*
X134990000Y-97380000D02*
X136640000Y-97380000D01*
X131340000Y-97380000D02*
X132990000Y-97380000D01*
X131340000Y-87100000D02*
X131340000Y-97380000D01*
X128850000Y-97440000D02*
X139130000Y-97440000D01*
X128850000Y-87040000D02*
X128850000Y-97440000D01*
X134990000Y-97380000D02*
G75*
G03*
X132990000Y-97380000I-1000000J0D01*
G01*
X116930000Y-107870000D02*
X118529000Y-107870000D01*
X116930000Y-107870000D02*
X116930000Y-104005000D01*
X120271000Y-107870000D02*
X121030000Y-107870000D01*
X122771000Y-107870000D02*
X123530000Y-107870000D01*
X125270000Y-107870000D02*
X126870000Y-107870000D01*
X126870000Y-107870000D02*
X126870000Y-104005000D01*
X116930000Y-99495000D02*
X116930000Y-95630000D01*
X126870000Y-99495000D02*
X126870000Y-95630000D01*
X116930000Y-95630000D02*
X126870000Y-95630000D01*
X136000000Y-120480000D02*
X136000000Y-130980000D01*
X139440000Y-117500000D02*
X139440000Y-118300000D01*
X139440000Y-117500000D02*
X140300000Y-117500000D01*
X140000000Y-130980000D02*
X136000000Y-130980000D01*
X140150000Y-120480000D02*
X136000000Y-120480000D01*
X145000000Y-120480000D02*
X140850000Y-120480000D01*
X145000000Y-120480000D02*
X145000000Y-130980000D01*
X145000000Y-130980000D02*
X141000000Y-130980000D01*
X142300000Y-124980000D02*
G75*
G03*
X142300000Y-124980000I-1800000J0D01*
G01*
X123000000Y-120480000D02*
X123000000Y-130980000D01*
X126440000Y-117500000D02*
X126440000Y-118300000D01*
X126440000Y-117500000D02*
X127300000Y-117500000D01*
X127000000Y-130980000D02*
X123000000Y-130980000D01*
X127150000Y-120480000D02*
X123000000Y-120480000D01*
X132000000Y-120480000D02*
X127850000Y-120480000D01*
X132000000Y-120480000D02*
X132000000Y-130980000D01*
X132000000Y-130980000D02*
X128000000Y-130980000D01*
X129300000Y-124980000D02*
G75*
G03*
X129300000Y-124980000I-1800000J0D01*
G01*
X136000000Y-135230000D02*
X136000000Y-145730000D01*
X139440000Y-132250000D02*
X139440000Y-133050000D01*
X139440000Y-132250000D02*
X140300000Y-132250000D01*
X140000000Y-145730000D02*
X136000000Y-145730000D01*
X140150000Y-135230000D02*
X136000000Y-135230000D01*
X145000000Y-135230000D02*
X140850000Y-135230000D01*
X145000000Y-135230000D02*
X145000000Y-145730000D01*
X145000000Y-145730000D02*
X141000000Y-145730000D01*
X142300000Y-139730000D02*
G75*
G03*
X142300000Y-139730000I-1800000J0D01*
G01*
X110000000Y-135230000D02*
X110000000Y-145730000D01*
X113440000Y-132250000D02*
X113440000Y-133050000D01*
X113440000Y-132250000D02*
X114300000Y-132250000D01*
X114000000Y-145730000D02*
X110000000Y-145730000D01*
X114150000Y-135230000D02*
X110000000Y-135230000D01*
X119000000Y-135230000D02*
X114850000Y-135230000D01*
X119000000Y-135230000D02*
X119000000Y-145730000D01*
X119000000Y-145730000D02*
X115000000Y-145730000D01*
X116300000Y-139730000D02*
G75*
G03*
X116300000Y-139730000I-1800000J0D01*
G01*
X149000000Y-120480000D02*
X149000000Y-130980000D01*
X152440000Y-117500000D02*
X152440000Y-118300000D01*
X152440000Y-117500000D02*
X153300000Y-117500000D01*
X153000000Y-130980000D02*
X149000000Y-130980000D01*
X153150000Y-120480000D02*
X149000000Y-120480000D01*
X158000000Y-120480000D02*
X153850000Y-120480000D01*
X158000000Y-120480000D02*
X158000000Y-130980000D01*
X158000000Y-130980000D02*
X154000000Y-130980000D01*
X155300000Y-124980000D02*
G75*
G03*
X155300000Y-124980000I-1800000J0D01*
G01*
X110000000Y-120480000D02*
X110000000Y-130980000D01*
X113440000Y-117500000D02*
X113440000Y-118300000D01*
X113440000Y-117500000D02*
X114300000Y-117500000D01*
X114000000Y-130980000D02*
X110000000Y-130980000D01*
X114150000Y-120480000D02*
X110000000Y-120480000D01*
X119000000Y-120480000D02*
X114850000Y-120480000D01*
X119000000Y-120480000D02*
X119000000Y-130980000D01*
X119000000Y-130980000D02*
X115000000Y-130980000D01*
X116300000Y-124980000D02*
G75*
G03*
X116300000Y-124980000I-1800000J0D01*
G01*
X157250000Y-108670000D02*
X157250000Y-109320000D01*
X158370000Y-109320000D02*
X156130000Y-109320000D01*
X156130000Y-109320000D02*
X156130000Y-113560000D01*
X158370000Y-109920000D02*
X156130000Y-109920000D01*
X158370000Y-110040000D02*
X156130000Y-110040000D01*
X158370000Y-110160000D02*
X156130000Y-110160000D01*
X158370000Y-113560000D02*
X158370000Y-109320000D01*
X156130000Y-113560000D02*
X158370000Y-113560000D01*
X157250000Y-114210000D02*
X157250000Y-113560000D01*
%LPC*%
D12*
X127500000Y-133250000D03*
D13*
X127500000Y-144650000D03*
X127500000Y-136350000D03*
D14*
X141700000Y-101750000D03*
X150500000Y-101750000D03*
D15*
X143600000Y-108750000D03*
X146100000Y-108750000D03*
X148600000Y-108750000D03*
D16*
X134000000Y-112400000D03*
D17*
X116500000Y-91250000D03*
X121500000Y-91250000D03*
D14*
X141700000Y-81300000D03*
X150500000Y-81300000D03*
D15*
X143600000Y-88300000D03*
X146100000Y-88300000D03*
X148600000Y-88300000D03*
D12*
X153500000Y-133250000D03*
D13*
X153500000Y-144650000D03*
X153500000Y-136350000D03*
D17*
X130000000Y-99250000D03*
X135000000Y-99250000D03*
X133000000Y-85250000D03*
X138000000Y-85250000D03*
D14*
X117500000Y-81300000D03*
X126300000Y-81300000D03*
D15*
X119400000Y-88300000D03*
X121900000Y-88300000D03*
X124400000Y-88300000D03*
D18*
X137800000Y-96050000D03*
D19*
X137800000Y-93510000D03*
X137800000Y-90970000D03*
X137800000Y-88430000D03*
X130180000Y-88430000D03*
X130180000Y-90970000D03*
X130180000Y-93510000D03*
X130180000Y-96050000D03*
D14*
X117500000Y-101750000D03*
X126300000Y-101750000D03*
D15*
X119400000Y-108750000D03*
X121900000Y-108750000D03*
X124400000Y-108750000D03*
D12*
X140500000Y-118500000D03*
D13*
X140500000Y-129900000D03*
X140500000Y-121600000D03*
D12*
X127500000Y-118500000D03*
D13*
X127500000Y-129900000D03*
X127500000Y-121600000D03*
D12*
X140500000Y-133250000D03*
D13*
X140500000Y-144650000D03*
X140500000Y-136350000D03*
D12*
X114500000Y-133250000D03*
D13*
X114500000Y-144650000D03*
X114500000Y-136350000D03*
D12*
X153500000Y-118500000D03*
D13*
X153500000Y-129900000D03*
X153500000Y-121600000D03*
D12*
X114500000Y-118500000D03*
D13*
X114500000Y-129900000D03*
X114500000Y-121600000D03*
D18*
X157250000Y-107630000D03*
D19*
X157250000Y-115250000D03*
D20*
X157250000Y-76750000D03*
D21*
X157250000Y-79290000D03*
X157250000Y-81830000D03*
X157250000Y-84370000D03*
X157250000Y-86910000D03*
X157250000Y-89450000D03*
X157250000Y-91990000D03*
X157250000Y-94530000D03*
D20*
X110750000Y-76750000D03*
D21*
X110750000Y-79290000D03*
X110750000Y-81830000D03*
X110750000Y-84370000D03*
X110750000Y-86910000D03*
X110750000Y-89450000D03*
X110750000Y-91990000D03*
X110750000Y-94530000D03*
D22*
X139400000Y-113800000D03*
D23*
X148600000Y-93600000D03*
D22*
X124800000Y-113400000D03*
X134800000Y-139800000D03*
X123800000Y-113400000D03*
X124800000Y-112500000D03*
X123800000Y-112500000D03*
X155900000Y-119200000D03*
D23*
X149700000Y-123000000D03*
D22*
X134000000Y-140200000D03*
X150200000Y-114300000D03*
X157500000Y-101100000D03*
X155900000Y-118300000D03*
X157500000Y-100000000D03*
X140300000Y-113800000D03*
D23*
X147900000Y-93600000D03*
X149700000Y-123700000D03*
D22*
X140300000Y-112900000D03*
X149600000Y-115200000D03*
X134000000Y-139300000D03*
D23*
X149700000Y-122300000D03*
D22*
X139400000Y-112900000D03*
D23*
X147900000Y-92900000D03*
X148600000Y-92900000D03*
D22*
X133200000Y-139800000D03*
X143900000Y-142700000D03*
X114700000Y-82300000D03*
X115700000Y-84300000D03*
%LPD*%
M02*
