G04 #@! TF.GenerationSoftware,KiCad,Pcbnew,7.0.7-7.0.7~ubuntu22.04.1*
G04 #@! TF.CreationDate,2023-12-10T22:01:32+01:00*
G04 #@! TF.ProjectId,CD40106_VCO,43443430-3130-4365-9f56-434f2e6b6963,rev?*
G04 #@! TF.SameCoordinates,Original*
G04 #@! TF.FileFunction,Copper,L2,Bot*
G04 #@! TF.FilePolarity,Positive*
%FSLAX46Y46*%
G04 Gerber Fmt 4.6, Leading zero omitted, Abs format (unit mm)*
G04 Created by KiCad (PCBNEW 7.0.7-7.0.7~ubuntu22.04.1) date 2023-12-10 22:01:32*
%MOMM*%
%LPD*%
G01*
G04 APERTURE LIST*
G04 #@! TA.AperFunction,ComponentPad*
%ADD10O,6.700000X4.200000*%
G04 #@! TD*
G04 #@! TA.AperFunction,ViaPad*
%ADD11C,8.000000*%
G04 #@! TD*
G04 APERTURE END LIST*
D10*
X95499999Y-30500000D03*
X130499999Y-30500000D03*
X130499999Y-153000000D03*
X95499999Y-153000000D03*
D11*
X119499999Y-139750000D03*
X100899999Y-101250000D03*
X112999999Y-50000000D03*
X93499998Y-125000000D03*
X106499998Y-125000000D03*
X125099999Y-101250000D03*
X125099999Y-80800000D03*
X106499998Y-139750000D03*
X132499999Y-125000000D03*
X119499999Y-125000000D03*
X93499998Y-139750000D03*
X100899999Y-80900000D03*
X132499999Y-139750000D03*
G04 #@! TA.AperFunction,Conductor*
G36*
X137917539Y-27545185D02*
G01*
X137963294Y-27597989D01*
X137974500Y-27649500D01*
X137974500Y-155850500D01*
X137954815Y-155917539D01*
X137902011Y-155963294D01*
X137850500Y-155974500D01*
X88149499Y-155974500D01*
X88082460Y-155954815D01*
X88036705Y-155902011D01*
X88025499Y-155850500D01*
X88025499Y-152749999D01*
X91657667Y-152749999D01*
X91657668Y-152750000D01*
X92625999Y-152750000D01*
X92693038Y-152769685D01*
X92738793Y-152822489D01*
X92749999Y-152874000D01*
X92749999Y-153126000D01*
X92730314Y-153193039D01*
X92677510Y-153238794D01*
X92625999Y-153250000D01*
X91662026Y-153250000D01*
X91675885Y-153399574D01*
X91675886Y-153399580D01*
X91744499Y-153712876D01*
X91851095Y-154015371D01*
X91994053Y-154302469D01*
X91994060Y-154302480D01*
X92171215Y-154569833D01*
X92379878Y-154813385D01*
X92379883Y-154813390D01*
X92616892Y-155029453D01*
X92616902Y-155029461D01*
X92878656Y-155214753D01*
X92878682Y-155214769D01*
X93161231Y-155366495D01*
X93161241Y-155366499D01*
X93460295Y-155482355D01*
X93771341Y-155560586D01*
X93771347Y-155560588D01*
X94089631Y-155600000D01*
X95249999Y-155600000D01*
X95249999Y-154624000D01*
X95269684Y-154556961D01*
X95322488Y-154511206D01*
X95373999Y-154500000D01*
X95625999Y-154500000D01*
X95693038Y-154519685D01*
X95738793Y-154572489D01*
X95749999Y-154624000D01*
X95749999Y-155600000D01*
X96830102Y-155600000D01*
X97070114Y-155585197D01*
X97385377Y-155526264D01*
X97385379Y-155526263D01*
X97691010Y-155429035D01*
X97982380Y-155294984D01*
X98255053Y-155126153D01*
X98255064Y-155126145D01*
X98504936Y-154925074D01*
X98728202Y-154694824D01*
X98921486Y-154438874D01*
X98921488Y-154438871D01*
X99081842Y-154161129D01*
X99081852Y-154161109D01*
X99206858Y-153865771D01*
X99206866Y-153865748D01*
X99294629Y-153557290D01*
X99294630Y-153557285D01*
X99342330Y-153250000D01*
X98373999Y-153250000D01*
X98306960Y-153230315D01*
X98261205Y-153177511D01*
X98249999Y-153126000D01*
X98249999Y-152874000D01*
X98269684Y-152806961D01*
X98322488Y-152761206D01*
X98373999Y-152750000D01*
X99337972Y-152750000D01*
X99337972Y-152749999D01*
X126657667Y-152749999D01*
X126657668Y-152750000D01*
X127625999Y-152750000D01*
X127693038Y-152769685D01*
X127738793Y-152822489D01*
X127749999Y-152874000D01*
X127749999Y-153126000D01*
X127730314Y-153193039D01*
X127677510Y-153238794D01*
X127625999Y-153250000D01*
X126662026Y-153250000D01*
X126675885Y-153399574D01*
X126675886Y-153399580D01*
X126744499Y-153712876D01*
X126851095Y-154015371D01*
X126994053Y-154302469D01*
X126994060Y-154302480D01*
X127171215Y-154569833D01*
X127379878Y-154813385D01*
X127379883Y-154813390D01*
X127616892Y-155029453D01*
X127616902Y-155029461D01*
X127878656Y-155214753D01*
X127878682Y-155214769D01*
X128161231Y-155366495D01*
X128161241Y-155366499D01*
X128460295Y-155482355D01*
X128771341Y-155560586D01*
X128771347Y-155560588D01*
X129089631Y-155600000D01*
X130249999Y-155600000D01*
X130249999Y-154624000D01*
X130269684Y-154556961D01*
X130322488Y-154511206D01*
X130373999Y-154500000D01*
X130625999Y-154500000D01*
X130693038Y-154519685D01*
X130738793Y-154572489D01*
X130749999Y-154624000D01*
X130749999Y-155600000D01*
X131830102Y-155600000D01*
X132070114Y-155585197D01*
X132385377Y-155526264D01*
X132385379Y-155526263D01*
X132691010Y-155429035D01*
X132982380Y-155294984D01*
X133255053Y-155126153D01*
X133255064Y-155126145D01*
X133504936Y-154925074D01*
X133728202Y-154694824D01*
X133921486Y-154438874D01*
X133921488Y-154438871D01*
X134081842Y-154161129D01*
X134081852Y-154161109D01*
X134206858Y-153865771D01*
X134206866Y-153865748D01*
X134294629Y-153557290D01*
X134294630Y-153557285D01*
X134342330Y-153250000D01*
X133373999Y-153250000D01*
X133306960Y-153230315D01*
X133261205Y-153177511D01*
X133249999Y-153126000D01*
X133249999Y-152874000D01*
X133269684Y-152806961D01*
X133322488Y-152761206D01*
X133373999Y-152750000D01*
X134337972Y-152750000D01*
X134337972Y-152749999D01*
X134324112Y-152600425D01*
X134324111Y-152600419D01*
X134255498Y-152287123D01*
X134148902Y-151984628D01*
X134005944Y-151697530D01*
X134005937Y-151697519D01*
X133828782Y-151430166D01*
X133620119Y-151186614D01*
X133620114Y-151186609D01*
X133383105Y-150970546D01*
X133383095Y-150970538D01*
X133121341Y-150785246D01*
X133121315Y-150785230D01*
X132838766Y-150633504D01*
X132838756Y-150633500D01*
X132539702Y-150517644D01*
X132228656Y-150439413D01*
X132228650Y-150439411D01*
X131910367Y-150400000D01*
X130749999Y-150400000D01*
X130749999Y-151376000D01*
X130730314Y-151443039D01*
X130677510Y-151488794D01*
X130625999Y-151500000D01*
X130373999Y-151500000D01*
X130306960Y-151480315D01*
X130261205Y-151427511D01*
X130249999Y-151376000D01*
X130249999Y-150400000D01*
X129169896Y-150400000D01*
X128929883Y-150414802D01*
X128614620Y-150473735D01*
X128614618Y-150473736D01*
X128308987Y-150570964D01*
X128017617Y-150705015D01*
X127744944Y-150873846D01*
X127744933Y-150873854D01*
X127495061Y-151074925D01*
X127271795Y-151305175D01*
X127078511Y-151561125D01*
X127078509Y-151561128D01*
X126918155Y-151838870D01*
X126918145Y-151838890D01*
X126793139Y-152134228D01*
X126793131Y-152134251D01*
X126705368Y-152442709D01*
X126705367Y-152442714D01*
X126657667Y-152749999D01*
X99337972Y-152749999D01*
X99324112Y-152600425D01*
X99324111Y-152600419D01*
X99255498Y-152287123D01*
X99148902Y-151984628D01*
X99005944Y-151697530D01*
X99005937Y-151697519D01*
X98828782Y-151430166D01*
X98620119Y-151186614D01*
X98620114Y-151186609D01*
X98383105Y-150970546D01*
X98383095Y-150970538D01*
X98121341Y-150785246D01*
X98121315Y-150785230D01*
X97838766Y-150633504D01*
X97838756Y-150633500D01*
X97539702Y-150517644D01*
X97228656Y-150439413D01*
X97228650Y-150439411D01*
X96910367Y-150400000D01*
X95749999Y-150400000D01*
X95749999Y-151376000D01*
X95730314Y-151443039D01*
X95677510Y-151488794D01*
X95625999Y-151500000D01*
X95373999Y-151500000D01*
X95306960Y-151480315D01*
X95261205Y-151427511D01*
X95249999Y-151376000D01*
X95249999Y-150400000D01*
X94169896Y-150400000D01*
X93929883Y-150414802D01*
X93614620Y-150473735D01*
X93614618Y-150473736D01*
X93308987Y-150570964D01*
X93017617Y-150705015D01*
X92744944Y-150873846D01*
X92744933Y-150873854D01*
X92495061Y-151074925D01*
X92271795Y-151305175D01*
X92078511Y-151561125D01*
X92078509Y-151561128D01*
X91918155Y-151838870D01*
X91918145Y-151838890D01*
X91793139Y-152134228D01*
X91793131Y-152134251D01*
X91705368Y-152442709D01*
X91705367Y-152442714D01*
X91657667Y-152749999D01*
X88025499Y-152749999D01*
X88025500Y-30249999D01*
X91657667Y-30249999D01*
X91657668Y-30250000D01*
X92625999Y-30250000D01*
X92693038Y-30269685D01*
X92738793Y-30322489D01*
X92749999Y-30374000D01*
X92749999Y-30626000D01*
X92730314Y-30693039D01*
X92677510Y-30738794D01*
X92625999Y-30750000D01*
X91662026Y-30750000D01*
X91675885Y-30899574D01*
X91675886Y-30899580D01*
X91744499Y-31212876D01*
X91851095Y-31515371D01*
X91994053Y-31802469D01*
X91994060Y-31802480D01*
X92171215Y-32069833D01*
X92379878Y-32313385D01*
X92379883Y-32313390D01*
X92616892Y-32529453D01*
X92616902Y-32529461D01*
X92878656Y-32714753D01*
X92878682Y-32714769D01*
X93161231Y-32866495D01*
X93161241Y-32866499D01*
X93460295Y-32982355D01*
X93771341Y-33060586D01*
X93771347Y-33060588D01*
X94089631Y-33100000D01*
X95249999Y-33100000D01*
X95249999Y-32124000D01*
X95269684Y-32056961D01*
X95322488Y-32011206D01*
X95373999Y-32000000D01*
X95625999Y-32000000D01*
X95693038Y-32019685D01*
X95738793Y-32072489D01*
X95749999Y-32124000D01*
X95749999Y-33100000D01*
X96830102Y-33100000D01*
X97070114Y-33085197D01*
X97385377Y-33026264D01*
X97385379Y-33026263D01*
X97691010Y-32929035D01*
X97982380Y-32794984D01*
X98255053Y-32626153D01*
X98255064Y-32626145D01*
X98504936Y-32425074D01*
X98728202Y-32194824D01*
X98921486Y-31938874D01*
X98921488Y-31938871D01*
X99081842Y-31661129D01*
X99081852Y-31661109D01*
X99206858Y-31365771D01*
X99206866Y-31365748D01*
X99294629Y-31057290D01*
X99294630Y-31057285D01*
X99342330Y-30750000D01*
X98373999Y-30750000D01*
X98306960Y-30730315D01*
X98261205Y-30677511D01*
X98249999Y-30626000D01*
X98249999Y-30374000D01*
X98269684Y-30306961D01*
X98322488Y-30261206D01*
X98373999Y-30250000D01*
X99337972Y-30250000D01*
X99337972Y-30249999D01*
X126657667Y-30249999D01*
X126657668Y-30250000D01*
X127625999Y-30250000D01*
X127693038Y-30269685D01*
X127738793Y-30322489D01*
X127749999Y-30374000D01*
X127749999Y-30626000D01*
X127730314Y-30693039D01*
X127677510Y-30738794D01*
X127625999Y-30750000D01*
X126662026Y-30750000D01*
X126675885Y-30899574D01*
X126675886Y-30899580D01*
X126744499Y-31212876D01*
X126851095Y-31515371D01*
X126994053Y-31802469D01*
X126994060Y-31802480D01*
X127171215Y-32069833D01*
X127379878Y-32313385D01*
X127379883Y-32313390D01*
X127616892Y-32529453D01*
X127616902Y-32529461D01*
X127878656Y-32714753D01*
X127878682Y-32714769D01*
X128161231Y-32866495D01*
X128161241Y-32866499D01*
X128460295Y-32982355D01*
X128771341Y-33060586D01*
X128771347Y-33060588D01*
X129089631Y-33100000D01*
X130249999Y-33100000D01*
X130249999Y-32124000D01*
X130269684Y-32056961D01*
X130322488Y-32011206D01*
X130373999Y-32000000D01*
X130625999Y-32000000D01*
X130693038Y-32019685D01*
X130738793Y-32072489D01*
X130749999Y-32124000D01*
X130749999Y-33100000D01*
X131830102Y-33100000D01*
X132070114Y-33085197D01*
X132385377Y-33026264D01*
X132385379Y-33026263D01*
X132691010Y-32929035D01*
X132982380Y-32794984D01*
X133255053Y-32626153D01*
X133255064Y-32626145D01*
X133504936Y-32425074D01*
X133728202Y-32194824D01*
X133921486Y-31938874D01*
X133921488Y-31938871D01*
X134081842Y-31661129D01*
X134081852Y-31661109D01*
X134206858Y-31365771D01*
X134206866Y-31365748D01*
X134294629Y-31057290D01*
X134294630Y-31057285D01*
X134342330Y-30750000D01*
X133373999Y-30750000D01*
X133306960Y-30730315D01*
X133261205Y-30677511D01*
X133249999Y-30626000D01*
X133249999Y-30374000D01*
X133269684Y-30306961D01*
X133322488Y-30261206D01*
X133373999Y-30250000D01*
X134337972Y-30250000D01*
X134337972Y-30249999D01*
X134324112Y-30100425D01*
X134324111Y-30100419D01*
X134255498Y-29787123D01*
X134148902Y-29484628D01*
X134005944Y-29197530D01*
X134005937Y-29197519D01*
X133828782Y-28930166D01*
X133620119Y-28686614D01*
X133620114Y-28686609D01*
X133383105Y-28470546D01*
X133383095Y-28470538D01*
X133121341Y-28285246D01*
X133121315Y-28285230D01*
X132838766Y-28133504D01*
X132838756Y-28133500D01*
X132539702Y-28017644D01*
X132228656Y-27939413D01*
X132228650Y-27939411D01*
X131910367Y-27900000D01*
X130749999Y-27900000D01*
X130749999Y-28876000D01*
X130730314Y-28943039D01*
X130677510Y-28988794D01*
X130625999Y-29000000D01*
X130373999Y-29000000D01*
X130306960Y-28980315D01*
X130261205Y-28927511D01*
X130249999Y-28876000D01*
X130249999Y-27900000D01*
X129169896Y-27900000D01*
X128929883Y-27914802D01*
X128614620Y-27973735D01*
X128614618Y-27973736D01*
X128308987Y-28070964D01*
X128017617Y-28205015D01*
X127744944Y-28373846D01*
X127744933Y-28373854D01*
X127495061Y-28574925D01*
X127271795Y-28805175D01*
X127078511Y-29061125D01*
X127078509Y-29061128D01*
X126918155Y-29338870D01*
X126918145Y-29338890D01*
X126793139Y-29634228D01*
X126793131Y-29634251D01*
X126705368Y-29942709D01*
X126705367Y-29942714D01*
X126657667Y-30249999D01*
X99337972Y-30249999D01*
X99324112Y-30100425D01*
X99324111Y-30100419D01*
X99255498Y-29787123D01*
X99148902Y-29484628D01*
X99005944Y-29197530D01*
X99005937Y-29197519D01*
X98828782Y-28930166D01*
X98620119Y-28686614D01*
X98620114Y-28686609D01*
X98383105Y-28470546D01*
X98383095Y-28470538D01*
X98121341Y-28285246D01*
X98121315Y-28285230D01*
X97838766Y-28133504D01*
X97838756Y-28133500D01*
X97539702Y-28017644D01*
X97228656Y-27939413D01*
X97228650Y-27939411D01*
X96910367Y-27900000D01*
X95749999Y-27900000D01*
X95749999Y-28876000D01*
X95730314Y-28943039D01*
X95677510Y-28988794D01*
X95625999Y-29000000D01*
X95373999Y-29000000D01*
X95306960Y-28980315D01*
X95261205Y-28927511D01*
X95249999Y-28876000D01*
X95249999Y-27900000D01*
X94169896Y-27900000D01*
X93929883Y-27914802D01*
X93614620Y-27973735D01*
X93614618Y-27973736D01*
X93308987Y-28070964D01*
X93017617Y-28205015D01*
X92744944Y-28373846D01*
X92744933Y-28373854D01*
X92495061Y-28574925D01*
X92271795Y-28805175D01*
X92078511Y-29061125D01*
X92078509Y-29061128D01*
X91918155Y-29338870D01*
X91918145Y-29338890D01*
X91793139Y-29634228D01*
X91793131Y-29634251D01*
X91705368Y-29942709D01*
X91705367Y-29942714D01*
X91657667Y-30249999D01*
X88025500Y-30249999D01*
X88025500Y-27649500D01*
X88045185Y-27582461D01*
X88097989Y-27536706D01*
X88149500Y-27525500D01*
X137850500Y-27525500D01*
X137917539Y-27545185D01*
G37*
G04 #@! TD.AperFunction*
M02*
