G04 #@! TF.GenerationSoftware,KiCad,Pcbnew,9.0.4-9.0.4-0~ubuntu22.04.1*
G04 #@! TF.CreationDate,2025-10-19T11:48:11+01:00*
G04 #@! TF.ProjectId,CD40106_VCO,43443430-3130-4365-9f56-434f2e6b6963,rev?*
G04 #@! TF.SameCoordinates,Original*
G04 #@! TF.FileFunction,Legend,Bot*
G04 #@! TF.FilePolarity,Positive*
%FSLAX46Y46*%
G04 Gerber Fmt 4.6, Leading zero omitted, Abs format (unit mm)*
G04 Created by KiCad (PCBNEW 9.0.4-9.0.4-0~ubuntu22.04.1) date 2025-10-19 11:48:11*
%MOMM*%
%LPD*%
G01*
G04 APERTURE LIST*
%ADD10C,0.300000*%
%ADD11C,0.150000*%
%ADD12O,6.700000X4.200000*%
%ADD13C,8.000000*%
%ADD14C,14.000000*%
G04 APERTURE END LIST*
D10*
X178178329Y-67071428D02*
X179249758Y-67071428D01*
X179249758Y-67071428D02*
X179464043Y-66999999D01*
X179464043Y-66999999D02*
X179606901Y-66857142D01*
X179606901Y-66857142D02*
X179678329Y-66642856D01*
X179678329Y-66642856D02*
X179678329Y-66499999D01*
X179678329Y-68499999D02*
X179678329Y-67785713D01*
X179678329Y-67785713D02*
X178178329Y-67785713D01*
X179535472Y-69857142D02*
X179606901Y-69785714D01*
X179606901Y-69785714D02*
X179678329Y-69571428D01*
X179678329Y-69571428D02*
X179678329Y-69428571D01*
X179678329Y-69428571D02*
X179606901Y-69214285D01*
X179606901Y-69214285D02*
X179464043Y-69071428D01*
X179464043Y-69071428D02*
X179321186Y-68999999D01*
X179321186Y-68999999D02*
X179035472Y-68928571D01*
X179035472Y-68928571D02*
X178821186Y-68928571D01*
X178821186Y-68928571D02*
X178535472Y-68999999D01*
X178535472Y-68999999D02*
X178392615Y-69071428D01*
X178392615Y-69071428D02*
X178249758Y-69214285D01*
X178249758Y-69214285D02*
X178178329Y-69428571D01*
X178178329Y-69428571D02*
X178178329Y-69571428D01*
X178178329Y-69571428D02*
X178249758Y-69785714D01*
X178249758Y-69785714D02*
X178321186Y-69857142D01*
X178178329Y-70928571D02*
X179249758Y-70928571D01*
X179249758Y-70928571D02*
X179464043Y-70857142D01*
X179464043Y-70857142D02*
X179606901Y-70714285D01*
X179606901Y-70714285D02*
X179678329Y-70499999D01*
X179678329Y-70499999D02*
X179678329Y-70357142D01*
X179678329Y-72357142D02*
X179678329Y-71642856D01*
X179678329Y-71642856D02*
X178178329Y-71642856D01*
X179535472Y-73714285D02*
X179606901Y-73642857D01*
X179606901Y-73642857D02*
X179678329Y-73428571D01*
X179678329Y-73428571D02*
X179678329Y-73285714D01*
X179678329Y-73285714D02*
X179606901Y-73071428D01*
X179606901Y-73071428D02*
X179464043Y-72928571D01*
X179464043Y-72928571D02*
X179321186Y-72857142D01*
X179321186Y-72857142D02*
X179035472Y-72785714D01*
X179035472Y-72785714D02*
X178821186Y-72785714D01*
X178821186Y-72785714D02*
X178535472Y-72857142D01*
X178535472Y-72857142D02*
X178392615Y-72928571D01*
X178392615Y-72928571D02*
X178249758Y-73071428D01*
X178249758Y-73071428D02*
X178178329Y-73285714D01*
X178178329Y-73285714D02*
X178178329Y-73428571D01*
X178178329Y-73428571D02*
X178249758Y-73642857D01*
X178249758Y-73642857D02*
X178321186Y-73714285D01*
X178178329Y-74785714D02*
X179249758Y-74785714D01*
X179249758Y-74785714D02*
X179464043Y-74714285D01*
X179464043Y-74714285D02*
X179606901Y-74571428D01*
X179606901Y-74571428D02*
X179678329Y-74357142D01*
X179678329Y-74357142D02*
X179678329Y-74214285D01*
X179678329Y-76214285D02*
X179678329Y-75499999D01*
X179678329Y-75499999D02*
X178178329Y-75499999D01*
X179535472Y-77571428D02*
X179606901Y-77500000D01*
X179606901Y-77500000D02*
X179678329Y-77285714D01*
X179678329Y-77285714D02*
X179678329Y-77142857D01*
X179678329Y-77142857D02*
X179606901Y-76928571D01*
X179606901Y-76928571D02*
X179464043Y-76785714D01*
X179464043Y-76785714D02*
X179321186Y-76714285D01*
X179321186Y-76714285D02*
X179035472Y-76642857D01*
X179035472Y-76642857D02*
X178821186Y-76642857D01*
X178821186Y-76642857D02*
X178535472Y-76714285D01*
X178535472Y-76714285D02*
X178392615Y-76785714D01*
X178392615Y-76785714D02*
X178249758Y-76928571D01*
X178249758Y-76928571D02*
X178178329Y-77142857D01*
X178178329Y-77142857D02*
X178178329Y-77285714D01*
X178178329Y-77285714D02*
X178249758Y-77500000D01*
X178249758Y-77500000D02*
X178321186Y-77571428D01*
X178178329Y-78642857D02*
X179249758Y-78642857D01*
X179249758Y-78642857D02*
X179464043Y-78571428D01*
X179464043Y-78571428D02*
X179606901Y-78428571D01*
X179606901Y-78428571D02*
X179678329Y-78214285D01*
X179678329Y-78214285D02*
X179678329Y-78071428D01*
X179678329Y-80071428D02*
X179678329Y-79357142D01*
X179678329Y-79357142D02*
X178178329Y-79357142D01*
X179535472Y-81428571D02*
X179606901Y-81357143D01*
X179606901Y-81357143D02*
X179678329Y-81142857D01*
X179678329Y-81142857D02*
X179678329Y-81000000D01*
X179678329Y-81000000D02*
X179606901Y-80785714D01*
X179606901Y-80785714D02*
X179464043Y-80642857D01*
X179464043Y-80642857D02*
X179321186Y-80571428D01*
X179321186Y-80571428D02*
X179035472Y-80500000D01*
X179035472Y-80500000D02*
X178821186Y-80500000D01*
X178821186Y-80500000D02*
X178535472Y-80571428D01*
X178535472Y-80571428D02*
X178392615Y-80642857D01*
X178392615Y-80642857D02*
X178249758Y-80785714D01*
X178249758Y-80785714D02*
X178178329Y-81000000D01*
X178178329Y-81000000D02*
X178178329Y-81142857D01*
X178178329Y-81142857D02*
X178249758Y-81357143D01*
X178249758Y-81357143D02*
X178321186Y-81428571D01*
D11*
X207976191Y-30554608D02*
X208023810Y-30602228D01*
X208023810Y-30602228D02*
X208166667Y-30649847D01*
X208166667Y-30649847D02*
X208261905Y-30649847D01*
X208261905Y-30649847D02*
X208404762Y-30602228D01*
X208404762Y-30602228D02*
X208500000Y-30506989D01*
X208500000Y-30506989D02*
X208547619Y-30411751D01*
X208547619Y-30411751D02*
X208595238Y-30221275D01*
X208595238Y-30221275D02*
X208595238Y-30078418D01*
X208595238Y-30078418D02*
X208547619Y-29887942D01*
X208547619Y-29887942D02*
X208500000Y-29792704D01*
X208500000Y-29792704D02*
X208404762Y-29697466D01*
X208404762Y-29697466D02*
X208261905Y-29649847D01*
X208261905Y-29649847D02*
X208166667Y-29649847D01*
X208166667Y-29649847D02*
X208023810Y-29697466D01*
X208023810Y-29697466D02*
X207976191Y-29745085D01*
X207547619Y-30649847D02*
X207547619Y-29649847D01*
X207547619Y-29649847D02*
X207309524Y-29649847D01*
X207309524Y-29649847D02*
X207166667Y-29697466D01*
X207166667Y-29697466D02*
X207071429Y-29792704D01*
X207071429Y-29792704D02*
X207023810Y-29887942D01*
X207023810Y-29887942D02*
X206976191Y-30078418D01*
X206976191Y-30078418D02*
X206976191Y-30221275D01*
X206976191Y-30221275D02*
X207023810Y-30411751D01*
X207023810Y-30411751D02*
X207071429Y-30506989D01*
X207071429Y-30506989D02*
X207166667Y-30602228D01*
X207166667Y-30602228D02*
X207309524Y-30649847D01*
X207309524Y-30649847D02*
X207547619Y-30649847D01*
X206119048Y-29983180D02*
X206119048Y-30649847D01*
X206357143Y-29602228D02*
X206595238Y-30316513D01*
X206595238Y-30316513D02*
X205976191Y-30316513D01*
X205404762Y-29649847D02*
X205309524Y-29649847D01*
X205309524Y-29649847D02*
X205214286Y-29697466D01*
X205214286Y-29697466D02*
X205166667Y-29745085D01*
X205166667Y-29745085D02*
X205119048Y-29840323D01*
X205119048Y-29840323D02*
X205071429Y-30030799D01*
X205071429Y-30030799D02*
X205071429Y-30268894D01*
X205071429Y-30268894D02*
X205119048Y-30459370D01*
X205119048Y-30459370D02*
X205166667Y-30554608D01*
X205166667Y-30554608D02*
X205214286Y-30602228D01*
X205214286Y-30602228D02*
X205309524Y-30649847D01*
X205309524Y-30649847D02*
X205404762Y-30649847D01*
X205404762Y-30649847D02*
X205500000Y-30602228D01*
X205500000Y-30602228D02*
X205547619Y-30554608D01*
X205547619Y-30554608D02*
X205595238Y-30459370D01*
X205595238Y-30459370D02*
X205642857Y-30268894D01*
X205642857Y-30268894D02*
X205642857Y-30030799D01*
X205642857Y-30030799D02*
X205595238Y-29840323D01*
X205595238Y-29840323D02*
X205547619Y-29745085D01*
X205547619Y-29745085D02*
X205500000Y-29697466D01*
X205500000Y-29697466D02*
X205404762Y-29649847D01*
X204119048Y-30649847D02*
X204690476Y-30649847D01*
X204404762Y-30649847D02*
X204404762Y-29649847D01*
X204404762Y-29649847D02*
X204500000Y-29792704D01*
X204500000Y-29792704D02*
X204595238Y-29887942D01*
X204595238Y-29887942D02*
X204690476Y-29935561D01*
X203500000Y-29649847D02*
X203404762Y-29649847D01*
X203404762Y-29649847D02*
X203309524Y-29697466D01*
X203309524Y-29697466D02*
X203261905Y-29745085D01*
X203261905Y-29745085D02*
X203214286Y-29840323D01*
X203214286Y-29840323D02*
X203166667Y-30030799D01*
X203166667Y-30030799D02*
X203166667Y-30268894D01*
X203166667Y-30268894D02*
X203214286Y-30459370D01*
X203214286Y-30459370D02*
X203261905Y-30554608D01*
X203261905Y-30554608D02*
X203309524Y-30602228D01*
X203309524Y-30602228D02*
X203404762Y-30649847D01*
X203404762Y-30649847D02*
X203500000Y-30649847D01*
X203500000Y-30649847D02*
X203595238Y-30602228D01*
X203595238Y-30602228D02*
X203642857Y-30554608D01*
X203642857Y-30554608D02*
X203690476Y-30459370D01*
X203690476Y-30459370D02*
X203738095Y-30268894D01*
X203738095Y-30268894D02*
X203738095Y-30030799D01*
X203738095Y-30030799D02*
X203690476Y-29840323D01*
X203690476Y-29840323D02*
X203642857Y-29745085D01*
X203642857Y-29745085D02*
X203595238Y-29697466D01*
X203595238Y-29697466D02*
X203500000Y-29649847D01*
X202309524Y-29649847D02*
X202500000Y-29649847D01*
X202500000Y-29649847D02*
X202595238Y-29697466D01*
X202595238Y-29697466D02*
X202642857Y-29745085D01*
X202642857Y-29745085D02*
X202738095Y-29887942D01*
X202738095Y-29887942D02*
X202785714Y-30078418D01*
X202785714Y-30078418D02*
X202785714Y-30459370D01*
X202785714Y-30459370D02*
X202738095Y-30554608D01*
X202738095Y-30554608D02*
X202690476Y-30602228D01*
X202690476Y-30602228D02*
X202595238Y-30649847D01*
X202595238Y-30649847D02*
X202404762Y-30649847D01*
X202404762Y-30649847D02*
X202309524Y-30602228D01*
X202309524Y-30602228D02*
X202261905Y-30554608D01*
X202261905Y-30554608D02*
X202214286Y-30459370D01*
X202214286Y-30459370D02*
X202214286Y-30221275D01*
X202214286Y-30221275D02*
X202261905Y-30126037D01*
X202261905Y-30126037D02*
X202309524Y-30078418D01*
X202309524Y-30078418D02*
X202404762Y-30030799D01*
X202404762Y-30030799D02*
X202595238Y-30030799D01*
X202595238Y-30030799D02*
X202690476Y-30078418D01*
X202690476Y-30078418D02*
X202738095Y-30126037D01*
X202738095Y-30126037D02*
X202785714Y-30221275D01*
X201166666Y-29649847D02*
X200833333Y-30649847D01*
X200833333Y-30649847D02*
X200500000Y-29649847D01*
X199595238Y-30554608D02*
X199642857Y-30602228D01*
X199642857Y-30602228D02*
X199785714Y-30649847D01*
X199785714Y-30649847D02*
X199880952Y-30649847D01*
X199880952Y-30649847D02*
X200023809Y-30602228D01*
X200023809Y-30602228D02*
X200119047Y-30506989D01*
X200119047Y-30506989D02*
X200166666Y-30411751D01*
X200166666Y-30411751D02*
X200214285Y-30221275D01*
X200214285Y-30221275D02*
X200214285Y-30078418D01*
X200214285Y-30078418D02*
X200166666Y-29887942D01*
X200166666Y-29887942D02*
X200119047Y-29792704D01*
X200119047Y-29792704D02*
X200023809Y-29697466D01*
X200023809Y-29697466D02*
X199880952Y-29649847D01*
X199880952Y-29649847D02*
X199785714Y-29649847D01*
X199785714Y-29649847D02*
X199642857Y-29697466D01*
X199642857Y-29697466D02*
X199595238Y-29745085D01*
X198976190Y-29649847D02*
X198785714Y-29649847D01*
X198785714Y-29649847D02*
X198690476Y-29697466D01*
X198690476Y-29697466D02*
X198595238Y-29792704D01*
X198595238Y-29792704D02*
X198547619Y-29983180D01*
X198547619Y-29983180D02*
X198547619Y-30316513D01*
X198547619Y-30316513D02*
X198595238Y-30506989D01*
X198595238Y-30506989D02*
X198690476Y-30602228D01*
X198690476Y-30602228D02*
X198785714Y-30649847D01*
X198785714Y-30649847D02*
X198976190Y-30649847D01*
X198976190Y-30649847D02*
X199071428Y-30602228D01*
X199071428Y-30602228D02*
X199166666Y-30506989D01*
X199166666Y-30506989D02*
X199214285Y-30316513D01*
X199214285Y-30316513D02*
X199214285Y-29983180D01*
X199214285Y-29983180D02*
X199166666Y-29792704D01*
X199166666Y-29792704D02*
X199071428Y-29697466D01*
X199071428Y-29697466D02*
X198976190Y-29649847D01*
X197404761Y-29745085D02*
X197357142Y-29697466D01*
X197357142Y-29697466D02*
X197261904Y-29649847D01*
X197261904Y-29649847D02*
X197023809Y-29649847D01*
X197023809Y-29649847D02*
X196928571Y-29697466D01*
X196928571Y-29697466D02*
X196880952Y-29745085D01*
X196880952Y-29745085D02*
X196833333Y-29840323D01*
X196833333Y-29840323D02*
X196833333Y-29935561D01*
X196833333Y-29935561D02*
X196880952Y-30078418D01*
X196880952Y-30078418D02*
X197452380Y-30649847D01*
X197452380Y-30649847D02*
X196833333Y-30649847D01*
X196404761Y-30554608D02*
X196357142Y-30602228D01*
X196357142Y-30602228D02*
X196404761Y-30649847D01*
X196404761Y-30649847D02*
X196452380Y-30602228D01*
X196452380Y-30602228D02*
X196404761Y-30554608D01*
X196404761Y-30554608D02*
X196404761Y-30649847D01*
X195738095Y-29649847D02*
X195642857Y-29649847D01*
X195642857Y-29649847D02*
X195547619Y-29697466D01*
X195547619Y-29697466D02*
X195500000Y-29745085D01*
X195500000Y-29745085D02*
X195452381Y-29840323D01*
X195452381Y-29840323D02*
X195404762Y-30030799D01*
X195404762Y-30030799D02*
X195404762Y-30268894D01*
X195404762Y-30268894D02*
X195452381Y-30459370D01*
X195452381Y-30459370D02*
X195500000Y-30554608D01*
X195500000Y-30554608D02*
X195547619Y-30602228D01*
X195547619Y-30602228D02*
X195642857Y-30649847D01*
X195642857Y-30649847D02*
X195738095Y-30649847D01*
X195738095Y-30649847D02*
X195833333Y-30602228D01*
X195833333Y-30602228D02*
X195880952Y-30554608D01*
X195880952Y-30554608D02*
X195928571Y-30459370D01*
X195928571Y-30459370D02*
X195976190Y-30268894D01*
X195976190Y-30268894D02*
X195976190Y-30030799D01*
X195976190Y-30030799D02*
X195928571Y-29840323D01*
X195928571Y-29840323D02*
X195880952Y-29745085D01*
X195880952Y-29745085D02*
X195833333Y-29697466D01*
X195833333Y-29697466D02*
X195738095Y-29649847D01*
X208452382Y-31735981D02*
X208309525Y-31783600D01*
X208309525Y-31783600D02*
X208261906Y-31831219D01*
X208261906Y-31831219D02*
X208214287Y-31926457D01*
X208214287Y-31926457D02*
X208214287Y-32069314D01*
X208214287Y-32069314D02*
X208261906Y-32164552D01*
X208261906Y-32164552D02*
X208309525Y-32212172D01*
X208309525Y-32212172D02*
X208404763Y-32259791D01*
X208404763Y-32259791D02*
X208785715Y-32259791D01*
X208785715Y-32259791D02*
X208785715Y-31259791D01*
X208785715Y-31259791D02*
X208452382Y-31259791D01*
X208452382Y-31259791D02*
X208357144Y-31307410D01*
X208357144Y-31307410D02*
X208309525Y-31355029D01*
X208309525Y-31355029D02*
X208261906Y-31450267D01*
X208261906Y-31450267D02*
X208261906Y-31545505D01*
X208261906Y-31545505D02*
X208309525Y-31640743D01*
X208309525Y-31640743D02*
X208357144Y-31688362D01*
X208357144Y-31688362D02*
X208452382Y-31735981D01*
X208452382Y-31735981D02*
X208785715Y-31735981D01*
X207642858Y-32259791D02*
X207738096Y-32212172D01*
X207738096Y-32212172D02*
X207785715Y-32116933D01*
X207785715Y-32116933D02*
X207785715Y-31259791D01*
X206880953Y-32212172D02*
X206976191Y-32259791D01*
X206976191Y-32259791D02*
X207166667Y-32259791D01*
X207166667Y-32259791D02*
X207261905Y-32212172D01*
X207261905Y-32212172D02*
X207309524Y-32116933D01*
X207309524Y-32116933D02*
X207309524Y-31735981D01*
X207309524Y-31735981D02*
X207261905Y-31640743D01*
X207261905Y-31640743D02*
X207166667Y-31593124D01*
X207166667Y-31593124D02*
X206976191Y-31593124D01*
X206976191Y-31593124D02*
X206880953Y-31640743D01*
X206880953Y-31640743D02*
X206833334Y-31735981D01*
X206833334Y-31735981D02*
X206833334Y-31831219D01*
X206833334Y-31831219D02*
X207309524Y-31926457D01*
X206023810Y-32212172D02*
X206119048Y-32259791D01*
X206119048Y-32259791D02*
X206309524Y-32259791D01*
X206309524Y-32259791D02*
X206404762Y-32212172D01*
X206404762Y-32212172D02*
X206452381Y-32116933D01*
X206452381Y-32116933D02*
X206452381Y-31735981D01*
X206452381Y-31735981D02*
X206404762Y-31640743D01*
X206404762Y-31640743D02*
X206309524Y-31593124D01*
X206309524Y-31593124D02*
X206119048Y-31593124D01*
X206119048Y-31593124D02*
X206023810Y-31640743D01*
X206023810Y-31640743D02*
X205976191Y-31735981D01*
X205976191Y-31735981D02*
X205976191Y-31831219D01*
X205976191Y-31831219D02*
X206452381Y-31926457D01*
X205547619Y-31593124D02*
X205547619Y-32593124D01*
X205547619Y-31640743D02*
X205452381Y-31593124D01*
X205452381Y-31593124D02*
X205261905Y-31593124D01*
X205261905Y-31593124D02*
X205166667Y-31640743D01*
X205166667Y-31640743D02*
X205119048Y-31688362D01*
X205119048Y-31688362D02*
X205071429Y-31783600D01*
X205071429Y-31783600D02*
X205071429Y-32069314D01*
X205071429Y-32069314D02*
X205119048Y-32164552D01*
X205119048Y-32164552D02*
X205166667Y-32212172D01*
X205166667Y-32212172D02*
X205261905Y-32259791D01*
X205261905Y-32259791D02*
X205452381Y-32259791D01*
X205452381Y-32259791D02*
X205547619Y-32212172D01*
X203928571Y-32212172D02*
X203785714Y-32259791D01*
X203785714Y-32259791D02*
X203547619Y-32259791D01*
X203547619Y-32259791D02*
X203452381Y-32212172D01*
X203452381Y-32212172D02*
X203404762Y-32164552D01*
X203404762Y-32164552D02*
X203357143Y-32069314D01*
X203357143Y-32069314D02*
X203357143Y-31974076D01*
X203357143Y-31974076D02*
X203404762Y-31878838D01*
X203404762Y-31878838D02*
X203452381Y-31831219D01*
X203452381Y-31831219D02*
X203547619Y-31783600D01*
X203547619Y-31783600D02*
X203738095Y-31735981D01*
X203738095Y-31735981D02*
X203833333Y-31688362D01*
X203833333Y-31688362D02*
X203880952Y-31640743D01*
X203880952Y-31640743D02*
X203928571Y-31545505D01*
X203928571Y-31545505D02*
X203928571Y-31450267D01*
X203928571Y-31450267D02*
X203880952Y-31355029D01*
X203880952Y-31355029D02*
X203833333Y-31307410D01*
X203833333Y-31307410D02*
X203738095Y-31259791D01*
X203738095Y-31259791D02*
X203500000Y-31259791D01*
X203500000Y-31259791D02*
X203357143Y-31307410D01*
X202785714Y-32259791D02*
X202880952Y-32212172D01*
X202880952Y-32212172D02*
X202928571Y-32164552D01*
X202928571Y-32164552D02*
X202976190Y-32069314D01*
X202976190Y-32069314D02*
X202976190Y-31783600D01*
X202976190Y-31783600D02*
X202928571Y-31688362D01*
X202928571Y-31688362D02*
X202880952Y-31640743D01*
X202880952Y-31640743D02*
X202785714Y-31593124D01*
X202785714Y-31593124D02*
X202642857Y-31593124D01*
X202642857Y-31593124D02*
X202547619Y-31640743D01*
X202547619Y-31640743D02*
X202500000Y-31688362D01*
X202500000Y-31688362D02*
X202452381Y-31783600D01*
X202452381Y-31783600D02*
X202452381Y-32069314D01*
X202452381Y-32069314D02*
X202500000Y-32164552D01*
X202500000Y-32164552D02*
X202547619Y-32212172D01*
X202547619Y-32212172D02*
X202642857Y-32259791D01*
X202642857Y-32259791D02*
X202785714Y-32259791D01*
X201595238Y-31593124D02*
X201595238Y-32259791D01*
X202023809Y-31593124D02*
X202023809Y-32116933D01*
X202023809Y-32116933D02*
X201976190Y-32212172D01*
X201976190Y-32212172D02*
X201880952Y-32259791D01*
X201880952Y-32259791D02*
X201738095Y-32259791D01*
X201738095Y-32259791D02*
X201642857Y-32212172D01*
X201642857Y-32212172D02*
X201595238Y-32164552D01*
X201119047Y-31593124D02*
X201119047Y-32259791D01*
X201119047Y-31688362D02*
X201071428Y-31640743D01*
X201071428Y-31640743D02*
X200976190Y-31593124D01*
X200976190Y-31593124D02*
X200833333Y-31593124D01*
X200833333Y-31593124D02*
X200738095Y-31640743D01*
X200738095Y-31640743D02*
X200690476Y-31735981D01*
X200690476Y-31735981D02*
X200690476Y-32259791D01*
X199785714Y-32259791D02*
X199785714Y-31259791D01*
X199785714Y-32212172D02*
X199880952Y-32259791D01*
X199880952Y-32259791D02*
X200071428Y-32259791D01*
X200071428Y-32259791D02*
X200166666Y-32212172D01*
X200166666Y-32212172D02*
X200214285Y-32164552D01*
X200214285Y-32164552D02*
X200261904Y-32069314D01*
X200261904Y-32069314D02*
X200261904Y-31783600D01*
X200261904Y-31783600D02*
X200214285Y-31688362D01*
X200214285Y-31688362D02*
X200166666Y-31640743D01*
X200166666Y-31640743D02*
X200071428Y-31593124D01*
X200071428Y-31593124D02*
X199880952Y-31593124D01*
X199880952Y-31593124D02*
X199785714Y-31640743D01*
X198595237Y-31355029D02*
X198547618Y-31307410D01*
X198547618Y-31307410D02*
X198452380Y-31259791D01*
X198452380Y-31259791D02*
X198214285Y-31259791D01*
X198214285Y-31259791D02*
X198119047Y-31307410D01*
X198119047Y-31307410D02*
X198071428Y-31355029D01*
X198071428Y-31355029D02*
X198023809Y-31450267D01*
X198023809Y-31450267D02*
X198023809Y-31545505D01*
X198023809Y-31545505D02*
X198071428Y-31688362D01*
X198071428Y-31688362D02*
X198642856Y-32259791D01*
X198642856Y-32259791D02*
X198023809Y-32259791D01*
X197404761Y-31259791D02*
X197309523Y-31259791D01*
X197309523Y-31259791D02*
X197214285Y-31307410D01*
X197214285Y-31307410D02*
X197166666Y-31355029D01*
X197166666Y-31355029D02*
X197119047Y-31450267D01*
X197119047Y-31450267D02*
X197071428Y-31640743D01*
X197071428Y-31640743D02*
X197071428Y-31878838D01*
X197071428Y-31878838D02*
X197119047Y-32069314D01*
X197119047Y-32069314D02*
X197166666Y-32164552D01*
X197166666Y-32164552D02*
X197214285Y-32212172D01*
X197214285Y-32212172D02*
X197309523Y-32259791D01*
X197309523Y-32259791D02*
X197404761Y-32259791D01*
X197404761Y-32259791D02*
X197499999Y-32212172D01*
X197499999Y-32212172D02*
X197547618Y-32164552D01*
X197547618Y-32164552D02*
X197595237Y-32069314D01*
X197595237Y-32069314D02*
X197642856Y-31878838D01*
X197642856Y-31878838D02*
X197642856Y-31640743D01*
X197642856Y-31640743D02*
X197595237Y-31450267D01*
X197595237Y-31450267D02*
X197547618Y-31355029D01*
X197547618Y-31355029D02*
X197499999Y-31307410D01*
X197499999Y-31307410D02*
X197404761Y-31259791D01*
X196690475Y-31355029D02*
X196642856Y-31307410D01*
X196642856Y-31307410D02*
X196547618Y-31259791D01*
X196547618Y-31259791D02*
X196309523Y-31259791D01*
X196309523Y-31259791D02*
X196214285Y-31307410D01*
X196214285Y-31307410D02*
X196166666Y-31355029D01*
X196166666Y-31355029D02*
X196119047Y-31450267D01*
X196119047Y-31450267D02*
X196119047Y-31545505D01*
X196119047Y-31545505D02*
X196166666Y-31688362D01*
X196166666Y-31688362D02*
X196738094Y-32259791D01*
X196738094Y-32259791D02*
X196119047Y-32259791D01*
X195214285Y-31259791D02*
X195690475Y-31259791D01*
X195690475Y-31259791D02*
X195738094Y-31735981D01*
X195738094Y-31735981D02*
X195690475Y-31688362D01*
X195690475Y-31688362D02*
X195595237Y-31640743D01*
X195595237Y-31640743D02*
X195357142Y-31640743D01*
X195357142Y-31640743D02*
X195261904Y-31688362D01*
X195261904Y-31688362D02*
X195214285Y-31735981D01*
X195214285Y-31735981D02*
X195166666Y-31831219D01*
X195166666Y-31831219D02*
X195166666Y-32069314D01*
X195166666Y-32069314D02*
X195214285Y-32164552D01*
X195214285Y-32164552D02*
X195261904Y-32212172D01*
X195261904Y-32212172D02*
X195357142Y-32259791D01*
X195357142Y-32259791D02*
X195595237Y-32259791D01*
X195595237Y-32259791D02*
X195690475Y-32212172D01*
X195690475Y-32212172D02*
X195738094Y-32164552D01*
X205685715Y-33331009D02*
X206019048Y-33331009D01*
X206019048Y-33854819D02*
X206019048Y-32854819D01*
X206019048Y-32854819D02*
X205542858Y-32854819D01*
X205161905Y-33854819D02*
X205161905Y-33188152D01*
X205161905Y-33378628D02*
X205114286Y-33283390D01*
X205114286Y-33283390D02*
X205066667Y-33235771D01*
X205066667Y-33235771D02*
X204971429Y-33188152D01*
X204971429Y-33188152D02*
X204876191Y-33188152D01*
X204400000Y-33854819D02*
X204495238Y-33807200D01*
X204495238Y-33807200D02*
X204542857Y-33759580D01*
X204542857Y-33759580D02*
X204590476Y-33664342D01*
X204590476Y-33664342D02*
X204590476Y-33378628D01*
X204590476Y-33378628D02*
X204542857Y-33283390D01*
X204542857Y-33283390D02*
X204495238Y-33235771D01*
X204495238Y-33235771D02*
X204400000Y-33188152D01*
X204400000Y-33188152D02*
X204257143Y-33188152D01*
X204257143Y-33188152D02*
X204161905Y-33235771D01*
X204161905Y-33235771D02*
X204114286Y-33283390D01*
X204114286Y-33283390D02*
X204066667Y-33378628D01*
X204066667Y-33378628D02*
X204066667Y-33664342D01*
X204066667Y-33664342D02*
X204114286Y-33759580D01*
X204114286Y-33759580D02*
X204161905Y-33807200D01*
X204161905Y-33807200D02*
X204257143Y-33854819D01*
X204257143Y-33854819D02*
X204400000Y-33854819D01*
X203638095Y-33188152D02*
X203638095Y-33854819D01*
X203638095Y-33283390D02*
X203590476Y-33235771D01*
X203590476Y-33235771D02*
X203495238Y-33188152D01*
X203495238Y-33188152D02*
X203352381Y-33188152D01*
X203352381Y-33188152D02*
X203257143Y-33235771D01*
X203257143Y-33235771D02*
X203209524Y-33331009D01*
X203209524Y-33331009D02*
X203209524Y-33854819D01*
X202876190Y-33188152D02*
X202495238Y-33188152D01*
X202733333Y-32854819D02*
X202733333Y-33711961D01*
X202733333Y-33711961D02*
X202685714Y-33807200D01*
X202685714Y-33807200D02*
X202590476Y-33854819D01*
X202590476Y-33854819D02*
X202495238Y-33854819D01*
X201399999Y-33188152D02*
X201399999Y-34188152D01*
X201399999Y-33235771D02*
X201304761Y-33188152D01*
X201304761Y-33188152D02*
X201114285Y-33188152D01*
X201114285Y-33188152D02*
X201019047Y-33235771D01*
X201019047Y-33235771D02*
X200971428Y-33283390D01*
X200971428Y-33283390D02*
X200923809Y-33378628D01*
X200923809Y-33378628D02*
X200923809Y-33664342D01*
X200923809Y-33664342D02*
X200971428Y-33759580D01*
X200971428Y-33759580D02*
X201019047Y-33807200D01*
X201019047Y-33807200D02*
X201114285Y-33854819D01*
X201114285Y-33854819D02*
X201304761Y-33854819D01*
X201304761Y-33854819D02*
X201399999Y-33807200D01*
X200066666Y-33854819D02*
X200066666Y-33331009D01*
X200066666Y-33331009D02*
X200114285Y-33235771D01*
X200114285Y-33235771D02*
X200209523Y-33188152D01*
X200209523Y-33188152D02*
X200399999Y-33188152D01*
X200399999Y-33188152D02*
X200495237Y-33235771D01*
X200066666Y-33807200D02*
X200161904Y-33854819D01*
X200161904Y-33854819D02*
X200399999Y-33854819D01*
X200399999Y-33854819D02*
X200495237Y-33807200D01*
X200495237Y-33807200D02*
X200542856Y-33711961D01*
X200542856Y-33711961D02*
X200542856Y-33616723D01*
X200542856Y-33616723D02*
X200495237Y-33521485D01*
X200495237Y-33521485D02*
X200399999Y-33473866D01*
X200399999Y-33473866D02*
X200161904Y-33473866D01*
X200161904Y-33473866D02*
X200066666Y-33426247D01*
X199590475Y-33188152D02*
X199590475Y-33854819D01*
X199590475Y-33283390D02*
X199542856Y-33235771D01*
X199542856Y-33235771D02*
X199447618Y-33188152D01*
X199447618Y-33188152D02*
X199304761Y-33188152D01*
X199304761Y-33188152D02*
X199209523Y-33235771D01*
X199209523Y-33235771D02*
X199161904Y-33331009D01*
X199161904Y-33331009D02*
X199161904Y-33854819D01*
X198304761Y-33807200D02*
X198399999Y-33854819D01*
X198399999Y-33854819D02*
X198590475Y-33854819D01*
X198590475Y-33854819D02*
X198685713Y-33807200D01*
X198685713Y-33807200D02*
X198733332Y-33711961D01*
X198733332Y-33711961D02*
X198733332Y-33331009D01*
X198733332Y-33331009D02*
X198685713Y-33235771D01*
X198685713Y-33235771D02*
X198590475Y-33188152D01*
X198590475Y-33188152D02*
X198399999Y-33188152D01*
X198399999Y-33188152D02*
X198304761Y-33235771D01*
X198304761Y-33235771D02*
X198257142Y-33331009D01*
X198257142Y-33331009D02*
X198257142Y-33426247D01*
X198257142Y-33426247D02*
X198733332Y-33521485D01*
X197685713Y-33854819D02*
X197780951Y-33807200D01*
X197780951Y-33807200D02*
X197828570Y-33711961D01*
X197828570Y-33711961D02*
X197828570Y-32854819D01*
%LPC*%
D12*
X184500000Y-30500000D03*
X219500000Y-30500000D03*
X219500000Y-153000000D03*
X184500000Y-153000000D03*
D13*
X208500000Y-139750000D03*
X189900000Y-101250000D03*
D14*
X202000000Y-50000000D03*
D13*
X182499999Y-125000000D03*
X195499999Y-125000000D03*
X214100000Y-101250000D03*
X214100000Y-80800000D03*
X195499999Y-139750000D03*
X221500000Y-125000000D03*
X208500000Y-125000000D03*
X182499999Y-139750000D03*
X189900000Y-80900000D03*
X221500000Y-139750000D03*
%LPD*%
M02*
