G04 #@! TF.GenerationSoftware,KiCad,Pcbnew,9.0.4-9.0.4-0~ubuntu22.04.1*
G04 #@! TF.CreationDate,2025-10-19T11:48:11+01:00*
G04 #@! TF.ProjectId,CD40106_VCO,43443430-3130-4365-9f56-434f2e6b6963,rev?*
G04 #@! TF.SameCoordinates,Original*
G04 #@! TF.FileFunction,Legend,Top*
G04 #@! TF.FilePolarity,Positive*
%FSLAX46Y46*%
G04 Gerber Fmt 4.6, Leading zero omitted, Abs format (unit mm)*
G04 Created by KiCad (PCBNEW 9.0.4-9.0.4-0~ubuntu22.04.1) date 2025-10-19 11:48:11*
%MOMM*%
%LPD*%
G01*
G04 APERTURE LIST*
%ADD10C,0.120000*%
%ADD11C,0.100000*%
%ADD12C,0.150000*%
%ADD13C,0.000000*%
%ADD14O,6.700000X4.200000*%
%ADD15C,8.000000*%
%ADD16C,14.000000*%
G04 APERTURE END LIST*
D10*
X196100001Y-152050000D02*
X195100001Y-151650000D01*
X200900001Y-153250000D02*
X201100001Y-153450000D01*
X205700001Y-152250000D02*
X204900001Y-152250000D01*
X208300001Y-152250000D02*
X208700001Y-153050000D01*
X223950000Y-91400000D02*
G75*
G02*
X224450000Y-91900000I-100J-500100D01*
G01*
X221350000Y-93600000D02*
G75*
G02*
X221850000Y-93100000I500100J-100D01*
G01*
X208150000Y-147800000D02*
X208850000Y-147800000D01*
X199400000Y-30550000D02*
X199300000Y-32250000D01*
X184150000Y-117050000D02*
X183300000Y-118000000D01*
X205075000Y-30650000D02*
X204275000Y-31550000D01*
X181796469Y-106650000D02*
G75*
G02*
X182296500Y-107150000I-69J-500100D01*
G01*
X199850000Y-32250000D02*
X199950000Y-30550000D01*
X183800000Y-118750000D02*
X183900000Y-118650000D01*
X197800000Y-31300000D02*
X198400000Y-31300000D01*
X217800000Y-41799998D02*
X217800000Y-41100000D01*
X217800000Y-44000000D02*
X217800000Y-43199999D01*
X205075000Y-30650000D02*
X205175000Y-30750000D01*
X197150000Y-113750000D02*
X196000000Y-113750000D01*
X221350000Y-95000000D02*
G75*
G02*
X220850000Y-95500000I-500100J100D01*
G01*
X201100001Y-153450000D02*
X201100001Y-153250000D01*
X207000000Y-64500000D02*
X207000000Y-65100000D01*
X203250000Y-111750000D02*
G75*
G02*
X202750000Y-111250000I100J500100D01*
G01*
X202500001Y-152050000D02*
X201100001Y-152450000D01*
X209500000Y-117150000D02*
X209300000Y-117050000D01*
X218800000Y-40900000D02*
X218800000Y-41199999D01*
X219550000Y-44250000D02*
X217800000Y-44000000D01*
X205150000Y-104450000D02*
X205150000Y-103750000D01*
X220500000Y-59900000D02*
G75*
G02*
X221000000Y-60400000I-100J-500100D01*
G01*
X182400000Y-90300000D02*
X185894704Y-90296469D01*
X182500000Y-146050000D02*
X184000000Y-147800000D01*
X178850000Y-93800000D02*
X178851765Y-98150000D01*
X209500000Y-117150000D02*
X209150000Y-118850000D01*
X207650000Y-117650000D02*
X206650000Y-118000000D01*
X185103553Y-61400000D02*
X182103553Y-61400000D01*
D11*
X217400000Y-46100000D02*
X216900000Y-45600000D01*
X217400000Y-45100000D01*
X217400000Y-46100000D01*
G36*
X217400000Y-46100000D02*
G01*
X216900000Y-45600000D01*
X217400000Y-45100000D01*
X217400000Y-46100000D01*
G37*
D10*
X222050000Y-87900000D02*
X222450000Y-86200000D01*
X220550000Y-118800000D02*
X220550000Y-118600000D01*
X202750000Y-101750000D02*
G75*
G02*
X203250000Y-101250000I499900J100D01*
G01*
X184403553Y-50900000D02*
X182103553Y-50900000D01*
X179700000Y-102503531D02*
X179701765Y-106144703D01*
X215600000Y-62100000D02*
X215600000Y-65100000D01*
X197650000Y-113250000D02*
G75*
G02*
X197150000Y-113750000I-500100J100D01*
G01*
X207300001Y-152250000D02*
X206500001Y-153450000D01*
X198300001Y-151250000D02*
X199100001Y-151250000D01*
X204775000Y-32300000D02*
X204875000Y-32150000D01*
X209550000Y-146100000D02*
X209550000Y-147800000D01*
X181255297Y-83196469D02*
X179805297Y-83200000D01*
X186103553Y-70900000D02*
X188950000Y-70900000D01*
X202753531Y-105453531D02*
X202748234Y-106348234D01*
X186394704Y-90796469D02*
X186396469Y-92796469D01*
X203425000Y-32300000D02*
X204425000Y-30600000D01*
X184750000Y-117050000D02*
X185450000Y-117050000D01*
X207900001Y-152250000D02*
X207700001Y-152250000D01*
X220650000Y-86200000D02*
X219950000Y-88000000D01*
X181500000Y-118500000D02*
X182900000Y-116200000D01*
X218750000Y-90900000D02*
X218750000Y-88450000D01*
X189950000Y-72550000D02*
G75*
G02*
X189450000Y-72050000I100J500100D01*
G01*
X192950000Y-110450000D02*
X196146469Y-110453531D01*
X223150000Y-117100000D02*
X223050000Y-117100000D01*
X179525000Y-77200000D02*
X181275000Y-78250000D01*
X195500000Y-114250000D02*
G75*
G02*
X196000000Y-113750000I499900J100D01*
G01*
X207100001Y-153450000D02*
X207900001Y-152250000D01*
X196700001Y-153450000D02*
X197300001Y-153450000D01*
X217800000Y-42500000D02*
X218850000Y-43300000D01*
X221450000Y-86200000D02*
X221350000Y-86200000D01*
X222850000Y-118150000D02*
X223350000Y-118900000D01*
X224450000Y-92600000D02*
G75*
G02*
X223950000Y-93100000I-500100J100D01*
G01*
X208150000Y-146100000D02*
X208150000Y-147800000D01*
X181898235Y-85450000D02*
X181900000Y-89800000D01*
X203250000Y-103250000D02*
X204650000Y-103250000D01*
D12*
X197500000Y-80800000D02*
G75*
G02*
X182300000Y-80800000I-7600000J0D01*
G01*
X182300000Y-80800000D02*
G75*
G02*
X197500000Y-80800000I7600000J0D01*
G01*
D10*
X219450000Y-117700000D02*
X220350000Y-118200000D01*
X219600000Y-42799999D02*
X219500000Y-42699999D01*
X197500000Y-147000000D02*
G75*
G02*
X193500000Y-147000000I-2000000J0D01*
G01*
X193500000Y-147000000D02*
G75*
G02*
X197500000Y-147000000I2000000J0D01*
G01*
X199700001Y-152250000D02*
X200500001Y-152250000D01*
X220450000Y-117100000D02*
X220250000Y-117000000D01*
X179305297Y-83700000D02*
G75*
G02*
X179805297Y-83199997I500003J0D01*
G01*
X181398235Y-84950000D02*
G75*
G02*
X181898200Y-85450000I-35J-500000D01*
G01*
X207450000Y-146100000D02*
X208150000Y-146100000D01*
X208300001Y-152250000D02*
X207700001Y-153450000D01*
X207750000Y-117100000D02*
X208350000Y-118800000D01*
X220550000Y-118800000D02*
X220750000Y-118700000D01*
X207450000Y-147800000D02*
X207450000Y-146100000D01*
D11*
X206050000Y-101250000D02*
X205550000Y-101750000D01*
X205550000Y-100750000D01*
X206050000Y-101250000D01*
G36*
X206050000Y-101250000D02*
G01*
X205550000Y-101750000D01*
X205550000Y-100750000D01*
X206050000Y-101250000D01*
G37*
D10*
X219950000Y-88000000D02*
X219850000Y-87800000D01*
X219599999Y-38699999D02*
X219400000Y-38899999D01*
X209550000Y-147800000D02*
X209850000Y-147800000D01*
X215600000Y-65100000D02*
G75*
G02*
X215100000Y-65600000I-500000J0D01*
G01*
X220650000Y-86200000D02*
X221350000Y-86750000D01*
X206375000Y-30650000D02*
X205325000Y-32400000D01*
X202750000Y-101750000D02*
X202747351Y-102747351D01*
X182800000Y-109296469D02*
X196146469Y-109300000D01*
X183300000Y-118000000D02*
X183800000Y-118750000D01*
X208850000Y-146100000D02*
X209550000Y-146100000D01*
X199300000Y-32250000D02*
X198700000Y-32250000D01*
X221000000Y-61100000D02*
G75*
G02*
X220500000Y-61600000I-500100J100D01*
G01*
X205150000Y-108050000D02*
G75*
G02*
X204650000Y-108550000I-500100J100D01*
G01*
X222175000Y-117050000D02*
X221250000Y-118800000D01*
X185894704Y-90296469D02*
G75*
G02*
X186394631Y-90796469I-104J-500031D01*
G01*
X203250000Y-103250000D02*
G75*
G02*
X202750000Y-102750000I100J500100D01*
G01*
X180400000Y-116200000D02*
X180200000Y-116700000D01*
X196700001Y-152050000D02*
X196700001Y-153450000D01*
X185150000Y-117050000D02*
X184150000Y-118750000D01*
X198400000Y-31300000D02*
X198350000Y-32250000D01*
X207500000Y-65600000D02*
X215100000Y-65600000D01*
X219599999Y-38699999D02*
X219799998Y-38900000D01*
X222550000Y-93100000D02*
X221850000Y-93100000D01*
X181001765Y-98150000D02*
G75*
G02*
X180501765Y-98649965I-500065J100D01*
G01*
X207500000Y-65600000D02*
G75*
G02*
X207000000Y-65100000I0J500000D01*
G01*
X205325000Y-32400000D02*
X205575000Y-30650000D01*
X218800000Y-39299999D02*
X218800000Y-38999999D01*
X203250000Y-106850000D02*
X204650000Y-106850000D01*
X180200000Y-106650000D02*
X181796469Y-106650000D01*
X217800000Y-40399999D02*
X219600000Y-39999999D01*
X200950000Y-32250000D02*
X200350000Y-32250000D01*
X202000000Y-31400000D02*
X201950000Y-32250000D01*
X179351765Y-98650000D02*
G75*
G02*
X178851700Y-98150000I35J500100D01*
G01*
X197900001Y-151650000D02*
X197900001Y-153450000D01*
X197100000Y-75900000D02*
G75*
G02*
X196600000Y-76400000I-500000J0D01*
G01*
X181275000Y-76225000D02*
X181275000Y-75525000D01*
X180900000Y-116200000D02*
X180800000Y-116200000D01*
X207450000Y-147800000D02*
X206950000Y-147800000D01*
X204650000Y-106850000D02*
G75*
G02*
X205150000Y-107350000I-100J-500100D01*
G01*
X179805297Y-84946469D02*
G75*
G02*
X179305331Y-84446469I103J500069D01*
G01*
X197200000Y-117200000D02*
X196650000Y-117900000D01*
X205700001Y-153450000D02*
X206900001Y-152250000D01*
X196650000Y-117900000D02*
X196300000Y-117200000D01*
X217800000Y-42500000D02*
X217900000Y-42399999D01*
X203500001Y-152450000D02*
X204300001Y-153050000D01*
X182525000Y-118750000D02*
X182775000Y-117050000D01*
X180400000Y-117900000D02*
X180800000Y-117900000D01*
X181000000Y-96150000D02*
X181001765Y-98150000D01*
X209850000Y-117850000D02*
X209500000Y-117150000D01*
X224450000Y-92600000D02*
X224450000Y-91900000D01*
X208650000Y-118800000D02*
X209050000Y-117100000D01*
X206500001Y-153450000D02*
X206700001Y-153450000D01*
X223350000Y-118900000D02*
X223450000Y-118800000D01*
X188950000Y-70900000D02*
G75*
G02*
X189450000Y-71400000I0J-500000D01*
G01*
X179575000Y-76175000D02*
X181275000Y-77225000D01*
X217900000Y-59400000D02*
X217900000Y-46100000D01*
X196146469Y-109300000D02*
G75*
G02*
X196646500Y-109800000I-69J-500100D01*
G01*
X206900001Y-152250000D02*
X206700001Y-152250000D01*
X221750000Y-86200000D02*
X222350000Y-87900000D01*
X182400000Y-90300000D02*
G75*
G02*
X181900000Y-89800000I100J500100D01*
G01*
X201100001Y-153450000D02*
X201300001Y-153250000D01*
X203250000Y-108550000D02*
X204650000Y-108550000D01*
X201950000Y-32250000D02*
X201350000Y-32250000D01*
X181900000Y-116200000D02*
X181800000Y-116200000D01*
X196300000Y-117200000D02*
X195950000Y-118900000D01*
X200450000Y-30550000D02*
X201050000Y-30550000D01*
X223700000Y-117200000D02*
X223800000Y-117300000D01*
X201050000Y-30550000D02*
X200950000Y-32250000D01*
X182296469Y-107150000D02*
X182300000Y-108796469D01*
X184150000Y-117050000D02*
X184250000Y-117150000D01*
X222750000Y-86200000D02*
X222650000Y-86200000D01*
X195500000Y-114250000D02*
X195500000Y-116200000D01*
X189450000Y-71400000D02*
X189450000Y-72050000D01*
X181275000Y-75425000D02*
X181475000Y-75625000D01*
X179575000Y-76175000D02*
X179575000Y-76275000D01*
X196700001Y-152050000D02*
X196900001Y-152250000D01*
X195100001Y-151650000D02*
X195100001Y-153450000D01*
X183575000Y-117050000D02*
X182525000Y-118750000D01*
X195100001Y-153450000D02*
X196100001Y-152850000D01*
X202753531Y-105453531D02*
G75*
G02*
X203253531Y-104953531I500069J-69D01*
G01*
X182103553Y-61400000D02*
G75*
G02*
X181603500Y-60900000I47J500100D01*
G01*
X179975000Y-76025000D02*
G75*
G02*
X179575000Y-75625000I0J400000D01*
G01*
X218400000Y-59900000D02*
X220500000Y-59900000D01*
X185103553Y-61400000D02*
G75*
G02*
X185603500Y-61900000I47J-499900D01*
G01*
X181603553Y-51400000D02*
G75*
G02*
X182103553Y-50900053I499947J0D01*
G01*
X208850000Y-147800000D02*
X208850000Y-146100000D01*
X193900000Y-146050000D02*
X195000000Y-147800000D01*
X222450000Y-86200000D02*
X222350000Y-86200000D01*
X181275000Y-78250000D02*
X181275000Y-78350000D01*
X208050000Y-117100000D02*
X208650000Y-118800000D01*
X202753531Y-109053531D02*
G75*
G02*
X203253531Y-108553531I500069J-69D01*
G01*
X219550000Y-118800000D02*
X219750000Y-118800000D01*
X196300000Y-117200000D02*
X196100000Y-117100000D01*
X203250000Y-106850000D02*
G75*
G02*
X202750000Y-106350000I100J500100D01*
G01*
X217800000Y-40399999D02*
X217800000Y-40500000D01*
X197850000Y-30500000D02*
X197800000Y-31300000D01*
X207750000Y-117100000D02*
X207650000Y-117100000D01*
X197900001Y-151650000D02*
G75*
G02*
X198300001Y-151250001I399999J0D01*
G01*
X217800000Y-40800000D02*
X219599999Y-40899999D01*
X210400000Y-117150000D02*
X210100000Y-118850000D01*
X205150000Y-104450000D02*
G75*
G02*
X204650000Y-104950000I-500100J100D01*
G01*
X198700000Y-32250000D02*
X198800000Y-30550000D01*
X199700001Y-153450000D02*
X200500001Y-153450000D01*
X196100000Y-146050000D02*
X197200000Y-147800000D01*
X200350000Y-32250000D02*
X200450000Y-30550000D01*
X203500001Y-153450000D02*
X203500001Y-153250000D01*
D12*
X221700000Y-101250000D02*
G75*
G02*
X206500000Y-101250000I-7600000J0D01*
G01*
X206500000Y-101250000D02*
G75*
G02*
X221700000Y-101250000I7600000J0D01*
G01*
D10*
X179801766Y-84950000D02*
X181398235Y-84950000D01*
X181275000Y-75425000D02*
X181075000Y-75625000D01*
X221000000Y-61100000D02*
X221000000Y-60400000D01*
X217900000Y-39599999D02*
X217900000Y-39700000D01*
X220950000Y-118100000D02*
X220950000Y-117100000D01*
X206100001Y-152250000D02*
X205900001Y-152250000D01*
X204275000Y-31550000D02*
X204775000Y-32300000D01*
X199700001Y-152250000D02*
X199700001Y-153450000D01*
X194900000Y-117800000D02*
X195000000Y-117700000D01*
X197900001Y-153450000D02*
X199100001Y-153450000D01*
X181650000Y-102000000D02*
X180200000Y-102003531D01*
X198800000Y-30550000D02*
X199400000Y-30550000D01*
X192450000Y-110950000D02*
X192451765Y-111544703D01*
X196600000Y-72550000D02*
G75*
G02*
X197100000Y-73050000I0J-500000D01*
G01*
X204300001Y-153050000D02*
X203500001Y-153450000D01*
X196700001Y-152050000D02*
X196500001Y-152250000D01*
X196100000Y-146050000D02*
X195000000Y-147800000D01*
X221450000Y-86200000D02*
X222050000Y-87900000D01*
D12*
X221700000Y-80800000D02*
G75*
G02*
X206500000Y-80800000I-7600000J0D01*
G01*
X206500000Y-80800000D02*
G75*
G02*
X221700000Y-80800000I7600000J0D01*
G01*
D10*
X217800000Y-40800000D02*
X219600000Y-41599999D01*
X181000000Y-96150000D02*
G75*
G02*
X181500000Y-95650000I500100J-100D01*
G01*
X201100001Y-151650000D02*
X201100001Y-153450000D01*
X180600000Y-117900000D02*
X180400000Y-116200000D01*
X218300000Y-39300001D02*
X219600000Y-39500000D01*
X180203531Y-106646469D02*
G75*
G02*
X179703531Y-106146469I69J500069D01*
G01*
X206950000Y-117100000D02*
X207650000Y-117650000D01*
X219250000Y-91400000D02*
X223950000Y-91400000D01*
X199700001Y-152850000D02*
X199900001Y-152850000D01*
X204900001Y-152250000D02*
X204900001Y-153450000D01*
X205575000Y-30650000D02*
X206375000Y-30650000D01*
X184250000Y-95650000D02*
X181500000Y-95650000D01*
X186396469Y-92796469D02*
G75*
G02*
X185896469Y-93296469I-500069J69D01*
G01*
X196646469Y-109953531D02*
X196646469Y-109800000D01*
X179525000Y-77200000D02*
X181275000Y-77225000D01*
X202000000Y-31400000D02*
X201400000Y-31400000D01*
X222550000Y-93100000D02*
X223950000Y-93100000D01*
X179525000Y-79125000D02*
X181275000Y-80125000D01*
X181000000Y-146050000D02*
X182500000Y-147800000D01*
X217800000Y-43199999D02*
X219550000Y-44250000D01*
X181000000Y-147800000D02*
X181000000Y-146050000D01*
X184500000Y-146900000D02*
G75*
G02*
X180500000Y-146900000I-2000000J0D01*
G01*
X180500000Y-146900000D02*
G75*
G02*
X184500000Y-146900000I2000000J0D01*
G01*
D11*
X184903553Y-50900000D02*
X184403553Y-51400000D01*
X184403553Y-50400000D01*
X184903553Y-50900000D01*
G36*
X184903553Y-50900000D02*
G01*
X184403553Y-51400000D01*
X184403553Y-50400000D01*
X184903553Y-50900000D01*
G37*
D10*
X201100001Y-151650000D02*
X202500001Y-152050000D01*
X195750000Y-117250000D02*
X195850000Y-117150000D01*
X192450000Y-110950000D02*
G75*
G02*
X192950000Y-110450000I500100J-100D01*
G01*
X179575000Y-75625000D02*
X179575000Y-75225000D01*
X208000000Y-111750000D02*
X203250000Y-111750000D01*
X221250000Y-118800000D02*
X221150000Y-118800000D01*
X218300000Y-39300001D02*
G75*
G02*
X217899999Y-38899999I0J400001D01*
G01*
X204500001Y-152250000D02*
X203500001Y-152450000D01*
X216100000Y-61600000D02*
X220500000Y-61600000D01*
X206250000Y-118900000D02*
X206150000Y-118700000D01*
X223500000Y-147000000D02*
G75*
G02*
X219500000Y-147000000I-2000000J0D01*
G01*
X219500000Y-147000000D02*
G75*
G02*
X223500000Y-147000000I2000000J0D01*
G01*
X204500001Y-152250000D02*
X204500001Y-152450000D01*
X220950000Y-118100000D02*
X220550000Y-118800000D01*
X180475000Y-76025000D02*
X180475000Y-75725000D01*
X192953531Y-112046469D02*
G75*
G02*
X192453531Y-111546469I69J500069D01*
G01*
X210400000Y-117150000D02*
X210200000Y-117050000D01*
X192950000Y-112050000D02*
X197150000Y-112050000D01*
X203725000Y-30600000D02*
X203425000Y-32300000D01*
X198400000Y-31300000D02*
X198450000Y-30500000D01*
X208000000Y-111750000D02*
G75*
G02*
X208500000Y-112250000I100J-499900D01*
G01*
X217800000Y-41449999D02*
X219600000Y-42400000D01*
X194800000Y-117150000D02*
X195850000Y-117150000D01*
X197650000Y-113250000D02*
X197650000Y-112550000D01*
X223050000Y-117100000D02*
X222150000Y-118800000D01*
X178850000Y-93800000D02*
G75*
G02*
X179350000Y-93300000I500100J-100D01*
G01*
D12*
X197500000Y-101250000D02*
G75*
G02*
X182300000Y-101250000I-7600000J0D01*
G01*
X182300000Y-101250000D02*
G75*
G02*
X197500000Y-101250000I7600000J0D01*
G01*
D10*
X219250000Y-91400000D02*
G75*
G02*
X218750000Y-90900000I100J500100D01*
G01*
X221350000Y-95000000D02*
X221350000Y-93600000D01*
X197100000Y-73050000D02*
X197100000Y-75900000D01*
X181603553Y-51400000D02*
X181603553Y-60900000D01*
X180900000Y-116200000D02*
X181500000Y-117900000D01*
X204650000Y-103250000D02*
G75*
G02*
X205150000Y-103750000I-100J-500100D01*
G01*
X180501765Y-98650000D02*
X179351765Y-98650000D01*
X194475000Y-117700000D02*
X195000000Y-117700000D01*
X208350000Y-118800000D02*
X208750000Y-117100000D01*
X218850000Y-43300000D02*
X219600000Y-42799999D01*
X220150000Y-87900000D02*
X219950000Y-88000000D01*
D11*
X182150000Y-102000000D02*
X181650000Y-102500000D01*
X181650000Y-101500000D01*
X182150000Y-102000000D01*
G36*
X182150000Y-102000000D02*
G01*
X181650000Y-102500000D01*
X181650000Y-101500000D01*
X182150000Y-102000000D01*
G37*
D10*
X208500000Y-112250000D02*
X208500000Y-116200000D01*
X222350000Y-87900000D02*
X222750000Y-86200000D01*
X179975000Y-76025000D02*
X181275000Y-76225000D01*
X197200000Y-117200000D02*
X196900000Y-118900000D01*
X220950000Y-118100000D02*
X221550000Y-117100000D01*
X197150000Y-112050000D02*
G75*
G02*
X197650000Y-112550000I-100J-500100D01*
G01*
X206100001Y-152250000D02*
X205700001Y-153450000D01*
X206450000Y-118800000D02*
X206250000Y-118900000D01*
X179525000Y-79525000D02*
X179525000Y-78825000D01*
X182800000Y-109296469D02*
G75*
G02*
X182300031Y-108796469I100J500069D01*
G01*
X182500000Y-147800000D02*
X182500000Y-146050000D01*
X217000000Y-50000000D02*
G75*
G02*
X187000000Y-50000000I-15000000J0D01*
G01*
X187000000Y-50000000D02*
G75*
G02*
X217000000Y-50000000I15000000J0D01*
G01*
X199100001Y-153450000D02*
X198900001Y-153250000D01*
X189950000Y-72550000D02*
X196600000Y-72550000D01*
X215600000Y-62100000D02*
G75*
G02*
X216100000Y-61600000I500000J0D01*
G01*
X196100001Y-152850000D02*
X195100001Y-152450000D01*
X194800000Y-117150000D02*
X193800000Y-118850000D01*
X181275000Y-78825000D02*
X179525000Y-78575000D01*
X201450000Y-30550000D02*
X202050000Y-30550000D01*
X199100001Y-153450000D02*
X198900001Y-153650000D01*
X208050000Y-117100000D02*
X207950000Y-117100000D01*
X223700000Y-117200000D02*
X222850000Y-118150000D01*
X179525000Y-77775000D02*
X181275000Y-78825000D01*
D11*
X219250000Y-88500000D02*
X218250000Y-88500000D01*
X218750000Y-88000000D01*
X219250000Y-88500000D01*
G36*
X219250000Y-88500000D02*
G01*
X218250000Y-88500000D01*
X218750000Y-88000000D01*
X219250000Y-88500000D01*
G37*
D10*
X221350000Y-86750000D02*
X220350000Y-87100000D01*
X205150000Y-108050000D02*
X205150000Y-107350000D01*
X220450000Y-117100000D02*
X220450000Y-117300000D01*
X182775000Y-117050000D02*
X183575000Y-117050000D01*
X217400000Y-45600000D02*
G75*
G02*
X217900000Y-46100000I0J-500000D01*
G01*
X206950000Y-117100000D02*
X206250000Y-118900000D01*
X197900001Y-152250000D02*
X198300001Y-152250000D01*
X207700001Y-153450000D02*
X208700001Y-153050000D01*
X203250000Y-104950000D02*
X204650000Y-104950000D01*
X219600000Y-39500000D02*
X219600000Y-38799999D01*
X218400000Y-59900000D02*
G75*
G02*
X217900000Y-59400000I100J500100D01*
G01*
X217899999Y-38899999D02*
X217900000Y-38500000D01*
X179700000Y-102503531D02*
G75*
G02*
X180200000Y-102003500I500100J-69D01*
G01*
X185603553Y-61900000D02*
X185603553Y-70400000D01*
X219600000Y-39999999D02*
X217900000Y-39599999D01*
X219550000Y-118800000D02*
X219550000Y-118600000D01*
X210500000Y-147000000D02*
G75*
G02*
X206500000Y-147000000I-2000000J0D01*
G01*
X206500000Y-147000000D02*
G75*
G02*
X210500000Y-147000000I2000000J0D01*
G01*
X207300001Y-152250000D02*
X207100001Y-153450000D01*
X220350000Y-118200000D02*
X219550000Y-118800000D01*
X201350000Y-32250000D02*
X201450000Y-30550000D01*
X205550000Y-101250000D02*
X203250000Y-101250000D01*
X196646469Y-109953531D02*
G75*
G02*
X196146469Y-110453569I-500069J31D01*
G01*
X197200000Y-117200000D02*
X197000000Y-117100000D01*
D11*
X181755297Y-83196469D02*
X181255297Y-83696469D01*
X181255297Y-82696469D01*
X181755297Y-83196469D01*
G36*
X181755297Y-83196469D02*
G01*
X181255297Y-83696469D01*
X181255297Y-82696469D01*
X181755297Y-83196469D01*
G37*
D10*
X186103553Y-70900000D02*
G75*
G02*
X185603500Y-70400000I47J500100D01*
G01*
X202753531Y-109053531D02*
X202750000Y-111250000D01*
X222175000Y-117050000D02*
X222150000Y-118800000D01*
X219953531Y-95496469D02*
X220848234Y-95501766D01*
X179350000Y-93300000D02*
X185900000Y-93303531D01*
X195100001Y-152450000D02*
X196100001Y-152050000D01*
X220450000Y-117100000D02*
X219450000Y-117700000D01*
X181500000Y-117900000D02*
X181900000Y-116200000D01*
X179305297Y-84446469D02*
X179305297Y-83700000D01*
X208750000Y-117100000D02*
X208650000Y-117100000D01*
X221750000Y-86200000D02*
X221650000Y-86200000D01*
X204900001Y-153450000D02*
X205700001Y-152250000D01*
X209050000Y-117100000D02*
X208950000Y-117100000D01*
X210400000Y-117150000D02*
X209850000Y-117850000D01*
D13*
G36*
X222166829Y-145887330D02*
G01*
X222185258Y-145887955D01*
X222200035Y-145889080D01*
X222211695Y-145890764D01*
X222220771Y-145893064D01*
X222227798Y-145896038D01*
X222228116Y-145896211D01*
X222250122Y-145910705D01*
X222271955Y-145929710D01*
X222293462Y-145953002D01*
X222314491Y-145980354D01*
X222334887Y-146011544D01*
X222354497Y-146046345D01*
X222373169Y-146084534D01*
X222390749Y-146125885D01*
X222398606Y-146146388D01*
X222402377Y-146156418D01*
X222407420Y-146169617D01*
X222413260Y-146184753D01*
X222419422Y-146200591D01*
X222424630Y-146213872D01*
X222431238Y-146230912D01*
X222439023Y-146251414D01*
X222447612Y-146274367D01*
X222456631Y-146298758D01*
X222465709Y-146323574D01*
X222474472Y-146347803D01*
X222482547Y-146370433D01*
X222488269Y-146386726D01*
X222491613Y-146396714D01*
X222495965Y-146410289D01*
X222501026Y-146426483D01*
X222506496Y-146444332D01*
X222512078Y-146462868D01*
X222517217Y-146480256D01*
X222519031Y-146486722D01*
X222521719Y-146496641D01*
X222524978Y-146508876D01*
X222528503Y-146522294D01*
X222530195Y-146528797D01*
X222534716Y-146545679D01*
X222540669Y-146566969D01*
X222548023Y-146592569D01*
X222556752Y-146622384D01*
X222566827Y-146656315D01*
X222578218Y-146694266D01*
X222590852Y-146735984D01*
X222595354Y-146750920D01*
X222599735Y-146765681D01*
X222603662Y-146779123D01*
X222606798Y-146790103D01*
X222608519Y-146796365D01*
X222612313Y-146810253D01*
X222617430Y-146828297D01*
X222623897Y-146850589D01*
X222631741Y-146877219D01*
X222640447Y-146906470D01*
X222644382Y-146920047D01*
X222649059Y-146936832D01*
X222654100Y-146955433D01*
X222659128Y-146974456D01*
X222663767Y-146992508D01*
X222664163Y-146994081D01*
X222673256Y-147029507D01*
X222682245Y-147062948D01*
X222691533Y-147095804D01*
X222701520Y-147129478D01*
X222712609Y-147165371D01*
X222719482Y-147187061D01*
X222725224Y-147205118D01*
X222731029Y-147223497D01*
X222736573Y-147241167D01*
X222741533Y-147257093D01*
X222745586Y-147270242D01*
X222747649Y-147277040D01*
X222752262Y-147291923D01*
X222757686Y-147308703D01*
X222763145Y-147325003D01*
X222766639Y-147335052D01*
X222787763Y-147394769D01*
X222807229Y-147450409D01*
X222825150Y-147502291D01*
X222825857Y-147504354D01*
X222831316Y-147520132D01*
X222836585Y-147535088D01*
X222841371Y-147548411D01*
X222845380Y-147559291D01*
X222848322Y-147566917D01*
X222849335Y-147569335D01*
X222861476Y-147595922D01*
X222874775Y-147623902D01*
X222888534Y-147651863D01*
X222902057Y-147678391D01*
X222914647Y-147702070D01*
X222915943Y-147704438D01*
X222920349Y-147711999D01*
X222926427Y-147721833D01*
X222933442Y-147732812D01*
X222940660Y-147743812D01*
X222947345Y-147753706D01*
X222952763Y-147761369D01*
X222955146Y-147764485D01*
X222958165Y-147768220D01*
X222963105Y-147774353D01*
X222968922Y-147781591D01*
X222969202Y-147781940D01*
X222976362Y-147789849D01*
X222984290Y-147797091D01*
X222990659Y-147801700D01*
X223001221Y-147807890D01*
X223001221Y-147868045D01*
X223001221Y-147928200D01*
X222978040Y-147928200D01*
X222958338Y-147927319D01*
X222941173Y-147924365D01*
X222924626Y-147918874D01*
X222908788Y-147911436D01*
X222898026Y-147905303D01*
X222888338Y-147898446D01*
X222878993Y-147890165D01*
X222869262Y-147879759D01*
X222858412Y-147866526D01*
X222848728Y-147853826D01*
X222832321Y-147830375D01*
X222815708Y-147803658D01*
X222798703Y-147773340D01*
X222781120Y-147739088D01*
X222762773Y-147700569D01*
X222760786Y-147696245D01*
X222754749Y-147682934D01*
X222749681Y-147671373D01*
X222745182Y-147660528D01*
X222740850Y-147649365D01*
X222736286Y-147636849D01*
X222731088Y-147621946D01*
X222724855Y-147603621D01*
X222724516Y-147602617D01*
X222719928Y-147589096D01*
X222715414Y-147575916D01*
X222711394Y-147564293D01*
X222708287Y-147555444D01*
X222707373Y-147552895D01*
X222704738Y-147545560D01*
X222700965Y-147534964D01*
X222696484Y-147522314D01*
X222691723Y-147508819D01*
X222689735Y-147503170D01*
X222684440Y-147488108D01*
X222678730Y-147471868D01*
X222673220Y-147456203D01*
X222668527Y-147442867D01*
X222667666Y-147440422D01*
X222663235Y-147427513D01*
X222658062Y-147411939D01*
X222652760Y-147395573D01*
X222647942Y-147380287D01*
X222647500Y-147378858D01*
X222643859Y-147367114D01*
X222639107Y-147351894D01*
X222633567Y-147334232D01*
X222627567Y-147315163D01*
X222621430Y-147295723D01*
X222616263Y-147279408D01*
X222609160Y-147256977D01*
X222603212Y-147238046D01*
X222598158Y-147221710D01*
X222593742Y-147207066D01*
X222589703Y-147193210D01*
X222585783Y-147179235D01*
X222581724Y-147164240D01*
X222577265Y-147147318D01*
X222572148Y-147127566D01*
X222566463Y-147105434D01*
X222561561Y-147086468D01*
X222556593Y-147067513D01*
X222551800Y-147049474D01*
X222547424Y-147033255D01*
X222543709Y-147019762D01*
X222540895Y-147009899D01*
X222540753Y-147009420D01*
X222537648Y-146998880D01*
X222533558Y-146984910D01*
X222528808Y-146968631D01*
X222523727Y-146951163D01*
X222518640Y-146933628D01*
X222516914Y-146927665D01*
X222511410Y-146908741D01*
X222505007Y-146886888D01*
X222498177Y-146863709D01*
X222491394Y-146840807D01*
X222485129Y-146819787D01*
X222483433Y-146814124D01*
X222478010Y-146796045D01*
X222472457Y-146777525D01*
X222467099Y-146759650D01*
X222462262Y-146743506D01*
X222458271Y-146730180D01*
X222456465Y-146724145D01*
X222452516Y-146710699D01*
X222447837Y-146694381D01*
X222442911Y-146676895D01*
X222438219Y-146659946D01*
X222436357Y-146653109D01*
X222425340Y-146612957D01*
X222415117Y-146576866D01*
X222405513Y-146544263D01*
X222396353Y-146514573D01*
X222387459Y-146487224D01*
X222378657Y-146461642D01*
X222372115Y-146443554D01*
X222359605Y-146409747D01*
X222348499Y-146379873D01*
X222338599Y-146353408D01*
X222329708Y-146329827D01*
X222321629Y-146308606D01*
X222314164Y-146289222D01*
X222310646Y-146280172D01*
X222304780Y-146265121D01*
X222298654Y-146249385D01*
X222292827Y-146234409D01*
X222287863Y-146221633D01*
X222285770Y-146216240D01*
X222281417Y-146205472D01*
X222276244Y-146193595D01*
X222269963Y-146179997D01*
X222262285Y-146164070D01*
X222252922Y-146145204D01*
X222241585Y-146122789D01*
X222241545Y-146122710D01*
X222235029Y-146111150D01*
X222226101Y-146097055D01*
X222215486Y-146081438D01*
X222203909Y-146065311D01*
X222192096Y-146049686D01*
X222180772Y-146035576D01*
X222171455Y-146024854D01*
X222162009Y-146015844D01*
X222152996Y-146010218D01*
X222144087Y-146008105D01*
X222134956Y-146009638D01*
X222125276Y-146014948D01*
X222114718Y-146024165D01*
X222102956Y-146037422D01*
X222089662Y-146054849D01*
X222086840Y-146058777D01*
X222059050Y-146100313D01*
X222033721Y-146143311D01*
X222011332Y-146186852D01*
X221992362Y-146230019D01*
X221979992Y-146263597D01*
X221975005Y-146278215D01*
X221969418Y-146294133D01*
X221963929Y-146309390D01*
X221959390Y-146321609D01*
X221949279Y-146348659D01*
X221938595Y-146378155D01*
X221927176Y-146410564D01*
X221914860Y-146446350D01*
X221901485Y-146485976D01*
X221893919Y-146508670D01*
X221884440Y-146537294D01*
X221876296Y-146562101D01*
X221869288Y-146583755D01*
X221863214Y-146602920D01*
X221857872Y-146620257D01*
X221853061Y-146636432D01*
X221848582Y-146652105D01*
X221844231Y-146667942D01*
X221839809Y-146684605D01*
X221835397Y-146701650D01*
X221831246Y-146717395D01*
X221826020Y-146736528D01*
X221820040Y-146757915D01*
X221813628Y-146780418D01*
X221807104Y-146802902D01*
X221800791Y-146824231D01*
X221799915Y-146827147D01*
X221793600Y-146848232D01*
X221786929Y-146870637D01*
X221780241Y-146893225D01*
X221773870Y-146914855D01*
X221768153Y-146934389D01*
X221763426Y-146950689D01*
X221762864Y-146952643D01*
X221757685Y-146970560D01*
X221752057Y-146989851D01*
X221746413Y-147009039D01*
X221741187Y-147026650D01*
X221736814Y-147041209D01*
X221736744Y-147041438D01*
X221731883Y-147057602D01*
X221726565Y-147075514D01*
X221721357Y-147093253D01*
X221716825Y-147108898D01*
X221715803Y-147112474D01*
X221708111Y-147139478D01*
X221701588Y-147162421D01*
X221696099Y-147181793D01*
X221691507Y-147198084D01*
X221687674Y-147211784D01*
X221684466Y-147223384D01*
X221681744Y-147233374D01*
X221679373Y-147242244D01*
X221677216Y-147250486D01*
X221675262Y-147258097D01*
X221669322Y-147280265D01*
X221661894Y-147306118D01*
X221653217Y-147334931D01*
X221643529Y-147365978D01*
X221633068Y-147398533D01*
X221622073Y-147431873D01*
X221610782Y-147465270D01*
X221599434Y-147498002D01*
X221588268Y-147529341D01*
X221577521Y-147558563D01*
X221569768Y-147578941D01*
X221563373Y-147595637D01*
X221556575Y-147613682D01*
X221549938Y-147631556D01*
X221544029Y-147647738D01*
X221540267Y-147658265D01*
X221534140Y-147674352D01*
X221526183Y-147693255D01*
X221516876Y-147713986D01*
X221506699Y-147735557D01*
X221496133Y-147756979D01*
X221485659Y-147777264D01*
X221475756Y-147795424D01*
X221466904Y-147810471D01*
X221464322Y-147814543D01*
X221456928Y-147825281D01*
X221447425Y-147838127D01*
X221436648Y-147852038D01*
X221425434Y-147865971D01*
X221414616Y-147878884D01*
X221405030Y-147889735D01*
X221399118Y-147895925D01*
X221383452Y-147908686D01*
X221365318Y-147918861D01*
X221358480Y-147921676D01*
X221353573Y-147923341D01*
X221348514Y-147924612D01*
X221342561Y-147925551D01*
X221334971Y-147926221D01*
X221325001Y-147926683D01*
X221311907Y-147927000D01*
X221294946Y-147927234D01*
X221291628Y-147927270D01*
X221275448Y-147927346D01*
X221260176Y-147927241D01*
X221246686Y-147926976D01*
X221235854Y-147926569D01*
X221228551Y-147926041D01*
X221226889Y-147925814D01*
X221203950Y-147919626D01*
X221181844Y-147909242D01*
X221160475Y-147894571D01*
X221139749Y-147875528D01*
X221119570Y-147852023D01*
X221099843Y-147823969D01*
X221080474Y-147791278D01*
X221079600Y-147789681D01*
X221074202Y-147779819D01*
X221069202Y-147770761D01*
X221065321Y-147763810D01*
X221063872Y-147761266D01*
X221057014Y-147748522D01*
X221049320Y-147732729D01*
X221041448Y-147715332D01*
X221034056Y-147697776D01*
X221028828Y-147684311D01*
X221024792Y-147673478D01*
X221019519Y-147659425D01*
X221013464Y-147643359D01*
X221007080Y-147626484D01*
X221000821Y-147610004D01*
X221000264Y-147608540D01*
X220990828Y-147583705D01*
X220982911Y-147562734D01*
X220976310Y-147545079D01*
X220970823Y-147530192D01*
X220966249Y-147517525D01*
X220962384Y-147506530D01*
X220959225Y-147497250D01*
X220955423Y-147486121D01*
X220950874Y-147473129D01*
X220946480Y-147460852D01*
X220945939Y-147459365D01*
X220934138Y-147425778D01*
X220922050Y-147389096D01*
X220910158Y-147350896D01*
X220898948Y-147312758D01*
X220888903Y-147276257D01*
X220884577Y-147259544D01*
X220879842Y-147241303D01*
X220874341Y-147220917D01*
X220868580Y-147200212D01*
X220863067Y-147181017D01*
X220859658Y-147169565D01*
X220844936Y-147120750D01*
X220831484Y-147075459D01*
X220819023Y-147032746D01*
X220813352Y-147013024D01*
X220804621Y-146982789D01*
X220794778Y-146949183D01*
X220784157Y-146913343D01*
X220773097Y-146876408D01*
X220763572Y-146844906D01*
X220759465Y-146831331D01*
X220755724Y-146818870D01*
X220752616Y-146808421D01*
X220750410Y-146800883D01*
X220749473Y-146797549D01*
X220748076Y-146792542D01*
X220745662Y-146784168D01*
X220742568Y-146773594D01*
X220739147Y-146762031D01*
X220735627Y-146749832D01*
X220731382Y-146734551D01*
X220726823Y-146717702D01*
X220722363Y-146700802D01*
X220719836Y-146690995D01*
X220709567Y-146652437D01*
X220697640Y-146610697D01*
X220684402Y-146566884D01*
X220670200Y-146522105D01*
X220655382Y-146477471D01*
X220640293Y-146434087D01*
X220633461Y-146415140D01*
X220629411Y-146404010D01*
X220625798Y-146394018D01*
X220623022Y-146386280D01*
X220621513Y-146381990D01*
X220619677Y-146376859D01*
X220616752Y-146368968D01*
X220613353Y-146359977D01*
X220613169Y-146359495D01*
X220610475Y-146352221D01*
X220606587Y-146341418D01*
X220601842Y-146328040D01*
X220596579Y-146313039D01*
X220591134Y-146297369D01*
X220589693Y-146293195D01*
X220584359Y-146277890D01*
X220579189Y-146263367D01*
X220574497Y-146250482D01*
X220570596Y-146240091D01*
X220567798Y-146233051D01*
X220567180Y-146231631D01*
X220563512Y-146223810D01*
X220558238Y-146212924D01*
X220551736Y-146199717D01*
X220544379Y-146184932D01*
X220536544Y-146169313D01*
X220528605Y-146153601D01*
X220520939Y-146138542D01*
X220513920Y-146124878D01*
X220507924Y-146113352D01*
X220503326Y-146104708D01*
X220500817Y-146100215D01*
X220491303Y-146084914D01*
X220480820Y-146069469D01*
X220469894Y-146054536D01*
X220459048Y-146040767D01*
X220448808Y-146028818D01*
X220439697Y-146019343D01*
X220432239Y-146012996D01*
X220429576Y-146011341D01*
X220421372Y-146008286D01*
X220413099Y-146007784D01*
X220404533Y-146010040D01*
X220395448Y-146015261D01*
X220385621Y-146023653D01*
X220374827Y-146035422D01*
X220362842Y-146050773D01*
X220349441Y-146069913D01*
X220334399Y-146093047D01*
X220326193Y-146106177D01*
X220313447Y-146128205D01*
X220300581Y-146152995D01*
X220288496Y-146178682D01*
X220278095Y-146203405D01*
X220274579Y-146212688D01*
X220271492Y-146220953D01*
X220266998Y-146232707D01*
X220261450Y-146247045D01*
X220255200Y-146263059D01*
X220248599Y-146279841D01*
X220244250Y-146290827D01*
X220236934Y-146309293D01*
X220230649Y-146325272D01*
X220225082Y-146339601D01*
X220219923Y-146353112D01*
X220214861Y-146366641D01*
X220209585Y-146381021D01*
X220203782Y-146397087D01*
X220197144Y-146415673D01*
X220189358Y-146437614D01*
X220186416Y-146445922D01*
X220172187Y-146486902D01*
X220159768Y-146524308D01*
X220149220Y-146557947D01*
X220140603Y-146587626D01*
X220136101Y-146604568D01*
X220132924Y-146616568D01*
X220128569Y-146632280D01*
X220123270Y-146650894D01*
X220117264Y-146671603D01*
X220110785Y-146693598D01*
X220104069Y-146716070D01*
X220097351Y-146738212D01*
X220094764Y-146746640D01*
X220093196Y-146751845D01*
X220090526Y-146760837D01*
X220086978Y-146772858D01*
X220082776Y-146787148D01*
X220078143Y-146802947D01*
X220074527Y-146815308D01*
X220069069Y-146833973D01*
X220062683Y-146855788D01*
X220055779Y-146879359D01*
X220048765Y-146903290D01*
X220042049Y-146926189D01*
X220037411Y-146941988D01*
X220031843Y-146961085D01*
X220026284Y-146980385D01*
X220021001Y-146998951D01*
X220016257Y-147015849D01*
X220012317Y-147030140D01*
X220009446Y-147040889D01*
X220009304Y-147041438D01*
X220001359Y-147072220D01*
X220001309Y-146848458D01*
X220001324Y-146814698D01*
X220001383Y-146782533D01*
X220001482Y-146752274D01*
X220001619Y-146724235D01*
X220001791Y-146698730D01*
X220001996Y-146676072D01*
X220002229Y-146656574D01*
X220002490Y-146640549D01*
X220002773Y-146628310D01*
X220003078Y-146620172D01*
X220003401Y-146616447D01*
X220003410Y-146616408D01*
X220004889Y-146611103D01*
X220007430Y-146602382D01*
X220010708Y-146591354D01*
X220014393Y-146579129D01*
X220015297Y-146576154D01*
X220019629Y-146561540D01*
X220024549Y-146544320D01*
X220029497Y-146526481D01*
X220033917Y-146510011D01*
X220034577Y-146507486D01*
X220037910Y-146494734D01*
X220040837Y-146483781D01*
X220043599Y-146473825D01*
X220046443Y-146464063D01*
X220049612Y-146453693D01*
X220053351Y-146441910D01*
X220057904Y-146427913D01*
X220063516Y-146410898D01*
X220069180Y-146393829D01*
X220077203Y-146370042D01*
X220086037Y-146344492D01*
X220095416Y-146317899D01*
X220105077Y-146290980D01*
X220114756Y-146264457D01*
X220124189Y-146239046D01*
X220133113Y-146215467D01*
X220141262Y-146194440D01*
X220148374Y-146176682D01*
X220152622Y-146166515D01*
X220155101Y-146160506D01*
X220158840Y-146151171D01*
X220163403Y-146139605D01*
X220168357Y-146126904D01*
X220170439Y-146121526D01*
X220177555Y-146103223D01*
X220183460Y-146088435D01*
X220188580Y-146076231D01*
X220193336Y-146065682D01*
X220198154Y-146055856D01*
X220203456Y-146045824D01*
X220209667Y-146034655D01*
X220211427Y-146031547D01*
X220223623Y-146010543D01*
X220234428Y-145993054D01*
X220244412Y-145978287D01*
X220254144Y-145965445D01*
X220264193Y-145953734D01*
X220275129Y-145942358D01*
X220275576Y-145941916D01*
X220290597Y-145927489D01*
X220303459Y-145916154D01*
X220314952Y-145907299D01*
X220325866Y-145900313D01*
X220336274Y-145894916D01*
X220340823Y-145892838D01*
X220344924Y-145891239D01*
X220349274Y-145890047D01*
X220354575Y-145889186D01*
X220361526Y-145888584D01*
X220370828Y-145888168D01*
X220383181Y-145887864D01*
X220399283Y-145887598D01*
X220407071Y-145887484D01*
X220428650Y-145887269D01*
X220446224Y-145887378D01*
X220460521Y-145887903D01*
X220472264Y-145888935D01*
X220482182Y-145890567D01*
X220490998Y-145892889D01*
X220499440Y-145895994D01*
X220508232Y-145899973D01*
X220509060Y-145900374D01*
X220519676Y-145906083D01*
X220529218Y-145912572D01*
X220538619Y-145920640D01*
X220548815Y-145931086D01*
X220560185Y-145944054D01*
X220569671Y-145955444D01*
X220578046Y-145966063D01*
X220585717Y-145976569D01*
X220593094Y-145987620D01*
X220600583Y-145999877D01*
X220608595Y-146013997D01*
X220617536Y-146030640D01*
X220627816Y-146050465D01*
X220635668Y-146065881D01*
X220646363Y-146087114D01*
X220655183Y-146104994D01*
X220662486Y-146120344D01*
X220668627Y-146133986D01*
X220673966Y-146146745D01*
X220678858Y-146159444D01*
X220683662Y-146172905D01*
X220688735Y-146187952D01*
X220688969Y-146188661D01*
X220692684Y-146199607D01*
X220697710Y-146213970D01*
X220703686Y-146230738D01*
X220710249Y-146248897D01*
X220717034Y-146267436D01*
X220722192Y-146281356D01*
X220728652Y-146298762D01*
X220734364Y-146314354D01*
X220739577Y-146328870D01*
X220744540Y-146343047D01*
X220749501Y-146357621D01*
X220754709Y-146373331D01*
X220760414Y-146390914D01*
X220766863Y-146411107D01*
X220774308Y-146434648D01*
X220779346Y-146450658D01*
X220783753Y-146464622D01*
X220787907Y-146477678D01*
X220791506Y-146488887D01*
X220794249Y-146497309D01*
X220795679Y-146501567D01*
X220798976Y-146511647D01*
X220803002Y-146525140D01*
X220807832Y-146542313D01*
X220813542Y-146563436D01*
X220820206Y-146588779D01*
X220823683Y-146602201D01*
X220828214Y-146619502D01*
X220833053Y-146637531D01*
X220837842Y-146654988D01*
X220842224Y-146670570D01*
X220845842Y-146682978D01*
X220846117Y-146683892D01*
X220854823Y-146712734D01*
X220862357Y-146737736D01*
X220868922Y-146759589D01*
X220874724Y-146778981D01*
X220879968Y-146796604D01*
X220884860Y-146813148D01*
X220889605Y-146829303D01*
X220894408Y-146845759D01*
X220899474Y-146863207D01*
X220901031Y-146868584D01*
X220906970Y-146889080D01*
X220912148Y-146906903D01*
X220916848Y-146923007D01*
X220921351Y-146938346D01*
X220925939Y-146953874D01*
X220930892Y-146970547D01*
X220936493Y-146989317D01*
X220943024Y-147011140D01*
X220947136Y-147024863D01*
X220951189Y-147038425D01*
X220954995Y-147051224D01*
X220958243Y-147062212D01*
X220960623Y-147070341D01*
X220961503Y-147073404D01*
X220963785Y-147081326D01*
X220966758Y-147091459D01*
X220969489Y-147100634D01*
X220971555Y-147107834D01*
X220974550Y-147118691D01*
X220978222Y-147132275D01*
X220982321Y-147147655D01*
X220986596Y-147163902D01*
X220988313Y-147170486D01*
X220995038Y-147195644D01*
X221002381Y-147221856D01*
X221010038Y-147248115D01*
X221017707Y-147273415D01*
X221025085Y-147296751D01*
X221031869Y-147317116D01*
X221035695Y-147327949D01*
X221039978Y-147339807D01*
X221044836Y-147353383D01*
X221049285Y-147365924D01*
X221049671Y-147367018D01*
X221058429Y-147391727D01*
X221067535Y-147417119D01*
X221076656Y-147442280D01*
X221085456Y-147466293D01*
X221093601Y-147488244D01*
X221100756Y-147507217D01*
X221104662Y-147517377D01*
X221110855Y-147533427D01*
X221117877Y-147551792D01*
X221124917Y-147570342D01*
X221131164Y-147586949D01*
X221131887Y-147588883D01*
X221140887Y-147611022D01*
X221152176Y-147635672D01*
X221165146Y-147661701D01*
X221179187Y-147687978D01*
X221193693Y-147713372D01*
X221208054Y-147736752D01*
X221221661Y-147756986D01*
X221224185Y-147760482D01*
X221237238Y-147777322D01*
X221248846Y-147789981D01*
X221259379Y-147798652D01*
X221269206Y-147803527D01*
X221278697Y-147804801D01*
X221288221Y-147802666D01*
X221296588Y-147798335D01*
X221302996Y-147793771D01*
X221309575Y-147787950D01*
X221316736Y-147780386D01*
X221324887Y-147770595D01*
X221334439Y-147758093D01*
X221345802Y-147742395D01*
X221355016Y-147729300D01*
X221362309Y-147717999D01*
X221370974Y-147703197D01*
X221380571Y-147685766D01*
X221390663Y-147666583D01*
X221400808Y-147646520D01*
X221410569Y-147626452D01*
X221419506Y-147607252D01*
X221427181Y-147589796D01*
X221433152Y-147574957D01*
X221434720Y-147570654D01*
X221438489Y-147559942D01*
X221441866Y-147550360D01*
X221444424Y-147543111D01*
X221445572Y-147539872D01*
X221447222Y-147535447D01*
X221450189Y-147527680D01*
X221454064Y-147517636D01*
X221458436Y-147506384D01*
X221458766Y-147505538D01*
X221466835Y-147484507D01*
X221475722Y-147460730D01*
X221485161Y-147434969D01*
X221494883Y-147407987D01*
X221504621Y-147380545D01*
X221514107Y-147353406D01*
X221523073Y-147327334D01*
X221531252Y-147303089D01*
X221538376Y-147281435D01*
X221544177Y-147263134D01*
X221546070Y-147256913D01*
X221549663Y-147244974D01*
X221553799Y-147231312D01*
X221557629Y-147218733D01*
X221557902Y-147217843D01*
X221560932Y-147207570D01*
X221564660Y-147194389D01*
X221568615Y-147179982D01*
X221572330Y-147166032D01*
X221572403Y-147165750D01*
X221579569Y-147138872D01*
X221588038Y-147108117D01*
X221597633Y-147074105D01*
X221608181Y-147037459D01*
X221619504Y-146998800D01*
X221621250Y-146992897D01*
X221625935Y-146977046D01*
X221630264Y-146962361D01*
X221634025Y-146949562D01*
X221637005Y-146939374D01*
X221638992Y-146932518D01*
X221639662Y-146930149D01*
X221641985Y-146921829D01*
X221645442Y-146909693D01*
X221649822Y-146894466D01*
X221654913Y-146876871D01*
X221660504Y-146857632D01*
X221666384Y-146837474D01*
X221672340Y-146817121D01*
X221678161Y-146797298D01*
X221683636Y-146778728D01*
X221688554Y-146762136D01*
X221692702Y-146748246D01*
X221695333Y-146739536D01*
X221707062Y-146700616D01*
X221717262Y-146665869D01*
X221726011Y-146635013D01*
X221733392Y-146607768D01*
X221738032Y-146589713D01*
X221741950Y-146574752D01*
X221746961Y-146556714D01*
X221752818Y-146536398D01*
X221759276Y-146514602D01*
X221766087Y-146492127D01*
X221773007Y-146469770D01*
X221779788Y-146448332D01*
X221786184Y-146428611D01*
X221791949Y-146411407D01*
X221796838Y-146397519D01*
X221799110Y-146391461D01*
X221800413Y-146387573D01*
X221802597Y-146380536D01*
X221805230Y-146371750D01*
X221805700Y-146370151D01*
X221807824Y-146363459D01*
X221811334Y-146353039D01*
X221815979Y-146339610D01*
X221821509Y-146323885D01*
X221827673Y-146306583D01*
X221834220Y-146288420D01*
X221836788Y-146281356D01*
X221844058Y-146261328D01*
X221851628Y-146240349D01*
X221859119Y-146219477D01*
X221866154Y-146199767D01*
X221872354Y-146182278D01*
X221877341Y-146168066D01*
X221877778Y-146166810D01*
X221899687Y-146110937D01*
X221926034Y-146056633D01*
X221956740Y-146004056D01*
X221979992Y-145969475D01*
X221996617Y-145947347D01*
X222012105Y-145929480D01*
X222026718Y-145915612D01*
X222040719Y-145905479D01*
X222047479Y-145901776D01*
X222057690Y-145897174D01*
X222067750Y-145893615D01*
X222078473Y-145890975D01*
X222090672Y-145889131D01*
X222105160Y-145887961D01*
X222122749Y-145887341D01*
X222144214Y-145887149D01*
X222166829Y-145887330D01*
G37*
%LPC*%
D14*
X184500000Y-30500000D03*
X219500000Y-30500000D03*
X219500000Y-153000000D03*
X184500000Y-153000000D03*
D15*
X208500000Y-139750000D03*
X189900000Y-101250000D03*
D16*
X202000000Y-50000000D03*
D15*
X182499999Y-125000000D03*
X195499999Y-125000000D03*
X214100000Y-101250000D03*
X214100000Y-80800000D03*
X195499999Y-139750000D03*
X221500000Y-125000000D03*
X208500000Y-125000000D03*
X182499999Y-139750000D03*
X189900000Y-80900000D03*
X221500000Y-139750000D03*
%LPD*%
M02*
