%TF.GenerationSoftware,KiCad,Pcbnew,9.0.4-9.0.4-0~ubuntu22.04.1*%
%TF.CreationDate,2025-10-19T11:48:11+01:00*%
%TF.ProjectId,CD40106_VCO,43443430-3130-4365-9f56-434f2e6b6963,rev?*%
%TF.SameCoordinates,Original*%
%TF.FileFunction,Drillmap*%
%TF.FilePolarity,Positive*%
%FSLAX45Y45*%
G04 Gerber Fmt 4.5, Leading zero omitted, Abs format (unit mm)*
G04 Created by KiCad (PCBNEW 9.0.4-9.0.4-0~ubuntu22.04.1) date 2025-10-19 11:48:11*
%MOMM*%
%LPD*%
G01*
G04 APERTURE LIST*
%ADD10C,0.050000*%
%ADD11C,0.200000*%
G04 APERTURE END LIST*
D10*
X22700000Y-2750000D02*
X22700000Y-15600000D01*
X17700000Y-2750000D02*
X17700000Y-15600000D01*
X22700000Y-15600000D02*
X17700000Y-15600000D01*
X17700000Y-2750000D02*
X22700000Y-2750000D01*
D11*
X17958277Y-15913984D02*
X17958277Y-15713984D01*
X17958277Y-15713984D02*
X18005896Y-15713984D01*
X18005896Y-15713984D02*
X18034467Y-15723508D01*
X18034467Y-15723508D02*
X18053515Y-15742555D01*
X18053515Y-15742555D02*
X18063039Y-15761603D01*
X18063039Y-15761603D02*
X18072563Y-15799698D01*
X18072563Y-15799698D02*
X18072563Y-15828269D01*
X18072563Y-15828269D02*
X18063039Y-15866365D01*
X18063039Y-15866365D02*
X18053515Y-15885412D01*
X18053515Y-15885412D02*
X18034467Y-15904460D01*
X18034467Y-15904460D02*
X18005896Y-15913984D01*
X18005896Y-15913984D02*
X17958277Y-15913984D01*
X18158277Y-15913984D02*
X18158277Y-15780650D01*
X18158277Y-15818746D02*
X18167801Y-15799698D01*
X18167801Y-15799698D02*
X18177324Y-15790174D01*
X18177324Y-15790174D02*
X18196372Y-15780650D01*
X18196372Y-15780650D02*
X18215420Y-15780650D01*
X18282086Y-15913984D02*
X18282086Y-15780650D01*
X18282086Y-15713984D02*
X18272563Y-15723508D01*
X18272563Y-15723508D02*
X18282086Y-15733031D01*
X18282086Y-15733031D02*
X18291610Y-15723508D01*
X18291610Y-15723508D02*
X18282086Y-15713984D01*
X18282086Y-15713984D02*
X18282086Y-15733031D01*
X18405896Y-15913984D02*
X18386848Y-15904460D01*
X18386848Y-15904460D02*
X18377324Y-15885412D01*
X18377324Y-15885412D02*
X18377324Y-15713984D01*
X18510658Y-15913984D02*
X18491610Y-15904460D01*
X18491610Y-15904460D02*
X18482086Y-15885412D01*
X18482086Y-15885412D02*
X18482086Y-15713984D01*
X18739229Y-15913984D02*
X18739229Y-15713984D01*
X18739229Y-15713984D02*
X18805896Y-15856841D01*
X18805896Y-15856841D02*
X18872563Y-15713984D01*
X18872563Y-15713984D02*
X18872563Y-15913984D01*
X19053515Y-15913984D02*
X19053515Y-15809222D01*
X19053515Y-15809222D02*
X19043991Y-15790174D01*
X19043991Y-15790174D02*
X19024944Y-15780650D01*
X19024944Y-15780650D02*
X18986848Y-15780650D01*
X18986848Y-15780650D02*
X18967801Y-15790174D01*
X19053515Y-15904460D02*
X19034467Y-15913984D01*
X19034467Y-15913984D02*
X18986848Y-15913984D01*
X18986848Y-15913984D02*
X18967801Y-15904460D01*
X18967801Y-15904460D02*
X18958277Y-15885412D01*
X18958277Y-15885412D02*
X18958277Y-15866365D01*
X18958277Y-15866365D02*
X18967801Y-15847317D01*
X18967801Y-15847317D02*
X18986848Y-15837793D01*
X18986848Y-15837793D02*
X19034467Y-15837793D01*
X19034467Y-15837793D02*
X19053515Y-15828269D01*
X19148753Y-15780650D02*
X19148753Y-15980650D01*
X19148753Y-15790174D02*
X19167801Y-15780650D01*
X19167801Y-15780650D02*
X19205896Y-15780650D01*
X19205896Y-15780650D02*
X19224944Y-15790174D01*
X19224944Y-15790174D02*
X19234467Y-15799698D01*
X19234467Y-15799698D02*
X19243991Y-15818746D01*
X19243991Y-15818746D02*
X19243991Y-15875888D01*
X19243991Y-15875888D02*
X19234467Y-15894936D01*
X19234467Y-15894936D02*
X19224944Y-15904460D01*
X19224944Y-15904460D02*
X19205896Y-15913984D01*
X19205896Y-15913984D02*
X19167801Y-15913984D01*
X19167801Y-15913984D02*
X19148753Y-15904460D01*
X19329705Y-15894936D02*
X19339229Y-15904460D01*
X19339229Y-15904460D02*
X19329705Y-15913984D01*
X19329705Y-15913984D02*
X19320182Y-15904460D01*
X19320182Y-15904460D02*
X19329705Y-15894936D01*
X19329705Y-15894936D02*
X19329705Y-15913984D01*
X19329705Y-15790174D02*
X19339229Y-15799698D01*
X19339229Y-15799698D02*
X19329705Y-15809222D01*
X19329705Y-15809222D02*
X19320182Y-15799698D01*
X19320182Y-15799698D02*
X19329705Y-15790174D01*
X19329705Y-15790174D02*
X19329705Y-15809222D01*
M02*
