G04 #@! TF.GenerationSoftware,KiCad,Pcbnew,9.0.4-9.0.4-0~ubuntu22.04.1*
G04 #@! TF.CreationDate,2025-10-19T11:48:11+01:00*
G04 #@! TF.ProjectId,CD40106_VCO,43443430-3130-4365-9f56-434f2e6b6963,rev?*
G04 #@! TF.SameCoordinates,Original*
G04 #@! TF.FileFunction,Copper,L2,Bot*
G04 #@! TF.FilePolarity,Positive*
%FSLAX46Y46*%
G04 Gerber Fmt 4.6, Leading zero omitted, Abs format (unit mm)*
G04 Created by KiCad (PCBNEW 9.0.4-9.0.4-0~ubuntu22.04.1) date 2025-10-19 11:48:11*
%MOMM*%
%LPD*%
G01*
G04 APERTURE LIST*
G04 #@! TA.AperFunction,ComponentPad*
%ADD10O,6.700000X4.200000*%
G04 #@! TD*
G04 #@! TA.AperFunction,ViaPad*
%ADD11C,8.000000*%
G04 #@! TD*
G04 #@! TA.AperFunction,ViaPad*
%ADD12C,14.000000*%
G04 #@! TD*
G04 APERTURE END LIST*
D10*
X184500000Y-30500000D03*
X219500000Y-30500000D03*
X219500000Y-153000000D03*
X184500000Y-153000000D03*
D11*
X208500000Y-139750000D03*
X189900000Y-101250000D03*
D12*
X202000000Y-50000000D03*
D11*
X182499999Y-125000000D03*
X195499999Y-125000000D03*
X214100000Y-101250000D03*
X214100000Y-80800000D03*
X195499999Y-139750000D03*
X221500000Y-125000000D03*
X208500000Y-125000000D03*
X182499999Y-139750000D03*
X189900000Y-80900000D03*
X221500000Y-139750000D03*
G04 #@! TA.AperFunction,Conductor*
G36*
X226917540Y-27545185D02*
G01*
X226963295Y-27597989D01*
X226974501Y-27649500D01*
X226974501Y-155850500D01*
X226954816Y-155917539D01*
X226902012Y-155963294D01*
X226850501Y-155974500D01*
X177149500Y-155974500D01*
X177082461Y-155954815D01*
X177036706Y-155902011D01*
X177025500Y-155850500D01*
X177025500Y-152791254D01*
X177025500Y-152750000D01*
X180661716Y-152750000D01*
X181770898Y-152750000D01*
X181750000Y-152881947D01*
X181750000Y-153118053D01*
X181770898Y-153250000D01*
X180661716Y-153250000D01*
X180682694Y-153436189D01*
X180682696Y-153436201D01*
X180747678Y-153720910D01*
X180747681Y-153720918D01*
X180844129Y-153996548D01*
X180970831Y-154259648D01*
X181126199Y-154506914D01*
X181308274Y-154735230D01*
X181514769Y-154941725D01*
X181743085Y-155123800D01*
X181990351Y-155279168D01*
X182253451Y-155405870D01*
X182529081Y-155502318D01*
X182529089Y-155502321D01*
X182813798Y-155567303D01*
X182813812Y-155567306D01*
X183103980Y-155599999D01*
X183103984Y-155600000D01*
X184250000Y-155600000D01*
X184250000Y-154500000D01*
X184750000Y-154500000D01*
X184750000Y-155600000D01*
X185896016Y-155600000D01*
X185896019Y-155599999D01*
X186186187Y-155567306D01*
X186186201Y-155567303D01*
X186470910Y-155502321D01*
X186470918Y-155502318D01*
X186746548Y-155405870D01*
X187009648Y-155279168D01*
X187256914Y-155123800D01*
X187485230Y-154941725D01*
X187691725Y-154735230D01*
X187873800Y-154506914D01*
X188029168Y-154259648D01*
X188155870Y-153996548D01*
X188252318Y-153720918D01*
X188252321Y-153720910D01*
X188317303Y-153436201D01*
X188317305Y-153436189D01*
X188338284Y-153250000D01*
X187229102Y-153250000D01*
X187250000Y-153118053D01*
X187250000Y-152881947D01*
X187229102Y-152750000D01*
X188338284Y-152750000D01*
X215661716Y-152750000D01*
X216770898Y-152750000D01*
X216750000Y-152881947D01*
X216750000Y-153118053D01*
X216770898Y-153250000D01*
X215661716Y-153250000D01*
X215682694Y-153436189D01*
X215682696Y-153436201D01*
X215747678Y-153720910D01*
X215747681Y-153720918D01*
X215844129Y-153996548D01*
X215970831Y-154259648D01*
X216126199Y-154506914D01*
X216308274Y-154735230D01*
X216514769Y-154941725D01*
X216743085Y-155123800D01*
X216990351Y-155279168D01*
X217253451Y-155405870D01*
X217529081Y-155502318D01*
X217529089Y-155502321D01*
X217813798Y-155567303D01*
X217813812Y-155567306D01*
X218103980Y-155599999D01*
X218103984Y-155600000D01*
X219250000Y-155600000D01*
X219250000Y-154500000D01*
X219750000Y-154500000D01*
X219750000Y-155600000D01*
X220896016Y-155600000D01*
X220896019Y-155599999D01*
X221186187Y-155567306D01*
X221186201Y-155567303D01*
X221470910Y-155502321D01*
X221470918Y-155502318D01*
X221746548Y-155405870D01*
X222009648Y-155279168D01*
X222256914Y-155123800D01*
X222485230Y-154941725D01*
X222691725Y-154735230D01*
X222873800Y-154506914D01*
X223029168Y-154259648D01*
X223155870Y-153996548D01*
X223252318Y-153720918D01*
X223252321Y-153720910D01*
X223317303Y-153436201D01*
X223317305Y-153436189D01*
X223338284Y-153250000D01*
X222229102Y-153250000D01*
X222250000Y-153118053D01*
X222250000Y-152881947D01*
X222229102Y-152750000D01*
X223338284Y-152750000D01*
X223317305Y-152563810D01*
X223317303Y-152563798D01*
X223252321Y-152279089D01*
X223252318Y-152279081D01*
X223155870Y-152003451D01*
X223029168Y-151740351D01*
X222873800Y-151493085D01*
X222691725Y-151264769D01*
X222485230Y-151058274D01*
X222256914Y-150876199D01*
X222009648Y-150720831D01*
X221746548Y-150594129D01*
X221470918Y-150497681D01*
X221470910Y-150497678D01*
X221186201Y-150432696D01*
X221186187Y-150432693D01*
X220896019Y-150400000D01*
X219750000Y-150400000D01*
X219750000Y-151500000D01*
X219250000Y-151500000D01*
X219250000Y-150400000D01*
X218103980Y-150400000D01*
X217813812Y-150432693D01*
X217813798Y-150432696D01*
X217529089Y-150497678D01*
X217529081Y-150497681D01*
X217253451Y-150594129D01*
X216990351Y-150720831D01*
X216743085Y-150876199D01*
X216514769Y-151058274D01*
X216308274Y-151264769D01*
X216126199Y-151493085D01*
X215970831Y-151740351D01*
X215844129Y-152003451D01*
X215747681Y-152279081D01*
X215747678Y-152279089D01*
X215682696Y-152563798D01*
X215682694Y-152563810D01*
X215661716Y-152750000D01*
X188338284Y-152750000D01*
X188317305Y-152563810D01*
X188317303Y-152563798D01*
X188252321Y-152279089D01*
X188252318Y-152279081D01*
X188155870Y-152003451D01*
X188029168Y-151740351D01*
X187873800Y-151493085D01*
X187691725Y-151264769D01*
X187485230Y-151058274D01*
X187256914Y-150876199D01*
X187009648Y-150720831D01*
X186746548Y-150594129D01*
X186470918Y-150497681D01*
X186470910Y-150497678D01*
X186186201Y-150432696D01*
X186186187Y-150432693D01*
X185896019Y-150400000D01*
X184750000Y-150400000D01*
X184750000Y-151500000D01*
X184250000Y-151500000D01*
X184250000Y-150400000D01*
X183103980Y-150400000D01*
X182813812Y-150432693D01*
X182813798Y-150432696D01*
X182529089Y-150497678D01*
X182529081Y-150497681D01*
X182253451Y-150594129D01*
X181990351Y-150720831D01*
X181743085Y-150876199D01*
X181514769Y-151058274D01*
X181308274Y-151264769D01*
X181126199Y-151493085D01*
X180970831Y-151740351D01*
X180844129Y-152003451D01*
X180747681Y-152279081D01*
X180747678Y-152279089D01*
X180682696Y-152563798D01*
X180682694Y-152563810D01*
X180661716Y-152750000D01*
X177025500Y-152750000D01*
X177025501Y-30708746D01*
X177025501Y-30250000D01*
X180661716Y-30250000D01*
X181770898Y-30250000D01*
X181750000Y-30381947D01*
X181750000Y-30618053D01*
X181770898Y-30750000D01*
X180661716Y-30750000D01*
X180682694Y-30936189D01*
X180682696Y-30936201D01*
X180747678Y-31220910D01*
X180747681Y-31220918D01*
X180844129Y-31496548D01*
X180970831Y-31759648D01*
X181126199Y-32006914D01*
X181308274Y-32235230D01*
X181514769Y-32441725D01*
X181743085Y-32623800D01*
X181990351Y-32779168D01*
X182253451Y-32905870D01*
X182529081Y-33002318D01*
X182529089Y-33002321D01*
X182813798Y-33067303D01*
X182813812Y-33067306D01*
X183103980Y-33099999D01*
X183103984Y-33100000D01*
X184250000Y-33100000D01*
X184250000Y-32000000D01*
X184750000Y-32000000D01*
X184750000Y-33100000D01*
X185896016Y-33100000D01*
X185896019Y-33099999D01*
X186186187Y-33067306D01*
X186186201Y-33067303D01*
X186470910Y-33002321D01*
X186470918Y-33002318D01*
X186746548Y-32905870D01*
X187009648Y-32779168D01*
X187256914Y-32623800D01*
X187485230Y-32441725D01*
X187691725Y-32235230D01*
X187873800Y-32006914D01*
X188029168Y-31759648D01*
X188155870Y-31496548D01*
X188252318Y-31220918D01*
X188252321Y-31220910D01*
X188317303Y-30936201D01*
X188317305Y-30936189D01*
X188338284Y-30750000D01*
X187229102Y-30750000D01*
X187250000Y-30618053D01*
X187250000Y-30381947D01*
X187229102Y-30250000D01*
X188338284Y-30250000D01*
X215661716Y-30250000D01*
X216770898Y-30250000D01*
X216750000Y-30381947D01*
X216750000Y-30618053D01*
X216770898Y-30750000D01*
X215661716Y-30750000D01*
X215682694Y-30936189D01*
X215682696Y-30936201D01*
X215747678Y-31220910D01*
X215747681Y-31220918D01*
X215844129Y-31496548D01*
X215970831Y-31759648D01*
X216126199Y-32006914D01*
X216308274Y-32235230D01*
X216514769Y-32441725D01*
X216743085Y-32623800D01*
X216990351Y-32779168D01*
X217253451Y-32905870D01*
X217529081Y-33002318D01*
X217529089Y-33002321D01*
X217813798Y-33067303D01*
X217813812Y-33067306D01*
X218103980Y-33099999D01*
X218103984Y-33100000D01*
X219250000Y-33100000D01*
X219250000Y-32000000D01*
X219750000Y-32000000D01*
X219750000Y-33100000D01*
X220896016Y-33100000D01*
X220896019Y-33099999D01*
X221186187Y-33067306D01*
X221186201Y-33067303D01*
X221470910Y-33002321D01*
X221470918Y-33002318D01*
X221746548Y-32905870D01*
X222009648Y-32779168D01*
X222256914Y-32623800D01*
X222485230Y-32441725D01*
X222691725Y-32235230D01*
X222873800Y-32006914D01*
X223029168Y-31759648D01*
X223155870Y-31496548D01*
X223252318Y-31220918D01*
X223252321Y-31220910D01*
X223317303Y-30936201D01*
X223317305Y-30936189D01*
X223338284Y-30750000D01*
X222229102Y-30750000D01*
X222250000Y-30618053D01*
X222250000Y-30381947D01*
X222229102Y-30250000D01*
X223338284Y-30250000D01*
X223317305Y-30063810D01*
X223317303Y-30063798D01*
X223252321Y-29779089D01*
X223252318Y-29779081D01*
X223155870Y-29503451D01*
X223029168Y-29240351D01*
X222873800Y-28993085D01*
X222691725Y-28764769D01*
X222485230Y-28558274D01*
X222256914Y-28376199D01*
X222009648Y-28220831D01*
X221746548Y-28094129D01*
X221470918Y-27997681D01*
X221470910Y-27997678D01*
X221186201Y-27932696D01*
X221186187Y-27932693D01*
X220896019Y-27900000D01*
X219750000Y-27900000D01*
X219750000Y-29000000D01*
X219250000Y-29000000D01*
X219250000Y-27900000D01*
X218103980Y-27900000D01*
X217813812Y-27932693D01*
X217813798Y-27932696D01*
X217529089Y-27997678D01*
X217529081Y-27997681D01*
X217253451Y-28094129D01*
X216990351Y-28220831D01*
X216743085Y-28376199D01*
X216514769Y-28558274D01*
X216308274Y-28764769D01*
X216126199Y-28993085D01*
X215970831Y-29240351D01*
X215844129Y-29503451D01*
X215747681Y-29779081D01*
X215747678Y-29779089D01*
X215682696Y-30063798D01*
X215682694Y-30063810D01*
X215661716Y-30250000D01*
X188338284Y-30250000D01*
X188317305Y-30063810D01*
X188317303Y-30063798D01*
X188252321Y-29779089D01*
X188252318Y-29779081D01*
X188155870Y-29503451D01*
X188029168Y-29240351D01*
X187873800Y-28993085D01*
X187691725Y-28764769D01*
X187485230Y-28558274D01*
X187256914Y-28376199D01*
X187009648Y-28220831D01*
X186746548Y-28094129D01*
X186470918Y-27997681D01*
X186470910Y-27997678D01*
X186186201Y-27932696D01*
X186186187Y-27932693D01*
X185896019Y-27900000D01*
X184750000Y-27900000D01*
X184750000Y-29000000D01*
X184250000Y-29000000D01*
X184250000Y-27900000D01*
X183103980Y-27900000D01*
X182813812Y-27932693D01*
X182813798Y-27932696D01*
X182529089Y-27997678D01*
X182529081Y-27997681D01*
X182253451Y-28094129D01*
X181990351Y-28220831D01*
X181743085Y-28376199D01*
X181514769Y-28558274D01*
X181308274Y-28764769D01*
X181126199Y-28993085D01*
X180970831Y-29240351D01*
X180844129Y-29503451D01*
X180747681Y-29779081D01*
X180747678Y-29779089D01*
X180682696Y-30063798D01*
X180682694Y-30063810D01*
X180661716Y-30250000D01*
X177025501Y-30250000D01*
X177025501Y-27649500D01*
X177045186Y-27582461D01*
X177097990Y-27536706D01*
X177149501Y-27525500D01*
X226850501Y-27525500D01*
X226917540Y-27545185D01*
G37*
G04 #@! TD.AperFunction*
M02*
