%TF.GenerationSoftware,KiCad,Pcbnew,7.0.7-7.0.7~ubuntu22.04.1*%
%TF.CreationDate,2023-12-10T22:01:32+01:00*%
%TF.ProjectId,CD40106_VCO,43443430-3130-4365-9f56-434f2e6b6963,rev?*%
%TF.SameCoordinates,Original*%
%TF.FileFunction,Drillmap*%
%TF.FilePolarity,Positive*%
%FSLAX45Y45*%
G04 Gerber Fmt 4.5, Leading zero omitted, Abs format (unit mm)*
G04 Created by KiCad (PCBNEW 7.0.7-7.0.7~ubuntu22.04.1) date 2023-12-10 22:01:32*
%MOMM*%
%LPD*%
G01*
G04 APERTURE LIST*
%ADD10C,0.050000*%
%ADD11C,0.200000*%
G04 APERTURE END LIST*
D10*
X13800000Y-2750000D02*
X13800000Y-15600000D01*
X8800000Y-2750000D02*
X8800000Y-15600000D01*
X13800000Y-15600000D02*
X8800000Y-15600000D01*
X8800000Y-2750000D02*
X13800000Y-2750000D01*
D11*
X9058277Y-15913984D02*
X9058277Y-15713984D01*
X9058277Y-15713984D02*
X9105896Y-15713984D01*
X9105896Y-15713984D02*
X9134467Y-15723508D01*
X9134467Y-15723508D02*
X9153515Y-15742555D01*
X9153515Y-15742555D02*
X9163039Y-15761603D01*
X9163039Y-15761603D02*
X9172562Y-15799698D01*
X9172562Y-15799698D02*
X9172562Y-15828269D01*
X9172562Y-15828269D02*
X9163039Y-15866365D01*
X9163039Y-15866365D02*
X9153515Y-15885412D01*
X9153515Y-15885412D02*
X9134467Y-15904460D01*
X9134467Y-15904460D02*
X9105896Y-15913984D01*
X9105896Y-15913984D02*
X9058277Y-15913984D01*
X9258277Y-15913984D02*
X9258277Y-15780650D01*
X9258277Y-15818746D02*
X9267801Y-15799698D01*
X9267801Y-15799698D02*
X9277324Y-15790174D01*
X9277324Y-15790174D02*
X9296372Y-15780650D01*
X9296372Y-15780650D02*
X9315420Y-15780650D01*
X9382086Y-15913984D02*
X9382086Y-15780650D01*
X9382086Y-15713984D02*
X9372562Y-15723508D01*
X9372562Y-15723508D02*
X9382086Y-15733031D01*
X9382086Y-15733031D02*
X9391610Y-15723508D01*
X9391610Y-15723508D02*
X9382086Y-15713984D01*
X9382086Y-15713984D02*
X9382086Y-15733031D01*
X9505896Y-15913984D02*
X9486848Y-15904460D01*
X9486848Y-15904460D02*
X9477324Y-15885412D01*
X9477324Y-15885412D02*
X9477324Y-15713984D01*
X9610658Y-15913984D02*
X9591610Y-15904460D01*
X9591610Y-15904460D02*
X9582086Y-15885412D01*
X9582086Y-15885412D02*
X9582086Y-15713984D01*
X9839229Y-15913984D02*
X9839229Y-15713984D01*
X9839229Y-15713984D02*
X9905896Y-15856841D01*
X9905896Y-15856841D02*
X9972562Y-15713984D01*
X9972562Y-15713984D02*
X9972562Y-15913984D01*
X10153515Y-15913984D02*
X10153515Y-15809222D01*
X10153515Y-15809222D02*
X10143991Y-15790174D01*
X10143991Y-15790174D02*
X10124943Y-15780650D01*
X10124943Y-15780650D02*
X10086848Y-15780650D01*
X10086848Y-15780650D02*
X10067801Y-15790174D01*
X10153515Y-15904460D02*
X10134467Y-15913984D01*
X10134467Y-15913984D02*
X10086848Y-15913984D01*
X10086848Y-15913984D02*
X10067801Y-15904460D01*
X10067801Y-15904460D02*
X10058277Y-15885412D01*
X10058277Y-15885412D02*
X10058277Y-15866365D01*
X10058277Y-15866365D02*
X10067801Y-15847317D01*
X10067801Y-15847317D02*
X10086848Y-15837793D01*
X10086848Y-15837793D02*
X10134467Y-15837793D01*
X10134467Y-15837793D02*
X10153515Y-15828269D01*
X10248753Y-15780650D02*
X10248753Y-15980650D01*
X10248753Y-15790174D02*
X10267801Y-15780650D01*
X10267801Y-15780650D02*
X10305896Y-15780650D01*
X10305896Y-15780650D02*
X10324943Y-15790174D01*
X10324943Y-15790174D02*
X10334467Y-15799698D01*
X10334467Y-15799698D02*
X10343991Y-15818746D01*
X10343991Y-15818746D02*
X10343991Y-15875888D01*
X10343991Y-15875888D02*
X10334467Y-15894936D01*
X10334467Y-15894936D02*
X10324943Y-15904460D01*
X10324943Y-15904460D02*
X10305896Y-15913984D01*
X10305896Y-15913984D02*
X10267801Y-15913984D01*
X10267801Y-15913984D02*
X10248753Y-15904460D01*
X10429705Y-15894936D02*
X10439229Y-15904460D01*
X10439229Y-15904460D02*
X10429705Y-15913984D01*
X10429705Y-15913984D02*
X10420182Y-15904460D01*
X10420182Y-15904460D02*
X10429705Y-15894936D01*
X10429705Y-15894936D02*
X10429705Y-15913984D01*
X10429705Y-15790174D02*
X10439229Y-15799698D01*
X10439229Y-15799698D02*
X10429705Y-15809222D01*
X10429705Y-15809222D02*
X10420182Y-15799698D01*
X10420182Y-15799698D02*
X10429705Y-15790174D01*
X10429705Y-15790174D02*
X10429705Y-15809222D01*
M02*
