G04 #@! TF.GenerationSoftware,KiCad,Pcbnew,7.0.7-7.0.7~ubuntu22.04.1*
G04 #@! TF.CreationDate,2023-12-10T22:01:07+01:00*
G04 #@! TF.ProjectId,CD40106_VCO,43443430-3130-4365-9f56-434f2e6b6963,rev?*
G04 #@! TF.SameCoordinates,Original*
G04 #@! TF.FileFunction,Legend,Bot*
G04 #@! TF.FilePolarity,Positive*
%FSLAX46Y46*%
G04 Gerber Fmt 4.6, Leading zero omitted, Abs format (unit mm)*
G04 Created by KiCad (PCBNEW 7.0.7-7.0.7~ubuntu22.04.1) date 2023-12-10 22:01:07*
%MOMM*%
%LPD*%
G01*
G04 APERTURE LIST*
%ADD10C,0.150000*%
%ADD11C,0.120000*%
%ADD12C,1.600000*%
%ADD13O,1.600000X1.600000*%
%ADD14O,2.500000X2.500000*%
%ADD15R,1.700000X1.700000*%
%ADD16O,1.700000X1.700000*%
G04 APERTURE END LIST*
D10*
X118979523Y-109304819D02*
X118979523Y-110019104D01*
X118979523Y-110019104D02*
X119027142Y-110161961D01*
X119027142Y-110161961D02*
X119122380Y-110257200D01*
X119122380Y-110257200D02*
X119265237Y-110304819D01*
X119265237Y-110304819D02*
X119360475Y-110304819D01*
X117979523Y-110304819D02*
X118550951Y-110304819D01*
X118265237Y-110304819D02*
X118265237Y-109304819D01*
X118265237Y-109304819D02*
X118360475Y-109447676D01*
X118360475Y-109447676D02*
X118455713Y-109542914D01*
X118455713Y-109542914D02*
X118550951Y-109590533D01*
X117598570Y-109400057D02*
X117550951Y-109352438D01*
X117550951Y-109352438D02*
X117455713Y-109304819D01*
X117455713Y-109304819D02*
X117217618Y-109304819D01*
X117217618Y-109304819D02*
X117122380Y-109352438D01*
X117122380Y-109352438D02*
X117074761Y-109400057D01*
X117074761Y-109400057D02*
X117027142Y-109495295D01*
X117027142Y-109495295D02*
X117027142Y-109590533D01*
X117027142Y-109590533D02*
X117074761Y-109733390D01*
X117074761Y-109733390D02*
X117646189Y-110304819D01*
X117646189Y-110304819D02*
X117027142Y-110304819D01*
D11*
X120050000Y-111180000D02*
X120050000Y-108520000D01*
X127730000Y-111180000D02*
X120050000Y-111180000D01*
X127730000Y-111180000D02*
X127730000Y-108520000D01*
X130330000Y-109850000D02*
X130330000Y-108520000D01*
X127730000Y-108520000D02*
X120050000Y-108520000D01*
X130330000Y-108520000D02*
X129000000Y-108520000D01*
%LPC*%
D12*
X104920000Y-105850000D03*
D13*
X115080000Y-105850000D03*
D12*
X130080000Y-102600000D03*
D13*
X119920000Y-102600000D03*
D12*
X119920000Y-105850000D03*
D13*
X130080000Y-105850000D03*
D12*
X115080000Y-109100000D03*
D13*
X104920000Y-109100000D03*
D14*
X106778224Y-84727109D03*
X109651115Y-79751115D03*
X114627109Y-76878224D03*
X120372891Y-76878224D03*
X125348885Y-79751115D03*
X128221776Y-84727109D03*
X128221776Y-90472891D03*
X125348885Y-95448885D03*
X120372891Y-98321776D03*
X114627109Y-98321776D03*
X109651115Y-95448885D03*
X106778224Y-90472891D03*
X114777639Y-84877639D03*
X120222361Y-84877639D03*
X120222361Y-90322361D03*
X114777639Y-90322361D03*
D12*
X104920000Y-102600000D03*
D13*
X115080000Y-102600000D03*
D15*
X129000000Y-109850000D03*
D16*
X126460000Y-109850000D03*
X123920000Y-109850000D03*
X121380000Y-109850000D03*
%LPD*%
M02*
