%TF.GenerationSoftware,KiCad,Pcbnew,7.0.7-7.0.7~ubuntu22.04.1*%
%TF.CreationDate,2023-12-10T22:01:07+01:00*%
%TF.ProjectId,CD40106_VCO,43443430-3130-4365-9f56-434f2e6b6963,rev?*%
%TF.SameCoordinates,Original*%
%TF.FileFunction,Drillmap*%
%TF.FilePolarity,Positive*%
%FSLAX45Y45*%
G04 Gerber Fmt 4.5, Leading zero omitted, Abs format (unit mm)*
G04 Created by KiCad (PCBNEW 7.0.7-7.0.7~ubuntu22.04.1) date 2023-12-10 22:01:07*
%MOMM*%
%LPD*%
G01*
G04 APERTURE LIST*
%ADD10C,0.050000*%
%ADD11C,0.200000*%
G04 APERTURE END LIST*
D10*
X13150000Y-11260000D02*
X10350000Y-11260000D01*
X13150000Y-8810000D02*
G75*
G03*
X10350000Y-8810000I-1400000J0D01*
G01*
X10350000Y-11260000D02*
X10350000Y-8810000D01*
X13150000Y-11260000D02*
X13150000Y-8810000D01*
D11*
X10608277Y-11573984D02*
X10608277Y-11373984D01*
X10608277Y-11373984D02*
X10655896Y-11373984D01*
X10655896Y-11373984D02*
X10684467Y-11383508D01*
X10684467Y-11383508D02*
X10703515Y-11402555D01*
X10703515Y-11402555D02*
X10713039Y-11421603D01*
X10713039Y-11421603D02*
X10722563Y-11459698D01*
X10722563Y-11459698D02*
X10722563Y-11488269D01*
X10722563Y-11488269D02*
X10713039Y-11526365D01*
X10713039Y-11526365D02*
X10703515Y-11545412D01*
X10703515Y-11545412D02*
X10684467Y-11564460D01*
X10684467Y-11564460D02*
X10655896Y-11573984D01*
X10655896Y-11573984D02*
X10608277Y-11573984D01*
X10808277Y-11573984D02*
X10808277Y-11440650D01*
X10808277Y-11478746D02*
X10817801Y-11459698D01*
X10817801Y-11459698D02*
X10827324Y-11450174D01*
X10827324Y-11450174D02*
X10846372Y-11440650D01*
X10846372Y-11440650D02*
X10865420Y-11440650D01*
X10932086Y-11573984D02*
X10932086Y-11440650D01*
X10932086Y-11373984D02*
X10922563Y-11383508D01*
X10922563Y-11383508D02*
X10932086Y-11393031D01*
X10932086Y-11393031D02*
X10941610Y-11383508D01*
X10941610Y-11383508D02*
X10932086Y-11373984D01*
X10932086Y-11373984D02*
X10932086Y-11393031D01*
X11055896Y-11573984D02*
X11036848Y-11564460D01*
X11036848Y-11564460D02*
X11027324Y-11545412D01*
X11027324Y-11545412D02*
X11027324Y-11373984D01*
X11160658Y-11573984D02*
X11141610Y-11564460D01*
X11141610Y-11564460D02*
X11132086Y-11545412D01*
X11132086Y-11545412D02*
X11132086Y-11373984D01*
X11389229Y-11573984D02*
X11389229Y-11373984D01*
X11389229Y-11373984D02*
X11455896Y-11516841D01*
X11455896Y-11516841D02*
X11522562Y-11373984D01*
X11522562Y-11373984D02*
X11522562Y-11573984D01*
X11703515Y-11573984D02*
X11703515Y-11469222D01*
X11703515Y-11469222D02*
X11693991Y-11450174D01*
X11693991Y-11450174D02*
X11674943Y-11440650D01*
X11674943Y-11440650D02*
X11636848Y-11440650D01*
X11636848Y-11440650D02*
X11617801Y-11450174D01*
X11703515Y-11564460D02*
X11684467Y-11573984D01*
X11684467Y-11573984D02*
X11636848Y-11573984D01*
X11636848Y-11573984D02*
X11617801Y-11564460D01*
X11617801Y-11564460D02*
X11608277Y-11545412D01*
X11608277Y-11545412D02*
X11608277Y-11526365D01*
X11608277Y-11526365D02*
X11617801Y-11507317D01*
X11617801Y-11507317D02*
X11636848Y-11497793D01*
X11636848Y-11497793D02*
X11684467Y-11497793D01*
X11684467Y-11497793D02*
X11703515Y-11488269D01*
X11798753Y-11440650D02*
X11798753Y-11640650D01*
X11798753Y-11450174D02*
X11817801Y-11440650D01*
X11817801Y-11440650D02*
X11855896Y-11440650D01*
X11855896Y-11440650D02*
X11874943Y-11450174D01*
X11874943Y-11450174D02*
X11884467Y-11459698D01*
X11884467Y-11459698D02*
X11893991Y-11478746D01*
X11893991Y-11478746D02*
X11893991Y-11535888D01*
X11893991Y-11535888D02*
X11884467Y-11554936D01*
X11884467Y-11554936D02*
X11874943Y-11564460D01*
X11874943Y-11564460D02*
X11855896Y-11573984D01*
X11855896Y-11573984D02*
X11817801Y-11573984D01*
X11817801Y-11573984D02*
X11798753Y-11564460D01*
X11979705Y-11554936D02*
X11989229Y-11564460D01*
X11989229Y-11564460D02*
X11979705Y-11573984D01*
X11979705Y-11573984D02*
X11970182Y-11564460D01*
X11970182Y-11564460D02*
X11979705Y-11554936D01*
X11979705Y-11554936D02*
X11979705Y-11573984D01*
X11979705Y-11450174D02*
X11989229Y-11459698D01*
X11989229Y-11459698D02*
X11979705Y-11469222D01*
X11979705Y-11469222D02*
X11970182Y-11459698D01*
X11970182Y-11459698D02*
X11979705Y-11450174D01*
X11979705Y-11450174D02*
X11979705Y-11469222D01*
M02*
