M48
; DRILL file {KiCad 9.0.4-9.0.4-0~ubuntu22.04.1} date 2025-10-19T11:47:48+0100
; FORMAT={-:-/ absolute / metric / decimal}
; #@! TF.CreationDate,2025-10-19T11:47:48+01:00
; #@! TF.GenerationSoftware,Kicad,Pcbnew,9.0.4-9.0.4-0~ubuntu22.04.1
; #@! TF.FileFunction,Plated,1,2,PTH
FMAT,2
METRIC
; #@! TA.AperFunction,Plated,PTH,ComponentDrill
T1C0.800
; #@! TA.AperFunction,Plated,PTH,ComponentDrill
T2C1.000
; #@! TA.AperFunction,Plated,PTH,ComponentDrill
T3C1.500
%
G90
G05
T1
X16.42Y-65.0
X16.42Y-68.25
X16.42Y-71.5
X26.58Y-65.0
X26.58Y-68.25
X26.58Y-71.5
X31.42Y-65.0
X31.42Y-68.25
X41.58Y-65.0
X41.58Y-68.25
T2
X32.88Y-72.25
X35.42Y-72.25
X37.96Y-72.25
X40.5Y-72.25
T3
X18.278Y-47.127
X18.278Y-52.873
X21.151Y-42.151
X21.151Y-57.849
X26.127Y-39.278
X26.127Y-60.722
X26.278Y-47.278
X26.278Y-52.722
X31.722Y-47.278
X31.722Y-52.722
X31.873Y-39.278
X31.873Y-60.722
X36.849Y-42.151
X36.849Y-57.849
X39.722Y-47.127
X39.722Y-52.873
M30
