G04 #@! TF.GenerationSoftware,KiCad,Pcbnew,7.0.7-7.0.7~ubuntu22.04.1*
G04 #@! TF.CreationDate,2023-12-10T22:01:07+01:00*
G04 #@! TF.ProjectId,CD40106_VCO,43443430-3130-4365-9f56-434f2e6b6963,rev?*
G04 #@! TF.SameCoordinates,Original*
G04 #@! TF.FileFunction,Legend,Top*
G04 #@! TF.FilePolarity,Positive*
%FSLAX46Y46*%
G04 Gerber Fmt 4.6, Leading zero omitted, Abs format (unit mm)*
G04 Created by KiCad (PCBNEW 7.0.7-7.0.7~ubuntu22.04.1) date 2023-12-10 22:01:07*
%MOMM*%
%LPD*%
G01*
G04 APERTURE LIST*
%ADD10C,0.150000*%
%ADD11C,0.120000*%
%ADD12C,1.600000*%
%ADD13O,1.600000X1.600000*%
%ADD14O,2.500000X2.500000*%
%ADD15R,1.700000X1.700000*%
%ADD16O,1.700000X1.700000*%
G04 APERTURE END LIST*
D10*
X108741541Y-84469819D02*
X109408207Y-84469819D01*
X109408207Y-84469819D02*
X108979636Y-85469819D01*
X125610588Y-84719819D02*
X125039160Y-84719819D01*
X125324874Y-84719819D02*
X125324874Y-83719819D01*
X125324874Y-83719819D02*
X125229636Y-83862676D01*
X125229636Y-83862676D02*
X125134398Y-83957914D01*
X125134398Y-83957914D02*
X125039160Y-84005533D01*
X125991541Y-83815057D02*
X126039160Y-83767438D01*
X126039160Y-83767438D02*
X126134398Y-83719819D01*
X126134398Y-83719819D02*
X126372493Y-83719819D01*
X126372493Y-83719819D02*
X126467731Y-83767438D01*
X126467731Y-83767438D02*
X126515350Y-83815057D01*
X126515350Y-83815057D02*
X126562969Y-83910295D01*
X126562969Y-83910295D02*
X126562969Y-84005533D01*
X126562969Y-84005533D02*
X126515350Y-84148390D01*
X126515350Y-84148390D02*
X125943922Y-84719819D01*
X125943922Y-84719819D02*
X126562969Y-84719819D01*
X109357142Y-106304819D02*
X109023809Y-105828628D01*
X108785714Y-106304819D02*
X108785714Y-105304819D01*
X108785714Y-105304819D02*
X109166666Y-105304819D01*
X109166666Y-105304819D02*
X109261904Y-105352438D01*
X109261904Y-105352438D02*
X109309523Y-105400057D01*
X109309523Y-105400057D02*
X109357142Y-105495295D01*
X109357142Y-105495295D02*
X109357142Y-105638152D01*
X109357142Y-105638152D02*
X109309523Y-105733390D01*
X109309523Y-105733390D02*
X109261904Y-105781009D01*
X109261904Y-105781009D02*
X109166666Y-105828628D01*
X109166666Y-105828628D02*
X108785714Y-105828628D01*
X109738095Y-105400057D02*
X109785714Y-105352438D01*
X109785714Y-105352438D02*
X109880952Y-105304819D01*
X109880952Y-105304819D02*
X110119047Y-105304819D01*
X110119047Y-105304819D02*
X110214285Y-105352438D01*
X110214285Y-105352438D02*
X110261904Y-105400057D01*
X110261904Y-105400057D02*
X110309523Y-105495295D01*
X110309523Y-105495295D02*
X110309523Y-105590533D01*
X110309523Y-105590533D02*
X110261904Y-105733390D01*
X110261904Y-105733390D02*
X109690476Y-106304819D01*
X109690476Y-106304819D02*
X110309523Y-106304819D01*
X110690476Y-105400057D02*
X110738095Y-105352438D01*
X110738095Y-105352438D02*
X110833333Y-105304819D01*
X110833333Y-105304819D02*
X111071428Y-105304819D01*
X111071428Y-105304819D02*
X111166666Y-105352438D01*
X111166666Y-105352438D02*
X111214285Y-105400057D01*
X111214285Y-105400057D02*
X111261904Y-105495295D01*
X111261904Y-105495295D02*
X111261904Y-105590533D01*
X111261904Y-105590533D02*
X111214285Y-105733390D01*
X111214285Y-105733390D02*
X110642857Y-106304819D01*
X110642857Y-106304819D02*
X111261904Y-106304819D01*
X124357142Y-103054819D02*
X124023809Y-102578628D01*
X123785714Y-103054819D02*
X123785714Y-102054819D01*
X123785714Y-102054819D02*
X124166666Y-102054819D01*
X124166666Y-102054819D02*
X124261904Y-102102438D01*
X124261904Y-102102438D02*
X124309523Y-102150057D01*
X124309523Y-102150057D02*
X124357142Y-102245295D01*
X124357142Y-102245295D02*
X124357142Y-102388152D01*
X124357142Y-102388152D02*
X124309523Y-102483390D01*
X124309523Y-102483390D02*
X124261904Y-102531009D01*
X124261904Y-102531009D02*
X124166666Y-102578628D01*
X124166666Y-102578628D02*
X123785714Y-102578628D01*
X124738095Y-102150057D02*
X124785714Y-102102438D01*
X124785714Y-102102438D02*
X124880952Y-102054819D01*
X124880952Y-102054819D02*
X125119047Y-102054819D01*
X125119047Y-102054819D02*
X125214285Y-102102438D01*
X125214285Y-102102438D02*
X125261904Y-102150057D01*
X125261904Y-102150057D02*
X125309523Y-102245295D01*
X125309523Y-102245295D02*
X125309523Y-102340533D01*
X125309523Y-102340533D02*
X125261904Y-102483390D01*
X125261904Y-102483390D02*
X124690476Y-103054819D01*
X124690476Y-103054819D02*
X125309523Y-103054819D01*
X126214285Y-102054819D02*
X125738095Y-102054819D01*
X125738095Y-102054819D02*
X125690476Y-102531009D01*
X125690476Y-102531009D02*
X125738095Y-102483390D01*
X125738095Y-102483390D02*
X125833333Y-102435771D01*
X125833333Y-102435771D02*
X126071428Y-102435771D01*
X126071428Y-102435771D02*
X126166666Y-102483390D01*
X126166666Y-102483390D02*
X126214285Y-102531009D01*
X126214285Y-102531009D02*
X126261904Y-102626247D01*
X126261904Y-102626247D02*
X126261904Y-102864342D01*
X126261904Y-102864342D02*
X126214285Y-102959580D01*
X126214285Y-102959580D02*
X126166666Y-103007200D01*
X126166666Y-103007200D02*
X126071428Y-103054819D01*
X126071428Y-103054819D02*
X125833333Y-103054819D01*
X125833333Y-103054819D02*
X125738095Y-103007200D01*
X125738095Y-103007200D02*
X125690476Y-102959580D01*
X124357142Y-106304819D02*
X124023809Y-105828628D01*
X123785714Y-106304819D02*
X123785714Y-105304819D01*
X123785714Y-105304819D02*
X124166666Y-105304819D01*
X124166666Y-105304819D02*
X124261904Y-105352438D01*
X124261904Y-105352438D02*
X124309523Y-105400057D01*
X124309523Y-105400057D02*
X124357142Y-105495295D01*
X124357142Y-105495295D02*
X124357142Y-105638152D01*
X124357142Y-105638152D02*
X124309523Y-105733390D01*
X124309523Y-105733390D02*
X124261904Y-105781009D01*
X124261904Y-105781009D02*
X124166666Y-105828628D01*
X124166666Y-105828628D02*
X123785714Y-105828628D01*
X124738095Y-105400057D02*
X124785714Y-105352438D01*
X124785714Y-105352438D02*
X124880952Y-105304819D01*
X124880952Y-105304819D02*
X125119047Y-105304819D01*
X125119047Y-105304819D02*
X125214285Y-105352438D01*
X125214285Y-105352438D02*
X125261904Y-105400057D01*
X125261904Y-105400057D02*
X125309523Y-105495295D01*
X125309523Y-105495295D02*
X125309523Y-105590533D01*
X125309523Y-105590533D02*
X125261904Y-105733390D01*
X125261904Y-105733390D02*
X124690476Y-106304819D01*
X124690476Y-106304819D02*
X125309523Y-106304819D01*
X126166666Y-105304819D02*
X125976190Y-105304819D01*
X125976190Y-105304819D02*
X125880952Y-105352438D01*
X125880952Y-105352438D02*
X125833333Y-105400057D01*
X125833333Y-105400057D02*
X125738095Y-105542914D01*
X125738095Y-105542914D02*
X125690476Y-105733390D01*
X125690476Y-105733390D02*
X125690476Y-106114342D01*
X125690476Y-106114342D02*
X125738095Y-106209580D01*
X125738095Y-106209580D02*
X125785714Y-106257200D01*
X125785714Y-106257200D02*
X125880952Y-106304819D01*
X125880952Y-106304819D02*
X126071428Y-106304819D01*
X126071428Y-106304819D02*
X126166666Y-106257200D01*
X126166666Y-106257200D02*
X126214285Y-106209580D01*
X126214285Y-106209580D02*
X126261904Y-106114342D01*
X126261904Y-106114342D02*
X126261904Y-105876247D01*
X126261904Y-105876247D02*
X126214285Y-105781009D01*
X126214285Y-105781009D02*
X126166666Y-105733390D01*
X126166666Y-105733390D02*
X126071428Y-105685771D01*
X126071428Y-105685771D02*
X125880952Y-105685771D01*
X125880952Y-105685771D02*
X125785714Y-105733390D01*
X125785714Y-105733390D02*
X125738095Y-105781009D01*
X125738095Y-105781009D02*
X125690476Y-105876247D01*
X109357142Y-109554819D02*
X109023809Y-109078628D01*
X108785714Y-109554819D02*
X108785714Y-108554819D01*
X108785714Y-108554819D02*
X109166666Y-108554819D01*
X109166666Y-108554819D02*
X109261904Y-108602438D01*
X109261904Y-108602438D02*
X109309523Y-108650057D01*
X109309523Y-108650057D02*
X109357142Y-108745295D01*
X109357142Y-108745295D02*
X109357142Y-108888152D01*
X109357142Y-108888152D02*
X109309523Y-108983390D01*
X109309523Y-108983390D02*
X109261904Y-109031009D01*
X109261904Y-109031009D02*
X109166666Y-109078628D01*
X109166666Y-109078628D02*
X108785714Y-109078628D01*
X109738095Y-108650057D02*
X109785714Y-108602438D01*
X109785714Y-108602438D02*
X109880952Y-108554819D01*
X109880952Y-108554819D02*
X110119047Y-108554819D01*
X110119047Y-108554819D02*
X110214285Y-108602438D01*
X110214285Y-108602438D02*
X110261904Y-108650057D01*
X110261904Y-108650057D02*
X110309523Y-108745295D01*
X110309523Y-108745295D02*
X110309523Y-108840533D01*
X110309523Y-108840533D02*
X110261904Y-108983390D01*
X110261904Y-108983390D02*
X109690476Y-109554819D01*
X109690476Y-109554819D02*
X110309523Y-109554819D01*
X110642857Y-108554819D02*
X111261904Y-108554819D01*
X111261904Y-108554819D02*
X110928571Y-108935771D01*
X110928571Y-108935771D02*
X111071428Y-108935771D01*
X111071428Y-108935771D02*
X111166666Y-108983390D01*
X111166666Y-108983390D02*
X111214285Y-109031009D01*
X111214285Y-109031009D02*
X111261904Y-109126247D01*
X111261904Y-109126247D02*
X111261904Y-109364342D01*
X111261904Y-109364342D02*
X111214285Y-109459580D01*
X111214285Y-109459580D02*
X111166666Y-109507200D01*
X111166666Y-109507200D02*
X111071428Y-109554819D01*
X111071428Y-109554819D02*
X110785714Y-109554819D01*
X110785714Y-109554819D02*
X110690476Y-109507200D01*
X110690476Y-109507200D02*
X110642857Y-109459580D01*
X117907200Y-82183332D02*
X117954819Y-82040475D01*
X117954819Y-82040475D02*
X117954819Y-81802380D01*
X117954819Y-81802380D02*
X117907200Y-81707142D01*
X117907200Y-81707142D02*
X117859580Y-81659523D01*
X117859580Y-81659523D02*
X117764342Y-81611904D01*
X117764342Y-81611904D02*
X117669104Y-81611904D01*
X117669104Y-81611904D02*
X117573866Y-81659523D01*
X117573866Y-81659523D02*
X117526247Y-81707142D01*
X117526247Y-81707142D02*
X117478628Y-81802380D01*
X117478628Y-81802380D02*
X117431009Y-81992856D01*
X117431009Y-81992856D02*
X117383390Y-82088094D01*
X117383390Y-82088094D02*
X117335771Y-82135713D01*
X117335771Y-82135713D02*
X117240533Y-82183332D01*
X117240533Y-82183332D02*
X117145295Y-82183332D01*
X117145295Y-82183332D02*
X117050057Y-82135713D01*
X117050057Y-82135713D02*
X117002438Y-82088094D01*
X117002438Y-82088094D02*
X116954819Y-81992856D01*
X116954819Y-81992856D02*
X116954819Y-81754761D01*
X116954819Y-81754761D02*
X117002438Y-81611904D01*
X116954819Y-81278570D02*
X117954819Y-81040475D01*
X117954819Y-81040475D02*
X117240533Y-80849999D01*
X117240533Y-80849999D02*
X117954819Y-80659523D01*
X117954819Y-80659523D02*
X116954819Y-80421428D01*
X117954819Y-79516666D02*
X117954819Y-80088094D01*
X117954819Y-79802380D02*
X116954819Y-79802380D01*
X116954819Y-79802380D02*
X117097676Y-79897618D01*
X117097676Y-79897618D02*
X117192914Y-79992856D01*
X117192914Y-79992856D02*
X117240533Y-80088094D01*
X109357142Y-103054819D02*
X109023809Y-102578628D01*
X108785714Y-103054819D02*
X108785714Y-102054819D01*
X108785714Y-102054819D02*
X109166666Y-102054819D01*
X109166666Y-102054819D02*
X109261904Y-102102438D01*
X109261904Y-102102438D02*
X109309523Y-102150057D01*
X109309523Y-102150057D02*
X109357142Y-102245295D01*
X109357142Y-102245295D02*
X109357142Y-102388152D01*
X109357142Y-102388152D02*
X109309523Y-102483390D01*
X109309523Y-102483390D02*
X109261904Y-102531009D01*
X109261904Y-102531009D02*
X109166666Y-102578628D01*
X109166666Y-102578628D02*
X108785714Y-102578628D01*
X109738095Y-102150057D02*
X109785714Y-102102438D01*
X109785714Y-102102438D02*
X109880952Y-102054819D01*
X109880952Y-102054819D02*
X110119047Y-102054819D01*
X110119047Y-102054819D02*
X110214285Y-102102438D01*
X110214285Y-102102438D02*
X110261904Y-102150057D01*
X110261904Y-102150057D02*
X110309523Y-102245295D01*
X110309523Y-102245295D02*
X110309523Y-102340533D01*
X110309523Y-102340533D02*
X110261904Y-102483390D01*
X110261904Y-102483390D02*
X109690476Y-103054819D01*
X109690476Y-103054819D02*
X110309523Y-103054819D01*
X110928571Y-102054819D02*
X111023809Y-102054819D01*
X111023809Y-102054819D02*
X111119047Y-102102438D01*
X111119047Y-102102438D02*
X111166666Y-102150057D01*
X111166666Y-102150057D02*
X111214285Y-102245295D01*
X111214285Y-102245295D02*
X111261904Y-102435771D01*
X111261904Y-102435771D02*
X111261904Y-102673866D01*
X111261904Y-102673866D02*
X111214285Y-102864342D01*
X111214285Y-102864342D02*
X111166666Y-102959580D01*
X111166666Y-102959580D02*
X111119047Y-103007200D01*
X111119047Y-103007200D02*
X111023809Y-103054819D01*
X111023809Y-103054819D02*
X110928571Y-103054819D01*
X110928571Y-103054819D02*
X110833333Y-103007200D01*
X110833333Y-103007200D02*
X110785714Y-102959580D01*
X110785714Y-102959580D02*
X110738095Y-102864342D01*
X110738095Y-102864342D02*
X110690476Y-102673866D01*
X110690476Y-102673866D02*
X110690476Y-102435771D01*
X110690476Y-102435771D02*
X110738095Y-102245295D01*
X110738095Y-102245295D02*
X110785714Y-102150057D01*
X110785714Y-102150057D02*
X110833333Y-102102438D01*
X110833333Y-102102438D02*
X110928571Y-102054819D01*
D11*
X105960000Y-105850000D02*
X106730000Y-105850000D01*
X106730000Y-104480000D02*
X106730000Y-107220000D01*
X106730000Y-107220000D02*
X113270000Y-107220000D01*
X113270000Y-104480000D02*
X106730000Y-104480000D01*
X113270000Y-107220000D02*
X113270000Y-104480000D01*
X114040000Y-105850000D02*
X113270000Y-105850000D01*
X129040000Y-102600000D02*
X128270000Y-102600000D01*
X128270000Y-103970000D02*
X128270000Y-101230000D01*
X128270000Y-101230000D02*
X121730000Y-101230000D01*
X121730000Y-103970000D02*
X128270000Y-103970000D01*
X121730000Y-101230000D02*
X121730000Y-103970000D01*
X120960000Y-102600000D02*
X121730000Y-102600000D01*
X120960000Y-105850000D02*
X121730000Y-105850000D01*
X121730000Y-104480000D02*
X121730000Y-107220000D01*
X121730000Y-107220000D02*
X128270000Y-107220000D01*
X128270000Y-104480000D02*
X121730000Y-104480000D01*
X128270000Y-107220000D02*
X128270000Y-104480000D01*
X129040000Y-105850000D02*
X128270000Y-105850000D01*
X114040000Y-109100000D02*
X113270000Y-109100000D01*
X113270000Y-110470000D02*
X113270000Y-107730000D01*
X113270000Y-107730000D02*
X106730000Y-107730000D01*
X106730000Y-110470000D02*
X113270000Y-110470000D01*
X106730000Y-107730000D02*
X106730000Y-110470000D01*
X105960000Y-109100000D02*
X106730000Y-109100000D01*
X130600000Y-87600000D02*
G75*
G03*
X130600000Y-87600000I-13100000J0D01*
G01*
X105960000Y-102600000D02*
X106730000Y-102600000D01*
X106730000Y-101230000D02*
X106730000Y-103970000D01*
X106730000Y-103970000D02*
X113270000Y-103970000D01*
X113270000Y-101230000D02*
X106730000Y-101230000D01*
X113270000Y-103970000D02*
X113270000Y-101230000D01*
X114040000Y-102600000D02*
X113270000Y-102600000D01*
%LPC*%
D12*
X104920000Y-105850000D03*
D13*
X115080000Y-105850000D03*
D12*
X130080000Y-102600000D03*
D13*
X119920000Y-102600000D03*
D12*
X119920000Y-105850000D03*
D13*
X130080000Y-105850000D03*
D12*
X115080000Y-109100000D03*
D13*
X104920000Y-109100000D03*
D14*
X106778224Y-84727109D03*
X109651115Y-79751115D03*
X114627109Y-76878224D03*
X120372891Y-76878224D03*
X125348885Y-79751115D03*
X128221776Y-84727109D03*
X128221776Y-90472891D03*
X125348885Y-95448885D03*
X120372891Y-98321776D03*
X114627109Y-98321776D03*
X109651115Y-95448885D03*
X106778224Y-90472891D03*
X114777639Y-84877639D03*
X120222361Y-84877639D03*
X120222361Y-90322361D03*
X114777639Y-90322361D03*
D12*
X104920000Y-102600000D03*
D13*
X115080000Y-102600000D03*
D15*
X129000000Y-109850000D03*
D16*
X126460000Y-109850000D03*
X123920000Y-109850000D03*
X121380000Y-109850000D03*
%LPD*%
M02*
