M48
; DRILL file {KiCad 7.0.7-7.0.7~ubuntu22.04.1} date Sun Dec 10 22:01:07 2023
; FORMAT={-:-/ absolute / metric / decimal}
; #@! TF.CreationDate,2023-12-10T22:01:07+01:00
; #@! TF.GenerationSoftware,Kicad,Pcbnew,7.0.7-7.0.7~ubuntu22.04.1
; #@! TF.FileFunction,Plated,1,2,PTH
FMAT,2
METRIC
; #@! TA.AperFunction,Plated,PTH,ComponentDrill
T1C0.800
; #@! TA.AperFunction,Plated,PTH,ComponentDrill
T2C1.000
; #@! TA.AperFunction,Plated,PTH,ComponentDrill
T3C1.500
%
G90
G05
T1
X104.92Y-102.6
X104.92Y-105.85
X104.92Y-109.1
X115.08Y-102.6
X115.08Y-105.85
X115.08Y-109.1
X119.92Y-102.6
X119.92Y-105.85
X130.08Y-102.6
X130.08Y-105.85
T2
X121.38Y-109.85
X123.92Y-109.85
X126.46Y-109.85
X129.0Y-109.85
T3
X106.778Y-84.727
X106.778Y-90.473
X109.651Y-79.751
X109.651Y-95.449
X114.627Y-76.878
X114.627Y-98.322
X114.778Y-84.878
X114.778Y-90.322
X120.222Y-84.878
X120.222Y-90.322
X120.373Y-76.878
X120.373Y-98.322
X125.349Y-79.751
X125.349Y-95.449
X128.222Y-84.727
X128.222Y-90.473
T0
M30
