G04 #@! TF.GenerationSoftware,KiCad,Pcbnew,9.0.4-9.0.4-0~ubuntu22.04.1*
G04 #@! TF.CreationDate,2025-10-19T11:47:48+01:00*
G04 #@! TF.ProjectId,CD40106_VCO,43443430-3130-4365-9f56-434f2e6b6963,rev?*
G04 #@! TF.SameCoordinates,Original*
G04 #@! TF.FileFunction,Legend,Bot*
G04 #@! TF.FilePolarity,Positive*
%FSLAX46Y46*%
G04 Gerber Fmt 4.6, Leading zero omitted, Abs format (unit mm)*
G04 Created by KiCad (PCBNEW 9.0.4-9.0.4-0~ubuntu22.04.1) date 2025-10-19 11:47:48*
%MOMM*%
%LPD*%
G01*
G04 APERTURE LIST*
%ADD10C,0.150000*%
%ADD11C,0.120000*%
%ADD12C,1.600000*%
%ADD13O,1.600000X1.600000*%
%ADD14O,2.500000X2.500000*%
%ADD15R,1.700000X1.700000*%
%ADD16O,1.700000X1.700000*%
G04 APERTURE END LIST*
D10*
X40969819Y-74460588D02*
X40969819Y-73889160D01*
X40969819Y-74174874D02*
X39969819Y-74174874D01*
X39969819Y-74174874D02*
X40112676Y-74079636D01*
X40112676Y-74079636D02*
X40207914Y-73984398D01*
X40207914Y-73984398D02*
X40255533Y-73889160D01*
X34976190Y-55359580D02*
X35023809Y-55407200D01*
X35023809Y-55407200D02*
X35166666Y-55454819D01*
X35166666Y-55454819D02*
X35261904Y-55454819D01*
X35261904Y-55454819D02*
X35404761Y-55407200D01*
X35404761Y-55407200D02*
X35499999Y-55311961D01*
X35499999Y-55311961D02*
X35547618Y-55216723D01*
X35547618Y-55216723D02*
X35595237Y-55026247D01*
X35595237Y-55026247D02*
X35595237Y-54883390D01*
X35595237Y-54883390D02*
X35547618Y-54692914D01*
X35547618Y-54692914D02*
X35499999Y-54597676D01*
X35499999Y-54597676D02*
X35404761Y-54502438D01*
X35404761Y-54502438D02*
X35261904Y-54454819D01*
X35261904Y-54454819D02*
X35166666Y-54454819D01*
X35166666Y-54454819D02*
X35023809Y-54502438D01*
X35023809Y-54502438D02*
X34976190Y-54550057D01*
X34547618Y-55454819D02*
X34547618Y-54454819D01*
X34547618Y-54454819D02*
X34309523Y-54454819D01*
X34309523Y-54454819D02*
X34166666Y-54502438D01*
X34166666Y-54502438D02*
X34071428Y-54597676D01*
X34071428Y-54597676D02*
X34023809Y-54692914D01*
X34023809Y-54692914D02*
X33976190Y-54883390D01*
X33976190Y-54883390D02*
X33976190Y-55026247D01*
X33976190Y-55026247D02*
X34023809Y-55216723D01*
X34023809Y-55216723D02*
X34071428Y-55311961D01*
X34071428Y-55311961D02*
X34166666Y-55407200D01*
X34166666Y-55407200D02*
X34309523Y-55454819D01*
X34309523Y-55454819D02*
X34547618Y-55454819D01*
X33119047Y-54788152D02*
X33119047Y-55454819D01*
X33357142Y-54407200D02*
X33595237Y-55121485D01*
X33595237Y-55121485D02*
X32976190Y-55121485D01*
X32404761Y-54454819D02*
X32309523Y-54454819D01*
X32309523Y-54454819D02*
X32214285Y-54502438D01*
X32214285Y-54502438D02*
X32166666Y-54550057D01*
X32166666Y-54550057D02*
X32119047Y-54645295D01*
X32119047Y-54645295D02*
X32071428Y-54835771D01*
X32071428Y-54835771D02*
X32071428Y-55073866D01*
X32071428Y-55073866D02*
X32119047Y-55264342D01*
X32119047Y-55264342D02*
X32166666Y-55359580D01*
X32166666Y-55359580D02*
X32214285Y-55407200D01*
X32214285Y-55407200D02*
X32309523Y-55454819D01*
X32309523Y-55454819D02*
X32404761Y-55454819D01*
X32404761Y-55454819D02*
X32499999Y-55407200D01*
X32499999Y-55407200D02*
X32547618Y-55359580D01*
X32547618Y-55359580D02*
X32595237Y-55264342D01*
X32595237Y-55264342D02*
X32642856Y-55073866D01*
X32642856Y-55073866D02*
X32642856Y-54835771D01*
X32642856Y-54835771D02*
X32595237Y-54645295D01*
X32595237Y-54645295D02*
X32547618Y-54550057D01*
X32547618Y-54550057D02*
X32499999Y-54502438D01*
X32499999Y-54502438D02*
X32404761Y-54454819D01*
X31119047Y-55454819D02*
X31690475Y-55454819D01*
X31404761Y-55454819D02*
X31404761Y-54454819D01*
X31404761Y-54454819D02*
X31499999Y-54597676D01*
X31499999Y-54597676D02*
X31595237Y-54692914D01*
X31595237Y-54692914D02*
X31690475Y-54740533D01*
X30499999Y-54454819D02*
X30404761Y-54454819D01*
X30404761Y-54454819D02*
X30309523Y-54502438D01*
X30309523Y-54502438D02*
X30261904Y-54550057D01*
X30261904Y-54550057D02*
X30214285Y-54645295D01*
X30214285Y-54645295D02*
X30166666Y-54835771D01*
X30166666Y-54835771D02*
X30166666Y-55073866D01*
X30166666Y-55073866D02*
X30214285Y-55264342D01*
X30214285Y-55264342D02*
X30261904Y-55359580D01*
X30261904Y-55359580D02*
X30309523Y-55407200D01*
X30309523Y-55407200D02*
X30404761Y-55454819D01*
X30404761Y-55454819D02*
X30499999Y-55454819D01*
X30499999Y-55454819D02*
X30595237Y-55407200D01*
X30595237Y-55407200D02*
X30642856Y-55359580D01*
X30642856Y-55359580D02*
X30690475Y-55264342D01*
X30690475Y-55264342D02*
X30738094Y-55073866D01*
X30738094Y-55073866D02*
X30738094Y-54835771D01*
X30738094Y-54835771D02*
X30690475Y-54645295D01*
X30690475Y-54645295D02*
X30642856Y-54550057D01*
X30642856Y-54550057D02*
X30595237Y-54502438D01*
X30595237Y-54502438D02*
X30499999Y-54454819D01*
X29309523Y-54454819D02*
X29499999Y-54454819D01*
X29499999Y-54454819D02*
X29595237Y-54502438D01*
X29595237Y-54502438D02*
X29642856Y-54550057D01*
X29642856Y-54550057D02*
X29738094Y-54692914D01*
X29738094Y-54692914D02*
X29785713Y-54883390D01*
X29785713Y-54883390D02*
X29785713Y-55264342D01*
X29785713Y-55264342D02*
X29738094Y-55359580D01*
X29738094Y-55359580D02*
X29690475Y-55407200D01*
X29690475Y-55407200D02*
X29595237Y-55454819D01*
X29595237Y-55454819D02*
X29404761Y-55454819D01*
X29404761Y-55454819D02*
X29309523Y-55407200D01*
X29309523Y-55407200D02*
X29261904Y-55359580D01*
X29261904Y-55359580D02*
X29214285Y-55264342D01*
X29214285Y-55264342D02*
X29214285Y-55026247D01*
X29214285Y-55026247D02*
X29261904Y-54931009D01*
X29261904Y-54931009D02*
X29309523Y-54883390D01*
X29309523Y-54883390D02*
X29404761Y-54835771D01*
X29404761Y-54835771D02*
X29595237Y-54835771D01*
X29595237Y-54835771D02*
X29690475Y-54883390D01*
X29690475Y-54883390D02*
X29738094Y-54931009D01*
X29738094Y-54931009D02*
X29785713Y-55026247D01*
X28166665Y-54454819D02*
X27833332Y-55454819D01*
X27833332Y-55454819D02*
X27499999Y-54454819D01*
X26595237Y-55359580D02*
X26642856Y-55407200D01*
X26642856Y-55407200D02*
X26785713Y-55454819D01*
X26785713Y-55454819D02*
X26880951Y-55454819D01*
X26880951Y-55454819D02*
X27023808Y-55407200D01*
X27023808Y-55407200D02*
X27119046Y-55311961D01*
X27119046Y-55311961D02*
X27166665Y-55216723D01*
X27166665Y-55216723D02*
X27214284Y-55026247D01*
X27214284Y-55026247D02*
X27214284Y-54883390D01*
X27214284Y-54883390D02*
X27166665Y-54692914D01*
X27166665Y-54692914D02*
X27119046Y-54597676D01*
X27119046Y-54597676D02*
X27023808Y-54502438D01*
X27023808Y-54502438D02*
X26880951Y-54454819D01*
X26880951Y-54454819D02*
X26785713Y-54454819D01*
X26785713Y-54454819D02*
X26642856Y-54502438D01*
X26642856Y-54502438D02*
X26595237Y-54550057D01*
X25976189Y-54454819D02*
X25785713Y-54454819D01*
X25785713Y-54454819D02*
X25690475Y-54502438D01*
X25690475Y-54502438D02*
X25595237Y-54597676D01*
X25595237Y-54597676D02*
X25547618Y-54788152D01*
X25547618Y-54788152D02*
X25547618Y-55121485D01*
X25547618Y-55121485D02*
X25595237Y-55311961D01*
X25595237Y-55311961D02*
X25690475Y-55407200D01*
X25690475Y-55407200D02*
X25785713Y-55454819D01*
X25785713Y-55454819D02*
X25976189Y-55454819D01*
X25976189Y-55454819D02*
X26071427Y-55407200D01*
X26071427Y-55407200D02*
X26166665Y-55311961D01*
X26166665Y-55311961D02*
X26214284Y-55121485D01*
X26214284Y-55121485D02*
X26214284Y-54788152D01*
X26214284Y-54788152D02*
X26166665Y-54597676D01*
X26166665Y-54597676D02*
X26071427Y-54502438D01*
X26071427Y-54502438D02*
X25976189Y-54454819D01*
X24404760Y-54550057D02*
X24357141Y-54502438D01*
X24357141Y-54502438D02*
X24261903Y-54454819D01*
X24261903Y-54454819D02*
X24023808Y-54454819D01*
X24023808Y-54454819D02*
X23928570Y-54502438D01*
X23928570Y-54502438D02*
X23880951Y-54550057D01*
X23880951Y-54550057D02*
X23833332Y-54645295D01*
X23833332Y-54645295D02*
X23833332Y-54740533D01*
X23833332Y-54740533D02*
X23880951Y-54883390D01*
X23880951Y-54883390D02*
X24452379Y-55454819D01*
X24452379Y-55454819D02*
X23833332Y-55454819D01*
X23404760Y-55359580D02*
X23357141Y-55407200D01*
X23357141Y-55407200D02*
X23404760Y-55454819D01*
X23404760Y-55454819D02*
X23452379Y-55407200D01*
X23452379Y-55407200D02*
X23404760Y-55359580D01*
X23404760Y-55359580D02*
X23404760Y-55454819D01*
X22738094Y-54454819D02*
X22642856Y-54454819D01*
X22642856Y-54454819D02*
X22547618Y-54502438D01*
X22547618Y-54502438D02*
X22499999Y-54550057D01*
X22499999Y-54550057D02*
X22452380Y-54645295D01*
X22452380Y-54645295D02*
X22404761Y-54835771D01*
X22404761Y-54835771D02*
X22404761Y-55073866D01*
X22404761Y-55073866D02*
X22452380Y-55264342D01*
X22452380Y-55264342D02*
X22499999Y-55359580D01*
X22499999Y-55359580D02*
X22547618Y-55407200D01*
X22547618Y-55407200D02*
X22642856Y-55454819D01*
X22642856Y-55454819D02*
X22738094Y-55454819D01*
X22738094Y-55454819D02*
X22833332Y-55407200D01*
X22833332Y-55407200D02*
X22880951Y-55359580D01*
X22880951Y-55359580D02*
X22928570Y-55264342D01*
X22928570Y-55264342D02*
X22976189Y-55073866D01*
X22976189Y-55073866D02*
X22976189Y-54835771D01*
X22976189Y-54835771D02*
X22928570Y-54645295D01*
X22928570Y-54645295D02*
X22880951Y-54550057D01*
X22880951Y-54550057D02*
X22833332Y-54502438D01*
X22833332Y-54502438D02*
X22738094Y-54454819D01*
X35452381Y-56540953D02*
X35309524Y-56588572D01*
X35309524Y-56588572D02*
X35261905Y-56636191D01*
X35261905Y-56636191D02*
X35214286Y-56731429D01*
X35214286Y-56731429D02*
X35214286Y-56874286D01*
X35214286Y-56874286D02*
X35261905Y-56969524D01*
X35261905Y-56969524D02*
X35309524Y-57017144D01*
X35309524Y-57017144D02*
X35404762Y-57064763D01*
X35404762Y-57064763D02*
X35785714Y-57064763D01*
X35785714Y-57064763D02*
X35785714Y-56064763D01*
X35785714Y-56064763D02*
X35452381Y-56064763D01*
X35452381Y-56064763D02*
X35357143Y-56112382D01*
X35357143Y-56112382D02*
X35309524Y-56160001D01*
X35309524Y-56160001D02*
X35261905Y-56255239D01*
X35261905Y-56255239D02*
X35261905Y-56350477D01*
X35261905Y-56350477D02*
X35309524Y-56445715D01*
X35309524Y-56445715D02*
X35357143Y-56493334D01*
X35357143Y-56493334D02*
X35452381Y-56540953D01*
X35452381Y-56540953D02*
X35785714Y-56540953D01*
X34642857Y-57064763D02*
X34738095Y-57017144D01*
X34738095Y-57017144D02*
X34785714Y-56921905D01*
X34785714Y-56921905D02*
X34785714Y-56064763D01*
X33880952Y-57017144D02*
X33976190Y-57064763D01*
X33976190Y-57064763D02*
X34166666Y-57064763D01*
X34166666Y-57064763D02*
X34261904Y-57017144D01*
X34261904Y-57017144D02*
X34309523Y-56921905D01*
X34309523Y-56921905D02*
X34309523Y-56540953D01*
X34309523Y-56540953D02*
X34261904Y-56445715D01*
X34261904Y-56445715D02*
X34166666Y-56398096D01*
X34166666Y-56398096D02*
X33976190Y-56398096D01*
X33976190Y-56398096D02*
X33880952Y-56445715D01*
X33880952Y-56445715D02*
X33833333Y-56540953D01*
X33833333Y-56540953D02*
X33833333Y-56636191D01*
X33833333Y-56636191D02*
X34309523Y-56731429D01*
X33023809Y-57017144D02*
X33119047Y-57064763D01*
X33119047Y-57064763D02*
X33309523Y-57064763D01*
X33309523Y-57064763D02*
X33404761Y-57017144D01*
X33404761Y-57017144D02*
X33452380Y-56921905D01*
X33452380Y-56921905D02*
X33452380Y-56540953D01*
X33452380Y-56540953D02*
X33404761Y-56445715D01*
X33404761Y-56445715D02*
X33309523Y-56398096D01*
X33309523Y-56398096D02*
X33119047Y-56398096D01*
X33119047Y-56398096D02*
X33023809Y-56445715D01*
X33023809Y-56445715D02*
X32976190Y-56540953D01*
X32976190Y-56540953D02*
X32976190Y-56636191D01*
X32976190Y-56636191D02*
X33452380Y-56731429D01*
X32547618Y-56398096D02*
X32547618Y-57398096D01*
X32547618Y-56445715D02*
X32452380Y-56398096D01*
X32452380Y-56398096D02*
X32261904Y-56398096D01*
X32261904Y-56398096D02*
X32166666Y-56445715D01*
X32166666Y-56445715D02*
X32119047Y-56493334D01*
X32119047Y-56493334D02*
X32071428Y-56588572D01*
X32071428Y-56588572D02*
X32071428Y-56874286D01*
X32071428Y-56874286D02*
X32119047Y-56969524D01*
X32119047Y-56969524D02*
X32166666Y-57017144D01*
X32166666Y-57017144D02*
X32261904Y-57064763D01*
X32261904Y-57064763D02*
X32452380Y-57064763D01*
X32452380Y-57064763D02*
X32547618Y-57017144D01*
X30928570Y-57017144D02*
X30785713Y-57064763D01*
X30785713Y-57064763D02*
X30547618Y-57064763D01*
X30547618Y-57064763D02*
X30452380Y-57017144D01*
X30452380Y-57017144D02*
X30404761Y-56969524D01*
X30404761Y-56969524D02*
X30357142Y-56874286D01*
X30357142Y-56874286D02*
X30357142Y-56779048D01*
X30357142Y-56779048D02*
X30404761Y-56683810D01*
X30404761Y-56683810D02*
X30452380Y-56636191D01*
X30452380Y-56636191D02*
X30547618Y-56588572D01*
X30547618Y-56588572D02*
X30738094Y-56540953D01*
X30738094Y-56540953D02*
X30833332Y-56493334D01*
X30833332Y-56493334D02*
X30880951Y-56445715D01*
X30880951Y-56445715D02*
X30928570Y-56350477D01*
X30928570Y-56350477D02*
X30928570Y-56255239D01*
X30928570Y-56255239D02*
X30880951Y-56160001D01*
X30880951Y-56160001D02*
X30833332Y-56112382D01*
X30833332Y-56112382D02*
X30738094Y-56064763D01*
X30738094Y-56064763D02*
X30499999Y-56064763D01*
X30499999Y-56064763D02*
X30357142Y-56112382D01*
X29785713Y-57064763D02*
X29880951Y-57017144D01*
X29880951Y-57017144D02*
X29928570Y-56969524D01*
X29928570Y-56969524D02*
X29976189Y-56874286D01*
X29976189Y-56874286D02*
X29976189Y-56588572D01*
X29976189Y-56588572D02*
X29928570Y-56493334D01*
X29928570Y-56493334D02*
X29880951Y-56445715D01*
X29880951Y-56445715D02*
X29785713Y-56398096D01*
X29785713Y-56398096D02*
X29642856Y-56398096D01*
X29642856Y-56398096D02*
X29547618Y-56445715D01*
X29547618Y-56445715D02*
X29499999Y-56493334D01*
X29499999Y-56493334D02*
X29452380Y-56588572D01*
X29452380Y-56588572D02*
X29452380Y-56874286D01*
X29452380Y-56874286D02*
X29499999Y-56969524D01*
X29499999Y-56969524D02*
X29547618Y-57017144D01*
X29547618Y-57017144D02*
X29642856Y-57064763D01*
X29642856Y-57064763D02*
X29785713Y-57064763D01*
X28595237Y-56398096D02*
X28595237Y-57064763D01*
X29023808Y-56398096D02*
X29023808Y-56921905D01*
X29023808Y-56921905D02*
X28976189Y-57017144D01*
X28976189Y-57017144D02*
X28880951Y-57064763D01*
X28880951Y-57064763D02*
X28738094Y-57064763D01*
X28738094Y-57064763D02*
X28642856Y-57017144D01*
X28642856Y-57017144D02*
X28595237Y-56969524D01*
X28119046Y-56398096D02*
X28119046Y-57064763D01*
X28119046Y-56493334D02*
X28071427Y-56445715D01*
X28071427Y-56445715D02*
X27976189Y-56398096D01*
X27976189Y-56398096D02*
X27833332Y-56398096D01*
X27833332Y-56398096D02*
X27738094Y-56445715D01*
X27738094Y-56445715D02*
X27690475Y-56540953D01*
X27690475Y-56540953D02*
X27690475Y-57064763D01*
X26785713Y-57064763D02*
X26785713Y-56064763D01*
X26785713Y-57017144D02*
X26880951Y-57064763D01*
X26880951Y-57064763D02*
X27071427Y-57064763D01*
X27071427Y-57064763D02*
X27166665Y-57017144D01*
X27166665Y-57017144D02*
X27214284Y-56969524D01*
X27214284Y-56969524D02*
X27261903Y-56874286D01*
X27261903Y-56874286D02*
X27261903Y-56588572D01*
X27261903Y-56588572D02*
X27214284Y-56493334D01*
X27214284Y-56493334D02*
X27166665Y-56445715D01*
X27166665Y-56445715D02*
X27071427Y-56398096D01*
X27071427Y-56398096D02*
X26880951Y-56398096D01*
X26880951Y-56398096D02*
X26785713Y-56445715D01*
X25595236Y-56160001D02*
X25547617Y-56112382D01*
X25547617Y-56112382D02*
X25452379Y-56064763D01*
X25452379Y-56064763D02*
X25214284Y-56064763D01*
X25214284Y-56064763D02*
X25119046Y-56112382D01*
X25119046Y-56112382D02*
X25071427Y-56160001D01*
X25071427Y-56160001D02*
X25023808Y-56255239D01*
X25023808Y-56255239D02*
X25023808Y-56350477D01*
X25023808Y-56350477D02*
X25071427Y-56493334D01*
X25071427Y-56493334D02*
X25642855Y-57064763D01*
X25642855Y-57064763D02*
X25023808Y-57064763D01*
X24404760Y-56064763D02*
X24309522Y-56064763D01*
X24309522Y-56064763D02*
X24214284Y-56112382D01*
X24214284Y-56112382D02*
X24166665Y-56160001D01*
X24166665Y-56160001D02*
X24119046Y-56255239D01*
X24119046Y-56255239D02*
X24071427Y-56445715D01*
X24071427Y-56445715D02*
X24071427Y-56683810D01*
X24071427Y-56683810D02*
X24119046Y-56874286D01*
X24119046Y-56874286D02*
X24166665Y-56969524D01*
X24166665Y-56969524D02*
X24214284Y-57017144D01*
X24214284Y-57017144D02*
X24309522Y-57064763D01*
X24309522Y-57064763D02*
X24404760Y-57064763D01*
X24404760Y-57064763D02*
X24499998Y-57017144D01*
X24499998Y-57017144D02*
X24547617Y-56969524D01*
X24547617Y-56969524D02*
X24595236Y-56874286D01*
X24595236Y-56874286D02*
X24642855Y-56683810D01*
X24642855Y-56683810D02*
X24642855Y-56445715D01*
X24642855Y-56445715D02*
X24595236Y-56255239D01*
X24595236Y-56255239D02*
X24547617Y-56160001D01*
X24547617Y-56160001D02*
X24499998Y-56112382D01*
X24499998Y-56112382D02*
X24404760Y-56064763D01*
X23690474Y-56160001D02*
X23642855Y-56112382D01*
X23642855Y-56112382D02*
X23547617Y-56064763D01*
X23547617Y-56064763D02*
X23309522Y-56064763D01*
X23309522Y-56064763D02*
X23214284Y-56112382D01*
X23214284Y-56112382D02*
X23166665Y-56160001D01*
X23166665Y-56160001D02*
X23119046Y-56255239D01*
X23119046Y-56255239D02*
X23119046Y-56350477D01*
X23119046Y-56350477D02*
X23166665Y-56493334D01*
X23166665Y-56493334D02*
X23738093Y-57064763D01*
X23738093Y-57064763D02*
X23119046Y-57064763D01*
X22214284Y-56064763D02*
X22690474Y-56064763D01*
X22690474Y-56064763D02*
X22738093Y-56540953D01*
X22738093Y-56540953D02*
X22690474Y-56493334D01*
X22690474Y-56493334D02*
X22595236Y-56445715D01*
X22595236Y-56445715D02*
X22357141Y-56445715D01*
X22357141Y-56445715D02*
X22261903Y-56493334D01*
X22261903Y-56493334D02*
X22214284Y-56540953D01*
X22214284Y-56540953D02*
X22166665Y-56636191D01*
X22166665Y-56636191D02*
X22166665Y-56874286D01*
X22166665Y-56874286D02*
X22214284Y-56969524D01*
X22214284Y-56969524D02*
X22261903Y-57017144D01*
X22261903Y-57017144D02*
X22357141Y-57064763D01*
X22357141Y-57064763D02*
X22595236Y-57064763D01*
X22595236Y-57064763D02*
X22690474Y-57017144D01*
X22690474Y-57017144D02*
X22738093Y-56969524D01*
X31152381Y-58631009D02*
X31009524Y-58678628D01*
X31009524Y-58678628D02*
X30961905Y-58726247D01*
X30961905Y-58726247D02*
X30914286Y-58821485D01*
X30914286Y-58821485D02*
X30914286Y-58964342D01*
X30914286Y-58964342D02*
X30961905Y-59059580D01*
X30961905Y-59059580D02*
X31009524Y-59107200D01*
X31009524Y-59107200D02*
X31104762Y-59154819D01*
X31104762Y-59154819D02*
X31485714Y-59154819D01*
X31485714Y-59154819D02*
X31485714Y-58154819D01*
X31485714Y-58154819D02*
X31152381Y-58154819D01*
X31152381Y-58154819D02*
X31057143Y-58202438D01*
X31057143Y-58202438D02*
X31009524Y-58250057D01*
X31009524Y-58250057D02*
X30961905Y-58345295D01*
X30961905Y-58345295D02*
X30961905Y-58440533D01*
X30961905Y-58440533D02*
X31009524Y-58535771D01*
X31009524Y-58535771D02*
X31057143Y-58583390D01*
X31057143Y-58583390D02*
X31152381Y-58631009D01*
X31152381Y-58631009D02*
X31485714Y-58631009D01*
X30342857Y-59154819D02*
X30438095Y-59107200D01*
X30438095Y-59107200D02*
X30485714Y-59059580D01*
X30485714Y-59059580D02*
X30533333Y-58964342D01*
X30533333Y-58964342D02*
X30533333Y-58678628D01*
X30533333Y-58678628D02*
X30485714Y-58583390D01*
X30485714Y-58583390D02*
X30438095Y-58535771D01*
X30438095Y-58535771D02*
X30342857Y-58488152D01*
X30342857Y-58488152D02*
X30200000Y-58488152D01*
X30200000Y-58488152D02*
X30104762Y-58535771D01*
X30104762Y-58535771D02*
X30057143Y-58583390D01*
X30057143Y-58583390D02*
X30009524Y-58678628D01*
X30009524Y-58678628D02*
X30009524Y-58964342D01*
X30009524Y-58964342D02*
X30057143Y-59059580D01*
X30057143Y-59059580D02*
X30104762Y-59107200D01*
X30104762Y-59107200D02*
X30200000Y-59154819D01*
X30200000Y-59154819D02*
X30342857Y-59154819D01*
X29152381Y-59154819D02*
X29152381Y-58631009D01*
X29152381Y-58631009D02*
X29200000Y-58535771D01*
X29200000Y-58535771D02*
X29295238Y-58488152D01*
X29295238Y-58488152D02*
X29485714Y-58488152D01*
X29485714Y-58488152D02*
X29580952Y-58535771D01*
X29152381Y-59107200D02*
X29247619Y-59154819D01*
X29247619Y-59154819D02*
X29485714Y-59154819D01*
X29485714Y-59154819D02*
X29580952Y-59107200D01*
X29580952Y-59107200D02*
X29628571Y-59011961D01*
X29628571Y-59011961D02*
X29628571Y-58916723D01*
X29628571Y-58916723D02*
X29580952Y-58821485D01*
X29580952Y-58821485D02*
X29485714Y-58773866D01*
X29485714Y-58773866D02*
X29247619Y-58773866D01*
X29247619Y-58773866D02*
X29152381Y-58726247D01*
X28676190Y-59154819D02*
X28676190Y-58488152D01*
X28676190Y-58678628D02*
X28628571Y-58583390D01*
X28628571Y-58583390D02*
X28580952Y-58535771D01*
X28580952Y-58535771D02*
X28485714Y-58488152D01*
X28485714Y-58488152D02*
X28390476Y-58488152D01*
X27628571Y-59154819D02*
X27628571Y-58154819D01*
X27628571Y-59107200D02*
X27723809Y-59154819D01*
X27723809Y-59154819D02*
X27914285Y-59154819D01*
X27914285Y-59154819D02*
X28009523Y-59107200D01*
X28009523Y-59107200D02*
X28057142Y-59059580D01*
X28057142Y-59059580D02*
X28104761Y-58964342D01*
X28104761Y-58964342D02*
X28104761Y-58678628D01*
X28104761Y-58678628D02*
X28057142Y-58583390D01*
X28057142Y-58583390D02*
X28009523Y-58535771D01*
X28009523Y-58535771D02*
X27914285Y-58488152D01*
X27914285Y-58488152D02*
X27723809Y-58488152D01*
X27723809Y-58488152D02*
X27628571Y-58535771D01*
X26485713Y-58154819D02*
X25866666Y-58154819D01*
X25866666Y-58154819D02*
X26199999Y-58535771D01*
X26199999Y-58535771D02*
X26057142Y-58535771D01*
X26057142Y-58535771D02*
X25961904Y-58583390D01*
X25961904Y-58583390D02*
X25914285Y-58631009D01*
X25914285Y-58631009D02*
X25866666Y-58726247D01*
X25866666Y-58726247D02*
X25866666Y-58964342D01*
X25866666Y-58964342D02*
X25914285Y-59059580D01*
X25914285Y-59059580D02*
X25961904Y-59107200D01*
X25961904Y-59107200D02*
X26057142Y-59154819D01*
X26057142Y-59154819D02*
X26342856Y-59154819D01*
X26342856Y-59154819D02*
X26438094Y-59107200D01*
X26438094Y-59107200D02*
X26485713Y-59059580D01*
X32703152Y-74265350D02*
X33369819Y-74265350D01*
X32322200Y-74027255D02*
X33036485Y-73789160D01*
X33036485Y-73789160D02*
X33036485Y-74408207D01*
X37665057Y-73889160D02*
X37617438Y-73936779D01*
X37617438Y-73936779D02*
X37569819Y-74032017D01*
X37569819Y-74032017D02*
X37569819Y-74270112D01*
X37569819Y-74270112D02*
X37617438Y-74365350D01*
X37617438Y-74365350D02*
X37665057Y-74412969D01*
X37665057Y-74412969D02*
X37760295Y-74460588D01*
X37760295Y-74460588D02*
X37855533Y-74460588D01*
X37855533Y-74460588D02*
X37998390Y-74412969D01*
X37998390Y-74412969D02*
X38569819Y-73841541D01*
X38569819Y-73841541D02*
X38569819Y-74460588D01*
X34969819Y-73841541D02*
X34969819Y-74460588D01*
X34969819Y-74460588D02*
X35350771Y-74127255D01*
X35350771Y-74127255D02*
X35350771Y-74270112D01*
X35350771Y-74270112D02*
X35398390Y-74365350D01*
X35398390Y-74365350D02*
X35446009Y-74412969D01*
X35446009Y-74412969D02*
X35541247Y-74460588D01*
X35541247Y-74460588D02*
X35779342Y-74460588D01*
X35779342Y-74460588D02*
X35874580Y-74412969D01*
X35874580Y-74412969D02*
X35922200Y-74365350D01*
X35922200Y-74365350D02*
X35969819Y-74270112D01*
X35969819Y-74270112D02*
X35969819Y-73984398D01*
X35969819Y-73984398D02*
X35922200Y-73889160D01*
X35922200Y-73889160D02*
X35874580Y-73841541D01*
X30479523Y-71704819D02*
X30479523Y-72419104D01*
X30479523Y-72419104D02*
X30527142Y-72561961D01*
X30527142Y-72561961D02*
X30622380Y-72657200D01*
X30622380Y-72657200D02*
X30765237Y-72704819D01*
X30765237Y-72704819D02*
X30860475Y-72704819D01*
X29479523Y-72704819D02*
X30050951Y-72704819D01*
X29765237Y-72704819D02*
X29765237Y-71704819D01*
X29765237Y-71704819D02*
X29860475Y-71847676D01*
X29860475Y-71847676D02*
X29955713Y-71942914D01*
X29955713Y-71942914D02*
X30050951Y-71990533D01*
X29098570Y-71800057D02*
X29050951Y-71752438D01*
X29050951Y-71752438D02*
X28955713Y-71704819D01*
X28955713Y-71704819D02*
X28717618Y-71704819D01*
X28717618Y-71704819D02*
X28622380Y-71752438D01*
X28622380Y-71752438D02*
X28574761Y-71800057D01*
X28574761Y-71800057D02*
X28527142Y-71895295D01*
X28527142Y-71895295D02*
X28527142Y-71990533D01*
X28527142Y-71990533D02*
X28574761Y-72133390D01*
X28574761Y-72133390D02*
X29146189Y-72704819D01*
X29146189Y-72704819D02*
X28527142Y-72704819D01*
D11*
X31550000Y-73580000D02*
X31550000Y-70920000D01*
X39230000Y-70920000D02*
X31550000Y-70920000D01*
X39230000Y-73580000D02*
X31550000Y-73580000D01*
X39230000Y-73580000D02*
X39230000Y-70920000D01*
X41830000Y-70920000D02*
X40500000Y-70920000D01*
X41830000Y-72250000D02*
X41830000Y-70920000D01*
%LPC*%
D12*
X16420000Y-68250000D03*
D13*
X26580000Y-68250000D03*
D12*
X41580000Y-65000000D03*
D13*
X31420000Y-65000000D03*
D12*
X31420000Y-68250000D03*
D13*
X41580000Y-68250000D03*
D12*
X26580000Y-71500000D03*
D13*
X16420000Y-71500000D03*
D14*
X18278224Y-47127109D03*
X21151115Y-42151115D03*
X26127109Y-39278224D03*
X31872891Y-39278224D03*
X36848885Y-42151115D03*
X39721776Y-47127109D03*
X39721776Y-52872891D03*
X36848885Y-57848885D03*
X31872891Y-60721776D03*
X26127109Y-60721776D03*
X21151115Y-57848885D03*
X18278224Y-52872891D03*
X26277639Y-47277639D03*
X31722361Y-47277639D03*
X31722361Y-52722361D03*
X26277639Y-52722361D03*
D12*
X16420000Y-65000000D03*
D13*
X26580000Y-65000000D03*
D15*
X40500000Y-72250000D03*
D16*
X37960000Y-72250000D03*
X35420000Y-72250000D03*
X32880000Y-72250000D03*
%LPD*%
M02*
