%TF.GenerationSoftware,KiCad,Pcbnew,7.0.7-7.0.7~ubuntu22.04.1*%
%TF.CreationDate,2023-12-10T22:01:07+01:00*%
%TF.ProjectId,CD40106_VCO,43443430-3130-4365-9f56-434f2e6b6963,rev?*%
%TF.SameCoordinates,Original*%
%TF.FileFunction,Drillmap*%
%TF.FilePolarity,Positive*%
%FSLAX45Y45*%
G04 Gerber Fmt 4.5, Leading zero omitted, Abs format (unit mm)*
G04 Created by KiCad (PCBNEW 7.0.7-7.0.7~ubuntu22.04.1) date 2023-12-10 22:01:07*
%MOMM*%
%LPD*%
G01*
G04 APERTURE LIST*
%ADD10C,0.050000*%
%ADD11C,0.200000*%
%ADD12C,0.080000*%
%ADD13C,0.100000*%
%ADD14C,0.150000*%
G04 APERTURE END LIST*
D10*
X13150000Y-11260000D02*
X10350000Y-11260000D01*
X13150000Y-8810000D02*
G75*
G03*
X10350000Y-8810000I-1400000J0D01*
G01*
X10350000Y-11260000D02*
X10350000Y-8810000D01*
X13150000Y-11260000D02*
X13150000Y-8810000D01*
D11*
D12*
X10452000Y-10220000D02*
X10532000Y-10300000D01*
X10532000Y-10220000D02*
X10452000Y-10300000D01*
X10452000Y-10545000D02*
X10532000Y-10625000D01*
X10532000Y-10545000D02*
X10452000Y-10625000D01*
X10452000Y-10870000D02*
X10532000Y-10950000D01*
X10532000Y-10870000D02*
X10452000Y-10950000D01*
X11468000Y-10220000D02*
X11548000Y-10300000D01*
X11548000Y-10220000D02*
X11468000Y-10300000D01*
X11468000Y-10545000D02*
X11548000Y-10625000D01*
X11548000Y-10545000D02*
X11468000Y-10625000D01*
X11468000Y-10870000D02*
X11548000Y-10950000D01*
X11548000Y-10870000D02*
X11468000Y-10950000D01*
X11952000Y-10220000D02*
X12032000Y-10300000D01*
X12032000Y-10220000D02*
X11952000Y-10300000D01*
X11952000Y-10545000D02*
X12032000Y-10625000D01*
X12032000Y-10545000D02*
X11952000Y-10625000D01*
X12968000Y-10220000D02*
X13048000Y-10300000D01*
X13048000Y-10220000D02*
X12968000Y-10300000D01*
X12968000Y-10545000D02*
X13048000Y-10625000D01*
X13048000Y-10545000D02*
X12968000Y-10625000D01*
D13*
X12188000Y-10985000D02*
G75*
G03*
X12188000Y-10985000I-50000J0D01*
G01*
X12442000Y-10985000D02*
G75*
G03*
X12442000Y-10985000I-50000J0D01*
G01*
X12696000Y-10985000D02*
G75*
G03*
X12696000Y-10985000I-50000J0D01*
G01*
X12950000Y-10985000D02*
G75*
G03*
X12950000Y-10985000I-50000J0D01*
G01*
D14*
X10677822Y-8397711D02*
X10677822Y-8547711D01*
X10602822Y-8472711D02*
X10752822Y-8472711D01*
X10677822Y-8972289D02*
X10677822Y-9122289D01*
X10602822Y-9047289D02*
X10752822Y-9047289D01*
X10965112Y-7900111D02*
X10965112Y-8050111D01*
X10890112Y-7975111D02*
X11040112Y-7975111D01*
X10965112Y-9469889D02*
X10965112Y-9619889D01*
X10890112Y-9544889D02*
X11040112Y-9544889D01*
X11462711Y-7612822D02*
X11462711Y-7762822D01*
X11387711Y-7687822D02*
X11537711Y-7687822D01*
X11462711Y-9757178D02*
X11462711Y-9907178D01*
X11387711Y-9832178D02*
X11537711Y-9832178D01*
X11477764Y-8412764D02*
X11477764Y-8562764D01*
X11402764Y-8487764D02*
X11552764Y-8487764D01*
X11477764Y-8957236D02*
X11477764Y-9107236D01*
X11402764Y-9032236D02*
X11552764Y-9032236D01*
X12022236Y-8412764D02*
X12022236Y-8562764D01*
X11947236Y-8487764D02*
X12097236Y-8487764D01*
X12022236Y-8957236D02*
X12022236Y-9107236D01*
X11947236Y-9032236D02*
X12097236Y-9032236D01*
X12037289Y-7612822D02*
X12037289Y-7762822D01*
X11962289Y-7687822D02*
X12112289Y-7687822D01*
X12037289Y-9757178D02*
X12037289Y-9907178D01*
X11962289Y-9832178D02*
X12112289Y-9832178D01*
X12534888Y-7900111D02*
X12534888Y-8050111D01*
X12459888Y-7975111D02*
X12609888Y-7975111D01*
X12534888Y-9469889D02*
X12534888Y-9619889D01*
X12459888Y-9544889D02*
X12609888Y-9544889D01*
X12822178Y-8397711D02*
X12822178Y-8547711D01*
X12747178Y-8472711D02*
X12897178Y-8472711D01*
X12822178Y-8972289D02*
X12822178Y-9122289D01*
X12747178Y-9047289D02*
X12897178Y-9047289D01*
D11*
X10608277Y-11573984D02*
X10608277Y-11373984D01*
X10608277Y-11373984D02*
X10655896Y-11373984D01*
X10655896Y-11373984D02*
X10684467Y-11383508D01*
X10684467Y-11383508D02*
X10703515Y-11402555D01*
X10703515Y-11402555D02*
X10713039Y-11421603D01*
X10713039Y-11421603D02*
X10722563Y-11459698D01*
X10722563Y-11459698D02*
X10722563Y-11488269D01*
X10722563Y-11488269D02*
X10713039Y-11526365D01*
X10713039Y-11526365D02*
X10703515Y-11545412D01*
X10703515Y-11545412D02*
X10684467Y-11564460D01*
X10684467Y-11564460D02*
X10655896Y-11573984D01*
X10655896Y-11573984D02*
X10608277Y-11573984D01*
X10808277Y-11573984D02*
X10808277Y-11440650D01*
X10808277Y-11478746D02*
X10817801Y-11459698D01*
X10817801Y-11459698D02*
X10827324Y-11450174D01*
X10827324Y-11450174D02*
X10846372Y-11440650D01*
X10846372Y-11440650D02*
X10865420Y-11440650D01*
X10932086Y-11573984D02*
X10932086Y-11440650D01*
X10932086Y-11373984D02*
X10922563Y-11383508D01*
X10922563Y-11383508D02*
X10932086Y-11393031D01*
X10932086Y-11393031D02*
X10941610Y-11383508D01*
X10941610Y-11383508D02*
X10932086Y-11373984D01*
X10932086Y-11373984D02*
X10932086Y-11393031D01*
X11055896Y-11573984D02*
X11036848Y-11564460D01*
X11036848Y-11564460D02*
X11027324Y-11545412D01*
X11027324Y-11545412D02*
X11027324Y-11373984D01*
X11160658Y-11573984D02*
X11141610Y-11564460D01*
X11141610Y-11564460D02*
X11132086Y-11545412D01*
X11132086Y-11545412D02*
X11132086Y-11373984D01*
X11389229Y-11573984D02*
X11389229Y-11373984D01*
X11389229Y-11373984D02*
X11455896Y-11516841D01*
X11455896Y-11516841D02*
X11522562Y-11373984D01*
X11522562Y-11373984D02*
X11522562Y-11573984D01*
X11703515Y-11573984D02*
X11703515Y-11469222D01*
X11703515Y-11469222D02*
X11693991Y-11450174D01*
X11693991Y-11450174D02*
X11674943Y-11440650D01*
X11674943Y-11440650D02*
X11636848Y-11440650D01*
X11636848Y-11440650D02*
X11617801Y-11450174D01*
X11703515Y-11564460D02*
X11684467Y-11573984D01*
X11684467Y-11573984D02*
X11636848Y-11573984D01*
X11636848Y-11573984D02*
X11617801Y-11564460D01*
X11617801Y-11564460D02*
X11608277Y-11545412D01*
X11608277Y-11545412D02*
X11608277Y-11526365D01*
X11608277Y-11526365D02*
X11617801Y-11507317D01*
X11617801Y-11507317D02*
X11636848Y-11497793D01*
X11636848Y-11497793D02*
X11684467Y-11497793D01*
X11684467Y-11497793D02*
X11703515Y-11488269D01*
X11798753Y-11440650D02*
X11798753Y-11640650D01*
X11798753Y-11450174D02*
X11817801Y-11440650D01*
X11817801Y-11440650D02*
X11855896Y-11440650D01*
X11855896Y-11440650D02*
X11874943Y-11450174D01*
X11874943Y-11450174D02*
X11884467Y-11459698D01*
X11884467Y-11459698D02*
X11893991Y-11478746D01*
X11893991Y-11478746D02*
X11893991Y-11535888D01*
X11893991Y-11535888D02*
X11884467Y-11554936D01*
X11884467Y-11554936D02*
X11874943Y-11564460D01*
X11874943Y-11564460D02*
X11855896Y-11573984D01*
X11855896Y-11573984D02*
X11817801Y-11573984D01*
X11817801Y-11573984D02*
X11798753Y-11564460D01*
X11979705Y-11554936D02*
X11989229Y-11564460D01*
X11989229Y-11564460D02*
X11979705Y-11573984D01*
X11979705Y-11573984D02*
X11970182Y-11564460D01*
X11970182Y-11564460D02*
X11979705Y-11554936D01*
X11979705Y-11554936D02*
X11979705Y-11573984D01*
X11979705Y-11450174D02*
X11989229Y-11459698D01*
X11989229Y-11459698D02*
X11979705Y-11469222D01*
X11979705Y-11469222D02*
X11970182Y-11459698D01*
X11970182Y-11459698D02*
X11979705Y-11450174D01*
X11979705Y-11450174D02*
X11979705Y-11469222D01*
D12*
X10267500Y-11862500D02*
X10347500Y-11942500D01*
X10347500Y-11862500D02*
X10267500Y-11942500D01*
D11*
X10646372Y-11793984D02*
X10665420Y-11793984D01*
X10665420Y-11793984D02*
X10684467Y-11803508D01*
X10684467Y-11803508D02*
X10693991Y-11813031D01*
X10693991Y-11813031D02*
X10703515Y-11832079D01*
X10703515Y-11832079D02*
X10713039Y-11870174D01*
X10713039Y-11870174D02*
X10713039Y-11917793D01*
X10713039Y-11917793D02*
X10703515Y-11955888D01*
X10703515Y-11955888D02*
X10693991Y-11974936D01*
X10693991Y-11974936D02*
X10684467Y-11984460D01*
X10684467Y-11984460D02*
X10665420Y-11993984D01*
X10665420Y-11993984D02*
X10646372Y-11993984D01*
X10646372Y-11993984D02*
X10627324Y-11984460D01*
X10627324Y-11984460D02*
X10617801Y-11974936D01*
X10617801Y-11974936D02*
X10608277Y-11955888D01*
X10608277Y-11955888D02*
X10598753Y-11917793D01*
X10598753Y-11917793D02*
X10598753Y-11870174D01*
X10598753Y-11870174D02*
X10608277Y-11832079D01*
X10608277Y-11832079D02*
X10617801Y-11813031D01*
X10617801Y-11813031D02*
X10627324Y-11803508D01*
X10627324Y-11803508D02*
X10646372Y-11793984D01*
X10798753Y-11974936D02*
X10808277Y-11984460D01*
X10808277Y-11984460D02*
X10798753Y-11993984D01*
X10798753Y-11993984D02*
X10789229Y-11984460D01*
X10789229Y-11984460D02*
X10798753Y-11974936D01*
X10798753Y-11974936D02*
X10798753Y-11993984D01*
X10922563Y-11879698D02*
X10903515Y-11870174D01*
X10903515Y-11870174D02*
X10893991Y-11860650D01*
X10893991Y-11860650D02*
X10884467Y-11841603D01*
X10884467Y-11841603D02*
X10884467Y-11832079D01*
X10884467Y-11832079D02*
X10893991Y-11813031D01*
X10893991Y-11813031D02*
X10903515Y-11803508D01*
X10903515Y-11803508D02*
X10922563Y-11793984D01*
X10922563Y-11793984D02*
X10960658Y-11793984D01*
X10960658Y-11793984D02*
X10979705Y-11803508D01*
X10979705Y-11803508D02*
X10989229Y-11813031D01*
X10989229Y-11813031D02*
X10998753Y-11832079D01*
X10998753Y-11832079D02*
X10998753Y-11841603D01*
X10998753Y-11841603D02*
X10989229Y-11860650D01*
X10989229Y-11860650D02*
X10979705Y-11870174D01*
X10979705Y-11870174D02*
X10960658Y-11879698D01*
X10960658Y-11879698D02*
X10922563Y-11879698D01*
X10922563Y-11879698D02*
X10903515Y-11889222D01*
X10903515Y-11889222D02*
X10893991Y-11898746D01*
X10893991Y-11898746D02*
X10884467Y-11917793D01*
X10884467Y-11917793D02*
X10884467Y-11955888D01*
X10884467Y-11955888D02*
X10893991Y-11974936D01*
X10893991Y-11974936D02*
X10903515Y-11984460D01*
X10903515Y-11984460D02*
X10922563Y-11993984D01*
X10922563Y-11993984D02*
X10960658Y-11993984D01*
X10960658Y-11993984D02*
X10979705Y-11984460D01*
X10979705Y-11984460D02*
X10989229Y-11974936D01*
X10989229Y-11974936D02*
X10998753Y-11955888D01*
X10998753Y-11955888D02*
X10998753Y-11917793D01*
X10998753Y-11917793D02*
X10989229Y-11898746D01*
X10989229Y-11898746D02*
X10979705Y-11889222D01*
X10979705Y-11889222D02*
X10960658Y-11879698D01*
X11122563Y-11793984D02*
X11141610Y-11793984D01*
X11141610Y-11793984D02*
X11160658Y-11803508D01*
X11160658Y-11803508D02*
X11170182Y-11813031D01*
X11170182Y-11813031D02*
X11179705Y-11832079D01*
X11179705Y-11832079D02*
X11189229Y-11870174D01*
X11189229Y-11870174D02*
X11189229Y-11917793D01*
X11189229Y-11917793D02*
X11179705Y-11955888D01*
X11179705Y-11955888D02*
X11170182Y-11974936D01*
X11170182Y-11974936D02*
X11160658Y-11984460D01*
X11160658Y-11984460D02*
X11141610Y-11993984D01*
X11141610Y-11993984D02*
X11122563Y-11993984D01*
X11122563Y-11993984D02*
X11103515Y-11984460D01*
X11103515Y-11984460D02*
X11093991Y-11974936D01*
X11093991Y-11974936D02*
X11084467Y-11955888D01*
X11084467Y-11955888D02*
X11074944Y-11917793D01*
X11074944Y-11917793D02*
X11074944Y-11870174D01*
X11074944Y-11870174D02*
X11084467Y-11832079D01*
X11084467Y-11832079D02*
X11093991Y-11813031D01*
X11093991Y-11813031D02*
X11103515Y-11803508D01*
X11103515Y-11803508D02*
X11122563Y-11793984D01*
X11313039Y-11793984D02*
X11332086Y-11793984D01*
X11332086Y-11793984D02*
X11351134Y-11803508D01*
X11351134Y-11803508D02*
X11360658Y-11813031D01*
X11360658Y-11813031D02*
X11370182Y-11832079D01*
X11370182Y-11832079D02*
X11379705Y-11870174D01*
X11379705Y-11870174D02*
X11379705Y-11917793D01*
X11379705Y-11917793D02*
X11370182Y-11955888D01*
X11370182Y-11955888D02*
X11360658Y-11974936D01*
X11360658Y-11974936D02*
X11351134Y-11984460D01*
X11351134Y-11984460D02*
X11332086Y-11993984D01*
X11332086Y-11993984D02*
X11313039Y-11993984D01*
X11313039Y-11993984D02*
X11293991Y-11984460D01*
X11293991Y-11984460D02*
X11284467Y-11974936D01*
X11284467Y-11974936D02*
X11274943Y-11955888D01*
X11274943Y-11955888D02*
X11265420Y-11917793D01*
X11265420Y-11917793D02*
X11265420Y-11870174D01*
X11265420Y-11870174D02*
X11274943Y-11832079D01*
X11274943Y-11832079D02*
X11284467Y-11813031D01*
X11284467Y-11813031D02*
X11293991Y-11803508D01*
X11293991Y-11803508D02*
X11313039Y-11793984D01*
X11465420Y-11993984D02*
X11465420Y-11860650D01*
X11465420Y-11879698D02*
X11474943Y-11870174D01*
X11474943Y-11870174D02*
X11493991Y-11860650D01*
X11493991Y-11860650D02*
X11522563Y-11860650D01*
X11522563Y-11860650D02*
X11541610Y-11870174D01*
X11541610Y-11870174D02*
X11551134Y-11889222D01*
X11551134Y-11889222D02*
X11551134Y-11993984D01*
X11551134Y-11889222D02*
X11560658Y-11870174D01*
X11560658Y-11870174D02*
X11579705Y-11860650D01*
X11579705Y-11860650D02*
X11608277Y-11860650D01*
X11608277Y-11860650D02*
X11627324Y-11870174D01*
X11627324Y-11870174D02*
X11636848Y-11889222D01*
X11636848Y-11889222D02*
X11636848Y-11993984D01*
X11732086Y-11993984D02*
X11732086Y-11860650D01*
X11732086Y-11879698D02*
X11741610Y-11870174D01*
X11741610Y-11870174D02*
X11760658Y-11860650D01*
X11760658Y-11860650D02*
X11789229Y-11860650D01*
X11789229Y-11860650D02*
X11808277Y-11870174D01*
X11808277Y-11870174D02*
X11817801Y-11889222D01*
X11817801Y-11889222D02*
X11817801Y-11993984D01*
X11817801Y-11889222D02*
X11827324Y-11870174D01*
X11827324Y-11870174D02*
X11846372Y-11860650D01*
X11846372Y-11860650D02*
X11874943Y-11860650D01*
X11874943Y-11860650D02*
X11893991Y-11870174D01*
X11893991Y-11870174D02*
X11903515Y-11889222D01*
X11903515Y-11889222D02*
X11903515Y-11993984D01*
X12293991Y-11784460D02*
X12122563Y-12041603D01*
X12551134Y-11793984D02*
X12570182Y-11793984D01*
X12570182Y-11793984D02*
X12589229Y-11803508D01*
X12589229Y-11803508D02*
X12598753Y-11813031D01*
X12598753Y-11813031D02*
X12608277Y-11832079D01*
X12608277Y-11832079D02*
X12617801Y-11870174D01*
X12617801Y-11870174D02*
X12617801Y-11917793D01*
X12617801Y-11917793D02*
X12608277Y-11955888D01*
X12608277Y-11955888D02*
X12598753Y-11974936D01*
X12598753Y-11974936D02*
X12589229Y-11984460D01*
X12589229Y-11984460D02*
X12570182Y-11993984D01*
X12570182Y-11993984D02*
X12551134Y-11993984D01*
X12551134Y-11993984D02*
X12532086Y-11984460D01*
X12532086Y-11984460D02*
X12522563Y-11974936D01*
X12522563Y-11974936D02*
X12513039Y-11955888D01*
X12513039Y-11955888D02*
X12503515Y-11917793D01*
X12503515Y-11917793D02*
X12503515Y-11870174D01*
X12503515Y-11870174D02*
X12513039Y-11832079D01*
X12513039Y-11832079D02*
X12522563Y-11813031D01*
X12522563Y-11813031D02*
X12532086Y-11803508D01*
X12532086Y-11803508D02*
X12551134Y-11793984D01*
X12703515Y-11974936D02*
X12713039Y-11984460D01*
X12713039Y-11984460D02*
X12703515Y-11993984D01*
X12703515Y-11993984D02*
X12693991Y-11984460D01*
X12693991Y-11984460D02*
X12703515Y-11974936D01*
X12703515Y-11974936D02*
X12703515Y-11993984D01*
X12836848Y-11793984D02*
X12855896Y-11793984D01*
X12855896Y-11793984D02*
X12874944Y-11803508D01*
X12874944Y-11803508D02*
X12884467Y-11813031D01*
X12884467Y-11813031D02*
X12893991Y-11832079D01*
X12893991Y-11832079D02*
X12903515Y-11870174D01*
X12903515Y-11870174D02*
X12903515Y-11917793D01*
X12903515Y-11917793D02*
X12893991Y-11955888D01*
X12893991Y-11955888D02*
X12884467Y-11974936D01*
X12884467Y-11974936D02*
X12874944Y-11984460D01*
X12874944Y-11984460D02*
X12855896Y-11993984D01*
X12855896Y-11993984D02*
X12836848Y-11993984D01*
X12836848Y-11993984D02*
X12817801Y-11984460D01*
X12817801Y-11984460D02*
X12808277Y-11974936D01*
X12808277Y-11974936D02*
X12798753Y-11955888D01*
X12798753Y-11955888D02*
X12789229Y-11917793D01*
X12789229Y-11917793D02*
X12789229Y-11870174D01*
X12789229Y-11870174D02*
X12798753Y-11832079D01*
X12798753Y-11832079D02*
X12808277Y-11813031D01*
X12808277Y-11813031D02*
X12817801Y-11803508D01*
X12817801Y-11803508D02*
X12836848Y-11793984D01*
X12970182Y-11793984D02*
X13093991Y-11793984D01*
X13093991Y-11793984D02*
X13027325Y-11870174D01*
X13027325Y-11870174D02*
X13055896Y-11870174D01*
X13055896Y-11870174D02*
X13074944Y-11879698D01*
X13074944Y-11879698D02*
X13084467Y-11889222D01*
X13084467Y-11889222D02*
X13093991Y-11908269D01*
X13093991Y-11908269D02*
X13093991Y-11955888D01*
X13093991Y-11955888D02*
X13084467Y-11974936D01*
X13084467Y-11974936D02*
X13074944Y-11984460D01*
X13074944Y-11984460D02*
X13055896Y-11993984D01*
X13055896Y-11993984D02*
X12998753Y-11993984D01*
X12998753Y-11993984D02*
X12979706Y-11984460D01*
X12979706Y-11984460D02*
X12970182Y-11974936D01*
X13284467Y-11993984D02*
X13170182Y-11993984D01*
X13227325Y-11993984D02*
X13227325Y-11793984D01*
X13227325Y-11793984D02*
X13208277Y-11822555D01*
X13208277Y-11822555D02*
X13189229Y-11841603D01*
X13189229Y-11841603D02*
X13170182Y-11851127D01*
X13465420Y-11793984D02*
X13370182Y-11793984D01*
X13370182Y-11793984D02*
X13360658Y-11889222D01*
X13360658Y-11889222D02*
X13370182Y-11879698D01*
X13370182Y-11879698D02*
X13389229Y-11870174D01*
X13389229Y-11870174D02*
X13436848Y-11870174D01*
X13436848Y-11870174D02*
X13455896Y-11879698D01*
X13455896Y-11879698D02*
X13465420Y-11889222D01*
X13465420Y-11889222D02*
X13474944Y-11908269D01*
X13474944Y-11908269D02*
X13474944Y-11955888D01*
X13474944Y-11955888D02*
X13465420Y-11974936D01*
X13465420Y-11974936D02*
X13455896Y-11984460D01*
X13455896Y-11984460D02*
X13436848Y-11993984D01*
X13436848Y-11993984D02*
X13389229Y-11993984D01*
X13389229Y-11993984D02*
X13370182Y-11984460D01*
X13370182Y-11984460D02*
X13360658Y-11974936D01*
X13551134Y-11793984D02*
X13551134Y-11832079D01*
X13627325Y-11793984D02*
X13627325Y-11832079D01*
X13922563Y-12070174D02*
X13913039Y-12060650D01*
X13913039Y-12060650D02*
X13893991Y-12032079D01*
X13893991Y-12032079D02*
X13884468Y-12013031D01*
X13884468Y-12013031D02*
X13874944Y-11984460D01*
X13874944Y-11984460D02*
X13865420Y-11936841D01*
X13865420Y-11936841D02*
X13865420Y-11898746D01*
X13865420Y-11898746D02*
X13874944Y-11851127D01*
X13874944Y-11851127D02*
X13884468Y-11822555D01*
X13884468Y-11822555D02*
X13893991Y-11803508D01*
X13893991Y-11803508D02*
X13913039Y-11774936D01*
X13913039Y-11774936D02*
X13922563Y-11765412D01*
X14103515Y-11993984D02*
X13989229Y-11993984D01*
X14046372Y-11993984D02*
X14046372Y-11793984D01*
X14046372Y-11793984D02*
X14027325Y-11822555D01*
X14027325Y-11822555D02*
X14008277Y-11841603D01*
X14008277Y-11841603D02*
X13989229Y-11851127D01*
X14227325Y-11793984D02*
X14246372Y-11793984D01*
X14246372Y-11793984D02*
X14265420Y-11803508D01*
X14265420Y-11803508D02*
X14274944Y-11813031D01*
X14274944Y-11813031D02*
X14284468Y-11832079D01*
X14284468Y-11832079D02*
X14293991Y-11870174D01*
X14293991Y-11870174D02*
X14293991Y-11917793D01*
X14293991Y-11917793D02*
X14284468Y-11955888D01*
X14284468Y-11955888D02*
X14274944Y-11974936D01*
X14274944Y-11974936D02*
X14265420Y-11984460D01*
X14265420Y-11984460D02*
X14246372Y-11993984D01*
X14246372Y-11993984D02*
X14227325Y-11993984D01*
X14227325Y-11993984D02*
X14208277Y-11984460D01*
X14208277Y-11984460D02*
X14198753Y-11974936D01*
X14198753Y-11974936D02*
X14189229Y-11955888D01*
X14189229Y-11955888D02*
X14179706Y-11917793D01*
X14179706Y-11917793D02*
X14179706Y-11870174D01*
X14179706Y-11870174D02*
X14189229Y-11832079D01*
X14189229Y-11832079D02*
X14198753Y-11813031D01*
X14198753Y-11813031D02*
X14208277Y-11803508D01*
X14208277Y-11803508D02*
X14227325Y-11793984D01*
X14532087Y-11993984D02*
X14532087Y-11793984D01*
X14617801Y-11993984D02*
X14617801Y-11889222D01*
X14617801Y-11889222D02*
X14608277Y-11870174D01*
X14608277Y-11870174D02*
X14589230Y-11860650D01*
X14589230Y-11860650D02*
X14560658Y-11860650D01*
X14560658Y-11860650D02*
X14541610Y-11870174D01*
X14541610Y-11870174D02*
X14532087Y-11879698D01*
X14741610Y-11993984D02*
X14722563Y-11984460D01*
X14722563Y-11984460D02*
X14713039Y-11974936D01*
X14713039Y-11974936D02*
X14703515Y-11955888D01*
X14703515Y-11955888D02*
X14703515Y-11898746D01*
X14703515Y-11898746D02*
X14713039Y-11879698D01*
X14713039Y-11879698D02*
X14722563Y-11870174D01*
X14722563Y-11870174D02*
X14741610Y-11860650D01*
X14741610Y-11860650D02*
X14770182Y-11860650D01*
X14770182Y-11860650D02*
X14789230Y-11870174D01*
X14789230Y-11870174D02*
X14798753Y-11879698D01*
X14798753Y-11879698D02*
X14808277Y-11898746D01*
X14808277Y-11898746D02*
X14808277Y-11955888D01*
X14808277Y-11955888D02*
X14798753Y-11974936D01*
X14798753Y-11974936D02*
X14789230Y-11984460D01*
X14789230Y-11984460D02*
X14770182Y-11993984D01*
X14770182Y-11993984D02*
X14741610Y-11993984D01*
X14922563Y-11993984D02*
X14903515Y-11984460D01*
X14903515Y-11984460D02*
X14893991Y-11965412D01*
X14893991Y-11965412D02*
X14893991Y-11793984D01*
X15074944Y-11984460D02*
X15055896Y-11993984D01*
X15055896Y-11993984D02*
X15017801Y-11993984D01*
X15017801Y-11993984D02*
X14998753Y-11984460D01*
X14998753Y-11984460D02*
X14989230Y-11965412D01*
X14989230Y-11965412D02*
X14989230Y-11889222D01*
X14989230Y-11889222D02*
X14998753Y-11870174D01*
X14998753Y-11870174D02*
X15017801Y-11860650D01*
X15017801Y-11860650D02*
X15055896Y-11860650D01*
X15055896Y-11860650D02*
X15074944Y-11870174D01*
X15074944Y-11870174D02*
X15084468Y-11889222D01*
X15084468Y-11889222D02*
X15084468Y-11908269D01*
X15084468Y-11908269D02*
X14989230Y-11927317D01*
X15160658Y-11984460D02*
X15179706Y-11993984D01*
X15179706Y-11993984D02*
X15217801Y-11993984D01*
X15217801Y-11993984D02*
X15236849Y-11984460D01*
X15236849Y-11984460D02*
X15246372Y-11965412D01*
X15246372Y-11965412D02*
X15246372Y-11955888D01*
X15246372Y-11955888D02*
X15236849Y-11936841D01*
X15236849Y-11936841D02*
X15217801Y-11927317D01*
X15217801Y-11927317D02*
X15189230Y-11927317D01*
X15189230Y-11927317D02*
X15170182Y-11917793D01*
X15170182Y-11917793D02*
X15160658Y-11898746D01*
X15160658Y-11898746D02*
X15160658Y-11889222D01*
X15160658Y-11889222D02*
X15170182Y-11870174D01*
X15170182Y-11870174D02*
X15189230Y-11860650D01*
X15189230Y-11860650D02*
X15217801Y-11860650D01*
X15217801Y-11860650D02*
X15236849Y-11870174D01*
X15313039Y-12070174D02*
X15322563Y-12060650D01*
X15322563Y-12060650D02*
X15341611Y-12032079D01*
X15341611Y-12032079D02*
X15351134Y-12013031D01*
X15351134Y-12013031D02*
X15360658Y-11984460D01*
X15360658Y-11984460D02*
X15370182Y-11936841D01*
X15370182Y-11936841D02*
X15370182Y-11898746D01*
X15370182Y-11898746D02*
X15360658Y-11851127D01*
X15360658Y-11851127D02*
X15351134Y-11822555D01*
X15351134Y-11822555D02*
X15341611Y-11803508D01*
X15341611Y-11803508D02*
X15322563Y-11774936D01*
X15322563Y-11774936D02*
X15313039Y-11765412D01*
D13*
X10347500Y-12166500D02*
G75*
G03*
X10347500Y-12166500I-50000J0D01*
G01*
D11*
X10713039Y-12257984D02*
X10598753Y-12257984D01*
X10655896Y-12257984D02*
X10655896Y-12057984D01*
X10655896Y-12057984D02*
X10636848Y-12086555D01*
X10636848Y-12086555D02*
X10617801Y-12105603D01*
X10617801Y-12105603D02*
X10598753Y-12115127D01*
X10798753Y-12238936D02*
X10808277Y-12248460D01*
X10808277Y-12248460D02*
X10798753Y-12257984D01*
X10798753Y-12257984D02*
X10789229Y-12248460D01*
X10789229Y-12248460D02*
X10798753Y-12238936D01*
X10798753Y-12238936D02*
X10798753Y-12257984D01*
X10932086Y-12057984D02*
X10951134Y-12057984D01*
X10951134Y-12057984D02*
X10970182Y-12067508D01*
X10970182Y-12067508D02*
X10979705Y-12077031D01*
X10979705Y-12077031D02*
X10989229Y-12096079D01*
X10989229Y-12096079D02*
X10998753Y-12134174D01*
X10998753Y-12134174D02*
X10998753Y-12181793D01*
X10998753Y-12181793D02*
X10989229Y-12219888D01*
X10989229Y-12219888D02*
X10979705Y-12238936D01*
X10979705Y-12238936D02*
X10970182Y-12248460D01*
X10970182Y-12248460D02*
X10951134Y-12257984D01*
X10951134Y-12257984D02*
X10932086Y-12257984D01*
X10932086Y-12257984D02*
X10913039Y-12248460D01*
X10913039Y-12248460D02*
X10903515Y-12238936D01*
X10903515Y-12238936D02*
X10893991Y-12219888D01*
X10893991Y-12219888D02*
X10884467Y-12181793D01*
X10884467Y-12181793D02*
X10884467Y-12134174D01*
X10884467Y-12134174D02*
X10893991Y-12096079D01*
X10893991Y-12096079D02*
X10903515Y-12077031D01*
X10903515Y-12077031D02*
X10913039Y-12067508D01*
X10913039Y-12067508D02*
X10932086Y-12057984D01*
X11122563Y-12057984D02*
X11141610Y-12057984D01*
X11141610Y-12057984D02*
X11160658Y-12067508D01*
X11160658Y-12067508D02*
X11170182Y-12077031D01*
X11170182Y-12077031D02*
X11179705Y-12096079D01*
X11179705Y-12096079D02*
X11189229Y-12134174D01*
X11189229Y-12134174D02*
X11189229Y-12181793D01*
X11189229Y-12181793D02*
X11179705Y-12219888D01*
X11179705Y-12219888D02*
X11170182Y-12238936D01*
X11170182Y-12238936D02*
X11160658Y-12248460D01*
X11160658Y-12248460D02*
X11141610Y-12257984D01*
X11141610Y-12257984D02*
X11122563Y-12257984D01*
X11122563Y-12257984D02*
X11103515Y-12248460D01*
X11103515Y-12248460D02*
X11093991Y-12238936D01*
X11093991Y-12238936D02*
X11084467Y-12219888D01*
X11084467Y-12219888D02*
X11074944Y-12181793D01*
X11074944Y-12181793D02*
X11074944Y-12134174D01*
X11074944Y-12134174D02*
X11084467Y-12096079D01*
X11084467Y-12096079D02*
X11093991Y-12077031D01*
X11093991Y-12077031D02*
X11103515Y-12067508D01*
X11103515Y-12067508D02*
X11122563Y-12057984D01*
X11313039Y-12057984D02*
X11332086Y-12057984D01*
X11332086Y-12057984D02*
X11351134Y-12067508D01*
X11351134Y-12067508D02*
X11360658Y-12077031D01*
X11360658Y-12077031D02*
X11370182Y-12096079D01*
X11370182Y-12096079D02*
X11379705Y-12134174D01*
X11379705Y-12134174D02*
X11379705Y-12181793D01*
X11379705Y-12181793D02*
X11370182Y-12219888D01*
X11370182Y-12219888D02*
X11360658Y-12238936D01*
X11360658Y-12238936D02*
X11351134Y-12248460D01*
X11351134Y-12248460D02*
X11332086Y-12257984D01*
X11332086Y-12257984D02*
X11313039Y-12257984D01*
X11313039Y-12257984D02*
X11293991Y-12248460D01*
X11293991Y-12248460D02*
X11284467Y-12238936D01*
X11284467Y-12238936D02*
X11274943Y-12219888D01*
X11274943Y-12219888D02*
X11265420Y-12181793D01*
X11265420Y-12181793D02*
X11265420Y-12134174D01*
X11265420Y-12134174D02*
X11274943Y-12096079D01*
X11274943Y-12096079D02*
X11284467Y-12077031D01*
X11284467Y-12077031D02*
X11293991Y-12067508D01*
X11293991Y-12067508D02*
X11313039Y-12057984D01*
X11465420Y-12257984D02*
X11465420Y-12124650D01*
X11465420Y-12143698D02*
X11474943Y-12134174D01*
X11474943Y-12134174D02*
X11493991Y-12124650D01*
X11493991Y-12124650D02*
X11522563Y-12124650D01*
X11522563Y-12124650D02*
X11541610Y-12134174D01*
X11541610Y-12134174D02*
X11551134Y-12153222D01*
X11551134Y-12153222D02*
X11551134Y-12257984D01*
X11551134Y-12153222D02*
X11560658Y-12134174D01*
X11560658Y-12134174D02*
X11579705Y-12124650D01*
X11579705Y-12124650D02*
X11608277Y-12124650D01*
X11608277Y-12124650D02*
X11627324Y-12134174D01*
X11627324Y-12134174D02*
X11636848Y-12153222D01*
X11636848Y-12153222D02*
X11636848Y-12257984D01*
X11732086Y-12257984D02*
X11732086Y-12124650D01*
X11732086Y-12143698D02*
X11741610Y-12134174D01*
X11741610Y-12134174D02*
X11760658Y-12124650D01*
X11760658Y-12124650D02*
X11789229Y-12124650D01*
X11789229Y-12124650D02*
X11808277Y-12134174D01*
X11808277Y-12134174D02*
X11817801Y-12153222D01*
X11817801Y-12153222D02*
X11817801Y-12257984D01*
X11817801Y-12153222D02*
X11827324Y-12134174D01*
X11827324Y-12134174D02*
X11846372Y-12124650D01*
X11846372Y-12124650D02*
X11874943Y-12124650D01*
X11874943Y-12124650D02*
X11893991Y-12134174D01*
X11893991Y-12134174D02*
X11903515Y-12153222D01*
X11903515Y-12153222D02*
X11903515Y-12257984D01*
X12293991Y-12048460D02*
X12122563Y-12305603D01*
X12551134Y-12057984D02*
X12570182Y-12057984D01*
X12570182Y-12057984D02*
X12589229Y-12067508D01*
X12589229Y-12067508D02*
X12598753Y-12077031D01*
X12598753Y-12077031D02*
X12608277Y-12096079D01*
X12608277Y-12096079D02*
X12617801Y-12134174D01*
X12617801Y-12134174D02*
X12617801Y-12181793D01*
X12617801Y-12181793D02*
X12608277Y-12219888D01*
X12608277Y-12219888D02*
X12598753Y-12238936D01*
X12598753Y-12238936D02*
X12589229Y-12248460D01*
X12589229Y-12248460D02*
X12570182Y-12257984D01*
X12570182Y-12257984D02*
X12551134Y-12257984D01*
X12551134Y-12257984D02*
X12532086Y-12248460D01*
X12532086Y-12248460D02*
X12522563Y-12238936D01*
X12522563Y-12238936D02*
X12513039Y-12219888D01*
X12513039Y-12219888D02*
X12503515Y-12181793D01*
X12503515Y-12181793D02*
X12503515Y-12134174D01*
X12503515Y-12134174D02*
X12513039Y-12096079D01*
X12513039Y-12096079D02*
X12522563Y-12077031D01*
X12522563Y-12077031D02*
X12532086Y-12067508D01*
X12532086Y-12067508D02*
X12551134Y-12057984D01*
X12703515Y-12238936D02*
X12713039Y-12248460D01*
X12713039Y-12248460D02*
X12703515Y-12257984D01*
X12703515Y-12257984D02*
X12693991Y-12248460D01*
X12693991Y-12248460D02*
X12703515Y-12238936D01*
X12703515Y-12238936D02*
X12703515Y-12257984D01*
X12836848Y-12057984D02*
X12855896Y-12057984D01*
X12855896Y-12057984D02*
X12874944Y-12067508D01*
X12874944Y-12067508D02*
X12884467Y-12077031D01*
X12884467Y-12077031D02*
X12893991Y-12096079D01*
X12893991Y-12096079D02*
X12903515Y-12134174D01*
X12903515Y-12134174D02*
X12903515Y-12181793D01*
X12903515Y-12181793D02*
X12893991Y-12219888D01*
X12893991Y-12219888D02*
X12884467Y-12238936D01*
X12884467Y-12238936D02*
X12874944Y-12248460D01*
X12874944Y-12248460D02*
X12855896Y-12257984D01*
X12855896Y-12257984D02*
X12836848Y-12257984D01*
X12836848Y-12257984D02*
X12817801Y-12248460D01*
X12817801Y-12248460D02*
X12808277Y-12238936D01*
X12808277Y-12238936D02*
X12798753Y-12219888D01*
X12798753Y-12219888D02*
X12789229Y-12181793D01*
X12789229Y-12181793D02*
X12789229Y-12134174D01*
X12789229Y-12134174D02*
X12798753Y-12096079D01*
X12798753Y-12096079D02*
X12808277Y-12077031D01*
X12808277Y-12077031D02*
X12817801Y-12067508D01*
X12817801Y-12067508D02*
X12836848Y-12057984D01*
X12970182Y-12057984D02*
X13093991Y-12057984D01*
X13093991Y-12057984D02*
X13027325Y-12134174D01*
X13027325Y-12134174D02*
X13055896Y-12134174D01*
X13055896Y-12134174D02*
X13074944Y-12143698D01*
X13074944Y-12143698D02*
X13084467Y-12153222D01*
X13084467Y-12153222D02*
X13093991Y-12172269D01*
X13093991Y-12172269D02*
X13093991Y-12219888D01*
X13093991Y-12219888D02*
X13084467Y-12238936D01*
X13084467Y-12238936D02*
X13074944Y-12248460D01*
X13074944Y-12248460D02*
X13055896Y-12257984D01*
X13055896Y-12257984D02*
X12998753Y-12257984D01*
X12998753Y-12257984D02*
X12979706Y-12248460D01*
X12979706Y-12248460D02*
X12970182Y-12238936D01*
X13189229Y-12257984D02*
X13227325Y-12257984D01*
X13227325Y-12257984D02*
X13246372Y-12248460D01*
X13246372Y-12248460D02*
X13255896Y-12238936D01*
X13255896Y-12238936D02*
X13274944Y-12210365D01*
X13274944Y-12210365D02*
X13284467Y-12172269D01*
X13284467Y-12172269D02*
X13284467Y-12096079D01*
X13284467Y-12096079D02*
X13274944Y-12077031D01*
X13274944Y-12077031D02*
X13265420Y-12067508D01*
X13265420Y-12067508D02*
X13246372Y-12057984D01*
X13246372Y-12057984D02*
X13208277Y-12057984D01*
X13208277Y-12057984D02*
X13189229Y-12067508D01*
X13189229Y-12067508D02*
X13179706Y-12077031D01*
X13179706Y-12077031D02*
X13170182Y-12096079D01*
X13170182Y-12096079D02*
X13170182Y-12143698D01*
X13170182Y-12143698D02*
X13179706Y-12162746D01*
X13179706Y-12162746D02*
X13189229Y-12172269D01*
X13189229Y-12172269D02*
X13208277Y-12181793D01*
X13208277Y-12181793D02*
X13246372Y-12181793D01*
X13246372Y-12181793D02*
X13265420Y-12172269D01*
X13265420Y-12172269D02*
X13274944Y-12162746D01*
X13274944Y-12162746D02*
X13284467Y-12143698D01*
X13455896Y-12124650D02*
X13455896Y-12257984D01*
X13408277Y-12048460D02*
X13360658Y-12191317D01*
X13360658Y-12191317D02*
X13484467Y-12191317D01*
X13551134Y-12057984D02*
X13551134Y-12096079D01*
X13627325Y-12057984D02*
X13627325Y-12096079D01*
X13922563Y-12334174D02*
X13913039Y-12324650D01*
X13913039Y-12324650D02*
X13893991Y-12296079D01*
X13893991Y-12296079D02*
X13884468Y-12277031D01*
X13884468Y-12277031D02*
X13874944Y-12248460D01*
X13874944Y-12248460D02*
X13865420Y-12200841D01*
X13865420Y-12200841D02*
X13865420Y-12162746D01*
X13865420Y-12162746D02*
X13874944Y-12115127D01*
X13874944Y-12115127D02*
X13884468Y-12086555D01*
X13884468Y-12086555D02*
X13893991Y-12067508D01*
X13893991Y-12067508D02*
X13913039Y-12038936D01*
X13913039Y-12038936D02*
X13922563Y-12029412D01*
X14084468Y-12124650D02*
X14084468Y-12257984D01*
X14036848Y-12048460D02*
X13989229Y-12191317D01*
X13989229Y-12191317D02*
X14113039Y-12191317D01*
X14341610Y-12257984D02*
X14341610Y-12057984D01*
X14427325Y-12257984D02*
X14427325Y-12153222D01*
X14427325Y-12153222D02*
X14417801Y-12134174D01*
X14417801Y-12134174D02*
X14398753Y-12124650D01*
X14398753Y-12124650D02*
X14370182Y-12124650D01*
X14370182Y-12124650D02*
X14351134Y-12134174D01*
X14351134Y-12134174D02*
X14341610Y-12143698D01*
X14551134Y-12257984D02*
X14532087Y-12248460D01*
X14532087Y-12248460D02*
X14522563Y-12238936D01*
X14522563Y-12238936D02*
X14513039Y-12219888D01*
X14513039Y-12219888D02*
X14513039Y-12162746D01*
X14513039Y-12162746D02*
X14522563Y-12143698D01*
X14522563Y-12143698D02*
X14532087Y-12134174D01*
X14532087Y-12134174D02*
X14551134Y-12124650D01*
X14551134Y-12124650D02*
X14579706Y-12124650D01*
X14579706Y-12124650D02*
X14598753Y-12134174D01*
X14598753Y-12134174D02*
X14608277Y-12143698D01*
X14608277Y-12143698D02*
X14617801Y-12162746D01*
X14617801Y-12162746D02*
X14617801Y-12219888D01*
X14617801Y-12219888D02*
X14608277Y-12238936D01*
X14608277Y-12238936D02*
X14598753Y-12248460D01*
X14598753Y-12248460D02*
X14579706Y-12257984D01*
X14579706Y-12257984D02*
X14551134Y-12257984D01*
X14732087Y-12257984D02*
X14713039Y-12248460D01*
X14713039Y-12248460D02*
X14703515Y-12229412D01*
X14703515Y-12229412D02*
X14703515Y-12057984D01*
X14884468Y-12248460D02*
X14865420Y-12257984D01*
X14865420Y-12257984D02*
X14827325Y-12257984D01*
X14827325Y-12257984D02*
X14808277Y-12248460D01*
X14808277Y-12248460D02*
X14798753Y-12229412D01*
X14798753Y-12229412D02*
X14798753Y-12153222D01*
X14798753Y-12153222D02*
X14808277Y-12134174D01*
X14808277Y-12134174D02*
X14827325Y-12124650D01*
X14827325Y-12124650D02*
X14865420Y-12124650D01*
X14865420Y-12124650D02*
X14884468Y-12134174D01*
X14884468Y-12134174D02*
X14893991Y-12153222D01*
X14893991Y-12153222D02*
X14893991Y-12172269D01*
X14893991Y-12172269D02*
X14798753Y-12191317D01*
X14970182Y-12248460D02*
X14989230Y-12257984D01*
X14989230Y-12257984D02*
X15027325Y-12257984D01*
X15027325Y-12257984D02*
X15046372Y-12248460D01*
X15046372Y-12248460D02*
X15055896Y-12229412D01*
X15055896Y-12229412D02*
X15055896Y-12219888D01*
X15055896Y-12219888D02*
X15046372Y-12200841D01*
X15046372Y-12200841D02*
X15027325Y-12191317D01*
X15027325Y-12191317D02*
X14998753Y-12191317D01*
X14998753Y-12191317D02*
X14979706Y-12181793D01*
X14979706Y-12181793D02*
X14970182Y-12162746D01*
X14970182Y-12162746D02*
X14970182Y-12153222D01*
X14970182Y-12153222D02*
X14979706Y-12134174D01*
X14979706Y-12134174D02*
X14998753Y-12124650D01*
X14998753Y-12124650D02*
X15027325Y-12124650D01*
X15027325Y-12124650D02*
X15046372Y-12134174D01*
X15122563Y-12334174D02*
X15132087Y-12324650D01*
X15132087Y-12324650D02*
X15151134Y-12296079D01*
X15151134Y-12296079D02*
X15160658Y-12277031D01*
X15160658Y-12277031D02*
X15170182Y-12248460D01*
X15170182Y-12248460D02*
X15179706Y-12200841D01*
X15179706Y-12200841D02*
X15179706Y-12162746D01*
X15179706Y-12162746D02*
X15170182Y-12115127D01*
X15170182Y-12115127D02*
X15160658Y-12086555D01*
X15160658Y-12086555D02*
X15151134Y-12067508D01*
X15151134Y-12067508D02*
X15132087Y-12038936D01*
X15132087Y-12038936D02*
X15122563Y-12029412D01*
D14*
X10272500Y-12355500D02*
X10272500Y-12505500D01*
X10197500Y-12430500D02*
X10347500Y-12430500D01*
D11*
X10713039Y-12521984D02*
X10598753Y-12521984D01*
X10655896Y-12521984D02*
X10655896Y-12321984D01*
X10655896Y-12321984D02*
X10636848Y-12350555D01*
X10636848Y-12350555D02*
X10617801Y-12369603D01*
X10617801Y-12369603D02*
X10598753Y-12379127D01*
X10798753Y-12502936D02*
X10808277Y-12512460D01*
X10808277Y-12512460D02*
X10798753Y-12521984D01*
X10798753Y-12521984D02*
X10789229Y-12512460D01*
X10789229Y-12512460D02*
X10798753Y-12502936D01*
X10798753Y-12502936D02*
X10798753Y-12521984D01*
X10989229Y-12321984D02*
X10893991Y-12321984D01*
X10893991Y-12321984D02*
X10884467Y-12417222D01*
X10884467Y-12417222D02*
X10893991Y-12407698D01*
X10893991Y-12407698D02*
X10913039Y-12398174D01*
X10913039Y-12398174D02*
X10960658Y-12398174D01*
X10960658Y-12398174D02*
X10979705Y-12407698D01*
X10979705Y-12407698D02*
X10989229Y-12417222D01*
X10989229Y-12417222D02*
X10998753Y-12436269D01*
X10998753Y-12436269D02*
X10998753Y-12483888D01*
X10998753Y-12483888D02*
X10989229Y-12502936D01*
X10989229Y-12502936D02*
X10979705Y-12512460D01*
X10979705Y-12512460D02*
X10960658Y-12521984D01*
X10960658Y-12521984D02*
X10913039Y-12521984D01*
X10913039Y-12521984D02*
X10893991Y-12512460D01*
X10893991Y-12512460D02*
X10884467Y-12502936D01*
X11122563Y-12321984D02*
X11141610Y-12321984D01*
X11141610Y-12321984D02*
X11160658Y-12331508D01*
X11160658Y-12331508D02*
X11170182Y-12341031D01*
X11170182Y-12341031D02*
X11179705Y-12360079D01*
X11179705Y-12360079D02*
X11189229Y-12398174D01*
X11189229Y-12398174D02*
X11189229Y-12445793D01*
X11189229Y-12445793D02*
X11179705Y-12483888D01*
X11179705Y-12483888D02*
X11170182Y-12502936D01*
X11170182Y-12502936D02*
X11160658Y-12512460D01*
X11160658Y-12512460D02*
X11141610Y-12521984D01*
X11141610Y-12521984D02*
X11122563Y-12521984D01*
X11122563Y-12521984D02*
X11103515Y-12512460D01*
X11103515Y-12512460D02*
X11093991Y-12502936D01*
X11093991Y-12502936D02*
X11084467Y-12483888D01*
X11084467Y-12483888D02*
X11074944Y-12445793D01*
X11074944Y-12445793D02*
X11074944Y-12398174D01*
X11074944Y-12398174D02*
X11084467Y-12360079D01*
X11084467Y-12360079D02*
X11093991Y-12341031D01*
X11093991Y-12341031D02*
X11103515Y-12331508D01*
X11103515Y-12331508D02*
X11122563Y-12321984D01*
X11313039Y-12321984D02*
X11332086Y-12321984D01*
X11332086Y-12321984D02*
X11351134Y-12331508D01*
X11351134Y-12331508D02*
X11360658Y-12341031D01*
X11360658Y-12341031D02*
X11370182Y-12360079D01*
X11370182Y-12360079D02*
X11379705Y-12398174D01*
X11379705Y-12398174D02*
X11379705Y-12445793D01*
X11379705Y-12445793D02*
X11370182Y-12483888D01*
X11370182Y-12483888D02*
X11360658Y-12502936D01*
X11360658Y-12502936D02*
X11351134Y-12512460D01*
X11351134Y-12512460D02*
X11332086Y-12521984D01*
X11332086Y-12521984D02*
X11313039Y-12521984D01*
X11313039Y-12521984D02*
X11293991Y-12512460D01*
X11293991Y-12512460D02*
X11284467Y-12502936D01*
X11284467Y-12502936D02*
X11274943Y-12483888D01*
X11274943Y-12483888D02*
X11265420Y-12445793D01*
X11265420Y-12445793D02*
X11265420Y-12398174D01*
X11265420Y-12398174D02*
X11274943Y-12360079D01*
X11274943Y-12360079D02*
X11284467Y-12341031D01*
X11284467Y-12341031D02*
X11293991Y-12331508D01*
X11293991Y-12331508D02*
X11313039Y-12321984D01*
X11465420Y-12521984D02*
X11465420Y-12388650D01*
X11465420Y-12407698D02*
X11474943Y-12398174D01*
X11474943Y-12398174D02*
X11493991Y-12388650D01*
X11493991Y-12388650D02*
X11522563Y-12388650D01*
X11522563Y-12388650D02*
X11541610Y-12398174D01*
X11541610Y-12398174D02*
X11551134Y-12417222D01*
X11551134Y-12417222D02*
X11551134Y-12521984D01*
X11551134Y-12417222D02*
X11560658Y-12398174D01*
X11560658Y-12398174D02*
X11579705Y-12388650D01*
X11579705Y-12388650D02*
X11608277Y-12388650D01*
X11608277Y-12388650D02*
X11627324Y-12398174D01*
X11627324Y-12398174D02*
X11636848Y-12417222D01*
X11636848Y-12417222D02*
X11636848Y-12521984D01*
X11732086Y-12521984D02*
X11732086Y-12388650D01*
X11732086Y-12407698D02*
X11741610Y-12398174D01*
X11741610Y-12398174D02*
X11760658Y-12388650D01*
X11760658Y-12388650D02*
X11789229Y-12388650D01*
X11789229Y-12388650D02*
X11808277Y-12398174D01*
X11808277Y-12398174D02*
X11817801Y-12417222D01*
X11817801Y-12417222D02*
X11817801Y-12521984D01*
X11817801Y-12417222D02*
X11827324Y-12398174D01*
X11827324Y-12398174D02*
X11846372Y-12388650D01*
X11846372Y-12388650D02*
X11874943Y-12388650D01*
X11874943Y-12388650D02*
X11893991Y-12398174D01*
X11893991Y-12398174D02*
X11903515Y-12417222D01*
X11903515Y-12417222D02*
X11903515Y-12521984D01*
X12293991Y-12312460D02*
X12122563Y-12569603D01*
X12551134Y-12321984D02*
X12570182Y-12321984D01*
X12570182Y-12321984D02*
X12589229Y-12331508D01*
X12589229Y-12331508D02*
X12598753Y-12341031D01*
X12598753Y-12341031D02*
X12608277Y-12360079D01*
X12608277Y-12360079D02*
X12617801Y-12398174D01*
X12617801Y-12398174D02*
X12617801Y-12445793D01*
X12617801Y-12445793D02*
X12608277Y-12483888D01*
X12608277Y-12483888D02*
X12598753Y-12502936D01*
X12598753Y-12502936D02*
X12589229Y-12512460D01*
X12589229Y-12512460D02*
X12570182Y-12521984D01*
X12570182Y-12521984D02*
X12551134Y-12521984D01*
X12551134Y-12521984D02*
X12532086Y-12512460D01*
X12532086Y-12512460D02*
X12522563Y-12502936D01*
X12522563Y-12502936D02*
X12513039Y-12483888D01*
X12513039Y-12483888D02*
X12503515Y-12445793D01*
X12503515Y-12445793D02*
X12503515Y-12398174D01*
X12503515Y-12398174D02*
X12513039Y-12360079D01*
X12513039Y-12360079D02*
X12522563Y-12341031D01*
X12522563Y-12341031D02*
X12532086Y-12331508D01*
X12532086Y-12331508D02*
X12551134Y-12321984D01*
X12703515Y-12502936D02*
X12713039Y-12512460D01*
X12713039Y-12512460D02*
X12703515Y-12521984D01*
X12703515Y-12521984D02*
X12693991Y-12512460D01*
X12693991Y-12512460D02*
X12703515Y-12502936D01*
X12703515Y-12502936D02*
X12703515Y-12521984D01*
X12836848Y-12321984D02*
X12855896Y-12321984D01*
X12855896Y-12321984D02*
X12874944Y-12331508D01*
X12874944Y-12331508D02*
X12884467Y-12341031D01*
X12884467Y-12341031D02*
X12893991Y-12360079D01*
X12893991Y-12360079D02*
X12903515Y-12398174D01*
X12903515Y-12398174D02*
X12903515Y-12445793D01*
X12903515Y-12445793D02*
X12893991Y-12483888D01*
X12893991Y-12483888D02*
X12884467Y-12502936D01*
X12884467Y-12502936D02*
X12874944Y-12512460D01*
X12874944Y-12512460D02*
X12855896Y-12521984D01*
X12855896Y-12521984D02*
X12836848Y-12521984D01*
X12836848Y-12521984D02*
X12817801Y-12512460D01*
X12817801Y-12512460D02*
X12808277Y-12502936D01*
X12808277Y-12502936D02*
X12798753Y-12483888D01*
X12798753Y-12483888D02*
X12789229Y-12445793D01*
X12789229Y-12445793D02*
X12789229Y-12398174D01*
X12789229Y-12398174D02*
X12798753Y-12360079D01*
X12798753Y-12360079D02*
X12808277Y-12341031D01*
X12808277Y-12341031D02*
X12817801Y-12331508D01*
X12817801Y-12331508D02*
X12836848Y-12321984D01*
X13084467Y-12321984D02*
X12989229Y-12321984D01*
X12989229Y-12321984D02*
X12979706Y-12417222D01*
X12979706Y-12417222D02*
X12989229Y-12407698D01*
X12989229Y-12407698D02*
X13008277Y-12398174D01*
X13008277Y-12398174D02*
X13055896Y-12398174D01*
X13055896Y-12398174D02*
X13074944Y-12407698D01*
X13074944Y-12407698D02*
X13084467Y-12417222D01*
X13084467Y-12417222D02*
X13093991Y-12436269D01*
X13093991Y-12436269D02*
X13093991Y-12483888D01*
X13093991Y-12483888D02*
X13084467Y-12502936D01*
X13084467Y-12502936D02*
X13074944Y-12512460D01*
X13074944Y-12512460D02*
X13055896Y-12521984D01*
X13055896Y-12521984D02*
X13008277Y-12521984D01*
X13008277Y-12521984D02*
X12989229Y-12512460D01*
X12989229Y-12512460D02*
X12979706Y-12502936D01*
X13189229Y-12521984D02*
X13227325Y-12521984D01*
X13227325Y-12521984D02*
X13246372Y-12512460D01*
X13246372Y-12512460D02*
X13255896Y-12502936D01*
X13255896Y-12502936D02*
X13274944Y-12474365D01*
X13274944Y-12474365D02*
X13284467Y-12436269D01*
X13284467Y-12436269D02*
X13284467Y-12360079D01*
X13284467Y-12360079D02*
X13274944Y-12341031D01*
X13274944Y-12341031D02*
X13265420Y-12331508D01*
X13265420Y-12331508D02*
X13246372Y-12321984D01*
X13246372Y-12321984D02*
X13208277Y-12321984D01*
X13208277Y-12321984D02*
X13189229Y-12331508D01*
X13189229Y-12331508D02*
X13179706Y-12341031D01*
X13179706Y-12341031D02*
X13170182Y-12360079D01*
X13170182Y-12360079D02*
X13170182Y-12407698D01*
X13170182Y-12407698D02*
X13179706Y-12426746D01*
X13179706Y-12426746D02*
X13189229Y-12436269D01*
X13189229Y-12436269D02*
X13208277Y-12445793D01*
X13208277Y-12445793D02*
X13246372Y-12445793D01*
X13246372Y-12445793D02*
X13265420Y-12436269D01*
X13265420Y-12436269D02*
X13274944Y-12426746D01*
X13274944Y-12426746D02*
X13284467Y-12407698D01*
X13474944Y-12521984D02*
X13360658Y-12521984D01*
X13417801Y-12521984D02*
X13417801Y-12321984D01*
X13417801Y-12321984D02*
X13398753Y-12350555D01*
X13398753Y-12350555D02*
X13379706Y-12369603D01*
X13379706Y-12369603D02*
X13360658Y-12379127D01*
X13551134Y-12321984D02*
X13551134Y-12360079D01*
X13627325Y-12321984D02*
X13627325Y-12360079D01*
X13922563Y-12598174D02*
X13913039Y-12588650D01*
X13913039Y-12588650D02*
X13893991Y-12560079D01*
X13893991Y-12560079D02*
X13884468Y-12541031D01*
X13884468Y-12541031D02*
X13874944Y-12512460D01*
X13874944Y-12512460D02*
X13865420Y-12464841D01*
X13865420Y-12464841D02*
X13865420Y-12426746D01*
X13865420Y-12426746D02*
X13874944Y-12379127D01*
X13874944Y-12379127D02*
X13884468Y-12350555D01*
X13884468Y-12350555D02*
X13893991Y-12331508D01*
X13893991Y-12331508D02*
X13913039Y-12302936D01*
X13913039Y-12302936D02*
X13922563Y-12293412D01*
X14103515Y-12521984D02*
X13989229Y-12521984D01*
X14046372Y-12521984D02*
X14046372Y-12321984D01*
X14046372Y-12321984D02*
X14027325Y-12350555D01*
X14027325Y-12350555D02*
X14008277Y-12369603D01*
X14008277Y-12369603D02*
X13989229Y-12379127D01*
X14274944Y-12321984D02*
X14236848Y-12321984D01*
X14236848Y-12321984D02*
X14217801Y-12331508D01*
X14217801Y-12331508D02*
X14208277Y-12341031D01*
X14208277Y-12341031D02*
X14189229Y-12369603D01*
X14189229Y-12369603D02*
X14179706Y-12407698D01*
X14179706Y-12407698D02*
X14179706Y-12483888D01*
X14179706Y-12483888D02*
X14189229Y-12502936D01*
X14189229Y-12502936D02*
X14198753Y-12512460D01*
X14198753Y-12512460D02*
X14217801Y-12521984D01*
X14217801Y-12521984D02*
X14255896Y-12521984D01*
X14255896Y-12521984D02*
X14274944Y-12512460D01*
X14274944Y-12512460D02*
X14284468Y-12502936D01*
X14284468Y-12502936D02*
X14293991Y-12483888D01*
X14293991Y-12483888D02*
X14293991Y-12436269D01*
X14293991Y-12436269D02*
X14284468Y-12417222D01*
X14284468Y-12417222D02*
X14274944Y-12407698D01*
X14274944Y-12407698D02*
X14255896Y-12398174D01*
X14255896Y-12398174D02*
X14217801Y-12398174D01*
X14217801Y-12398174D02*
X14198753Y-12407698D01*
X14198753Y-12407698D02*
X14189229Y-12417222D01*
X14189229Y-12417222D02*
X14179706Y-12436269D01*
X14532087Y-12521984D02*
X14532087Y-12321984D01*
X14617801Y-12521984D02*
X14617801Y-12417222D01*
X14617801Y-12417222D02*
X14608277Y-12398174D01*
X14608277Y-12398174D02*
X14589230Y-12388650D01*
X14589230Y-12388650D02*
X14560658Y-12388650D01*
X14560658Y-12388650D02*
X14541610Y-12398174D01*
X14541610Y-12398174D02*
X14532087Y-12407698D01*
X14741610Y-12521984D02*
X14722563Y-12512460D01*
X14722563Y-12512460D02*
X14713039Y-12502936D01*
X14713039Y-12502936D02*
X14703515Y-12483888D01*
X14703515Y-12483888D02*
X14703515Y-12426746D01*
X14703515Y-12426746D02*
X14713039Y-12407698D01*
X14713039Y-12407698D02*
X14722563Y-12398174D01*
X14722563Y-12398174D02*
X14741610Y-12388650D01*
X14741610Y-12388650D02*
X14770182Y-12388650D01*
X14770182Y-12388650D02*
X14789230Y-12398174D01*
X14789230Y-12398174D02*
X14798753Y-12407698D01*
X14798753Y-12407698D02*
X14808277Y-12426746D01*
X14808277Y-12426746D02*
X14808277Y-12483888D01*
X14808277Y-12483888D02*
X14798753Y-12502936D01*
X14798753Y-12502936D02*
X14789230Y-12512460D01*
X14789230Y-12512460D02*
X14770182Y-12521984D01*
X14770182Y-12521984D02*
X14741610Y-12521984D01*
X14922563Y-12521984D02*
X14903515Y-12512460D01*
X14903515Y-12512460D02*
X14893991Y-12493412D01*
X14893991Y-12493412D02*
X14893991Y-12321984D01*
X15074944Y-12512460D02*
X15055896Y-12521984D01*
X15055896Y-12521984D02*
X15017801Y-12521984D01*
X15017801Y-12521984D02*
X14998753Y-12512460D01*
X14998753Y-12512460D02*
X14989230Y-12493412D01*
X14989230Y-12493412D02*
X14989230Y-12417222D01*
X14989230Y-12417222D02*
X14998753Y-12398174D01*
X14998753Y-12398174D02*
X15017801Y-12388650D01*
X15017801Y-12388650D02*
X15055896Y-12388650D01*
X15055896Y-12388650D02*
X15074944Y-12398174D01*
X15074944Y-12398174D02*
X15084468Y-12417222D01*
X15084468Y-12417222D02*
X15084468Y-12436269D01*
X15084468Y-12436269D02*
X14989230Y-12455317D01*
X15160658Y-12512460D02*
X15179706Y-12521984D01*
X15179706Y-12521984D02*
X15217801Y-12521984D01*
X15217801Y-12521984D02*
X15236849Y-12512460D01*
X15236849Y-12512460D02*
X15246372Y-12493412D01*
X15246372Y-12493412D02*
X15246372Y-12483888D01*
X15246372Y-12483888D02*
X15236849Y-12464841D01*
X15236849Y-12464841D02*
X15217801Y-12455317D01*
X15217801Y-12455317D02*
X15189230Y-12455317D01*
X15189230Y-12455317D02*
X15170182Y-12445793D01*
X15170182Y-12445793D02*
X15160658Y-12426746D01*
X15160658Y-12426746D02*
X15160658Y-12417222D01*
X15160658Y-12417222D02*
X15170182Y-12398174D01*
X15170182Y-12398174D02*
X15189230Y-12388650D01*
X15189230Y-12388650D02*
X15217801Y-12388650D01*
X15217801Y-12388650D02*
X15236849Y-12398174D01*
X15313039Y-12598174D02*
X15322563Y-12588650D01*
X15322563Y-12588650D02*
X15341611Y-12560079D01*
X15341611Y-12560079D02*
X15351134Y-12541031D01*
X15351134Y-12541031D02*
X15360658Y-12512460D01*
X15360658Y-12512460D02*
X15370182Y-12464841D01*
X15370182Y-12464841D02*
X15370182Y-12426746D01*
X15370182Y-12426746D02*
X15360658Y-12379127D01*
X15360658Y-12379127D02*
X15351134Y-12350555D01*
X15351134Y-12350555D02*
X15341611Y-12331508D01*
X15341611Y-12331508D02*
X15322563Y-12302936D01*
X15322563Y-12302936D02*
X15313039Y-12293412D01*
M02*
