G04 #@! TF.GenerationSoftware,KiCad,Pcbnew,9.0.4-9.0.4-0~ubuntu22.04.1*
G04 #@! TF.CreationDate,2025-10-19T11:47:47+01:00*
G04 #@! TF.ProjectId,CD40106_VCO,43443430-3130-4365-9f56-434f2e6b6963,rev?*
G04 #@! TF.SameCoordinates,Original*
G04 #@! TF.FileFunction,Copper,L2,Bot*
G04 #@! TF.FilePolarity,Positive*
%FSLAX46Y46*%
G04 Gerber Fmt 4.6, Leading zero omitted, Abs format (unit mm)*
G04 Created by KiCad (PCBNEW 9.0.4-9.0.4-0~ubuntu22.04.1) date 2025-10-19 11:47:47*
%MOMM*%
%LPD*%
G01*
G04 APERTURE LIST*
G04 #@! TA.AperFunction,ComponentPad*
%ADD10C,1.600000*%
G04 #@! TD*
G04 #@! TA.AperFunction,ComponentPad*
%ADD11O,1.600000X1.600000*%
G04 #@! TD*
G04 #@! TA.AperFunction,ComponentPad*
%ADD12O,2.500000X2.500000*%
G04 #@! TD*
G04 #@! TA.AperFunction,ComponentPad*
%ADD13R,1.700000X1.700000*%
G04 #@! TD*
G04 #@! TA.AperFunction,ComponentPad*
%ADD14O,1.700000X1.700000*%
G04 #@! TD*
G04 #@! TA.AperFunction,Conductor*
%ADD15C,0.300000*%
G04 #@! TD*
G04 APERTURE END LIST*
D10*
X16420000Y-68250000D03*
D11*
X26580000Y-68250000D03*
D10*
X41580000Y-65000000D03*
D11*
X31420000Y-65000000D03*
D10*
X31420000Y-68250000D03*
D11*
X41580000Y-68250000D03*
D10*
X26580000Y-71500000D03*
D11*
X16420000Y-71500000D03*
D12*
X18278224Y-47127109D03*
X21151115Y-42151115D03*
X26127109Y-39278224D03*
X31872891Y-39278224D03*
X36848885Y-42151115D03*
X39721776Y-47127109D03*
X39721776Y-52872891D03*
X36848885Y-57848885D03*
X31872891Y-60721776D03*
X26127109Y-60721776D03*
X21151115Y-57848885D03*
X18278224Y-52872891D03*
X26277639Y-47277639D03*
X31722361Y-47277639D03*
X31722361Y-52722361D03*
X26277639Y-52722361D03*
D10*
X16420000Y-65000000D03*
D11*
X26580000Y-65000000D03*
D13*
X40500000Y-72250000D03*
D14*
X37960000Y-72250000D03*
X35420000Y-72250000D03*
X32880000Y-72250000D03*
D15*
X26580000Y-68250000D02*
X19670000Y-68250000D01*
X19670000Y-68250000D02*
X16420000Y-65000000D01*
X31420000Y-66131370D02*
X26580000Y-70971370D01*
X31420000Y-65000000D02*
X31420000Y-66131370D01*
X26580000Y-70971370D02*
X26580000Y-71500000D01*
X39850000Y-63750000D02*
X39850000Y-71600000D01*
X26277639Y-50177639D02*
X39850000Y-63750000D01*
X39850000Y-71600000D02*
X40500000Y-72250000D01*
X26277639Y-47277639D02*
X26277639Y-50177639D01*
G04 #@! TA.AperFunction,Conductor*
G36*
X29362665Y-37005460D02*
G01*
X29440448Y-37009605D01*
X30073781Y-37043360D01*
X30080322Y-37043883D01*
X30788469Y-37119583D01*
X30794988Y-37120457D01*
X31498052Y-37233731D01*
X31504519Y-37234951D01*
X32200595Y-37385490D01*
X32206947Y-37387042D01*
X32894015Y-37574413D01*
X32900328Y-37576316D01*
X33576420Y-37799979D01*
X33582614Y-37802213D01*
X34245872Y-38061552D01*
X34251929Y-38064109D01*
X34768161Y-38298355D01*
X34900415Y-38358368D01*
X34906352Y-38361255D01*
X35538272Y-38689618D01*
X35544047Y-38692817D01*
X36157571Y-39054332D01*
X36163168Y-39057834D01*
X36756598Y-39451501D01*
X36761982Y-39455283D01*
X37333634Y-39879985D01*
X37338815Y-39884054D01*
X37887021Y-40338554D01*
X37891982Y-40342894D01*
X38415253Y-40825954D01*
X38419978Y-40830555D01*
X38628531Y-41044736D01*
X38916782Y-41340765D01*
X38921260Y-41345616D01*
X39390202Y-41881541D01*
X39394415Y-41886623D01*
X39834168Y-42446743D01*
X39838094Y-42452027D01*
X40247430Y-43034786D01*
X40251079Y-43040287D01*
X40628794Y-43643961D01*
X40632146Y-43649649D01*
X40977208Y-44272593D01*
X40980252Y-44278451D01*
X41291670Y-44918872D01*
X41294398Y-44924884D01*
X41571288Y-45580970D01*
X41573692Y-45587118D01*
X41815276Y-46257024D01*
X41817349Y-46263292D01*
X42022931Y-46945088D01*
X42024668Y-46951458D01*
X42193670Y-47643221D01*
X42195066Y-47649673D01*
X42327017Y-48349479D01*
X42328067Y-48355997D01*
X42422584Y-49061813D01*
X42423286Y-49068378D01*
X42480104Y-49778241D01*
X42480455Y-49784833D01*
X42499456Y-50498347D01*
X42499500Y-50501648D01*
X42499500Y-64205216D01*
X42479815Y-64272255D01*
X42427011Y-64318010D01*
X42357853Y-64327954D01*
X42294297Y-64298929D01*
X42287819Y-64292897D01*
X42217785Y-64222863D01*
X42217781Y-64222860D01*
X42053920Y-64113371D01*
X42053907Y-64113364D01*
X41871839Y-64037950D01*
X41871829Y-64037947D01*
X41678543Y-63999500D01*
X41678541Y-63999500D01*
X41481459Y-63999500D01*
X41481457Y-63999500D01*
X41288170Y-64037947D01*
X41288160Y-64037950D01*
X41106092Y-64113364D01*
X41106079Y-64113371D01*
X40942218Y-64222860D01*
X40942214Y-64222863D01*
X40802863Y-64362214D01*
X40802860Y-64362218D01*
X40693371Y-64526079D01*
X40693364Y-64526092D01*
X40617950Y-64708160D01*
X40617947Y-64708170D01*
X40579500Y-64901456D01*
X40579500Y-64901459D01*
X40579500Y-65098541D01*
X40579500Y-65098543D01*
X40579499Y-65098543D01*
X40617947Y-65291829D01*
X40617950Y-65291839D01*
X40693364Y-65473907D01*
X40693371Y-65473920D01*
X40802860Y-65637781D01*
X40802863Y-65637785D01*
X40942214Y-65777136D01*
X40942218Y-65777139D01*
X41106079Y-65886628D01*
X41106092Y-65886635D01*
X41267680Y-65953566D01*
X41288165Y-65962051D01*
X41288169Y-65962051D01*
X41288170Y-65962052D01*
X41481456Y-66000500D01*
X41481459Y-66000500D01*
X41678543Y-66000500D01*
X41849765Y-65966441D01*
X41871835Y-65962051D01*
X42053914Y-65886632D01*
X42217782Y-65777139D01*
X42217785Y-65777136D01*
X42287819Y-65707103D01*
X42349142Y-65673618D01*
X42418834Y-65678602D01*
X42474767Y-65720474D01*
X42499184Y-65785938D01*
X42499500Y-65794784D01*
X42499500Y-67455216D01*
X42479815Y-67522255D01*
X42427011Y-67568010D01*
X42357853Y-67577954D01*
X42294297Y-67548929D01*
X42287819Y-67542897D01*
X42217785Y-67472863D01*
X42217781Y-67472860D01*
X42053920Y-67363371D01*
X42053907Y-67363364D01*
X41871839Y-67287950D01*
X41871829Y-67287947D01*
X41678543Y-67249500D01*
X41678541Y-67249500D01*
X41481459Y-67249500D01*
X41481457Y-67249500D01*
X41288170Y-67287947D01*
X41288160Y-67287950D01*
X41106092Y-67363364D01*
X41106079Y-67363371D01*
X40942218Y-67472860D01*
X40942214Y-67472863D01*
X40802863Y-67612214D01*
X40802860Y-67612218D01*
X40693371Y-67776079D01*
X40693364Y-67776092D01*
X40617950Y-67958160D01*
X40617947Y-67958170D01*
X40579500Y-68151456D01*
X40579500Y-68151459D01*
X40579500Y-68348541D01*
X40579500Y-68348543D01*
X40579499Y-68348543D01*
X40617947Y-68541829D01*
X40617950Y-68541839D01*
X40693364Y-68723907D01*
X40693371Y-68723920D01*
X40802860Y-68887781D01*
X40802863Y-68887785D01*
X40942214Y-69027136D01*
X40942218Y-69027139D01*
X41106079Y-69136628D01*
X41106092Y-69136635D01*
X41288160Y-69212049D01*
X41288165Y-69212051D01*
X41288169Y-69212051D01*
X41288170Y-69212052D01*
X41481456Y-69250500D01*
X41481459Y-69250500D01*
X41678543Y-69250500D01*
X41808582Y-69224632D01*
X41871835Y-69212051D01*
X42053914Y-69136632D01*
X42217782Y-69027139D01*
X42217785Y-69027136D01*
X42287819Y-68957103D01*
X42349142Y-68923618D01*
X42418834Y-68928602D01*
X42474767Y-68970474D01*
X42499184Y-69035938D01*
X42499500Y-69044784D01*
X42499500Y-74375500D01*
X42479815Y-74442539D01*
X42427011Y-74488294D01*
X42375500Y-74499500D01*
X15624500Y-74499500D01*
X15557461Y-74479815D01*
X15511706Y-74427011D01*
X15500500Y-74375500D01*
X15500500Y-72294784D01*
X15520185Y-72227745D01*
X15572989Y-72181990D01*
X15642147Y-72172046D01*
X15705703Y-72201071D01*
X15712181Y-72207103D01*
X15782214Y-72277136D01*
X15782218Y-72277139D01*
X15946079Y-72386628D01*
X15946092Y-72386635D01*
X16128160Y-72462049D01*
X16128165Y-72462051D01*
X16128169Y-72462051D01*
X16128170Y-72462052D01*
X16321456Y-72500500D01*
X16321459Y-72500500D01*
X16518543Y-72500500D01*
X16648582Y-72474632D01*
X16711835Y-72462051D01*
X16893914Y-72386632D01*
X17057782Y-72277139D01*
X17197139Y-72137782D01*
X17306632Y-71973914D01*
X17382051Y-71791835D01*
X17420500Y-71598543D01*
X25579499Y-71598543D01*
X25617947Y-71791829D01*
X25617950Y-71791839D01*
X25693364Y-71973907D01*
X25693371Y-71973920D01*
X25802860Y-72137781D01*
X25802863Y-72137785D01*
X25942214Y-72277136D01*
X25942218Y-72277139D01*
X26106079Y-72386628D01*
X26106092Y-72386635D01*
X26288160Y-72462049D01*
X26288165Y-72462051D01*
X26288169Y-72462051D01*
X26288170Y-72462052D01*
X26481456Y-72500500D01*
X26481459Y-72500500D01*
X26678543Y-72500500D01*
X26808582Y-72474632D01*
X26871835Y-72462051D01*
X27053914Y-72386632D01*
X27053920Y-72386628D01*
X27094021Y-72359834D01*
X27191374Y-72294784D01*
X27217782Y-72277139D01*
X27357139Y-72137782D01*
X27449202Y-72000000D01*
X31552769Y-72000000D01*
X32446988Y-72000000D01*
X32414075Y-72057007D01*
X32380000Y-72184174D01*
X32380000Y-72315826D01*
X32414075Y-72442993D01*
X32446988Y-72500000D01*
X31552769Y-72500000D01*
X31563242Y-72566126D01*
X31563242Y-72566129D01*
X31628904Y-72768217D01*
X31725379Y-72957557D01*
X31850272Y-73129459D01*
X31850276Y-73129464D01*
X32000535Y-73279723D01*
X32000540Y-73279727D01*
X32172442Y-73404620D01*
X32361782Y-73501095D01*
X32563871Y-73566757D01*
X32630000Y-73577231D01*
X32630000Y-72683012D01*
X32687007Y-72715925D01*
X32814174Y-72750000D01*
X32945826Y-72750000D01*
X33072993Y-72715925D01*
X33130000Y-72683012D01*
X33130000Y-73577230D01*
X33196126Y-73566757D01*
X33196129Y-73566757D01*
X33398217Y-73501095D01*
X33587557Y-73404620D01*
X33759459Y-73279727D01*
X33759464Y-73279723D01*
X33909723Y-73129464D01*
X33909727Y-73129459D01*
X34034620Y-72957557D01*
X34131095Y-72768217D01*
X34188343Y-72592026D01*
X34227780Y-72534351D01*
X34292139Y-72507152D01*
X34360985Y-72519066D01*
X34412461Y-72566310D01*
X34420835Y-72582891D01*
X34489058Y-72747596D01*
X34604024Y-72919657D01*
X34750342Y-73065975D01*
X34750345Y-73065977D01*
X34922402Y-73180941D01*
X35113580Y-73260130D01*
X35258052Y-73288867D01*
X35316530Y-73300499D01*
X35316534Y-73300500D01*
X35316535Y-73300500D01*
X35523466Y-73300500D01*
X35523467Y-73300499D01*
X35726420Y-73260130D01*
X35917598Y-73180941D01*
X36089655Y-73065977D01*
X36235977Y-72919655D01*
X36350941Y-72747598D01*
X36430130Y-72556420D01*
X36470500Y-72353465D01*
X36470500Y-72146535D01*
X36470499Y-72146530D01*
X36909500Y-72146530D01*
X36909500Y-72353469D01*
X36949868Y-72556412D01*
X36949870Y-72556420D01*
X37029058Y-72747596D01*
X37144024Y-72919657D01*
X37290342Y-73065975D01*
X37290345Y-73065977D01*
X37462402Y-73180941D01*
X37653580Y-73260130D01*
X37798052Y-73288867D01*
X37856530Y-73300499D01*
X37856534Y-73300500D01*
X37856535Y-73300500D01*
X38063466Y-73300500D01*
X38063467Y-73300499D01*
X38266420Y-73260130D01*
X38457598Y-73180941D01*
X38629655Y-73065977D01*
X38775977Y-72919655D01*
X38890941Y-72747598D01*
X38970130Y-72556420D01*
X39010500Y-72353465D01*
X39010500Y-72146535D01*
X38970130Y-71943580D01*
X38890941Y-71752402D01*
X38775977Y-71580345D01*
X38775975Y-71580342D01*
X38629657Y-71434024D01*
X38534638Y-71370535D01*
X38457598Y-71319059D01*
X38401021Y-71295624D01*
X38266420Y-71239870D01*
X38266412Y-71239868D01*
X38063469Y-71199500D01*
X38063465Y-71199500D01*
X37856535Y-71199500D01*
X37856530Y-71199500D01*
X37653587Y-71239868D01*
X37653579Y-71239870D01*
X37462403Y-71319058D01*
X37290342Y-71434024D01*
X37144024Y-71580342D01*
X37029058Y-71752403D01*
X36949870Y-71943579D01*
X36949868Y-71943587D01*
X36909500Y-72146530D01*
X36470499Y-72146530D01*
X36430130Y-71943580D01*
X36350941Y-71752402D01*
X36235977Y-71580345D01*
X36235975Y-71580342D01*
X36089657Y-71434024D01*
X35994638Y-71370535D01*
X35917598Y-71319059D01*
X35861021Y-71295624D01*
X35726420Y-71239870D01*
X35726412Y-71239868D01*
X35523469Y-71199500D01*
X35523465Y-71199500D01*
X35316535Y-71199500D01*
X35316530Y-71199500D01*
X35113587Y-71239868D01*
X35113579Y-71239870D01*
X34922403Y-71319058D01*
X34750342Y-71434024D01*
X34604024Y-71580342D01*
X34489057Y-71752403D01*
X34420835Y-71917108D01*
X34376994Y-71971511D01*
X34310700Y-71993576D01*
X34243000Y-71976297D01*
X34195390Y-71925159D01*
X34188343Y-71907973D01*
X34131095Y-71731782D01*
X34034620Y-71542442D01*
X33909727Y-71370540D01*
X33909723Y-71370535D01*
X33759464Y-71220276D01*
X33759459Y-71220272D01*
X33587557Y-71095379D01*
X33398215Y-70998903D01*
X33196124Y-70933241D01*
X33130000Y-70922768D01*
X33130000Y-71816988D01*
X33072993Y-71784075D01*
X32945826Y-71750000D01*
X32814174Y-71750000D01*
X32687007Y-71784075D01*
X32630000Y-71816988D01*
X32630000Y-70922768D01*
X32629999Y-70922768D01*
X32563875Y-70933241D01*
X32361784Y-70998903D01*
X32172442Y-71095379D01*
X32000540Y-71220272D01*
X32000535Y-71220276D01*
X31850276Y-71370535D01*
X31850272Y-71370540D01*
X31725379Y-71542442D01*
X31628904Y-71731782D01*
X31563242Y-71933870D01*
X31563242Y-71933873D01*
X31552769Y-72000000D01*
X27449202Y-72000000D01*
X27466632Y-71973914D01*
X27542051Y-71791835D01*
X27580500Y-71598541D01*
X27580500Y-71401459D01*
X27580500Y-71401456D01*
X27542052Y-71208170D01*
X27542051Y-71208169D01*
X27542051Y-71208165D01*
X27487100Y-71075500D01*
X27466635Y-71026092D01*
X27466628Y-71026079D01*
X27357139Y-70862218D01*
X27353274Y-70857508D01*
X27354646Y-70856381D01*
X27325182Y-70802422D01*
X27330166Y-70732730D01*
X27358665Y-70688385D01*
X30278113Y-67768938D01*
X30339435Y-67735454D01*
X30409127Y-67740438D01*
X30465060Y-67782310D01*
X30489477Y-67847774D01*
X30480355Y-67904071D01*
X30457949Y-67958165D01*
X30457947Y-67958170D01*
X30419500Y-68151456D01*
X30419500Y-68151459D01*
X30419500Y-68348541D01*
X30419500Y-68348543D01*
X30419499Y-68348543D01*
X30457947Y-68541829D01*
X30457950Y-68541839D01*
X30533364Y-68723907D01*
X30533371Y-68723920D01*
X30642860Y-68887781D01*
X30642863Y-68887785D01*
X30782214Y-69027136D01*
X30782218Y-69027139D01*
X30946079Y-69136628D01*
X30946092Y-69136635D01*
X31128160Y-69212049D01*
X31128165Y-69212051D01*
X31128169Y-69212051D01*
X31128170Y-69212052D01*
X31321456Y-69250500D01*
X31321459Y-69250500D01*
X31518543Y-69250500D01*
X31648582Y-69224632D01*
X31711835Y-69212051D01*
X31893914Y-69136632D01*
X32057782Y-69027139D01*
X32197139Y-68887782D01*
X32306632Y-68723914D01*
X32382051Y-68541835D01*
X32420500Y-68348541D01*
X32420500Y-68151459D01*
X32420500Y-68151456D01*
X32382052Y-67958170D01*
X32382051Y-67958169D01*
X32382051Y-67958165D01*
X32359645Y-67904071D01*
X32306635Y-67776092D01*
X32306628Y-67776079D01*
X32197139Y-67612218D01*
X32197136Y-67612214D01*
X32057785Y-67472863D01*
X32057781Y-67472860D01*
X31893920Y-67363371D01*
X31893907Y-67363364D01*
X31711839Y-67287950D01*
X31711829Y-67287947D01*
X31518543Y-67249500D01*
X31518541Y-67249500D01*
X31321459Y-67249500D01*
X31321457Y-67249500D01*
X31128170Y-67287947D01*
X31128165Y-67287949D01*
X31074071Y-67310355D01*
X31004602Y-67317823D01*
X30942123Y-67286547D01*
X30906471Y-67226458D01*
X30908966Y-67156632D01*
X30938937Y-67108114D01*
X31700470Y-66346582D01*
X31746614Y-66266658D01*
X31770500Y-66177513D01*
X31770500Y-66085226D01*
X31770500Y-66020605D01*
X31790185Y-65953566D01*
X31842989Y-65907811D01*
X31847009Y-65906060D01*
X31893914Y-65886632D01*
X32057782Y-65777139D01*
X32197139Y-65637782D01*
X32306632Y-65473914D01*
X32314324Y-65455345D01*
X32337248Y-65400000D01*
X32382051Y-65291835D01*
X32394632Y-65228582D01*
X32420500Y-65098543D01*
X32420500Y-64901456D01*
X32382052Y-64708170D01*
X32382051Y-64708169D01*
X32382051Y-64708165D01*
X32337248Y-64600000D01*
X32306635Y-64526092D01*
X32306628Y-64526079D01*
X32197139Y-64362218D01*
X32197136Y-64362214D01*
X32057785Y-64222863D01*
X32057781Y-64222860D01*
X31893920Y-64113371D01*
X31893907Y-64113364D01*
X31711839Y-64037950D01*
X31711829Y-64037947D01*
X31518543Y-63999500D01*
X31518541Y-63999500D01*
X31321459Y-63999500D01*
X31321457Y-63999500D01*
X31128170Y-64037947D01*
X31128160Y-64037950D01*
X30946092Y-64113364D01*
X30946079Y-64113371D01*
X30782218Y-64222860D01*
X30782214Y-64222863D01*
X30642863Y-64362214D01*
X30642860Y-64362218D01*
X30533371Y-64526079D01*
X30533364Y-64526092D01*
X30457950Y-64708160D01*
X30457947Y-64708170D01*
X30419500Y-64901456D01*
X30419500Y-64901459D01*
X30419500Y-65098541D01*
X30419500Y-65098543D01*
X30419499Y-65098543D01*
X30457947Y-65291829D01*
X30457950Y-65291839D01*
X30533364Y-65473907D01*
X30533371Y-65473920D01*
X30642860Y-65637781D01*
X30642863Y-65637785D01*
X30782217Y-65777139D01*
X30951152Y-65890017D01*
X30950119Y-65891561D01*
X30993771Y-65934426D01*
X31009243Y-66002561D01*
X30985423Y-66068245D01*
X30973165Y-66082522D01*
X26592507Y-70463181D01*
X26531184Y-70496666D01*
X26504826Y-70499500D01*
X26481457Y-70499500D01*
X26288170Y-70537947D01*
X26288160Y-70537950D01*
X26106092Y-70613364D01*
X26106079Y-70613371D01*
X25942218Y-70722860D01*
X25942214Y-70722863D01*
X25802863Y-70862214D01*
X25802860Y-70862218D01*
X25693371Y-71026079D01*
X25693364Y-71026092D01*
X25617950Y-71208160D01*
X25617947Y-71208170D01*
X25579500Y-71401456D01*
X25579500Y-71401459D01*
X25579500Y-71598541D01*
X25579500Y-71598543D01*
X25579499Y-71598543D01*
X17420500Y-71598543D01*
X17420500Y-71598541D01*
X17420500Y-71401459D01*
X17420500Y-71401456D01*
X17382052Y-71208170D01*
X17382051Y-71208169D01*
X17382051Y-71208165D01*
X17327100Y-71075500D01*
X17306635Y-71026092D01*
X17306628Y-71026079D01*
X17197139Y-70862218D01*
X17197136Y-70862214D01*
X17057785Y-70722863D01*
X17057781Y-70722860D01*
X16893920Y-70613371D01*
X16893907Y-70613364D01*
X16711839Y-70537950D01*
X16711829Y-70537947D01*
X16518543Y-70499500D01*
X16518541Y-70499500D01*
X16321459Y-70499500D01*
X16321457Y-70499500D01*
X16128170Y-70537947D01*
X16128160Y-70537950D01*
X15946092Y-70613364D01*
X15946079Y-70613371D01*
X15782218Y-70722860D01*
X15782214Y-70722863D01*
X15712181Y-70792897D01*
X15650858Y-70826382D01*
X15581166Y-70821398D01*
X15525233Y-70779526D01*
X15500816Y-70714062D01*
X15500500Y-70705216D01*
X15500500Y-69044784D01*
X15520185Y-68977745D01*
X15572989Y-68931990D01*
X15642147Y-68922046D01*
X15705703Y-68951071D01*
X15712181Y-68957103D01*
X15782214Y-69027136D01*
X15782218Y-69027139D01*
X15946079Y-69136628D01*
X15946092Y-69136635D01*
X16128160Y-69212049D01*
X16128165Y-69212051D01*
X16128169Y-69212051D01*
X16128170Y-69212052D01*
X16321456Y-69250500D01*
X16321459Y-69250500D01*
X16518543Y-69250500D01*
X16648582Y-69224632D01*
X16711835Y-69212051D01*
X16893914Y-69136632D01*
X17057782Y-69027139D01*
X17197139Y-68887782D01*
X17306632Y-68723914D01*
X17382051Y-68541835D01*
X17420500Y-68348541D01*
X17420500Y-68151459D01*
X17420500Y-68151456D01*
X17382052Y-67958170D01*
X17382051Y-67958169D01*
X17382051Y-67958165D01*
X17359645Y-67904071D01*
X17306635Y-67776092D01*
X17306628Y-67776079D01*
X17197139Y-67612218D01*
X17197136Y-67612214D01*
X17057785Y-67472863D01*
X17057781Y-67472860D01*
X16893920Y-67363371D01*
X16893907Y-67363364D01*
X16711839Y-67287950D01*
X16711829Y-67287947D01*
X16518543Y-67249500D01*
X16518541Y-67249500D01*
X16321459Y-67249500D01*
X16321457Y-67249500D01*
X16128170Y-67287947D01*
X16128160Y-67287950D01*
X15946092Y-67363364D01*
X15946079Y-67363371D01*
X15782218Y-67472860D01*
X15782214Y-67472863D01*
X15712181Y-67542897D01*
X15650858Y-67576382D01*
X15581166Y-67571398D01*
X15525233Y-67529526D01*
X15500816Y-67464062D01*
X15500500Y-67455216D01*
X15500500Y-65794784D01*
X15520185Y-65727745D01*
X15572989Y-65681990D01*
X15642147Y-65672046D01*
X15705703Y-65701071D01*
X15712181Y-65707103D01*
X15782214Y-65777136D01*
X15782218Y-65777139D01*
X15946079Y-65886628D01*
X15946092Y-65886635D01*
X16107680Y-65953566D01*
X16128165Y-65962051D01*
X16128169Y-65962051D01*
X16128170Y-65962052D01*
X16321456Y-66000500D01*
X16321459Y-66000500D01*
X16518543Y-66000500D01*
X16689765Y-65966441D01*
X16711835Y-65962051D01*
X16758702Y-65942637D01*
X16828168Y-65935168D01*
X16890648Y-65966441D01*
X16893835Y-65969517D01*
X19454788Y-68530470D01*
X19534712Y-68576614D01*
X19623856Y-68600500D01*
X25559395Y-68600500D01*
X25626434Y-68620185D01*
X25672189Y-68672989D01*
X25673939Y-68677009D01*
X25690051Y-68715906D01*
X25693367Y-68723912D01*
X25693371Y-68723919D01*
X25802860Y-68887782D01*
X25942214Y-69027136D01*
X25942218Y-69027139D01*
X26106079Y-69136628D01*
X26106092Y-69136635D01*
X26288160Y-69212049D01*
X26288165Y-69212051D01*
X26288169Y-69212051D01*
X26288170Y-69212052D01*
X26481456Y-69250500D01*
X26481459Y-69250500D01*
X26678543Y-69250500D01*
X26808582Y-69224632D01*
X26871835Y-69212051D01*
X27053914Y-69136632D01*
X27217782Y-69027139D01*
X27357139Y-68887782D01*
X27466632Y-68723914D01*
X27542051Y-68541835D01*
X27580500Y-68348541D01*
X27580500Y-68151459D01*
X27580500Y-68151456D01*
X27542052Y-67958170D01*
X27542051Y-67958169D01*
X27542051Y-67958165D01*
X27519645Y-67904071D01*
X27466635Y-67776092D01*
X27466628Y-67776079D01*
X27357139Y-67612218D01*
X27357136Y-67612214D01*
X27217785Y-67472863D01*
X27217781Y-67472860D01*
X27053920Y-67363371D01*
X27053907Y-67363364D01*
X26871839Y-67287950D01*
X26871829Y-67287947D01*
X26678543Y-67249500D01*
X26678541Y-67249500D01*
X26481459Y-67249500D01*
X26481457Y-67249500D01*
X26288170Y-67287947D01*
X26288160Y-67287950D01*
X26106092Y-67363364D01*
X26106079Y-67363371D01*
X25942218Y-67472860D01*
X25942214Y-67472863D01*
X25802860Y-67612217D01*
X25693371Y-67776080D01*
X25693367Y-67776087D01*
X25690790Y-67782310D01*
X25673955Y-67822953D01*
X25630116Y-67877355D01*
X25563822Y-67899421D01*
X25559395Y-67899500D01*
X19866544Y-67899500D01*
X19799505Y-67879815D01*
X19778863Y-67863181D01*
X17389517Y-65473835D01*
X17383674Y-65463136D01*
X17374297Y-65455345D01*
X17367241Y-65433041D01*
X17356032Y-65412512D01*
X17356381Y-65398707D01*
X17353225Y-65388729D01*
X17357164Y-65367792D01*
X17357521Y-65353697D01*
X17359595Y-65346046D01*
X17382051Y-65291835D01*
X17403385Y-65184579D01*
X17403388Y-65184571D01*
X17420499Y-65098545D01*
X17420500Y-65098543D01*
X17420500Y-64901456D01*
X17420499Y-64901454D01*
X17402558Y-64811254D01*
X17390373Y-64750000D01*
X25303391Y-64750000D01*
X26264314Y-64750000D01*
X26259920Y-64754394D01*
X26207259Y-64845606D01*
X26180000Y-64947339D01*
X26180000Y-65052661D01*
X26207259Y-65154394D01*
X26259920Y-65245606D01*
X26264314Y-65250000D01*
X25303391Y-65250000D01*
X25312009Y-65304413D01*
X25375244Y-65499029D01*
X25468140Y-65681349D01*
X25588417Y-65846894D01*
X25588417Y-65846895D01*
X25733104Y-65991582D01*
X25898650Y-66111859D01*
X26080968Y-66204754D01*
X26275578Y-66267988D01*
X26330000Y-66276607D01*
X26330000Y-65315686D01*
X26334394Y-65320080D01*
X26425606Y-65372741D01*
X26527339Y-65400000D01*
X26632661Y-65400000D01*
X26734394Y-65372741D01*
X26825606Y-65320080D01*
X26830000Y-65315686D01*
X26830000Y-66276606D01*
X26884421Y-66267988D01*
X27079031Y-66204754D01*
X27261349Y-66111859D01*
X27426894Y-65991582D01*
X27426895Y-65991582D01*
X27571582Y-65846895D01*
X27571582Y-65846894D01*
X27691859Y-65681349D01*
X27784755Y-65499029D01*
X27847990Y-65304413D01*
X27856609Y-65250000D01*
X26895686Y-65250000D01*
X26900080Y-65245606D01*
X26952741Y-65154394D01*
X26980000Y-65052661D01*
X26980000Y-64947339D01*
X26952741Y-64845606D01*
X26900080Y-64754394D01*
X26895686Y-64750000D01*
X27856609Y-64750000D01*
X27847990Y-64695586D01*
X27784755Y-64500970D01*
X27691859Y-64318650D01*
X27571582Y-64153105D01*
X27571582Y-64153104D01*
X27426895Y-64008417D01*
X27261349Y-63888140D01*
X27079029Y-63795244D01*
X26884413Y-63732009D01*
X26830000Y-63723390D01*
X26830000Y-64684314D01*
X26825606Y-64679920D01*
X26734394Y-64627259D01*
X26632661Y-64600000D01*
X26527339Y-64600000D01*
X26425606Y-64627259D01*
X26334394Y-64679920D01*
X26330000Y-64684314D01*
X26330000Y-63723390D01*
X26275586Y-63732009D01*
X26080970Y-63795244D01*
X25898650Y-63888140D01*
X25733105Y-64008417D01*
X25733104Y-64008417D01*
X25588417Y-64153104D01*
X25588417Y-64153105D01*
X25468140Y-64318650D01*
X25375244Y-64500970D01*
X25312009Y-64695586D01*
X25303391Y-64750000D01*
X17390373Y-64750000D01*
X17382052Y-64708170D01*
X17382051Y-64708169D01*
X17382051Y-64708165D01*
X17337248Y-64600000D01*
X17306635Y-64526092D01*
X17306628Y-64526079D01*
X17197139Y-64362218D01*
X17197136Y-64362214D01*
X17057785Y-64222863D01*
X17057781Y-64222860D01*
X16893920Y-64113371D01*
X16893907Y-64113364D01*
X16711839Y-64037950D01*
X16711829Y-64037947D01*
X16518543Y-63999500D01*
X16518541Y-63999500D01*
X16321459Y-63999500D01*
X16321457Y-63999500D01*
X16128170Y-64037947D01*
X16128160Y-64037950D01*
X15946092Y-64113364D01*
X15946079Y-64113371D01*
X15782218Y-64222860D01*
X15782214Y-64222863D01*
X15712181Y-64292897D01*
X15650858Y-64326382D01*
X15581166Y-64321398D01*
X15525233Y-64279526D01*
X15500816Y-64214062D01*
X15500500Y-64205216D01*
X15500500Y-60607613D01*
X24676609Y-60607613D01*
X24676609Y-60835938D01*
X24712324Y-61061436D01*
X24782879Y-61278579D01*
X24886530Y-61482004D01*
X25020730Y-61666713D01*
X25182172Y-61828155D01*
X25366881Y-61962355D01*
X25462993Y-62011326D01*
X25570305Y-62066005D01*
X25570307Y-62066005D01*
X25570310Y-62066007D01*
X25686701Y-62103825D01*
X25787448Y-62136560D01*
X26012947Y-62172276D01*
X26012952Y-62172276D01*
X26241271Y-62172276D01*
X26466769Y-62136560D01*
X26683908Y-62066007D01*
X26887337Y-61962355D01*
X27072046Y-61828155D01*
X27233488Y-61666713D01*
X27367688Y-61482004D01*
X27471340Y-61278575D01*
X27541893Y-61061436D01*
X27577609Y-60835938D01*
X27577609Y-60607613D01*
X30422391Y-60607613D01*
X30422391Y-60835938D01*
X30458106Y-61061436D01*
X30528661Y-61278579D01*
X30632312Y-61482004D01*
X30766512Y-61666713D01*
X30927954Y-61828155D01*
X31112663Y-61962355D01*
X31208775Y-62011326D01*
X31316087Y-62066005D01*
X31316089Y-62066005D01*
X31316092Y-62066007D01*
X31432483Y-62103825D01*
X31533230Y-62136560D01*
X31758729Y-62172276D01*
X31758734Y-62172276D01*
X31987053Y-62172276D01*
X32212551Y-62136560D01*
X32429690Y-62066007D01*
X32633119Y-61962355D01*
X32817828Y-61828155D01*
X32979270Y-61666713D01*
X33113470Y-61482004D01*
X33217122Y-61278575D01*
X33287675Y-61061436D01*
X33323391Y-60835938D01*
X33323391Y-60607613D01*
X33287675Y-60382115D01*
X33217120Y-60164972D01*
X33113469Y-59961547D01*
X32979270Y-59776839D01*
X32817828Y-59615397D01*
X32633119Y-59481197D01*
X32429694Y-59377546D01*
X32212551Y-59306991D01*
X31987053Y-59271276D01*
X31987048Y-59271276D01*
X31758734Y-59271276D01*
X31758729Y-59271276D01*
X31533230Y-59306991D01*
X31316087Y-59377546D01*
X31112662Y-59481197D01*
X30927952Y-59615398D01*
X30766513Y-59776837D01*
X30632312Y-59961547D01*
X30528661Y-60164972D01*
X30458106Y-60382115D01*
X30422391Y-60607613D01*
X27577609Y-60607613D01*
X27541893Y-60382115D01*
X27471338Y-60164972D01*
X27367687Y-59961547D01*
X27233488Y-59776839D01*
X27072046Y-59615397D01*
X26887337Y-59481197D01*
X26683912Y-59377546D01*
X26466769Y-59306991D01*
X26241271Y-59271276D01*
X26241266Y-59271276D01*
X26012952Y-59271276D01*
X26012947Y-59271276D01*
X25787448Y-59306991D01*
X25570305Y-59377546D01*
X25366880Y-59481197D01*
X25182170Y-59615398D01*
X25020731Y-59776837D01*
X24886530Y-59961547D01*
X24782879Y-60164972D01*
X24712324Y-60382115D01*
X24676609Y-60607613D01*
X15500500Y-60607613D01*
X15500500Y-57734722D01*
X19700615Y-57734722D01*
X19700615Y-57963047D01*
X19736330Y-58188545D01*
X19806885Y-58405688D01*
X19910536Y-58609113D01*
X20044736Y-58793822D01*
X20206178Y-58955264D01*
X20390887Y-59089464D01*
X20486999Y-59138435D01*
X20594311Y-59193114D01*
X20594313Y-59193114D01*
X20594316Y-59193116D01*
X20710707Y-59230934D01*
X20811454Y-59263669D01*
X21036953Y-59299385D01*
X21036958Y-59299385D01*
X21265277Y-59299385D01*
X21490775Y-59263669D01*
X21707914Y-59193116D01*
X21911343Y-59089464D01*
X22096052Y-58955264D01*
X22257494Y-58793822D01*
X22391694Y-58609113D01*
X22495346Y-58405684D01*
X22565899Y-58188545D01*
X22601615Y-57963047D01*
X22601615Y-57734722D01*
X22565899Y-57509224D01*
X22495344Y-57292081D01*
X22391693Y-57088656D01*
X22257494Y-56903948D01*
X22096052Y-56742506D01*
X21911343Y-56608306D01*
X21707918Y-56504655D01*
X21490775Y-56434100D01*
X21265277Y-56398385D01*
X21265272Y-56398385D01*
X21036958Y-56398385D01*
X21036953Y-56398385D01*
X20811454Y-56434100D01*
X20594311Y-56504655D01*
X20390886Y-56608306D01*
X20206176Y-56742507D01*
X20044737Y-56903946D01*
X19910536Y-57088656D01*
X19806885Y-57292081D01*
X19736330Y-57509224D01*
X19700615Y-57734722D01*
X15500500Y-57734722D01*
X15500500Y-52758728D01*
X16827724Y-52758728D01*
X16827724Y-52987053D01*
X16863439Y-53212551D01*
X16933994Y-53429694D01*
X16960946Y-53482589D01*
X17037645Y-53633119D01*
X17171845Y-53817828D01*
X17333287Y-53979270D01*
X17517996Y-54113470D01*
X17564461Y-54137145D01*
X17721420Y-54217120D01*
X17721422Y-54217120D01*
X17721425Y-54217122D01*
X17837816Y-54254940D01*
X17938563Y-54287675D01*
X18164062Y-54323391D01*
X18164067Y-54323391D01*
X18392386Y-54323391D01*
X18617884Y-54287675D01*
X18835023Y-54217122D01*
X19038452Y-54113470D01*
X19223161Y-53979270D01*
X19384603Y-53817828D01*
X19518803Y-53633119D01*
X19622455Y-53429690D01*
X19693008Y-53212551D01*
X19728724Y-52987053D01*
X19728724Y-52758728D01*
X19693008Y-52533230D01*
X19652837Y-52409598D01*
X19622455Y-52316092D01*
X19622453Y-52316089D01*
X19622453Y-52316087D01*
X19518802Y-52112662D01*
X19384603Y-51927954D01*
X19223161Y-51766512D01*
X19038452Y-51632312D01*
X18835027Y-51528661D01*
X18617884Y-51458106D01*
X18392386Y-51422391D01*
X18392381Y-51422391D01*
X18164067Y-51422391D01*
X18164062Y-51422391D01*
X17938563Y-51458106D01*
X17721420Y-51528661D01*
X17517995Y-51632312D01*
X17333285Y-51766513D01*
X17171846Y-51927952D01*
X17037645Y-52112662D01*
X16933994Y-52316087D01*
X16863439Y-52533230D01*
X16827724Y-52758728D01*
X15500500Y-52758728D01*
X15500500Y-50501648D01*
X15500544Y-50498347D01*
X15503353Y-50392847D01*
X15519545Y-49784796D01*
X15519892Y-49778278D01*
X15576716Y-49068344D01*
X15577411Y-49061848D01*
X15671934Y-48355980D01*
X15672982Y-48349479D01*
X15719751Y-48101443D01*
X15804936Y-47649658D01*
X15806329Y-47643221D01*
X15960439Y-47012414D01*
X16528224Y-47012414D01*
X16528224Y-47241803D01*
X16528225Y-47241819D01*
X16558166Y-47469246D01*
X16617542Y-47690839D01*
X16705326Y-47902768D01*
X16705330Y-47902778D01*
X16820023Y-48101433D01*
X16820029Y-48101440D01*
X16876605Y-48175173D01*
X17600645Y-47451133D01*
X17613583Y-47482367D01*
X17695661Y-47605206D01*
X17800127Y-47709672D01*
X17922966Y-47791750D01*
X17954198Y-47804687D01*
X17230158Y-48528726D01*
X17230158Y-48528727D01*
X17303890Y-48585303D01*
X17502554Y-48700002D01*
X17502564Y-48700006D01*
X17714493Y-48787790D01*
X17936086Y-48847166D01*
X18163513Y-48877107D01*
X18163530Y-48877109D01*
X18392918Y-48877109D01*
X18392934Y-48877107D01*
X18620361Y-48847166D01*
X18841954Y-48787790D01*
X19053883Y-48700006D01*
X19053892Y-48700002D01*
X19252551Y-48585306D01*
X19252558Y-48585301D01*
X19326288Y-48528726D01*
X18602249Y-47804687D01*
X18633482Y-47791750D01*
X18756321Y-47709672D01*
X18860787Y-47605206D01*
X18942865Y-47482367D01*
X18955802Y-47451134D01*
X19679841Y-48175173D01*
X19736416Y-48101443D01*
X19736421Y-48101436D01*
X19851117Y-47902777D01*
X19851121Y-47902768D01*
X19938905Y-47690839D01*
X19998281Y-47469246D01*
X20028222Y-47241819D01*
X20028224Y-47241803D01*
X20028224Y-47163476D01*
X24827139Y-47163476D01*
X24827139Y-47391801D01*
X24862854Y-47617299D01*
X24933409Y-47834442D01*
X25037060Y-48037867D01*
X25171260Y-48222576D01*
X25332702Y-48384018D01*
X25517411Y-48518218D01*
X25563876Y-48541893D01*
X25720839Y-48621870D01*
X25720845Y-48621872D01*
X25841456Y-48661060D01*
X25899132Y-48700497D01*
X25926331Y-48764855D01*
X25927139Y-48778991D01*
X25927139Y-50223782D01*
X25949385Y-50306809D01*
X25951023Y-50312921D01*
X25951026Y-50312929D01*
X25997166Y-50392847D01*
X25997170Y-50392852D01*
X26697480Y-51093162D01*
X26730965Y-51154485D01*
X26725981Y-51224177D01*
X26684109Y-51280110D01*
X26618645Y-51304527D01*
X26590401Y-51303316D01*
X26391801Y-51271861D01*
X26391796Y-51271861D01*
X26163482Y-51271861D01*
X26163477Y-51271861D01*
X25937978Y-51307576D01*
X25720835Y-51378131D01*
X25517410Y-51481782D01*
X25332700Y-51615983D01*
X25171261Y-51777422D01*
X25037060Y-51962132D01*
X24933409Y-52165557D01*
X24862854Y-52382700D01*
X24827139Y-52608198D01*
X24827139Y-52836523D01*
X24862854Y-53062021D01*
X24933409Y-53279164D01*
X25037060Y-53482589D01*
X25171260Y-53667298D01*
X25332702Y-53828740D01*
X25517411Y-53962940D01*
X25549457Y-53979268D01*
X25720835Y-54066590D01*
X25720837Y-54066590D01*
X25720840Y-54066592D01*
X25837231Y-54104410D01*
X25937978Y-54137145D01*
X26163477Y-54172861D01*
X26163482Y-54172861D01*
X26391801Y-54172861D01*
X26617299Y-54137145D01*
X26834438Y-54066592D01*
X27037867Y-53962940D01*
X27222576Y-53828740D01*
X27384018Y-53667298D01*
X27518218Y-53482589D01*
X27621870Y-53279160D01*
X27692423Y-53062021D01*
X27704298Y-52987048D01*
X27728139Y-52836523D01*
X27728139Y-52608198D01*
X27696683Y-52409598D01*
X27705637Y-52340305D01*
X27750633Y-52286853D01*
X27817385Y-52266213D01*
X27884699Y-52284938D01*
X27906837Y-52302519D01*
X39463181Y-63858863D01*
X39496666Y-63920186D01*
X39499500Y-63946544D01*
X39499500Y-71226734D01*
X39479815Y-71293773D01*
X39478603Y-71295624D01*
X39461132Y-71321770D01*
X39461131Y-71321773D01*
X39449500Y-71380247D01*
X39449500Y-73119752D01*
X39461131Y-73178229D01*
X39461132Y-73178230D01*
X39505447Y-73244552D01*
X39571769Y-73288867D01*
X39571770Y-73288868D01*
X39630247Y-73300499D01*
X39630250Y-73300500D01*
X39630252Y-73300500D01*
X41369750Y-73300500D01*
X41369751Y-73300499D01*
X41384568Y-73297552D01*
X41428229Y-73288868D01*
X41428229Y-73288867D01*
X41428231Y-73288867D01*
X41494552Y-73244552D01*
X41538867Y-73178231D01*
X41538867Y-73178229D01*
X41538868Y-73178229D01*
X41550499Y-73119752D01*
X41550500Y-73119750D01*
X41550500Y-71380249D01*
X41550499Y-71380247D01*
X41538868Y-71321770D01*
X41538867Y-71321769D01*
X41494552Y-71255447D01*
X41428230Y-71211132D01*
X41428229Y-71211131D01*
X41369752Y-71199500D01*
X41369748Y-71199500D01*
X40324500Y-71199500D01*
X40257461Y-71179815D01*
X40211706Y-71127011D01*
X40200500Y-71075500D01*
X40200500Y-63703858D01*
X40200500Y-63703856D01*
X40176614Y-63614712D01*
X40130470Y-63534788D01*
X34330404Y-57734722D01*
X35398385Y-57734722D01*
X35398385Y-57963047D01*
X35434100Y-58188545D01*
X35504655Y-58405688D01*
X35608306Y-58609113D01*
X35742506Y-58793822D01*
X35903948Y-58955264D01*
X36088657Y-59089464D01*
X36184769Y-59138435D01*
X36292081Y-59193114D01*
X36292083Y-59193114D01*
X36292086Y-59193116D01*
X36408477Y-59230934D01*
X36509224Y-59263669D01*
X36734723Y-59299385D01*
X36734728Y-59299385D01*
X36963047Y-59299385D01*
X37188545Y-59263669D01*
X37405684Y-59193116D01*
X37609113Y-59089464D01*
X37793822Y-58955264D01*
X37955264Y-58793822D01*
X38089464Y-58609113D01*
X38193116Y-58405684D01*
X38263669Y-58188545D01*
X38299385Y-57963047D01*
X38299385Y-57734722D01*
X38263669Y-57509224D01*
X38193114Y-57292081D01*
X38089463Y-57088656D01*
X37955264Y-56903948D01*
X37793822Y-56742506D01*
X37609113Y-56608306D01*
X37405688Y-56504655D01*
X37188545Y-56434100D01*
X36963047Y-56398385D01*
X36963042Y-56398385D01*
X36734728Y-56398385D01*
X36734723Y-56398385D01*
X36509224Y-56434100D01*
X36292081Y-56504655D01*
X36088656Y-56608306D01*
X35903946Y-56742507D01*
X35742507Y-56903946D01*
X35608306Y-57088656D01*
X35504655Y-57292081D01*
X35434100Y-57509224D01*
X35398385Y-57734722D01*
X34330404Y-57734722D01*
X29203880Y-52608198D01*
X30271861Y-52608198D01*
X30271861Y-52836523D01*
X30307576Y-53062021D01*
X30378131Y-53279164D01*
X30481782Y-53482589D01*
X30615982Y-53667298D01*
X30777424Y-53828740D01*
X30962133Y-53962940D01*
X30994179Y-53979268D01*
X31165557Y-54066590D01*
X31165559Y-54066590D01*
X31165562Y-54066592D01*
X31281953Y-54104410D01*
X31382700Y-54137145D01*
X31608199Y-54172861D01*
X31608204Y-54172861D01*
X31836523Y-54172861D01*
X32062021Y-54137145D01*
X32279160Y-54066592D01*
X32482589Y-53962940D01*
X32667298Y-53828740D01*
X32828740Y-53667298D01*
X32962940Y-53482589D01*
X33066592Y-53279160D01*
X33137145Y-53062021D01*
X33149020Y-52987048D01*
X33172861Y-52836523D01*
X33172861Y-52758728D01*
X38271276Y-52758728D01*
X38271276Y-52987053D01*
X38306991Y-53212551D01*
X38377546Y-53429694D01*
X38404498Y-53482589D01*
X38481197Y-53633119D01*
X38615397Y-53817828D01*
X38776839Y-53979270D01*
X38961548Y-54113470D01*
X39008013Y-54137145D01*
X39164972Y-54217120D01*
X39164974Y-54217120D01*
X39164977Y-54217122D01*
X39281368Y-54254940D01*
X39382115Y-54287675D01*
X39607614Y-54323391D01*
X39607619Y-54323391D01*
X39835938Y-54323391D01*
X40061436Y-54287675D01*
X40278575Y-54217122D01*
X40482004Y-54113470D01*
X40666713Y-53979270D01*
X40828155Y-53817828D01*
X40962355Y-53633119D01*
X41066007Y-53429690D01*
X41136560Y-53212551D01*
X41172276Y-52987053D01*
X41172276Y-52758728D01*
X41136560Y-52533230D01*
X41096389Y-52409598D01*
X41066007Y-52316092D01*
X41066005Y-52316089D01*
X41066005Y-52316087D01*
X40962354Y-52112662D01*
X40828155Y-51927954D01*
X40666713Y-51766512D01*
X40482004Y-51632312D01*
X40278579Y-51528661D01*
X40061436Y-51458106D01*
X39835938Y-51422391D01*
X39835933Y-51422391D01*
X39607619Y-51422391D01*
X39607614Y-51422391D01*
X39382115Y-51458106D01*
X39164972Y-51528661D01*
X38961547Y-51632312D01*
X38776837Y-51766513D01*
X38615398Y-51927952D01*
X38481197Y-52112662D01*
X38377546Y-52316087D01*
X38306991Y-52533230D01*
X38271276Y-52758728D01*
X33172861Y-52758728D01*
X33172861Y-52608198D01*
X33137145Y-52382700D01*
X33066590Y-52165557D01*
X32962939Y-51962132D01*
X32834787Y-51785747D01*
X32828740Y-51777424D01*
X32667298Y-51615982D01*
X32482589Y-51481782D01*
X32279164Y-51378131D01*
X32062021Y-51307576D01*
X31836523Y-51271861D01*
X31836518Y-51271861D01*
X31608204Y-51271861D01*
X31608199Y-51271861D01*
X31382700Y-51307576D01*
X31165557Y-51378131D01*
X30962132Y-51481782D01*
X30777422Y-51615983D01*
X30615983Y-51777422D01*
X30481782Y-51962132D01*
X30378131Y-52165557D01*
X30307576Y-52382700D01*
X30271861Y-52608198D01*
X29203880Y-52608198D01*
X26664458Y-50068776D01*
X26630973Y-50007453D01*
X26628139Y-49981095D01*
X26628139Y-48778991D01*
X26647824Y-48711952D01*
X26700628Y-48666197D01*
X26713822Y-48661060D01*
X26834432Y-48621872D01*
X26834438Y-48621870D01*
X26834442Y-48621868D01*
X27037867Y-48518218D01*
X27222576Y-48384018D01*
X27384018Y-48222576D01*
X27518218Y-48037867D01*
X27621870Y-47834438D01*
X27692423Y-47617299D01*
X27694338Y-47605206D01*
X27728139Y-47391801D01*
X27728139Y-47163476D01*
X30271861Y-47163476D01*
X30271861Y-47391801D01*
X30307576Y-47617299D01*
X30378131Y-47834442D01*
X30481782Y-48037867D01*
X30615982Y-48222576D01*
X30777424Y-48384018D01*
X30962133Y-48518218D01*
X31008598Y-48541893D01*
X31165557Y-48621868D01*
X31165559Y-48621868D01*
X31165562Y-48621870D01*
X31281953Y-48659688D01*
X31382700Y-48692423D01*
X31608199Y-48728139D01*
X31608204Y-48728139D01*
X31836523Y-48728139D01*
X32062021Y-48692423D01*
X32072864Y-48688900D01*
X32279160Y-48621870D01*
X32482589Y-48518218D01*
X32667298Y-48384018D01*
X32828740Y-48222576D01*
X32962940Y-48037867D01*
X33066592Y-47834438D01*
X33137145Y-47617299D01*
X33139060Y-47605206D01*
X33172861Y-47391801D01*
X33172861Y-47163476D01*
X33151321Y-47027478D01*
X33149019Y-47012946D01*
X38271276Y-47012946D01*
X38271276Y-47241271D01*
X38306991Y-47466769D01*
X38377546Y-47683912D01*
X38461300Y-47848287D01*
X38481197Y-47887337D01*
X38615397Y-48072046D01*
X38776839Y-48233488D01*
X38961548Y-48367688D01*
X38993594Y-48384016D01*
X39164972Y-48471338D01*
X39164974Y-48471338D01*
X39164977Y-48471340D01*
X39281368Y-48509158D01*
X39382115Y-48541893D01*
X39607614Y-48577609D01*
X39607619Y-48577609D01*
X39835938Y-48577609D01*
X40061436Y-48541893D01*
X40278575Y-48471340D01*
X40482004Y-48367688D01*
X40666713Y-48233488D01*
X40828155Y-48072046D01*
X40962355Y-47887337D01*
X41066007Y-47683908D01*
X41136560Y-47466769D01*
X41148435Y-47391796D01*
X41172276Y-47241271D01*
X41172276Y-47012946D01*
X41136560Y-46787448D01*
X41066005Y-46570305D01*
X40962354Y-46366880D01*
X40951143Y-46351449D01*
X40828155Y-46182172D01*
X40666713Y-46020730D01*
X40482004Y-45886530D01*
X40278579Y-45782879D01*
X40061436Y-45712324D01*
X39835938Y-45676609D01*
X39835933Y-45676609D01*
X39607619Y-45676609D01*
X39607614Y-45676609D01*
X39382115Y-45712324D01*
X39164972Y-45782879D01*
X38961547Y-45886530D01*
X38776837Y-46020731D01*
X38615398Y-46182170D01*
X38481197Y-46366880D01*
X38377546Y-46570305D01*
X38306991Y-46787448D01*
X38271276Y-47012946D01*
X33149019Y-47012946D01*
X33139280Y-46951459D01*
X33137145Y-46937979D01*
X33066592Y-46720840D01*
X33066590Y-46720837D01*
X33066590Y-46720835D01*
X32962939Y-46517410D01*
X32881944Y-46405931D01*
X32828740Y-46332702D01*
X32667298Y-46171260D01*
X32482589Y-46037060D01*
X32279164Y-45933409D01*
X32062021Y-45862854D01*
X31836523Y-45827139D01*
X31836518Y-45827139D01*
X31608204Y-45827139D01*
X31608199Y-45827139D01*
X31382700Y-45862854D01*
X31165557Y-45933409D01*
X30962132Y-46037060D01*
X30777422Y-46171261D01*
X30615983Y-46332700D01*
X30481782Y-46517410D01*
X30378131Y-46720835D01*
X30307576Y-46937978D01*
X30271861Y-47163476D01*
X27728139Y-47163476D01*
X27692423Y-46937978D01*
X27659688Y-46837231D01*
X27621870Y-46720840D01*
X27621868Y-46720837D01*
X27621868Y-46720835D01*
X27518217Y-46517410D01*
X27437222Y-46405931D01*
X27384018Y-46332702D01*
X27222576Y-46171260D01*
X27037867Y-46037060D01*
X26834442Y-45933409D01*
X26617299Y-45862854D01*
X26391801Y-45827139D01*
X26391796Y-45827139D01*
X26163482Y-45827139D01*
X26163477Y-45827139D01*
X25937978Y-45862854D01*
X25720835Y-45933409D01*
X25517410Y-46037060D01*
X25332700Y-46171261D01*
X25171261Y-46332700D01*
X25037060Y-46517410D01*
X24933409Y-46720835D01*
X24862854Y-46937978D01*
X24827139Y-47163476D01*
X20028224Y-47163476D01*
X20028224Y-47012414D01*
X20028222Y-47012398D01*
X19998281Y-46784971D01*
X19938905Y-46563378D01*
X19851121Y-46351449D01*
X19851117Y-46351439D01*
X19736418Y-46152775D01*
X19679842Y-46079043D01*
X19679841Y-46079043D01*
X18955801Y-46803082D01*
X18942865Y-46771851D01*
X18860787Y-46649012D01*
X18756321Y-46544546D01*
X18633482Y-46462468D01*
X18602247Y-46449530D01*
X19326288Y-45725490D01*
X19326288Y-45725489D01*
X19252555Y-45668914D01*
X19252548Y-45668908D01*
X19053893Y-45554215D01*
X19053883Y-45554211D01*
X18841954Y-45466427D01*
X18620361Y-45407051D01*
X18392934Y-45377110D01*
X18392918Y-45377109D01*
X18163530Y-45377109D01*
X18163513Y-45377110D01*
X17936086Y-45407051D01*
X17714493Y-45466427D01*
X17502564Y-45554211D01*
X17502554Y-45554215D01*
X17303897Y-45668910D01*
X17303883Y-45668919D01*
X17230158Y-45725489D01*
X17954199Y-46449530D01*
X17922966Y-46462468D01*
X17800127Y-46544546D01*
X17695661Y-46649012D01*
X17613583Y-46771851D01*
X17600645Y-46803084D01*
X16876604Y-46079043D01*
X16820034Y-46152768D01*
X16820025Y-46152782D01*
X16705330Y-46351439D01*
X16705326Y-46351449D01*
X16617542Y-46563378D01*
X16558166Y-46784971D01*
X16528225Y-47012398D01*
X16528224Y-47012414D01*
X15960439Y-47012414D01*
X15975342Y-46951413D01*
X15977062Y-46945106D01*
X16182659Y-46263263D01*
X16184713Y-46257052D01*
X16426310Y-45587110D01*
X16428702Y-45580991D01*
X16705617Y-44924847D01*
X16708311Y-44918909D01*
X17019751Y-44278443D01*
X17022791Y-44272593D01*
X17367870Y-43649619D01*
X17371187Y-43643990D01*
X17748923Y-43040282D01*
X17752569Y-43034786D01*
X17899034Y-42826267D01*
X18161921Y-42452004D01*
X18165813Y-42446767D01*
X18487560Y-42036952D01*
X19700615Y-42036952D01*
X19700615Y-42265277D01*
X19736330Y-42490775D01*
X19806885Y-42707918D01*
X19910536Y-42911343D01*
X20044736Y-43096052D01*
X20206178Y-43257494D01*
X20390887Y-43391694D01*
X20486999Y-43440665D01*
X20594311Y-43495344D01*
X20594313Y-43495344D01*
X20594316Y-43495346D01*
X20710707Y-43533164D01*
X20811454Y-43565899D01*
X21036953Y-43601615D01*
X21036958Y-43601615D01*
X21265277Y-43601615D01*
X21490775Y-43565899D01*
X21707914Y-43495346D01*
X21911343Y-43391694D01*
X22096052Y-43257494D01*
X22257494Y-43096052D01*
X22391694Y-42911343D01*
X22495346Y-42707914D01*
X22565899Y-42490775D01*
X22572462Y-42449339D01*
X22601615Y-42265277D01*
X22601615Y-42036952D01*
X35398385Y-42036952D01*
X35398385Y-42265277D01*
X35434100Y-42490775D01*
X35504655Y-42707918D01*
X35608306Y-42911343D01*
X35742506Y-43096052D01*
X35903948Y-43257494D01*
X36088657Y-43391694D01*
X36184769Y-43440665D01*
X36292081Y-43495344D01*
X36292083Y-43495344D01*
X36292086Y-43495346D01*
X36408477Y-43533164D01*
X36509224Y-43565899D01*
X36734723Y-43601615D01*
X36734728Y-43601615D01*
X36963047Y-43601615D01*
X37188545Y-43565899D01*
X37405684Y-43495346D01*
X37609113Y-43391694D01*
X37793822Y-43257494D01*
X37955264Y-43096052D01*
X38089464Y-42911343D01*
X38193116Y-42707914D01*
X38263669Y-42490775D01*
X38270232Y-42449339D01*
X38299385Y-42265277D01*
X38299385Y-42036952D01*
X38263669Y-41811454D01*
X38193114Y-41594311D01*
X38089463Y-41390886D01*
X38056572Y-41345616D01*
X37955264Y-41206178D01*
X37793822Y-41044736D01*
X37609113Y-40910536D01*
X37405688Y-40806885D01*
X37188545Y-40736330D01*
X36963047Y-40700615D01*
X36963042Y-40700615D01*
X36734728Y-40700615D01*
X36734723Y-40700615D01*
X36509224Y-40736330D01*
X36292081Y-40806885D01*
X36088656Y-40910536D01*
X35903946Y-41044737D01*
X35742507Y-41206176D01*
X35608306Y-41390886D01*
X35504655Y-41594311D01*
X35434100Y-41811454D01*
X35398385Y-42036952D01*
X22601615Y-42036952D01*
X22565899Y-41811454D01*
X22495344Y-41594311D01*
X22391693Y-41390886D01*
X22358802Y-41345616D01*
X22257494Y-41206178D01*
X22096052Y-41044736D01*
X21911343Y-40910536D01*
X21707918Y-40806885D01*
X21490775Y-40736330D01*
X21265277Y-40700615D01*
X21265272Y-40700615D01*
X21036958Y-40700615D01*
X21036953Y-40700615D01*
X20811454Y-40736330D01*
X20594311Y-40806885D01*
X20390886Y-40910536D01*
X20206176Y-41044737D01*
X20044737Y-41206176D01*
X19910536Y-41390886D01*
X19806885Y-41594311D01*
X19736330Y-41811454D01*
X19700615Y-42036952D01*
X18487560Y-42036952D01*
X18605597Y-41886606D01*
X18609782Y-41881558D01*
X19078755Y-41345598D01*
X19083200Y-41340782D01*
X19580039Y-40830537D01*
X19584722Y-40825976D01*
X20108035Y-40342878D01*
X20112951Y-40338577D01*
X20661195Y-39884045D01*
X20666347Y-39879999D01*
X21238034Y-39455270D01*
X21243383Y-39451513D01*
X21676700Y-39164061D01*
X24676609Y-39164061D01*
X24676609Y-39392386D01*
X24712324Y-39617884D01*
X24782879Y-39835027D01*
X24807860Y-39884054D01*
X24886530Y-40038452D01*
X25020730Y-40223161D01*
X25182172Y-40384603D01*
X25366881Y-40518803D01*
X25462993Y-40567774D01*
X25570305Y-40622453D01*
X25570307Y-40622453D01*
X25570310Y-40622455D01*
X25645636Y-40646930D01*
X25787448Y-40693008D01*
X26012947Y-40728724D01*
X26012952Y-40728724D01*
X26241271Y-40728724D01*
X26466769Y-40693008D01*
X26683908Y-40622455D01*
X26887337Y-40518803D01*
X27072046Y-40384603D01*
X27233488Y-40223161D01*
X27367688Y-40038452D01*
X27471340Y-39835023D01*
X27541893Y-39617884D01*
X27543997Y-39604599D01*
X27577609Y-39392386D01*
X27577609Y-39164061D01*
X30422391Y-39164061D01*
X30422391Y-39392386D01*
X30458106Y-39617884D01*
X30528661Y-39835027D01*
X30553642Y-39884054D01*
X30632312Y-40038452D01*
X30766512Y-40223161D01*
X30927954Y-40384603D01*
X31112663Y-40518803D01*
X31208775Y-40567774D01*
X31316087Y-40622453D01*
X31316089Y-40622453D01*
X31316092Y-40622455D01*
X31391418Y-40646930D01*
X31533230Y-40693008D01*
X31758729Y-40728724D01*
X31758734Y-40728724D01*
X31987053Y-40728724D01*
X32212551Y-40693008D01*
X32429690Y-40622455D01*
X32633119Y-40518803D01*
X32817828Y-40384603D01*
X32979270Y-40223161D01*
X33113470Y-40038452D01*
X33217122Y-39835023D01*
X33287675Y-39617884D01*
X33289779Y-39604599D01*
X33323391Y-39392386D01*
X33323391Y-39164061D01*
X33287675Y-38938563D01*
X33217120Y-38721420D01*
X33113469Y-38517995D01*
X32998486Y-38359736D01*
X32979270Y-38333287D01*
X32817828Y-38171845D01*
X32633119Y-38037645D01*
X32429694Y-37933994D01*
X32212551Y-37863439D01*
X31987053Y-37827724D01*
X31987048Y-37827724D01*
X31758734Y-37827724D01*
X31758729Y-37827724D01*
X31533230Y-37863439D01*
X31316087Y-37933994D01*
X31112662Y-38037645D01*
X30927952Y-38171846D01*
X30766513Y-38333285D01*
X30632312Y-38517995D01*
X30528661Y-38721420D01*
X30458106Y-38938563D01*
X30422391Y-39164061D01*
X27577609Y-39164061D01*
X27541893Y-38938563D01*
X27471338Y-38721420D01*
X27367687Y-38517995D01*
X27252704Y-38359736D01*
X27233488Y-38333287D01*
X27072046Y-38171845D01*
X26887337Y-38037645D01*
X26683912Y-37933994D01*
X26466769Y-37863439D01*
X26241271Y-37827724D01*
X26241266Y-37827724D01*
X26012952Y-37827724D01*
X26012947Y-37827724D01*
X25787448Y-37863439D01*
X25570305Y-37933994D01*
X25366880Y-38037645D01*
X25182170Y-38171846D01*
X25020731Y-38333285D01*
X24886530Y-38517995D01*
X24782879Y-38721420D01*
X24712324Y-38938563D01*
X24676609Y-39164061D01*
X21676700Y-39164061D01*
X21836847Y-39057823D01*
X21842397Y-39054350D01*
X22455971Y-38692806D01*
X22461727Y-38689618D01*
X22484544Y-38677762D01*
X23093647Y-38361255D01*
X23099572Y-38358373D01*
X23748084Y-38064102D01*
X23754113Y-38061558D01*
X24417397Y-37802208D01*
X24423567Y-37799983D01*
X25099682Y-37576313D01*
X25105973Y-37574416D01*
X25793060Y-37387040D01*
X25799395Y-37385492D01*
X26495486Y-37234949D01*
X26501940Y-37233733D01*
X27205016Y-37120456D01*
X27211525Y-37119584D01*
X27919680Y-37043883D01*
X27926215Y-37043360D01*
X28565918Y-37009266D01*
X28637335Y-37005460D01*
X28643934Y-37005284D01*
X29356066Y-37005284D01*
X29362665Y-37005460D01*
G37*
G04 #@! TD.AperFunction*
M02*
