G04 #@! TF.GenerationSoftware,KiCad,Pcbnew,9.0.4-9.0.4-0~ubuntu22.04.1*
G04 #@! TF.CreationDate,2025-10-19T11:47:48+01:00*
G04 #@! TF.ProjectId,CD40106_VCO,43443430-3130-4365-9f56-434f2e6b6963,rev?*
G04 #@! TF.SameCoordinates,Original*
G04 #@! TF.FileFunction,Legend,Top*
G04 #@! TF.FilePolarity,Positive*
%FSLAX46Y46*%
G04 Gerber Fmt 4.6, Leading zero omitted, Abs format (unit mm)*
G04 Created by KiCad (PCBNEW 9.0.4-9.0.4-0~ubuntu22.04.1) date 2025-10-19 11:47:48*
%MOMM*%
%LPD*%
G01*
G04 APERTURE LIST*
%ADD10C,0.150000*%
%ADD11C,0.120000*%
%ADD12C,1.600000*%
%ADD13O,1.600000X1.600000*%
%ADD14O,2.500000X2.500000*%
%ADD15R,1.700000X1.700000*%
%ADD16O,1.700000X1.700000*%
G04 APERTURE END LIST*
D10*
X20241541Y-46869819D02*
X20908207Y-46869819D01*
X20908207Y-46869819D02*
X20479636Y-47869819D01*
X37110588Y-47119819D02*
X36539160Y-47119819D01*
X36824874Y-47119819D02*
X36824874Y-46119819D01*
X36824874Y-46119819D02*
X36729636Y-46262676D01*
X36729636Y-46262676D02*
X36634398Y-46357914D01*
X36634398Y-46357914D02*
X36539160Y-46405533D01*
X37491541Y-46215057D02*
X37539160Y-46167438D01*
X37539160Y-46167438D02*
X37634398Y-46119819D01*
X37634398Y-46119819D02*
X37872493Y-46119819D01*
X37872493Y-46119819D02*
X37967731Y-46167438D01*
X37967731Y-46167438D02*
X38015350Y-46215057D01*
X38015350Y-46215057D02*
X38062969Y-46310295D01*
X38062969Y-46310295D02*
X38062969Y-46405533D01*
X38062969Y-46405533D02*
X38015350Y-46548390D01*
X38015350Y-46548390D02*
X37443922Y-47119819D01*
X37443922Y-47119819D02*
X38062969Y-47119819D01*
X20857142Y-68704819D02*
X20523809Y-68228628D01*
X20285714Y-68704819D02*
X20285714Y-67704819D01*
X20285714Y-67704819D02*
X20666666Y-67704819D01*
X20666666Y-67704819D02*
X20761904Y-67752438D01*
X20761904Y-67752438D02*
X20809523Y-67800057D01*
X20809523Y-67800057D02*
X20857142Y-67895295D01*
X20857142Y-67895295D02*
X20857142Y-68038152D01*
X20857142Y-68038152D02*
X20809523Y-68133390D01*
X20809523Y-68133390D02*
X20761904Y-68181009D01*
X20761904Y-68181009D02*
X20666666Y-68228628D01*
X20666666Y-68228628D02*
X20285714Y-68228628D01*
X21238095Y-67800057D02*
X21285714Y-67752438D01*
X21285714Y-67752438D02*
X21380952Y-67704819D01*
X21380952Y-67704819D02*
X21619047Y-67704819D01*
X21619047Y-67704819D02*
X21714285Y-67752438D01*
X21714285Y-67752438D02*
X21761904Y-67800057D01*
X21761904Y-67800057D02*
X21809523Y-67895295D01*
X21809523Y-67895295D02*
X21809523Y-67990533D01*
X21809523Y-67990533D02*
X21761904Y-68133390D01*
X21761904Y-68133390D02*
X21190476Y-68704819D01*
X21190476Y-68704819D02*
X21809523Y-68704819D01*
X22190476Y-67800057D02*
X22238095Y-67752438D01*
X22238095Y-67752438D02*
X22333333Y-67704819D01*
X22333333Y-67704819D02*
X22571428Y-67704819D01*
X22571428Y-67704819D02*
X22666666Y-67752438D01*
X22666666Y-67752438D02*
X22714285Y-67800057D01*
X22714285Y-67800057D02*
X22761904Y-67895295D01*
X22761904Y-67895295D02*
X22761904Y-67990533D01*
X22761904Y-67990533D02*
X22714285Y-68133390D01*
X22714285Y-68133390D02*
X22142857Y-68704819D01*
X22142857Y-68704819D02*
X22761904Y-68704819D01*
X35857142Y-65454819D02*
X35523809Y-64978628D01*
X35285714Y-65454819D02*
X35285714Y-64454819D01*
X35285714Y-64454819D02*
X35666666Y-64454819D01*
X35666666Y-64454819D02*
X35761904Y-64502438D01*
X35761904Y-64502438D02*
X35809523Y-64550057D01*
X35809523Y-64550057D02*
X35857142Y-64645295D01*
X35857142Y-64645295D02*
X35857142Y-64788152D01*
X35857142Y-64788152D02*
X35809523Y-64883390D01*
X35809523Y-64883390D02*
X35761904Y-64931009D01*
X35761904Y-64931009D02*
X35666666Y-64978628D01*
X35666666Y-64978628D02*
X35285714Y-64978628D01*
X36238095Y-64550057D02*
X36285714Y-64502438D01*
X36285714Y-64502438D02*
X36380952Y-64454819D01*
X36380952Y-64454819D02*
X36619047Y-64454819D01*
X36619047Y-64454819D02*
X36714285Y-64502438D01*
X36714285Y-64502438D02*
X36761904Y-64550057D01*
X36761904Y-64550057D02*
X36809523Y-64645295D01*
X36809523Y-64645295D02*
X36809523Y-64740533D01*
X36809523Y-64740533D02*
X36761904Y-64883390D01*
X36761904Y-64883390D02*
X36190476Y-65454819D01*
X36190476Y-65454819D02*
X36809523Y-65454819D01*
X37714285Y-64454819D02*
X37238095Y-64454819D01*
X37238095Y-64454819D02*
X37190476Y-64931009D01*
X37190476Y-64931009D02*
X37238095Y-64883390D01*
X37238095Y-64883390D02*
X37333333Y-64835771D01*
X37333333Y-64835771D02*
X37571428Y-64835771D01*
X37571428Y-64835771D02*
X37666666Y-64883390D01*
X37666666Y-64883390D02*
X37714285Y-64931009D01*
X37714285Y-64931009D02*
X37761904Y-65026247D01*
X37761904Y-65026247D02*
X37761904Y-65264342D01*
X37761904Y-65264342D02*
X37714285Y-65359580D01*
X37714285Y-65359580D02*
X37666666Y-65407200D01*
X37666666Y-65407200D02*
X37571428Y-65454819D01*
X37571428Y-65454819D02*
X37333333Y-65454819D01*
X37333333Y-65454819D02*
X37238095Y-65407200D01*
X37238095Y-65407200D02*
X37190476Y-65359580D01*
X35857142Y-68704819D02*
X35523809Y-68228628D01*
X35285714Y-68704819D02*
X35285714Y-67704819D01*
X35285714Y-67704819D02*
X35666666Y-67704819D01*
X35666666Y-67704819D02*
X35761904Y-67752438D01*
X35761904Y-67752438D02*
X35809523Y-67800057D01*
X35809523Y-67800057D02*
X35857142Y-67895295D01*
X35857142Y-67895295D02*
X35857142Y-68038152D01*
X35857142Y-68038152D02*
X35809523Y-68133390D01*
X35809523Y-68133390D02*
X35761904Y-68181009D01*
X35761904Y-68181009D02*
X35666666Y-68228628D01*
X35666666Y-68228628D02*
X35285714Y-68228628D01*
X36238095Y-67800057D02*
X36285714Y-67752438D01*
X36285714Y-67752438D02*
X36380952Y-67704819D01*
X36380952Y-67704819D02*
X36619047Y-67704819D01*
X36619047Y-67704819D02*
X36714285Y-67752438D01*
X36714285Y-67752438D02*
X36761904Y-67800057D01*
X36761904Y-67800057D02*
X36809523Y-67895295D01*
X36809523Y-67895295D02*
X36809523Y-67990533D01*
X36809523Y-67990533D02*
X36761904Y-68133390D01*
X36761904Y-68133390D02*
X36190476Y-68704819D01*
X36190476Y-68704819D02*
X36809523Y-68704819D01*
X37666666Y-67704819D02*
X37476190Y-67704819D01*
X37476190Y-67704819D02*
X37380952Y-67752438D01*
X37380952Y-67752438D02*
X37333333Y-67800057D01*
X37333333Y-67800057D02*
X37238095Y-67942914D01*
X37238095Y-67942914D02*
X37190476Y-68133390D01*
X37190476Y-68133390D02*
X37190476Y-68514342D01*
X37190476Y-68514342D02*
X37238095Y-68609580D01*
X37238095Y-68609580D02*
X37285714Y-68657200D01*
X37285714Y-68657200D02*
X37380952Y-68704819D01*
X37380952Y-68704819D02*
X37571428Y-68704819D01*
X37571428Y-68704819D02*
X37666666Y-68657200D01*
X37666666Y-68657200D02*
X37714285Y-68609580D01*
X37714285Y-68609580D02*
X37761904Y-68514342D01*
X37761904Y-68514342D02*
X37761904Y-68276247D01*
X37761904Y-68276247D02*
X37714285Y-68181009D01*
X37714285Y-68181009D02*
X37666666Y-68133390D01*
X37666666Y-68133390D02*
X37571428Y-68085771D01*
X37571428Y-68085771D02*
X37380952Y-68085771D01*
X37380952Y-68085771D02*
X37285714Y-68133390D01*
X37285714Y-68133390D02*
X37238095Y-68181009D01*
X37238095Y-68181009D02*
X37190476Y-68276247D01*
X20857142Y-71954819D02*
X20523809Y-71478628D01*
X20285714Y-71954819D02*
X20285714Y-70954819D01*
X20285714Y-70954819D02*
X20666666Y-70954819D01*
X20666666Y-70954819D02*
X20761904Y-71002438D01*
X20761904Y-71002438D02*
X20809523Y-71050057D01*
X20809523Y-71050057D02*
X20857142Y-71145295D01*
X20857142Y-71145295D02*
X20857142Y-71288152D01*
X20857142Y-71288152D02*
X20809523Y-71383390D01*
X20809523Y-71383390D02*
X20761904Y-71431009D01*
X20761904Y-71431009D02*
X20666666Y-71478628D01*
X20666666Y-71478628D02*
X20285714Y-71478628D01*
X21238095Y-71050057D02*
X21285714Y-71002438D01*
X21285714Y-71002438D02*
X21380952Y-70954819D01*
X21380952Y-70954819D02*
X21619047Y-70954819D01*
X21619047Y-70954819D02*
X21714285Y-71002438D01*
X21714285Y-71002438D02*
X21761904Y-71050057D01*
X21761904Y-71050057D02*
X21809523Y-71145295D01*
X21809523Y-71145295D02*
X21809523Y-71240533D01*
X21809523Y-71240533D02*
X21761904Y-71383390D01*
X21761904Y-71383390D02*
X21190476Y-71954819D01*
X21190476Y-71954819D02*
X21809523Y-71954819D01*
X22142857Y-70954819D02*
X22761904Y-70954819D01*
X22761904Y-70954819D02*
X22428571Y-71335771D01*
X22428571Y-71335771D02*
X22571428Y-71335771D01*
X22571428Y-71335771D02*
X22666666Y-71383390D01*
X22666666Y-71383390D02*
X22714285Y-71431009D01*
X22714285Y-71431009D02*
X22761904Y-71526247D01*
X22761904Y-71526247D02*
X22761904Y-71764342D01*
X22761904Y-71764342D02*
X22714285Y-71859580D01*
X22714285Y-71859580D02*
X22666666Y-71907200D01*
X22666666Y-71907200D02*
X22571428Y-71954819D01*
X22571428Y-71954819D02*
X22285714Y-71954819D01*
X22285714Y-71954819D02*
X22190476Y-71907200D01*
X22190476Y-71907200D02*
X22142857Y-71859580D01*
X29407200Y-44583332D02*
X29454819Y-44440475D01*
X29454819Y-44440475D02*
X29454819Y-44202380D01*
X29454819Y-44202380D02*
X29407200Y-44107142D01*
X29407200Y-44107142D02*
X29359580Y-44059523D01*
X29359580Y-44059523D02*
X29264342Y-44011904D01*
X29264342Y-44011904D02*
X29169104Y-44011904D01*
X29169104Y-44011904D02*
X29073866Y-44059523D01*
X29073866Y-44059523D02*
X29026247Y-44107142D01*
X29026247Y-44107142D02*
X28978628Y-44202380D01*
X28978628Y-44202380D02*
X28931009Y-44392856D01*
X28931009Y-44392856D02*
X28883390Y-44488094D01*
X28883390Y-44488094D02*
X28835771Y-44535713D01*
X28835771Y-44535713D02*
X28740533Y-44583332D01*
X28740533Y-44583332D02*
X28645295Y-44583332D01*
X28645295Y-44583332D02*
X28550057Y-44535713D01*
X28550057Y-44535713D02*
X28502438Y-44488094D01*
X28502438Y-44488094D02*
X28454819Y-44392856D01*
X28454819Y-44392856D02*
X28454819Y-44154761D01*
X28454819Y-44154761D02*
X28502438Y-44011904D01*
X28454819Y-43678570D02*
X29454819Y-43440475D01*
X29454819Y-43440475D02*
X28740533Y-43249999D01*
X28740533Y-43249999D02*
X29454819Y-43059523D01*
X29454819Y-43059523D02*
X28454819Y-42821428D01*
X29454819Y-41916666D02*
X29454819Y-42488094D01*
X29454819Y-42202380D02*
X28454819Y-42202380D01*
X28454819Y-42202380D02*
X28597676Y-42297618D01*
X28597676Y-42297618D02*
X28692914Y-42392856D01*
X28692914Y-42392856D02*
X28740533Y-42488094D01*
X20857142Y-65454819D02*
X20523809Y-64978628D01*
X20285714Y-65454819D02*
X20285714Y-64454819D01*
X20285714Y-64454819D02*
X20666666Y-64454819D01*
X20666666Y-64454819D02*
X20761904Y-64502438D01*
X20761904Y-64502438D02*
X20809523Y-64550057D01*
X20809523Y-64550057D02*
X20857142Y-64645295D01*
X20857142Y-64645295D02*
X20857142Y-64788152D01*
X20857142Y-64788152D02*
X20809523Y-64883390D01*
X20809523Y-64883390D02*
X20761904Y-64931009D01*
X20761904Y-64931009D02*
X20666666Y-64978628D01*
X20666666Y-64978628D02*
X20285714Y-64978628D01*
X21238095Y-64550057D02*
X21285714Y-64502438D01*
X21285714Y-64502438D02*
X21380952Y-64454819D01*
X21380952Y-64454819D02*
X21619047Y-64454819D01*
X21619047Y-64454819D02*
X21714285Y-64502438D01*
X21714285Y-64502438D02*
X21761904Y-64550057D01*
X21761904Y-64550057D02*
X21809523Y-64645295D01*
X21809523Y-64645295D02*
X21809523Y-64740533D01*
X21809523Y-64740533D02*
X21761904Y-64883390D01*
X21761904Y-64883390D02*
X21190476Y-65454819D01*
X21190476Y-65454819D02*
X21809523Y-65454819D01*
X22428571Y-64454819D02*
X22523809Y-64454819D01*
X22523809Y-64454819D02*
X22619047Y-64502438D01*
X22619047Y-64502438D02*
X22666666Y-64550057D01*
X22666666Y-64550057D02*
X22714285Y-64645295D01*
X22714285Y-64645295D02*
X22761904Y-64835771D01*
X22761904Y-64835771D02*
X22761904Y-65073866D01*
X22761904Y-65073866D02*
X22714285Y-65264342D01*
X22714285Y-65264342D02*
X22666666Y-65359580D01*
X22666666Y-65359580D02*
X22619047Y-65407200D01*
X22619047Y-65407200D02*
X22523809Y-65454819D01*
X22523809Y-65454819D02*
X22428571Y-65454819D01*
X22428571Y-65454819D02*
X22333333Y-65407200D01*
X22333333Y-65407200D02*
X22285714Y-65359580D01*
X22285714Y-65359580D02*
X22238095Y-65264342D01*
X22238095Y-65264342D02*
X22190476Y-65073866D01*
X22190476Y-65073866D02*
X22190476Y-64835771D01*
X22190476Y-64835771D02*
X22238095Y-64645295D01*
X22238095Y-64645295D02*
X22285714Y-64550057D01*
X22285714Y-64550057D02*
X22333333Y-64502438D01*
X22333333Y-64502438D02*
X22428571Y-64454819D01*
D11*
X17460000Y-68250000D02*
X18230000Y-68250000D01*
X18230000Y-66880000D02*
X18230000Y-69620000D01*
X18230000Y-69620000D02*
X24770000Y-69620000D01*
X24770000Y-66880000D02*
X18230000Y-66880000D01*
X24770000Y-69620000D02*
X24770000Y-66880000D01*
X25540000Y-68250000D02*
X24770000Y-68250000D01*
X32460000Y-65000000D02*
X33230000Y-65000000D01*
X33230000Y-63630000D02*
X33230000Y-66370000D01*
X33230000Y-66370000D02*
X39770000Y-66370000D01*
X39770000Y-63630000D02*
X33230000Y-63630000D01*
X39770000Y-66370000D02*
X39770000Y-63630000D01*
X40540000Y-65000000D02*
X39770000Y-65000000D01*
X32460000Y-68250000D02*
X33230000Y-68250000D01*
X33230000Y-66880000D02*
X33230000Y-69620000D01*
X33230000Y-69620000D02*
X39770000Y-69620000D01*
X39770000Y-66880000D02*
X33230000Y-66880000D01*
X39770000Y-69620000D02*
X39770000Y-66880000D01*
X40540000Y-68250000D02*
X39770000Y-68250000D01*
X17460000Y-71500000D02*
X18230000Y-71500000D01*
X18230000Y-70130000D02*
X18230000Y-72870000D01*
X18230000Y-72870000D02*
X24770000Y-72870000D01*
X24770000Y-70130000D02*
X18230000Y-70130000D01*
X24770000Y-72870000D02*
X24770000Y-70130000D01*
X25540000Y-71500000D02*
X24770000Y-71500000D01*
X42100000Y-50000000D02*
G75*
G02*
X15900000Y-50000000I-13100000J0D01*
G01*
X15900000Y-50000000D02*
G75*
G02*
X42100000Y-50000000I13100000J0D01*
G01*
X17460000Y-65000000D02*
X18230000Y-65000000D01*
X18230000Y-63630000D02*
X18230000Y-66370000D01*
X18230000Y-66370000D02*
X24770000Y-66370000D01*
X24770000Y-63630000D02*
X18230000Y-63630000D01*
X24770000Y-66370000D02*
X24770000Y-63630000D01*
X25540000Y-65000000D02*
X24770000Y-65000000D01*
%LPC*%
D12*
X16420000Y-68250000D03*
D13*
X26580000Y-68250000D03*
D12*
X41580000Y-65000000D03*
D13*
X31420000Y-65000000D03*
D12*
X31420000Y-68250000D03*
D13*
X41580000Y-68250000D03*
D12*
X26580000Y-71500000D03*
D13*
X16420000Y-71500000D03*
D14*
X18278224Y-47127109D03*
X21151115Y-42151115D03*
X26127109Y-39278224D03*
X31872891Y-39278224D03*
X36848885Y-42151115D03*
X39721776Y-47127109D03*
X39721776Y-52872891D03*
X36848885Y-57848885D03*
X31872891Y-60721776D03*
X26127109Y-60721776D03*
X21151115Y-57848885D03*
X18278224Y-52872891D03*
X26277639Y-47277639D03*
X31722361Y-47277639D03*
X31722361Y-52722361D03*
X26277639Y-52722361D03*
D12*
X16420000Y-65000000D03*
D13*
X26580000Y-65000000D03*
D15*
X40500000Y-72250000D03*
D16*
X37960000Y-72250000D03*
X35420000Y-72250000D03*
X32880000Y-72250000D03*
%LPD*%
M02*
