G04 #@! TF.GenerationSoftware,KiCad,Pcbnew,7.0.7-7.0.7~ubuntu22.04.1*
G04 #@! TF.CreationDate,2023-12-10T22:01:07+01:00*
G04 #@! TF.ProjectId,CD40106_VCO,43443430-3130-4365-9f56-434f2e6b6963,rev?*
G04 #@! TF.SameCoordinates,Original*
G04 #@! TF.FileFunction,Copper,L1,Top*
G04 #@! TF.FilePolarity,Positive*
%FSLAX46Y46*%
G04 Gerber Fmt 4.6, Leading zero omitted, Abs format (unit mm)*
G04 Created by KiCad (PCBNEW 7.0.7-7.0.7~ubuntu22.04.1) date 2023-12-10 22:01:07*
%MOMM*%
%LPD*%
G01*
G04 APERTURE LIST*
G04 #@! TA.AperFunction,ComponentPad*
%ADD10C,1.600000*%
G04 #@! TD*
G04 #@! TA.AperFunction,ComponentPad*
%ADD11O,1.600000X1.600000*%
G04 #@! TD*
G04 #@! TA.AperFunction,ComponentPad*
%ADD12O,2.500000X2.500000*%
G04 #@! TD*
G04 #@! TA.AperFunction,ComponentPad*
%ADD13R,1.700000X1.700000*%
G04 #@! TD*
G04 #@! TA.AperFunction,ComponentPad*
%ADD14O,1.700000X1.700000*%
G04 #@! TD*
G04 #@! TA.AperFunction,Conductor*
%ADD15C,0.300000*%
G04 #@! TD*
G04 APERTURE END LIST*
D10*
X104920000Y-105850000D03*
D11*
X115080000Y-105850000D03*
D10*
X130080000Y-102600000D03*
D11*
X119920000Y-102600000D03*
D10*
X119920000Y-105850000D03*
D11*
X130080000Y-105850000D03*
D10*
X115080000Y-109100000D03*
D11*
X104920000Y-109100000D03*
D12*
X106778224Y-84727109D03*
X109651115Y-79751115D03*
X114627109Y-76878224D03*
X120372891Y-76878224D03*
X125348885Y-79751115D03*
X128221776Y-84727109D03*
X128221776Y-90472891D03*
X125348885Y-95448885D03*
X120372891Y-98321776D03*
X114627109Y-98321776D03*
X109651115Y-95448885D03*
X106778224Y-90472891D03*
X114777639Y-84877639D03*
X120222361Y-84877639D03*
X120222361Y-90322361D03*
X114777639Y-90322361D03*
D10*
X104920000Y-102600000D03*
D11*
X115080000Y-102600000D03*
D13*
X129000000Y-109850000D03*
D14*
X126460000Y-109850000D03*
X123920000Y-109850000D03*
X121380000Y-109850000D03*
D15*
X123920000Y-109850000D02*
X121570000Y-107500000D01*
X116730000Y-107500000D02*
X115080000Y-105850000D01*
X109491476Y-79751115D02*
X109651115Y-79751115D01*
X104920000Y-102600000D02*
X104920000Y-84322591D01*
X121570000Y-107500000D02*
X116730000Y-107500000D01*
X104920000Y-84322591D02*
X109491476Y-79751115D01*
X104920000Y-105850000D02*
X104920000Y-109100000D01*
X111251115Y-90148885D02*
X111251115Y-81048885D01*
X114627109Y-77672891D02*
X114627109Y-76878224D01*
X111251115Y-81048885D02*
X114627109Y-77672891D01*
X107700000Y-103070000D02*
X107700000Y-93700000D01*
X104920000Y-105850000D02*
X107700000Y-103070000D01*
X107700000Y-93700000D02*
X111251115Y-90148885D01*
X120372891Y-76878224D02*
X113027109Y-84224006D01*
X113027109Y-84224006D02*
X113027109Y-107047109D01*
X113027109Y-107047109D02*
X115080000Y-109100000D01*
X125601115Y-79751115D02*
X125348885Y-79751115D01*
X130080000Y-84230000D02*
X125601115Y-79751115D01*
X130080000Y-102600000D02*
X130080000Y-84230000D01*
X130080000Y-105850000D02*
X130080000Y-102600000D01*
X122200000Y-103570000D02*
X119920000Y-105850000D01*
X126460000Y-109850000D02*
X122460000Y-105850000D01*
X122200000Y-90748885D02*
X122200000Y-103570000D01*
X122460000Y-105850000D02*
X119920000Y-105850000D01*
X128221776Y-84727109D02*
X122200000Y-90748885D01*
G04 #@! TA.AperFunction,Conductor*
G36*
X117861013Y-74605371D02*
G01*
X118575426Y-74643448D01*
X118578696Y-74643709D01*
X118934400Y-74681734D01*
X119290099Y-74719758D01*
X119293344Y-74720192D01*
X119999704Y-74833998D01*
X120002901Y-74834601D01*
X120702211Y-74985840D01*
X120705334Y-74986602D01*
X121395613Y-75174849D01*
X121398750Y-75175794D01*
X122078000Y-75400502D01*
X122081084Y-75401615D01*
X122747409Y-75662153D01*
X122750426Y-75663427D01*
X123401930Y-75959055D01*
X123404888Y-75960494D01*
X124039737Y-76290379D01*
X124042619Y-76291975D01*
X124659007Y-76655178D01*
X124661793Y-76656922D01*
X125257974Y-77052414D01*
X125260660Y-77054300D01*
X125834968Y-77480976D01*
X125837544Y-77483000D01*
X126388316Y-77939628D01*
X126390765Y-77941770D01*
X126906887Y-78418231D01*
X126916466Y-78427074D01*
X126918828Y-78429374D01*
X127163145Y-78680284D01*
X127417933Y-78941947D01*
X127420163Y-78944363D01*
X127712560Y-79278525D01*
X127891289Y-79482783D01*
X127893385Y-79485310D01*
X128335204Y-80048063D01*
X128337145Y-80050676D01*
X128748378Y-80636136D01*
X128750203Y-80638887D01*
X128909086Y-80892817D01*
X129129681Y-81245379D01*
X129131346Y-81248205D01*
X129478008Y-81874037D01*
X129479530Y-81876966D01*
X129639483Y-82205903D01*
X129792400Y-82520374D01*
X129793756Y-82523363D01*
X130071930Y-83182491D01*
X130073132Y-83185566D01*
X130190341Y-83510583D01*
X130194566Y-83580325D01*
X130160415Y-83641280D01*
X130098731Y-83674095D01*
X130029098Y-83668352D01*
X129986013Y-83640330D01*
X126737804Y-80392122D01*
X126704319Y-80330799D01*
X126709303Y-80261107D01*
X126711913Y-80254667D01*
X126725495Y-80223706D01*
X126784505Y-79990678D01*
X126804356Y-79751115D01*
X126784505Y-79511552D01*
X126725495Y-79278524D01*
X126628934Y-79058387D01*
X126497456Y-78857146D01*
X126334649Y-78680290D01*
X126334644Y-78680286D01*
X126334642Y-78680284D01*
X126144960Y-78532648D01*
X126144954Y-78532644D01*
X125933542Y-78418233D01*
X125933537Y-78418231D01*
X125706185Y-78340181D01*
X125528353Y-78310506D01*
X125469077Y-78300615D01*
X125228693Y-78300615D01*
X125181272Y-78308528D01*
X124991584Y-78340181D01*
X124764232Y-78418231D01*
X124764227Y-78418233D01*
X124552815Y-78532644D01*
X124552809Y-78532648D01*
X124363127Y-78680284D01*
X124363124Y-78680287D01*
X124200315Y-78857144D01*
X124200312Y-78857148D01*
X124068836Y-79058385D01*
X123972274Y-79278525D01*
X123913264Y-79511555D01*
X123893414Y-79751109D01*
X123893414Y-79751120D01*
X123913264Y-79990674D01*
X123972274Y-80223704D01*
X124068836Y-80443844D01*
X124192269Y-80632771D01*
X124200314Y-80645084D01*
X124363121Y-80821940D01*
X124363124Y-80821942D01*
X124363127Y-80821945D01*
X124552809Y-80969581D01*
X124552815Y-80969585D01*
X124552818Y-80969587D01*
X124726284Y-81063462D01*
X124764221Y-81083993D01*
X124764229Y-81083997D01*
X124764232Y-81083998D01*
X124991584Y-81162048D01*
X124991586Y-81162048D01*
X124991588Y-81162049D01*
X125228693Y-81201615D01*
X125228694Y-81201615D01*
X125469076Y-81201615D01*
X125469077Y-81201615D01*
X125706182Y-81162049D01*
X125933541Y-81083997D01*
X126144952Y-80969587D01*
X126159168Y-80958521D01*
X126224161Y-80932879D01*
X126292701Y-80946445D01*
X126323012Y-80968694D01*
X128419247Y-83064928D01*
X128452732Y-83126251D01*
X128447748Y-83195943D01*
X128405876Y-83251876D01*
X128340412Y-83276293D01*
X128331566Y-83276609D01*
X128101584Y-83276609D01*
X128054163Y-83284522D01*
X127864475Y-83316175D01*
X127637123Y-83394225D01*
X127637118Y-83394227D01*
X127425706Y-83508638D01*
X127425700Y-83508642D01*
X127236018Y-83656278D01*
X127236015Y-83656281D01*
X127236012Y-83656283D01*
X127236012Y-83656284D01*
X127224903Y-83668352D01*
X127073206Y-83833138D01*
X127073203Y-83833142D01*
X126941727Y-84034379D01*
X126845165Y-84254519D01*
X126786155Y-84487549D01*
X126766305Y-84727103D01*
X126766305Y-84727114D01*
X126786155Y-84966668D01*
X126845165Y-85199698D01*
X126935635Y-85405950D01*
X126944538Y-85475250D01*
X126914560Y-85538362D01*
X126909760Y-85543441D01*
X121986955Y-90466246D01*
X121967106Y-90482367D01*
X121959331Y-90487447D01*
X121939143Y-90513383D01*
X121934067Y-90519133D01*
X121931634Y-90521566D01*
X121931624Y-90521578D01*
X121918954Y-90539324D01*
X121884808Y-90583195D01*
X121828097Y-90624008D01*
X121758324Y-90627683D01*
X121697641Y-90593052D01*
X121665314Y-90531110D01*
X121663378Y-90496793D01*
X121677832Y-90322366D01*
X121677832Y-90322355D01*
X121657981Y-90082801D01*
X121657981Y-90082798D01*
X121598971Y-89849770D01*
X121502410Y-89629633D01*
X121469277Y-89578920D01*
X121436671Y-89529012D01*
X121370932Y-89428392D01*
X121208125Y-89251536D01*
X121208120Y-89251532D01*
X121208118Y-89251530D01*
X121018436Y-89103894D01*
X121018430Y-89103890D01*
X120807018Y-88989479D01*
X120807013Y-88989477D01*
X120579661Y-88911427D01*
X120401829Y-88881752D01*
X120342553Y-88871861D01*
X120102169Y-88871861D01*
X120054747Y-88879774D01*
X119865060Y-88911427D01*
X119637708Y-88989477D01*
X119637703Y-88989479D01*
X119426291Y-89103890D01*
X119426285Y-89103894D01*
X119236603Y-89251530D01*
X119236600Y-89251533D01*
X119236597Y-89251535D01*
X119236597Y-89251536D01*
X119200655Y-89290578D01*
X119073791Y-89428390D01*
X119073788Y-89428394D01*
X118942312Y-89629631D01*
X118845750Y-89849771D01*
X118786740Y-90082801D01*
X118766890Y-90322355D01*
X118766890Y-90322366D01*
X118786740Y-90561920D01*
X118845750Y-90794950D01*
X118942312Y-91015090D01*
X119050138Y-91180128D01*
X119073790Y-91216330D01*
X119236597Y-91393186D01*
X119236600Y-91393188D01*
X119236603Y-91393191D01*
X119426285Y-91540827D01*
X119426291Y-91540831D01*
X119426294Y-91540833D01*
X119637705Y-91655243D01*
X119637708Y-91655244D01*
X119865060Y-91733294D01*
X119865062Y-91733294D01*
X119865064Y-91733295D01*
X120102169Y-91772861D01*
X120102170Y-91772861D01*
X120342552Y-91772861D01*
X120342553Y-91772861D01*
X120579658Y-91733295D01*
X120807017Y-91655243D01*
X121018428Y-91540833D01*
X121208125Y-91393186D01*
X121370932Y-91216330D01*
X121502410Y-91015089D01*
X121598971Y-90794952D01*
X121605293Y-90769984D01*
X121640829Y-90709830D01*
X121703248Y-90678435D01*
X121772732Y-90685770D01*
X121827219Y-90729506D01*
X121849411Y-90795758D01*
X121849499Y-90800422D01*
X121849499Y-97513396D01*
X121829814Y-97580435D01*
X121777010Y-97626190D01*
X121707852Y-97636134D01*
X121644296Y-97607109D01*
X121621691Y-97581218D01*
X121521463Y-97427809D01*
X121521462Y-97427807D01*
X121358655Y-97250951D01*
X121358650Y-97250947D01*
X121358648Y-97250945D01*
X121168966Y-97103309D01*
X121168960Y-97103305D01*
X120957548Y-96988894D01*
X120957543Y-96988892D01*
X120730191Y-96910842D01*
X120552359Y-96881167D01*
X120493083Y-96871276D01*
X120252699Y-96871276D01*
X120205278Y-96879189D01*
X120015590Y-96910842D01*
X119788238Y-96988892D01*
X119788233Y-96988894D01*
X119576821Y-97103305D01*
X119576815Y-97103309D01*
X119387133Y-97250945D01*
X119387130Y-97250948D01*
X119224321Y-97427805D01*
X119224318Y-97427809D01*
X119092842Y-97629046D01*
X118996280Y-97849186D01*
X118937270Y-98082216D01*
X118917420Y-98321770D01*
X118917420Y-98321781D01*
X118937270Y-98561335D01*
X118996280Y-98794365D01*
X119092842Y-99014505D01*
X119124090Y-99062333D01*
X119224320Y-99215745D01*
X119387127Y-99392601D01*
X119387130Y-99392603D01*
X119387133Y-99392606D01*
X119576815Y-99540242D01*
X119576821Y-99540246D01*
X119576824Y-99540248D01*
X119788235Y-99654658D01*
X119788238Y-99654659D01*
X120015590Y-99732709D01*
X120015592Y-99732709D01*
X120015594Y-99732710D01*
X120252699Y-99772276D01*
X120252700Y-99772276D01*
X120493082Y-99772276D01*
X120493083Y-99772276D01*
X120730188Y-99732710D01*
X120957547Y-99654658D01*
X121168958Y-99540248D01*
X121358655Y-99392601D01*
X121521462Y-99215745D01*
X121621693Y-99062329D01*
X121674837Y-99016977D01*
X121744068Y-99007553D01*
X121807404Y-99037055D01*
X121844735Y-99096115D01*
X121849499Y-99130155D01*
X121849499Y-103373455D01*
X121829814Y-103440494D01*
X121813180Y-103461136D01*
X120394419Y-104879897D01*
X120333096Y-104913382D01*
X120270743Y-104910877D01*
X120116130Y-104863975D01*
X119920000Y-104844659D01*
X119723870Y-104863975D01*
X119535266Y-104921188D01*
X119361467Y-105014086D01*
X119361460Y-105014090D01*
X119209116Y-105139116D01*
X119084090Y-105291460D01*
X119084086Y-105291467D01*
X118991188Y-105465266D01*
X118933975Y-105653870D01*
X118914659Y-105850000D01*
X118933975Y-106046129D01*
X118991188Y-106234733D01*
X119084086Y-106408532D01*
X119084090Y-106408539D01*
X119209116Y-106560883D01*
X119361460Y-106685909D01*
X119361467Y-106685913D01*
X119535266Y-106778811D01*
X119535269Y-106778811D01*
X119535273Y-106778814D01*
X119723868Y-106836024D01*
X119920000Y-106855341D01*
X120116132Y-106836024D01*
X120304727Y-106778814D01*
X120478538Y-106685910D01*
X120630883Y-106560883D01*
X120755910Y-106408538D01*
X120800872Y-106324420D01*
X120832074Y-106266047D01*
X120881036Y-106216203D01*
X120941432Y-106200500D01*
X122263456Y-106200500D01*
X122330495Y-106220185D01*
X122351137Y-106236819D01*
X125449808Y-109335490D01*
X125483293Y-109396813D01*
X125480788Y-109459166D01*
X125424699Y-109644067D01*
X125404417Y-109850000D01*
X125424699Y-110055932D01*
X125437684Y-110098738D01*
X125484768Y-110253954D01*
X125582315Y-110436450D01*
X125582317Y-110436452D01*
X125713589Y-110596410D01*
X125810209Y-110675702D01*
X125873550Y-110727685D01*
X126056046Y-110825232D01*
X126254066Y-110885300D01*
X126254065Y-110885300D01*
X126274348Y-110887297D01*
X126460000Y-110905583D01*
X126665934Y-110885300D01*
X126863954Y-110825232D01*
X127046450Y-110727685D01*
X127056116Y-110719752D01*
X127949500Y-110719752D01*
X127961131Y-110778229D01*
X127961132Y-110778230D01*
X128005447Y-110844552D01*
X128071769Y-110888867D01*
X128071770Y-110888868D01*
X128130247Y-110900499D01*
X128130250Y-110900500D01*
X128130252Y-110900500D01*
X129869750Y-110900500D01*
X129869751Y-110900499D01*
X129884568Y-110897552D01*
X129928229Y-110888868D01*
X129928229Y-110888867D01*
X129928231Y-110888867D01*
X129994552Y-110844552D01*
X130038867Y-110778231D01*
X130038867Y-110778229D01*
X130038868Y-110778229D01*
X130048922Y-110727682D01*
X130050500Y-110719748D01*
X130050500Y-108980252D01*
X130050500Y-108980251D01*
X130050500Y-108980249D01*
X130050499Y-108980247D01*
X130038868Y-108921770D01*
X130038867Y-108921769D01*
X129994552Y-108855447D01*
X129928230Y-108811132D01*
X129928229Y-108811131D01*
X129869752Y-108799500D01*
X129869748Y-108799500D01*
X128130252Y-108799500D01*
X128130247Y-108799500D01*
X128071770Y-108811131D01*
X128071769Y-108811132D01*
X128005447Y-108855447D01*
X127961132Y-108921769D01*
X127961131Y-108921770D01*
X127949500Y-108980247D01*
X127949500Y-110719752D01*
X127056116Y-110719752D01*
X127206410Y-110596410D01*
X127337685Y-110436450D01*
X127435232Y-110253954D01*
X127495300Y-110055934D01*
X127515583Y-109850000D01*
X127495300Y-109644066D01*
X127435232Y-109446046D01*
X127337685Y-109263550D01*
X127262897Y-109172420D01*
X127206410Y-109103589D01*
X127056121Y-108980252D01*
X127046450Y-108972315D01*
X126863954Y-108874768D01*
X126665934Y-108814700D01*
X126665932Y-108814699D01*
X126665934Y-108814699D01*
X126460000Y-108794417D01*
X126254067Y-108814699D01*
X126069166Y-108870788D01*
X125999299Y-108871411D01*
X125945490Y-108839808D01*
X122742637Y-105636955D01*
X122726511Y-105617098D01*
X122721437Y-105609331D01*
X122695487Y-105589133D01*
X122689741Y-105584059D01*
X122687307Y-105581625D01*
X122687306Y-105581624D01*
X122687305Y-105581623D01*
X122680848Y-105577013D01*
X122669561Y-105568955D01*
X122629126Y-105537483D01*
X122629122Y-105537481D01*
X122622648Y-105533977D01*
X122616069Y-105530760D01*
X122566954Y-105516138D01*
X122518486Y-105499498D01*
X122511269Y-105498294D01*
X122503953Y-105497382D01*
X122454725Y-105499419D01*
X122452769Y-105499500D01*
X121065543Y-105499500D01*
X120998504Y-105479815D01*
X120952749Y-105427011D01*
X120942805Y-105357853D01*
X120971830Y-105294297D01*
X120977862Y-105287819D01*
X121327755Y-104937926D01*
X122413043Y-103852636D01*
X122432894Y-103836516D01*
X122440669Y-103831437D01*
X122460864Y-103805488D01*
X122465942Y-103799737D01*
X122468375Y-103797306D01*
X122481038Y-103779569D01*
X122512517Y-103739126D01*
X122512519Y-103739119D01*
X122516017Y-103732655D01*
X122519235Y-103726072D01*
X122519240Y-103726066D01*
X122533861Y-103676954D01*
X122550500Y-103628488D01*
X122550500Y-103628479D01*
X122551706Y-103621256D01*
X122552617Y-103613952D01*
X122550500Y-103562768D01*
X122550500Y-95448890D01*
X123893414Y-95448890D01*
X123913264Y-95688444D01*
X123972274Y-95921474D01*
X124068836Y-96141614D01*
X124200312Y-96342851D01*
X124200314Y-96342854D01*
X124363121Y-96519710D01*
X124363124Y-96519712D01*
X124363127Y-96519715D01*
X124552809Y-96667351D01*
X124552815Y-96667355D01*
X124552818Y-96667357D01*
X124764229Y-96781767D01*
X124764232Y-96781768D01*
X124991584Y-96859818D01*
X124991586Y-96859818D01*
X124991588Y-96859819D01*
X125228693Y-96899385D01*
X125228694Y-96899385D01*
X125469076Y-96899385D01*
X125469077Y-96899385D01*
X125706182Y-96859819D01*
X125933541Y-96781767D01*
X126144952Y-96667357D01*
X126334649Y-96519710D01*
X126497456Y-96342854D01*
X126628934Y-96141613D01*
X126725495Y-95921476D01*
X126784505Y-95688448D01*
X126804356Y-95448885D01*
X126784505Y-95209322D01*
X126725495Y-94976294D01*
X126628934Y-94756157D01*
X126497456Y-94554916D01*
X126334649Y-94378060D01*
X126334644Y-94378056D01*
X126334642Y-94378054D01*
X126144960Y-94230418D01*
X126144954Y-94230414D01*
X125933542Y-94116003D01*
X125933537Y-94116001D01*
X125706185Y-94037951D01*
X125528353Y-94008276D01*
X125469077Y-93998385D01*
X125228693Y-93998385D01*
X125181271Y-94006298D01*
X124991584Y-94037951D01*
X124764232Y-94116001D01*
X124764227Y-94116003D01*
X124552815Y-94230414D01*
X124552809Y-94230418D01*
X124363127Y-94378054D01*
X124363124Y-94378057D01*
X124200315Y-94554914D01*
X124200312Y-94554918D01*
X124068836Y-94756155D01*
X123972274Y-94976295D01*
X123913264Y-95209325D01*
X123893414Y-95448879D01*
X123893414Y-95448890D01*
X122550500Y-95448890D01*
X122550500Y-90945427D01*
X122570185Y-90878388D01*
X122586814Y-90857751D01*
X127407875Y-86036690D01*
X127469196Y-86003207D01*
X127538888Y-86008191D01*
X127554572Y-86015318D01*
X127637118Y-86059990D01*
X127637120Y-86059991D01*
X127637123Y-86059992D01*
X127864475Y-86138042D01*
X127864477Y-86138042D01*
X127864479Y-86138043D01*
X128101584Y-86177609D01*
X128101585Y-86177609D01*
X128341967Y-86177609D01*
X128341968Y-86177609D01*
X128579073Y-86138043D01*
X128806432Y-86059991D01*
X129017843Y-85945581D01*
X129207540Y-85797934D01*
X129370347Y-85621078D01*
X129501691Y-85420041D01*
X129554838Y-85374684D01*
X129624070Y-85365261D01*
X129687405Y-85394763D01*
X129724736Y-85453824D01*
X129729500Y-85487863D01*
X129729500Y-89712136D01*
X129709815Y-89779175D01*
X129657011Y-89824930D01*
X129587853Y-89834874D01*
X129524297Y-89805849D01*
X129501692Y-89779958D01*
X129370348Y-89578924D01*
X129370347Y-89578922D01*
X129207540Y-89402066D01*
X129207535Y-89402062D01*
X129207533Y-89402060D01*
X129017851Y-89254424D01*
X129017845Y-89254420D01*
X128806433Y-89140009D01*
X128806428Y-89140007D01*
X128579076Y-89061957D01*
X128401244Y-89032282D01*
X128341968Y-89022391D01*
X128101584Y-89022391D01*
X128054162Y-89030304D01*
X127864475Y-89061957D01*
X127637123Y-89140007D01*
X127637118Y-89140009D01*
X127425706Y-89254420D01*
X127425700Y-89254424D01*
X127236018Y-89402060D01*
X127236015Y-89402063D01*
X127236012Y-89402065D01*
X127236012Y-89402066D01*
X127209553Y-89430808D01*
X127073206Y-89578920D01*
X127073203Y-89578924D01*
X126941727Y-89780161D01*
X126845165Y-90000301D01*
X126786155Y-90233331D01*
X126766305Y-90472885D01*
X126766305Y-90472896D01*
X126786155Y-90712450D01*
X126845165Y-90945480D01*
X126941727Y-91165620D01*
X126995517Y-91247951D01*
X127073205Y-91366860D01*
X127236012Y-91543716D01*
X127236015Y-91543718D01*
X127236018Y-91543721D01*
X127425700Y-91691357D01*
X127425706Y-91691361D01*
X127425709Y-91691363D01*
X127637120Y-91805773D01*
X127637123Y-91805774D01*
X127864475Y-91883824D01*
X127864477Y-91883824D01*
X127864479Y-91883825D01*
X128101584Y-91923391D01*
X128101585Y-91923391D01*
X128341967Y-91923391D01*
X128341968Y-91923391D01*
X128579073Y-91883825D01*
X128806432Y-91805773D01*
X129017843Y-91691363D01*
X129207540Y-91543716D01*
X129370347Y-91366860D01*
X129501691Y-91165823D01*
X129554838Y-91120466D01*
X129624070Y-91111043D01*
X129687405Y-91140545D01*
X129724736Y-91199606D01*
X129729500Y-91233645D01*
X129729500Y-101578568D01*
X129709815Y-101645607D01*
X129663953Y-101687926D01*
X129521467Y-101764086D01*
X129521460Y-101764090D01*
X129369116Y-101889116D01*
X129244090Y-102041460D01*
X129244086Y-102041467D01*
X129151188Y-102215266D01*
X129093975Y-102403870D01*
X129074659Y-102600000D01*
X129093975Y-102796129D01*
X129151188Y-102984733D01*
X129244086Y-103158532D01*
X129244090Y-103158539D01*
X129369116Y-103310883D01*
X129445361Y-103373455D01*
X129521462Y-103435910D01*
X129663955Y-103512074D01*
X129713797Y-103561035D01*
X129729500Y-103621431D01*
X129729500Y-104828568D01*
X129709815Y-104895607D01*
X129663953Y-104937926D01*
X129521467Y-105014086D01*
X129521460Y-105014090D01*
X129369116Y-105139116D01*
X129244090Y-105291460D01*
X129244086Y-105291467D01*
X129151188Y-105465266D01*
X129093975Y-105653870D01*
X129074659Y-105850000D01*
X129093975Y-106046129D01*
X129151188Y-106234733D01*
X129244086Y-106408532D01*
X129244090Y-106408539D01*
X129369116Y-106560883D01*
X129521460Y-106685909D01*
X129521467Y-106685913D01*
X129695266Y-106778811D01*
X129695269Y-106778811D01*
X129695273Y-106778814D01*
X129883868Y-106836024D01*
X130080000Y-106855341D01*
X130276132Y-106836024D01*
X130464727Y-106778814D01*
X130638538Y-106685910D01*
X130691149Y-106642733D01*
X130795592Y-106557019D01*
X130797119Y-106558879D01*
X130849092Y-106530473D01*
X130918786Y-106535430D01*
X130974736Y-106577279D01*
X130999179Y-106642733D01*
X130999499Y-106651629D01*
X130999500Y-111975500D01*
X130979815Y-112042539D01*
X130927011Y-112088294D01*
X130875500Y-112099500D01*
X104124500Y-112099500D01*
X104057461Y-112079815D01*
X104011706Y-112027011D01*
X104000500Y-111975500D01*
X104000500Y-109901629D01*
X104020185Y-109834590D01*
X104072989Y-109788835D01*
X104142147Y-109778891D01*
X104204225Y-109807241D01*
X104204408Y-109807019D01*
X104205247Y-109807708D01*
X104205703Y-109807916D01*
X104207203Y-109809313D01*
X104361460Y-109935909D01*
X104361467Y-109935913D01*
X104535266Y-110028811D01*
X104535269Y-110028811D01*
X104535273Y-110028814D01*
X104723868Y-110086024D01*
X104920000Y-110105341D01*
X105116132Y-110086024D01*
X105304727Y-110028814D01*
X105338175Y-110010936D01*
X105478532Y-109935913D01*
X105478538Y-109935910D01*
X105630883Y-109810883D01*
X105755910Y-109658538D01*
X105848814Y-109484727D01*
X105906024Y-109296132D01*
X105925341Y-109100000D01*
X105906024Y-108903868D01*
X105848814Y-108715273D01*
X105848811Y-108715269D01*
X105848811Y-108715266D01*
X105755913Y-108541467D01*
X105755909Y-108541460D01*
X105630883Y-108389116D01*
X105478539Y-108264090D01*
X105478532Y-108264086D01*
X105336047Y-108187926D01*
X105286203Y-108138964D01*
X105270500Y-108078568D01*
X105270500Y-107032426D01*
X112672066Y-107032426D01*
X112676132Y-107065046D01*
X112676609Y-107072723D01*
X112676609Y-107076147D01*
X112680196Y-107097650D01*
X112686536Y-107148502D01*
X112688629Y-107155535D01*
X112691017Y-107162490D01*
X112715404Y-107207553D01*
X112737910Y-107253592D01*
X112742174Y-107259564D01*
X112746689Y-107265365D01*
X112784384Y-107300067D01*
X114109897Y-108625580D01*
X114143382Y-108686903D01*
X114140877Y-108749256D01*
X114093975Y-108903869D01*
X114074659Y-109100000D01*
X114093975Y-109296129D01*
X114093976Y-109296132D01*
X114133082Y-109425048D01*
X114151188Y-109484733D01*
X114244086Y-109658532D01*
X114244090Y-109658539D01*
X114369116Y-109810883D01*
X114521460Y-109935909D01*
X114521467Y-109935913D01*
X114695266Y-110028811D01*
X114695269Y-110028811D01*
X114695273Y-110028814D01*
X114883868Y-110086024D01*
X115080000Y-110105341D01*
X115276132Y-110086024D01*
X115464727Y-110028814D01*
X115498175Y-110010936D01*
X115638532Y-109935913D01*
X115638538Y-109935910D01*
X115790883Y-109810883D01*
X115915910Y-109658538D01*
X116008814Y-109484727D01*
X116066024Y-109296132D01*
X116085341Y-109100000D01*
X116066024Y-108903868D01*
X116008814Y-108715273D01*
X116008811Y-108715269D01*
X116008811Y-108715266D01*
X115915913Y-108541467D01*
X115915909Y-108541460D01*
X115790883Y-108389116D01*
X115638539Y-108264090D01*
X115638532Y-108264086D01*
X115464733Y-108171188D01*
X115464727Y-108171186D01*
X115276132Y-108113976D01*
X115276129Y-108113975D01*
X115080000Y-108094659D01*
X114883869Y-108113975D01*
X114729255Y-108160877D01*
X114659388Y-108161500D01*
X114605579Y-108129897D01*
X113413927Y-106938245D01*
X113380442Y-106876922D01*
X113377608Y-106850573D01*
X113377608Y-105850000D01*
X114074659Y-105850000D01*
X114093975Y-106046129D01*
X114151188Y-106234733D01*
X114244086Y-106408532D01*
X114244090Y-106408539D01*
X114369116Y-106560883D01*
X114521460Y-106685909D01*
X114521467Y-106685913D01*
X114695266Y-106778811D01*
X114695269Y-106778811D01*
X114695273Y-106778814D01*
X114883868Y-106836024D01*
X115080000Y-106855341D01*
X115276132Y-106836024D01*
X115430742Y-106789123D01*
X115500610Y-106788499D01*
X115554420Y-106820102D01*
X116447362Y-107713044D01*
X116463489Y-107732902D01*
X116468563Y-107740669D01*
X116468565Y-107740671D01*
X116494505Y-107760860D01*
X116500268Y-107765950D01*
X116502693Y-107768375D01*
X116502695Y-107768377D01*
X116520437Y-107781044D01*
X116560874Y-107812517D01*
X116560878Y-107812518D01*
X116567314Y-107816000D01*
X116567339Y-107816013D01*
X116567371Y-107816030D01*
X116573930Y-107819237D01*
X116573933Y-107819239D01*
X116623037Y-107833858D01*
X116671512Y-107850500D01*
X116671514Y-107850500D01*
X116678754Y-107851708D01*
X116686046Y-107852617D01*
X116737231Y-107850500D01*
X121373456Y-107850500D01*
X121440495Y-107870185D01*
X121461137Y-107886819D01*
X121936171Y-108361853D01*
X121969656Y-108423175D01*
X121964672Y-108492866D01*
X121922801Y-108548800D01*
X121857336Y-108573217D01*
X121816397Y-108569308D01*
X121630000Y-108519363D01*
X121630000Y-109237698D01*
X121610315Y-109304737D01*
X121557511Y-109350492D01*
X121488355Y-109360436D01*
X121415766Y-109350000D01*
X121415763Y-109350000D01*
X121344237Y-109350000D01*
X121344233Y-109350000D01*
X121271645Y-109360436D01*
X121202487Y-109350492D01*
X121149684Y-109304736D01*
X121130000Y-109237698D01*
X121130000Y-108519364D01*
X121129999Y-108519364D01*
X120916513Y-108576567D01*
X120916507Y-108576570D01*
X120702422Y-108676399D01*
X120702420Y-108676400D01*
X120508926Y-108811886D01*
X120508920Y-108811891D01*
X120341891Y-108978920D01*
X120341886Y-108978926D01*
X120206400Y-109172420D01*
X120206399Y-109172422D01*
X120106570Y-109386507D01*
X120106567Y-109386513D01*
X120049364Y-109599999D01*
X120049364Y-109600000D01*
X120766653Y-109600000D01*
X120833692Y-109619685D01*
X120879447Y-109672489D01*
X120889391Y-109741647D01*
X120885631Y-109758933D01*
X120880000Y-109778111D01*
X120880000Y-109921888D01*
X120885631Y-109941067D01*
X120885630Y-110010936D01*
X120847855Y-110069714D01*
X120784299Y-110098738D01*
X120766653Y-110100000D01*
X120049364Y-110100000D01*
X120106567Y-110313486D01*
X120106570Y-110313492D01*
X120206399Y-110527578D01*
X120341894Y-110721082D01*
X120508917Y-110888105D01*
X120702421Y-111023600D01*
X120916507Y-111123429D01*
X120916516Y-111123433D01*
X121130000Y-111180634D01*
X121130000Y-110462301D01*
X121149685Y-110395262D01*
X121202489Y-110349507D01*
X121271647Y-110339563D01*
X121344237Y-110350000D01*
X121344238Y-110350000D01*
X121415762Y-110350000D01*
X121415763Y-110350000D01*
X121488353Y-110339563D01*
X121557512Y-110349507D01*
X121610315Y-110395262D01*
X121630000Y-110462301D01*
X121629999Y-111180633D01*
X121843483Y-111123433D01*
X121843492Y-111123429D01*
X122057578Y-111023600D01*
X122251082Y-110888105D01*
X122418105Y-110721082D01*
X122553600Y-110527578D01*
X122653429Y-110313492D01*
X122653433Y-110313483D01*
X122686158Y-110191350D01*
X122722522Y-110131690D01*
X122785369Y-110101160D01*
X122854745Y-110109454D01*
X122908623Y-110153939D01*
X122924593Y-110187447D01*
X122944768Y-110253954D01*
X123042315Y-110436450D01*
X123042317Y-110436452D01*
X123173589Y-110596410D01*
X123270209Y-110675702D01*
X123333550Y-110727685D01*
X123516046Y-110825232D01*
X123714066Y-110885300D01*
X123714065Y-110885300D01*
X123734347Y-110887297D01*
X123920000Y-110905583D01*
X124125934Y-110885300D01*
X124323954Y-110825232D01*
X124506450Y-110727685D01*
X124666410Y-110596410D01*
X124797685Y-110436450D01*
X124895232Y-110253954D01*
X124955300Y-110055934D01*
X124975583Y-109850000D01*
X124955300Y-109644066D01*
X124895232Y-109446046D01*
X124797685Y-109263550D01*
X124722897Y-109172420D01*
X124666410Y-109103589D01*
X124516121Y-108980252D01*
X124506450Y-108972315D01*
X124323954Y-108874768D01*
X124125934Y-108814700D01*
X124125932Y-108814699D01*
X124125934Y-108814699D01*
X123938463Y-108796235D01*
X123920000Y-108794417D01*
X123919999Y-108794417D01*
X123714067Y-108814699D01*
X123529166Y-108870788D01*
X123459299Y-108871411D01*
X123405490Y-108839808D01*
X121852637Y-107286955D01*
X121836511Y-107267098D01*
X121831437Y-107259331D01*
X121805487Y-107239133D01*
X121799741Y-107234059D01*
X121797307Y-107231625D01*
X121797306Y-107231624D01*
X121797305Y-107231623D01*
X121790848Y-107227013D01*
X121779561Y-107218955D01*
X121739126Y-107187483D01*
X121739122Y-107187481D01*
X121732648Y-107183977D01*
X121726069Y-107180760D01*
X121676954Y-107166138D01*
X121628486Y-107149498D01*
X121621269Y-107148294D01*
X121613953Y-107147382D01*
X121564725Y-107149419D01*
X121562769Y-107149500D01*
X116926544Y-107149500D01*
X116859505Y-107129815D01*
X116838863Y-107113181D01*
X116050102Y-106324420D01*
X116016617Y-106263097D01*
X116019123Y-106200743D01*
X116066023Y-106046134D01*
X116066024Y-106046132D01*
X116085341Y-105850000D01*
X116066024Y-105653868D01*
X116008814Y-105465273D01*
X116008811Y-105465269D01*
X116008811Y-105465266D01*
X115915913Y-105291467D01*
X115915909Y-105291460D01*
X115790883Y-105139116D01*
X115638539Y-105014090D01*
X115638532Y-105014086D01*
X115464733Y-104921188D01*
X115464727Y-104921186D01*
X115276132Y-104863976D01*
X115276129Y-104863975D01*
X115080000Y-104844659D01*
X114883870Y-104863975D01*
X114695266Y-104921188D01*
X114521467Y-105014086D01*
X114521460Y-105014090D01*
X114369116Y-105139116D01*
X114244090Y-105291460D01*
X114244086Y-105291467D01*
X114151188Y-105465266D01*
X114093975Y-105653870D01*
X114074659Y-105850000D01*
X113377608Y-105850000D01*
X113377608Y-102349999D01*
X113801127Y-102349999D01*
X113801128Y-102350000D01*
X114569424Y-102350000D01*
X114636463Y-102369685D01*
X114682218Y-102422489D01*
X114692162Y-102491647D01*
X114691897Y-102493397D01*
X114675014Y-102599996D01*
X114675014Y-102600003D01*
X114691897Y-102706603D01*
X114682942Y-102775896D01*
X114637946Y-102829348D01*
X114571194Y-102849987D01*
X114569424Y-102850000D01*
X113801128Y-102850000D01*
X113853730Y-103046317D01*
X113853734Y-103046326D01*
X113949865Y-103252482D01*
X114080342Y-103438820D01*
X114241179Y-103599657D01*
X114427517Y-103730134D01*
X114633673Y-103826265D01*
X114633682Y-103826269D01*
X114829999Y-103878872D01*
X114830000Y-103878871D01*
X114830000Y-103110575D01*
X114849685Y-103043536D01*
X114902489Y-102997781D01*
X114971647Y-102987837D01*
X114973331Y-102988091D01*
X115005699Y-102993218D01*
X115048515Y-103000000D01*
X115048519Y-103000000D01*
X115111485Y-103000000D01*
X115154300Y-102993218D01*
X115186602Y-102988102D01*
X115255894Y-102997056D01*
X115309347Y-103042052D01*
X115329987Y-103108803D01*
X115330000Y-103110575D01*
X115330000Y-103878872D01*
X115526317Y-103826269D01*
X115526326Y-103826265D01*
X115732482Y-103730134D01*
X115918820Y-103599657D01*
X116079657Y-103438820D01*
X116210134Y-103252482D01*
X116306265Y-103046326D01*
X116306269Y-103046317D01*
X116358872Y-102850000D01*
X115590576Y-102850000D01*
X115523537Y-102830315D01*
X115477782Y-102777511D01*
X115467838Y-102708353D01*
X115468103Y-102706603D01*
X115484986Y-102600003D01*
X115484986Y-102600000D01*
X118914659Y-102600000D01*
X118933975Y-102796129D01*
X118991188Y-102984733D01*
X119084086Y-103158532D01*
X119084090Y-103158539D01*
X119209116Y-103310883D01*
X119361460Y-103435909D01*
X119361467Y-103435913D01*
X119535266Y-103528811D01*
X119535269Y-103528811D01*
X119535273Y-103528814D01*
X119723868Y-103586024D01*
X119920000Y-103605341D01*
X120116132Y-103586024D01*
X120304727Y-103528814D01*
X120478538Y-103435910D01*
X120630883Y-103310883D01*
X120755910Y-103158538D01*
X120839500Y-103002152D01*
X120848811Y-102984733D01*
X120848811Y-102984732D01*
X120848814Y-102984727D01*
X120906024Y-102796132D01*
X120925341Y-102600000D01*
X120906024Y-102403868D01*
X120848814Y-102215273D01*
X120848811Y-102215269D01*
X120848811Y-102215266D01*
X120755913Y-102041467D01*
X120755909Y-102041460D01*
X120630883Y-101889116D01*
X120478539Y-101764090D01*
X120478532Y-101764086D01*
X120304733Y-101671188D01*
X120304727Y-101671186D01*
X120116132Y-101613976D01*
X120116129Y-101613975D01*
X119920000Y-101594659D01*
X119723870Y-101613975D01*
X119535266Y-101671188D01*
X119361467Y-101764086D01*
X119361460Y-101764090D01*
X119209116Y-101889116D01*
X119084090Y-102041460D01*
X119084086Y-102041467D01*
X118991188Y-102215266D01*
X118933975Y-102403870D01*
X118914659Y-102600000D01*
X115484986Y-102600000D01*
X115484986Y-102599996D01*
X115468103Y-102493397D01*
X115477058Y-102424104D01*
X115522054Y-102370652D01*
X115588806Y-102350013D01*
X115590576Y-102350000D01*
X116358872Y-102350000D01*
X116358872Y-102349999D01*
X116306269Y-102153682D01*
X116306265Y-102153673D01*
X116210134Y-101947517D01*
X116079657Y-101761179D01*
X115918820Y-101600342D01*
X115732482Y-101469865D01*
X115526328Y-101373734D01*
X115329999Y-101321127D01*
X115330000Y-102089424D01*
X115310315Y-102156463D01*
X115257511Y-102202218D01*
X115188353Y-102212162D01*
X115186602Y-102211897D01*
X115111486Y-102200000D01*
X115111481Y-102200000D01*
X115048519Y-102200000D01*
X115048514Y-102200000D01*
X114973398Y-102211897D01*
X114904104Y-102202942D01*
X114850652Y-102157946D01*
X114830013Y-102091194D01*
X114830000Y-102089424D01*
X114829999Y-101321127D01*
X114633671Y-101373734D01*
X114427517Y-101469865D01*
X114241179Y-101600342D01*
X114080342Y-101761179D01*
X113949865Y-101947517D01*
X113853734Y-102153673D01*
X113853730Y-102153682D01*
X113801127Y-102349999D01*
X113377608Y-102349999D01*
X113377608Y-99423889D01*
X113397293Y-99356851D01*
X113450097Y-99311096D01*
X113519255Y-99301152D01*
X113582811Y-99330177D01*
X113592838Y-99339908D01*
X113641342Y-99392598D01*
X113641351Y-99392606D01*
X113831033Y-99540242D01*
X113831039Y-99540246D01*
X113831042Y-99540248D01*
X114042453Y-99654658D01*
X114042456Y-99654659D01*
X114269808Y-99732709D01*
X114269810Y-99732709D01*
X114269812Y-99732710D01*
X114506917Y-99772276D01*
X114506918Y-99772276D01*
X114747300Y-99772276D01*
X114747301Y-99772276D01*
X114984406Y-99732710D01*
X115211765Y-99654658D01*
X115423176Y-99540248D01*
X115612873Y-99392601D01*
X115775680Y-99215745D01*
X115907158Y-99014504D01*
X116003719Y-98794367D01*
X116062729Y-98561339D01*
X116082580Y-98321776D01*
X116062729Y-98082213D01*
X116003719Y-97849185D01*
X115907158Y-97629048D01*
X115892824Y-97607109D01*
X115775681Y-97427809D01*
X115775680Y-97427807D01*
X115612873Y-97250951D01*
X115612868Y-97250947D01*
X115612866Y-97250945D01*
X115423184Y-97103309D01*
X115423178Y-97103305D01*
X115211766Y-96988894D01*
X115211761Y-96988892D01*
X114984409Y-96910842D01*
X114806577Y-96881167D01*
X114747301Y-96871276D01*
X114506917Y-96871276D01*
X114459495Y-96879189D01*
X114269808Y-96910842D01*
X114042456Y-96988892D01*
X114042451Y-96988894D01*
X113831039Y-97103305D01*
X113831033Y-97103309D01*
X113641351Y-97250945D01*
X113641341Y-97250954D01*
X113592837Y-97303644D01*
X113532950Y-97339635D01*
X113463112Y-97337534D01*
X113405496Y-97298010D01*
X113378395Y-97233610D01*
X113377608Y-97219661D01*
X113377608Y-94230413D01*
X113377608Y-91247947D01*
X113397293Y-91180912D01*
X113450097Y-91135157D01*
X113519255Y-91125213D01*
X113582811Y-91154238D01*
X113605415Y-91180127D01*
X113629068Y-91216330D01*
X113791875Y-91393186D01*
X113791878Y-91393188D01*
X113791881Y-91393191D01*
X113981563Y-91540827D01*
X113981569Y-91540831D01*
X113981572Y-91540833D01*
X114192983Y-91655243D01*
X114192986Y-91655244D01*
X114420338Y-91733294D01*
X114420340Y-91733294D01*
X114420342Y-91733295D01*
X114657447Y-91772861D01*
X114657448Y-91772861D01*
X114897830Y-91772861D01*
X114897831Y-91772861D01*
X115134936Y-91733295D01*
X115362295Y-91655243D01*
X115573706Y-91540833D01*
X115763403Y-91393186D01*
X115926210Y-91216330D01*
X116057688Y-91015089D01*
X116154249Y-90794952D01*
X116213259Y-90561924D01*
X116228450Y-90378603D01*
X116233110Y-90322366D01*
X116233110Y-90322355D01*
X116213259Y-90082801D01*
X116213259Y-90082798D01*
X116154249Y-89849770D01*
X116057688Y-89629633D01*
X116024555Y-89578920D01*
X115991949Y-89529012D01*
X115926210Y-89428392D01*
X115763403Y-89251536D01*
X115763398Y-89251532D01*
X115763396Y-89251530D01*
X115573714Y-89103894D01*
X115573708Y-89103890D01*
X115362296Y-88989479D01*
X115362291Y-88989477D01*
X115134939Y-88911427D01*
X114957107Y-88881752D01*
X114897831Y-88871861D01*
X114657447Y-88871861D01*
X114610026Y-88879774D01*
X114420338Y-88911427D01*
X114192986Y-88989477D01*
X114192981Y-88989479D01*
X113981569Y-89103890D01*
X113981563Y-89103894D01*
X113791881Y-89251530D01*
X113791878Y-89251533D01*
X113791875Y-89251535D01*
X113791875Y-89251536D01*
X113753078Y-89293679D01*
X113629070Y-89428389D01*
X113605417Y-89464593D01*
X113552270Y-89509949D01*
X113483039Y-89519372D01*
X113419703Y-89489869D01*
X113382372Y-89430808D01*
X113377609Y-89396770D01*
X113377609Y-85803229D01*
X113397294Y-85736190D01*
X113450098Y-85690435D01*
X113519256Y-85680491D01*
X113582812Y-85709516D01*
X113605414Y-85735404D01*
X113629068Y-85771608D01*
X113791875Y-85948464D01*
X113791878Y-85948466D01*
X113791881Y-85948469D01*
X113981563Y-86096105D01*
X113981569Y-86096109D01*
X113981572Y-86096111D01*
X114192983Y-86210521D01*
X114192986Y-86210522D01*
X114420338Y-86288572D01*
X114420340Y-86288572D01*
X114420342Y-86288573D01*
X114657447Y-86328139D01*
X114657448Y-86328139D01*
X114897830Y-86328139D01*
X114897831Y-86328139D01*
X115134936Y-86288573D01*
X115362295Y-86210521D01*
X115573706Y-86096111D01*
X115763403Y-85948464D01*
X115926210Y-85771608D01*
X116057688Y-85570367D01*
X116154249Y-85350230D01*
X116213259Y-85117202D01*
X116223911Y-84988654D01*
X116233110Y-84877644D01*
X118766890Y-84877644D01*
X118786740Y-85117198D01*
X118845750Y-85350228D01*
X118942312Y-85570368D01*
X119050139Y-85735408D01*
X119073790Y-85771608D01*
X119236597Y-85948464D01*
X119236600Y-85948466D01*
X119236603Y-85948469D01*
X119426285Y-86096105D01*
X119426291Y-86096109D01*
X119426294Y-86096111D01*
X119637705Y-86210521D01*
X119637708Y-86210522D01*
X119865060Y-86288572D01*
X119865062Y-86288572D01*
X119865064Y-86288573D01*
X120102169Y-86328139D01*
X120102170Y-86328139D01*
X120342552Y-86328139D01*
X120342553Y-86328139D01*
X120579658Y-86288573D01*
X120807017Y-86210521D01*
X121018428Y-86096111D01*
X121208125Y-85948464D01*
X121370932Y-85771608D01*
X121502410Y-85570367D01*
X121598971Y-85350230D01*
X121657981Y-85117202D01*
X121668633Y-84988654D01*
X121677832Y-84877644D01*
X121677832Y-84877633D01*
X121657981Y-84638079D01*
X121657981Y-84638076D01*
X121598971Y-84405048D01*
X121502410Y-84184911D01*
X121499235Y-84180052D01*
X121376630Y-83992392D01*
X121370932Y-83983670D01*
X121208125Y-83806814D01*
X121208120Y-83806810D01*
X121208118Y-83806808D01*
X121018436Y-83659172D01*
X121018430Y-83659168D01*
X120807018Y-83544757D01*
X120807013Y-83544755D01*
X120579661Y-83466705D01*
X120401829Y-83437030D01*
X120342553Y-83427139D01*
X120102169Y-83427139D01*
X120054747Y-83435052D01*
X119865060Y-83466705D01*
X119637708Y-83544755D01*
X119637703Y-83544757D01*
X119426291Y-83659168D01*
X119426285Y-83659172D01*
X119236603Y-83806808D01*
X119236600Y-83806811D01*
X119236597Y-83806813D01*
X119236597Y-83806814D01*
X119200655Y-83845856D01*
X119073791Y-83983668D01*
X119073788Y-83983672D01*
X118942312Y-84184909D01*
X118845750Y-84405049D01*
X118786740Y-84638079D01*
X118766890Y-84877633D01*
X118766890Y-84877644D01*
X116233110Y-84877644D01*
X116233110Y-84877633D01*
X116213259Y-84638079D01*
X116213259Y-84638076D01*
X116154249Y-84405048D01*
X116057688Y-84184911D01*
X116054513Y-84180052D01*
X115931908Y-83992392D01*
X115926210Y-83983670D01*
X115763403Y-83806814D01*
X115763398Y-83806810D01*
X115763396Y-83806808D01*
X115573714Y-83659172D01*
X115573708Y-83659168D01*
X115362296Y-83544757D01*
X115362291Y-83544755D01*
X115134939Y-83466705D01*
X114957107Y-83437030D01*
X114897831Y-83427139D01*
X114657447Y-83427139D01*
X114657443Y-83427139D01*
X114633786Y-83431086D01*
X114564421Y-83422703D01*
X114510601Y-83378148D01*
X114489411Y-83311569D01*
X114507582Y-83244103D01*
X114525695Y-83221100D01*
X119558990Y-78187805D01*
X119620311Y-78154322D01*
X119690003Y-78159306D01*
X119705687Y-78166433D01*
X119788233Y-78211105D01*
X119788235Y-78211106D01*
X119788238Y-78211107D01*
X120015590Y-78289157D01*
X120015592Y-78289157D01*
X120015594Y-78289158D01*
X120252699Y-78328724D01*
X120252700Y-78328724D01*
X120493082Y-78328724D01*
X120493083Y-78328724D01*
X120730188Y-78289158D01*
X120957547Y-78211106D01*
X121168958Y-78096696D01*
X121358655Y-77949049D01*
X121521462Y-77772193D01*
X121652940Y-77570952D01*
X121749501Y-77350815D01*
X121808511Y-77117787D01*
X121828362Y-76878224D01*
X121815756Y-76726100D01*
X121810024Y-76656922D01*
X121808511Y-76638661D01*
X121749501Y-76405633D01*
X121652940Y-76185496D01*
X121521462Y-75984255D01*
X121358655Y-75807399D01*
X121358650Y-75807395D01*
X121358648Y-75807393D01*
X121168966Y-75659757D01*
X121168960Y-75659753D01*
X120957548Y-75545342D01*
X120957543Y-75545340D01*
X120730191Y-75467290D01*
X120552359Y-75437615D01*
X120493083Y-75427724D01*
X120252699Y-75427724D01*
X120205277Y-75435637D01*
X120015590Y-75467290D01*
X119788238Y-75545340D01*
X119788233Y-75545342D01*
X119576821Y-75659753D01*
X119576815Y-75659757D01*
X119387133Y-75807393D01*
X119387130Y-75807396D01*
X119224321Y-75984253D01*
X119224318Y-75984257D01*
X119092842Y-76185494D01*
X118996280Y-76405634D01*
X118937270Y-76638664D01*
X118917420Y-76878218D01*
X118917420Y-76878229D01*
X118937270Y-77117783D01*
X118996280Y-77350813D01*
X119086750Y-77557065D01*
X119095653Y-77626365D01*
X119065675Y-77689477D01*
X119060875Y-77694556D01*
X112814064Y-83941367D01*
X112794215Y-83957488D01*
X112786440Y-83962568D01*
X112766252Y-83988504D01*
X112761176Y-83994254D01*
X112758743Y-83996687D01*
X112758732Y-83996700D01*
X112746063Y-84014444D01*
X112714592Y-84054878D01*
X112711084Y-84061359D01*
X112707869Y-84067938D01*
X112693247Y-84117051D01*
X112676607Y-84165522D01*
X112675403Y-84172739D01*
X112674491Y-84180052D01*
X112676609Y-84231236D01*
X112676609Y-106997897D01*
X112673970Y-107023341D01*
X112672066Y-107032420D01*
X112672066Y-107032426D01*
X105270500Y-107032426D01*
X105270500Y-106871431D01*
X105290185Y-106804392D01*
X105336044Y-106762074D01*
X105478538Y-106685910D01*
X105630883Y-106560883D01*
X105755910Y-106408538D01*
X105848814Y-106234727D01*
X105906024Y-106046132D01*
X105925341Y-105850000D01*
X105906024Y-105653868D01*
X105859121Y-105499253D01*
X105858498Y-105429389D01*
X105890099Y-105375581D01*
X107913046Y-103352634D01*
X107932902Y-103336511D01*
X107940669Y-103331437D01*
X107960873Y-103305477D01*
X107965941Y-103299739D01*
X107968376Y-103297306D01*
X107974424Y-103288835D01*
X107981048Y-103279558D01*
X108012513Y-103239131D01*
X108012512Y-103239131D01*
X108012517Y-103239126D01*
X108012519Y-103239119D01*
X108015982Y-103232718D01*
X108016021Y-103232640D01*
X108016063Y-103232561D01*
X108019235Y-103226072D01*
X108019240Y-103226066D01*
X108033861Y-103176954D01*
X108050500Y-103128488D01*
X108050500Y-103128479D01*
X108051706Y-103121258D01*
X108052617Y-103113951D01*
X108050500Y-103062758D01*
X108050500Y-96002178D01*
X108070185Y-95935139D01*
X108122989Y-95889384D01*
X108192147Y-95879440D01*
X108255703Y-95908465D01*
X108288054Y-95952366D01*
X108309904Y-96002178D01*
X108371066Y-96141614D01*
X108502542Y-96342851D01*
X108502544Y-96342854D01*
X108665351Y-96519710D01*
X108665354Y-96519712D01*
X108665357Y-96519715D01*
X108855039Y-96667351D01*
X108855045Y-96667355D01*
X108855048Y-96667357D01*
X109066459Y-96781767D01*
X109066462Y-96781768D01*
X109293814Y-96859818D01*
X109293816Y-96859818D01*
X109293818Y-96859819D01*
X109530923Y-96899385D01*
X109530924Y-96899385D01*
X109771306Y-96899385D01*
X109771307Y-96899385D01*
X110008412Y-96859819D01*
X110235771Y-96781767D01*
X110447182Y-96667357D01*
X110636879Y-96519710D01*
X110799686Y-96342854D01*
X110931164Y-96141613D01*
X111027725Y-95921476D01*
X111086735Y-95688448D01*
X111106586Y-95448885D01*
X111086735Y-95209322D01*
X111027725Y-94976294D01*
X110931164Y-94756157D01*
X110799686Y-94554916D01*
X110636879Y-94378060D01*
X110636874Y-94378056D01*
X110636872Y-94378054D01*
X110447190Y-94230418D01*
X110447184Y-94230414D01*
X110235772Y-94116003D01*
X110235767Y-94116001D01*
X110008415Y-94037951D01*
X109830583Y-94008276D01*
X109771307Y-93998385D01*
X109530923Y-93998385D01*
X109483502Y-94006298D01*
X109293814Y-94037951D01*
X109066462Y-94116001D01*
X109066457Y-94116003D01*
X108855045Y-94230414D01*
X108855039Y-94230418D01*
X108665357Y-94378054D01*
X108665354Y-94378057D01*
X108502545Y-94554914D01*
X108502542Y-94554918D01*
X108371066Y-94756155D01*
X108288056Y-94945401D01*
X108243100Y-94998887D01*
X108176364Y-95019577D01*
X108109036Y-95000902D01*
X108062493Y-94948792D01*
X108050500Y-94895591D01*
X108050500Y-93896543D01*
X108070185Y-93829504D01*
X108086819Y-93808862D01*
X108478320Y-93417361D01*
X111464161Y-90431519D01*
X111484017Y-90415396D01*
X111491784Y-90410322D01*
X111511988Y-90384362D01*
X111517056Y-90378624D01*
X111519490Y-90376192D01*
X111532159Y-90358446D01*
X111563632Y-90318011D01*
X111563633Y-90318005D01*
X111567132Y-90311540D01*
X111570350Y-90304957D01*
X111570355Y-90304951D01*
X111584976Y-90255839D01*
X111601615Y-90207373D01*
X111601615Y-90207364D01*
X111602821Y-90200141D01*
X111603732Y-90192837D01*
X111601615Y-90141653D01*
X111601615Y-85709516D01*
X111601614Y-81245427D01*
X111621299Y-81178389D01*
X111637928Y-81157752D01*
X114430638Y-78365042D01*
X114491961Y-78331558D01*
X114518319Y-78328724D01*
X114747300Y-78328724D01*
X114747301Y-78328724D01*
X114984406Y-78289158D01*
X115211765Y-78211106D01*
X115423176Y-78096696D01*
X115612873Y-77949049D01*
X115775680Y-77772193D01*
X115907158Y-77570952D01*
X116003719Y-77350815D01*
X116062729Y-77117787D01*
X116082580Y-76878224D01*
X116069974Y-76726100D01*
X116064242Y-76656922D01*
X116062729Y-76638661D01*
X116003719Y-76405633D01*
X115907158Y-76185496D01*
X115775680Y-75984255D01*
X115612873Y-75807399D01*
X115612868Y-75807395D01*
X115612866Y-75807393D01*
X115423184Y-75659757D01*
X115423178Y-75659753D01*
X115211766Y-75545342D01*
X115211761Y-75545340D01*
X114984409Y-75467290D01*
X114806577Y-75437615D01*
X114747301Y-75427724D01*
X114506917Y-75427724D01*
X114459496Y-75435637D01*
X114269808Y-75467290D01*
X114042456Y-75545340D01*
X114042451Y-75545342D01*
X113831039Y-75659753D01*
X113831033Y-75659757D01*
X113641351Y-75807393D01*
X113641348Y-75807396D01*
X113478539Y-75984253D01*
X113478536Y-75984257D01*
X113347060Y-76185494D01*
X113250498Y-76405634D01*
X113191488Y-76638664D01*
X113171638Y-76878218D01*
X113171638Y-76878229D01*
X113191488Y-77117783D01*
X113250498Y-77350813D01*
X113347060Y-77570953D01*
X113427815Y-77694556D01*
X113478538Y-77772193D01*
X113641345Y-77949049D01*
X113650828Y-77956430D01*
X113691643Y-78013137D01*
X113695320Y-78082910D01*
X113662350Y-78141966D01*
X111038070Y-80766246D01*
X111018221Y-80782367D01*
X111010446Y-80787447D01*
X110990258Y-80813383D01*
X110985182Y-80819133D01*
X110982749Y-80821566D01*
X110982738Y-80821579D01*
X110970069Y-80839323D01*
X110938598Y-80879757D01*
X110935090Y-80886238D01*
X110931875Y-80892817D01*
X110917253Y-80941930D01*
X110900613Y-80990401D01*
X110899409Y-80997618D01*
X110898497Y-81004931D01*
X110900615Y-81056115D01*
X110900615Y-89952340D01*
X110880930Y-90019379D01*
X110864296Y-90040021D01*
X107486955Y-93417361D01*
X107467106Y-93433482D01*
X107459331Y-93438562D01*
X107439143Y-93464498D01*
X107434067Y-93470248D01*
X107431634Y-93472681D01*
X107431623Y-93472694D01*
X107418954Y-93490438D01*
X107387483Y-93530872D01*
X107383975Y-93537353D01*
X107380760Y-93543932D01*
X107366138Y-93593045D01*
X107349498Y-93641516D01*
X107348294Y-93648733D01*
X107347382Y-93656046D01*
X107349500Y-93707230D01*
X107349500Y-102873455D01*
X107329815Y-102940494D01*
X107313181Y-102961136D01*
X105394419Y-104879897D01*
X105333096Y-104913382D01*
X105270743Y-104910877D01*
X105116130Y-104863975D01*
X104920000Y-104844659D01*
X104723870Y-104863975D01*
X104535266Y-104921188D01*
X104361467Y-105014086D01*
X104361460Y-105014090D01*
X104204408Y-105142981D01*
X104202886Y-105141127D01*
X104150858Y-105169537D01*
X104081166Y-105164553D01*
X104025233Y-105122681D01*
X104000816Y-105057217D01*
X104000500Y-105048371D01*
X104000500Y-103401629D01*
X104020185Y-103334590D01*
X104072989Y-103288835D01*
X104142147Y-103278891D01*
X104204225Y-103307241D01*
X104204408Y-103307019D01*
X104205247Y-103307708D01*
X104205703Y-103307916D01*
X104207203Y-103309313D01*
X104361460Y-103435909D01*
X104361467Y-103435913D01*
X104535266Y-103528811D01*
X104535269Y-103528811D01*
X104535273Y-103528814D01*
X104723868Y-103586024D01*
X104920000Y-103605341D01*
X105116132Y-103586024D01*
X105304727Y-103528814D01*
X105478538Y-103435910D01*
X105630883Y-103310883D01*
X105755910Y-103158538D01*
X105839500Y-103002152D01*
X105848811Y-102984733D01*
X105848811Y-102984732D01*
X105848814Y-102984727D01*
X105906024Y-102796132D01*
X105925341Y-102600000D01*
X105906024Y-102403868D01*
X105848814Y-102215273D01*
X105848811Y-102215269D01*
X105848811Y-102215266D01*
X105755913Y-102041467D01*
X105755909Y-102041460D01*
X105630883Y-101889116D01*
X105478539Y-101764090D01*
X105478532Y-101764086D01*
X105336047Y-101687926D01*
X105286203Y-101638964D01*
X105270500Y-101578568D01*
X105270500Y-91233645D01*
X105290185Y-91166606D01*
X105342989Y-91120851D01*
X105412147Y-91110907D01*
X105475703Y-91139932D01*
X105498308Y-91165823D01*
X105629653Y-91366860D01*
X105792460Y-91543716D01*
X105792463Y-91543718D01*
X105792466Y-91543721D01*
X105982148Y-91691357D01*
X105982154Y-91691361D01*
X105982157Y-91691363D01*
X106193568Y-91805773D01*
X106193571Y-91805774D01*
X106420923Y-91883824D01*
X106420925Y-91883824D01*
X106420927Y-91883825D01*
X106658032Y-91923391D01*
X106658033Y-91923391D01*
X106898415Y-91923391D01*
X106898416Y-91923391D01*
X107135521Y-91883825D01*
X107362880Y-91805773D01*
X107574291Y-91691363D01*
X107763988Y-91543716D01*
X107926795Y-91366860D01*
X108058273Y-91165619D01*
X108154834Y-90945482D01*
X108213844Y-90712454D01*
X108224840Y-90579759D01*
X108233695Y-90472896D01*
X108233695Y-90472885D01*
X108220325Y-90311540D01*
X108213844Y-90233328D01*
X108154834Y-90000300D01*
X108058273Y-89780163D01*
X108036067Y-89746175D01*
X107926796Y-89578924D01*
X107926795Y-89578922D01*
X107763988Y-89402066D01*
X107763983Y-89402062D01*
X107763981Y-89402060D01*
X107574299Y-89254424D01*
X107574293Y-89254420D01*
X107362881Y-89140009D01*
X107362876Y-89140007D01*
X107135524Y-89061957D01*
X106957692Y-89032282D01*
X106898416Y-89022391D01*
X106658032Y-89022391D01*
X106610610Y-89030304D01*
X106420923Y-89061957D01*
X106193571Y-89140007D01*
X106193566Y-89140009D01*
X105982154Y-89254420D01*
X105982148Y-89254424D01*
X105792466Y-89402060D01*
X105792463Y-89402063D01*
X105792460Y-89402065D01*
X105792460Y-89402066D01*
X105766001Y-89430808D01*
X105629654Y-89578920D01*
X105629651Y-89578924D01*
X105498308Y-89779958D01*
X105445162Y-89825315D01*
X105375930Y-89834738D01*
X105312595Y-89805235D01*
X105275263Y-89746175D01*
X105270500Y-89712136D01*
X105270500Y-85900908D01*
X105290185Y-85833869D01*
X105342989Y-85788114D01*
X105368461Y-85783316D01*
X105989891Y-85161887D01*
X106051214Y-85128402D01*
X106120906Y-85133386D01*
X106176839Y-85175258D01*
X106177035Y-85175520D01*
X106228980Y-85245294D01*
X106334447Y-85333792D01*
X106373149Y-85391963D01*
X106374257Y-85461824D01*
X106342422Y-85516462D01*
X105729055Y-86129829D01*
X105900770Y-86246902D01*
X105900774Y-86246904D01*
X106137078Y-86360703D01*
X106137082Y-86360704D01*
X106387718Y-86438016D01*
X106387724Y-86438018D01*
X106647072Y-86477108D01*
X106647081Y-86477109D01*
X106909367Y-86477109D01*
X106909375Y-86477108D01*
X107168723Y-86438018D01*
X107168729Y-86438016D01*
X107419367Y-86360704D01*
X107655669Y-86246907D01*
X107655680Y-86246900D01*
X107827391Y-86129829D01*
X107214099Y-85516537D01*
X107180614Y-85455214D01*
X107185598Y-85385522D01*
X107227470Y-85329589D01*
X107233622Y-85325268D01*
X107263597Y-85305554D01*
X107383912Y-85178027D01*
X107383911Y-85178027D01*
X107388869Y-85172773D01*
X107390066Y-85173902D01*
X107438853Y-85137161D01*
X107508530Y-85131975D01*
X107569950Y-85165282D01*
X108180348Y-85775680D01*
X108228198Y-85715679D01*
X108359340Y-85488535D01*
X108455165Y-85244379D01*
X108513530Y-84988659D01*
X108513531Y-84988654D01*
X108533131Y-84727113D01*
X108533131Y-84727104D01*
X108513531Y-84465563D01*
X108513530Y-84465558D01*
X108455165Y-84209838D01*
X108359340Y-83965682D01*
X108359341Y-83965682D01*
X108228195Y-83738535D01*
X108180349Y-83678536D01*
X108180348Y-83678536D01*
X107566555Y-84292329D01*
X107505232Y-84325814D01*
X107435540Y-84320830D01*
X107379607Y-84278958D01*
X107379515Y-84278835D01*
X107327468Y-84208924D01*
X107221997Y-84120422D01*
X107183296Y-84062253D01*
X107182188Y-83992392D01*
X107214023Y-83937754D01*
X107827391Y-83324387D01*
X107655671Y-83207311D01*
X107655669Y-83207310D01*
X107419366Y-83093513D01*
X107419368Y-83093513D01*
X107168729Y-83016201D01*
X107168723Y-83016199D01*
X107023463Y-82994305D01*
X106960106Y-82964848D01*
X106922732Y-82905815D01*
X106923207Y-82835947D01*
X106954262Y-82784010D01*
X108733631Y-81004640D01*
X108794952Y-80971157D01*
X108864644Y-80976141D01*
X108880327Y-80983268D01*
X109014938Y-81056115D01*
X109066459Y-81083997D01*
X109066462Y-81083998D01*
X109293814Y-81162048D01*
X109293816Y-81162048D01*
X109293818Y-81162049D01*
X109530923Y-81201615D01*
X109530924Y-81201615D01*
X109771306Y-81201615D01*
X109771307Y-81201615D01*
X110008412Y-81162049D01*
X110235771Y-81083997D01*
X110447182Y-80969587D01*
X110448330Y-80968694D01*
X110510883Y-80920006D01*
X110636879Y-80821940D01*
X110799686Y-80645084D01*
X110931164Y-80443843D01*
X111027725Y-80223706D01*
X111086735Y-79990678D01*
X111106586Y-79751115D01*
X111086735Y-79511552D01*
X111027725Y-79278524D01*
X110931164Y-79058387D01*
X110799686Y-78857146D01*
X110636879Y-78680290D01*
X110636874Y-78680286D01*
X110636872Y-78680284D01*
X110447190Y-78532648D01*
X110447184Y-78532644D01*
X110235772Y-78418233D01*
X110235767Y-78418231D01*
X110008415Y-78340181D01*
X109830583Y-78310506D01*
X109771307Y-78300615D01*
X109530923Y-78300615D01*
X109483501Y-78308528D01*
X109293814Y-78340181D01*
X109066462Y-78418231D01*
X109066457Y-78418233D01*
X108855045Y-78532644D01*
X108855039Y-78532648D01*
X108665357Y-78680284D01*
X108665354Y-78680287D01*
X108502545Y-78857144D01*
X108502542Y-78857148D01*
X108371066Y-79058385D01*
X108274504Y-79278525D01*
X108215494Y-79511555D01*
X108195644Y-79751109D01*
X108195644Y-79751120D01*
X108215494Y-79990674D01*
X108274504Y-80223704D01*
X108274506Y-80223708D01*
X108316300Y-80318992D01*
X108325203Y-80388292D01*
X108295225Y-80451404D01*
X108290425Y-80456482D01*
X104961762Y-83785145D01*
X104900439Y-83818630D01*
X104830747Y-83813646D01*
X104774814Y-83771774D01*
X104750397Y-83706310D01*
X104757433Y-83655402D01*
X104926875Y-83185542D01*
X104928059Y-83182515D01*
X105206258Y-82523328D01*
X105207584Y-82520404D01*
X105520474Y-81876954D01*
X105521991Y-81874037D01*
X105868668Y-81248179D01*
X105870301Y-81245407D01*
X106249798Y-80638883D01*
X106251621Y-80636136D01*
X106443798Y-80362538D01*
X106662870Y-80050654D01*
X106664776Y-80048087D01*
X107106632Y-79485288D01*
X107108691Y-79482805D01*
X107579854Y-78944342D01*
X107582048Y-78941965D01*
X108081189Y-78429355D01*
X108083513Y-78427092D01*
X108609252Y-77941754D01*
X108611664Y-77939644D01*
X109162472Y-77482986D01*
X109165013Y-77480990D01*
X109739356Y-77054287D01*
X109742012Y-77052423D01*
X110338218Y-76656914D01*
X110340975Y-76655188D01*
X110957396Y-76291966D01*
X110960249Y-76290385D01*
X111595115Y-75960491D01*
X111598054Y-75959062D01*
X112249586Y-75663421D01*
X112252577Y-75662158D01*
X112918923Y-75401612D01*
X112921987Y-75400506D01*
X113601259Y-75175791D01*
X113604376Y-75174851D01*
X114294673Y-74986600D01*
X114297779Y-74985842D01*
X114997105Y-74834599D01*
X115000288Y-74833999D01*
X115706660Y-74720191D01*
X115709900Y-74719758D01*
X115791429Y-74711042D01*
X116421306Y-74643709D01*
X116424570Y-74643448D01*
X117138986Y-74605371D01*
X117142283Y-74605284D01*
X117857717Y-74605284D01*
X117861013Y-74605371D01*
G37*
G04 #@! TD.AperFunction*
M02*
