%TF.GenerationSoftware,KiCad,Pcbnew,9.0.4-9.0.4-0~ubuntu22.04.1*%
%TF.CreationDate,2025-10-19T11:47:48+01:00*%
%TF.ProjectId,CD40106_VCO,43443430-3130-4365-9f56-434f2e6b6963,rev?*%
%TF.SameCoordinates,Original*%
%TF.FileFunction,Drillmap*%
%TF.FilePolarity,Positive*%
%FSLAX45Y45*%
G04 Gerber Fmt 4.5, Leading zero omitted, Abs format (unit mm)*
G04 Created by KiCad (PCBNEW 9.0.4-9.0.4-0~ubuntu22.04.1) date 2025-10-19 11:47:48*
%MOMM*%
%LPD*%
G01*
G04 APERTURE LIST*
%ADD10C,0.050000*%
%ADD11C,0.200000*%
%ADD12C,0.100000*%
%ADD13C,0.150000*%
G04 APERTURE END LIST*
D10*
X4300000Y-7500000D02*
X1500000Y-7500000D01*
X1500000Y-5050000D02*
G75*
G02*
X4300000Y-5050000I1400000J0D01*
G01*
X1500000Y-7500000D02*
X1500000Y-5050000D01*
X4300000Y-7500000D02*
X4300000Y-5050000D01*
D11*
D12*
X1602000Y-6460000D02*
X1682000Y-6540000D01*
X1682000Y-6460000D02*
X1602000Y-6540000D01*
X1602000Y-6785000D02*
X1682000Y-6865000D01*
X1682000Y-6785000D02*
X1602000Y-6865000D01*
X1602000Y-7110000D02*
X1682000Y-7190000D01*
X1682000Y-7110000D02*
X1602000Y-7190000D01*
X2618000Y-6460000D02*
X2698000Y-6540000D01*
X2698000Y-6460000D02*
X2618000Y-6540000D01*
X2618000Y-6785000D02*
X2698000Y-6865000D01*
X2698000Y-6785000D02*
X2618000Y-6865000D01*
X2618000Y-7110000D02*
X2698000Y-7190000D01*
X2698000Y-7110000D02*
X2618000Y-7190000D01*
X3102000Y-6460000D02*
X3182000Y-6540000D01*
X3182000Y-6460000D02*
X3102000Y-6540000D01*
X3102000Y-6785000D02*
X3182000Y-6865000D01*
X3182000Y-6785000D02*
X3102000Y-6865000D01*
X4118000Y-6460000D02*
X4198000Y-6540000D01*
X4198000Y-6460000D02*
X4118000Y-6540000D01*
X4118000Y-6785000D02*
X4198000Y-6865000D01*
X4198000Y-6785000D02*
X4118000Y-6865000D01*
X3338000Y-7225000D02*
G75*
G02*
X3238000Y-7225000I-50000J0D01*
G01*
X3238000Y-7225000D02*
G75*
G02*
X3338000Y-7225000I50000J0D01*
G01*
X3592000Y-7225000D02*
G75*
G02*
X3492000Y-7225000I-50000J0D01*
G01*
X3492000Y-7225000D02*
G75*
G02*
X3592000Y-7225000I50000J0D01*
G01*
X3846000Y-7225000D02*
G75*
G02*
X3746000Y-7225000I-50000J0D01*
G01*
X3746000Y-7225000D02*
G75*
G02*
X3846000Y-7225000I50000J0D01*
G01*
X4100000Y-7225000D02*
G75*
G02*
X4000000Y-7225000I-50000J0D01*
G01*
X4000000Y-7225000D02*
G75*
G02*
X4100000Y-7225000I50000J0D01*
G01*
D13*
X1827822Y-4637711D02*
X1827822Y-4787711D01*
X1752822Y-4712711D02*
X1902822Y-4712711D01*
X1827822Y-5212289D02*
X1827822Y-5362289D01*
X1752822Y-5287289D02*
X1902822Y-5287289D01*
X2115112Y-4140111D02*
X2115112Y-4290112D01*
X2040111Y-4215112D02*
X2190112Y-4215112D01*
X2115112Y-5709888D02*
X2115112Y-5859888D01*
X2040111Y-5784888D02*
X2190112Y-5784888D01*
X2612711Y-3852822D02*
X2612711Y-4002822D01*
X2537711Y-3927822D02*
X2687711Y-3927822D01*
X2612711Y-5997178D02*
X2612711Y-6147178D01*
X2537711Y-6072178D02*
X2687711Y-6072178D01*
X2627764Y-4652764D02*
X2627764Y-4802764D01*
X2552764Y-4727764D02*
X2702764Y-4727764D01*
X2627764Y-5197236D02*
X2627764Y-5347236D01*
X2552764Y-5272236D02*
X2702764Y-5272236D01*
X3172236Y-4652764D02*
X3172236Y-4802764D01*
X3097236Y-4727764D02*
X3247236Y-4727764D01*
X3172236Y-5197236D02*
X3172236Y-5347236D01*
X3097236Y-5272236D02*
X3247236Y-5272236D01*
X3187289Y-3852822D02*
X3187289Y-4002822D01*
X3112289Y-3927822D02*
X3262289Y-3927822D01*
X3187289Y-5997178D02*
X3187289Y-6147178D01*
X3112289Y-6072178D02*
X3262289Y-6072178D01*
X3684888Y-4140111D02*
X3684888Y-4290112D01*
X3609888Y-4215112D02*
X3759888Y-4215112D01*
X3684888Y-5709888D02*
X3684888Y-5859888D01*
X3609888Y-5784888D02*
X3759888Y-5784888D01*
X3972178Y-4637711D02*
X3972178Y-4787711D01*
X3897178Y-4712711D02*
X4047178Y-4712711D01*
X3972178Y-5212289D02*
X3972178Y-5362289D01*
X3897178Y-5287289D02*
X4047178Y-5287289D01*
D11*
X1758277Y-7813984D02*
X1758277Y-7613984D01*
X1758277Y-7613984D02*
X1805896Y-7613984D01*
X1805896Y-7613984D02*
X1834467Y-7623508D01*
X1834467Y-7623508D02*
X1853515Y-7642555D01*
X1853515Y-7642555D02*
X1863039Y-7661603D01*
X1863039Y-7661603D02*
X1872562Y-7699698D01*
X1872562Y-7699698D02*
X1872562Y-7728269D01*
X1872562Y-7728269D02*
X1863039Y-7766365D01*
X1863039Y-7766365D02*
X1853515Y-7785412D01*
X1853515Y-7785412D02*
X1834467Y-7804460D01*
X1834467Y-7804460D02*
X1805896Y-7813984D01*
X1805896Y-7813984D02*
X1758277Y-7813984D01*
X1958277Y-7813984D02*
X1958277Y-7680650D01*
X1958277Y-7718746D02*
X1967801Y-7699698D01*
X1967801Y-7699698D02*
X1977324Y-7690174D01*
X1977324Y-7690174D02*
X1996372Y-7680650D01*
X1996372Y-7680650D02*
X2015420Y-7680650D01*
X2082086Y-7813984D02*
X2082086Y-7680650D01*
X2082086Y-7613984D02*
X2072562Y-7623508D01*
X2072562Y-7623508D02*
X2082086Y-7633031D01*
X2082086Y-7633031D02*
X2091610Y-7623508D01*
X2091610Y-7623508D02*
X2082086Y-7613984D01*
X2082086Y-7613984D02*
X2082086Y-7633031D01*
X2205896Y-7813984D02*
X2186848Y-7804460D01*
X2186848Y-7804460D02*
X2177324Y-7785412D01*
X2177324Y-7785412D02*
X2177324Y-7613984D01*
X2310658Y-7813984D02*
X2291610Y-7804460D01*
X2291610Y-7804460D02*
X2282086Y-7785412D01*
X2282086Y-7785412D02*
X2282086Y-7613984D01*
X2539229Y-7813984D02*
X2539229Y-7613984D01*
X2539229Y-7613984D02*
X2605896Y-7756841D01*
X2605896Y-7756841D02*
X2672563Y-7613984D01*
X2672563Y-7613984D02*
X2672563Y-7813984D01*
X2853515Y-7813984D02*
X2853515Y-7709222D01*
X2853515Y-7709222D02*
X2843991Y-7690174D01*
X2843991Y-7690174D02*
X2824943Y-7680650D01*
X2824943Y-7680650D02*
X2786848Y-7680650D01*
X2786848Y-7680650D02*
X2767801Y-7690174D01*
X2853515Y-7804460D02*
X2834467Y-7813984D01*
X2834467Y-7813984D02*
X2786848Y-7813984D01*
X2786848Y-7813984D02*
X2767801Y-7804460D01*
X2767801Y-7804460D02*
X2758277Y-7785412D01*
X2758277Y-7785412D02*
X2758277Y-7766365D01*
X2758277Y-7766365D02*
X2767801Y-7747317D01*
X2767801Y-7747317D02*
X2786848Y-7737793D01*
X2786848Y-7737793D02*
X2834467Y-7737793D01*
X2834467Y-7737793D02*
X2853515Y-7728269D01*
X2948753Y-7680650D02*
X2948753Y-7880650D01*
X2948753Y-7690174D02*
X2967801Y-7680650D01*
X2967801Y-7680650D02*
X3005896Y-7680650D01*
X3005896Y-7680650D02*
X3024943Y-7690174D01*
X3024943Y-7690174D02*
X3034467Y-7699698D01*
X3034467Y-7699698D02*
X3043991Y-7718746D01*
X3043991Y-7718746D02*
X3043991Y-7775888D01*
X3043991Y-7775888D02*
X3034467Y-7794936D01*
X3034467Y-7794936D02*
X3024943Y-7804460D01*
X3024943Y-7804460D02*
X3005896Y-7813984D01*
X3005896Y-7813984D02*
X2967801Y-7813984D01*
X2967801Y-7813984D02*
X2948753Y-7804460D01*
X3129705Y-7794936D02*
X3139229Y-7804460D01*
X3139229Y-7804460D02*
X3129705Y-7813984D01*
X3129705Y-7813984D02*
X3120182Y-7804460D01*
X3120182Y-7804460D02*
X3129705Y-7794936D01*
X3129705Y-7794936D02*
X3129705Y-7813984D01*
X3129705Y-7690174D02*
X3139229Y-7699698D01*
X3139229Y-7699698D02*
X3129705Y-7709222D01*
X3129705Y-7709222D02*
X3120182Y-7699698D01*
X3120182Y-7699698D02*
X3129705Y-7690174D01*
X3129705Y-7690174D02*
X3129705Y-7709222D01*
D12*
X1417500Y-8102500D02*
X1497500Y-8182500D01*
X1497500Y-8102500D02*
X1417500Y-8182500D01*
D11*
X1796372Y-8033984D02*
X1815420Y-8033984D01*
X1815420Y-8033984D02*
X1834467Y-8043508D01*
X1834467Y-8043508D02*
X1843991Y-8053031D01*
X1843991Y-8053031D02*
X1853515Y-8072079D01*
X1853515Y-8072079D02*
X1863039Y-8110174D01*
X1863039Y-8110174D02*
X1863039Y-8157793D01*
X1863039Y-8157793D02*
X1853515Y-8195888D01*
X1853515Y-8195888D02*
X1843991Y-8214936D01*
X1843991Y-8214936D02*
X1834467Y-8224460D01*
X1834467Y-8224460D02*
X1815420Y-8233984D01*
X1815420Y-8233984D02*
X1796372Y-8233984D01*
X1796372Y-8233984D02*
X1777324Y-8224460D01*
X1777324Y-8224460D02*
X1767801Y-8214936D01*
X1767801Y-8214936D02*
X1758277Y-8195888D01*
X1758277Y-8195888D02*
X1748753Y-8157793D01*
X1748753Y-8157793D02*
X1748753Y-8110174D01*
X1748753Y-8110174D02*
X1758277Y-8072079D01*
X1758277Y-8072079D02*
X1767801Y-8053031D01*
X1767801Y-8053031D02*
X1777324Y-8043508D01*
X1777324Y-8043508D02*
X1796372Y-8033984D01*
X1948753Y-8214936D02*
X1958277Y-8224460D01*
X1958277Y-8224460D02*
X1948753Y-8233984D01*
X1948753Y-8233984D02*
X1939229Y-8224460D01*
X1939229Y-8224460D02*
X1948753Y-8214936D01*
X1948753Y-8214936D02*
X1948753Y-8233984D01*
X2072562Y-8119698D02*
X2053515Y-8110174D01*
X2053515Y-8110174D02*
X2043991Y-8100650D01*
X2043991Y-8100650D02*
X2034467Y-8081603D01*
X2034467Y-8081603D02*
X2034467Y-8072079D01*
X2034467Y-8072079D02*
X2043991Y-8053031D01*
X2043991Y-8053031D02*
X2053515Y-8043508D01*
X2053515Y-8043508D02*
X2072562Y-8033984D01*
X2072562Y-8033984D02*
X2110658Y-8033984D01*
X2110658Y-8033984D02*
X2129705Y-8043508D01*
X2129705Y-8043508D02*
X2139229Y-8053031D01*
X2139229Y-8053031D02*
X2148753Y-8072079D01*
X2148753Y-8072079D02*
X2148753Y-8081603D01*
X2148753Y-8081603D02*
X2139229Y-8100650D01*
X2139229Y-8100650D02*
X2129705Y-8110174D01*
X2129705Y-8110174D02*
X2110658Y-8119698D01*
X2110658Y-8119698D02*
X2072562Y-8119698D01*
X2072562Y-8119698D02*
X2053515Y-8129222D01*
X2053515Y-8129222D02*
X2043991Y-8138746D01*
X2043991Y-8138746D02*
X2034467Y-8157793D01*
X2034467Y-8157793D02*
X2034467Y-8195888D01*
X2034467Y-8195888D02*
X2043991Y-8214936D01*
X2043991Y-8214936D02*
X2053515Y-8224460D01*
X2053515Y-8224460D02*
X2072562Y-8233984D01*
X2072562Y-8233984D02*
X2110658Y-8233984D01*
X2110658Y-8233984D02*
X2129705Y-8224460D01*
X2129705Y-8224460D02*
X2139229Y-8214936D01*
X2139229Y-8214936D02*
X2148753Y-8195888D01*
X2148753Y-8195888D02*
X2148753Y-8157793D01*
X2148753Y-8157793D02*
X2139229Y-8138746D01*
X2139229Y-8138746D02*
X2129705Y-8129222D01*
X2129705Y-8129222D02*
X2110658Y-8119698D01*
X2272563Y-8033984D02*
X2291610Y-8033984D01*
X2291610Y-8033984D02*
X2310658Y-8043508D01*
X2310658Y-8043508D02*
X2320182Y-8053031D01*
X2320182Y-8053031D02*
X2329705Y-8072079D01*
X2329705Y-8072079D02*
X2339229Y-8110174D01*
X2339229Y-8110174D02*
X2339229Y-8157793D01*
X2339229Y-8157793D02*
X2329705Y-8195888D01*
X2329705Y-8195888D02*
X2320182Y-8214936D01*
X2320182Y-8214936D02*
X2310658Y-8224460D01*
X2310658Y-8224460D02*
X2291610Y-8233984D01*
X2291610Y-8233984D02*
X2272563Y-8233984D01*
X2272563Y-8233984D02*
X2253515Y-8224460D01*
X2253515Y-8224460D02*
X2243991Y-8214936D01*
X2243991Y-8214936D02*
X2234467Y-8195888D01*
X2234467Y-8195888D02*
X2224944Y-8157793D01*
X2224944Y-8157793D02*
X2224944Y-8110174D01*
X2224944Y-8110174D02*
X2234467Y-8072079D01*
X2234467Y-8072079D02*
X2243991Y-8053031D01*
X2243991Y-8053031D02*
X2253515Y-8043508D01*
X2253515Y-8043508D02*
X2272563Y-8033984D01*
X2463039Y-8033984D02*
X2482086Y-8033984D01*
X2482086Y-8033984D02*
X2501134Y-8043508D01*
X2501134Y-8043508D02*
X2510658Y-8053031D01*
X2510658Y-8053031D02*
X2520182Y-8072079D01*
X2520182Y-8072079D02*
X2529705Y-8110174D01*
X2529705Y-8110174D02*
X2529705Y-8157793D01*
X2529705Y-8157793D02*
X2520182Y-8195888D01*
X2520182Y-8195888D02*
X2510658Y-8214936D01*
X2510658Y-8214936D02*
X2501134Y-8224460D01*
X2501134Y-8224460D02*
X2482086Y-8233984D01*
X2482086Y-8233984D02*
X2463039Y-8233984D01*
X2463039Y-8233984D02*
X2443991Y-8224460D01*
X2443991Y-8224460D02*
X2434467Y-8214936D01*
X2434467Y-8214936D02*
X2424944Y-8195888D01*
X2424944Y-8195888D02*
X2415420Y-8157793D01*
X2415420Y-8157793D02*
X2415420Y-8110174D01*
X2415420Y-8110174D02*
X2424944Y-8072079D01*
X2424944Y-8072079D02*
X2434467Y-8053031D01*
X2434467Y-8053031D02*
X2443991Y-8043508D01*
X2443991Y-8043508D02*
X2463039Y-8033984D01*
X2615420Y-8233984D02*
X2615420Y-8100650D01*
X2615420Y-8119698D02*
X2624944Y-8110174D01*
X2624944Y-8110174D02*
X2643991Y-8100650D01*
X2643991Y-8100650D02*
X2672563Y-8100650D01*
X2672563Y-8100650D02*
X2691610Y-8110174D01*
X2691610Y-8110174D02*
X2701134Y-8129222D01*
X2701134Y-8129222D02*
X2701134Y-8233984D01*
X2701134Y-8129222D02*
X2710658Y-8110174D01*
X2710658Y-8110174D02*
X2729705Y-8100650D01*
X2729705Y-8100650D02*
X2758277Y-8100650D01*
X2758277Y-8100650D02*
X2777325Y-8110174D01*
X2777325Y-8110174D02*
X2786848Y-8129222D01*
X2786848Y-8129222D02*
X2786848Y-8233984D01*
X2882086Y-8233984D02*
X2882086Y-8100650D01*
X2882086Y-8119698D02*
X2891610Y-8110174D01*
X2891610Y-8110174D02*
X2910658Y-8100650D01*
X2910658Y-8100650D02*
X2939229Y-8100650D01*
X2939229Y-8100650D02*
X2958277Y-8110174D01*
X2958277Y-8110174D02*
X2967801Y-8129222D01*
X2967801Y-8129222D02*
X2967801Y-8233984D01*
X2967801Y-8129222D02*
X2977324Y-8110174D01*
X2977324Y-8110174D02*
X2996372Y-8100650D01*
X2996372Y-8100650D02*
X3024943Y-8100650D01*
X3024943Y-8100650D02*
X3043991Y-8110174D01*
X3043991Y-8110174D02*
X3053515Y-8129222D01*
X3053515Y-8129222D02*
X3053515Y-8233984D01*
X3443991Y-8024460D02*
X3272563Y-8281603D01*
X3701134Y-8033984D02*
X3720182Y-8033984D01*
X3720182Y-8033984D02*
X3739229Y-8043508D01*
X3739229Y-8043508D02*
X3748753Y-8053031D01*
X3748753Y-8053031D02*
X3758277Y-8072079D01*
X3758277Y-8072079D02*
X3767801Y-8110174D01*
X3767801Y-8110174D02*
X3767801Y-8157793D01*
X3767801Y-8157793D02*
X3758277Y-8195888D01*
X3758277Y-8195888D02*
X3748753Y-8214936D01*
X3748753Y-8214936D02*
X3739229Y-8224460D01*
X3739229Y-8224460D02*
X3720182Y-8233984D01*
X3720182Y-8233984D02*
X3701134Y-8233984D01*
X3701134Y-8233984D02*
X3682086Y-8224460D01*
X3682086Y-8224460D02*
X3672563Y-8214936D01*
X3672563Y-8214936D02*
X3663039Y-8195888D01*
X3663039Y-8195888D02*
X3653515Y-8157793D01*
X3653515Y-8157793D02*
X3653515Y-8110174D01*
X3653515Y-8110174D02*
X3663039Y-8072079D01*
X3663039Y-8072079D02*
X3672563Y-8053031D01*
X3672563Y-8053031D02*
X3682086Y-8043508D01*
X3682086Y-8043508D02*
X3701134Y-8033984D01*
X3853515Y-8214936D02*
X3863039Y-8224460D01*
X3863039Y-8224460D02*
X3853515Y-8233984D01*
X3853515Y-8233984D02*
X3843991Y-8224460D01*
X3843991Y-8224460D02*
X3853515Y-8214936D01*
X3853515Y-8214936D02*
X3853515Y-8233984D01*
X3986848Y-8033984D02*
X4005896Y-8033984D01*
X4005896Y-8033984D02*
X4024944Y-8043508D01*
X4024944Y-8043508D02*
X4034467Y-8053031D01*
X4034467Y-8053031D02*
X4043991Y-8072079D01*
X4043991Y-8072079D02*
X4053515Y-8110174D01*
X4053515Y-8110174D02*
X4053515Y-8157793D01*
X4053515Y-8157793D02*
X4043991Y-8195888D01*
X4043991Y-8195888D02*
X4034467Y-8214936D01*
X4034467Y-8214936D02*
X4024944Y-8224460D01*
X4024944Y-8224460D02*
X4005896Y-8233984D01*
X4005896Y-8233984D02*
X3986848Y-8233984D01*
X3986848Y-8233984D02*
X3967801Y-8224460D01*
X3967801Y-8224460D02*
X3958277Y-8214936D01*
X3958277Y-8214936D02*
X3948753Y-8195888D01*
X3948753Y-8195888D02*
X3939229Y-8157793D01*
X3939229Y-8157793D02*
X3939229Y-8110174D01*
X3939229Y-8110174D02*
X3948753Y-8072079D01*
X3948753Y-8072079D02*
X3958277Y-8053031D01*
X3958277Y-8053031D02*
X3967801Y-8043508D01*
X3967801Y-8043508D02*
X3986848Y-8033984D01*
X4120182Y-8033984D02*
X4243991Y-8033984D01*
X4243991Y-8033984D02*
X4177325Y-8110174D01*
X4177325Y-8110174D02*
X4205896Y-8110174D01*
X4205896Y-8110174D02*
X4224944Y-8119698D01*
X4224944Y-8119698D02*
X4234468Y-8129222D01*
X4234468Y-8129222D02*
X4243991Y-8148269D01*
X4243991Y-8148269D02*
X4243991Y-8195888D01*
X4243991Y-8195888D02*
X4234468Y-8214936D01*
X4234468Y-8214936D02*
X4224944Y-8224460D01*
X4224944Y-8224460D02*
X4205896Y-8233984D01*
X4205896Y-8233984D02*
X4148753Y-8233984D01*
X4148753Y-8233984D02*
X4129706Y-8224460D01*
X4129706Y-8224460D02*
X4120182Y-8214936D01*
X4434468Y-8233984D02*
X4320182Y-8233984D01*
X4377325Y-8233984D02*
X4377325Y-8033984D01*
X4377325Y-8033984D02*
X4358277Y-8062555D01*
X4358277Y-8062555D02*
X4339229Y-8081603D01*
X4339229Y-8081603D02*
X4320182Y-8091127D01*
X4615420Y-8033984D02*
X4520182Y-8033984D01*
X4520182Y-8033984D02*
X4510658Y-8129222D01*
X4510658Y-8129222D02*
X4520182Y-8119698D01*
X4520182Y-8119698D02*
X4539229Y-8110174D01*
X4539229Y-8110174D02*
X4586849Y-8110174D01*
X4586849Y-8110174D02*
X4605896Y-8119698D01*
X4605896Y-8119698D02*
X4615420Y-8129222D01*
X4615420Y-8129222D02*
X4624944Y-8148269D01*
X4624944Y-8148269D02*
X4624944Y-8195888D01*
X4624944Y-8195888D02*
X4615420Y-8214936D01*
X4615420Y-8214936D02*
X4605896Y-8224460D01*
X4605896Y-8224460D02*
X4586849Y-8233984D01*
X4586849Y-8233984D02*
X4539229Y-8233984D01*
X4539229Y-8233984D02*
X4520182Y-8224460D01*
X4520182Y-8224460D02*
X4510658Y-8214936D01*
X4701134Y-8033984D02*
X4701134Y-8072079D01*
X4777325Y-8033984D02*
X4777325Y-8072079D01*
X5072563Y-8310174D02*
X5063039Y-8300650D01*
X5063039Y-8300650D02*
X5043991Y-8272079D01*
X5043991Y-8272079D02*
X5034468Y-8253031D01*
X5034468Y-8253031D02*
X5024944Y-8224460D01*
X5024944Y-8224460D02*
X5015420Y-8176841D01*
X5015420Y-8176841D02*
X5015420Y-8138746D01*
X5015420Y-8138746D02*
X5024944Y-8091127D01*
X5024944Y-8091127D02*
X5034468Y-8062555D01*
X5034468Y-8062555D02*
X5043991Y-8043508D01*
X5043991Y-8043508D02*
X5063039Y-8014936D01*
X5063039Y-8014936D02*
X5072563Y-8005412D01*
X5253515Y-8233984D02*
X5139230Y-8233984D01*
X5196372Y-8233984D02*
X5196372Y-8033984D01*
X5196372Y-8033984D02*
X5177325Y-8062555D01*
X5177325Y-8062555D02*
X5158277Y-8081603D01*
X5158277Y-8081603D02*
X5139230Y-8091127D01*
X5377325Y-8033984D02*
X5396372Y-8033984D01*
X5396372Y-8033984D02*
X5415420Y-8043508D01*
X5415420Y-8043508D02*
X5424944Y-8053031D01*
X5424944Y-8053031D02*
X5434468Y-8072079D01*
X5434468Y-8072079D02*
X5443991Y-8110174D01*
X5443991Y-8110174D02*
X5443991Y-8157793D01*
X5443991Y-8157793D02*
X5434468Y-8195888D01*
X5434468Y-8195888D02*
X5424944Y-8214936D01*
X5424944Y-8214936D02*
X5415420Y-8224460D01*
X5415420Y-8224460D02*
X5396372Y-8233984D01*
X5396372Y-8233984D02*
X5377325Y-8233984D01*
X5377325Y-8233984D02*
X5358277Y-8224460D01*
X5358277Y-8224460D02*
X5348753Y-8214936D01*
X5348753Y-8214936D02*
X5339230Y-8195888D01*
X5339230Y-8195888D02*
X5329706Y-8157793D01*
X5329706Y-8157793D02*
X5329706Y-8110174D01*
X5329706Y-8110174D02*
X5339230Y-8072079D01*
X5339230Y-8072079D02*
X5348753Y-8053031D01*
X5348753Y-8053031D02*
X5358277Y-8043508D01*
X5358277Y-8043508D02*
X5377325Y-8033984D01*
X5682087Y-8233984D02*
X5682087Y-8033984D01*
X5767801Y-8233984D02*
X5767801Y-8129222D01*
X5767801Y-8129222D02*
X5758277Y-8110174D01*
X5758277Y-8110174D02*
X5739230Y-8100650D01*
X5739230Y-8100650D02*
X5710658Y-8100650D01*
X5710658Y-8100650D02*
X5691610Y-8110174D01*
X5691610Y-8110174D02*
X5682087Y-8119698D01*
X5891610Y-8233984D02*
X5872563Y-8224460D01*
X5872563Y-8224460D02*
X5863039Y-8214936D01*
X5863039Y-8214936D02*
X5853515Y-8195888D01*
X5853515Y-8195888D02*
X5853515Y-8138746D01*
X5853515Y-8138746D02*
X5863039Y-8119698D01*
X5863039Y-8119698D02*
X5872563Y-8110174D01*
X5872563Y-8110174D02*
X5891610Y-8100650D01*
X5891610Y-8100650D02*
X5920182Y-8100650D01*
X5920182Y-8100650D02*
X5939230Y-8110174D01*
X5939230Y-8110174D02*
X5948753Y-8119698D01*
X5948753Y-8119698D02*
X5958277Y-8138746D01*
X5958277Y-8138746D02*
X5958277Y-8195888D01*
X5958277Y-8195888D02*
X5948753Y-8214936D01*
X5948753Y-8214936D02*
X5939230Y-8224460D01*
X5939230Y-8224460D02*
X5920182Y-8233984D01*
X5920182Y-8233984D02*
X5891610Y-8233984D01*
X6072563Y-8233984D02*
X6053515Y-8224460D01*
X6053515Y-8224460D02*
X6043991Y-8205412D01*
X6043991Y-8205412D02*
X6043991Y-8033984D01*
X6224944Y-8224460D02*
X6205896Y-8233984D01*
X6205896Y-8233984D02*
X6167801Y-8233984D01*
X6167801Y-8233984D02*
X6148753Y-8224460D01*
X6148753Y-8224460D02*
X6139230Y-8205412D01*
X6139230Y-8205412D02*
X6139230Y-8129222D01*
X6139230Y-8129222D02*
X6148753Y-8110174D01*
X6148753Y-8110174D02*
X6167801Y-8100650D01*
X6167801Y-8100650D02*
X6205896Y-8100650D01*
X6205896Y-8100650D02*
X6224944Y-8110174D01*
X6224944Y-8110174D02*
X6234468Y-8129222D01*
X6234468Y-8129222D02*
X6234468Y-8148269D01*
X6234468Y-8148269D02*
X6139230Y-8167317D01*
X6310658Y-8224460D02*
X6329706Y-8233984D01*
X6329706Y-8233984D02*
X6367801Y-8233984D01*
X6367801Y-8233984D02*
X6386849Y-8224460D01*
X6386849Y-8224460D02*
X6396372Y-8205412D01*
X6396372Y-8205412D02*
X6396372Y-8195888D01*
X6396372Y-8195888D02*
X6386849Y-8176841D01*
X6386849Y-8176841D02*
X6367801Y-8167317D01*
X6367801Y-8167317D02*
X6339230Y-8167317D01*
X6339230Y-8167317D02*
X6320182Y-8157793D01*
X6320182Y-8157793D02*
X6310658Y-8138746D01*
X6310658Y-8138746D02*
X6310658Y-8129222D01*
X6310658Y-8129222D02*
X6320182Y-8110174D01*
X6320182Y-8110174D02*
X6339230Y-8100650D01*
X6339230Y-8100650D02*
X6367801Y-8100650D01*
X6367801Y-8100650D02*
X6386849Y-8110174D01*
X6463039Y-8310174D02*
X6472563Y-8300650D01*
X6472563Y-8300650D02*
X6491611Y-8272079D01*
X6491611Y-8272079D02*
X6501134Y-8253031D01*
X6501134Y-8253031D02*
X6510658Y-8224460D01*
X6510658Y-8224460D02*
X6520182Y-8176841D01*
X6520182Y-8176841D02*
X6520182Y-8138746D01*
X6520182Y-8138746D02*
X6510658Y-8091127D01*
X6510658Y-8091127D02*
X6501134Y-8062555D01*
X6501134Y-8062555D02*
X6491611Y-8043508D01*
X6491611Y-8043508D02*
X6472563Y-8014936D01*
X6472563Y-8014936D02*
X6463039Y-8005412D01*
D12*
X1497500Y-8406500D02*
G75*
G02*
X1397500Y-8406500I-50000J0D01*
G01*
X1397500Y-8406500D02*
G75*
G02*
X1497500Y-8406500I50000J0D01*
G01*
D11*
X1863039Y-8497984D02*
X1748753Y-8497984D01*
X1805896Y-8497984D02*
X1805896Y-8297984D01*
X1805896Y-8297984D02*
X1786848Y-8326555D01*
X1786848Y-8326555D02*
X1767801Y-8345603D01*
X1767801Y-8345603D02*
X1748753Y-8355127D01*
X1948753Y-8478936D02*
X1958277Y-8488460D01*
X1958277Y-8488460D02*
X1948753Y-8497984D01*
X1948753Y-8497984D02*
X1939229Y-8488460D01*
X1939229Y-8488460D02*
X1948753Y-8478936D01*
X1948753Y-8478936D02*
X1948753Y-8497984D01*
X2082086Y-8297984D02*
X2101134Y-8297984D01*
X2101134Y-8297984D02*
X2120182Y-8307508D01*
X2120182Y-8307508D02*
X2129705Y-8317031D01*
X2129705Y-8317031D02*
X2139229Y-8336079D01*
X2139229Y-8336079D02*
X2148753Y-8374174D01*
X2148753Y-8374174D02*
X2148753Y-8421793D01*
X2148753Y-8421793D02*
X2139229Y-8459889D01*
X2139229Y-8459889D02*
X2129705Y-8478936D01*
X2129705Y-8478936D02*
X2120182Y-8488460D01*
X2120182Y-8488460D02*
X2101134Y-8497984D01*
X2101134Y-8497984D02*
X2082086Y-8497984D01*
X2082086Y-8497984D02*
X2063039Y-8488460D01*
X2063039Y-8488460D02*
X2053515Y-8478936D01*
X2053515Y-8478936D02*
X2043991Y-8459889D01*
X2043991Y-8459889D02*
X2034467Y-8421793D01*
X2034467Y-8421793D02*
X2034467Y-8374174D01*
X2034467Y-8374174D02*
X2043991Y-8336079D01*
X2043991Y-8336079D02*
X2053515Y-8317031D01*
X2053515Y-8317031D02*
X2063039Y-8307508D01*
X2063039Y-8307508D02*
X2082086Y-8297984D01*
X2272563Y-8297984D02*
X2291610Y-8297984D01*
X2291610Y-8297984D02*
X2310658Y-8307508D01*
X2310658Y-8307508D02*
X2320182Y-8317031D01*
X2320182Y-8317031D02*
X2329705Y-8336079D01*
X2329705Y-8336079D02*
X2339229Y-8374174D01*
X2339229Y-8374174D02*
X2339229Y-8421793D01*
X2339229Y-8421793D02*
X2329705Y-8459889D01*
X2329705Y-8459889D02*
X2320182Y-8478936D01*
X2320182Y-8478936D02*
X2310658Y-8488460D01*
X2310658Y-8488460D02*
X2291610Y-8497984D01*
X2291610Y-8497984D02*
X2272563Y-8497984D01*
X2272563Y-8497984D02*
X2253515Y-8488460D01*
X2253515Y-8488460D02*
X2243991Y-8478936D01*
X2243991Y-8478936D02*
X2234467Y-8459889D01*
X2234467Y-8459889D02*
X2224944Y-8421793D01*
X2224944Y-8421793D02*
X2224944Y-8374174D01*
X2224944Y-8374174D02*
X2234467Y-8336079D01*
X2234467Y-8336079D02*
X2243991Y-8317031D01*
X2243991Y-8317031D02*
X2253515Y-8307508D01*
X2253515Y-8307508D02*
X2272563Y-8297984D01*
X2463039Y-8297984D02*
X2482086Y-8297984D01*
X2482086Y-8297984D02*
X2501134Y-8307508D01*
X2501134Y-8307508D02*
X2510658Y-8317031D01*
X2510658Y-8317031D02*
X2520182Y-8336079D01*
X2520182Y-8336079D02*
X2529705Y-8374174D01*
X2529705Y-8374174D02*
X2529705Y-8421793D01*
X2529705Y-8421793D02*
X2520182Y-8459889D01*
X2520182Y-8459889D02*
X2510658Y-8478936D01*
X2510658Y-8478936D02*
X2501134Y-8488460D01*
X2501134Y-8488460D02*
X2482086Y-8497984D01*
X2482086Y-8497984D02*
X2463039Y-8497984D01*
X2463039Y-8497984D02*
X2443991Y-8488460D01*
X2443991Y-8488460D02*
X2434467Y-8478936D01*
X2434467Y-8478936D02*
X2424944Y-8459889D01*
X2424944Y-8459889D02*
X2415420Y-8421793D01*
X2415420Y-8421793D02*
X2415420Y-8374174D01*
X2415420Y-8374174D02*
X2424944Y-8336079D01*
X2424944Y-8336079D02*
X2434467Y-8317031D01*
X2434467Y-8317031D02*
X2443991Y-8307508D01*
X2443991Y-8307508D02*
X2463039Y-8297984D01*
X2615420Y-8497984D02*
X2615420Y-8364650D01*
X2615420Y-8383698D02*
X2624944Y-8374174D01*
X2624944Y-8374174D02*
X2643991Y-8364650D01*
X2643991Y-8364650D02*
X2672563Y-8364650D01*
X2672563Y-8364650D02*
X2691610Y-8374174D01*
X2691610Y-8374174D02*
X2701134Y-8393222D01*
X2701134Y-8393222D02*
X2701134Y-8497984D01*
X2701134Y-8393222D02*
X2710658Y-8374174D01*
X2710658Y-8374174D02*
X2729705Y-8364650D01*
X2729705Y-8364650D02*
X2758277Y-8364650D01*
X2758277Y-8364650D02*
X2777325Y-8374174D01*
X2777325Y-8374174D02*
X2786848Y-8393222D01*
X2786848Y-8393222D02*
X2786848Y-8497984D01*
X2882086Y-8497984D02*
X2882086Y-8364650D01*
X2882086Y-8383698D02*
X2891610Y-8374174D01*
X2891610Y-8374174D02*
X2910658Y-8364650D01*
X2910658Y-8364650D02*
X2939229Y-8364650D01*
X2939229Y-8364650D02*
X2958277Y-8374174D01*
X2958277Y-8374174D02*
X2967801Y-8393222D01*
X2967801Y-8393222D02*
X2967801Y-8497984D01*
X2967801Y-8393222D02*
X2977324Y-8374174D01*
X2977324Y-8374174D02*
X2996372Y-8364650D01*
X2996372Y-8364650D02*
X3024943Y-8364650D01*
X3024943Y-8364650D02*
X3043991Y-8374174D01*
X3043991Y-8374174D02*
X3053515Y-8393222D01*
X3053515Y-8393222D02*
X3053515Y-8497984D01*
X3443991Y-8288460D02*
X3272563Y-8545603D01*
X3701134Y-8297984D02*
X3720182Y-8297984D01*
X3720182Y-8297984D02*
X3739229Y-8307508D01*
X3739229Y-8307508D02*
X3748753Y-8317031D01*
X3748753Y-8317031D02*
X3758277Y-8336079D01*
X3758277Y-8336079D02*
X3767801Y-8374174D01*
X3767801Y-8374174D02*
X3767801Y-8421793D01*
X3767801Y-8421793D02*
X3758277Y-8459889D01*
X3758277Y-8459889D02*
X3748753Y-8478936D01*
X3748753Y-8478936D02*
X3739229Y-8488460D01*
X3739229Y-8488460D02*
X3720182Y-8497984D01*
X3720182Y-8497984D02*
X3701134Y-8497984D01*
X3701134Y-8497984D02*
X3682086Y-8488460D01*
X3682086Y-8488460D02*
X3672563Y-8478936D01*
X3672563Y-8478936D02*
X3663039Y-8459889D01*
X3663039Y-8459889D02*
X3653515Y-8421793D01*
X3653515Y-8421793D02*
X3653515Y-8374174D01*
X3653515Y-8374174D02*
X3663039Y-8336079D01*
X3663039Y-8336079D02*
X3672563Y-8317031D01*
X3672563Y-8317031D02*
X3682086Y-8307508D01*
X3682086Y-8307508D02*
X3701134Y-8297984D01*
X3853515Y-8478936D02*
X3863039Y-8488460D01*
X3863039Y-8488460D02*
X3853515Y-8497984D01*
X3853515Y-8497984D02*
X3843991Y-8488460D01*
X3843991Y-8488460D02*
X3853515Y-8478936D01*
X3853515Y-8478936D02*
X3853515Y-8497984D01*
X3986848Y-8297984D02*
X4005896Y-8297984D01*
X4005896Y-8297984D02*
X4024944Y-8307508D01*
X4024944Y-8307508D02*
X4034467Y-8317031D01*
X4034467Y-8317031D02*
X4043991Y-8336079D01*
X4043991Y-8336079D02*
X4053515Y-8374174D01*
X4053515Y-8374174D02*
X4053515Y-8421793D01*
X4053515Y-8421793D02*
X4043991Y-8459889D01*
X4043991Y-8459889D02*
X4034467Y-8478936D01*
X4034467Y-8478936D02*
X4024944Y-8488460D01*
X4024944Y-8488460D02*
X4005896Y-8497984D01*
X4005896Y-8497984D02*
X3986848Y-8497984D01*
X3986848Y-8497984D02*
X3967801Y-8488460D01*
X3967801Y-8488460D02*
X3958277Y-8478936D01*
X3958277Y-8478936D02*
X3948753Y-8459889D01*
X3948753Y-8459889D02*
X3939229Y-8421793D01*
X3939229Y-8421793D02*
X3939229Y-8374174D01*
X3939229Y-8374174D02*
X3948753Y-8336079D01*
X3948753Y-8336079D02*
X3958277Y-8317031D01*
X3958277Y-8317031D02*
X3967801Y-8307508D01*
X3967801Y-8307508D02*
X3986848Y-8297984D01*
X4120182Y-8297984D02*
X4243991Y-8297984D01*
X4243991Y-8297984D02*
X4177325Y-8374174D01*
X4177325Y-8374174D02*
X4205896Y-8374174D01*
X4205896Y-8374174D02*
X4224944Y-8383698D01*
X4224944Y-8383698D02*
X4234468Y-8393222D01*
X4234468Y-8393222D02*
X4243991Y-8412270D01*
X4243991Y-8412270D02*
X4243991Y-8459889D01*
X4243991Y-8459889D02*
X4234468Y-8478936D01*
X4234468Y-8478936D02*
X4224944Y-8488460D01*
X4224944Y-8488460D02*
X4205896Y-8497984D01*
X4205896Y-8497984D02*
X4148753Y-8497984D01*
X4148753Y-8497984D02*
X4129706Y-8488460D01*
X4129706Y-8488460D02*
X4120182Y-8478936D01*
X4339229Y-8497984D02*
X4377325Y-8497984D01*
X4377325Y-8497984D02*
X4396372Y-8488460D01*
X4396372Y-8488460D02*
X4405896Y-8478936D01*
X4405896Y-8478936D02*
X4424944Y-8450365D01*
X4424944Y-8450365D02*
X4434468Y-8412270D01*
X4434468Y-8412270D02*
X4434468Y-8336079D01*
X4434468Y-8336079D02*
X4424944Y-8317031D01*
X4424944Y-8317031D02*
X4415420Y-8307508D01*
X4415420Y-8307508D02*
X4396372Y-8297984D01*
X4396372Y-8297984D02*
X4358277Y-8297984D01*
X4358277Y-8297984D02*
X4339229Y-8307508D01*
X4339229Y-8307508D02*
X4329706Y-8317031D01*
X4329706Y-8317031D02*
X4320182Y-8336079D01*
X4320182Y-8336079D02*
X4320182Y-8383698D01*
X4320182Y-8383698D02*
X4329706Y-8402746D01*
X4329706Y-8402746D02*
X4339229Y-8412270D01*
X4339229Y-8412270D02*
X4358277Y-8421793D01*
X4358277Y-8421793D02*
X4396372Y-8421793D01*
X4396372Y-8421793D02*
X4415420Y-8412270D01*
X4415420Y-8412270D02*
X4424944Y-8402746D01*
X4424944Y-8402746D02*
X4434468Y-8383698D01*
X4605896Y-8364650D02*
X4605896Y-8497984D01*
X4558277Y-8288460D02*
X4510658Y-8431317D01*
X4510658Y-8431317D02*
X4634468Y-8431317D01*
X4701134Y-8297984D02*
X4701134Y-8336079D01*
X4777325Y-8297984D02*
X4777325Y-8336079D01*
X5072563Y-8574174D02*
X5063039Y-8564650D01*
X5063039Y-8564650D02*
X5043991Y-8536079D01*
X5043991Y-8536079D02*
X5034468Y-8517031D01*
X5034468Y-8517031D02*
X5024944Y-8488460D01*
X5024944Y-8488460D02*
X5015420Y-8440841D01*
X5015420Y-8440841D02*
X5015420Y-8402746D01*
X5015420Y-8402746D02*
X5024944Y-8355127D01*
X5024944Y-8355127D02*
X5034468Y-8326555D01*
X5034468Y-8326555D02*
X5043991Y-8307508D01*
X5043991Y-8307508D02*
X5063039Y-8278936D01*
X5063039Y-8278936D02*
X5072563Y-8269412D01*
X5234468Y-8364650D02*
X5234468Y-8497984D01*
X5186849Y-8288460D02*
X5139230Y-8431317D01*
X5139230Y-8431317D02*
X5263039Y-8431317D01*
X5491611Y-8497984D02*
X5491611Y-8297984D01*
X5577325Y-8497984D02*
X5577325Y-8393222D01*
X5577325Y-8393222D02*
X5567801Y-8374174D01*
X5567801Y-8374174D02*
X5548753Y-8364650D01*
X5548753Y-8364650D02*
X5520182Y-8364650D01*
X5520182Y-8364650D02*
X5501134Y-8374174D01*
X5501134Y-8374174D02*
X5491611Y-8383698D01*
X5701134Y-8497984D02*
X5682087Y-8488460D01*
X5682087Y-8488460D02*
X5672563Y-8478936D01*
X5672563Y-8478936D02*
X5663039Y-8459889D01*
X5663039Y-8459889D02*
X5663039Y-8402746D01*
X5663039Y-8402746D02*
X5672563Y-8383698D01*
X5672563Y-8383698D02*
X5682087Y-8374174D01*
X5682087Y-8374174D02*
X5701134Y-8364650D01*
X5701134Y-8364650D02*
X5729706Y-8364650D01*
X5729706Y-8364650D02*
X5748753Y-8374174D01*
X5748753Y-8374174D02*
X5758277Y-8383698D01*
X5758277Y-8383698D02*
X5767801Y-8402746D01*
X5767801Y-8402746D02*
X5767801Y-8459889D01*
X5767801Y-8459889D02*
X5758277Y-8478936D01*
X5758277Y-8478936D02*
X5748753Y-8488460D01*
X5748753Y-8488460D02*
X5729706Y-8497984D01*
X5729706Y-8497984D02*
X5701134Y-8497984D01*
X5882087Y-8497984D02*
X5863039Y-8488460D01*
X5863039Y-8488460D02*
X5853515Y-8469412D01*
X5853515Y-8469412D02*
X5853515Y-8297984D01*
X6034468Y-8488460D02*
X6015420Y-8497984D01*
X6015420Y-8497984D02*
X5977325Y-8497984D01*
X5977325Y-8497984D02*
X5958277Y-8488460D01*
X5958277Y-8488460D02*
X5948753Y-8469412D01*
X5948753Y-8469412D02*
X5948753Y-8393222D01*
X5948753Y-8393222D02*
X5958277Y-8374174D01*
X5958277Y-8374174D02*
X5977325Y-8364650D01*
X5977325Y-8364650D02*
X6015420Y-8364650D01*
X6015420Y-8364650D02*
X6034468Y-8374174D01*
X6034468Y-8374174D02*
X6043991Y-8393222D01*
X6043991Y-8393222D02*
X6043991Y-8412270D01*
X6043991Y-8412270D02*
X5948753Y-8431317D01*
X6120182Y-8488460D02*
X6139230Y-8497984D01*
X6139230Y-8497984D02*
X6177325Y-8497984D01*
X6177325Y-8497984D02*
X6196372Y-8488460D01*
X6196372Y-8488460D02*
X6205896Y-8469412D01*
X6205896Y-8469412D02*
X6205896Y-8459889D01*
X6205896Y-8459889D02*
X6196372Y-8440841D01*
X6196372Y-8440841D02*
X6177325Y-8431317D01*
X6177325Y-8431317D02*
X6148753Y-8431317D01*
X6148753Y-8431317D02*
X6129706Y-8421793D01*
X6129706Y-8421793D02*
X6120182Y-8402746D01*
X6120182Y-8402746D02*
X6120182Y-8393222D01*
X6120182Y-8393222D02*
X6129706Y-8374174D01*
X6129706Y-8374174D02*
X6148753Y-8364650D01*
X6148753Y-8364650D02*
X6177325Y-8364650D01*
X6177325Y-8364650D02*
X6196372Y-8374174D01*
X6272563Y-8574174D02*
X6282087Y-8564650D01*
X6282087Y-8564650D02*
X6301134Y-8536079D01*
X6301134Y-8536079D02*
X6310658Y-8517031D01*
X6310658Y-8517031D02*
X6320182Y-8488460D01*
X6320182Y-8488460D02*
X6329706Y-8440841D01*
X6329706Y-8440841D02*
X6329706Y-8402746D01*
X6329706Y-8402746D02*
X6320182Y-8355127D01*
X6320182Y-8355127D02*
X6310658Y-8326555D01*
X6310658Y-8326555D02*
X6301134Y-8307508D01*
X6301134Y-8307508D02*
X6282087Y-8278936D01*
X6282087Y-8278936D02*
X6272563Y-8269412D01*
D13*
X1422500Y-8595500D02*
X1422500Y-8745500D01*
X1347500Y-8670500D02*
X1497500Y-8670500D01*
D11*
X1863039Y-8761984D02*
X1748753Y-8761984D01*
X1805896Y-8761984D02*
X1805896Y-8561984D01*
X1805896Y-8561984D02*
X1786848Y-8590555D01*
X1786848Y-8590555D02*
X1767801Y-8609603D01*
X1767801Y-8609603D02*
X1748753Y-8619127D01*
X1948753Y-8742936D02*
X1958277Y-8752460D01*
X1958277Y-8752460D02*
X1948753Y-8761984D01*
X1948753Y-8761984D02*
X1939229Y-8752460D01*
X1939229Y-8752460D02*
X1948753Y-8742936D01*
X1948753Y-8742936D02*
X1948753Y-8761984D01*
X2139229Y-8561984D02*
X2043991Y-8561984D01*
X2043991Y-8561984D02*
X2034467Y-8657222D01*
X2034467Y-8657222D02*
X2043991Y-8647698D01*
X2043991Y-8647698D02*
X2063039Y-8638174D01*
X2063039Y-8638174D02*
X2110658Y-8638174D01*
X2110658Y-8638174D02*
X2129705Y-8647698D01*
X2129705Y-8647698D02*
X2139229Y-8657222D01*
X2139229Y-8657222D02*
X2148753Y-8676270D01*
X2148753Y-8676270D02*
X2148753Y-8723889D01*
X2148753Y-8723889D02*
X2139229Y-8742936D01*
X2139229Y-8742936D02*
X2129705Y-8752460D01*
X2129705Y-8752460D02*
X2110658Y-8761984D01*
X2110658Y-8761984D02*
X2063039Y-8761984D01*
X2063039Y-8761984D02*
X2043991Y-8752460D01*
X2043991Y-8752460D02*
X2034467Y-8742936D01*
X2272563Y-8561984D02*
X2291610Y-8561984D01*
X2291610Y-8561984D02*
X2310658Y-8571508D01*
X2310658Y-8571508D02*
X2320182Y-8581031D01*
X2320182Y-8581031D02*
X2329705Y-8600079D01*
X2329705Y-8600079D02*
X2339229Y-8638174D01*
X2339229Y-8638174D02*
X2339229Y-8685793D01*
X2339229Y-8685793D02*
X2329705Y-8723889D01*
X2329705Y-8723889D02*
X2320182Y-8742936D01*
X2320182Y-8742936D02*
X2310658Y-8752460D01*
X2310658Y-8752460D02*
X2291610Y-8761984D01*
X2291610Y-8761984D02*
X2272563Y-8761984D01*
X2272563Y-8761984D02*
X2253515Y-8752460D01*
X2253515Y-8752460D02*
X2243991Y-8742936D01*
X2243991Y-8742936D02*
X2234467Y-8723889D01*
X2234467Y-8723889D02*
X2224944Y-8685793D01*
X2224944Y-8685793D02*
X2224944Y-8638174D01*
X2224944Y-8638174D02*
X2234467Y-8600079D01*
X2234467Y-8600079D02*
X2243991Y-8581031D01*
X2243991Y-8581031D02*
X2253515Y-8571508D01*
X2253515Y-8571508D02*
X2272563Y-8561984D01*
X2463039Y-8561984D02*
X2482086Y-8561984D01*
X2482086Y-8561984D02*
X2501134Y-8571508D01*
X2501134Y-8571508D02*
X2510658Y-8581031D01*
X2510658Y-8581031D02*
X2520182Y-8600079D01*
X2520182Y-8600079D02*
X2529705Y-8638174D01*
X2529705Y-8638174D02*
X2529705Y-8685793D01*
X2529705Y-8685793D02*
X2520182Y-8723889D01*
X2520182Y-8723889D02*
X2510658Y-8742936D01*
X2510658Y-8742936D02*
X2501134Y-8752460D01*
X2501134Y-8752460D02*
X2482086Y-8761984D01*
X2482086Y-8761984D02*
X2463039Y-8761984D01*
X2463039Y-8761984D02*
X2443991Y-8752460D01*
X2443991Y-8752460D02*
X2434467Y-8742936D01*
X2434467Y-8742936D02*
X2424944Y-8723889D01*
X2424944Y-8723889D02*
X2415420Y-8685793D01*
X2415420Y-8685793D02*
X2415420Y-8638174D01*
X2415420Y-8638174D02*
X2424944Y-8600079D01*
X2424944Y-8600079D02*
X2434467Y-8581031D01*
X2434467Y-8581031D02*
X2443991Y-8571508D01*
X2443991Y-8571508D02*
X2463039Y-8561984D01*
X2615420Y-8761984D02*
X2615420Y-8628650D01*
X2615420Y-8647698D02*
X2624944Y-8638174D01*
X2624944Y-8638174D02*
X2643991Y-8628650D01*
X2643991Y-8628650D02*
X2672563Y-8628650D01*
X2672563Y-8628650D02*
X2691610Y-8638174D01*
X2691610Y-8638174D02*
X2701134Y-8657222D01*
X2701134Y-8657222D02*
X2701134Y-8761984D01*
X2701134Y-8657222D02*
X2710658Y-8638174D01*
X2710658Y-8638174D02*
X2729705Y-8628650D01*
X2729705Y-8628650D02*
X2758277Y-8628650D01*
X2758277Y-8628650D02*
X2777325Y-8638174D01*
X2777325Y-8638174D02*
X2786848Y-8657222D01*
X2786848Y-8657222D02*
X2786848Y-8761984D01*
X2882086Y-8761984D02*
X2882086Y-8628650D01*
X2882086Y-8647698D02*
X2891610Y-8638174D01*
X2891610Y-8638174D02*
X2910658Y-8628650D01*
X2910658Y-8628650D02*
X2939229Y-8628650D01*
X2939229Y-8628650D02*
X2958277Y-8638174D01*
X2958277Y-8638174D02*
X2967801Y-8657222D01*
X2967801Y-8657222D02*
X2967801Y-8761984D01*
X2967801Y-8657222D02*
X2977324Y-8638174D01*
X2977324Y-8638174D02*
X2996372Y-8628650D01*
X2996372Y-8628650D02*
X3024943Y-8628650D01*
X3024943Y-8628650D02*
X3043991Y-8638174D01*
X3043991Y-8638174D02*
X3053515Y-8657222D01*
X3053515Y-8657222D02*
X3053515Y-8761984D01*
X3443991Y-8552460D02*
X3272563Y-8809603D01*
X3701134Y-8561984D02*
X3720182Y-8561984D01*
X3720182Y-8561984D02*
X3739229Y-8571508D01*
X3739229Y-8571508D02*
X3748753Y-8581031D01*
X3748753Y-8581031D02*
X3758277Y-8600079D01*
X3758277Y-8600079D02*
X3767801Y-8638174D01*
X3767801Y-8638174D02*
X3767801Y-8685793D01*
X3767801Y-8685793D02*
X3758277Y-8723889D01*
X3758277Y-8723889D02*
X3748753Y-8742936D01*
X3748753Y-8742936D02*
X3739229Y-8752460D01*
X3739229Y-8752460D02*
X3720182Y-8761984D01*
X3720182Y-8761984D02*
X3701134Y-8761984D01*
X3701134Y-8761984D02*
X3682086Y-8752460D01*
X3682086Y-8752460D02*
X3672563Y-8742936D01*
X3672563Y-8742936D02*
X3663039Y-8723889D01*
X3663039Y-8723889D02*
X3653515Y-8685793D01*
X3653515Y-8685793D02*
X3653515Y-8638174D01*
X3653515Y-8638174D02*
X3663039Y-8600079D01*
X3663039Y-8600079D02*
X3672563Y-8581031D01*
X3672563Y-8581031D02*
X3682086Y-8571508D01*
X3682086Y-8571508D02*
X3701134Y-8561984D01*
X3853515Y-8742936D02*
X3863039Y-8752460D01*
X3863039Y-8752460D02*
X3853515Y-8761984D01*
X3853515Y-8761984D02*
X3843991Y-8752460D01*
X3843991Y-8752460D02*
X3853515Y-8742936D01*
X3853515Y-8742936D02*
X3853515Y-8761984D01*
X3986848Y-8561984D02*
X4005896Y-8561984D01*
X4005896Y-8561984D02*
X4024944Y-8571508D01*
X4024944Y-8571508D02*
X4034467Y-8581031D01*
X4034467Y-8581031D02*
X4043991Y-8600079D01*
X4043991Y-8600079D02*
X4053515Y-8638174D01*
X4053515Y-8638174D02*
X4053515Y-8685793D01*
X4053515Y-8685793D02*
X4043991Y-8723889D01*
X4043991Y-8723889D02*
X4034467Y-8742936D01*
X4034467Y-8742936D02*
X4024944Y-8752460D01*
X4024944Y-8752460D02*
X4005896Y-8761984D01*
X4005896Y-8761984D02*
X3986848Y-8761984D01*
X3986848Y-8761984D02*
X3967801Y-8752460D01*
X3967801Y-8752460D02*
X3958277Y-8742936D01*
X3958277Y-8742936D02*
X3948753Y-8723889D01*
X3948753Y-8723889D02*
X3939229Y-8685793D01*
X3939229Y-8685793D02*
X3939229Y-8638174D01*
X3939229Y-8638174D02*
X3948753Y-8600079D01*
X3948753Y-8600079D02*
X3958277Y-8581031D01*
X3958277Y-8581031D02*
X3967801Y-8571508D01*
X3967801Y-8571508D02*
X3986848Y-8561984D01*
X4234468Y-8561984D02*
X4139229Y-8561984D01*
X4139229Y-8561984D02*
X4129706Y-8657222D01*
X4129706Y-8657222D02*
X4139229Y-8647698D01*
X4139229Y-8647698D02*
X4158277Y-8638174D01*
X4158277Y-8638174D02*
X4205896Y-8638174D01*
X4205896Y-8638174D02*
X4224944Y-8647698D01*
X4224944Y-8647698D02*
X4234468Y-8657222D01*
X4234468Y-8657222D02*
X4243991Y-8676270D01*
X4243991Y-8676270D02*
X4243991Y-8723889D01*
X4243991Y-8723889D02*
X4234468Y-8742936D01*
X4234468Y-8742936D02*
X4224944Y-8752460D01*
X4224944Y-8752460D02*
X4205896Y-8761984D01*
X4205896Y-8761984D02*
X4158277Y-8761984D01*
X4158277Y-8761984D02*
X4139229Y-8752460D01*
X4139229Y-8752460D02*
X4129706Y-8742936D01*
X4339229Y-8761984D02*
X4377325Y-8761984D01*
X4377325Y-8761984D02*
X4396372Y-8752460D01*
X4396372Y-8752460D02*
X4405896Y-8742936D01*
X4405896Y-8742936D02*
X4424944Y-8714365D01*
X4424944Y-8714365D02*
X4434468Y-8676270D01*
X4434468Y-8676270D02*
X4434468Y-8600079D01*
X4434468Y-8600079D02*
X4424944Y-8581031D01*
X4424944Y-8581031D02*
X4415420Y-8571508D01*
X4415420Y-8571508D02*
X4396372Y-8561984D01*
X4396372Y-8561984D02*
X4358277Y-8561984D01*
X4358277Y-8561984D02*
X4339229Y-8571508D01*
X4339229Y-8571508D02*
X4329706Y-8581031D01*
X4329706Y-8581031D02*
X4320182Y-8600079D01*
X4320182Y-8600079D02*
X4320182Y-8647698D01*
X4320182Y-8647698D02*
X4329706Y-8666746D01*
X4329706Y-8666746D02*
X4339229Y-8676270D01*
X4339229Y-8676270D02*
X4358277Y-8685793D01*
X4358277Y-8685793D02*
X4396372Y-8685793D01*
X4396372Y-8685793D02*
X4415420Y-8676270D01*
X4415420Y-8676270D02*
X4424944Y-8666746D01*
X4424944Y-8666746D02*
X4434468Y-8647698D01*
X4624944Y-8761984D02*
X4510658Y-8761984D01*
X4567801Y-8761984D02*
X4567801Y-8561984D01*
X4567801Y-8561984D02*
X4548753Y-8590555D01*
X4548753Y-8590555D02*
X4529706Y-8609603D01*
X4529706Y-8609603D02*
X4510658Y-8619127D01*
X4701134Y-8561984D02*
X4701134Y-8600079D01*
X4777325Y-8561984D02*
X4777325Y-8600079D01*
X5072563Y-8838174D02*
X5063039Y-8828650D01*
X5063039Y-8828650D02*
X5043991Y-8800079D01*
X5043991Y-8800079D02*
X5034468Y-8781031D01*
X5034468Y-8781031D02*
X5024944Y-8752460D01*
X5024944Y-8752460D02*
X5015420Y-8704841D01*
X5015420Y-8704841D02*
X5015420Y-8666746D01*
X5015420Y-8666746D02*
X5024944Y-8619127D01*
X5024944Y-8619127D02*
X5034468Y-8590555D01*
X5034468Y-8590555D02*
X5043991Y-8571508D01*
X5043991Y-8571508D02*
X5063039Y-8542936D01*
X5063039Y-8542936D02*
X5072563Y-8533412D01*
X5253515Y-8761984D02*
X5139230Y-8761984D01*
X5196372Y-8761984D02*
X5196372Y-8561984D01*
X5196372Y-8561984D02*
X5177325Y-8590555D01*
X5177325Y-8590555D02*
X5158277Y-8609603D01*
X5158277Y-8609603D02*
X5139230Y-8619127D01*
X5424944Y-8561984D02*
X5386849Y-8561984D01*
X5386849Y-8561984D02*
X5367801Y-8571508D01*
X5367801Y-8571508D02*
X5358277Y-8581031D01*
X5358277Y-8581031D02*
X5339230Y-8609603D01*
X5339230Y-8609603D02*
X5329706Y-8647698D01*
X5329706Y-8647698D02*
X5329706Y-8723889D01*
X5329706Y-8723889D02*
X5339230Y-8742936D01*
X5339230Y-8742936D02*
X5348753Y-8752460D01*
X5348753Y-8752460D02*
X5367801Y-8761984D01*
X5367801Y-8761984D02*
X5405896Y-8761984D01*
X5405896Y-8761984D02*
X5424944Y-8752460D01*
X5424944Y-8752460D02*
X5434468Y-8742936D01*
X5434468Y-8742936D02*
X5443991Y-8723889D01*
X5443991Y-8723889D02*
X5443991Y-8676270D01*
X5443991Y-8676270D02*
X5434468Y-8657222D01*
X5434468Y-8657222D02*
X5424944Y-8647698D01*
X5424944Y-8647698D02*
X5405896Y-8638174D01*
X5405896Y-8638174D02*
X5367801Y-8638174D01*
X5367801Y-8638174D02*
X5348753Y-8647698D01*
X5348753Y-8647698D02*
X5339230Y-8657222D01*
X5339230Y-8657222D02*
X5329706Y-8676270D01*
X5682087Y-8761984D02*
X5682087Y-8561984D01*
X5767801Y-8761984D02*
X5767801Y-8657222D01*
X5767801Y-8657222D02*
X5758277Y-8638174D01*
X5758277Y-8638174D02*
X5739230Y-8628650D01*
X5739230Y-8628650D02*
X5710658Y-8628650D01*
X5710658Y-8628650D02*
X5691610Y-8638174D01*
X5691610Y-8638174D02*
X5682087Y-8647698D01*
X5891610Y-8761984D02*
X5872563Y-8752460D01*
X5872563Y-8752460D02*
X5863039Y-8742936D01*
X5863039Y-8742936D02*
X5853515Y-8723889D01*
X5853515Y-8723889D02*
X5853515Y-8666746D01*
X5853515Y-8666746D02*
X5863039Y-8647698D01*
X5863039Y-8647698D02*
X5872563Y-8638174D01*
X5872563Y-8638174D02*
X5891610Y-8628650D01*
X5891610Y-8628650D02*
X5920182Y-8628650D01*
X5920182Y-8628650D02*
X5939230Y-8638174D01*
X5939230Y-8638174D02*
X5948753Y-8647698D01*
X5948753Y-8647698D02*
X5958277Y-8666746D01*
X5958277Y-8666746D02*
X5958277Y-8723889D01*
X5958277Y-8723889D02*
X5948753Y-8742936D01*
X5948753Y-8742936D02*
X5939230Y-8752460D01*
X5939230Y-8752460D02*
X5920182Y-8761984D01*
X5920182Y-8761984D02*
X5891610Y-8761984D01*
X6072563Y-8761984D02*
X6053515Y-8752460D01*
X6053515Y-8752460D02*
X6043991Y-8733412D01*
X6043991Y-8733412D02*
X6043991Y-8561984D01*
X6224944Y-8752460D02*
X6205896Y-8761984D01*
X6205896Y-8761984D02*
X6167801Y-8761984D01*
X6167801Y-8761984D02*
X6148753Y-8752460D01*
X6148753Y-8752460D02*
X6139230Y-8733412D01*
X6139230Y-8733412D02*
X6139230Y-8657222D01*
X6139230Y-8657222D02*
X6148753Y-8638174D01*
X6148753Y-8638174D02*
X6167801Y-8628650D01*
X6167801Y-8628650D02*
X6205896Y-8628650D01*
X6205896Y-8628650D02*
X6224944Y-8638174D01*
X6224944Y-8638174D02*
X6234468Y-8657222D01*
X6234468Y-8657222D02*
X6234468Y-8676270D01*
X6234468Y-8676270D02*
X6139230Y-8695317D01*
X6310658Y-8752460D02*
X6329706Y-8761984D01*
X6329706Y-8761984D02*
X6367801Y-8761984D01*
X6367801Y-8761984D02*
X6386849Y-8752460D01*
X6386849Y-8752460D02*
X6396372Y-8733412D01*
X6396372Y-8733412D02*
X6396372Y-8723889D01*
X6396372Y-8723889D02*
X6386849Y-8704841D01*
X6386849Y-8704841D02*
X6367801Y-8695317D01*
X6367801Y-8695317D02*
X6339230Y-8695317D01*
X6339230Y-8695317D02*
X6320182Y-8685793D01*
X6320182Y-8685793D02*
X6310658Y-8666746D01*
X6310658Y-8666746D02*
X6310658Y-8657222D01*
X6310658Y-8657222D02*
X6320182Y-8638174D01*
X6320182Y-8638174D02*
X6339230Y-8628650D01*
X6339230Y-8628650D02*
X6367801Y-8628650D01*
X6367801Y-8628650D02*
X6386849Y-8638174D01*
X6463039Y-8838174D02*
X6472563Y-8828650D01*
X6472563Y-8828650D02*
X6491611Y-8800079D01*
X6491611Y-8800079D02*
X6501134Y-8781031D01*
X6501134Y-8781031D02*
X6510658Y-8752460D01*
X6510658Y-8752460D02*
X6520182Y-8704841D01*
X6520182Y-8704841D02*
X6520182Y-8666746D01*
X6520182Y-8666746D02*
X6510658Y-8619127D01*
X6510658Y-8619127D02*
X6501134Y-8590555D01*
X6501134Y-8590555D02*
X6491611Y-8571508D01*
X6491611Y-8571508D02*
X6472563Y-8542936D01*
X6472563Y-8542936D02*
X6463039Y-8533412D01*
M02*
