G04 #@! TF.GenerationSoftware,KiCad,Pcbnew,9.0.4-9.0.4-0~ubuntu22.04.1*
G04 #@! TF.CreationDate,2025-10-19T11:47:47+01:00*
G04 #@! TF.ProjectId,CD40106_VCO,43443430-3130-4365-9f56-434f2e6b6963,rev?*
G04 #@! TF.SameCoordinates,Original*
G04 #@! TF.FileFunction,Copper,L1,Top*
G04 #@! TF.FilePolarity,Positive*
%FSLAX46Y46*%
G04 Gerber Fmt 4.6, Leading zero omitted, Abs format (unit mm)*
G04 Created by KiCad (PCBNEW 9.0.4-9.0.4-0~ubuntu22.04.1) date 2025-10-19 11:47:47*
%MOMM*%
%LPD*%
G01*
G04 APERTURE LIST*
G04 #@! TA.AperFunction,ComponentPad*
%ADD10C,1.600000*%
G04 #@! TD*
G04 #@! TA.AperFunction,ComponentPad*
%ADD11O,1.600000X1.600000*%
G04 #@! TD*
G04 #@! TA.AperFunction,ComponentPad*
%ADD12O,2.500000X2.500000*%
G04 #@! TD*
G04 #@! TA.AperFunction,ComponentPad*
%ADD13R,1.700000X1.700000*%
G04 #@! TD*
G04 #@! TA.AperFunction,ComponentPad*
%ADD14O,1.700000X1.700000*%
G04 #@! TD*
G04 #@! TA.AperFunction,Conductor*
%ADD15C,0.300000*%
G04 #@! TD*
G04 APERTURE END LIST*
D10*
X16420000Y-68250000D03*
D11*
X26580000Y-68250000D03*
D10*
X41580000Y-65000000D03*
D11*
X31420000Y-65000000D03*
D10*
X31420000Y-68250000D03*
D11*
X41580000Y-68250000D03*
D10*
X26580000Y-71500000D03*
D11*
X16420000Y-71500000D03*
D12*
X18278224Y-47127109D03*
X21151115Y-42151115D03*
X26127109Y-39278224D03*
X31872891Y-39278224D03*
X36848885Y-42151115D03*
X39721776Y-47127109D03*
X39721776Y-52872891D03*
X36848885Y-57848885D03*
X31872891Y-60721776D03*
X26127109Y-60721776D03*
X21151115Y-57848885D03*
X18278224Y-52872891D03*
X26277639Y-47277639D03*
X31722361Y-47277639D03*
X31722361Y-52722361D03*
X26277639Y-52722361D03*
D10*
X16420000Y-65000000D03*
D11*
X26580000Y-65000000D03*
D13*
X40500000Y-72250000D03*
D14*
X37960000Y-72250000D03*
X35420000Y-72250000D03*
X32880000Y-72250000D03*
D15*
X35420000Y-72250000D02*
X33070000Y-69900000D01*
X28230000Y-69900000D02*
X26580000Y-68250000D01*
X20991476Y-42151115D02*
X21151115Y-42151115D01*
X16420000Y-65000000D02*
X16420000Y-46722591D01*
X33070000Y-69900000D02*
X28230000Y-69900000D01*
X16420000Y-46722591D02*
X20991476Y-42151115D01*
X16420000Y-68250000D02*
X16420000Y-71500000D01*
X22751115Y-52548885D02*
X22751115Y-43448885D01*
X26127109Y-40072891D02*
X26127109Y-39278224D01*
X22751115Y-43448885D02*
X26127109Y-40072891D01*
X19200000Y-65470000D02*
X19200000Y-56100000D01*
X16420000Y-68250000D02*
X19200000Y-65470000D01*
X19200000Y-56100000D02*
X22751115Y-52548885D01*
X31872891Y-39278224D02*
X24527109Y-46624006D01*
X24527109Y-46624006D02*
X24527109Y-69447109D01*
X24527109Y-69447109D02*
X26580000Y-71500000D01*
X37101115Y-42151115D02*
X36848885Y-42151115D01*
X41580000Y-46630000D02*
X37101115Y-42151115D01*
X41580000Y-65000000D02*
X41580000Y-46630000D01*
X41580000Y-68250000D02*
X41580000Y-65000000D01*
X33700000Y-65970000D02*
X31420000Y-68250000D01*
X37960000Y-72250000D02*
X33960000Y-68250000D01*
X33700000Y-53148885D02*
X33700000Y-65970000D01*
X33960000Y-68250000D02*
X31420000Y-68250000D01*
X39721776Y-47127109D02*
X33700000Y-53148885D01*
G04 #@! TA.AperFunction,Conductor*
G36*
X29362665Y-37005460D02*
G01*
X29440448Y-37009605D01*
X30073781Y-37043360D01*
X30080322Y-37043883D01*
X30788469Y-37119583D01*
X30794988Y-37120457D01*
X31498052Y-37233731D01*
X31504519Y-37234951D01*
X32200595Y-37385490D01*
X32206947Y-37387042D01*
X32894015Y-37574413D01*
X32900328Y-37576316D01*
X33576420Y-37799979D01*
X33582614Y-37802213D01*
X34245872Y-38061552D01*
X34251929Y-38064109D01*
X34768161Y-38298355D01*
X34900415Y-38358368D01*
X34906352Y-38361255D01*
X35538272Y-38689618D01*
X35544047Y-38692817D01*
X36157571Y-39054332D01*
X36163168Y-39057834D01*
X36756598Y-39451501D01*
X36761982Y-39455283D01*
X37333634Y-39879985D01*
X37338815Y-39884054D01*
X37887021Y-40338554D01*
X37891982Y-40342894D01*
X38415253Y-40825954D01*
X38419978Y-40830555D01*
X38628531Y-41044736D01*
X38916782Y-41340765D01*
X38921260Y-41345616D01*
X39390202Y-41881541D01*
X39394415Y-41886623D01*
X39834168Y-42446743D01*
X39838094Y-42452027D01*
X40247430Y-43034786D01*
X40251079Y-43040287D01*
X40628794Y-43643961D01*
X40632146Y-43649649D01*
X40977208Y-44272593D01*
X40980252Y-44278451D01*
X41291670Y-44918872D01*
X41294398Y-44924884D01*
X41571288Y-45580970D01*
X41573692Y-45587118D01*
X41690341Y-45910583D01*
X41694566Y-45980325D01*
X41660415Y-46041280D01*
X41598731Y-46074095D01*
X41529098Y-46068352D01*
X41486013Y-46040330D01*
X38237155Y-42791473D01*
X38203670Y-42730150D01*
X38206904Y-42665476D01*
X38263669Y-42490775D01*
X38270232Y-42449339D01*
X38299385Y-42265277D01*
X38299385Y-42036952D01*
X38263669Y-41811454D01*
X38193114Y-41594311D01*
X38089463Y-41390886D01*
X38056572Y-41345616D01*
X37955264Y-41206178D01*
X37793822Y-41044736D01*
X37609113Y-40910536D01*
X37405688Y-40806885D01*
X37188545Y-40736330D01*
X36963047Y-40700615D01*
X36963042Y-40700615D01*
X36734728Y-40700615D01*
X36734723Y-40700615D01*
X36509224Y-40736330D01*
X36292081Y-40806885D01*
X36088656Y-40910536D01*
X35903946Y-41044737D01*
X35742507Y-41206176D01*
X35608306Y-41390886D01*
X35504655Y-41594311D01*
X35434100Y-41811454D01*
X35398385Y-42036952D01*
X35398385Y-42265277D01*
X35434100Y-42490775D01*
X35504655Y-42707918D01*
X35608306Y-42911343D01*
X35742506Y-43096052D01*
X35903948Y-43257494D01*
X36088657Y-43391694D01*
X36116448Y-43405854D01*
X36292081Y-43495344D01*
X36292083Y-43495344D01*
X36292086Y-43495346D01*
X36408477Y-43533164D01*
X36509224Y-43565899D01*
X36734723Y-43601615D01*
X36734728Y-43601615D01*
X36963047Y-43601615D01*
X37188545Y-43565899D01*
X37213634Y-43557747D01*
X37405684Y-43495346D01*
X37609113Y-43391694D01*
X37660643Y-43354254D01*
X37726447Y-43330774D01*
X37794501Y-43346598D01*
X37821209Y-43366891D01*
X39919246Y-45464928D01*
X39952731Y-45526251D01*
X39947747Y-45595943D01*
X39905875Y-45651876D01*
X39840411Y-45676293D01*
X39831565Y-45676609D01*
X39607614Y-45676609D01*
X39382115Y-45712324D01*
X39164972Y-45782879D01*
X38961547Y-45886530D01*
X38776837Y-46020731D01*
X38615398Y-46182170D01*
X38481197Y-46366880D01*
X38377546Y-46570305D01*
X38306991Y-46787448D01*
X38271276Y-47012946D01*
X38271276Y-47241271D01*
X38306991Y-47466769D01*
X38377547Y-47683915D01*
X38435121Y-47796910D01*
X38448017Y-47865579D01*
X38421740Y-47930319D01*
X38412317Y-47940885D01*
X33419529Y-52933673D01*
X33397731Y-52971431D01*
X33397726Y-52971439D01*
X33392924Y-52979755D01*
X33342354Y-53027967D01*
X33273746Y-53041186D01*
X33208883Y-53015213D01*
X33168358Y-52958296D01*
X33163068Y-52898349D01*
X33172861Y-52836522D01*
X33172861Y-52608198D01*
X33137145Y-52382700D01*
X33070231Y-52176762D01*
X33066592Y-52165562D01*
X33066590Y-52165559D01*
X33066590Y-52165557D01*
X32962939Y-51962132D01*
X32898073Y-51872852D01*
X32828740Y-51777424D01*
X32667298Y-51615982D01*
X32482589Y-51481782D01*
X32279164Y-51378131D01*
X32062021Y-51307576D01*
X31836523Y-51271861D01*
X31836518Y-51271861D01*
X31608204Y-51271861D01*
X31608199Y-51271861D01*
X31382700Y-51307576D01*
X31165557Y-51378131D01*
X30962132Y-51481782D01*
X30777422Y-51615983D01*
X30615983Y-51777422D01*
X30481782Y-51962132D01*
X30378131Y-52165557D01*
X30307576Y-52382700D01*
X30271861Y-52608198D01*
X30271861Y-52836523D01*
X30307576Y-53062021D01*
X30378131Y-53279164D01*
X30481782Y-53482589D01*
X30615982Y-53667298D01*
X30777424Y-53828740D01*
X30962133Y-53962940D01*
X30994179Y-53979268D01*
X31165557Y-54066590D01*
X31165559Y-54066590D01*
X31165562Y-54066592D01*
X31281953Y-54104410D01*
X31382700Y-54137145D01*
X31608199Y-54172861D01*
X31608204Y-54172861D01*
X31836523Y-54172861D01*
X32062021Y-54137145D01*
X32279160Y-54066592D01*
X32482589Y-53962940D01*
X32667298Y-53828740D01*
X32828740Y-53667298D01*
X32962940Y-53482589D01*
X33066592Y-53279160D01*
X33107569Y-53153045D01*
X33147007Y-53095370D01*
X33211365Y-53068172D01*
X33280212Y-53080087D01*
X33331687Y-53127331D01*
X33349500Y-53191364D01*
X33349500Y-59908285D01*
X33329815Y-59975324D01*
X33277011Y-60021079D01*
X33207853Y-60031023D01*
X33144297Y-60001998D01*
X33115017Y-59964583D01*
X33113471Y-59961550D01*
X33113469Y-59961547D01*
X32979270Y-59776839D01*
X32817828Y-59615397D01*
X32633119Y-59481197D01*
X32429694Y-59377546D01*
X32212551Y-59306991D01*
X31987053Y-59271276D01*
X31987048Y-59271276D01*
X31758734Y-59271276D01*
X31758729Y-59271276D01*
X31533230Y-59306991D01*
X31316087Y-59377546D01*
X31112662Y-59481197D01*
X30927952Y-59615398D01*
X30766513Y-59776837D01*
X30632312Y-59961547D01*
X30528661Y-60164972D01*
X30458106Y-60382115D01*
X30422391Y-60607613D01*
X30422391Y-60835938D01*
X30458106Y-61061436D01*
X30528661Y-61278579D01*
X30596327Y-61411380D01*
X30632312Y-61482004D01*
X30766512Y-61666713D01*
X30927954Y-61828155D01*
X31112663Y-61962355D01*
X31208775Y-62011326D01*
X31316087Y-62066005D01*
X31316089Y-62066005D01*
X31316092Y-62066007D01*
X31432483Y-62103825D01*
X31533230Y-62136560D01*
X31758729Y-62172276D01*
X31758734Y-62172276D01*
X31987053Y-62172276D01*
X32212551Y-62136560D01*
X32429690Y-62066007D01*
X32633119Y-61962355D01*
X32817828Y-61828155D01*
X32979270Y-61666713D01*
X33113470Y-61482004D01*
X33115014Y-61478974D01*
X33115906Y-61478028D01*
X33116015Y-61477852D01*
X33116052Y-61477874D01*
X33162987Y-61428177D01*
X33230807Y-61411380D01*
X33296943Y-61433916D01*
X33340396Y-61488629D01*
X33349500Y-61535266D01*
X33349500Y-65773455D01*
X33329815Y-65840494D01*
X33313181Y-65861136D01*
X31893835Y-67280481D01*
X31832512Y-67313966D01*
X31762820Y-67308982D01*
X31758703Y-67307362D01*
X31753874Y-67305361D01*
X31711835Y-67287949D01*
X31711831Y-67287948D01*
X31711828Y-67287947D01*
X31518543Y-67249500D01*
X31518541Y-67249500D01*
X31321459Y-67249500D01*
X31321457Y-67249500D01*
X31128170Y-67287947D01*
X31128160Y-67287950D01*
X30946092Y-67363364D01*
X30946079Y-67363371D01*
X30782218Y-67472860D01*
X30782214Y-67472863D01*
X30642863Y-67612214D01*
X30642860Y-67612218D01*
X30533371Y-67776079D01*
X30533364Y-67776092D01*
X30457950Y-67958160D01*
X30457947Y-67958170D01*
X30419500Y-68151456D01*
X30419500Y-68151459D01*
X30419500Y-68348541D01*
X30419500Y-68348543D01*
X30419499Y-68348543D01*
X30457947Y-68541829D01*
X30457950Y-68541839D01*
X30533364Y-68723907D01*
X30533371Y-68723920D01*
X30642860Y-68887781D01*
X30642863Y-68887785D01*
X30782214Y-69027136D01*
X30782218Y-69027139D01*
X30946079Y-69136628D01*
X30946092Y-69136635D01*
X31098791Y-69199884D01*
X31128165Y-69212051D01*
X31128169Y-69212051D01*
X31128170Y-69212052D01*
X31321456Y-69250500D01*
X31321459Y-69250500D01*
X31518543Y-69250500D01*
X31689765Y-69216441D01*
X31711835Y-69212051D01*
X31893914Y-69136632D01*
X32057782Y-69027139D01*
X32197139Y-68887782D01*
X32306632Y-68723914D01*
X32326044Y-68677046D01*
X32369884Y-68622645D01*
X32436178Y-68600579D01*
X32440605Y-68600500D01*
X33763456Y-68600500D01*
X33830495Y-68620185D01*
X33851137Y-68636819D01*
X36952213Y-71737894D01*
X36985698Y-71799217D01*
X36980714Y-71868909D01*
X36979094Y-71873026D01*
X36949871Y-71943579D01*
X36949869Y-71943583D01*
X36949867Y-71943587D01*
X36909500Y-72146530D01*
X36909500Y-72353469D01*
X36949868Y-72556412D01*
X36949870Y-72556420D01*
X37029058Y-72747596D01*
X37144024Y-72919657D01*
X37290342Y-73065975D01*
X37290345Y-73065977D01*
X37462402Y-73180941D01*
X37653580Y-73260130D01*
X37798052Y-73288867D01*
X37856530Y-73300499D01*
X37856534Y-73300500D01*
X37856535Y-73300500D01*
X38063466Y-73300500D01*
X38063467Y-73300499D01*
X38266420Y-73260130D01*
X38457598Y-73180941D01*
X38629655Y-73065977D01*
X38775977Y-72919655D01*
X38890941Y-72747598D01*
X38970130Y-72556420D01*
X39010500Y-72353465D01*
X39010500Y-72146535D01*
X38970130Y-71943580D01*
X38890941Y-71752402D01*
X38775977Y-71580345D01*
X38775975Y-71580342D01*
X38629657Y-71434024D01*
X38549173Y-71380247D01*
X39449500Y-71380247D01*
X39449500Y-73119752D01*
X39461131Y-73178229D01*
X39461132Y-73178230D01*
X39505447Y-73244552D01*
X39571769Y-73288867D01*
X39571770Y-73288868D01*
X39630247Y-73300499D01*
X39630250Y-73300500D01*
X39630252Y-73300500D01*
X41369750Y-73300500D01*
X41369751Y-73300499D01*
X41384568Y-73297552D01*
X41428229Y-73288868D01*
X41428229Y-73288867D01*
X41428231Y-73288867D01*
X41494552Y-73244552D01*
X41538867Y-73178231D01*
X41538867Y-73178229D01*
X41538868Y-73178229D01*
X41550499Y-73119752D01*
X41550500Y-73119750D01*
X41550500Y-71380249D01*
X41550499Y-71380247D01*
X41538868Y-71321770D01*
X41538867Y-71321769D01*
X41494552Y-71255447D01*
X41428230Y-71211132D01*
X41428229Y-71211131D01*
X41369752Y-71199500D01*
X41369748Y-71199500D01*
X39630252Y-71199500D01*
X39630247Y-71199500D01*
X39571770Y-71211131D01*
X39571769Y-71211132D01*
X39505447Y-71255447D01*
X39461132Y-71321769D01*
X39461131Y-71321770D01*
X39449500Y-71380247D01*
X38549173Y-71380247D01*
X38461655Y-71321770D01*
X38457598Y-71319059D01*
X38354999Y-71276561D01*
X38266420Y-71239870D01*
X38266412Y-71239868D01*
X38063469Y-71199500D01*
X38063465Y-71199500D01*
X37856535Y-71199500D01*
X37856530Y-71199500D01*
X37653587Y-71239867D01*
X37653583Y-71239869D01*
X37653581Y-71239869D01*
X37653580Y-71239870D01*
X37640505Y-71245286D01*
X37583026Y-71269094D01*
X37513557Y-71276561D01*
X37451078Y-71245286D01*
X37447894Y-71242213D01*
X35825212Y-69619531D01*
X34175212Y-67969530D01*
X34175211Y-67969529D01*
X34175208Y-67969527D01*
X34095290Y-67923387D01*
X34095289Y-67923386D01*
X34095288Y-67923386D01*
X34006144Y-67899500D01*
X34006143Y-67899500D01*
X32565543Y-67899500D01*
X32498504Y-67879815D01*
X32452749Y-67827011D01*
X32442805Y-67757853D01*
X32471830Y-67694297D01*
X32477862Y-67687819D01*
X32936288Y-67229393D01*
X33980470Y-66185212D01*
X34026614Y-66105288D01*
X34050500Y-66016144D01*
X34050500Y-57734722D01*
X35398385Y-57734722D01*
X35398385Y-57963047D01*
X35434100Y-58188545D01*
X35504655Y-58405688D01*
X35608306Y-58609113D01*
X35742506Y-58793822D01*
X35903948Y-58955264D01*
X36088657Y-59089464D01*
X36184769Y-59138435D01*
X36292081Y-59193114D01*
X36292083Y-59193114D01*
X36292086Y-59193116D01*
X36408477Y-59230934D01*
X36509224Y-59263669D01*
X36734723Y-59299385D01*
X36734728Y-59299385D01*
X36963047Y-59299385D01*
X37188545Y-59263669D01*
X37405684Y-59193116D01*
X37609113Y-59089464D01*
X37793822Y-58955264D01*
X37955264Y-58793822D01*
X38089464Y-58609113D01*
X38193116Y-58405684D01*
X38263669Y-58188545D01*
X38299385Y-57963047D01*
X38299385Y-57734722D01*
X38263669Y-57509224D01*
X38193114Y-57292081D01*
X38089463Y-57088656D01*
X37955264Y-56903948D01*
X37793822Y-56742506D01*
X37609113Y-56608306D01*
X37405688Y-56504655D01*
X37188545Y-56434100D01*
X36963047Y-56398385D01*
X36963042Y-56398385D01*
X36734728Y-56398385D01*
X36734723Y-56398385D01*
X36509224Y-56434100D01*
X36292081Y-56504655D01*
X36088656Y-56608306D01*
X35903946Y-56742507D01*
X35742507Y-56903946D01*
X35608306Y-57088656D01*
X35504655Y-57292081D01*
X35434100Y-57509224D01*
X35398385Y-57734722D01*
X34050500Y-57734722D01*
X34050500Y-53345427D01*
X34070185Y-53278388D01*
X34086814Y-53257751D01*
X38908000Y-48436564D01*
X38969321Y-48403081D01*
X39039013Y-48408065D01*
X39051974Y-48413762D01*
X39164972Y-48471338D01*
X39164974Y-48471338D01*
X39164977Y-48471340D01*
X39281368Y-48509158D01*
X39382115Y-48541893D01*
X39607614Y-48577609D01*
X39607619Y-48577609D01*
X39835938Y-48577609D01*
X40061436Y-48541893D01*
X40278575Y-48471340D01*
X40482004Y-48367688D01*
X40666713Y-48233488D01*
X40828155Y-48072046D01*
X40962355Y-47887337D01*
X40995015Y-47823238D01*
X41042989Y-47772441D01*
X41110810Y-47755646D01*
X41176945Y-47778183D01*
X41220397Y-47832898D01*
X41229500Y-47879532D01*
X41229500Y-52120467D01*
X41209815Y-52187506D01*
X41157011Y-52233261D01*
X41087853Y-52243205D01*
X41024297Y-52214180D01*
X40995015Y-52176762D01*
X40962354Y-52112662D01*
X40828155Y-51927954D01*
X40666713Y-51766512D01*
X40482004Y-51632312D01*
X40278579Y-51528661D01*
X40061436Y-51458106D01*
X39835938Y-51422391D01*
X39835933Y-51422391D01*
X39607619Y-51422391D01*
X39607614Y-51422391D01*
X39382115Y-51458106D01*
X39164972Y-51528661D01*
X38961547Y-51632312D01*
X38776837Y-51766513D01*
X38615398Y-51927952D01*
X38481197Y-52112662D01*
X38377546Y-52316087D01*
X38306991Y-52533230D01*
X38271276Y-52758728D01*
X38271276Y-52987053D01*
X38306991Y-53212551D01*
X38377546Y-53429694D01*
X38452968Y-53577716D01*
X38481197Y-53633119D01*
X38615397Y-53817828D01*
X38776839Y-53979270D01*
X38961548Y-54113470D01*
X39008013Y-54137145D01*
X39164972Y-54217120D01*
X39164974Y-54217120D01*
X39164977Y-54217122D01*
X39281368Y-54254940D01*
X39382115Y-54287675D01*
X39607614Y-54323391D01*
X39607619Y-54323391D01*
X39835938Y-54323391D01*
X40061436Y-54287675D01*
X40278575Y-54217122D01*
X40482004Y-54113470D01*
X40666713Y-53979270D01*
X40828155Y-53817828D01*
X40962355Y-53633119D01*
X40995015Y-53569020D01*
X41042989Y-53518223D01*
X41110810Y-53501428D01*
X41176945Y-53523965D01*
X41220397Y-53578680D01*
X41229500Y-53625314D01*
X41229500Y-63979393D01*
X41209815Y-64046432D01*
X41157011Y-64092187D01*
X41152954Y-64093953D01*
X41106094Y-64113363D01*
X41106079Y-64113371D01*
X40942218Y-64222860D01*
X40942214Y-64222863D01*
X40802863Y-64362214D01*
X40802860Y-64362218D01*
X40693371Y-64526079D01*
X40693364Y-64526092D01*
X40617950Y-64708160D01*
X40617947Y-64708170D01*
X40579500Y-64901456D01*
X40579500Y-64901459D01*
X40579500Y-65098541D01*
X40579500Y-65098543D01*
X40579499Y-65098543D01*
X40617947Y-65291829D01*
X40617950Y-65291839D01*
X40693364Y-65473907D01*
X40693371Y-65473920D01*
X40802860Y-65637781D01*
X40802863Y-65637785D01*
X40942217Y-65777139D01*
X41106080Y-65886628D01*
X41106086Y-65886632D01*
X41152953Y-65906044D01*
X41207355Y-65949884D01*
X41229421Y-66016178D01*
X41229500Y-66020605D01*
X41229500Y-67229393D01*
X41209815Y-67296432D01*
X41157011Y-67342187D01*
X41152954Y-67343953D01*
X41106094Y-67363363D01*
X41106079Y-67363371D01*
X40942218Y-67472860D01*
X40942214Y-67472863D01*
X40802863Y-67612214D01*
X40802860Y-67612218D01*
X40693371Y-67776079D01*
X40693364Y-67776092D01*
X40617950Y-67958160D01*
X40617947Y-67958170D01*
X40579500Y-68151456D01*
X40579500Y-68151459D01*
X40579500Y-68348541D01*
X40579500Y-68348543D01*
X40579499Y-68348543D01*
X40617947Y-68541829D01*
X40617950Y-68541839D01*
X40693364Y-68723907D01*
X40693371Y-68723920D01*
X40802860Y-68887781D01*
X40802863Y-68887785D01*
X40942214Y-69027136D01*
X40942218Y-69027139D01*
X41106079Y-69136628D01*
X41106092Y-69136635D01*
X41258791Y-69199884D01*
X41288165Y-69212051D01*
X41288169Y-69212051D01*
X41288170Y-69212052D01*
X41481456Y-69250500D01*
X41481459Y-69250500D01*
X41678543Y-69250500D01*
X41849765Y-69216441D01*
X41871835Y-69212051D01*
X42053914Y-69136632D01*
X42217782Y-69027139D01*
X42217785Y-69027136D01*
X42287819Y-68957103D01*
X42349142Y-68923618D01*
X42418834Y-68928602D01*
X42474767Y-68970474D01*
X42499184Y-69035938D01*
X42499500Y-69044784D01*
X42499500Y-74375500D01*
X42479815Y-74442539D01*
X42427011Y-74488294D01*
X42375500Y-74499500D01*
X15624500Y-74499500D01*
X15557461Y-74479815D01*
X15511706Y-74427011D01*
X15500500Y-74375500D01*
X15500500Y-72294784D01*
X15520185Y-72227745D01*
X15572989Y-72181990D01*
X15642147Y-72172046D01*
X15705703Y-72201071D01*
X15712181Y-72207103D01*
X15782214Y-72277136D01*
X15782218Y-72277139D01*
X15946079Y-72386628D01*
X15946092Y-72386635D01*
X16128160Y-72462049D01*
X16128165Y-72462051D01*
X16128169Y-72462051D01*
X16128170Y-72462052D01*
X16321456Y-72500500D01*
X16321459Y-72500500D01*
X16518543Y-72500500D01*
X16648582Y-72474632D01*
X16711835Y-72462051D01*
X16893914Y-72386632D01*
X17057782Y-72277139D01*
X17197139Y-72137782D01*
X17306632Y-71973914D01*
X17382051Y-71791835D01*
X17420500Y-71598541D01*
X17420500Y-71401459D01*
X17420500Y-71401456D01*
X17382052Y-71208170D01*
X17382051Y-71208169D01*
X17382051Y-71208165D01*
X17332065Y-71087487D01*
X17306635Y-71026092D01*
X17306628Y-71026079D01*
X17197139Y-70862218D01*
X17197136Y-70862214D01*
X17057785Y-70722863D01*
X17057781Y-70722860D01*
X16893920Y-70613371D01*
X16893905Y-70613363D01*
X16847046Y-70593953D01*
X16792643Y-70550112D01*
X16770579Y-70483817D01*
X16770500Y-70479393D01*
X16770500Y-69270605D01*
X16790185Y-69203566D01*
X16842989Y-69157811D01*
X16847009Y-69156060D01*
X16893914Y-69136632D01*
X17057782Y-69027139D01*
X17197139Y-68887782D01*
X17306632Y-68723914D01*
X17382051Y-68541835D01*
X17420500Y-68348541D01*
X17420500Y-68151459D01*
X17420500Y-68151456D01*
X17382052Y-67958170D01*
X17382051Y-67958169D01*
X17382051Y-67958165D01*
X17362636Y-67911294D01*
X17355168Y-67841828D01*
X17386442Y-67779349D01*
X17389488Y-67776192D01*
X19480470Y-65685212D01*
X19526614Y-65605288D01*
X19550500Y-65516143D01*
X19550500Y-65423856D01*
X19550500Y-58399520D01*
X19570185Y-58332481D01*
X19622989Y-58286726D01*
X19692147Y-58276782D01*
X19755703Y-58305807D01*
X19792431Y-58361201D01*
X19806885Y-58405688D01*
X19910536Y-58609113D01*
X20044736Y-58793822D01*
X20206178Y-58955264D01*
X20390887Y-59089464D01*
X20486999Y-59138435D01*
X20594311Y-59193114D01*
X20594313Y-59193114D01*
X20594316Y-59193116D01*
X20710707Y-59230934D01*
X20811454Y-59263669D01*
X21036953Y-59299385D01*
X21036958Y-59299385D01*
X21265277Y-59299385D01*
X21490775Y-59263669D01*
X21707914Y-59193116D01*
X21911343Y-59089464D01*
X22096052Y-58955264D01*
X22257494Y-58793822D01*
X22391694Y-58609113D01*
X22495346Y-58405684D01*
X22565899Y-58188545D01*
X22601615Y-57963047D01*
X22601615Y-57734722D01*
X22565899Y-57509224D01*
X22495344Y-57292081D01*
X22391693Y-57088656D01*
X22257494Y-56903948D01*
X22096052Y-56742506D01*
X21911343Y-56608306D01*
X21707918Y-56504655D01*
X21490775Y-56434100D01*
X21265277Y-56398385D01*
X21265272Y-56398385D01*
X21036958Y-56398385D01*
X21036953Y-56398385D01*
X20811454Y-56434100D01*
X20594311Y-56504655D01*
X20390886Y-56608306D01*
X20206176Y-56742507D01*
X20044737Y-56903946D01*
X19910536Y-57088656D01*
X19806885Y-57292081D01*
X19792431Y-57336568D01*
X19752993Y-57394243D01*
X19688634Y-57421441D01*
X19619787Y-57409526D01*
X19568312Y-57362281D01*
X19550500Y-57298249D01*
X19550500Y-56296544D01*
X19570185Y-56229505D01*
X19586819Y-56208863D01*
X19910896Y-55884786D01*
X23031585Y-52764097D01*
X23077729Y-52684173D01*
X23093900Y-52623820D01*
X23101615Y-52595029D01*
X23101615Y-46577862D01*
X24176609Y-46577862D01*
X24176609Y-69493253D01*
X24191681Y-69549501D01*
X24191680Y-69549501D01*
X24191681Y-69549503D01*
X24200493Y-69582393D01*
X24200494Y-69582395D01*
X24246636Y-69662317D01*
X24246640Y-69662322D01*
X25610482Y-71026164D01*
X25643967Y-71087487D01*
X25638983Y-71157179D01*
X25637362Y-71161297D01*
X25617949Y-71208163D01*
X25617947Y-71208171D01*
X25579500Y-71401456D01*
X25579500Y-71401459D01*
X25579500Y-71598541D01*
X25579500Y-71598543D01*
X25579499Y-71598543D01*
X25617947Y-71791829D01*
X25617950Y-71791839D01*
X25693364Y-71973907D01*
X25693371Y-71973920D01*
X25802860Y-72137781D01*
X25802863Y-72137785D01*
X25942214Y-72277136D01*
X25942218Y-72277139D01*
X26106079Y-72386628D01*
X26106092Y-72386635D01*
X26288160Y-72462049D01*
X26288165Y-72462051D01*
X26288169Y-72462051D01*
X26288170Y-72462052D01*
X26481456Y-72500500D01*
X26481459Y-72500500D01*
X26678543Y-72500500D01*
X26808582Y-72474632D01*
X26871835Y-72462051D01*
X27053914Y-72386632D01*
X27053920Y-72386628D01*
X27094021Y-72359834D01*
X27191374Y-72294784D01*
X27217782Y-72277139D01*
X27357139Y-72137782D01*
X27466632Y-71973914D01*
X27542051Y-71791835D01*
X27580500Y-71598541D01*
X27580500Y-71401459D01*
X27580500Y-71401456D01*
X27542052Y-71208170D01*
X27542051Y-71208169D01*
X27542051Y-71208165D01*
X27492065Y-71087487D01*
X27466635Y-71026092D01*
X27466628Y-71026079D01*
X27357139Y-70862218D01*
X27357136Y-70862214D01*
X27217785Y-70722863D01*
X27217781Y-70722860D01*
X27053920Y-70613371D01*
X27053907Y-70613364D01*
X26871839Y-70537950D01*
X26871829Y-70537947D01*
X26678543Y-70499500D01*
X26678541Y-70499500D01*
X26481459Y-70499500D01*
X26481457Y-70499500D01*
X26288171Y-70537947D01*
X26288163Y-70537949D01*
X26241297Y-70557362D01*
X26171827Y-70564831D01*
X26109348Y-70533555D01*
X26106164Y-70530482D01*
X24913928Y-69338246D01*
X24880443Y-69276923D01*
X24877609Y-69250565D01*
X24877609Y-68348543D01*
X25579499Y-68348543D01*
X25617947Y-68541829D01*
X25617950Y-68541839D01*
X25693364Y-68723907D01*
X25693371Y-68723920D01*
X25802860Y-68887781D01*
X25802863Y-68887785D01*
X25942214Y-69027136D01*
X25942218Y-69027139D01*
X26106079Y-69136628D01*
X26106092Y-69136635D01*
X26258791Y-69199884D01*
X26288165Y-69212051D01*
X26288169Y-69212051D01*
X26288170Y-69212052D01*
X26481456Y-69250500D01*
X26481459Y-69250500D01*
X26678543Y-69250500D01*
X26849765Y-69216441D01*
X26871835Y-69212051D01*
X26918702Y-69192637D01*
X26988168Y-69185168D01*
X27050648Y-69216441D01*
X27053835Y-69219517D01*
X27949531Y-70115212D01*
X28014788Y-70180469D01*
X28014791Y-70180470D01*
X28014794Y-70180473D01*
X28094706Y-70226611D01*
X28094707Y-70226611D01*
X28094712Y-70226614D01*
X28183856Y-70250500D01*
X32873456Y-70250500D01*
X32940495Y-70270185D01*
X32961137Y-70286819D01*
X33440366Y-70766048D01*
X33473851Y-70827371D01*
X33468867Y-70897063D01*
X33426995Y-70952996D01*
X33361531Y-70977413D01*
X33314368Y-70971660D01*
X33196125Y-70933241D01*
X33130000Y-70922768D01*
X33130000Y-71816988D01*
X33072993Y-71784075D01*
X32945826Y-71750000D01*
X32814174Y-71750000D01*
X32687007Y-71784075D01*
X32630000Y-71816988D01*
X32630000Y-70922768D01*
X32629999Y-70922768D01*
X32563875Y-70933241D01*
X32361784Y-70998903D01*
X32172442Y-71095379D01*
X32000540Y-71220272D01*
X32000535Y-71220276D01*
X31850276Y-71370535D01*
X31850272Y-71370540D01*
X31725379Y-71542442D01*
X31628904Y-71731782D01*
X31563242Y-71933870D01*
X31563242Y-71933873D01*
X31552769Y-72000000D01*
X32446988Y-72000000D01*
X32414075Y-72057007D01*
X32380000Y-72184174D01*
X32380000Y-72315826D01*
X32414075Y-72442993D01*
X32446988Y-72500000D01*
X31552769Y-72500000D01*
X31563242Y-72566126D01*
X31563242Y-72566129D01*
X31628904Y-72768217D01*
X31725379Y-72957557D01*
X31850272Y-73129459D01*
X31850276Y-73129464D01*
X32000535Y-73279723D01*
X32000540Y-73279727D01*
X32172442Y-73404620D01*
X32361782Y-73501095D01*
X32563871Y-73566757D01*
X32630000Y-73577231D01*
X32630000Y-72683012D01*
X32687007Y-72715925D01*
X32814174Y-72750000D01*
X32945826Y-72750000D01*
X33072993Y-72715925D01*
X33130000Y-72683012D01*
X33130000Y-73577230D01*
X33196126Y-73566757D01*
X33196129Y-73566757D01*
X33398217Y-73501095D01*
X33587557Y-73404620D01*
X33759459Y-73279727D01*
X33759464Y-73279723D01*
X33909723Y-73129464D01*
X33909727Y-73129459D01*
X34034620Y-72957557D01*
X34131095Y-72768217D01*
X34188343Y-72592026D01*
X34227780Y-72534351D01*
X34292139Y-72507152D01*
X34360985Y-72519066D01*
X34412461Y-72566310D01*
X34420835Y-72582891D01*
X34489058Y-72747596D01*
X34604024Y-72919657D01*
X34750342Y-73065975D01*
X34750345Y-73065977D01*
X34922402Y-73180941D01*
X35113580Y-73260130D01*
X35258052Y-73288867D01*
X35316530Y-73300499D01*
X35316534Y-73300500D01*
X35316535Y-73300500D01*
X35523466Y-73300500D01*
X35523467Y-73300499D01*
X35726420Y-73260130D01*
X35917598Y-73180941D01*
X36089655Y-73065977D01*
X36235977Y-72919655D01*
X36350941Y-72747598D01*
X36430130Y-72556420D01*
X36470500Y-72353465D01*
X36470500Y-72146535D01*
X36430130Y-71943580D01*
X36350941Y-71752402D01*
X36235977Y-71580345D01*
X36235975Y-71580342D01*
X36089657Y-71434024D01*
X35921655Y-71321770D01*
X35917598Y-71319059D01*
X35814999Y-71276561D01*
X35726420Y-71239870D01*
X35726412Y-71239868D01*
X35523469Y-71199500D01*
X35523465Y-71199500D01*
X35316535Y-71199500D01*
X35316530Y-71199500D01*
X35113587Y-71239868D01*
X35113575Y-71239871D01*
X35043028Y-71269093D01*
X34973559Y-71276562D01*
X34911080Y-71245287D01*
X34907895Y-71242213D01*
X33285213Y-69619531D01*
X33285208Y-69619527D01*
X33205290Y-69573387D01*
X33205289Y-69573386D01*
X33205288Y-69573386D01*
X33116144Y-69549500D01*
X33116143Y-69549500D01*
X28426543Y-69549500D01*
X28359504Y-69529815D01*
X28338862Y-69513181D01*
X27549517Y-68723835D01*
X27516032Y-68662512D01*
X27521016Y-68592820D01*
X27522615Y-68588757D01*
X27542051Y-68541835D01*
X27580500Y-68348541D01*
X27580500Y-68151459D01*
X27580500Y-68151456D01*
X27542052Y-67958170D01*
X27542051Y-67958169D01*
X27542051Y-67958165D01*
X27522638Y-67911298D01*
X27466635Y-67776092D01*
X27466628Y-67776079D01*
X27357139Y-67612218D01*
X27357136Y-67612214D01*
X27217785Y-67472863D01*
X27217781Y-67472860D01*
X27053920Y-67363371D01*
X27053907Y-67363364D01*
X26871839Y-67287950D01*
X26871829Y-67287947D01*
X26678543Y-67249500D01*
X26678541Y-67249500D01*
X26481459Y-67249500D01*
X26481457Y-67249500D01*
X26288170Y-67287947D01*
X26288160Y-67287950D01*
X26106092Y-67363364D01*
X26106079Y-67363371D01*
X25942218Y-67472860D01*
X25942214Y-67472863D01*
X25802863Y-67612214D01*
X25802860Y-67612218D01*
X25693371Y-67776079D01*
X25693364Y-67776092D01*
X25617950Y-67958160D01*
X25617947Y-67958170D01*
X25579500Y-68151456D01*
X25579500Y-68151459D01*
X25579500Y-68348541D01*
X25579500Y-68348543D01*
X25579499Y-68348543D01*
X24877609Y-68348543D01*
X24877609Y-64750000D01*
X25303391Y-64750000D01*
X26264314Y-64750000D01*
X26259920Y-64754394D01*
X26207259Y-64845606D01*
X26180000Y-64947339D01*
X26180000Y-65052661D01*
X26207259Y-65154394D01*
X26259920Y-65245606D01*
X26264314Y-65250000D01*
X25303391Y-65250000D01*
X25312009Y-65304413D01*
X25375244Y-65499029D01*
X25468140Y-65681349D01*
X25588417Y-65846894D01*
X25588417Y-65846895D01*
X25733104Y-65991582D01*
X25898650Y-66111859D01*
X26080968Y-66204754D01*
X26275578Y-66267988D01*
X26330000Y-66276607D01*
X26330000Y-65315686D01*
X26334394Y-65320080D01*
X26425606Y-65372741D01*
X26527339Y-65400000D01*
X26632661Y-65400000D01*
X26734394Y-65372741D01*
X26825606Y-65320080D01*
X26830000Y-65315686D01*
X26830000Y-66276606D01*
X26884421Y-66267988D01*
X27079031Y-66204754D01*
X27261349Y-66111859D01*
X27426894Y-65991582D01*
X27426895Y-65991582D01*
X27571582Y-65846895D01*
X27571582Y-65846894D01*
X27691859Y-65681349D01*
X27784755Y-65499029D01*
X27847990Y-65304413D01*
X27856609Y-65250000D01*
X26895686Y-65250000D01*
X26900080Y-65245606D01*
X26952741Y-65154394D01*
X26967706Y-65098543D01*
X30419499Y-65098543D01*
X30457947Y-65291829D01*
X30457950Y-65291839D01*
X30533364Y-65473907D01*
X30533371Y-65473920D01*
X30642860Y-65637781D01*
X30642863Y-65637785D01*
X30782214Y-65777136D01*
X30782218Y-65777139D01*
X30946079Y-65886628D01*
X30946092Y-65886635D01*
X31069499Y-65937751D01*
X31128165Y-65962051D01*
X31128169Y-65962051D01*
X31128170Y-65962052D01*
X31321456Y-66000500D01*
X31321459Y-66000500D01*
X31518543Y-66000500D01*
X31648582Y-65974632D01*
X31711835Y-65962051D01*
X31893914Y-65886632D01*
X32057782Y-65777139D01*
X32197139Y-65637782D01*
X32306632Y-65473914D01*
X32382051Y-65291835D01*
X32420500Y-65098541D01*
X32420500Y-64901459D01*
X32420500Y-64901456D01*
X32382052Y-64708170D01*
X32382051Y-64708169D01*
X32382051Y-64708165D01*
X32337248Y-64600000D01*
X32306635Y-64526092D01*
X32306628Y-64526079D01*
X32197139Y-64362218D01*
X32197136Y-64362214D01*
X32057785Y-64222863D01*
X32057781Y-64222860D01*
X31893920Y-64113371D01*
X31893907Y-64113364D01*
X31711839Y-64037950D01*
X31711829Y-64037947D01*
X31518543Y-63999500D01*
X31518541Y-63999500D01*
X31321459Y-63999500D01*
X31321457Y-63999500D01*
X31128170Y-64037947D01*
X31128160Y-64037950D01*
X30946092Y-64113364D01*
X30946079Y-64113371D01*
X30782218Y-64222860D01*
X30782214Y-64222863D01*
X30642863Y-64362214D01*
X30642860Y-64362218D01*
X30533371Y-64526079D01*
X30533364Y-64526092D01*
X30457950Y-64708160D01*
X30457947Y-64708170D01*
X30419500Y-64901456D01*
X30419500Y-64901459D01*
X30419500Y-65098541D01*
X30419500Y-65098543D01*
X30419499Y-65098543D01*
X26967706Y-65098543D01*
X26980000Y-65052661D01*
X26980000Y-64947339D01*
X26952741Y-64845606D01*
X26900080Y-64754394D01*
X26895686Y-64750000D01*
X27856609Y-64750000D01*
X27847990Y-64695586D01*
X27784755Y-64500970D01*
X27691859Y-64318650D01*
X27571582Y-64153105D01*
X27571582Y-64153104D01*
X27426895Y-64008417D01*
X27261349Y-63888140D01*
X27079029Y-63795244D01*
X26884413Y-63732009D01*
X26830000Y-63723390D01*
X26830000Y-64684314D01*
X26825606Y-64679920D01*
X26734394Y-64627259D01*
X26632661Y-64600000D01*
X26527339Y-64600000D01*
X26425606Y-64627259D01*
X26334394Y-64679920D01*
X26330000Y-64684314D01*
X26330000Y-63723390D01*
X26275586Y-63732009D01*
X26080970Y-63795244D01*
X25898650Y-63888140D01*
X25733105Y-64008417D01*
X25733104Y-64008417D01*
X25588417Y-64153104D01*
X25588417Y-64153105D01*
X25468140Y-64318650D01*
X25375244Y-64500970D01*
X25312009Y-64695586D01*
X25303391Y-64750000D01*
X24877609Y-64750000D01*
X24877609Y-61822954D01*
X24897294Y-61755915D01*
X24950098Y-61710160D01*
X25019256Y-61700216D01*
X25082812Y-61729241D01*
X25089290Y-61735273D01*
X25182172Y-61828155D01*
X25366881Y-61962355D01*
X25462993Y-62011326D01*
X25570305Y-62066005D01*
X25570307Y-62066005D01*
X25570310Y-62066007D01*
X25686701Y-62103825D01*
X25787448Y-62136560D01*
X26012947Y-62172276D01*
X26012952Y-62172276D01*
X26241271Y-62172276D01*
X26466769Y-62136560D01*
X26683908Y-62066007D01*
X26887337Y-61962355D01*
X27072046Y-61828155D01*
X27233488Y-61666713D01*
X27367688Y-61482004D01*
X27471340Y-61278575D01*
X27541893Y-61061436D01*
X27577609Y-60835938D01*
X27577609Y-60607613D01*
X27541893Y-60382115D01*
X27471338Y-60164972D01*
X27388298Y-60001998D01*
X27367688Y-59961548D01*
X27233488Y-59776839D01*
X27072046Y-59615397D01*
X26887337Y-59481197D01*
X26683912Y-59377546D01*
X26466769Y-59306991D01*
X26241271Y-59271276D01*
X26241266Y-59271276D01*
X26012952Y-59271276D01*
X26012947Y-59271276D01*
X25787448Y-59306991D01*
X25570305Y-59377546D01*
X25366880Y-59481197D01*
X25182170Y-59615398D01*
X25182169Y-59615399D01*
X25089290Y-59708279D01*
X25027967Y-59741764D01*
X24958275Y-59736780D01*
X24902342Y-59694908D01*
X24877925Y-59629444D01*
X24877609Y-59620598D01*
X24877609Y-53644755D01*
X24897294Y-53577716D01*
X24950098Y-53531961D01*
X25019256Y-53522017D01*
X25082812Y-53551042D01*
X25101923Y-53571864D01*
X25171260Y-53667298D01*
X25332702Y-53828740D01*
X25517411Y-53962940D01*
X25549457Y-53979268D01*
X25720835Y-54066590D01*
X25720837Y-54066590D01*
X25720840Y-54066592D01*
X25837231Y-54104410D01*
X25937978Y-54137145D01*
X26163477Y-54172861D01*
X26163482Y-54172861D01*
X26391801Y-54172861D01*
X26617299Y-54137145D01*
X26834438Y-54066592D01*
X27037867Y-53962940D01*
X27222576Y-53828740D01*
X27384018Y-53667298D01*
X27518218Y-53482589D01*
X27621870Y-53279160D01*
X27692423Y-53062021D01*
X27706771Y-52971431D01*
X27728139Y-52836523D01*
X27728139Y-52608198D01*
X27692423Y-52382700D01*
X27625509Y-52176762D01*
X27621870Y-52165562D01*
X27621868Y-52165559D01*
X27621868Y-52165557D01*
X27518217Y-51962132D01*
X27453351Y-51872852D01*
X27384018Y-51777424D01*
X27222576Y-51615982D01*
X27037867Y-51481782D01*
X26834442Y-51378131D01*
X26617299Y-51307576D01*
X26391801Y-51271861D01*
X26391796Y-51271861D01*
X26163482Y-51271861D01*
X26163477Y-51271861D01*
X25937978Y-51307576D01*
X25720835Y-51378131D01*
X25517410Y-51481782D01*
X25332700Y-51615983D01*
X25171261Y-51777422D01*
X25101927Y-51872852D01*
X25046596Y-51915517D01*
X24976983Y-51921496D01*
X24915188Y-51888890D01*
X24880831Y-51828051D01*
X24877609Y-51799966D01*
X24877609Y-48200033D01*
X24897294Y-48132994D01*
X24950098Y-48087239D01*
X25019256Y-48077295D01*
X25082812Y-48106320D01*
X25101923Y-48127142D01*
X25171260Y-48222576D01*
X25332702Y-48384018D01*
X25517411Y-48518218D01*
X25563876Y-48541893D01*
X25720835Y-48621868D01*
X25720837Y-48621868D01*
X25720840Y-48621870D01*
X25837231Y-48659688D01*
X25937978Y-48692423D01*
X26163477Y-48728139D01*
X26163482Y-48728139D01*
X26391801Y-48728139D01*
X26617299Y-48692423D01*
X26834438Y-48621870D01*
X27037867Y-48518218D01*
X27222576Y-48384018D01*
X27384018Y-48222576D01*
X27518218Y-48037867D01*
X27621870Y-47834438D01*
X27692423Y-47617299D01*
X27694338Y-47605206D01*
X27728139Y-47391801D01*
X27728139Y-47163476D01*
X30271861Y-47163476D01*
X30271861Y-47391801D01*
X30307576Y-47617299D01*
X30378131Y-47834442D01*
X30432367Y-47940885D01*
X30481782Y-48037867D01*
X30615982Y-48222576D01*
X30777424Y-48384018D01*
X30962133Y-48518218D01*
X31008598Y-48541893D01*
X31165557Y-48621868D01*
X31165559Y-48621868D01*
X31165562Y-48621870D01*
X31281953Y-48659688D01*
X31382700Y-48692423D01*
X31608199Y-48728139D01*
X31608204Y-48728139D01*
X31836523Y-48728139D01*
X32062021Y-48692423D01*
X32279160Y-48621870D01*
X32482589Y-48518218D01*
X32667298Y-48384018D01*
X32828740Y-48222576D01*
X32962940Y-48037867D01*
X33066592Y-47834438D01*
X33137145Y-47617299D01*
X33139060Y-47605206D01*
X33172861Y-47391801D01*
X33172861Y-47163476D01*
X33137145Y-46937978D01*
X33104410Y-46837231D01*
X33066592Y-46720840D01*
X33066590Y-46720837D01*
X33066590Y-46720835D01*
X32962939Y-46517410D01*
X32903752Y-46435947D01*
X32828740Y-46332702D01*
X32667298Y-46171260D01*
X32482589Y-46037060D01*
X32279164Y-45933409D01*
X32062021Y-45862854D01*
X31836523Y-45827139D01*
X31836518Y-45827139D01*
X31608204Y-45827139D01*
X31608199Y-45827139D01*
X31382700Y-45862854D01*
X31165557Y-45933409D01*
X30962132Y-46037060D01*
X30777422Y-46171261D01*
X30615983Y-46332700D01*
X30481782Y-46517410D01*
X30378131Y-46720835D01*
X30307576Y-46937978D01*
X30271861Y-47163476D01*
X27728139Y-47163476D01*
X27692423Y-46937978D01*
X27659688Y-46837231D01*
X27621870Y-46720840D01*
X27621868Y-46720837D01*
X27621868Y-46720835D01*
X27518217Y-46517410D01*
X27459030Y-46435947D01*
X27384018Y-46332702D01*
X27222576Y-46171260D01*
X27037867Y-46037060D01*
X26834442Y-45933409D01*
X26617299Y-45862854D01*
X26391801Y-45827139D01*
X26391796Y-45827139D01*
X26163482Y-45827139D01*
X26163481Y-45827139D01*
X26131884Y-45832143D01*
X26062591Y-45823187D01*
X26009140Y-45778190D01*
X25988501Y-45711438D01*
X26007227Y-45644125D01*
X26024803Y-45621992D01*
X31059116Y-40587679D01*
X31120437Y-40554196D01*
X31190129Y-40559180D01*
X31203085Y-40564874D01*
X31244761Y-40586109D01*
X31316087Y-40622453D01*
X31316089Y-40622453D01*
X31316092Y-40622455D01*
X31391418Y-40646930D01*
X31533230Y-40693008D01*
X31758729Y-40728724D01*
X31758734Y-40728724D01*
X31987053Y-40728724D01*
X32212551Y-40693008D01*
X32429690Y-40622455D01*
X32633119Y-40518803D01*
X32817828Y-40384603D01*
X32979270Y-40223161D01*
X33113470Y-40038452D01*
X33217122Y-39835023D01*
X33287675Y-39617884D01*
X33289779Y-39604599D01*
X33323391Y-39392386D01*
X33323391Y-39164061D01*
X33287675Y-38938563D01*
X33217120Y-38721420D01*
X33113469Y-38517995D01*
X32998486Y-38359736D01*
X32979270Y-38333287D01*
X32817828Y-38171845D01*
X32633119Y-38037645D01*
X32429694Y-37933994D01*
X32212551Y-37863439D01*
X31987053Y-37827724D01*
X31987048Y-37827724D01*
X31758734Y-37827724D01*
X31758729Y-37827724D01*
X31533230Y-37863439D01*
X31316087Y-37933994D01*
X31112662Y-38037645D01*
X30927952Y-38171846D01*
X30766513Y-38333285D01*
X30632312Y-38517995D01*
X30528661Y-38721420D01*
X30458106Y-38938563D01*
X30422391Y-39164061D01*
X30422391Y-39392386D01*
X30458106Y-39617884D01*
X30528661Y-39835027D01*
X30586236Y-39948023D01*
X30599132Y-40016693D01*
X30572856Y-40081433D01*
X30563432Y-40091999D01*
X24246640Y-46408792D01*
X24246636Y-46408797D01*
X24230961Y-46435947D01*
X24230958Y-46435953D01*
X24225173Y-46445975D01*
X24200495Y-46488718D01*
X24176609Y-46577862D01*
X23101615Y-46577862D01*
X23101615Y-43645428D01*
X23121300Y-43578389D01*
X23137929Y-43557752D01*
X25930638Y-40765042D01*
X25991961Y-40731558D01*
X26018319Y-40728724D01*
X26241271Y-40728724D01*
X26466769Y-40693008D01*
X26683908Y-40622455D01*
X26887337Y-40518803D01*
X27072046Y-40384603D01*
X27233488Y-40223161D01*
X27367688Y-40038452D01*
X27471340Y-39835023D01*
X27541893Y-39617884D01*
X27543997Y-39604599D01*
X27577609Y-39392386D01*
X27577609Y-39164061D01*
X27541893Y-38938563D01*
X27471338Y-38721420D01*
X27367687Y-38517995D01*
X27252704Y-38359736D01*
X27233488Y-38333287D01*
X27072046Y-38171845D01*
X26887337Y-38037645D01*
X26683912Y-37933994D01*
X26466769Y-37863439D01*
X26241271Y-37827724D01*
X26241266Y-37827724D01*
X26012952Y-37827724D01*
X26012947Y-37827724D01*
X25787448Y-37863439D01*
X25570305Y-37933994D01*
X25366880Y-38037645D01*
X25182170Y-38171846D01*
X25020731Y-38333285D01*
X24886530Y-38517995D01*
X24782879Y-38721420D01*
X24712324Y-38938563D01*
X24676609Y-39164061D01*
X24676609Y-39392386D01*
X24712324Y-39617884D01*
X24782879Y-39835027D01*
X24807860Y-39884054D01*
X24886530Y-40038452D01*
X24925434Y-40091999D01*
X25020731Y-40223162D01*
X25163262Y-40365693D01*
X25196747Y-40427016D01*
X25191763Y-40496708D01*
X25163262Y-40541055D01*
X22470646Y-43233671D01*
X22470642Y-43233676D01*
X22424502Y-43313594D01*
X22424501Y-43313597D01*
X22400615Y-43402741D01*
X22400615Y-52352341D01*
X22380930Y-52419380D01*
X22364296Y-52440022D01*
X18919531Y-55884786D01*
X18919527Y-55884791D01*
X18873387Y-55964709D01*
X18873386Y-55964712D01*
X18849500Y-56053856D01*
X18849500Y-65273455D01*
X18829815Y-65340494D01*
X18813181Y-65361136D01*
X16893835Y-67280481D01*
X16832512Y-67313966D01*
X16762820Y-67308982D01*
X16758703Y-67307362D01*
X16753874Y-67305361D01*
X16711835Y-67287949D01*
X16711831Y-67287948D01*
X16711828Y-67287947D01*
X16518543Y-67249500D01*
X16518541Y-67249500D01*
X16321459Y-67249500D01*
X16321457Y-67249500D01*
X16128170Y-67287947D01*
X16128160Y-67287950D01*
X15946092Y-67363364D01*
X15946079Y-67363371D01*
X15782218Y-67472860D01*
X15782214Y-67472863D01*
X15712181Y-67542897D01*
X15650858Y-67576382D01*
X15581166Y-67571398D01*
X15525233Y-67529526D01*
X15500816Y-67464062D01*
X15500500Y-67455216D01*
X15500500Y-65794784D01*
X15520185Y-65727745D01*
X15572989Y-65681990D01*
X15642147Y-65672046D01*
X15705703Y-65701071D01*
X15712181Y-65707103D01*
X15782214Y-65777136D01*
X15782218Y-65777139D01*
X15946079Y-65886628D01*
X15946092Y-65886635D01*
X16069499Y-65937751D01*
X16128165Y-65962051D01*
X16128169Y-65962051D01*
X16128170Y-65962052D01*
X16321456Y-66000500D01*
X16321459Y-66000500D01*
X16518543Y-66000500D01*
X16648582Y-65974632D01*
X16711835Y-65962051D01*
X16893914Y-65886632D01*
X17057782Y-65777139D01*
X17197139Y-65637782D01*
X17306632Y-65473914D01*
X17382051Y-65291835D01*
X17420500Y-65098541D01*
X17420500Y-64901459D01*
X17420500Y-64901456D01*
X17382052Y-64708170D01*
X17382051Y-64708169D01*
X17382051Y-64708165D01*
X17337248Y-64600000D01*
X17306635Y-64526092D01*
X17306628Y-64526079D01*
X17197139Y-64362218D01*
X17197136Y-64362214D01*
X17057785Y-64222863D01*
X17057781Y-64222860D01*
X16893920Y-64113371D01*
X16893905Y-64113363D01*
X16847046Y-64093953D01*
X16792643Y-64050112D01*
X16770579Y-63983817D01*
X16770500Y-63979393D01*
X16770500Y-53625314D01*
X16790185Y-53558275D01*
X16842989Y-53512520D01*
X16912147Y-53502576D01*
X16975703Y-53531601D01*
X17004985Y-53569020D01*
X17037643Y-53633117D01*
X17062478Y-53667299D01*
X17171845Y-53817828D01*
X17333287Y-53979270D01*
X17517996Y-54113470D01*
X17564461Y-54137145D01*
X17721420Y-54217120D01*
X17721422Y-54217120D01*
X17721425Y-54217122D01*
X17837816Y-54254940D01*
X17938563Y-54287675D01*
X18164062Y-54323391D01*
X18164067Y-54323391D01*
X18392386Y-54323391D01*
X18617884Y-54287675D01*
X18835023Y-54217122D01*
X19038452Y-54113470D01*
X19223161Y-53979270D01*
X19384603Y-53817828D01*
X19518803Y-53633119D01*
X19622455Y-53429690D01*
X19693008Y-53212551D01*
X19702433Y-53153046D01*
X19728724Y-52987053D01*
X19728724Y-52758728D01*
X19693008Y-52533230D01*
X19650922Y-52403703D01*
X19622455Y-52316092D01*
X19622453Y-52316089D01*
X19622453Y-52316087D01*
X19518802Y-52112662D01*
X19384603Y-51927954D01*
X19223161Y-51766512D01*
X19038452Y-51632312D01*
X18835027Y-51528661D01*
X18617884Y-51458106D01*
X18392386Y-51422391D01*
X18392381Y-51422391D01*
X18164067Y-51422391D01*
X18164062Y-51422391D01*
X17938563Y-51458106D01*
X17721420Y-51528661D01*
X17517995Y-51632312D01*
X17333285Y-51766513D01*
X17171846Y-51927952D01*
X17037645Y-52112662D01*
X17004985Y-52176762D01*
X16957010Y-52227558D01*
X16889189Y-52244353D01*
X16823054Y-52221816D01*
X16779603Y-52167100D01*
X16770500Y-52120467D01*
X16770500Y-48300612D01*
X16790185Y-48233573D01*
X16842989Y-48187818D01*
X16868673Y-48183105D01*
X17600645Y-47451133D01*
X17613583Y-47482367D01*
X17695661Y-47605206D01*
X17800127Y-47709672D01*
X17922966Y-47791750D01*
X17954198Y-47804687D01*
X17230158Y-48528726D01*
X17230158Y-48528727D01*
X17303890Y-48585303D01*
X17502554Y-48700002D01*
X17502564Y-48700006D01*
X17714493Y-48787790D01*
X17936086Y-48847166D01*
X18163513Y-48877107D01*
X18163530Y-48877109D01*
X18392918Y-48877109D01*
X18392934Y-48877107D01*
X18620361Y-48847166D01*
X18841954Y-48787790D01*
X19053883Y-48700006D01*
X19053892Y-48700002D01*
X19252551Y-48585306D01*
X19252558Y-48585301D01*
X19326288Y-48528726D01*
X18602249Y-47804687D01*
X18633482Y-47791750D01*
X18756321Y-47709672D01*
X18860787Y-47605206D01*
X18942865Y-47482367D01*
X18955802Y-47451134D01*
X19679841Y-48175173D01*
X19736416Y-48101443D01*
X19736421Y-48101436D01*
X19851117Y-47902777D01*
X19851121Y-47902768D01*
X19938905Y-47690839D01*
X19998281Y-47469246D01*
X20028222Y-47241819D01*
X20028224Y-47241803D01*
X20028224Y-47012414D01*
X20028222Y-47012398D01*
X19998281Y-46784971D01*
X19938905Y-46563378D01*
X19851121Y-46351449D01*
X19851117Y-46351439D01*
X19736418Y-46152775D01*
X19679842Y-46079043D01*
X19679841Y-46079043D01*
X18955801Y-46803082D01*
X18942865Y-46771851D01*
X18860787Y-46649012D01*
X18756321Y-46544546D01*
X18633482Y-46462468D01*
X18602248Y-46449530D01*
X19326288Y-45725490D01*
X19326288Y-45725489D01*
X19252555Y-45668914D01*
X19252548Y-45668908D01*
X19053893Y-45554215D01*
X19053883Y-45554211D01*
X18841954Y-45466427D01*
X18620361Y-45407051D01*
X18525786Y-45394600D01*
X18461890Y-45366333D01*
X18423419Y-45308008D01*
X18422588Y-45238144D01*
X18454290Y-45183981D01*
X20232418Y-43405852D01*
X20293739Y-43372369D01*
X20363431Y-43377353D01*
X20386402Y-43389683D01*
X20386731Y-43389148D01*
X20390878Y-43391689D01*
X20390885Y-43391692D01*
X20390887Y-43391694D01*
X20418678Y-43405854D01*
X20594311Y-43495344D01*
X20594313Y-43495344D01*
X20594316Y-43495346D01*
X20710707Y-43533164D01*
X20811454Y-43565899D01*
X21036953Y-43601615D01*
X21036958Y-43601615D01*
X21265277Y-43601615D01*
X21490775Y-43565899D01*
X21515864Y-43557747D01*
X21707914Y-43495346D01*
X21911343Y-43391694D01*
X22096052Y-43257494D01*
X22257494Y-43096052D01*
X22391694Y-42911343D01*
X22495346Y-42707914D01*
X22565899Y-42490775D01*
X22572462Y-42449339D01*
X22601615Y-42265277D01*
X22601615Y-42036952D01*
X22565899Y-41811454D01*
X22495344Y-41594311D01*
X22391693Y-41390886D01*
X22358802Y-41345616D01*
X22257494Y-41206178D01*
X22096052Y-41044736D01*
X21911343Y-40910536D01*
X21707918Y-40806885D01*
X21490775Y-40736330D01*
X21265277Y-40700615D01*
X21265272Y-40700615D01*
X21036958Y-40700615D01*
X21036953Y-40700615D01*
X20811454Y-40736330D01*
X20594311Y-40806885D01*
X20390886Y-40910536D01*
X20206176Y-41044737D01*
X20044737Y-41206176D01*
X19910536Y-41390886D01*
X19806885Y-41594311D01*
X19736330Y-41811454D01*
X19700615Y-42036952D01*
X19700615Y-42265277D01*
X19736331Y-42490776D01*
X19736331Y-42490779D01*
X19806882Y-42707910D01*
X19810575Y-42715158D01*
X19823472Y-42783827D01*
X19797196Y-42848568D01*
X19787772Y-42859135D01*
X16461762Y-46185146D01*
X16400439Y-46218631D01*
X16330747Y-46213647D01*
X16274814Y-46171775D01*
X16250397Y-46106311D01*
X16257433Y-46055401D01*
X16426315Y-45587097D01*
X16428702Y-45580991D01*
X16705617Y-44924847D01*
X16708311Y-44918909D01*
X17019751Y-44278443D01*
X17022791Y-44272593D01*
X17367870Y-43649619D01*
X17371187Y-43643990D01*
X17748923Y-43040282D01*
X17752569Y-43034786D01*
X17977079Y-42715158D01*
X18161921Y-42452004D01*
X18165813Y-42446767D01*
X18605597Y-41886606D01*
X18609782Y-41881558D01*
X19078755Y-41345598D01*
X19083200Y-41340782D01*
X19580039Y-40830537D01*
X19584722Y-40825976D01*
X20108035Y-40342878D01*
X20112951Y-40338577D01*
X20661195Y-39884045D01*
X20666347Y-39879999D01*
X21238034Y-39455270D01*
X21243383Y-39451513D01*
X21836847Y-39057823D01*
X21842411Y-39054342D01*
X22455971Y-38692806D01*
X22461727Y-38689618D01*
X22484544Y-38677762D01*
X23093647Y-38361255D01*
X23099572Y-38358373D01*
X23748084Y-38064102D01*
X23754113Y-38061558D01*
X24417397Y-37802208D01*
X24423567Y-37799983D01*
X25099682Y-37576313D01*
X25105973Y-37574416D01*
X25793060Y-37387040D01*
X25799395Y-37385492D01*
X26495486Y-37234949D01*
X26501940Y-37233733D01*
X27205016Y-37120456D01*
X27211525Y-37119584D01*
X27919680Y-37043883D01*
X27926215Y-37043360D01*
X28565918Y-37009266D01*
X28637335Y-37005460D01*
X28643934Y-37005284D01*
X29356066Y-37005284D01*
X29362665Y-37005460D01*
G37*
G04 #@! TD.AperFunction*
M02*
