M48
; DRILL file {KiCad 9.0.4-9.0.4-0~ubuntu22.04.1} date 2025-10-19T11:48:00+0100
; FORMAT={-:-/ absolute / metric / decimal}
; #@! TF.CreationDate,2025-10-19T11:48:00+01:00
; #@! TF.GenerationSoftware,Kicad,Pcbnew,9.0.4-9.0.4-0~ubuntu22.04.1
; #@! TF.FileFunction,Plated,1,2,PTH
FMAT,2
METRIC
; #@! TA.AperFunction,Plated,PTH,ViaDrill
T1C0.400
; #@! TA.AperFunction,Plated,PTH,ComponentDrill
T2C0.750
; #@! TA.AperFunction,Plated,PTH,ComponentDrill
T3C0.762
; #@! TA.AperFunction,Plated,PTH,ComponentDrill
T4C0.800
; #@! TA.AperFunction,Plated,PTH,ComponentDrill
T5C1.000
; #@! TA.AperFunction,Plated,PTH,ComponentDrill
T6C1.100
; #@! TA.AperFunction,Plated,PTH,ComponentDrill
T7C2.000
%
G90
G05
T1
X60.7Y-85.9
X62.4Y-85.9
X63.7Y-59.6
X69.2Y-98.6
X74.9Y-120.7
X75.4Y-121.6
X75.5Y-100.0
X75.9Y-120.7
X76.6Y-100.0
X77.7Y-100.0
X77.9Y-97.8
X78.1Y-58.5
X80.0Y-90.15
X81.0Y-121.3
X81.2Y-123.3
X81.4Y-102.6
X81.4Y-103.5
X81.6Y-94.1
X81.6Y-95.0
X81.7Y-99.3
X84.2Y-120.6
X84.7Y-121.4
X85.2Y-120.6
X88.1Y-69.7
X89.6Y-98.95
X91.9Y-98.2
X92.4Y-57.6
X93.15Y-71.311
X97.8Y-97.7
X97.8Y-98.7
X98.8Y-97.7
X98.8Y-98.7
X100.8Y-117.5
X101.1Y-50.6
X101.1Y-51.8
X101.2Y-54.4
T2
X75.83Y-80.6
X76.33Y-68.24
X77.1Y-80.6
X77.6Y-68.24
X78.37Y-80.6
X78.87Y-68.24
X81.33Y-80.6
X82.6Y-80.6
X83.83Y-96.9
X83.83Y-101.3
X83.87Y-80.6
X85.1Y-96.9
X85.1Y-101.3
X86.37Y-96.9
X86.37Y-101.3
T3
X65.35Y-77.0
X65.35Y-85.7
X68.85Y-77.0
X68.85Y-85.7
X71.9Y-74.25
X71.9Y-77.75
X95.05Y-80.5
X98.55Y-80.5
T4
X55.92Y-64.6
X57.3Y-39.36
X57.3Y-41.9
X57.3Y-44.44
X58.1Y-105.2
X58.1Y-115.36
X58.7Y-128.32
X58.7Y-138.48
X59.1Y-74.2
X59.12Y-79.8
X59.12Y-88.5
X59.12Y-91.7
X59.14Y-82.9
X60.085Y-118.1
X60.085Y-125.72
X61.2Y-56.3
X61.2Y-61.3
X61.2Y-105.2
X61.2Y-115.36
X61.75Y-142.3
X61.75Y-144.3
X61.8Y-128.32
X61.8Y-138.48
X62.625Y-118.1
X62.625Y-125.72
X62.9Y-40.84
X62.9Y-51.0
X63.985Y-94.975
X63.985Y-102.595
X64.3Y-105.22
X64.3Y-115.38
X64.4Y-53.7
X64.4Y-61.32
X64.42Y-132.0
X65.165Y-118.1
X65.165Y-125.72
X66.08Y-64.6
X66.1Y-40.82
X66.1Y-50.98
X66.525Y-94.975
X66.525Y-102.595
X66.94Y-53.7
X66.94Y-61.32
X67.4Y-105.22
X67.4Y-115.38
X67.7Y-128.8
X67.705Y-118.1
X67.705Y-125.72
X68.32Y-64.6
X68.5Y-67.7
X69.065Y-94.975
X69.065Y-102.595
X69.26Y-74.2
X69.28Y-79.8
X69.28Y-88.5
X69.28Y-91.7
X69.3Y-40.82
X69.3Y-50.98
X69.3Y-82.9
X69.48Y-53.7
X69.48Y-61.32
X70.245Y-118.1
X70.245Y-125.72
X70.5Y-110.2
X70.5Y-115.2
X71.605Y-94.975
X71.605Y-102.595
X72.02Y-53.7
X72.02Y-61.32
X72.4Y-45.75
X72.4Y-50.75
X72.7Y-82.24
X72.7Y-92.4
X72.7Y-128.8
X72.785Y-118.1
X72.785Y-125.72
X73.5Y-67.7
X73.6Y-110.2
X73.6Y-115.2
X74.145Y-94.975
X74.145Y-102.595
X74.3Y-105.7
X74.58Y-132.0
X75.0Y-61.3
X75.2Y-53.5
X75.2Y-58.5
X75.325Y-118.1
X75.325Y-125.72
X75.42Y-73.2
X75.42Y-76.3
X75.5Y-40.79
X75.5Y-50.95
X75.5Y-84.79
X75.5Y-92.41
X76.685Y-94.975
X76.685Y-102.595
X76.82Y-129.7
X76.82Y-132.8
X76.82Y-135.9
X78.1Y-84.79
X78.1Y-92.41
X78.48Y-64.6
X78.5Y-116.92
X78.5Y-127.08
X79.225Y-94.975
X79.225Y-102.595
X79.3Y-105.7
X79.5Y-41.1
X79.5Y-51.26
X80.0Y-61.3
X80.9Y-87.2
X80.9Y-92.2
X82.6Y-41.1
X82.6Y-51.26
X83.485Y-118.1
X83.485Y-125.72
X84.0Y-85.4
X84.0Y-87.94
X84.0Y-90.48
X84.5Y-105.24
X84.5Y-115.4
X85.22Y-57.5
X85.22Y-60.6
X85.24Y-47.8
X85.24Y-50.9
X85.58Y-73.2
X85.58Y-76.3
X86.025Y-118.1
X86.025Y-125.72
X86.98Y-129.7
X86.98Y-132.8
X86.98Y-135.9
X87.6Y-105.24
X87.6Y-115.4
X88.0Y-39.16
X88.0Y-41.7
X88.0Y-44.24
X88.565Y-118.1
X88.565Y-125.72
X88.92Y-77.7
X88.92Y-83.3
X88.92Y-86.4
X89.7Y-128.6
X89.7Y-133.6
X90.2Y-54.5
X90.7Y-110.2
X90.7Y-115.2
X91.105Y-118.1
X91.105Y-125.72
X93.645Y-118.1
X93.645Y-125.72
X93.8Y-110.2
X93.8Y-115.2
X94.8Y-39.2
X94.8Y-41.74
X94.8Y-44.28
X95.2Y-54.5
X95.38Y-57.5
X95.38Y-60.6
X95.4Y-47.8
X95.4Y-50.9
X95.9Y-128.6
X95.9Y-133.6
X96.185Y-118.1
X96.185Y-125.72
X97.0Y-105.22
X97.0Y-115.38
X97.25Y-142.5
X97.25Y-144.5
X97.8Y-59.3
X98.725Y-118.1
X98.725Y-125.72
X99.08Y-77.7
X99.08Y-83.3
X99.08Y-86.4
X99.1Y-128.32
X99.1Y-138.48
X99.5Y-61.9
X99.5Y-72.06
X100.1Y-105.24
X100.1Y-115.4
X101.6Y-39.2
X101.6Y-41.74
X101.6Y-44.28
X102.3Y-117.62
X102.3Y-127.78
X102.3Y-130.2
X102.3Y-135.2
X102.6Y-61.9
X102.6Y-72.06
X102.8Y-59.3
X102.9Y-97.98
X102.9Y-105.6
X102.9Y-107.78
X102.9Y-115.4
T5
X56.25Y-76.75
X56.25Y-79.29
X56.25Y-81.83
X56.25Y-84.37
X56.25Y-86.91
X56.25Y-89.45
X56.25Y-91.99
X56.25Y-94.53
X59.3Y-99.1
X59.3Y-101.64
X74.42Y-140.25
X74.42Y-142.79
X76.96Y-140.25
X76.96Y-142.79
X79.5Y-140.25
X79.5Y-142.79
X82.04Y-140.25
X82.04Y-142.79
X84.58Y-140.25
X84.58Y-142.79
X96.0Y-65.48
X96.0Y-68.02
X96.0Y-70.56
X96.0Y-73.1
X102.75Y-76.75
X102.75Y-79.29
X102.75Y-81.83
X102.75Y-84.37
X102.75Y-86.91
X102.75Y-89.45
X102.75Y-91.99
X102.75Y-94.53
T6
X66.7Y-134.94
X66.7Y-145.1
X92.8Y-134.92
X92.8Y-145.08
T7
X57.2Y-53.8
X87.3Y-80.4
X92.7Y-91.0
M30
