G04 #@! TF.GenerationSoftware,KiCad,Pcbnew,9.0.4-9.0.4-0~ubuntu22.04.1*
G04 #@! TF.CreationDate,2025-10-19T11:48:00+01:00*
G04 #@! TF.ProjectId,CD40106_VCO,43443430-3130-4365-9f56-434f2e6b6963,rev?*
G04 #@! TF.SameCoordinates,Original*
G04 #@! TF.FileFunction,Legend,Bot*
G04 #@! TF.FilePolarity,Positive*
%FSLAX46Y46*%
G04 Gerber Fmt 4.6, Leading zero omitted, Abs format (unit mm)*
G04 Created by KiCad (PCBNEW 9.0.4-9.0.4-0~ubuntu22.04.1) date 2025-10-19 11:48:00*
%MOMM*%
%LPD*%
G01*
G04 APERTURE LIST*
%ADD10C,0.120000*%
%ADD11C,0.150000*%
%ADD12C,1.600000*%
%ADD13O,1.600000X1.600000*%
%ADD14R,1.700000X1.700000*%
%ADD15O,1.700000X1.700000*%
%ADD16C,1.524000*%
%ADD17C,2.200000*%
%ADD18R,1.600000X1.600000*%
%ADD19C,3.200000*%
%ADD20R,1.050000X1.500000*%
%ADD21O,1.050000X1.500000*%
%ADD22R,1.600000X2.400000*%
%ADD23O,1.600000X2.400000*%
%ADD24C,3.000000*%
%ADD25C,1.700000*%
%ADD26C,1.440000*%
%ADD27C,0.800000*%
G04 APERTURE END LIST*
D10*
X57500000Y-96040000D02*
X61100000Y-96040000D01*
X61100000Y-103540000D01*
X57500000Y-103540000D01*
X57500000Y-96040000D01*
D11*
X57130180Y-102046077D02*
X57130180Y-101474649D01*
X56130180Y-101760363D02*
X57130180Y-101760363D01*
X56130180Y-100998458D02*
X56177800Y-101093696D01*
X56177800Y-101093696D02*
X56225419Y-101141315D01*
X56225419Y-101141315D02*
X56320657Y-101188934D01*
X56320657Y-101188934D02*
X56606371Y-101188934D01*
X56606371Y-101188934D02*
X56701609Y-101141315D01*
X56701609Y-101141315D02*
X56749228Y-101093696D01*
X56749228Y-101093696D02*
X56796847Y-100998458D01*
X56796847Y-100998458D02*
X56796847Y-100855601D01*
X56796847Y-100855601D02*
X56749228Y-100760363D01*
X56749228Y-100760363D02*
X56701609Y-100712744D01*
X56701609Y-100712744D02*
X56606371Y-100665125D01*
X56606371Y-100665125D02*
X56320657Y-100665125D01*
X56320657Y-100665125D02*
X56225419Y-100712744D01*
X56225419Y-100712744D02*
X56177800Y-100760363D01*
X56177800Y-100760363D02*
X56130180Y-100855601D01*
X56130180Y-100855601D02*
X56130180Y-100998458D01*
X56177800Y-99522267D02*
X56130180Y-99427029D01*
X56130180Y-99427029D02*
X56130180Y-99236553D01*
X56130180Y-99236553D02*
X56177800Y-99141315D01*
X56177800Y-99141315D02*
X56273038Y-99093696D01*
X56273038Y-99093696D02*
X56320657Y-99093696D01*
X56320657Y-99093696D02*
X56415895Y-99141315D01*
X56415895Y-99141315D02*
X56463514Y-99236553D01*
X56463514Y-99236553D02*
X56463514Y-99379410D01*
X56463514Y-99379410D02*
X56511133Y-99474648D01*
X56511133Y-99474648D02*
X56606371Y-99522267D01*
X56606371Y-99522267D02*
X56653990Y-99522267D01*
X56653990Y-99522267D02*
X56749228Y-99474648D01*
X56749228Y-99474648D02*
X56796847Y-99379410D01*
X56796847Y-99379410D02*
X56796847Y-99236553D01*
X56796847Y-99236553D02*
X56749228Y-99141315D01*
X56796847Y-98236553D02*
X56130180Y-98236553D01*
X56796847Y-98665124D02*
X56273038Y-98665124D01*
X56273038Y-98665124D02*
X56177800Y-98617505D01*
X56177800Y-98617505D02*
X56130180Y-98522267D01*
X56130180Y-98522267D02*
X56130180Y-98379410D01*
X56130180Y-98379410D02*
X56177800Y-98284172D01*
X56177800Y-98284172D02*
X56225419Y-98236553D01*
X56130180Y-97760362D02*
X57130180Y-97760362D01*
X56749228Y-97760362D02*
X56796847Y-97665124D01*
X56796847Y-97665124D02*
X56796847Y-97474648D01*
X56796847Y-97474648D02*
X56749228Y-97379410D01*
X56749228Y-97379410D02*
X56701609Y-97331791D01*
X56701609Y-97331791D02*
X56606371Y-97284172D01*
X56606371Y-97284172D02*
X56320657Y-97284172D01*
X56320657Y-97284172D02*
X56225419Y-97331791D01*
X56225419Y-97331791D02*
X56177800Y-97379410D01*
X56177800Y-97379410D02*
X56130180Y-97474648D01*
X56130180Y-97474648D02*
X56130180Y-97665124D01*
X56130180Y-97665124D02*
X56177800Y-97760362D01*
X57287030Y-50869819D02*
X57763220Y-50869819D01*
X57763220Y-50869819D02*
X57810839Y-51346009D01*
X57810839Y-51346009D02*
X57763220Y-51298390D01*
X57763220Y-51298390D02*
X57667982Y-51250771D01*
X57667982Y-51250771D02*
X57429887Y-51250771D01*
X57429887Y-51250771D02*
X57334649Y-51298390D01*
X57334649Y-51298390D02*
X57287030Y-51346009D01*
X57287030Y-51346009D02*
X57239411Y-51441247D01*
X57239411Y-51441247D02*
X57239411Y-51679342D01*
X57239411Y-51679342D02*
X57287030Y-51774580D01*
X57287030Y-51774580D02*
X57334649Y-51822200D01*
X57334649Y-51822200D02*
X57429887Y-51869819D01*
X57429887Y-51869819D02*
X57667982Y-51869819D01*
X57667982Y-51869819D02*
X57763220Y-51822200D01*
X57763220Y-51822200D02*
X57810839Y-51774580D01*
X56953696Y-50869819D02*
X56620363Y-51869819D01*
X56620363Y-51869819D02*
X56287030Y-50869819D01*
X58609580Y-142657142D02*
X58657200Y-142609523D01*
X58657200Y-142609523D02*
X58704819Y-142466666D01*
X58704819Y-142466666D02*
X58704819Y-142371428D01*
X58704819Y-142371428D02*
X58657200Y-142228571D01*
X58657200Y-142228571D02*
X58561961Y-142133333D01*
X58561961Y-142133333D02*
X58466723Y-142085714D01*
X58466723Y-142085714D02*
X58276247Y-142038095D01*
X58276247Y-142038095D02*
X58133390Y-142038095D01*
X58133390Y-142038095D02*
X57942914Y-142085714D01*
X57942914Y-142085714D02*
X57847676Y-142133333D01*
X57847676Y-142133333D02*
X57752438Y-142228571D01*
X57752438Y-142228571D02*
X57704819Y-142371428D01*
X57704819Y-142371428D02*
X57704819Y-142466666D01*
X57704819Y-142466666D02*
X57752438Y-142609523D01*
X57752438Y-142609523D02*
X57800057Y-142657142D01*
X58704819Y-143609523D02*
X58704819Y-143038095D01*
X58704819Y-143323809D02*
X57704819Y-143323809D01*
X57704819Y-143323809D02*
X57847676Y-143228571D01*
X57847676Y-143228571D02*
X57942914Y-143133333D01*
X57942914Y-143133333D02*
X57990533Y-143038095D01*
X58704819Y-144561904D02*
X58704819Y-143990476D01*
X58704819Y-144276190D02*
X57704819Y-144276190D01*
X57704819Y-144276190D02*
X57847676Y-144180952D01*
X57847676Y-144180952D02*
X57942914Y-144085714D01*
X57942914Y-144085714D02*
X57990533Y-143990476D01*
X58461904Y-55854819D02*
X57890476Y-55854819D01*
X58176190Y-56854819D02*
X58176190Y-55854819D01*
X57557142Y-56854819D02*
X57557142Y-55854819D01*
X57557142Y-55854819D02*
X57176190Y-55854819D01*
X57176190Y-55854819D02*
X57080952Y-55902438D01*
X57080952Y-55902438D02*
X57033333Y-55950057D01*
X57033333Y-55950057D02*
X56985714Y-56045295D01*
X56985714Y-56045295D02*
X56985714Y-56188152D01*
X56985714Y-56188152D02*
X57033333Y-56283390D01*
X57033333Y-56283390D02*
X57080952Y-56331009D01*
X57080952Y-56331009D02*
X57176190Y-56378628D01*
X57176190Y-56378628D02*
X57557142Y-56378628D01*
X56652380Y-55854819D02*
X56033333Y-55854819D01*
X56033333Y-55854819D02*
X56366666Y-56235771D01*
X56366666Y-56235771D02*
X56223809Y-56235771D01*
X56223809Y-56235771D02*
X56128571Y-56283390D01*
X56128571Y-56283390D02*
X56080952Y-56331009D01*
X56080952Y-56331009D02*
X56033333Y-56426247D01*
X56033333Y-56426247D02*
X56033333Y-56664342D01*
X56033333Y-56664342D02*
X56080952Y-56759580D01*
X56080952Y-56759580D02*
X56128571Y-56807200D01*
X56128571Y-56807200D02*
X56223809Y-56854819D01*
X56223809Y-56854819D02*
X56509523Y-56854819D01*
X56509523Y-56854819D02*
X56604761Y-56807200D01*
X56604761Y-56807200D02*
X56652380Y-56759580D01*
X69754819Y-45187142D02*
X69278628Y-44853809D01*
X69754819Y-44615714D02*
X68754819Y-44615714D01*
X68754819Y-44615714D02*
X68754819Y-44996666D01*
X68754819Y-44996666D02*
X68802438Y-45091904D01*
X68802438Y-45091904D02*
X68850057Y-45139523D01*
X68850057Y-45139523D02*
X68945295Y-45187142D01*
X68945295Y-45187142D02*
X69088152Y-45187142D01*
X69088152Y-45187142D02*
X69183390Y-45139523D01*
X69183390Y-45139523D02*
X69231009Y-45091904D01*
X69231009Y-45091904D02*
X69278628Y-44996666D01*
X69278628Y-44996666D02*
X69278628Y-44615714D01*
X69754819Y-46139523D02*
X69754819Y-45568095D01*
X69754819Y-45853809D02*
X68754819Y-45853809D01*
X68754819Y-45853809D02*
X68897676Y-45758571D01*
X68897676Y-45758571D02*
X68992914Y-45663333D01*
X68992914Y-45663333D02*
X69040533Y-45568095D01*
X69183390Y-46710952D02*
X69135771Y-46615714D01*
X69135771Y-46615714D02*
X69088152Y-46568095D01*
X69088152Y-46568095D02*
X68992914Y-46520476D01*
X68992914Y-46520476D02*
X68945295Y-46520476D01*
X68945295Y-46520476D02*
X68850057Y-46568095D01*
X68850057Y-46568095D02*
X68802438Y-46615714D01*
X68802438Y-46615714D02*
X68754819Y-46710952D01*
X68754819Y-46710952D02*
X68754819Y-46901428D01*
X68754819Y-46901428D02*
X68802438Y-46996666D01*
X68802438Y-46996666D02*
X68850057Y-47044285D01*
X68850057Y-47044285D02*
X68945295Y-47091904D01*
X68945295Y-47091904D02*
X68992914Y-47091904D01*
X68992914Y-47091904D02*
X69088152Y-47044285D01*
X69088152Y-47044285D02*
X69135771Y-46996666D01*
X69135771Y-46996666D02*
X69183390Y-46901428D01*
X69183390Y-46901428D02*
X69183390Y-46710952D01*
X69183390Y-46710952D02*
X69231009Y-46615714D01*
X69231009Y-46615714D02*
X69278628Y-46568095D01*
X69278628Y-46568095D02*
X69373866Y-46520476D01*
X69373866Y-46520476D02*
X69564342Y-46520476D01*
X69564342Y-46520476D02*
X69659580Y-46568095D01*
X69659580Y-46568095D02*
X69707200Y-46615714D01*
X69707200Y-46615714D02*
X69754819Y-46710952D01*
X69754819Y-46710952D02*
X69754819Y-46901428D01*
X69754819Y-46901428D02*
X69707200Y-46996666D01*
X69707200Y-46996666D02*
X69659580Y-47044285D01*
X69659580Y-47044285D02*
X69564342Y-47091904D01*
X69564342Y-47091904D02*
X69373866Y-47091904D01*
X69373866Y-47091904D02*
X69278628Y-47044285D01*
X69278628Y-47044285D02*
X69231009Y-46996666D01*
X69231009Y-46996666D02*
X69183390Y-46901428D01*
X78361904Y-71254819D02*
X78361904Y-72064342D01*
X78361904Y-72064342D02*
X78314285Y-72159580D01*
X78314285Y-72159580D02*
X78266666Y-72207200D01*
X78266666Y-72207200D02*
X78171428Y-72254819D01*
X78171428Y-72254819D02*
X77980952Y-72254819D01*
X77980952Y-72254819D02*
X77885714Y-72207200D01*
X77885714Y-72207200D02*
X77838095Y-72159580D01*
X77838095Y-72159580D02*
X77790476Y-72064342D01*
X77790476Y-72064342D02*
X77790476Y-71254819D01*
X77409523Y-71254819D02*
X76790476Y-71254819D01*
X76790476Y-71254819D02*
X77123809Y-71635771D01*
X77123809Y-71635771D02*
X76980952Y-71635771D01*
X76980952Y-71635771D02*
X76885714Y-71683390D01*
X76885714Y-71683390D02*
X76838095Y-71731009D01*
X76838095Y-71731009D02*
X76790476Y-71826247D01*
X76790476Y-71826247D02*
X76790476Y-72064342D01*
X76790476Y-72064342D02*
X76838095Y-72159580D01*
X76838095Y-72159580D02*
X76885714Y-72207200D01*
X76885714Y-72207200D02*
X76980952Y-72254819D01*
X76980952Y-72254819D02*
X77266666Y-72254819D01*
X77266666Y-72254819D02*
X77361904Y-72207200D01*
X77361904Y-72207200D02*
X77409523Y-72159580D01*
X75559580Y-55357142D02*
X75607200Y-55309523D01*
X75607200Y-55309523D02*
X75654819Y-55166666D01*
X75654819Y-55166666D02*
X75654819Y-55071428D01*
X75654819Y-55071428D02*
X75607200Y-54928571D01*
X75607200Y-54928571D02*
X75511961Y-54833333D01*
X75511961Y-54833333D02*
X75416723Y-54785714D01*
X75416723Y-54785714D02*
X75226247Y-54738095D01*
X75226247Y-54738095D02*
X75083390Y-54738095D01*
X75083390Y-54738095D02*
X74892914Y-54785714D01*
X74892914Y-54785714D02*
X74797676Y-54833333D01*
X74797676Y-54833333D02*
X74702438Y-54928571D01*
X74702438Y-54928571D02*
X74654819Y-55071428D01*
X74654819Y-55071428D02*
X74654819Y-55166666D01*
X74654819Y-55166666D02*
X74702438Y-55309523D01*
X74702438Y-55309523D02*
X74750057Y-55357142D01*
X75654819Y-56309523D02*
X75654819Y-55738095D01*
X75654819Y-56023809D02*
X74654819Y-56023809D01*
X74654819Y-56023809D02*
X74797676Y-55928571D01*
X74797676Y-55928571D02*
X74892914Y-55833333D01*
X74892914Y-55833333D02*
X74940533Y-55738095D01*
X75654819Y-56785714D02*
X75654819Y-56976190D01*
X75654819Y-56976190D02*
X75607200Y-57071428D01*
X75607200Y-57071428D02*
X75559580Y-57119047D01*
X75559580Y-57119047D02*
X75416723Y-57214285D01*
X75416723Y-57214285D02*
X75226247Y-57261904D01*
X75226247Y-57261904D02*
X74845295Y-57261904D01*
X74845295Y-57261904D02*
X74750057Y-57214285D01*
X74750057Y-57214285D02*
X74702438Y-57166666D01*
X74702438Y-57166666D02*
X74654819Y-57071428D01*
X74654819Y-57071428D02*
X74654819Y-56880952D01*
X74654819Y-56880952D02*
X74702438Y-56785714D01*
X74702438Y-56785714D02*
X74750057Y-56738095D01*
X74750057Y-56738095D02*
X74845295Y-56690476D01*
X74845295Y-56690476D02*
X75083390Y-56690476D01*
X75083390Y-56690476D02*
X75178628Y-56738095D01*
X75178628Y-56738095D02*
X75226247Y-56785714D01*
X75226247Y-56785714D02*
X75273866Y-56880952D01*
X75273866Y-56880952D02*
X75273866Y-57071428D01*
X75273866Y-57071428D02*
X75226247Y-57166666D01*
X75226247Y-57166666D02*
X75178628Y-57214285D01*
X75178628Y-57214285D02*
X75083390Y-57261904D01*
X80309523Y-135204819D02*
X80309523Y-135919104D01*
X80309523Y-135919104D02*
X80357142Y-136061961D01*
X80357142Y-136061961D02*
X80452380Y-136157200D01*
X80452380Y-136157200D02*
X80595237Y-136204819D01*
X80595237Y-136204819D02*
X80690475Y-136204819D01*
X79309523Y-136204819D02*
X79880951Y-136204819D01*
X79595237Y-136204819D02*
X79595237Y-135204819D01*
X79595237Y-135204819D02*
X79690475Y-135347676D01*
X79690475Y-135347676D02*
X79785713Y-135442914D01*
X79785713Y-135442914D02*
X79880951Y-135490533D01*
X78452380Y-135204819D02*
X78642856Y-135204819D01*
X78642856Y-135204819D02*
X78738094Y-135252438D01*
X78738094Y-135252438D02*
X78785713Y-135300057D01*
X78785713Y-135300057D02*
X78880951Y-135442914D01*
X78880951Y-135442914D02*
X78928570Y-135633390D01*
X78928570Y-135633390D02*
X78928570Y-136014342D01*
X78928570Y-136014342D02*
X78880951Y-136109580D01*
X78880951Y-136109580D02*
X78833332Y-136157200D01*
X78833332Y-136157200D02*
X78738094Y-136204819D01*
X78738094Y-136204819D02*
X78547618Y-136204819D01*
X78547618Y-136204819D02*
X78452380Y-136157200D01*
X78452380Y-136157200D02*
X78404761Y-136109580D01*
X78404761Y-136109580D02*
X78357142Y-136014342D01*
X78357142Y-136014342D02*
X78357142Y-135776247D01*
X78357142Y-135776247D02*
X78404761Y-135681009D01*
X78404761Y-135681009D02*
X78452380Y-135633390D01*
X78452380Y-135633390D02*
X78547618Y-135585771D01*
X78547618Y-135585771D02*
X78738094Y-135585771D01*
X78738094Y-135585771D02*
X78833332Y-135633390D01*
X78833332Y-135633390D02*
X78880951Y-135681009D01*
X78880951Y-135681009D02*
X78928570Y-135776247D01*
X91807200Y-36809523D02*
X91854819Y-36952380D01*
X91854819Y-36952380D02*
X91854819Y-37190475D01*
X91854819Y-37190475D02*
X91807200Y-37285713D01*
X91807200Y-37285713D02*
X91759580Y-37333332D01*
X91759580Y-37333332D02*
X91664342Y-37380951D01*
X91664342Y-37380951D02*
X91569104Y-37380951D01*
X91569104Y-37380951D02*
X91473866Y-37333332D01*
X91473866Y-37333332D02*
X91426247Y-37285713D01*
X91426247Y-37285713D02*
X91378628Y-37190475D01*
X91378628Y-37190475D02*
X91331009Y-36999999D01*
X91331009Y-36999999D02*
X91283390Y-36904761D01*
X91283390Y-36904761D02*
X91235771Y-36857142D01*
X91235771Y-36857142D02*
X91140533Y-36809523D01*
X91140533Y-36809523D02*
X91045295Y-36809523D01*
X91045295Y-36809523D02*
X90950057Y-36857142D01*
X90950057Y-36857142D02*
X90902438Y-36904761D01*
X90902438Y-36904761D02*
X90854819Y-36999999D01*
X90854819Y-36999999D02*
X90854819Y-37238094D01*
X90854819Y-37238094D02*
X90902438Y-37380951D01*
X91854819Y-37809523D02*
X91188152Y-37809523D01*
X90854819Y-37809523D02*
X90902438Y-37761904D01*
X90902438Y-37761904D02*
X90950057Y-37809523D01*
X90950057Y-37809523D02*
X90902438Y-37857142D01*
X90902438Y-37857142D02*
X90854819Y-37809523D01*
X90854819Y-37809523D02*
X90950057Y-37809523D01*
X91188152Y-38285713D02*
X91854819Y-38285713D01*
X91283390Y-38285713D02*
X91235771Y-38333332D01*
X91235771Y-38333332D02*
X91188152Y-38428570D01*
X91188152Y-38428570D02*
X91188152Y-38571427D01*
X91188152Y-38571427D02*
X91235771Y-38666665D01*
X91235771Y-38666665D02*
X91331009Y-38714284D01*
X91331009Y-38714284D02*
X91854819Y-38714284D01*
X91807200Y-39571427D02*
X91854819Y-39476189D01*
X91854819Y-39476189D02*
X91854819Y-39285713D01*
X91854819Y-39285713D02*
X91807200Y-39190475D01*
X91807200Y-39190475D02*
X91711961Y-39142856D01*
X91711961Y-39142856D02*
X91331009Y-39142856D01*
X91331009Y-39142856D02*
X91235771Y-39190475D01*
X91235771Y-39190475D02*
X91188152Y-39285713D01*
X91188152Y-39285713D02*
X91188152Y-39476189D01*
X91188152Y-39476189D02*
X91235771Y-39571427D01*
X91235771Y-39571427D02*
X91331009Y-39619046D01*
X91331009Y-39619046D02*
X91426247Y-39619046D01*
X91426247Y-39619046D02*
X91521485Y-39142856D01*
X91950057Y-39809523D02*
X91950057Y-40571427D01*
X91854819Y-41285713D02*
X91854819Y-40809523D01*
X91854819Y-40809523D02*
X90854819Y-40809523D01*
X91188152Y-41523809D02*
X91854819Y-41761904D01*
X91854819Y-41761904D02*
X91188152Y-41999999D01*
X91854819Y-42523809D02*
X91807200Y-42428571D01*
X91807200Y-42428571D02*
X91711961Y-42380952D01*
X91711961Y-42380952D02*
X90854819Y-42380952D01*
X91950057Y-42666667D02*
X91950057Y-43428571D01*
X91188152Y-43523810D02*
X91188152Y-43904762D01*
X90854819Y-43666667D02*
X91711961Y-43666667D01*
X91711961Y-43666667D02*
X91807200Y-43714286D01*
X91807200Y-43714286D02*
X91854819Y-43809524D01*
X91854819Y-43809524D02*
X91854819Y-43904762D01*
X91854819Y-44238096D02*
X91188152Y-44238096D01*
X91378628Y-44238096D02*
X91283390Y-44285715D01*
X91283390Y-44285715D02*
X91235771Y-44333334D01*
X91235771Y-44333334D02*
X91188152Y-44428572D01*
X91188152Y-44428572D02*
X91188152Y-44523810D01*
X91854819Y-44857144D02*
X91188152Y-44857144D01*
X90854819Y-44857144D02*
X90902438Y-44809525D01*
X90902438Y-44809525D02*
X90950057Y-44857144D01*
X90950057Y-44857144D02*
X90902438Y-44904763D01*
X90902438Y-44904763D02*
X90854819Y-44857144D01*
X90854819Y-44857144D02*
X90950057Y-44857144D01*
X91854819Y-45333334D02*
X91188152Y-45333334D01*
X91283390Y-45333334D02*
X91235771Y-45380953D01*
X91235771Y-45380953D02*
X91188152Y-45476191D01*
X91188152Y-45476191D02*
X91188152Y-45619048D01*
X91188152Y-45619048D02*
X91235771Y-45714286D01*
X91235771Y-45714286D02*
X91331009Y-45761905D01*
X91331009Y-45761905D02*
X91854819Y-45761905D01*
X91331009Y-45761905D02*
X91235771Y-45809524D01*
X91235771Y-45809524D02*
X91188152Y-45904762D01*
X91188152Y-45904762D02*
X91188152Y-46047619D01*
X91188152Y-46047619D02*
X91235771Y-46142858D01*
X91235771Y-46142858D02*
X91331009Y-46190477D01*
X91331009Y-46190477D02*
X91854819Y-46190477D01*
X91854819Y-47190476D02*
X91854819Y-46619048D01*
X91854819Y-46904762D02*
X90854819Y-46904762D01*
X90854819Y-46904762D02*
X90997676Y-46809524D01*
X90997676Y-46809524D02*
X91092914Y-46714286D01*
X91092914Y-46714286D02*
X91140533Y-46619048D01*
X61559580Y-58157142D02*
X61607200Y-58109523D01*
X61607200Y-58109523D02*
X61654819Y-57966666D01*
X61654819Y-57966666D02*
X61654819Y-57871428D01*
X61654819Y-57871428D02*
X61607200Y-57728571D01*
X61607200Y-57728571D02*
X61511961Y-57633333D01*
X61511961Y-57633333D02*
X61416723Y-57585714D01*
X61416723Y-57585714D02*
X61226247Y-57538095D01*
X61226247Y-57538095D02*
X61083390Y-57538095D01*
X61083390Y-57538095D02*
X60892914Y-57585714D01*
X60892914Y-57585714D02*
X60797676Y-57633333D01*
X60797676Y-57633333D02*
X60702438Y-57728571D01*
X60702438Y-57728571D02*
X60654819Y-57871428D01*
X60654819Y-57871428D02*
X60654819Y-57966666D01*
X60654819Y-57966666D02*
X60702438Y-58109523D01*
X60702438Y-58109523D02*
X60750057Y-58157142D01*
X61654819Y-59109523D02*
X61654819Y-58538095D01*
X61654819Y-58823809D02*
X60654819Y-58823809D01*
X60654819Y-58823809D02*
X60797676Y-58728571D01*
X60797676Y-58728571D02*
X60892914Y-58633333D01*
X60892914Y-58633333D02*
X60940533Y-58538095D01*
X61083390Y-59680952D02*
X61035771Y-59585714D01*
X61035771Y-59585714D02*
X60988152Y-59538095D01*
X60988152Y-59538095D02*
X60892914Y-59490476D01*
X60892914Y-59490476D02*
X60845295Y-59490476D01*
X60845295Y-59490476D02*
X60750057Y-59538095D01*
X60750057Y-59538095D02*
X60702438Y-59585714D01*
X60702438Y-59585714D02*
X60654819Y-59680952D01*
X60654819Y-59680952D02*
X60654819Y-59871428D01*
X60654819Y-59871428D02*
X60702438Y-59966666D01*
X60702438Y-59966666D02*
X60750057Y-60014285D01*
X60750057Y-60014285D02*
X60845295Y-60061904D01*
X60845295Y-60061904D02*
X60892914Y-60061904D01*
X60892914Y-60061904D02*
X60988152Y-60014285D01*
X60988152Y-60014285D02*
X61035771Y-59966666D01*
X61035771Y-59966666D02*
X61083390Y-59871428D01*
X61083390Y-59871428D02*
X61083390Y-59680952D01*
X61083390Y-59680952D02*
X61131009Y-59585714D01*
X61131009Y-59585714D02*
X61178628Y-59538095D01*
X61178628Y-59538095D02*
X61273866Y-59490476D01*
X61273866Y-59490476D02*
X61464342Y-59490476D01*
X61464342Y-59490476D02*
X61559580Y-59538095D01*
X61559580Y-59538095D02*
X61607200Y-59585714D01*
X61607200Y-59585714D02*
X61654819Y-59680952D01*
X61654819Y-59680952D02*
X61654819Y-59871428D01*
X61654819Y-59871428D02*
X61607200Y-59966666D01*
X61607200Y-59966666D02*
X61559580Y-60014285D01*
X61559580Y-60014285D02*
X61464342Y-60061904D01*
X61464342Y-60061904D02*
X61273866Y-60061904D01*
X61273866Y-60061904D02*
X61178628Y-60014285D01*
X61178628Y-60014285D02*
X61131009Y-59966666D01*
X61131009Y-59966666D02*
X61083390Y-59871428D01*
X101109580Y-143107142D02*
X101157200Y-143059523D01*
X101157200Y-143059523D02*
X101204819Y-142916666D01*
X101204819Y-142916666D02*
X101204819Y-142821428D01*
X101204819Y-142821428D02*
X101157200Y-142678571D01*
X101157200Y-142678571D02*
X101061961Y-142583333D01*
X101061961Y-142583333D02*
X100966723Y-142535714D01*
X100966723Y-142535714D02*
X100776247Y-142488095D01*
X100776247Y-142488095D02*
X100633390Y-142488095D01*
X100633390Y-142488095D02*
X100442914Y-142535714D01*
X100442914Y-142535714D02*
X100347676Y-142583333D01*
X100347676Y-142583333D02*
X100252438Y-142678571D01*
X100252438Y-142678571D02*
X100204819Y-142821428D01*
X100204819Y-142821428D02*
X100204819Y-142916666D01*
X100204819Y-142916666D02*
X100252438Y-143059523D01*
X100252438Y-143059523D02*
X100300057Y-143107142D01*
X101204819Y-144059523D02*
X101204819Y-143488095D01*
X101204819Y-143773809D02*
X100204819Y-143773809D01*
X100204819Y-143773809D02*
X100347676Y-143678571D01*
X100347676Y-143678571D02*
X100442914Y-143583333D01*
X100442914Y-143583333D02*
X100490533Y-143488095D01*
X100204819Y-144678571D02*
X100204819Y-144773809D01*
X100204819Y-144773809D02*
X100252438Y-144869047D01*
X100252438Y-144869047D02*
X100300057Y-144916666D01*
X100300057Y-144916666D02*
X100395295Y-144964285D01*
X100395295Y-144964285D02*
X100585771Y-145011904D01*
X100585771Y-145011904D02*
X100823866Y-145011904D01*
X100823866Y-145011904D02*
X101014342Y-144964285D01*
X101014342Y-144964285D02*
X101109580Y-144916666D01*
X101109580Y-144916666D02*
X101157200Y-144869047D01*
X101157200Y-144869047D02*
X101204819Y-144773809D01*
X101204819Y-144773809D02*
X101204819Y-144678571D01*
X101204819Y-144678571D02*
X101157200Y-144583333D01*
X101157200Y-144583333D02*
X101109580Y-144535714D01*
X101109580Y-144535714D02*
X101014342Y-144488095D01*
X101014342Y-144488095D02*
X100823866Y-144440476D01*
X100823866Y-144440476D02*
X100585771Y-144440476D01*
X100585771Y-144440476D02*
X100395295Y-144488095D01*
X100395295Y-144488095D02*
X100300057Y-144535714D01*
X100300057Y-144535714D02*
X100252438Y-144583333D01*
X100252438Y-144583333D02*
X100204819Y-144678571D01*
X60109523Y-96224819D02*
X60109523Y-96939104D01*
X60109523Y-96939104D02*
X60157142Y-97081961D01*
X60157142Y-97081961D02*
X60252380Y-97177200D01*
X60252380Y-97177200D02*
X60395237Y-97224819D01*
X60395237Y-97224819D02*
X60490475Y-97224819D01*
X59109523Y-97224819D02*
X59680951Y-97224819D01*
X59395237Y-97224819D02*
X59395237Y-96224819D01*
X59395237Y-96224819D02*
X59490475Y-96367676D01*
X59490475Y-96367676D02*
X59585713Y-96462914D01*
X59585713Y-96462914D02*
X59680951Y-96510533D01*
X58252380Y-96558152D02*
X58252380Y-97224819D01*
X58490475Y-96177200D02*
X58728570Y-96891485D01*
X58728570Y-96891485D02*
X58109523Y-96891485D01*
X93961904Y-87956819D02*
X93390476Y-87956819D01*
X93676190Y-88956819D02*
X93676190Y-87956819D01*
X93057142Y-88956819D02*
X93057142Y-87956819D01*
X93057142Y-87956819D02*
X92676190Y-87956819D01*
X92676190Y-87956819D02*
X92580952Y-88004438D01*
X92580952Y-88004438D02*
X92533333Y-88052057D01*
X92533333Y-88052057D02*
X92485714Y-88147295D01*
X92485714Y-88147295D02*
X92485714Y-88290152D01*
X92485714Y-88290152D02*
X92533333Y-88385390D01*
X92533333Y-88385390D02*
X92580952Y-88433009D01*
X92580952Y-88433009D02*
X92676190Y-88480628D01*
X92676190Y-88480628D02*
X93057142Y-88480628D01*
X91533333Y-88956819D02*
X92104761Y-88956819D01*
X91819047Y-88956819D02*
X91819047Y-87956819D01*
X91819047Y-87956819D02*
X91914285Y-88099676D01*
X91914285Y-88099676D02*
X92009523Y-88194914D01*
X92009523Y-88194914D02*
X92104761Y-88242533D01*
X61154819Y-38923809D02*
X61107200Y-38828571D01*
X61107200Y-38828571D02*
X61011961Y-38780952D01*
X61011961Y-38780952D02*
X60154819Y-38780952D01*
X60488152Y-39209524D02*
X61154819Y-39447619D01*
X61154819Y-39447619D02*
X60488152Y-39685714D01*
X61154819Y-40209524D02*
X61107200Y-40114286D01*
X61107200Y-40114286D02*
X61011961Y-40066667D01*
X61011961Y-40066667D02*
X60154819Y-40066667D01*
X61250057Y-40352382D02*
X61250057Y-41114286D01*
X60154819Y-41209525D02*
X60154819Y-41780953D01*
X61154819Y-41495239D02*
X60154819Y-41495239D01*
X61154819Y-42114287D02*
X60488152Y-42114287D01*
X60678628Y-42114287D02*
X60583390Y-42161906D01*
X60583390Y-42161906D02*
X60535771Y-42209525D01*
X60535771Y-42209525D02*
X60488152Y-42304763D01*
X60488152Y-42304763D02*
X60488152Y-42400001D01*
X61154819Y-42733335D02*
X60488152Y-42733335D01*
X60154819Y-42733335D02*
X60202438Y-42685716D01*
X60202438Y-42685716D02*
X60250057Y-42733335D01*
X60250057Y-42733335D02*
X60202438Y-42780954D01*
X60202438Y-42780954D02*
X60154819Y-42733335D01*
X60154819Y-42733335D02*
X60250057Y-42733335D01*
X61154819Y-43209525D02*
X60488152Y-43209525D01*
X60583390Y-43209525D02*
X60535771Y-43257144D01*
X60535771Y-43257144D02*
X60488152Y-43352382D01*
X60488152Y-43352382D02*
X60488152Y-43495239D01*
X60488152Y-43495239D02*
X60535771Y-43590477D01*
X60535771Y-43590477D02*
X60631009Y-43638096D01*
X60631009Y-43638096D02*
X61154819Y-43638096D01*
X60631009Y-43638096D02*
X60535771Y-43685715D01*
X60535771Y-43685715D02*
X60488152Y-43780953D01*
X60488152Y-43780953D02*
X60488152Y-43923810D01*
X60488152Y-43923810D02*
X60535771Y-44019049D01*
X60535771Y-44019049D02*
X60631009Y-44066668D01*
X60631009Y-44066668D02*
X61154819Y-44066668D01*
X60250057Y-44495239D02*
X60202438Y-44542858D01*
X60202438Y-44542858D02*
X60154819Y-44638096D01*
X60154819Y-44638096D02*
X60154819Y-44876191D01*
X60154819Y-44876191D02*
X60202438Y-44971429D01*
X60202438Y-44971429D02*
X60250057Y-45019048D01*
X60250057Y-45019048D02*
X60345295Y-45066667D01*
X60345295Y-45066667D02*
X60440533Y-45066667D01*
X60440533Y-45066667D02*
X60583390Y-45019048D01*
X60583390Y-45019048D02*
X61154819Y-44447620D01*
X61154819Y-44447620D02*
X61154819Y-45066667D01*
X72759580Y-48083333D02*
X72807200Y-48035714D01*
X72807200Y-48035714D02*
X72854819Y-47892857D01*
X72854819Y-47892857D02*
X72854819Y-47797619D01*
X72854819Y-47797619D02*
X72807200Y-47654762D01*
X72807200Y-47654762D02*
X72711961Y-47559524D01*
X72711961Y-47559524D02*
X72616723Y-47511905D01*
X72616723Y-47511905D02*
X72426247Y-47464286D01*
X72426247Y-47464286D02*
X72283390Y-47464286D01*
X72283390Y-47464286D02*
X72092914Y-47511905D01*
X72092914Y-47511905D02*
X71997676Y-47559524D01*
X71997676Y-47559524D02*
X71902438Y-47654762D01*
X71902438Y-47654762D02*
X71854819Y-47797619D01*
X71854819Y-47797619D02*
X71854819Y-47892857D01*
X71854819Y-47892857D02*
X71902438Y-48035714D01*
X71902438Y-48035714D02*
X71950057Y-48083333D01*
X71854819Y-48988095D02*
X71854819Y-48511905D01*
X71854819Y-48511905D02*
X72331009Y-48464286D01*
X72331009Y-48464286D02*
X72283390Y-48511905D01*
X72283390Y-48511905D02*
X72235771Y-48607143D01*
X72235771Y-48607143D02*
X72235771Y-48845238D01*
X72235771Y-48845238D02*
X72283390Y-48940476D01*
X72283390Y-48940476D02*
X72331009Y-48988095D01*
X72331009Y-48988095D02*
X72426247Y-49035714D01*
X72426247Y-49035714D02*
X72664342Y-49035714D01*
X72664342Y-49035714D02*
X72759580Y-48988095D01*
X72759580Y-48988095D02*
X72807200Y-48940476D01*
X72807200Y-48940476D02*
X72854819Y-48845238D01*
X72854819Y-48845238D02*
X72854819Y-48607143D01*
X72854819Y-48607143D02*
X72807200Y-48511905D01*
X72807200Y-48511905D02*
X72759580Y-48464286D01*
X71166666Y-68059580D02*
X71214285Y-68107200D01*
X71214285Y-68107200D02*
X71357142Y-68154819D01*
X71357142Y-68154819D02*
X71452380Y-68154819D01*
X71452380Y-68154819D02*
X71595237Y-68107200D01*
X71595237Y-68107200D02*
X71690475Y-68011961D01*
X71690475Y-68011961D02*
X71738094Y-67916723D01*
X71738094Y-67916723D02*
X71785713Y-67726247D01*
X71785713Y-67726247D02*
X71785713Y-67583390D01*
X71785713Y-67583390D02*
X71738094Y-67392914D01*
X71738094Y-67392914D02*
X71690475Y-67297676D01*
X71690475Y-67297676D02*
X71595237Y-67202438D01*
X71595237Y-67202438D02*
X71452380Y-67154819D01*
X71452380Y-67154819D02*
X71357142Y-67154819D01*
X71357142Y-67154819D02*
X71214285Y-67202438D01*
X71214285Y-67202438D02*
X71166666Y-67250057D01*
X70309523Y-67488152D02*
X70309523Y-68154819D01*
X70547618Y-67107200D02*
X70785713Y-67821485D01*
X70785713Y-67821485D02*
X70166666Y-67821485D01*
X63354819Y-45277142D02*
X62878628Y-44943809D01*
X63354819Y-44705714D02*
X62354819Y-44705714D01*
X62354819Y-44705714D02*
X62354819Y-45086666D01*
X62354819Y-45086666D02*
X62402438Y-45181904D01*
X62402438Y-45181904D02*
X62450057Y-45229523D01*
X62450057Y-45229523D02*
X62545295Y-45277142D01*
X62545295Y-45277142D02*
X62688152Y-45277142D01*
X62688152Y-45277142D02*
X62783390Y-45229523D01*
X62783390Y-45229523D02*
X62831009Y-45181904D01*
X62831009Y-45181904D02*
X62878628Y-45086666D01*
X62878628Y-45086666D02*
X62878628Y-44705714D01*
X62450057Y-45658095D02*
X62402438Y-45705714D01*
X62402438Y-45705714D02*
X62354819Y-45800952D01*
X62354819Y-45800952D02*
X62354819Y-46039047D01*
X62354819Y-46039047D02*
X62402438Y-46134285D01*
X62402438Y-46134285D02*
X62450057Y-46181904D01*
X62450057Y-46181904D02*
X62545295Y-46229523D01*
X62545295Y-46229523D02*
X62640533Y-46229523D01*
X62640533Y-46229523D02*
X62783390Y-46181904D01*
X62783390Y-46181904D02*
X63354819Y-45610476D01*
X63354819Y-45610476D02*
X63354819Y-46229523D01*
X63354819Y-47181904D02*
X63354819Y-46610476D01*
X63354819Y-46896190D02*
X62354819Y-46896190D01*
X62354819Y-46896190D02*
X62497676Y-46800952D01*
X62497676Y-46800952D02*
X62592914Y-46705714D01*
X62592914Y-46705714D02*
X62640533Y-46610476D01*
X77666666Y-61659580D02*
X77714285Y-61707200D01*
X77714285Y-61707200D02*
X77857142Y-61754819D01*
X77857142Y-61754819D02*
X77952380Y-61754819D01*
X77952380Y-61754819D02*
X78095237Y-61707200D01*
X78095237Y-61707200D02*
X78190475Y-61611961D01*
X78190475Y-61611961D02*
X78238094Y-61516723D01*
X78238094Y-61516723D02*
X78285713Y-61326247D01*
X78285713Y-61326247D02*
X78285713Y-61183390D01*
X78285713Y-61183390D02*
X78238094Y-60992914D01*
X78238094Y-60992914D02*
X78190475Y-60897676D01*
X78190475Y-60897676D02*
X78095237Y-60802438D01*
X78095237Y-60802438D02*
X77952380Y-60754819D01*
X77952380Y-60754819D02*
X77857142Y-60754819D01*
X77857142Y-60754819D02*
X77714285Y-60802438D01*
X77714285Y-60802438D02*
X77666666Y-60850057D01*
X77333332Y-60754819D02*
X76666666Y-60754819D01*
X76666666Y-60754819D02*
X77095237Y-61754819D01*
X61642857Y-65054819D02*
X61976190Y-64578628D01*
X62214285Y-65054819D02*
X62214285Y-64054819D01*
X62214285Y-64054819D02*
X61833333Y-64054819D01*
X61833333Y-64054819D02*
X61738095Y-64102438D01*
X61738095Y-64102438D02*
X61690476Y-64150057D01*
X61690476Y-64150057D02*
X61642857Y-64245295D01*
X61642857Y-64245295D02*
X61642857Y-64388152D01*
X61642857Y-64388152D02*
X61690476Y-64483390D01*
X61690476Y-64483390D02*
X61738095Y-64531009D01*
X61738095Y-64531009D02*
X61833333Y-64578628D01*
X61833333Y-64578628D02*
X62214285Y-64578628D01*
X60690476Y-65054819D02*
X61261904Y-65054819D01*
X60976190Y-65054819D02*
X60976190Y-64054819D01*
X60976190Y-64054819D02*
X61071428Y-64197676D01*
X61071428Y-64197676D02*
X61166666Y-64292914D01*
X61166666Y-64292914D02*
X61261904Y-64340533D01*
X59833333Y-64054819D02*
X60023809Y-64054819D01*
X60023809Y-64054819D02*
X60119047Y-64102438D01*
X60119047Y-64102438D02*
X60166666Y-64150057D01*
X60166666Y-64150057D02*
X60261904Y-64292914D01*
X60261904Y-64292914D02*
X60309523Y-64483390D01*
X60309523Y-64483390D02*
X60309523Y-64864342D01*
X60309523Y-64864342D02*
X60261904Y-64959580D01*
X60261904Y-64959580D02*
X60214285Y-65007200D01*
X60214285Y-65007200D02*
X60119047Y-65054819D01*
X60119047Y-65054819D02*
X59928571Y-65054819D01*
X59928571Y-65054819D02*
X59833333Y-65007200D01*
X59833333Y-65007200D02*
X59785714Y-64959580D01*
X59785714Y-64959580D02*
X59738095Y-64864342D01*
X59738095Y-64864342D02*
X59738095Y-64626247D01*
X59738095Y-64626247D02*
X59785714Y-64531009D01*
X59785714Y-64531009D02*
X59833333Y-64483390D01*
X59833333Y-64483390D02*
X59928571Y-64435771D01*
X59928571Y-64435771D02*
X60119047Y-64435771D01*
X60119047Y-64435771D02*
X60214285Y-64483390D01*
X60214285Y-64483390D02*
X60261904Y-64531009D01*
X60261904Y-64531009D02*
X60309523Y-64626247D01*
X93342857Y-54859580D02*
X93390476Y-54907200D01*
X93390476Y-54907200D02*
X93533333Y-54954819D01*
X93533333Y-54954819D02*
X93628571Y-54954819D01*
X93628571Y-54954819D02*
X93771428Y-54907200D01*
X93771428Y-54907200D02*
X93866666Y-54811961D01*
X93866666Y-54811961D02*
X93914285Y-54716723D01*
X93914285Y-54716723D02*
X93961904Y-54526247D01*
X93961904Y-54526247D02*
X93961904Y-54383390D01*
X93961904Y-54383390D02*
X93914285Y-54192914D01*
X93914285Y-54192914D02*
X93866666Y-54097676D01*
X93866666Y-54097676D02*
X93771428Y-54002438D01*
X93771428Y-54002438D02*
X93628571Y-53954819D01*
X93628571Y-53954819D02*
X93533333Y-53954819D01*
X93533333Y-53954819D02*
X93390476Y-54002438D01*
X93390476Y-54002438D02*
X93342857Y-54050057D01*
X92390476Y-54954819D02*
X92961904Y-54954819D01*
X92676190Y-54954819D02*
X92676190Y-53954819D01*
X92676190Y-53954819D02*
X92771428Y-54097676D01*
X92771428Y-54097676D02*
X92866666Y-54192914D01*
X92866666Y-54192914D02*
X92961904Y-54240533D01*
X92057142Y-53954819D02*
X91438095Y-53954819D01*
X91438095Y-53954819D02*
X91771428Y-54335771D01*
X91771428Y-54335771D02*
X91628571Y-54335771D01*
X91628571Y-54335771D02*
X91533333Y-54383390D01*
X91533333Y-54383390D02*
X91485714Y-54431009D01*
X91485714Y-54431009D02*
X91438095Y-54526247D01*
X91438095Y-54526247D02*
X91438095Y-54764342D01*
X91438095Y-54764342D02*
X91485714Y-54859580D01*
X91485714Y-54859580D02*
X91533333Y-54907200D01*
X91533333Y-54907200D02*
X91628571Y-54954819D01*
X91628571Y-54954819D02*
X91914285Y-54954819D01*
X91914285Y-54954819D02*
X92009523Y-54907200D01*
X92009523Y-54907200D02*
X92057142Y-54859580D01*
X91761904Y-79854819D02*
X91190476Y-79854819D01*
X91476190Y-80854819D02*
X91476190Y-79854819D01*
X90857142Y-80854819D02*
X90857142Y-79854819D01*
X90857142Y-79854819D02*
X90476190Y-79854819D01*
X90476190Y-79854819D02*
X90380952Y-79902438D01*
X90380952Y-79902438D02*
X90333333Y-79950057D01*
X90333333Y-79950057D02*
X90285714Y-80045295D01*
X90285714Y-80045295D02*
X90285714Y-80188152D01*
X90285714Y-80188152D02*
X90333333Y-80283390D01*
X90333333Y-80283390D02*
X90380952Y-80331009D01*
X90380952Y-80331009D02*
X90476190Y-80378628D01*
X90476190Y-80378628D02*
X90857142Y-80378628D01*
X89904761Y-79950057D02*
X89857142Y-79902438D01*
X89857142Y-79902438D02*
X89761904Y-79854819D01*
X89761904Y-79854819D02*
X89523809Y-79854819D01*
X89523809Y-79854819D02*
X89428571Y-79902438D01*
X89428571Y-79902438D02*
X89380952Y-79950057D01*
X89380952Y-79950057D02*
X89333333Y-80045295D01*
X89333333Y-80045295D02*
X89333333Y-80140533D01*
X89333333Y-80140533D02*
X89380952Y-80283390D01*
X89380952Y-80283390D02*
X89952380Y-80854819D01*
X89952380Y-80854819D02*
X89333333Y-80854819D01*
X88054819Y-84963809D02*
X88007200Y-84868571D01*
X88007200Y-84868571D02*
X87911961Y-84820952D01*
X87911961Y-84820952D02*
X87054819Y-84820952D01*
X87388152Y-85249524D02*
X88054819Y-85487619D01*
X88054819Y-85487619D02*
X87388152Y-85725714D01*
X88054819Y-86249524D02*
X88007200Y-86154286D01*
X88007200Y-86154286D02*
X87911961Y-86106667D01*
X87911961Y-86106667D02*
X87054819Y-86106667D01*
X88150057Y-86392382D02*
X88150057Y-87154286D01*
X87054819Y-87249525D02*
X87054819Y-87820953D01*
X88054819Y-87535239D02*
X87054819Y-87535239D01*
X88054819Y-88154287D02*
X87388152Y-88154287D01*
X87578628Y-88154287D02*
X87483390Y-88201906D01*
X87483390Y-88201906D02*
X87435771Y-88249525D01*
X87435771Y-88249525D02*
X87388152Y-88344763D01*
X87388152Y-88344763D02*
X87388152Y-88440001D01*
X88054819Y-88773335D02*
X87388152Y-88773335D01*
X87054819Y-88773335D02*
X87102438Y-88725716D01*
X87102438Y-88725716D02*
X87150057Y-88773335D01*
X87150057Y-88773335D02*
X87102438Y-88820954D01*
X87102438Y-88820954D02*
X87054819Y-88773335D01*
X87054819Y-88773335D02*
X87150057Y-88773335D01*
X88054819Y-89249525D02*
X87388152Y-89249525D01*
X87483390Y-89249525D02*
X87435771Y-89297144D01*
X87435771Y-89297144D02*
X87388152Y-89392382D01*
X87388152Y-89392382D02*
X87388152Y-89535239D01*
X87388152Y-89535239D02*
X87435771Y-89630477D01*
X87435771Y-89630477D02*
X87531009Y-89678096D01*
X87531009Y-89678096D02*
X88054819Y-89678096D01*
X87531009Y-89678096D02*
X87435771Y-89725715D01*
X87435771Y-89725715D02*
X87388152Y-89820953D01*
X87388152Y-89820953D02*
X87388152Y-89963810D01*
X87388152Y-89963810D02*
X87435771Y-90059049D01*
X87435771Y-90059049D02*
X87531009Y-90106668D01*
X87531009Y-90106668D02*
X88054819Y-90106668D01*
X88054819Y-91106667D02*
X88054819Y-90535239D01*
X88054819Y-90820953D02*
X87054819Y-90820953D01*
X87054819Y-90820953D02*
X87197676Y-90725715D01*
X87197676Y-90725715D02*
X87292914Y-90630477D01*
X87292914Y-90630477D02*
X87340533Y-90535239D01*
X74042857Y-65054819D02*
X74376190Y-64578628D01*
X74614285Y-65054819D02*
X74614285Y-64054819D01*
X74614285Y-64054819D02*
X74233333Y-64054819D01*
X74233333Y-64054819D02*
X74138095Y-64102438D01*
X74138095Y-64102438D02*
X74090476Y-64150057D01*
X74090476Y-64150057D02*
X74042857Y-64245295D01*
X74042857Y-64245295D02*
X74042857Y-64388152D01*
X74042857Y-64388152D02*
X74090476Y-64483390D01*
X74090476Y-64483390D02*
X74138095Y-64531009D01*
X74138095Y-64531009D02*
X74233333Y-64578628D01*
X74233333Y-64578628D02*
X74614285Y-64578628D01*
X73090476Y-65054819D02*
X73661904Y-65054819D01*
X73376190Y-65054819D02*
X73376190Y-64054819D01*
X73376190Y-64054819D02*
X73471428Y-64197676D01*
X73471428Y-64197676D02*
X73566666Y-64292914D01*
X73566666Y-64292914D02*
X73661904Y-64340533D01*
X72757142Y-64054819D02*
X72090476Y-64054819D01*
X72090476Y-64054819D02*
X72519047Y-65054819D01*
X84407200Y-36795238D02*
X84454819Y-36938095D01*
X84454819Y-36938095D02*
X84454819Y-37176190D01*
X84454819Y-37176190D02*
X84407200Y-37271428D01*
X84407200Y-37271428D02*
X84359580Y-37319047D01*
X84359580Y-37319047D02*
X84264342Y-37366666D01*
X84264342Y-37366666D02*
X84169104Y-37366666D01*
X84169104Y-37366666D02*
X84073866Y-37319047D01*
X84073866Y-37319047D02*
X84026247Y-37271428D01*
X84026247Y-37271428D02*
X83978628Y-37176190D01*
X83978628Y-37176190D02*
X83931009Y-36985714D01*
X83931009Y-36985714D02*
X83883390Y-36890476D01*
X83883390Y-36890476D02*
X83835771Y-36842857D01*
X83835771Y-36842857D02*
X83740533Y-36795238D01*
X83740533Y-36795238D02*
X83645295Y-36795238D01*
X83645295Y-36795238D02*
X83550057Y-36842857D01*
X83550057Y-36842857D02*
X83502438Y-36890476D01*
X83502438Y-36890476D02*
X83454819Y-36985714D01*
X83454819Y-36985714D02*
X83454819Y-37223809D01*
X83454819Y-37223809D02*
X83502438Y-37366666D01*
X84454819Y-37795238D02*
X83788152Y-37795238D01*
X83454819Y-37795238D02*
X83502438Y-37747619D01*
X83502438Y-37747619D02*
X83550057Y-37795238D01*
X83550057Y-37795238D02*
X83502438Y-37842857D01*
X83502438Y-37842857D02*
X83454819Y-37795238D01*
X83454819Y-37795238D02*
X83550057Y-37795238D01*
X83788152Y-38271428D02*
X84454819Y-38271428D01*
X83883390Y-38271428D02*
X83835771Y-38319047D01*
X83835771Y-38319047D02*
X83788152Y-38414285D01*
X83788152Y-38414285D02*
X83788152Y-38557142D01*
X83788152Y-38557142D02*
X83835771Y-38652380D01*
X83835771Y-38652380D02*
X83931009Y-38699999D01*
X83931009Y-38699999D02*
X84454819Y-38699999D01*
X84407200Y-39557142D02*
X84454819Y-39461904D01*
X84454819Y-39461904D02*
X84454819Y-39271428D01*
X84454819Y-39271428D02*
X84407200Y-39176190D01*
X84407200Y-39176190D02*
X84311961Y-39128571D01*
X84311961Y-39128571D02*
X83931009Y-39128571D01*
X83931009Y-39128571D02*
X83835771Y-39176190D01*
X83835771Y-39176190D02*
X83788152Y-39271428D01*
X83788152Y-39271428D02*
X83788152Y-39461904D01*
X83788152Y-39461904D02*
X83835771Y-39557142D01*
X83835771Y-39557142D02*
X83931009Y-39604761D01*
X83931009Y-39604761D02*
X84026247Y-39604761D01*
X84026247Y-39604761D02*
X84121485Y-39128571D01*
X84550057Y-39795238D02*
X84550057Y-40557142D01*
X84407200Y-40747619D02*
X84454819Y-40890476D01*
X84454819Y-40890476D02*
X84454819Y-41128571D01*
X84454819Y-41128571D02*
X84407200Y-41223809D01*
X84407200Y-41223809D02*
X84359580Y-41271428D01*
X84359580Y-41271428D02*
X84264342Y-41319047D01*
X84264342Y-41319047D02*
X84169104Y-41319047D01*
X84169104Y-41319047D02*
X84073866Y-41271428D01*
X84073866Y-41271428D02*
X84026247Y-41223809D01*
X84026247Y-41223809D02*
X83978628Y-41128571D01*
X83978628Y-41128571D02*
X83931009Y-40938095D01*
X83931009Y-40938095D02*
X83883390Y-40842857D01*
X83883390Y-40842857D02*
X83835771Y-40795238D01*
X83835771Y-40795238D02*
X83740533Y-40747619D01*
X83740533Y-40747619D02*
X83645295Y-40747619D01*
X83645295Y-40747619D02*
X83550057Y-40795238D01*
X83550057Y-40795238D02*
X83502438Y-40842857D01*
X83502438Y-40842857D02*
X83454819Y-40938095D01*
X83454819Y-40938095D02*
X83454819Y-41176190D01*
X83454819Y-41176190D02*
X83502438Y-41319047D01*
X84454819Y-41747619D02*
X83454819Y-41747619D01*
X84454819Y-42176190D02*
X83931009Y-42176190D01*
X83931009Y-42176190D02*
X83835771Y-42128571D01*
X83835771Y-42128571D02*
X83788152Y-42033333D01*
X83788152Y-42033333D02*
X83788152Y-41890476D01*
X83788152Y-41890476D02*
X83835771Y-41795238D01*
X83835771Y-41795238D02*
X83883390Y-41747619D01*
X84454819Y-43080952D02*
X83931009Y-43080952D01*
X83931009Y-43080952D02*
X83835771Y-43033333D01*
X83835771Y-43033333D02*
X83788152Y-42938095D01*
X83788152Y-42938095D02*
X83788152Y-42747619D01*
X83788152Y-42747619D02*
X83835771Y-42652381D01*
X84407200Y-43080952D02*
X84454819Y-42985714D01*
X84454819Y-42985714D02*
X84454819Y-42747619D01*
X84454819Y-42747619D02*
X84407200Y-42652381D01*
X84407200Y-42652381D02*
X84311961Y-42604762D01*
X84311961Y-42604762D02*
X84216723Y-42604762D01*
X84216723Y-42604762D02*
X84121485Y-42652381D01*
X84121485Y-42652381D02*
X84073866Y-42747619D01*
X84073866Y-42747619D02*
X84073866Y-42985714D01*
X84073866Y-42985714D02*
X84026247Y-43080952D01*
X83788152Y-43557143D02*
X84788152Y-43557143D01*
X83835771Y-43557143D02*
X83788152Y-43652381D01*
X83788152Y-43652381D02*
X83788152Y-43842857D01*
X83788152Y-43842857D02*
X83835771Y-43938095D01*
X83835771Y-43938095D02*
X83883390Y-43985714D01*
X83883390Y-43985714D02*
X83978628Y-44033333D01*
X83978628Y-44033333D02*
X84264342Y-44033333D01*
X84264342Y-44033333D02*
X84359580Y-43985714D01*
X84359580Y-43985714D02*
X84407200Y-43938095D01*
X84407200Y-43938095D02*
X84454819Y-43842857D01*
X84454819Y-43842857D02*
X84454819Y-43652381D01*
X84454819Y-43652381D02*
X84407200Y-43557143D01*
X84407200Y-44842857D02*
X84454819Y-44747619D01*
X84454819Y-44747619D02*
X84454819Y-44557143D01*
X84454819Y-44557143D02*
X84407200Y-44461905D01*
X84407200Y-44461905D02*
X84311961Y-44414286D01*
X84311961Y-44414286D02*
X83931009Y-44414286D01*
X83931009Y-44414286D02*
X83835771Y-44461905D01*
X83835771Y-44461905D02*
X83788152Y-44557143D01*
X83788152Y-44557143D02*
X83788152Y-44747619D01*
X83788152Y-44747619D02*
X83835771Y-44842857D01*
X83835771Y-44842857D02*
X83931009Y-44890476D01*
X83931009Y-44890476D02*
X84026247Y-44890476D01*
X84026247Y-44890476D02*
X84121485Y-44414286D01*
X84550057Y-45080953D02*
X84550057Y-45842857D01*
X83788152Y-45938096D02*
X83788152Y-46319048D01*
X83454819Y-46080953D02*
X84311961Y-46080953D01*
X84311961Y-46080953D02*
X84407200Y-46128572D01*
X84407200Y-46128572D02*
X84454819Y-46223810D01*
X84454819Y-46223810D02*
X84454819Y-46319048D01*
X84454819Y-46652382D02*
X83788152Y-46652382D01*
X83978628Y-46652382D02*
X83883390Y-46700001D01*
X83883390Y-46700001D02*
X83835771Y-46747620D01*
X83835771Y-46747620D02*
X83788152Y-46842858D01*
X83788152Y-46842858D02*
X83788152Y-46938096D01*
X84454819Y-47271430D02*
X83788152Y-47271430D01*
X83454819Y-47271430D02*
X83502438Y-47223811D01*
X83502438Y-47223811D02*
X83550057Y-47271430D01*
X83550057Y-47271430D02*
X83502438Y-47319049D01*
X83502438Y-47319049D02*
X83454819Y-47271430D01*
X83454819Y-47271430D02*
X83550057Y-47271430D01*
X84454819Y-47747620D02*
X83788152Y-47747620D01*
X83883390Y-47747620D02*
X83835771Y-47795239D01*
X83835771Y-47795239D02*
X83788152Y-47890477D01*
X83788152Y-47890477D02*
X83788152Y-48033334D01*
X83788152Y-48033334D02*
X83835771Y-48128572D01*
X83835771Y-48128572D02*
X83931009Y-48176191D01*
X83931009Y-48176191D02*
X84454819Y-48176191D01*
X83931009Y-48176191D02*
X83835771Y-48223810D01*
X83835771Y-48223810D02*
X83788152Y-48319048D01*
X83788152Y-48319048D02*
X83788152Y-48461905D01*
X83788152Y-48461905D02*
X83835771Y-48557144D01*
X83835771Y-48557144D02*
X83931009Y-48604763D01*
X83931009Y-48604763D02*
X84454819Y-48604763D01*
X84454819Y-49604762D02*
X84454819Y-49033334D01*
X84454819Y-49319048D02*
X83454819Y-49319048D01*
X83454819Y-49319048D02*
X83597676Y-49223810D01*
X83597676Y-49223810D02*
X83692914Y-49128572D01*
X83692914Y-49128572D02*
X83740533Y-49033334D01*
X62561904Y-53154819D02*
X62561904Y-53964342D01*
X62561904Y-53964342D02*
X62514285Y-54059580D01*
X62514285Y-54059580D02*
X62466666Y-54107200D01*
X62466666Y-54107200D02*
X62371428Y-54154819D01*
X62371428Y-54154819D02*
X62180952Y-54154819D01*
X62180952Y-54154819D02*
X62085714Y-54107200D01*
X62085714Y-54107200D02*
X62038095Y-54059580D01*
X62038095Y-54059580D02*
X61990476Y-53964342D01*
X61990476Y-53964342D02*
X61990476Y-53154819D01*
X61085714Y-53488152D02*
X61085714Y-54154819D01*
X61323809Y-53107200D02*
X61561904Y-53821485D01*
X61561904Y-53821485D02*
X60942857Y-53821485D01*
X66554819Y-45257142D02*
X66078628Y-44923809D01*
X66554819Y-44685714D02*
X65554819Y-44685714D01*
X65554819Y-44685714D02*
X65554819Y-45066666D01*
X65554819Y-45066666D02*
X65602438Y-45161904D01*
X65602438Y-45161904D02*
X65650057Y-45209523D01*
X65650057Y-45209523D02*
X65745295Y-45257142D01*
X65745295Y-45257142D02*
X65888152Y-45257142D01*
X65888152Y-45257142D02*
X65983390Y-45209523D01*
X65983390Y-45209523D02*
X66031009Y-45161904D01*
X66031009Y-45161904D02*
X66078628Y-45066666D01*
X66078628Y-45066666D02*
X66078628Y-44685714D01*
X65650057Y-45638095D02*
X65602438Y-45685714D01*
X65602438Y-45685714D02*
X65554819Y-45780952D01*
X65554819Y-45780952D02*
X65554819Y-46019047D01*
X65554819Y-46019047D02*
X65602438Y-46114285D01*
X65602438Y-46114285D02*
X65650057Y-46161904D01*
X65650057Y-46161904D02*
X65745295Y-46209523D01*
X65745295Y-46209523D02*
X65840533Y-46209523D01*
X65840533Y-46209523D02*
X65983390Y-46161904D01*
X65983390Y-46161904D02*
X66554819Y-45590476D01*
X66554819Y-45590476D02*
X66554819Y-46209523D01*
X65888152Y-47066666D02*
X66554819Y-47066666D01*
X65507200Y-46828571D02*
X66221485Y-46590476D01*
X66221485Y-46590476D02*
X66221485Y-47209523D01*
X75954819Y-45227142D02*
X75478628Y-44893809D01*
X75954819Y-44655714D02*
X74954819Y-44655714D01*
X74954819Y-44655714D02*
X74954819Y-45036666D01*
X74954819Y-45036666D02*
X75002438Y-45131904D01*
X75002438Y-45131904D02*
X75050057Y-45179523D01*
X75050057Y-45179523D02*
X75145295Y-45227142D01*
X75145295Y-45227142D02*
X75288152Y-45227142D01*
X75288152Y-45227142D02*
X75383390Y-45179523D01*
X75383390Y-45179523D02*
X75431009Y-45131904D01*
X75431009Y-45131904D02*
X75478628Y-45036666D01*
X75478628Y-45036666D02*
X75478628Y-44655714D01*
X75954819Y-46179523D02*
X75954819Y-45608095D01*
X75954819Y-45893809D02*
X74954819Y-45893809D01*
X74954819Y-45893809D02*
X75097676Y-45798571D01*
X75097676Y-45798571D02*
X75192914Y-45703333D01*
X75192914Y-45703333D02*
X75240533Y-45608095D01*
X75954819Y-46655714D02*
X75954819Y-46846190D01*
X75954819Y-46846190D02*
X75907200Y-46941428D01*
X75907200Y-46941428D02*
X75859580Y-46989047D01*
X75859580Y-46989047D02*
X75716723Y-47084285D01*
X75716723Y-47084285D02*
X75526247Y-47131904D01*
X75526247Y-47131904D02*
X75145295Y-47131904D01*
X75145295Y-47131904D02*
X75050057Y-47084285D01*
X75050057Y-47084285D02*
X75002438Y-47036666D01*
X75002438Y-47036666D02*
X74954819Y-46941428D01*
X74954819Y-46941428D02*
X74954819Y-46750952D01*
X74954819Y-46750952D02*
X75002438Y-46655714D01*
X75002438Y-46655714D02*
X75050057Y-46608095D01*
X75050057Y-46608095D02*
X75145295Y-46560476D01*
X75145295Y-46560476D02*
X75383390Y-46560476D01*
X75383390Y-46560476D02*
X75478628Y-46608095D01*
X75478628Y-46608095D02*
X75526247Y-46655714D01*
X75526247Y-46655714D02*
X75573866Y-46750952D01*
X75573866Y-46750952D02*
X75573866Y-46941428D01*
X75573866Y-46941428D02*
X75526247Y-47036666D01*
X75526247Y-47036666D02*
X75478628Y-47084285D01*
X75478628Y-47084285D02*
X75383390Y-47131904D01*
X98607200Y-36861905D02*
X98654819Y-37004762D01*
X98654819Y-37004762D02*
X98654819Y-37242857D01*
X98654819Y-37242857D02*
X98607200Y-37338095D01*
X98607200Y-37338095D02*
X98559580Y-37385714D01*
X98559580Y-37385714D02*
X98464342Y-37433333D01*
X98464342Y-37433333D02*
X98369104Y-37433333D01*
X98369104Y-37433333D02*
X98273866Y-37385714D01*
X98273866Y-37385714D02*
X98226247Y-37338095D01*
X98226247Y-37338095D02*
X98178628Y-37242857D01*
X98178628Y-37242857D02*
X98131009Y-37052381D01*
X98131009Y-37052381D02*
X98083390Y-36957143D01*
X98083390Y-36957143D02*
X98035771Y-36909524D01*
X98035771Y-36909524D02*
X97940533Y-36861905D01*
X97940533Y-36861905D02*
X97845295Y-36861905D01*
X97845295Y-36861905D02*
X97750057Y-36909524D01*
X97750057Y-36909524D02*
X97702438Y-36957143D01*
X97702438Y-36957143D02*
X97654819Y-37052381D01*
X97654819Y-37052381D02*
X97654819Y-37290476D01*
X97654819Y-37290476D02*
X97702438Y-37433333D01*
X98654819Y-37861905D02*
X97988152Y-37861905D01*
X97654819Y-37861905D02*
X97702438Y-37814286D01*
X97702438Y-37814286D02*
X97750057Y-37861905D01*
X97750057Y-37861905D02*
X97702438Y-37909524D01*
X97702438Y-37909524D02*
X97654819Y-37861905D01*
X97654819Y-37861905D02*
X97750057Y-37861905D01*
X97988152Y-38338095D02*
X98654819Y-38338095D01*
X98083390Y-38338095D02*
X98035771Y-38385714D01*
X98035771Y-38385714D02*
X97988152Y-38480952D01*
X97988152Y-38480952D02*
X97988152Y-38623809D01*
X97988152Y-38623809D02*
X98035771Y-38719047D01*
X98035771Y-38719047D02*
X98131009Y-38766666D01*
X98131009Y-38766666D02*
X98654819Y-38766666D01*
X98607200Y-39623809D02*
X98654819Y-39528571D01*
X98654819Y-39528571D02*
X98654819Y-39338095D01*
X98654819Y-39338095D02*
X98607200Y-39242857D01*
X98607200Y-39242857D02*
X98511961Y-39195238D01*
X98511961Y-39195238D02*
X98131009Y-39195238D01*
X98131009Y-39195238D02*
X98035771Y-39242857D01*
X98035771Y-39242857D02*
X97988152Y-39338095D01*
X97988152Y-39338095D02*
X97988152Y-39528571D01*
X97988152Y-39528571D02*
X98035771Y-39623809D01*
X98035771Y-39623809D02*
X98131009Y-39671428D01*
X98131009Y-39671428D02*
X98226247Y-39671428D01*
X98226247Y-39671428D02*
X98321485Y-39195238D01*
X98750057Y-39861905D02*
X98750057Y-40623809D01*
X98131009Y-41195238D02*
X98178628Y-41338095D01*
X98178628Y-41338095D02*
X98226247Y-41385714D01*
X98226247Y-41385714D02*
X98321485Y-41433333D01*
X98321485Y-41433333D02*
X98464342Y-41433333D01*
X98464342Y-41433333D02*
X98559580Y-41385714D01*
X98559580Y-41385714D02*
X98607200Y-41338095D01*
X98607200Y-41338095D02*
X98654819Y-41242857D01*
X98654819Y-41242857D02*
X98654819Y-40861905D01*
X98654819Y-40861905D02*
X97654819Y-40861905D01*
X97654819Y-40861905D02*
X97654819Y-41195238D01*
X97654819Y-41195238D02*
X97702438Y-41290476D01*
X97702438Y-41290476D02*
X97750057Y-41338095D01*
X97750057Y-41338095D02*
X97845295Y-41385714D01*
X97845295Y-41385714D02*
X97940533Y-41385714D01*
X97940533Y-41385714D02*
X98035771Y-41338095D01*
X98035771Y-41338095D02*
X98083390Y-41290476D01*
X98083390Y-41290476D02*
X98131009Y-41195238D01*
X98131009Y-41195238D02*
X98131009Y-40861905D01*
X98654819Y-41861905D02*
X97988152Y-41861905D01*
X97654819Y-41861905D02*
X97702438Y-41814286D01*
X97702438Y-41814286D02*
X97750057Y-41861905D01*
X97750057Y-41861905D02*
X97702438Y-41909524D01*
X97702438Y-41909524D02*
X97654819Y-41861905D01*
X97654819Y-41861905D02*
X97750057Y-41861905D01*
X98654819Y-42766666D02*
X98131009Y-42766666D01*
X98131009Y-42766666D02*
X98035771Y-42719047D01*
X98035771Y-42719047D02*
X97988152Y-42623809D01*
X97988152Y-42623809D02*
X97988152Y-42433333D01*
X97988152Y-42433333D02*
X98035771Y-42338095D01*
X98607200Y-42766666D02*
X98654819Y-42671428D01*
X98654819Y-42671428D02*
X98654819Y-42433333D01*
X98654819Y-42433333D02*
X98607200Y-42338095D01*
X98607200Y-42338095D02*
X98511961Y-42290476D01*
X98511961Y-42290476D02*
X98416723Y-42290476D01*
X98416723Y-42290476D02*
X98321485Y-42338095D01*
X98321485Y-42338095D02*
X98273866Y-42433333D01*
X98273866Y-42433333D02*
X98273866Y-42671428D01*
X98273866Y-42671428D02*
X98226247Y-42766666D01*
X98607200Y-43195238D02*
X98654819Y-43290476D01*
X98654819Y-43290476D02*
X98654819Y-43480952D01*
X98654819Y-43480952D02*
X98607200Y-43576190D01*
X98607200Y-43576190D02*
X98511961Y-43623809D01*
X98511961Y-43623809D02*
X98464342Y-43623809D01*
X98464342Y-43623809D02*
X98369104Y-43576190D01*
X98369104Y-43576190D02*
X98321485Y-43480952D01*
X98321485Y-43480952D02*
X98321485Y-43338095D01*
X98321485Y-43338095D02*
X98273866Y-43242857D01*
X98273866Y-43242857D02*
X98178628Y-43195238D01*
X98178628Y-43195238D02*
X98131009Y-43195238D01*
X98131009Y-43195238D02*
X98035771Y-43242857D01*
X98035771Y-43242857D02*
X97988152Y-43338095D01*
X97988152Y-43338095D02*
X97988152Y-43480952D01*
X97988152Y-43480952D02*
X98035771Y-43576190D01*
X98750057Y-43814286D02*
X98750057Y-44576190D01*
X97988152Y-44671429D02*
X97988152Y-45052381D01*
X97654819Y-44814286D02*
X98511961Y-44814286D01*
X98511961Y-44814286D02*
X98607200Y-44861905D01*
X98607200Y-44861905D02*
X98654819Y-44957143D01*
X98654819Y-44957143D02*
X98654819Y-45052381D01*
X98654819Y-45385715D02*
X97988152Y-45385715D01*
X98178628Y-45385715D02*
X98083390Y-45433334D01*
X98083390Y-45433334D02*
X98035771Y-45480953D01*
X98035771Y-45480953D02*
X97988152Y-45576191D01*
X97988152Y-45576191D02*
X97988152Y-45671429D01*
X98654819Y-46004763D02*
X97988152Y-46004763D01*
X97654819Y-46004763D02*
X97702438Y-45957144D01*
X97702438Y-45957144D02*
X97750057Y-46004763D01*
X97750057Y-46004763D02*
X97702438Y-46052382D01*
X97702438Y-46052382D02*
X97654819Y-46004763D01*
X97654819Y-46004763D02*
X97750057Y-46004763D01*
X98654819Y-46480953D02*
X97988152Y-46480953D01*
X98083390Y-46480953D02*
X98035771Y-46528572D01*
X98035771Y-46528572D02*
X97988152Y-46623810D01*
X97988152Y-46623810D02*
X97988152Y-46766667D01*
X97988152Y-46766667D02*
X98035771Y-46861905D01*
X98035771Y-46861905D02*
X98131009Y-46909524D01*
X98131009Y-46909524D02*
X98654819Y-46909524D01*
X98131009Y-46909524D02*
X98035771Y-46957143D01*
X98035771Y-46957143D02*
X97988152Y-47052381D01*
X97988152Y-47052381D02*
X97988152Y-47195238D01*
X97988152Y-47195238D02*
X98035771Y-47290477D01*
X98035771Y-47290477D02*
X98131009Y-47338096D01*
X98131009Y-47338096D02*
X98654819Y-47338096D01*
X98654819Y-48338095D02*
X98654819Y-47766667D01*
X98654819Y-48052381D02*
X97654819Y-48052381D01*
X97654819Y-48052381D02*
X97797676Y-47957143D01*
X97797676Y-47957143D02*
X97892914Y-47861905D01*
X97892914Y-47861905D02*
X97940533Y-47766667D01*
D10*
X59170000Y-143300000D02*
X60710000Y-143300000D01*
X59170000Y-143340000D02*
X60710000Y-143340000D01*
X59171000Y-143380000D02*
X60710000Y-143380000D01*
X59172000Y-143420000D02*
X60710000Y-143420000D01*
X59174000Y-143460000D02*
X60710000Y-143460000D01*
X59177000Y-143500000D02*
X60710000Y-143500000D01*
X59181000Y-143540000D02*
X60710000Y-143540000D01*
X59185000Y-143580000D02*
X60710000Y-143580000D01*
X59189000Y-143620000D02*
X60710000Y-143620000D01*
X59194000Y-143660000D02*
X60710000Y-143660000D01*
X59200000Y-143700000D02*
X60710000Y-143700000D01*
X59207000Y-143740000D02*
X60710000Y-143740000D01*
X59214000Y-143780000D02*
X60710000Y-143780000D01*
X59222000Y-143820000D02*
X60710000Y-143820000D01*
X59230000Y-143860000D02*
X60710000Y-143860000D01*
X59239000Y-143900000D02*
X60710000Y-143900000D01*
X59249000Y-143940000D02*
X60710000Y-143940000D01*
X59259000Y-143980000D02*
X60710000Y-143980000D01*
X59270000Y-144021000D02*
X60710000Y-144021000D01*
X59282000Y-144061000D02*
X60710000Y-144061000D01*
X59295000Y-144101000D02*
X60710000Y-144101000D01*
X59308000Y-144141000D02*
X60710000Y-144141000D01*
X59322000Y-144181000D02*
X60710000Y-144181000D01*
X59336000Y-144221000D02*
X60710000Y-144221000D01*
X59352000Y-144261000D02*
X60710000Y-144261000D01*
X59368000Y-144301000D02*
X60710000Y-144301000D01*
X59385000Y-144341000D02*
X60710000Y-144341000D01*
X59402000Y-144381000D02*
X60710000Y-144381000D01*
X59421000Y-144421000D02*
X60710000Y-144421000D01*
X59440000Y-144461000D02*
X60710000Y-144461000D01*
X59460000Y-144501000D02*
X60710000Y-144501000D01*
X59482000Y-144541000D02*
X60710000Y-144541000D01*
X59503000Y-144581000D02*
X60710000Y-144581000D01*
X59526000Y-144621000D02*
X60710000Y-144621000D01*
X59550000Y-144661000D02*
X60710000Y-144661000D01*
X59575000Y-144701000D02*
X60710000Y-144701000D01*
X59601000Y-144741000D02*
X60710000Y-144741000D01*
X59628000Y-144781000D02*
X60710000Y-144781000D01*
X59655000Y-144821000D02*
X60710000Y-144821000D01*
X59685000Y-144861000D02*
X60710000Y-144861000D01*
X59715000Y-144901000D02*
X60710000Y-144901000D01*
X59746000Y-144941000D02*
X60710000Y-144941000D01*
X59779000Y-144981000D02*
X60710000Y-144981000D01*
X59813000Y-145021000D02*
X60710000Y-145021000D01*
X59849000Y-145061000D02*
X60710000Y-145061000D01*
X59886000Y-145101000D02*
X60710000Y-145101000D01*
X59924000Y-145141000D02*
X60710000Y-145141000D01*
X59965000Y-145181000D02*
X60710000Y-145181000D01*
X60007000Y-145221000D02*
X60710000Y-145221000D01*
X60025000Y-140745225D02*
X60525000Y-140745225D01*
X60051000Y-145261000D02*
X60710000Y-145261000D01*
X60097000Y-145301000D02*
X60710000Y-145301000D01*
X60145000Y-145341000D02*
X63355000Y-145341000D01*
X60196000Y-145381000D02*
X63304000Y-145381000D01*
X60250000Y-145421000D02*
X63250000Y-145421000D01*
X60275000Y-140495225D02*
X60275000Y-140995225D01*
X60307000Y-145461000D02*
X63193000Y-145461000D01*
X60367000Y-145501000D02*
X63133000Y-145501000D01*
X60431000Y-145541000D02*
X63069000Y-145541000D01*
X60499000Y-145581000D02*
X63001000Y-145581000D01*
X60572000Y-145621000D02*
X62928000Y-145621000D01*
X60652000Y-145661000D02*
X62848000Y-145661000D01*
X60739000Y-145701000D02*
X62761000Y-145701000D01*
X60835000Y-145741000D02*
X62665000Y-145741000D01*
X60945000Y-145781000D02*
X62555000Y-145781000D01*
X61073000Y-145821000D02*
X62427000Y-145821000D01*
X61232000Y-145861000D02*
X62268000Y-145861000D01*
X61466000Y-145901000D02*
X62034000Y-145901000D01*
X62790000Y-143300000D02*
X64330000Y-143300000D01*
X62790000Y-143340000D02*
X64330000Y-143340000D01*
X62790000Y-143380000D02*
X64329000Y-143380000D01*
X62790000Y-143420000D02*
X64328000Y-143420000D01*
X62790000Y-143460000D02*
X64326000Y-143460000D01*
X62790000Y-143500000D02*
X64323000Y-143500000D01*
X62790000Y-143540000D02*
X64319000Y-143540000D01*
X62790000Y-143580000D02*
X64315000Y-143580000D01*
X62790000Y-143620000D02*
X64311000Y-143620000D01*
X62790000Y-143660000D02*
X64306000Y-143660000D01*
X62790000Y-143700000D02*
X64300000Y-143700000D01*
X62790000Y-143740000D02*
X64293000Y-143740000D01*
X62790000Y-143780000D02*
X64286000Y-143780000D01*
X62790000Y-143820000D02*
X64278000Y-143820000D01*
X62790000Y-143860000D02*
X64270000Y-143860000D01*
X62790000Y-143900000D02*
X64261000Y-143900000D01*
X62790000Y-143940000D02*
X64251000Y-143940000D01*
X62790000Y-143980000D02*
X64241000Y-143980000D01*
X62790000Y-144021000D02*
X64230000Y-144021000D01*
X62790000Y-144061000D02*
X64218000Y-144061000D01*
X62790000Y-144101000D02*
X64205000Y-144101000D01*
X62790000Y-144141000D02*
X64192000Y-144141000D01*
X62790000Y-144181000D02*
X64178000Y-144181000D01*
X62790000Y-144221000D02*
X64164000Y-144221000D01*
X62790000Y-144261000D02*
X64148000Y-144261000D01*
X62790000Y-144301000D02*
X64132000Y-144301000D01*
X62790000Y-144341000D02*
X64115000Y-144341000D01*
X62790000Y-144381000D02*
X64098000Y-144381000D01*
X62790000Y-144421000D02*
X64079000Y-144421000D01*
X62790000Y-144461000D02*
X64060000Y-144461000D01*
X62790000Y-144501000D02*
X64040000Y-144501000D01*
X62790000Y-144541000D02*
X64018000Y-144541000D01*
X62790000Y-144581000D02*
X63997000Y-144581000D01*
X62790000Y-144621000D02*
X63974000Y-144621000D01*
X62790000Y-144661000D02*
X63950000Y-144661000D01*
X62790000Y-144701000D02*
X63925000Y-144701000D01*
X62790000Y-144741000D02*
X63899000Y-144741000D01*
X62790000Y-144781000D02*
X63872000Y-144781000D01*
X62790000Y-144821000D02*
X63845000Y-144821000D01*
X62790000Y-144861000D02*
X63815000Y-144861000D01*
X62790000Y-144901000D02*
X63785000Y-144901000D01*
X62790000Y-144941000D02*
X63754000Y-144941000D01*
X62790000Y-144981000D02*
X63721000Y-144981000D01*
X62790000Y-145021000D02*
X63687000Y-145021000D01*
X62790000Y-145061000D02*
X63651000Y-145061000D01*
X62790000Y-145101000D02*
X63614000Y-145101000D01*
X62790000Y-145141000D02*
X63576000Y-145141000D01*
X62790000Y-145181000D02*
X63535000Y-145181000D01*
X62790000Y-145221000D02*
X63493000Y-145221000D01*
X62790000Y-145261000D02*
X63449000Y-145261000D01*
X62790000Y-145301000D02*
X63403000Y-145301000D01*
X64370000Y-143300000D02*
G75*
G02*
X59130000Y-143300000I-2620000J0D01*
G01*
X59130000Y-143300000D02*
G75*
G02*
X64370000Y-143300000I2620000J0D01*
G01*
X58900000Y-53800000D02*
G75*
G02*
X55500000Y-53800000I-1700000J0D01*
G01*
X55500000Y-53800000D02*
G75*
G02*
X58900000Y-53800000I1700000J0D01*
G01*
X67930000Y-42630000D02*
X70670000Y-42630000D01*
X67930000Y-49170000D02*
X67930000Y-42630000D01*
X69300000Y-41860000D02*
X69300000Y-42630000D01*
X69300000Y-49940000D02*
X69300000Y-49170000D01*
X70670000Y-42630000D02*
X70670000Y-49170000D01*
X70670000Y-49170000D02*
X67930000Y-49170000D01*
X75800000Y-66390000D02*
X79400000Y-66390000D01*
X77600000Y-70840000D02*
G75*
G02*
X75761522Y-66401522I0J2600000D01*
G01*
X79438478Y-66401522D02*
G75*
G02*
X77600000Y-70840001I-1838478J-1838478D01*
G01*
X73830000Y-59620000D02*
X73830000Y-52380000D01*
X76570000Y-52380000D02*
X73830000Y-52380000D01*
X76570000Y-59620000D02*
X73830000Y-59620000D01*
X76570000Y-59620000D02*
X76570000Y-52380000D01*
X69210000Y-136960000D02*
X69210000Y-146080000D01*
X69210000Y-146080000D02*
X89790000Y-146080000D01*
X70510000Y-138270000D02*
X70510000Y-144770000D01*
X70510000Y-144770000D02*
X88490000Y-144770000D01*
X73920000Y-135570000D02*
X74920000Y-135570000D01*
X74420000Y-136570000D02*
X73920000Y-135570000D01*
X74920000Y-135570000D02*
X74420000Y-136570000D01*
X77450000Y-136960000D02*
X77450000Y-138270000D01*
X77450000Y-138270000D02*
X70510000Y-138270000D01*
X81550000Y-138270000D02*
X81550000Y-136960000D01*
X81550000Y-138270000D02*
X81550000Y-138270000D01*
X88490000Y-138270000D02*
X81550000Y-138270000D01*
X88490000Y-144770000D02*
X88490000Y-138270000D01*
X89790000Y-136960000D02*
X69210000Y-136960000D01*
X89790000Y-146080000D02*
X89790000Y-136960000D01*
X92280000Y-36865000D02*
X92280000Y-46615000D01*
X92280000Y-46615000D02*
X97330000Y-46615000D01*
X97330000Y-36865000D02*
X92280000Y-36865000D01*
X97330000Y-46615000D02*
X97330000Y-36865000D01*
X59830000Y-62420000D02*
X59830000Y-55180000D01*
X62570000Y-55180000D02*
X59830000Y-55180000D01*
X62570000Y-62420000D02*
X59830000Y-62420000D01*
X62570000Y-62420000D02*
X62570000Y-55180000D01*
X96210000Y-141499000D02*
X95597000Y-141499000D01*
X96210000Y-141539000D02*
X95551000Y-141539000D01*
X96210000Y-141579000D02*
X95507000Y-141579000D01*
X96210000Y-141619000D02*
X95465000Y-141619000D01*
X96210000Y-141659000D02*
X95424000Y-141659000D01*
X96210000Y-141699000D02*
X95386000Y-141699000D01*
X96210000Y-141739000D02*
X95349000Y-141739000D01*
X96210000Y-141779000D02*
X95313000Y-141779000D01*
X96210000Y-141819000D02*
X95279000Y-141819000D01*
X96210000Y-141859000D02*
X95246000Y-141859000D01*
X96210000Y-141899000D02*
X95215000Y-141899000D01*
X96210000Y-141939000D02*
X95185000Y-141939000D01*
X96210000Y-141979000D02*
X95155000Y-141979000D01*
X96210000Y-142019000D02*
X95128000Y-142019000D01*
X96210000Y-142059000D02*
X95101000Y-142059000D01*
X96210000Y-142099000D02*
X95075000Y-142099000D01*
X96210000Y-142139000D02*
X95050000Y-142139000D01*
X96210000Y-142179000D02*
X95026000Y-142179000D01*
X96210000Y-142219000D02*
X95003000Y-142219000D01*
X96210000Y-142259000D02*
X94982000Y-142259000D01*
X96210000Y-142299000D02*
X94960000Y-142299000D01*
X96210000Y-142339000D02*
X94940000Y-142339000D01*
X96210000Y-142379000D02*
X94921000Y-142379000D01*
X96210000Y-142419000D02*
X94902000Y-142419000D01*
X96210000Y-142459000D02*
X94885000Y-142459000D01*
X96210000Y-142499000D02*
X94868000Y-142499000D01*
X96210000Y-142539000D02*
X94852000Y-142539000D01*
X96210000Y-142579000D02*
X94836000Y-142579000D01*
X96210000Y-142619000D02*
X94822000Y-142619000D01*
X96210000Y-142659000D02*
X94808000Y-142659000D01*
X96210000Y-142699000D02*
X94795000Y-142699000D01*
X96210000Y-142739000D02*
X94782000Y-142739000D01*
X96210000Y-142779000D02*
X94770000Y-142779000D01*
X96210000Y-142820000D02*
X94759000Y-142820000D01*
X96210000Y-142860000D02*
X94749000Y-142860000D01*
X96210000Y-142900000D02*
X94739000Y-142900000D01*
X96210000Y-142940000D02*
X94730000Y-142940000D01*
X96210000Y-142980000D02*
X94722000Y-142980000D01*
X96210000Y-143020000D02*
X94714000Y-143020000D01*
X96210000Y-143060000D02*
X94707000Y-143060000D01*
X96210000Y-143100000D02*
X94700000Y-143100000D01*
X96210000Y-143140000D02*
X94694000Y-143140000D01*
X96210000Y-143180000D02*
X94689000Y-143180000D01*
X96210000Y-143220000D02*
X94685000Y-143220000D01*
X96210000Y-143260000D02*
X94681000Y-143260000D01*
X96210000Y-143300000D02*
X94677000Y-143300000D01*
X96210000Y-143340000D02*
X94674000Y-143340000D01*
X96210000Y-143380000D02*
X94672000Y-143380000D01*
X96210000Y-143420000D02*
X94671000Y-143420000D01*
X96210000Y-143460000D02*
X94670000Y-143460000D01*
X96210000Y-143500000D02*
X94670000Y-143500000D01*
X97534000Y-140899000D02*
X96966000Y-140899000D01*
X97768000Y-140939000D02*
X96732000Y-140939000D01*
X97927000Y-140979000D02*
X96573000Y-140979000D01*
X98055000Y-141019000D02*
X96445000Y-141019000D01*
X98165000Y-141059000D02*
X96335000Y-141059000D01*
X98261000Y-141099000D02*
X96239000Y-141099000D01*
X98348000Y-141139000D02*
X96152000Y-141139000D01*
X98428000Y-141179000D02*
X96072000Y-141179000D01*
X98501000Y-141219000D02*
X95999000Y-141219000D01*
X98569000Y-141259000D02*
X95931000Y-141259000D01*
X98633000Y-141299000D02*
X95867000Y-141299000D01*
X98693000Y-141339000D02*
X95807000Y-141339000D01*
X98725000Y-146304775D02*
X98725000Y-145804775D01*
X98750000Y-141379000D02*
X95750000Y-141379000D01*
X98804000Y-141419000D02*
X95696000Y-141419000D01*
X98855000Y-141459000D02*
X95645000Y-141459000D01*
X98903000Y-141499000D02*
X98290000Y-141499000D01*
X98949000Y-141539000D02*
X98290000Y-141539000D01*
X98975000Y-146054775D02*
X98475000Y-146054775D01*
X98993000Y-141579000D02*
X98290000Y-141579000D01*
X99035000Y-141619000D02*
X98290000Y-141619000D01*
X99076000Y-141659000D02*
X98290000Y-141659000D01*
X99114000Y-141699000D02*
X98290000Y-141699000D01*
X99151000Y-141739000D02*
X98290000Y-141739000D01*
X99187000Y-141779000D02*
X98290000Y-141779000D01*
X99221000Y-141819000D02*
X98290000Y-141819000D01*
X99254000Y-141859000D02*
X98290000Y-141859000D01*
X99285000Y-141899000D02*
X98290000Y-141899000D01*
X99315000Y-141939000D02*
X98290000Y-141939000D01*
X99345000Y-141979000D02*
X98290000Y-141979000D01*
X99372000Y-142019000D02*
X98290000Y-142019000D01*
X99399000Y-142059000D02*
X98290000Y-142059000D01*
X99425000Y-142099000D02*
X98290000Y-142099000D01*
X99450000Y-142139000D02*
X98290000Y-142139000D01*
X99474000Y-142179000D02*
X98290000Y-142179000D01*
X99497000Y-142219000D02*
X98290000Y-142219000D01*
X99518000Y-142259000D02*
X98290000Y-142259000D01*
X99540000Y-142299000D02*
X98290000Y-142299000D01*
X99560000Y-142339000D02*
X98290000Y-142339000D01*
X99579000Y-142379000D02*
X98290000Y-142379000D01*
X99598000Y-142419000D02*
X98290000Y-142419000D01*
X99615000Y-142459000D02*
X98290000Y-142459000D01*
X99632000Y-142499000D02*
X98290000Y-142499000D01*
X99648000Y-142539000D02*
X98290000Y-142539000D01*
X99664000Y-142579000D02*
X98290000Y-142579000D01*
X99678000Y-142619000D02*
X98290000Y-142619000D01*
X99692000Y-142659000D02*
X98290000Y-142659000D01*
X99705000Y-142699000D02*
X98290000Y-142699000D01*
X99718000Y-142739000D02*
X98290000Y-142739000D01*
X99730000Y-142779000D02*
X98290000Y-142779000D01*
X99741000Y-142820000D02*
X98290000Y-142820000D01*
X99751000Y-142860000D02*
X98290000Y-142860000D01*
X99761000Y-142900000D02*
X98290000Y-142900000D01*
X99770000Y-142940000D02*
X98290000Y-142940000D01*
X99778000Y-142980000D02*
X98290000Y-142980000D01*
X99786000Y-143020000D02*
X98290000Y-143020000D01*
X99793000Y-143060000D02*
X98290000Y-143060000D01*
X99800000Y-143100000D02*
X98290000Y-143100000D01*
X99806000Y-143140000D02*
X98290000Y-143140000D01*
X99811000Y-143180000D02*
X98290000Y-143180000D01*
X99815000Y-143220000D02*
X98290000Y-143220000D01*
X99819000Y-143260000D02*
X98290000Y-143260000D01*
X99823000Y-143300000D02*
X98290000Y-143300000D01*
X99826000Y-143340000D02*
X98290000Y-143340000D01*
X99828000Y-143380000D02*
X98290000Y-143380000D01*
X99829000Y-143420000D02*
X98290000Y-143420000D01*
X99830000Y-143460000D02*
X98290000Y-143460000D01*
X99830000Y-143500000D02*
X98290000Y-143500000D01*
X99870000Y-143500000D02*
G75*
G02*
X94630000Y-143500000I-2620000J0D01*
G01*
X94630000Y-143500000D02*
G75*
G02*
X99870000Y-143500000I2620000J0D01*
G01*
X57970000Y-100370000D02*
X57970000Y-102970000D01*
X60630000Y-97770000D02*
X59300000Y-97770000D01*
X60630000Y-99100000D02*
X60630000Y-97770000D01*
X60630000Y-100370000D02*
X57970000Y-100370000D01*
X60630000Y-100370000D02*
X60630000Y-102970000D01*
X60630000Y-102970000D02*
X57970000Y-102970000D01*
X94400000Y-91000000D02*
G75*
G02*
X91000000Y-91000000I-1700000J0D01*
G01*
X91000000Y-91000000D02*
G75*
G02*
X94400000Y-91000000I1700000J0D01*
G01*
X54770000Y-37025000D02*
X54770000Y-46775000D01*
X54770000Y-46775000D02*
X59820000Y-46775000D01*
X59820000Y-37025000D02*
X54770000Y-37025000D01*
X59820000Y-46775000D02*
X59820000Y-37025000D01*
X71030000Y-44630000D02*
X71030000Y-51870000D01*
X71030000Y-44630000D02*
X73770000Y-44630000D01*
X71030000Y-51870000D02*
X73770000Y-51870000D01*
X73770000Y-44630000D02*
X73770000Y-51870000D01*
X67380000Y-66330000D02*
X74620000Y-66330000D01*
X67380000Y-69070000D02*
X67380000Y-66330000D01*
X67380000Y-69070000D02*
X74620000Y-69070000D01*
X74620000Y-69070000D02*
X74620000Y-66330000D01*
X61530000Y-42650000D02*
X64270000Y-42650000D01*
X61530000Y-49190000D02*
X61530000Y-42650000D01*
X62900000Y-41880000D02*
X62900000Y-42650000D01*
X62900000Y-49960000D02*
X62900000Y-49190000D01*
X64270000Y-42650000D02*
X64270000Y-49190000D01*
X64270000Y-49190000D02*
X61530000Y-49190000D01*
X73880000Y-59930000D02*
X73880000Y-62670000D01*
X81120000Y-59930000D02*
X73880000Y-59930000D01*
X81120000Y-59930000D02*
X81120000Y-62670000D01*
X81120000Y-62670000D02*
X73880000Y-62670000D01*
X56960000Y-64600000D02*
X57730000Y-64600000D01*
X57730000Y-63230000D02*
X64270000Y-63230000D01*
X57730000Y-65970000D02*
X57730000Y-63230000D01*
X64270000Y-63230000D02*
X64270000Y-65970000D01*
X64270000Y-65970000D02*
X57730000Y-65970000D01*
X65040000Y-64600000D02*
X64270000Y-64600000D01*
X89080000Y-53130000D02*
X96320000Y-53130000D01*
X89080000Y-55870000D02*
X89080000Y-53130000D01*
X89080000Y-55870000D02*
X96320000Y-55870000D01*
X96320000Y-55870000D02*
X96320000Y-53130000D01*
X89000000Y-80400000D02*
G75*
G02*
X85600000Y-80400000I-1700000J0D01*
G01*
X85600000Y-80400000D02*
G75*
G02*
X89000000Y-80400000I1700000J0D01*
G01*
X81470000Y-83065000D02*
X81470000Y-92815000D01*
X81470000Y-92815000D02*
X86520000Y-92815000D01*
X86520000Y-83065000D02*
X81470000Y-83065000D01*
X86520000Y-92815000D02*
X86520000Y-83065000D01*
X69360000Y-64600000D02*
X70130000Y-64600000D01*
X70130000Y-63230000D02*
X76670000Y-63230000D01*
X70130000Y-65970000D02*
X70130000Y-63230000D01*
X76670000Y-63230000D02*
X76670000Y-65970000D01*
X76670000Y-65970000D02*
X70130000Y-65970000D01*
X77440000Y-64600000D02*
X76670000Y-64600000D01*
X85470000Y-36825000D02*
X85470000Y-46575000D01*
X85470000Y-46575000D02*
X90520000Y-46575000D01*
X90520000Y-36825000D02*
X85470000Y-36825000D01*
X90520000Y-46575000D02*
X90520000Y-36825000D01*
X63010000Y-52370000D02*
X73410000Y-52370000D01*
X63010000Y-62650000D02*
X63010000Y-52370000D01*
X63070000Y-54860000D02*
X73350000Y-54860000D01*
X63070000Y-56510000D02*
X63070000Y-54860000D01*
X63070000Y-60160000D02*
X63070000Y-58510000D01*
X73350000Y-54860000D02*
X73350000Y-60160000D01*
X73350000Y-60160000D02*
X63070000Y-60160000D01*
X73410000Y-52370000D02*
X73410000Y-62650000D01*
X73410000Y-62650000D02*
X63010000Y-62650000D01*
X63070000Y-56510000D02*
G75*
G02*
X63070000Y-58510000I0J-1000000D01*
G01*
X64730000Y-42630000D02*
X67470000Y-42630000D01*
X64730000Y-49170000D02*
X64730000Y-42630000D01*
X66100000Y-41860000D02*
X66100000Y-42630000D01*
X66100000Y-49940000D02*
X66100000Y-49170000D01*
X67470000Y-42630000D02*
X67470000Y-49170000D01*
X67470000Y-49170000D02*
X64730000Y-49170000D01*
X74130000Y-42600000D02*
X76870000Y-42600000D01*
X74130000Y-49140000D02*
X74130000Y-42600000D01*
X75500000Y-41830000D02*
X75500000Y-42600000D01*
X75500000Y-49910000D02*
X75500000Y-49140000D01*
X76870000Y-42600000D02*
X76870000Y-49140000D01*
X76870000Y-49140000D02*
X74130000Y-49140000D01*
X99070000Y-36865000D02*
X99070000Y-46615000D01*
X99070000Y-46615000D02*
X104120000Y-46615000D01*
X104120000Y-36865000D02*
X99070000Y-36865000D01*
X104120000Y-46615000D02*
X104120000Y-36865000D01*
%LPC*%
D12*
X102300000Y-127780000D03*
D13*
X102300000Y-117620000D03*
D12*
X85220000Y-60600000D03*
D13*
X95380000Y-60600000D03*
D12*
X85580000Y-73200000D03*
X75420000Y-73200000D03*
X85240000Y-50900000D03*
D13*
X95400000Y-50900000D03*
D14*
X102750000Y-76750000D03*
D15*
X102750000Y-79290000D03*
X102750000Y-81830000D03*
X102750000Y-84370000D03*
X102750000Y-86910000D03*
X102750000Y-89450000D03*
X102750000Y-91990000D03*
X102750000Y-94530000D03*
D12*
X79300000Y-105700000D03*
X74300000Y-105700000D03*
X102300000Y-130200000D03*
X102300000Y-135200000D03*
X97000000Y-105220000D03*
D13*
X97000000Y-115380000D03*
D16*
X95050000Y-80500000D03*
X98550000Y-80500000D03*
D12*
X80900000Y-92200000D03*
X80900000Y-87200000D03*
X87600000Y-115400000D03*
D13*
X87600000Y-105240000D03*
D12*
X76820000Y-129700000D03*
D13*
X86980000Y-129700000D03*
G36*
G01*
X91949999Y-133820000D02*
X93650001Y-133820000D01*
G75*
G02*
X93900000Y-134069999I0J-249999D01*
G01*
X93900000Y-135770001D01*
G75*
G02*
X93650001Y-136020000I-249999J0D01*
G01*
X91949999Y-136020000D01*
G75*
G02*
X91700000Y-135770001I0J249999D01*
G01*
X91700000Y-134069999D01*
G75*
G02*
X91949999Y-133820000I249999J0D01*
G01*
G37*
D17*
X92800000Y-145080000D03*
D12*
X59140000Y-82900000D03*
D13*
X69300000Y-82900000D03*
D12*
X90700000Y-115200000D03*
X90700000Y-110200000D03*
X102800000Y-59300000D03*
X97800000Y-59300000D03*
X99080000Y-83300000D03*
D13*
X88920000Y-83300000D03*
D12*
X79500000Y-51260000D03*
D13*
X79500000Y-41100000D03*
D18*
X78100000Y-84790000D03*
D13*
X78100000Y-92410000D03*
D12*
X76820000Y-132800000D03*
D13*
X86980000Y-132800000D03*
D14*
X96000000Y-73100000D03*
D15*
X96000000Y-70560000D03*
X96000000Y-68020000D03*
X96000000Y-65480000D03*
D19*
X79500000Y-112400000D03*
D16*
X68850000Y-77000000D03*
X65350000Y-77000000D03*
D12*
X61200000Y-115360000D03*
D13*
X61200000Y-105200000D03*
D12*
X58100000Y-105200000D03*
D13*
X58100000Y-115360000D03*
D12*
X84500000Y-105240000D03*
D13*
X84500000Y-115400000D03*
D20*
X81330000Y-80600000D03*
D21*
X82600000Y-80600000D03*
X83870000Y-80600000D03*
D12*
X72700000Y-128800000D03*
X67700000Y-128800000D03*
X74580000Y-132000000D03*
X64420000Y-132000000D03*
G36*
G01*
X67550001Y-146200000D02*
X65849999Y-146200000D01*
G75*
G02*
X65600000Y-145950001I0J249999D01*
G01*
X65600000Y-144249999D01*
G75*
G02*
X65849999Y-144000000I249999J0D01*
G01*
X67550001Y-144000000D01*
G75*
G02*
X67800000Y-144249999I0J-249999D01*
G01*
X67800000Y-145950001D01*
G75*
G02*
X67550001Y-146200000I-249999J0D01*
G01*
G37*
D17*
X66700000Y-134940000D03*
D12*
X64300000Y-105220000D03*
D13*
X64300000Y-115380000D03*
D12*
X72700000Y-82240000D03*
X72700000Y-92400000D03*
X99100000Y-138480000D03*
D13*
X99100000Y-128320000D03*
D16*
X65350000Y-85700000D03*
X68850000Y-85700000D03*
D12*
X69260000Y-74200000D03*
D13*
X59100000Y-74200000D03*
D12*
X100100000Y-115400000D03*
D13*
X100100000Y-105240000D03*
D12*
X88920000Y-86400000D03*
D13*
X99080000Y-86400000D03*
D12*
X93800000Y-115200000D03*
X93800000Y-110200000D03*
X95900000Y-133600000D03*
X95900000Y-128600000D03*
D18*
X75325000Y-118100000D03*
D13*
X72785000Y-118100000D03*
X70245000Y-118100000D03*
X67705000Y-118100000D03*
X65165000Y-118100000D03*
X62625000Y-118100000D03*
X60085000Y-118100000D03*
X60085000Y-125720000D03*
X62625000Y-125720000D03*
X65165000Y-125720000D03*
X67705000Y-125720000D03*
X70245000Y-125720000D03*
X72785000Y-125720000D03*
X75325000Y-125720000D03*
D12*
X69280000Y-79800000D03*
D13*
X59120000Y-79800000D03*
D12*
X73600000Y-115200000D03*
X73600000Y-110200000D03*
D22*
X79225000Y-94975000D03*
D23*
X76685000Y-94975000D03*
X74145000Y-94975000D03*
X71605000Y-94975000D03*
X69065000Y-94975000D03*
X66525000Y-94975000D03*
X63985000Y-94975000D03*
X63985000Y-102595000D03*
X66525000Y-102595000D03*
X69065000Y-102595000D03*
X71605000Y-102595000D03*
X74145000Y-102595000D03*
X76685000Y-102595000D03*
X79225000Y-102595000D03*
D18*
X102900000Y-107780000D03*
D13*
X102900000Y-115400000D03*
D12*
X102600000Y-72060000D03*
D13*
X102600000Y-61900000D03*
D18*
X98725000Y-118100000D03*
D13*
X96185000Y-118100000D03*
X93645000Y-118100000D03*
X91105000Y-118100000D03*
X88565000Y-118100000D03*
X86025000Y-118100000D03*
X83485000Y-118100000D03*
X83485000Y-125720000D03*
X86025000Y-125720000D03*
X88565000Y-125720000D03*
X91105000Y-125720000D03*
X93645000Y-125720000D03*
X96185000Y-125720000D03*
X98725000Y-125720000D03*
D12*
X95380000Y-57500000D03*
D13*
X85220000Y-57500000D03*
D12*
X99080000Y-77700000D03*
D13*
X88920000Y-77700000D03*
D16*
X71900000Y-74250000D03*
X71900000Y-77750000D03*
D12*
X86980000Y-135900000D03*
D13*
X76820000Y-135900000D03*
D12*
X85580000Y-76300000D03*
X75420000Y-76300000D03*
X89700000Y-133600000D03*
X89700000Y-128600000D03*
X95400000Y-47800000D03*
D13*
X85240000Y-47800000D03*
D12*
X78500000Y-116920000D03*
X78500000Y-127080000D03*
D20*
X75830000Y-80600000D03*
D21*
X77100000Y-80600000D03*
X78370000Y-80600000D03*
D12*
X69280000Y-88500000D03*
D13*
X59120000Y-88500000D03*
D12*
X61800000Y-128320000D03*
D13*
X61800000Y-138480000D03*
D12*
X99500000Y-61900000D03*
D13*
X99500000Y-72060000D03*
D12*
X70500000Y-115200000D03*
X70500000Y-110200000D03*
D14*
X56250000Y-76750000D03*
D15*
X56250000Y-79290000D03*
X56250000Y-81830000D03*
X56250000Y-84370000D03*
X56250000Y-86910000D03*
X56250000Y-89450000D03*
X56250000Y-91990000D03*
X56250000Y-94530000D03*
D12*
X58700000Y-128320000D03*
D13*
X58700000Y-138480000D03*
D12*
X82600000Y-51260000D03*
D13*
X82600000Y-41100000D03*
D20*
X86370000Y-101300000D03*
D21*
X85100000Y-101300000D03*
X83830000Y-101300000D03*
D12*
X69280000Y-91700000D03*
D13*
X59120000Y-91700000D03*
D12*
X67400000Y-115380000D03*
D13*
X67400000Y-105220000D03*
D18*
X75500000Y-84790000D03*
D13*
X75500000Y-92410000D03*
D18*
X102900000Y-97980000D03*
D13*
X102900000Y-105600000D03*
D20*
X83830000Y-96900000D03*
D21*
X85100000Y-96900000D03*
X86370000Y-96900000D03*
D18*
X61750000Y-142300000D03*
D12*
X61750000Y-144300000D03*
D24*
X57200000Y-53800000D03*
D12*
X69300000Y-50980000D03*
D13*
X69300000Y-40820000D03*
D20*
X76330000Y-68240000D03*
D21*
X77600000Y-68240000D03*
X78870000Y-68240000D03*
D12*
X75200000Y-58500000D03*
X75200000Y-53500000D03*
G36*
G01*
X73820000Y-139400000D02*
X75020000Y-139400000D01*
G75*
G02*
X75270000Y-139650000I0J-250000D01*
G01*
X75270000Y-140850000D01*
G75*
G02*
X75020000Y-141100000I-250000J0D01*
G01*
X73820000Y-141100000D01*
G75*
G02*
X73570000Y-140850000I0J250000D01*
G01*
X73570000Y-139650000D01*
G75*
G02*
X73820000Y-139400000I250000J0D01*
G01*
G37*
D25*
X74420000Y-142790000D03*
X76960000Y-140250000D03*
X76960000Y-142790000D03*
X79500000Y-140250000D03*
X79500000Y-142790000D03*
X82040000Y-140250000D03*
X82040000Y-142790000D03*
X84580000Y-140250000D03*
X84580000Y-142790000D03*
D26*
X94800000Y-44280000D03*
X94800000Y-41740000D03*
X94800000Y-39200000D03*
D12*
X61200000Y-61300000D03*
X61200000Y-56300000D03*
D18*
X97250000Y-144500000D03*
D12*
X97250000Y-142500000D03*
D14*
X59300000Y-99100000D03*
D15*
X59300000Y-101640000D03*
D24*
X92700000Y-91000000D03*
D26*
X57300000Y-39360000D03*
X57300000Y-41900000D03*
X57300000Y-44440000D03*
D12*
X72400000Y-45750000D03*
X72400000Y-50750000D03*
X68500000Y-67700000D03*
X73500000Y-67700000D03*
X62900000Y-51000000D03*
D13*
X62900000Y-40840000D03*
D12*
X80000000Y-61300000D03*
X75000000Y-61300000D03*
X55920000Y-64600000D03*
D13*
X66080000Y-64600000D03*
D12*
X90200000Y-54500000D03*
X95200000Y-54500000D03*
D24*
X87300000Y-80400000D03*
D26*
X84000000Y-85400000D03*
X84000000Y-87940000D03*
X84000000Y-90480000D03*
D12*
X68320000Y-64600000D03*
D13*
X78480000Y-64600000D03*
D26*
X88000000Y-39160000D03*
X88000000Y-41700000D03*
X88000000Y-44240000D03*
D18*
X64400000Y-53700000D03*
D13*
X66940000Y-53700000D03*
X69480000Y-53700000D03*
X72020000Y-53700000D03*
X72020000Y-61320000D03*
X69480000Y-61320000D03*
X66940000Y-61320000D03*
X64400000Y-61320000D03*
D12*
X66100000Y-40820000D03*
D13*
X66100000Y-50980000D03*
D12*
X75500000Y-40790000D03*
D13*
X75500000Y-50950000D03*
D26*
X101600000Y-39200000D03*
X101600000Y-41740000D03*
X101600000Y-44280000D03*
D27*
X75400000Y-121600000D03*
X101100000Y-51800000D03*
X81400000Y-103500000D03*
X81400000Y-102600000D03*
X97800000Y-97700000D03*
X98800000Y-97700000D03*
X98800000Y-98700000D03*
X85200000Y-120600000D03*
X81600000Y-94100000D03*
X97800000Y-98700000D03*
X84700000Y-121400000D03*
X75500000Y-100000000D03*
X74900000Y-120700000D03*
X81600000Y-95000000D03*
X81700000Y-99300000D03*
X76600000Y-100000000D03*
X77700000Y-100000000D03*
X84200000Y-120600000D03*
X101100000Y-50600000D03*
X75900000Y-120700000D03*
X60700000Y-85900000D03*
X101200000Y-54400000D03*
X77900000Y-97800000D03*
X63700000Y-59600000D03*
X62400000Y-85900000D03*
X100800000Y-117500000D03*
X88100000Y-69700000D03*
X91900000Y-98200000D03*
X69200000Y-98600000D03*
X81000000Y-121300000D03*
X89600000Y-98949500D03*
X81200000Y-123300000D03*
X93150000Y-71310659D03*
X78100000Y-58500000D03*
X92400000Y-57600000D03*
X80000000Y-90150000D03*
%LPD*%
M02*
