G04 #@! TF.GenerationSoftware,KiCad,Pcbnew,7.0.7-7.0.7~ubuntu22.04.1*
G04 #@! TF.CreationDate,2023-12-10T22:01:21+01:00*
G04 #@! TF.ProjectId,CD40106_VCO,43443430-3130-4365-9f56-434f2e6b6963,rev?*
G04 #@! TF.SameCoordinates,Original*
G04 #@! TF.FileFunction,Legend,Bot*
G04 #@! TF.FilePolarity,Positive*
%FSLAX46Y46*%
G04 Gerber Fmt 4.6, Leading zero omitted, Abs format (unit mm)*
G04 Created by KiCad (PCBNEW 7.0.7-7.0.7~ubuntu22.04.1) date 2023-12-10 22:01:21*
%MOMM*%
%LPD*%
G01*
G04 APERTURE LIST*
%ADD10C,0.120000*%
%ADD11C,0.150000*%
%ADD12C,1.600000*%
%ADD13O,1.600000X1.600000*%
%ADD14R,1.700000X1.700000*%
%ADD15O,1.700000X1.700000*%
%ADD16C,1.524000*%
%ADD17R,1.050000X1.500000*%
%ADD18O,1.050000X1.500000*%
%ADD19R,1.600000X1.600000*%
%ADD20C,3.200000*%
%ADD21R,1.600000X2.400000*%
%ADD22O,1.600000X2.400000*%
%ADD23C,3.000000*%
%ADD24C,1.700000*%
%ADD25C,1.440000*%
%ADD26C,0.800000*%
G04 APERTURE END LIST*
D10*
X57500000Y-96040000D02*
X61100000Y-96040000D01*
X61100000Y-103540000D01*
X57500000Y-103540000D01*
X57500000Y-96040000D01*
D11*
X57130180Y-102046077D02*
X57130180Y-101474649D01*
X56130180Y-101760363D02*
X57130180Y-101760363D01*
X56130180Y-100998458D02*
X56177800Y-101093696D01*
X56177800Y-101093696D02*
X56225419Y-101141315D01*
X56225419Y-101141315D02*
X56320657Y-101188934D01*
X56320657Y-101188934D02*
X56606371Y-101188934D01*
X56606371Y-101188934D02*
X56701609Y-101141315D01*
X56701609Y-101141315D02*
X56749228Y-101093696D01*
X56749228Y-101093696D02*
X56796847Y-100998458D01*
X56796847Y-100998458D02*
X56796847Y-100855601D01*
X56796847Y-100855601D02*
X56749228Y-100760363D01*
X56749228Y-100760363D02*
X56701609Y-100712744D01*
X56701609Y-100712744D02*
X56606371Y-100665125D01*
X56606371Y-100665125D02*
X56320657Y-100665125D01*
X56320657Y-100665125D02*
X56225419Y-100712744D01*
X56225419Y-100712744D02*
X56177800Y-100760363D01*
X56177800Y-100760363D02*
X56130180Y-100855601D01*
X56130180Y-100855601D02*
X56130180Y-100998458D01*
X56177800Y-99522267D02*
X56130180Y-99427029D01*
X56130180Y-99427029D02*
X56130180Y-99236553D01*
X56130180Y-99236553D02*
X56177800Y-99141315D01*
X56177800Y-99141315D02*
X56273038Y-99093696D01*
X56273038Y-99093696D02*
X56320657Y-99093696D01*
X56320657Y-99093696D02*
X56415895Y-99141315D01*
X56415895Y-99141315D02*
X56463514Y-99236553D01*
X56463514Y-99236553D02*
X56463514Y-99379410D01*
X56463514Y-99379410D02*
X56511133Y-99474648D01*
X56511133Y-99474648D02*
X56606371Y-99522267D01*
X56606371Y-99522267D02*
X56653990Y-99522267D01*
X56653990Y-99522267D02*
X56749228Y-99474648D01*
X56749228Y-99474648D02*
X56796847Y-99379410D01*
X56796847Y-99379410D02*
X56796847Y-99236553D01*
X56796847Y-99236553D02*
X56749228Y-99141315D01*
X56796847Y-98236553D02*
X56130180Y-98236553D01*
X56796847Y-98665124D02*
X56273038Y-98665124D01*
X56273038Y-98665124D02*
X56177800Y-98617505D01*
X56177800Y-98617505D02*
X56130180Y-98522267D01*
X56130180Y-98522267D02*
X56130180Y-98379410D01*
X56130180Y-98379410D02*
X56177800Y-98284172D01*
X56177800Y-98284172D02*
X56225419Y-98236553D01*
X56130180Y-97760362D02*
X57130180Y-97760362D01*
X56749228Y-97760362D02*
X56796847Y-97665124D01*
X56796847Y-97665124D02*
X56796847Y-97474648D01*
X56796847Y-97474648D02*
X56749228Y-97379410D01*
X56749228Y-97379410D02*
X56701609Y-97331791D01*
X56701609Y-97331791D02*
X56606371Y-97284172D01*
X56606371Y-97284172D02*
X56320657Y-97284172D01*
X56320657Y-97284172D02*
X56225419Y-97331791D01*
X56225419Y-97331791D02*
X56177800Y-97379410D01*
X56177800Y-97379410D02*
X56130180Y-97474648D01*
X56130180Y-97474648D02*
X56130180Y-97665124D01*
X56130180Y-97665124D02*
X56177800Y-97760362D01*
X58609580Y-142657142D02*
X58657200Y-142609523D01*
X58657200Y-142609523D02*
X58704819Y-142466666D01*
X58704819Y-142466666D02*
X58704819Y-142371428D01*
X58704819Y-142371428D02*
X58657200Y-142228571D01*
X58657200Y-142228571D02*
X58561961Y-142133333D01*
X58561961Y-142133333D02*
X58466723Y-142085714D01*
X58466723Y-142085714D02*
X58276247Y-142038095D01*
X58276247Y-142038095D02*
X58133390Y-142038095D01*
X58133390Y-142038095D02*
X57942914Y-142085714D01*
X57942914Y-142085714D02*
X57847676Y-142133333D01*
X57847676Y-142133333D02*
X57752438Y-142228571D01*
X57752438Y-142228571D02*
X57704819Y-142371428D01*
X57704819Y-142371428D02*
X57704819Y-142466666D01*
X57704819Y-142466666D02*
X57752438Y-142609523D01*
X57752438Y-142609523D02*
X57800057Y-142657142D01*
X58704819Y-143609523D02*
X58704819Y-143038095D01*
X58704819Y-143323809D02*
X57704819Y-143323809D01*
X57704819Y-143323809D02*
X57847676Y-143228571D01*
X57847676Y-143228571D02*
X57942914Y-143133333D01*
X57942914Y-143133333D02*
X57990533Y-143038095D01*
X58704819Y-144561904D02*
X58704819Y-143990476D01*
X58704819Y-144276190D02*
X57704819Y-144276190D01*
X57704819Y-144276190D02*
X57847676Y-144180952D01*
X57847676Y-144180952D02*
X57942914Y-144085714D01*
X57942914Y-144085714D02*
X57990533Y-143990476D01*
X79261904Y-56054819D02*
X78690476Y-56054819D01*
X78976190Y-57054819D02*
X78976190Y-56054819D01*
X78357142Y-57054819D02*
X78357142Y-56054819D01*
X78357142Y-56054819D02*
X77976190Y-56054819D01*
X77976190Y-56054819D02*
X77880952Y-56102438D01*
X77880952Y-56102438D02*
X77833333Y-56150057D01*
X77833333Y-56150057D02*
X77785714Y-56245295D01*
X77785714Y-56245295D02*
X77785714Y-56388152D01*
X77785714Y-56388152D02*
X77833333Y-56483390D01*
X77833333Y-56483390D02*
X77880952Y-56531009D01*
X77880952Y-56531009D02*
X77976190Y-56578628D01*
X77976190Y-56578628D02*
X78357142Y-56578628D01*
X77452380Y-56054819D02*
X76833333Y-56054819D01*
X76833333Y-56054819D02*
X77166666Y-56435771D01*
X77166666Y-56435771D02*
X77023809Y-56435771D01*
X77023809Y-56435771D02*
X76928571Y-56483390D01*
X76928571Y-56483390D02*
X76880952Y-56531009D01*
X76880952Y-56531009D02*
X76833333Y-56626247D01*
X76833333Y-56626247D02*
X76833333Y-56864342D01*
X76833333Y-56864342D02*
X76880952Y-56959580D01*
X76880952Y-56959580D02*
X76928571Y-57007200D01*
X76928571Y-57007200D02*
X77023809Y-57054819D01*
X77023809Y-57054819D02*
X77309523Y-57054819D01*
X77309523Y-57054819D02*
X77404761Y-57007200D01*
X77404761Y-57007200D02*
X77452380Y-56959580D01*
X80309523Y-135204819D02*
X80309523Y-135919104D01*
X80309523Y-135919104D02*
X80357142Y-136061961D01*
X80357142Y-136061961D02*
X80452380Y-136157200D01*
X80452380Y-136157200D02*
X80595237Y-136204819D01*
X80595237Y-136204819D02*
X80690475Y-136204819D01*
X79309523Y-136204819D02*
X79880951Y-136204819D01*
X79595237Y-136204819D02*
X79595237Y-135204819D01*
X79595237Y-135204819D02*
X79690475Y-135347676D01*
X79690475Y-135347676D02*
X79785713Y-135442914D01*
X79785713Y-135442914D02*
X79880951Y-135490533D01*
X78452380Y-135204819D02*
X78642856Y-135204819D01*
X78642856Y-135204819D02*
X78738094Y-135252438D01*
X78738094Y-135252438D02*
X78785713Y-135300057D01*
X78785713Y-135300057D02*
X78880951Y-135442914D01*
X78880951Y-135442914D02*
X78928570Y-135633390D01*
X78928570Y-135633390D02*
X78928570Y-136014342D01*
X78928570Y-136014342D02*
X78880951Y-136109580D01*
X78880951Y-136109580D02*
X78833332Y-136157200D01*
X78833332Y-136157200D02*
X78738094Y-136204819D01*
X78738094Y-136204819D02*
X78547618Y-136204819D01*
X78547618Y-136204819D02*
X78452380Y-136157200D01*
X78452380Y-136157200D02*
X78404761Y-136109580D01*
X78404761Y-136109580D02*
X78357142Y-136014342D01*
X78357142Y-136014342D02*
X78357142Y-135776247D01*
X78357142Y-135776247D02*
X78404761Y-135681009D01*
X78404761Y-135681009D02*
X78452380Y-135633390D01*
X78452380Y-135633390D02*
X78547618Y-135585771D01*
X78547618Y-135585771D02*
X78738094Y-135585771D01*
X78738094Y-135585771D02*
X78833332Y-135633390D01*
X78833332Y-135633390D02*
X78880951Y-135681009D01*
X78880951Y-135681009D02*
X78928570Y-135776247D01*
X91807200Y-36709523D02*
X91854819Y-36852380D01*
X91854819Y-36852380D02*
X91854819Y-37090475D01*
X91854819Y-37090475D02*
X91807200Y-37185713D01*
X91807200Y-37185713D02*
X91759580Y-37233332D01*
X91759580Y-37233332D02*
X91664342Y-37280951D01*
X91664342Y-37280951D02*
X91569104Y-37280951D01*
X91569104Y-37280951D02*
X91473866Y-37233332D01*
X91473866Y-37233332D02*
X91426247Y-37185713D01*
X91426247Y-37185713D02*
X91378628Y-37090475D01*
X91378628Y-37090475D02*
X91331009Y-36899999D01*
X91331009Y-36899999D02*
X91283390Y-36804761D01*
X91283390Y-36804761D02*
X91235771Y-36757142D01*
X91235771Y-36757142D02*
X91140533Y-36709523D01*
X91140533Y-36709523D02*
X91045295Y-36709523D01*
X91045295Y-36709523D02*
X90950057Y-36757142D01*
X90950057Y-36757142D02*
X90902438Y-36804761D01*
X90902438Y-36804761D02*
X90854819Y-36899999D01*
X90854819Y-36899999D02*
X90854819Y-37138094D01*
X90854819Y-37138094D02*
X90902438Y-37280951D01*
X91854819Y-37709523D02*
X91188152Y-37709523D01*
X90854819Y-37709523D02*
X90902438Y-37661904D01*
X90902438Y-37661904D02*
X90950057Y-37709523D01*
X90950057Y-37709523D02*
X90902438Y-37757142D01*
X90902438Y-37757142D02*
X90854819Y-37709523D01*
X90854819Y-37709523D02*
X90950057Y-37709523D01*
X91188152Y-38185713D02*
X91854819Y-38185713D01*
X91283390Y-38185713D02*
X91235771Y-38233332D01*
X91235771Y-38233332D02*
X91188152Y-38328570D01*
X91188152Y-38328570D02*
X91188152Y-38471427D01*
X91188152Y-38471427D02*
X91235771Y-38566665D01*
X91235771Y-38566665D02*
X91331009Y-38614284D01*
X91331009Y-38614284D02*
X91854819Y-38614284D01*
X91807200Y-39471427D02*
X91854819Y-39376189D01*
X91854819Y-39376189D02*
X91854819Y-39185713D01*
X91854819Y-39185713D02*
X91807200Y-39090475D01*
X91807200Y-39090475D02*
X91711961Y-39042856D01*
X91711961Y-39042856D02*
X91331009Y-39042856D01*
X91331009Y-39042856D02*
X91235771Y-39090475D01*
X91235771Y-39090475D02*
X91188152Y-39185713D01*
X91188152Y-39185713D02*
X91188152Y-39376189D01*
X91188152Y-39376189D02*
X91235771Y-39471427D01*
X91235771Y-39471427D02*
X91331009Y-39519046D01*
X91331009Y-39519046D02*
X91426247Y-39519046D01*
X91426247Y-39519046D02*
X91521485Y-39042856D01*
X91950057Y-39709523D02*
X91950057Y-40471427D01*
X91854819Y-41185713D02*
X91854819Y-40709523D01*
X91854819Y-40709523D02*
X90854819Y-40709523D01*
X91188152Y-41423809D02*
X91854819Y-41661904D01*
X91854819Y-41661904D02*
X91188152Y-41899999D01*
X91854819Y-42423809D02*
X91807200Y-42328571D01*
X91807200Y-42328571D02*
X91711961Y-42280952D01*
X91711961Y-42280952D02*
X90854819Y-42280952D01*
X91950057Y-42566667D02*
X91950057Y-43328571D01*
X91188152Y-43423810D02*
X91188152Y-43804762D01*
X90854819Y-43566667D02*
X91711961Y-43566667D01*
X91711961Y-43566667D02*
X91807200Y-43614286D01*
X91807200Y-43614286D02*
X91854819Y-43709524D01*
X91854819Y-43709524D02*
X91854819Y-43804762D01*
X91854819Y-44138096D02*
X91188152Y-44138096D01*
X91378628Y-44138096D02*
X91283390Y-44185715D01*
X91283390Y-44185715D02*
X91235771Y-44233334D01*
X91235771Y-44233334D02*
X91188152Y-44328572D01*
X91188152Y-44328572D02*
X91188152Y-44423810D01*
X91854819Y-44757144D02*
X91188152Y-44757144D01*
X90854819Y-44757144D02*
X90902438Y-44709525D01*
X90902438Y-44709525D02*
X90950057Y-44757144D01*
X90950057Y-44757144D02*
X90902438Y-44804763D01*
X90902438Y-44804763D02*
X90854819Y-44757144D01*
X90854819Y-44757144D02*
X90950057Y-44757144D01*
X91854819Y-45233334D02*
X91188152Y-45233334D01*
X91283390Y-45233334D02*
X91235771Y-45280953D01*
X91235771Y-45280953D02*
X91188152Y-45376191D01*
X91188152Y-45376191D02*
X91188152Y-45519048D01*
X91188152Y-45519048D02*
X91235771Y-45614286D01*
X91235771Y-45614286D02*
X91331009Y-45661905D01*
X91331009Y-45661905D02*
X91854819Y-45661905D01*
X91331009Y-45661905D02*
X91235771Y-45709524D01*
X91235771Y-45709524D02*
X91188152Y-45804762D01*
X91188152Y-45804762D02*
X91188152Y-45947619D01*
X91188152Y-45947619D02*
X91235771Y-46042858D01*
X91235771Y-46042858D02*
X91331009Y-46090477D01*
X91331009Y-46090477D02*
X91854819Y-46090477D01*
X91854819Y-47090476D02*
X91854819Y-46519048D01*
X91854819Y-46804762D02*
X90854819Y-46804762D01*
X90854819Y-46804762D02*
X90997676Y-46709524D01*
X90997676Y-46709524D02*
X91092914Y-46614286D01*
X91092914Y-46614286D02*
X91140533Y-46519048D01*
X101109580Y-143107142D02*
X101157200Y-143059523D01*
X101157200Y-143059523D02*
X101204819Y-142916666D01*
X101204819Y-142916666D02*
X101204819Y-142821428D01*
X101204819Y-142821428D02*
X101157200Y-142678571D01*
X101157200Y-142678571D02*
X101061961Y-142583333D01*
X101061961Y-142583333D02*
X100966723Y-142535714D01*
X100966723Y-142535714D02*
X100776247Y-142488095D01*
X100776247Y-142488095D02*
X100633390Y-142488095D01*
X100633390Y-142488095D02*
X100442914Y-142535714D01*
X100442914Y-142535714D02*
X100347676Y-142583333D01*
X100347676Y-142583333D02*
X100252438Y-142678571D01*
X100252438Y-142678571D02*
X100204819Y-142821428D01*
X100204819Y-142821428D02*
X100204819Y-142916666D01*
X100204819Y-142916666D02*
X100252438Y-143059523D01*
X100252438Y-143059523D02*
X100300057Y-143107142D01*
X101204819Y-144059523D02*
X101204819Y-143488095D01*
X101204819Y-143773809D02*
X100204819Y-143773809D01*
X100204819Y-143773809D02*
X100347676Y-143678571D01*
X100347676Y-143678571D02*
X100442914Y-143583333D01*
X100442914Y-143583333D02*
X100490533Y-143488095D01*
X100204819Y-144678571D02*
X100204819Y-144773809D01*
X100204819Y-144773809D02*
X100252438Y-144869047D01*
X100252438Y-144869047D02*
X100300057Y-144916666D01*
X100300057Y-144916666D02*
X100395295Y-144964285D01*
X100395295Y-144964285D02*
X100585771Y-145011904D01*
X100585771Y-145011904D02*
X100823866Y-145011904D01*
X100823866Y-145011904D02*
X101014342Y-144964285D01*
X101014342Y-144964285D02*
X101109580Y-144916666D01*
X101109580Y-144916666D02*
X101157200Y-144869047D01*
X101157200Y-144869047D02*
X101204819Y-144773809D01*
X101204819Y-144773809D02*
X101204819Y-144678571D01*
X101204819Y-144678571D02*
X101157200Y-144583333D01*
X101157200Y-144583333D02*
X101109580Y-144535714D01*
X101109580Y-144535714D02*
X101014342Y-144488095D01*
X101014342Y-144488095D02*
X100823866Y-144440476D01*
X100823866Y-144440476D02*
X100585771Y-144440476D01*
X100585771Y-144440476D02*
X100395295Y-144488095D01*
X100395295Y-144488095D02*
X100300057Y-144535714D01*
X100300057Y-144535714D02*
X100252438Y-144583333D01*
X100252438Y-144583333D02*
X100204819Y-144678571D01*
X60109523Y-96224819D02*
X60109523Y-96939104D01*
X60109523Y-96939104D02*
X60157142Y-97081961D01*
X60157142Y-97081961D02*
X60252380Y-97177200D01*
X60252380Y-97177200D02*
X60395237Y-97224819D01*
X60395237Y-97224819D02*
X60490475Y-97224819D01*
X59109523Y-97224819D02*
X59680951Y-97224819D01*
X59395237Y-97224819D02*
X59395237Y-96224819D01*
X59395237Y-96224819D02*
X59490475Y-96367676D01*
X59490475Y-96367676D02*
X59585713Y-96462914D01*
X59585713Y-96462914D02*
X59680951Y-96510533D01*
X58252380Y-96558152D02*
X58252380Y-97224819D01*
X58490475Y-96177200D02*
X58728570Y-96891485D01*
X58728570Y-96891485D02*
X58109523Y-96891485D01*
X93961904Y-87956819D02*
X93390476Y-87956819D01*
X93676190Y-88956819D02*
X93676190Y-87956819D01*
X93057142Y-88956819D02*
X93057142Y-87956819D01*
X93057142Y-87956819D02*
X92676190Y-87956819D01*
X92676190Y-87956819D02*
X92580952Y-88004438D01*
X92580952Y-88004438D02*
X92533333Y-88052057D01*
X92533333Y-88052057D02*
X92485714Y-88147295D01*
X92485714Y-88147295D02*
X92485714Y-88290152D01*
X92485714Y-88290152D02*
X92533333Y-88385390D01*
X92533333Y-88385390D02*
X92580952Y-88433009D01*
X92580952Y-88433009D02*
X92676190Y-88480628D01*
X92676190Y-88480628D02*
X93057142Y-88480628D01*
X91533333Y-88956819D02*
X92104761Y-88956819D01*
X91819047Y-88956819D02*
X91819047Y-87956819D01*
X91819047Y-87956819D02*
X91914285Y-88099676D01*
X91914285Y-88099676D02*
X92009523Y-88194914D01*
X92009523Y-88194914D02*
X92104761Y-88242533D01*
X61054819Y-39123809D02*
X61007200Y-39028571D01*
X61007200Y-39028571D02*
X60911961Y-38980952D01*
X60911961Y-38980952D02*
X60054819Y-38980952D01*
X60388152Y-39409524D02*
X61054819Y-39647619D01*
X61054819Y-39647619D02*
X60388152Y-39885714D01*
X61054819Y-40409524D02*
X61007200Y-40314286D01*
X61007200Y-40314286D02*
X60911961Y-40266667D01*
X60911961Y-40266667D02*
X60054819Y-40266667D01*
X61150057Y-40552382D02*
X61150057Y-41314286D01*
X60054819Y-41409525D02*
X60054819Y-41980953D01*
X61054819Y-41695239D02*
X60054819Y-41695239D01*
X61054819Y-42314287D02*
X60388152Y-42314287D01*
X60578628Y-42314287D02*
X60483390Y-42361906D01*
X60483390Y-42361906D02*
X60435771Y-42409525D01*
X60435771Y-42409525D02*
X60388152Y-42504763D01*
X60388152Y-42504763D02*
X60388152Y-42600001D01*
X61054819Y-42933335D02*
X60388152Y-42933335D01*
X60054819Y-42933335D02*
X60102438Y-42885716D01*
X60102438Y-42885716D02*
X60150057Y-42933335D01*
X60150057Y-42933335D02*
X60102438Y-42980954D01*
X60102438Y-42980954D02*
X60054819Y-42933335D01*
X60054819Y-42933335D02*
X60150057Y-42933335D01*
X61054819Y-43409525D02*
X60388152Y-43409525D01*
X60483390Y-43409525D02*
X60435771Y-43457144D01*
X60435771Y-43457144D02*
X60388152Y-43552382D01*
X60388152Y-43552382D02*
X60388152Y-43695239D01*
X60388152Y-43695239D02*
X60435771Y-43790477D01*
X60435771Y-43790477D02*
X60531009Y-43838096D01*
X60531009Y-43838096D02*
X61054819Y-43838096D01*
X60531009Y-43838096D02*
X60435771Y-43885715D01*
X60435771Y-43885715D02*
X60388152Y-43980953D01*
X60388152Y-43980953D02*
X60388152Y-44123810D01*
X60388152Y-44123810D02*
X60435771Y-44219049D01*
X60435771Y-44219049D02*
X60531009Y-44266668D01*
X60531009Y-44266668D02*
X61054819Y-44266668D01*
X60150057Y-44695239D02*
X60102438Y-44742858D01*
X60102438Y-44742858D02*
X60054819Y-44838096D01*
X60054819Y-44838096D02*
X60054819Y-45076191D01*
X60054819Y-45076191D02*
X60102438Y-45171429D01*
X60102438Y-45171429D02*
X60150057Y-45219048D01*
X60150057Y-45219048D02*
X60245295Y-45266667D01*
X60245295Y-45266667D02*
X60340533Y-45266667D01*
X60340533Y-45266667D02*
X60483390Y-45219048D01*
X60483390Y-45219048D02*
X61054819Y-44647620D01*
X61054819Y-44647620D02*
X61054819Y-45266667D01*
X89861904Y-87956819D02*
X89290476Y-87956819D01*
X89576190Y-88956819D02*
X89576190Y-87956819D01*
X88957142Y-88956819D02*
X88957142Y-87956819D01*
X88957142Y-87956819D02*
X88576190Y-87956819D01*
X88576190Y-87956819D02*
X88480952Y-88004438D01*
X88480952Y-88004438D02*
X88433333Y-88052057D01*
X88433333Y-88052057D02*
X88385714Y-88147295D01*
X88385714Y-88147295D02*
X88385714Y-88290152D01*
X88385714Y-88290152D02*
X88433333Y-88385390D01*
X88433333Y-88385390D02*
X88480952Y-88433009D01*
X88480952Y-88433009D02*
X88576190Y-88480628D01*
X88576190Y-88480628D02*
X88957142Y-88480628D01*
X88004761Y-88052057D02*
X87957142Y-88004438D01*
X87957142Y-88004438D02*
X87861904Y-87956819D01*
X87861904Y-87956819D02*
X87623809Y-87956819D01*
X87623809Y-87956819D02*
X87528571Y-88004438D01*
X87528571Y-88004438D02*
X87480952Y-88052057D01*
X87480952Y-88052057D02*
X87433333Y-88147295D01*
X87433333Y-88147295D02*
X87433333Y-88242533D01*
X87433333Y-88242533D02*
X87480952Y-88385390D01*
X87480952Y-88385390D02*
X88052380Y-88956819D01*
X88052380Y-88956819D02*
X87433333Y-88956819D01*
X86976190Y-82374819D02*
X87071428Y-82327200D01*
X87071428Y-82327200D02*
X87119047Y-82231961D01*
X87119047Y-82231961D02*
X87119047Y-81374819D01*
X86690475Y-81708152D02*
X86452380Y-82374819D01*
X86452380Y-82374819D02*
X86214285Y-81708152D01*
X85690475Y-82374819D02*
X85785713Y-82327200D01*
X85785713Y-82327200D02*
X85833332Y-82231961D01*
X85833332Y-82231961D02*
X85833332Y-81374819D01*
X85547618Y-82470057D02*
X84785713Y-82470057D01*
X84690474Y-81374819D02*
X84119046Y-81374819D01*
X84404760Y-82374819D02*
X84404760Y-81374819D01*
X83785712Y-82374819D02*
X83785712Y-81708152D01*
X83785712Y-81898628D02*
X83738093Y-81803390D01*
X83738093Y-81803390D02*
X83690474Y-81755771D01*
X83690474Y-81755771D02*
X83595236Y-81708152D01*
X83595236Y-81708152D02*
X83499998Y-81708152D01*
X83166664Y-82374819D02*
X83166664Y-81708152D01*
X83166664Y-81374819D02*
X83214283Y-81422438D01*
X83214283Y-81422438D02*
X83166664Y-81470057D01*
X83166664Y-81470057D02*
X83119045Y-81422438D01*
X83119045Y-81422438D02*
X83166664Y-81374819D01*
X83166664Y-81374819D02*
X83166664Y-81470057D01*
X82690474Y-82374819D02*
X82690474Y-81708152D01*
X82690474Y-81803390D02*
X82642855Y-81755771D01*
X82642855Y-81755771D02*
X82547617Y-81708152D01*
X82547617Y-81708152D02*
X82404760Y-81708152D01*
X82404760Y-81708152D02*
X82309522Y-81755771D01*
X82309522Y-81755771D02*
X82261903Y-81851009D01*
X82261903Y-81851009D02*
X82261903Y-82374819D01*
X82261903Y-81851009D02*
X82214284Y-81755771D01*
X82214284Y-81755771D02*
X82119046Y-81708152D01*
X82119046Y-81708152D02*
X81976189Y-81708152D01*
X81976189Y-81708152D02*
X81880950Y-81755771D01*
X81880950Y-81755771D02*
X81833331Y-81851009D01*
X81833331Y-81851009D02*
X81833331Y-82374819D01*
X80833332Y-82374819D02*
X81404760Y-82374819D01*
X81119046Y-82374819D02*
X81119046Y-81374819D01*
X81119046Y-81374819D02*
X81214284Y-81517676D01*
X81214284Y-81517676D02*
X81309522Y-81612914D01*
X81309522Y-81612914D02*
X81404760Y-81660533D01*
X85204761Y-39407200D02*
X85061904Y-39454819D01*
X85061904Y-39454819D02*
X84823809Y-39454819D01*
X84823809Y-39454819D02*
X84728571Y-39407200D01*
X84728571Y-39407200D02*
X84680952Y-39359580D01*
X84680952Y-39359580D02*
X84633333Y-39264342D01*
X84633333Y-39264342D02*
X84633333Y-39169104D01*
X84633333Y-39169104D02*
X84680952Y-39073866D01*
X84680952Y-39073866D02*
X84728571Y-39026247D01*
X84728571Y-39026247D02*
X84823809Y-38978628D01*
X84823809Y-38978628D02*
X85014285Y-38931009D01*
X85014285Y-38931009D02*
X85109523Y-38883390D01*
X85109523Y-38883390D02*
X85157142Y-38835771D01*
X85157142Y-38835771D02*
X85204761Y-38740533D01*
X85204761Y-38740533D02*
X85204761Y-38645295D01*
X85204761Y-38645295D02*
X85157142Y-38550057D01*
X85157142Y-38550057D02*
X85109523Y-38502438D01*
X85109523Y-38502438D02*
X85014285Y-38454819D01*
X85014285Y-38454819D02*
X84776190Y-38454819D01*
X84776190Y-38454819D02*
X84633333Y-38502438D01*
X84204761Y-39454819D02*
X84204761Y-38788152D01*
X84204761Y-38454819D02*
X84252380Y-38502438D01*
X84252380Y-38502438D02*
X84204761Y-38550057D01*
X84204761Y-38550057D02*
X84157142Y-38502438D01*
X84157142Y-38502438D02*
X84204761Y-38454819D01*
X84204761Y-38454819D02*
X84204761Y-38550057D01*
X83728571Y-38788152D02*
X83728571Y-39454819D01*
X83728571Y-38883390D02*
X83680952Y-38835771D01*
X83680952Y-38835771D02*
X83585714Y-38788152D01*
X83585714Y-38788152D02*
X83442857Y-38788152D01*
X83442857Y-38788152D02*
X83347619Y-38835771D01*
X83347619Y-38835771D02*
X83300000Y-38931009D01*
X83300000Y-38931009D02*
X83300000Y-39454819D01*
X82442857Y-39407200D02*
X82538095Y-39454819D01*
X82538095Y-39454819D02*
X82728571Y-39454819D01*
X82728571Y-39454819D02*
X82823809Y-39407200D01*
X82823809Y-39407200D02*
X82871428Y-39311961D01*
X82871428Y-39311961D02*
X82871428Y-38931009D01*
X82871428Y-38931009D02*
X82823809Y-38835771D01*
X82823809Y-38835771D02*
X82728571Y-38788152D01*
X82728571Y-38788152D02*
X82538095Y-38788152D01*
X82538095Y-38788152D02*
X82442857Y-38835771D01*
X82442857Y-38835771D02*
X82395238Y-38931009D01*
X82395238Y-38931009D02*
X82395238Y-39026247D01*
X82395238Y-39026247D02*
X82871428Y-39121485D01*
X82204762Y-39550057D02*
X81442857Y-39550057D01*
X81252380Y-39407200D02*
X81109523Y-39454819D01*
X81109523Y-39454819D02*
X80871428Y-39454819D01*
X80871428Y-39454819D02*
X80776190Y-39407200D01*
X80776190Y-39407200D02*
X80728571Y-39359580D01*
X80728571Y-39359580D02*
X80680952Y-39264342D01*
X80680952Y-39264342D02*
X80680952Y-39169104D01*
X80680952Y-39169104D02*
X80728571Y-39073866D01*
X80728571Y-39073866D02*
X80776190Y-39026247D01*
X80776190Y-39026247D02*
X80871428Y-38978628D01*
X80871428Y-38978628D02*
X81061904Y-38931009D01*
X81061904Y-38931009D02*
X81157142Y-38883390D01*
X81157142Y-38883390D02*
X81204761Y-38835771D01*
X81204761Y-38835771D02*
X81252380Y-38740533D01*
X81252380Y-38740533D02*
X81252380Y-38645295D01*
X81252380Y-38645295D02*
X81204761Y-38550057D01*
X81204761Y-38550057D02*
X81157142Y-38502438D01*
X81157142Y-38502438D02*
X81061904Y-38454819D01*
X81061904Y-38454819D02*
X80823809Y-38454819D01*
X80823809Y-38454819D02*
X80680952Y-38502438D01*
X80252380Y-39454819D02*
X80252380Y-38454819D01*
X79823809Y-39454819D02*
X79823809Y-38931009D01*
X79823809Y-38931009D02*
X79871428Y-38835771D01*
X79871428Y-38835771D02*
X79966666Y-38788152D01*
X79966666Y-38788152D02*
X80109523Y-38788152D01*
X80109523Y-38788152D02*
X80204761Y-38835771D01*
X80204761Y-38835771D02*
X80252380Y-38883390D01*
X78919047Y-39454819D02*
X78919047Y-38931009D01*
X78919047Y-38931009D02*
X78966666Y-38835771D01*
X78966666Y-38835771D02*
X79061904Y-38788152D01*
X79061904Y-38788152D02*
X79252380Y-38788152D01*
X79252380Y-38788152D02*
X79347618Y-38835771D01*
X78919047Y-39407200D02*
X79014285Y-39454819D01*
X79014285Y-39454819D02*
X79252380Y-39454819D01*
X79252380Y-39454819D02*
X79347618Y-39407200D01*
X79347618Y-39407200D02*
X79395237Y-39311961D01*
X79395237Y-39311961D02*
X79395237Y-39216723D01*
X79395237Y-39216723D02*
X79347618Y-39121485D01*
X79347618Y-39121485D02*
X79252380Y-39073866D01*
X79252380Y-39073866D02*
X79014285Y-39073866D01*
X79014285Y-39073866D02*
X78919047Y-39026247D01*
X78442856Y-38788152D02*
X78442856Y-39788152D01*
X78442856Y-38835771D02*
X78347618Y-38788152D01*
X78347618Y-38788152D02*
X78157142Y-38788152D01*
X78157142Y-38788152D02*
X78061904Y-38835771D01*
X78061904Y-38835771D02*
X78014285Y-38883390D01*
X78014285Y-38883390D02*
X77966666Y-38978628D01*
X77966666Y-38978628D02*
X77966666Y-39264342D01*
X77966666Y-39264342D02*
X78014285Y-39359580D01*
X78014285Y-39359580D02*
X78061904Y-39407200D01*
X78061904Y-39407200D02*
X78157142Y-39454819D01*
X78157142Y-39454819D02*
X78347618Y-39454819D01*
X78347618Y-39454819D02*
X78442856Y-39407200D01*
X77157142Y-39407200D02*
X77252380Y-39454819D01*
X77252380Y-39454819D02*
X77442856Y-39454819D01*
X77442856Y-39454819D02*
X77538094Y-39407200D01*
X77538094Y-39407200D02*
X77585713Y-39311961D01*
X77585713Y-39311961D02*
X77585713Y-38931009D01*
X77585713Y-38931009D02*
X77538094Y-38835771D01*
X77538094Y-38835771D02*
X77442856Y-38788152D01*
X77442856Y-38788152D02*
X77252380Y-38788152D01*
X77252380Y-38788152D02*
X77157142Y-38835771D01*
X77157142Y-38835771D02*
X77109523Y-38931009D01*
X77109523Y-38931009D02*
X77109523Y-39026247D01*
X77109523Y-39026247D02*
X77585713Y-39121485D01*
X76919047Y-39550057D02*
X76157142Y-39550057D01*
X76061903Y-38788152D02*
X75680951Y-38788152D01*
X75919046Y-38454819D02*
X75919046Y-39311961D01*
X75919046Y-39311961D02*
X75871427Y-39407200D01*
X75871427Y-39407200D02*
X75776189Y-39454819D01*
X75776189Y-39454819D02*
X75680951Y-39454819D01*
X75347617Y-39454819D02*
X75347617Y-38788152D01*
X75347617Y-38978628D02*
X75299998Y-38883390D01*
X75299998Y-38883390D02*
X75252379Y-38835771D01*
X75252379Y-38835771D02*
X75157141Y-38788152D01*
X75157141Y-38788152D02*
X75061903Y-38788152D01*
X74728569Y-39454819D02*
X74728569Y-38788152D01*
X74728569Y-38454819D02*
X74776188Y-38502438D01*
X74776188Y-38502438D02*
X74728569Y-38550057D01*
X74728569Y-38550057D02*
X74680950Y-38502438D01*
X74680950Y-38502438D02*
X74728569Y-38454819D01*
X74728569Y-38454819D02*
X74728569Y-38550057D01*
X74252379Y-39454819D02*
X74252379Y-38788152D01*
X74252379Y-38883390D02*
X74204760Y-38835771D01*
X74204760Y-38835771D02*
X74109522Y-38788152D01*
X74109522Y-38788152D02*
X73966665Y-38788152D01*
X73966665Y-38788152D02*
X73871427Y-38835771D01*
X73871427Y-38835771D02*
X73823808Y-38931009D01*
X73823808Y-38931009D02*
X73823808Y-39454819D01*
X73823808Y-38931009D02*
X73776189Y-38835771D01*
X73776189Y-38835771D02*
X73680951Y-38788152D01*
X73680951Y-38788152D02*
X73538094Y-38788152D01*
X73538094Y-38788152D02*
X73442855Y-38835771D01*
X73442855Y-38835771D02*
X73395236Y-38931009D01*
X73395236Y-38931009D02*
X73395236Y-39454819D01*
X72395237Y-39454819D02*
X72966665Y-39454819D01*
X72680951Y-39454819D02*
X72680951Y-38454819D01*
X72680951Y-38454819D02*
X72776189Y-38597676D01*
X72776189Y-38597676D02*
X72871427Y-38692914D01*
X72871427Y-38692914D02*
X72966665Y-38740533D01*
X92231009Y-139416666D02*
X92231009Y-139083333D01*
X92754819Y-139083333D02*
X91754819Y-139083333D01*
X91754819Y-139083333D02*
X91754819Y-139559523D01*
X92231009Y-140273809D02*
X92278628Y-140416666D01*
X92278628Y-140416666D02*
X92326247Y-140464285D01*
X92326247Y-140464285D02*
X92421485Y-140511904D01*
X92421485Y-140511904D02*
X92564342Y-140511904D01*
X92564342Y-140511904D02*
X92659580Y-140464285D01*
X92659580Y-140464285D02*
X92707200Y-140416666D01*
X92707200Y-140416666D02*
X92754819Y-140321428D01*
X92754819Y-140321428D02*
X92754819Y-139940476D01*
X92754819Y-139940476D02*
X91754819Y-139940476D01*
X91754819Y-139940476D02*
X91754819Y-140273809D01*
X91754819Y-140273809D02*
X91802438Y-140369047D01*
X91802438Y-140369047D02*
X91850057Y-140416666D01*
X91850057Y-140416666D02*
X91945295Y-140464285D01*
X91945295Y-140464285D02*
X92040533Y-140464285D01*
X92040533Y-140464285D02*
X92135771Y-140416666D01*
X92135771Y-140416666D02*
X92183390Y-140369047D01*
X92183390Y-140369047D02*
X92231009Y-140273809D01*
X92231009Y-140273809D02*
X92231009Y-139940476D01*
X92754819Y-141464285D02*
X92754819Y-140892857D01*
X92754819Y-141178571D02*
X91754819Y-141178571D01*
X91754819Y-141178571D02*
X91897676Y-141083333D01*
X91897676Y-141083333D02*
X91992914Y-140988095D01*
X91992914Y-140988095D02*
X92040533Y-140892857D01*
X66681009Y-139416666D02*
X66681009Y-139083333D01*
X67204819Y-139083333D02*
X66204819Y-139083333D01*
X66204819Y-139083333D02*
X66204819Y-139559523D01*
X66681009Y-140273809D02*
X66728628Y-140416666D01*
X66728628Y-140416666D02*
X66776247Y-140464285D01*
X66776247Y-140464285D02*
X66871485Y-140511904D01*
X66871485Y-140511904D02*
X67014342Y-140511904D01*
X67014342Y-140511904D02*
X67109580Y-140464285D01*
X67109580Y-140464285D02*
X67157200Y-140416666D01*
X67157200Y-140416666D02*
X67204819Y-140321428D01*
X67204819Y-140321428D02*
X67204819Y-139940476D01*
X67204819Y-139940476D02*
X66204819Y-139940476D01*
X66204819Y-139940476D02*
X66204819Y-140273809D01*
X66204819Y-140273809D02*
X66252438Y-140369047D01*
X66252438Y-140369047D02*
X66300057Y-140416666D01*
X66300057Y-140416666D02*
X66395295Y-140464285D01*
X66395295Y-140464285D02*
X66490533Y-140464285D01*
X66490533Y-140464285D02*
X66585771Y-140416666D01*
X66585771Y-140416666D02*
X66633390Y-140369047D01*
X66633390Y-140369047D02*
X66681009Y-140273809D01*
X66681009Y-140273809D02*
X66681009Y-139940476D01*
X66300057Y-140892857D02*
X66252438Y-140940476D01*
X66252438Y-140940476D02*
X66204819Y-141035714D01*
X66204819Y-141035714D02*
X66204819Y-141273809D01*
X66204819Y-141273809D02*
X66252438Y-141369047D01*
X66252438Y-141369047D02*
X66300057Y-141416666D01*
X66300057Y-141416666D02*
X66395295Y-141464285D01*
X66395295Y-141464285D02*
X66490533Y-141464285D01*
X66490533Y-141464285D02*
X66633390Y-141416666D01*
X66633390Y-141416666D02*
X67204819Y-140845238D01*
X67204819Y-140845238D02*
X67204819Y-141464285D01*
X98607200Y-36761905D02*
X98654819Y-36904762D01*
X98654819Y-36904762D02*
X98654819Y-37142857D01*
X98654819Y-37142857D02*
X98607200Y-37238095D01*
X98607200Y-37238095D02*
X98559580Y-37285714D01*
X98559580Y-37285714D02*
X98464342Y-37333333D01*
X98464342Y-37333333D02*
X98369104Y-37333333D01*
X98369104Y-37333333D02*
X98273866Y-37285714D01*
X98273866Y-37285714D02*
X98226247Y-37238095D01*
X98226247Y-37238095D02*
X98178628Y-37142857D01*
X98178628Y-37142857D02*
X98131009Y-36952381D01*
X98131009Y-36952381D02*
X98083390Y-36857143D01*
X98083390Y-36857143D02*
X98035771Y-36809524D01*
X98035771Y-36809524D02*
X97940533Y-36761905D01*
X97940533Y-36761905D02*
X97845295Y-36761905D01*
X97845295Y-36761905D02*
X97750057Y-36809524D01*
X97750057Y-36809524D02*
X97702438Y-36857143D01*
X97702438Y-36857143D02*
X97654819Y-36952381D01*
X97654819Y-36952381D02*
X97654819Y-37190476D01*
X97654819Y-37190476D02*
X97702438Y-37333333D01*
X98654819Y-37761905D02*
X97988152Y-37761905D01*
X97654819Y-37761905D02*
X97702438Y-37714286D01*
X97702438Y-37714286D02*
X97750057Y-37761905D01*
X97750057Y-37761905D02*
X97702438Y-37809524D01*
X97702438Y-37809524D02*
X97654819Y-37761905D01*
X97654819Y-37761905D02*
X97750057Y-37761905D01*
X97988152Y-38238095D02*
X98654819Y-38238095D01*
X98083390Y-38238095D02*
X98035771Y-38285714D01*
X98035771Y-38285714D02*
X97988152Y-38380952D01*
X97988152Y-38380952D02*
X97988152Y-38523809D01*
X97988152Y-38523809D02*
X98035771Y-38619047D01*
X98035771Y-38619047D02*
X98131009Y-38666666D01*
X98131009Y-38666666D02*
X98654819Y-38666666D01*
X98607200Y-39523809D02*
X98654819Y-39428571D01*
X98654819Y-39428571D02*
X98654819Y-39238095D01*
X98654819Y-39238095D02*
X98607200Y-39142857D01*
X98607200Y-39142857D02*
X98511961Y-39095238D01*
X98511961Y-39095238D02*
X98131009Y-39095238D01*
X98131009Y-39095238D02*
X98035771Y-39142857D01*
X98035771Y-39142857D02*
X97988152Y-39238095D01*
X97988152Y-39238095D02*
X97988152Y-39428571D01*
X97988152Y-39428571D02*
X98035771Y-39523809D01*
X98035771Y-39523809D02*
X98131009Y-39571428D01*
X98131009Y-39571428D02*
X98226247Y-39571428D01*
X98226247Y-39571428D02*
X98321485Y-39095238D01*
X98750057Y-39761905D02*
X98750057Y-40523809D01*
X98131009Y-41095238D02*
X98178628Y-41238095D01*
X98178628Y-41238095D02*
X98226247Y-41285714D01*
X98226247Y-41285714D02*
X98321485Y-41333333D01*
X98321485Y-41333333D02*
X98464342Y-41333333D01*
X98464342Y-41333333D02*
X98559580Y-41285714D01*
X98559580Y-41285714D02*
X98607200Y-41238095D01*
X98607200Y-41238095D02*
X98654819Y-41142857D01*
X98654819Y-41142857D02*
X98654819Y-40761905D01*
X98654819Y-40761905D02*
X97654819Y-40761905D01*
X97654819Y-40761905D02*
X97654819Y-41095238D01*
X97654819Y-41095238D02*
X97702438Y-41190476D01*
X97702438Y-41190476D02*
X97750057Y-41238095D01*
X97750057Y-41238095D02*
X97845295Y-41285714D01*
X97845295Y-41285714D02*
X97940533Y-41285714D01*
X97940533Y-41285714D02*
X98035771Y-41238095D01*
X98035771Y-41238095D02*
X98083390Y-41190476D01*
X98083390Y-41190476D02*
X98131009Y-41095238D01*
X98131009Y-41095238D02*
X98131009Y-40761905D01*
X98654819Y-41761905D02*
X97988152Y-41761905D01*
X97654819Y-41761905D02*
X97702438Y-41714286D01*
X97702438Y-41714286D02*
X97750057Y-41761905D01*
X97750057Y-41761905D02*
X97702438Y-41809524D01*
X97702438Y-41809524D02*
X97654819Y-41761905D01*
X97654819Y-41761905D02*
X97750057Y-41761905D01*
X98654819Y-42666666D02*
X98131009Y-42666666D01*
X98131009Y-42666666D02*
X98035771Y-42619047D01*
X98035771Y-42619047D02*
X97988152Y-42523809D01*
X97988152Y-42523809D02*
X97988152Y-42333333D01*
X97988152Y-42333333D02*
X98035771Y-42238095D01*
X98607200Y-42666666D02*
X98654819Y-42571428D01*
X98654819Y-42571428D02*
X98654819Y-42333333D01*
X98654819Y-42333333D02*
X98607200Y-42238095D01*
X98607200Y-42238095D02*
X98511961Y-42190476D01*
X98511961Y-42190476D02*
X98416723Y-42190476D01*
X98416723Y-42190476D02*
X98321485Y-42238095D01*
X98321485Y-42238095D02*
X98273866Y-42333333D01*
X98273866Y-42333333D02*
X98273866Y-42571428D01*
X98273866Y-42571428D02*
X98226247Y-42666666D01*
X98607200Y-43095238D02*
X98654819Y-43190476D01*
X98654819Y-43190476D02*
X98654819Y-43380952D01*
X98654819Y-43380952D02*
X98607200Y-43476190D01*
X98607200Y-43476190D02*
X98511961Y-43523809D01*
X98511961Y-43523809D02*
X98464342Y-43523809D01*
X98464342Y-43523809D02*
X98369104Y-43476190D01*
X98369104Y-43476190D02*
X98321485Y-43380952D01*
X98321485Y-43380952D02*
X98321485Y-43238095D01*
X98321485Y-43238095D02*
X98273866Y-43142857D01*
X98273866Y-43142857D02*
X98178628Y-43095238D01*
X98178628Y-43095238D02*
X98131009Y-43095238D01*
X98131009Y-43095238D02*
X98035771Y-43142857D01*
X98035771Y-43142857D02*
X97988152Y-43238095D01*
X97988152Y-43238095D02*
X97988152Y-43380952D01*
X97988152Y-43380952D02*
X98035771Y-43476190D01*
X98750057Y-43714286D02*
X98750057Y-44476190D01*
X97988152Y-44571429D02*
X97988152Y-44952381D01*
X97654819Y-44714286D02*
X98511961Y-44714286D01*
X98511961Y-44714286D02*
X98607200Y-44761905D01*
X98607200Y-44761905D02*
X98654819Y-44857143D01*
X98654819Y-44857143D02*
X98654819Y-44952381D01*
X98654819Y-45285715D02*
X97988152Y-45285715D01*
X98178628Y-45285715D02*
X98083390Y-45333334D01*
X98083390Y-45333334D02*
X98035771Y-45380953D01*
X98035771Y-45380953D02*
X97988152Y-45476191D01*
X97988152Y-45476191D02*
X97988152Y-45571429D01*
X98654819Y-45904763D02*
X97988152Y-45904763D01*
X97654819Y-45904763D02*
X97702438Y-45857144D01*
X97702438Y-45857144D02*
X97750057Y-45904763D01*
X97750057Y-45904763D02*
X97702438Y-45952382D01*
X97702438Y-45952382D02*
X97654819Y-45904763D01*
X97654819Y-45904763D02*
X97750057Y-45904763D01*
X98654819Y-46380953D02*
X97988152Y-46380953D01*
X98083390Y-46380953D02*
X98035771Y-46428572D01*
X98035771Y-46428572D02*
X97988152Y-46523810D01*
X97988152Y-46523810D02*
X97988152Y-46666667D01*
X97988152Y-46666667D02*
X98035771Y-46761905D01*
X98035771Y-46761905D02*
X98131009Y-46809524D01*
X98131009Y-46809524D02*
X98654819Y-46809524D01*
X98131009Y-46809524D02*
X98035771Y-46857143D01*
X98035771Y-46857143D02*
X97988152Y-46952381D01*
X97988152Y-46952381D02*
X97988152Y-47095238D01*
X97988152Y-47095238D02*
X98035771Y-47190477D01*
X98035771Y-47190477D02*
X98131009Y-47238096D01*
X98131009Y-47238096D02*
X98654819Y-47238096D01*
X98654819Y-48238095D02*
X98654819Y-47666667D01*
X98654819Y-47952381D02*
X97654819Y-47952381D01*
X97654819Y-47952381D02*
X97797676Y-47857143D01*
X97797676Y-47857143D02*
X97892914Y-47761905D01*
X97892914Y-47761905D02*
X97940533Y-47666667D01*
D10*
X60275000Y-140495225D02*
X60275000Y-140995225D01*
X60025000Y-140745225D02*
X60525000Y-140745225D01*
X62790000Y-143300000D02*
X64330000Y-143300000D01*
X59170000Y-143300000D02*
X60710000Y-143300000D01*
X62790000Y-143340000D02*
X64330000Y-143340000D01*
X59170000Y-143340000D02*
X60710000Y-143340000D01*
X62790000Y-143380000D02*
X64329000Y-143380000D01*
X59171000Y-143380000D02*
X60710000Y-143380000D01*
X62790000Y-143420000D02*
X64328000Y-143420000D01*
X59172000Y-143420000D02*
X60710000Y-143420000D01*
X62790000Y-143460000D02*
X64326000Y-143460000D01*
X59174000Y-143460000D02*
X60710000Y-143460000D01*
X62790000Y-143500000D02*
X64323000Y-143500000D01*
X59177000Y-143500000D02*
X60710000Y-143500000D01*
X62790000Y-143540000D02*
X64319000Y-143540000D01*
X59181000Y-143540000D02*
X60710000Y-143540000D01*
X62790000Y-143580000D02*
X64315000Y-143580000D01*
X59185000Y-143580000D02*
X60710000Y-143580000D01*
X62790000Y-143620000D02*
X64311000Y-143620000D01*
X59189000Y-143620000D02*
X60710000Y-143620000D01*
X62790000Y-143660000D02*
X64306000Y-143660000D01*
X59194000Y-143660000D02*
X60710000Y-143660000D01*
X62790000Y-143700000D02*
X64300000Y-143700000D01*
X59200000Y-143700000D02*
X60710000Y-143700000D01*
X62790000Y-143740000D02*
X64293000Y-143740000D01*
X59207000Y-143740000D02*
X60710000Y-143740000D01*
X62790000Y-143780000D02*
X64286000Y-143780000D01*
X59214000Y-143780000D02*
X60710000Y-143780000D01*
X62790000Y-143820000D02*
X64278000Y-143820000D01*
X59222000Y-143820000D02*
X60710000Y-143820000D01*
X62790000Y-143860000D02*
X64270000Y-143860000D01*
X59230000Y-143860000D02*
X60710000Y-143860000D01*
X62790000Y-143900000D02*
X64261000Y-143900000D01*
X59239000Y-143900000D02*
X60710000Y-143900000D01*
X62790000Y-143940000D02*
X64251000Y-143940000D01*
X59249000Y-143940000D02*
X60710000Y-143940000D01*
X62790000Y-143980000D02*
X64241000Y-143980000D01*
X59259000Y-143980000D02*
X60710000Y-143980000D01*
X62790000Y-144021000D02*
X64230000Y-144021000D01*
X59270000Y-144021000D02*
X60710000Y-144021000D01*
X62790000Y-144061000D02*
X64218000Y-144061000D01*
X59282000Y-144061000D02*
X60710000Y-144061000D01*
X62790000Y-144101000D02*
X64205000Y-144101000D01*
X59295000Y-144101000D02*
X60710000Y-144101000D01*
X62790000Y-144141000D02*
X64192000Y-144141000D01*
X59308000Y-144141000D02*
X60710000Y-144141000D01*
X62790000Y-144181000D02*
X64178000Y-144181000D01*
X59322000Y-144181000D02*
X60710000Y-144181000D01*
X62790000Y-144221000D02*
X64164000Y-144221000D01*
X59336000Y-144221000D02*
X60710000Y-144221000D01*
X62790000Y-144261000D02*
X64148000Y-144261000D01*
X59352000Y-144261000D02*
X60710000Y-144261000D01*
X62790000Y-144301000D02*
X64132000Y-144301000D01*
X59368000Y-144301000D02*
X60710000Y-144301000D01*
X62790000Y-144341000D02*
X64115000Y-144341000D01*
X59385000Y-144341000D02*
X60710000Y-144341000D01*
X62790000Y-144381000D02*
X64098000Y-144381000D01*
X59402000Y-144381000D02*
X60710000Y-144381000D01*
X62790000Y-144421000D02*
X64079000Y-144421000D01*
X59421000Y-144421000D02*
X60710000Y-144421000D01*
X62790000Y-144461000D02*
X64060000Y-144461000D01*
X59440000Y-144461000D02*
X60710000Y-144461000D01*
X62790000Y-144501000D02*
X64040000Y-144501000D01*
X59460000Y-144501000D02*
X60710000Y-144501000D01*
X62790000Y-144541000D02*
X64018000Y-144541000D01*
X59482000Y-144541000D02*
X60710000Y-144541000D01*
X62790000Y-144581000D02*
X63997000Y-144581000D01*
X59503000Y-144581000D02*
X60710000Y-144581000D01*
X62790000Y-144621000D02*
X63974000Y-144621000D01*
X59526000Y-144621000D02*
X60710000Y-144621000D01*
X62790000Y-144661000D02*
X63950000Y-144661000D01*
X59550000Y-144661000D02*
X60710000Y-144661000D01*
X62790000Y-144701000D02*
X63925000Y-144701000D01*
X59575000Y-144701000D02*
X60710000Y-144701000D01*
X62790000Y-144741000D02*
X63899000Y-144741000D01*
X59601000Y-144741000D02*
X60710000Y-144741000D01*
X62790000Y-144781000D02*
X63872000Y-144781000D01*
X59628000Y-144781000D02*
X60710000Y-144781000D01*
X62790000Y-144821000D02*
X63845000Y-144821000D01*
X59655000Y-144821000D02*
X60710000Y-144821000D01*
X62790000Y-144861000D02*
X63815000Y-144861000D01*
X59685000Y-144861000D02*
X60710000Y-144861000D01*
X62790000Y-144901000D02*
X63785000Y-144901000D01*
X59715000Y-144901000D02*
X60710000Y-144901000D01*
X62790000Y-144941000D02*
X63754000Y-144941000D01*
X59746000Y-144941000D02*
X60710000Y-144941000D01*
X62790000Y-144981000D02*
X63721000Y-144981000D01*
X59779000Y-144981000D02*
X60710000Y-144981000D01*
X62790000Y-145021000D02*
X63687000Y-145021000D01*
X59813000Y-145021000D02*
X60710000Y-145021000D01*
X62790000Y-145061000D02*
X63651000Y-145061000D01*
X59849000Y-145061000D02*
X60710000Y-145061000D01*
X62790000Y-145101000D02*
X63614000Y-145101000D01*
X59886000Y-145101000D02*
X60710000Y-145101000D01*
X62790000Y-145141000D02*
X63576000Y-145141000D01*
X59924000Y-145141000D02*
X60710000Y-145141000D01*
X62790000Y-145181000D02*
X63535000Y-145181000D01*
X59965000Y-145181000D02*
X60710000Y-145181000D01*
X62790000Y-145221000D02*
X63493000Y-145221000D01*
X60007000Y-145221000D02*
X60710000Y-145221000D01*
X62790000Y-145261000D02*
X63449000Y-145261000D01*
X60051000Y-145261000D02*
X60710000Y-145261000D01*
X62790000Y-145301000D02*
X63403000Y-145301000D01*
X60097000Y-145301000D02*
X60710000Y-145301000D01*
X60145000Y-145341000D02*
X63355000Y-145341000D01*
X60196000Y-145381000D02*
X63304000Y-145381000D01*
X60250000Y-145421000D02*
X63250000Y-145421000D01*
X60307000Y-145461000D02*
X63193000Y-145461000D01*
X60367000Y-145501000D02*
X63133000Y-145501000D01*
X60431000Y-145541000D02*
X63069000Y-145541000D01*
X60499000Y-145581000D02*
X63001000Y-145581000D01*
X60572000Y-145621000D02*
X62928000Y-145621000D01*
X60652000Y-145661000D02*
X62848000Y-145661000D01*
X60739000Y-145701000D02*
X62761000Y-145701000D01*
X60835000Y-145741000D02*
X62665000Y-145741000D01*
X60945000Y-145781000D02*
X62555000Y-145781000D01*
X61073000Y-145821000D02*
X62427000Y-145821000D01*
X61232000Y-145861000D02*
X62268000Y-145861000D01*
X61466000Y-145901000D02*
X62034000Y-145901000D01*
X64370000Y-143300000D02*
G75*
G03*
X64370000Y-143300000I-2620000J0D01*
G01*
X79700000Y-54000000D02*
G75*
G03*
X79700000Y-54000000I-1700000J0D01*
G01*
X74920000Y-135570000D02*
X74420000Y-136570000D01*
X73920000Y-135570000D02*
X74920000Y-135570000D01*
X74420000Y-136570000D02*
X73920000Y-135570000D01*
X89790000Y-136960000D02*
X69210000Y-136960000D01*
X77450000Y-136960000D02*
X77450000Y-138270000D01*
X69210000Y-136960000D02*
X69210000Y-146080000D01*
X88490000Y-138270000D02*
X81550000Y-138270000D01*
X81550000Y-138270000D02*
X81550000Y-136960000D01*
X81550000Y-138270000D02*
X81550000Y-138270000D01*
X77450000Y-138270000D02*
X70510000Y-138270000D01*
X70510000Y-138270000D02*
X70510000Y-144770000D01*
X88490000Y-144770000D02*
X88490000Y-138270000D01*
X70510000Y-144770000D02*
X88490000Y-144770000D01*
X89790000Y-146080000D02*
X89790000Y-136960000D01*
X69210000Y-146080000D02*
X89790000Y-146080000D01*
X92265000Y-36855000D02*
X97335000Y-36855000D01*
X92265000Y-46625000D02*
X92265000Y-36855000D01*
X92265000Y-46625000D02*
X97335000Y-46625000D01*
X97335000Y-46625000D02*
X97335000Y-36855000D01*
X98725000Y-146304775D02*
X98725000Y-145804775D01*
X98975000Y-146054775D02*
X98475000Y-146054775D01*
X96210000Y-143500000D02*
X94670000Y-143500000D01*
X99830000Y-143500000D02*
X98290000Y-143500000D01*
X96210000Y-143460000D02*
X94670000Y-143460000D01*
X99830000Y-143460000D02*
X98290000Y-143460000D01*
X96210000Y-143420000D02*
X94671000Y-143420000D01*
X99829000Y-143420000D02*
X98290000Y-143420000D01*
X96210000Y-143380000D02*
X94672000Y-143380000D01*
X99828000Y-143380000D02*
X98290000Y-143380000D01*
X96210000Y-143340000D02*
X94674000Y-143340000D01*
X99826000Y-143340000D02*
X98290000Y-143340000D01*
X96210000Y-143300000D02*
X94677000Y-143300000D01*
X99823000Y-143300000D02*
X98290000Y-143300000D01*
X96210000Y-143260000D02*
X94681000Y-143260000D01*
X99819000Y-143260000D02*
X98290000Y-143260000D01*
X96210000Y-143220000D02*
X94685000Y-143220000D01*
X99815000Y-143220000D02*
X98290000Y-143220000D01*
X96210000Y-143180000D02*
X94689000Y-143180000D01*
X99811000Y-143180000D02*
X98290000Y-143180000D01*
X96210000Y-143140000D02*
X94694000Y-143140000D01*
X99806000Y-143140000D02*
X98290000Y-143140000D01*
X96210000Y-143100000D02*
X94700000Y-143100000D01*
X99800000Y-143100000D02*
X98290000Y-143100000D01*
X96210000Y-143060000D02*
X94707000Y-143060000D01*
X99793000Y-143060000D02*
X98290000Y-143060000D01*
X96210000Y-143020000D02*
X94714000Y-143020000D01*
X99786000Y-143020000D02*
X98290000Y-143020000D01*
X96210000Y-142980000D02*
X94722000Y-142980000D01*
X99778000Y-142980000D02*
X98290000Y-142980000D01*
X96210000Y-142940000D02*
X94730000Y-142940000D01*
X99770000Y-142940000D02*
X98290000Y-142940000D01*
X96210000Y-142900000D02*
X94739000Y-142900000D01*
X99761000Y-142900000D02*
X98290000Y-142900000D01*
X96210000Y-142860000D02*
X94749000Y-142860000D01*
X99751000Y-142860000D02*
X98290000Y-142860000D01*
X96210000Y-142820000D02*
X94759000Y-142820000D01*
X99741000Y-142820000D02*
X98290000Y-142820000D01*
X96210000Y-142779000D02*
X94770000Y-142779000D01*
X99730000Y-142779000D02*
X98290000Y-142779000D01*
X96210000Y-142739000D02*
X94782000Y-142739000D01*
X99718000Y-142739000D02*
X98290000Y-142739000D01*
X96210000Y-142699000D02*
X94795000Y-142699000D01*
X99705000Y-142699000D02*
X98290000Y-142699000D01*
X96210000Y-142659000D02*
X94808000Y-142659000D01*
X99692000Y-142659000D02*
X98290000Y-142659000D01*
X96210000Y-142619000D02*
X94822000Y-142619000D01*
X99678000Y-142619000D02*
X98290000Y-142619000D01*
X96210000Y-142579000D02*
X94836000Y-142579000D01*
X99664000Y-142579000D02*
X98290000Y-142579000D01*
X96210000Y-142539000D02*
X94852000Y-142539000D01*
X99648000Y-142539000D02*
X98290000Y-142539000D01*
X96210000Y-142499000D02*
X94868000Y-142499000D01*
X99632000Y-142499000D02*
X98290000Y-142499000D01*
X96210000Y-142459000D02*
X94885000Y-142459000D01*
X99615000Y-142459000D02*
X98290000Y-142459000D01*
X96210000Y-142419000D02*
X94902000Y-142419000D01*
X99598000Y-142419000D02*
X98290000Y-142419000D01*
X96210000Y-142379000D02*
X94921000Y-142379000D01*
X99579000Y-142379000D02*
X98290000Y-142379000D01*
X96210000Y-142339000D02*
X94940000Y-142339000D01*
X99560000Y-142339000D02*
X98290000Y-142339000D01*
X96210000Y-142299000D02*
X94960000Y-142299000D01*
X99540000Y-142299000D02*
X98290000Y-142299000D01*
X96210000Y-142259000D02*
X94982000Y-142259000D01*
X99518000Y-142259000D02*
X98290000Y-142259000D01*
X96210000Y-142219000D02*
X95003000Y-142219000D01*
X99497000Y-142219000D02*
X98290000Y-142219000D01*
X96210000Y-142179000D02*
X95026000Y-142179000D01*
X99474000Y-142179000D02*
X98290000Y-142179000D01*
X96210000Y-142139000D02*
X95050000Y-142139000D01*
X99450000Y-142139000D02*
X98290000Y-142139000D01*
X96210000Y-142099000D02*
X95075000Y-142099000D01*
X99425000Y-142099000D02*
X98290000Y-142099000D01*
X96210000Y-142059000D02*
X95101000Y-142059000D01*
X99399000Y-142059000D02*
X98290000Y-142059000D01*
X96210000Y-142019000D02*
X95128000Y-142019000D01*
X99372000Y-142019000D02*
X98290000Y-142019000D01*
X96210000Y-141979000D02*
X95155000Y-141979000D01*
X99345000Y-141979000D02*
X98290000Y-141979000D01*
X96210000Y-141939000D02*
X95185000Y-141939000D01*
X99315000Y-141939000D02*
X98290000Y-141939000D01*
X96210000Y-141899000D02*
X95215000Y-141899000D01*
X99285000Y-141899000D02*
X98290000Y-141899000D01*
X96210000Y-141859000D02*
X95246000Y-141859000D01*
X99254000Y-141859000D02*
X98290000Y-141859000D01*
X96210000Y-141819000D02*
X95279000Y-141819000D01*
X99221000Y-141819000D02*
X98290000Y-141819000D01*
X96210000Y-141779000D02*
X95313000Y-141779000D01*
X99187000Y-141779000D02*
X98290000Y-141779000D01*
X96210000Y-141739000D02*
X95349000Y-141739000D01*
X99151000Y-141739000D02*
X98290000Y-141739000D01*
X96210000Y-141699000D02*
X95386000Y-141699000D01*
X99114000Y-141699000D02*
X98290000Y-141699000D01*
X96210000Y-141659000D02*
X95424000Y-141659000D01*
X99076000Y-141659000D02*
X98290000Y-141659000D01*
X96210000Y-141619000D02*
X95465000Y-141619000D01*
X99035000Y-141619000D02*
X98290000Y-141619000D01*
X96210000Y-141579000D02*
X95507000Y-141579000D01*
X98993000Y-141579000D02*
X98290000Y-141579000D01*
X96210000Y-141539000D02*
X95551000Y-141539000D01*
X98949000Y-141539000D02*
X98290000Y-141539000D01*
X96210000Y-141499000D02*
X95597000Y-141499000D01*
X98903000Y-141499000D02*
X98290000Y-141499000D01*
X98855000Y-141459000D02*
X95645000Y-141459000D01*
X98804000Y-141419000D02*
X95696000Y-141419000D01*
X98750000Y-141379000D02*
X95750000Y-141379000D01*
X98693000Y-141339000D02*
X95807000Y-141339000D01*
X98633000Y-141299000D02*
X95867000Y-141299000D01*
X98569000Y-141259000D02*
X95931000Y-141259000D01*
X98501000Y-141219000D02*
X95999000Y-141219000D01*
X98428000Y-141179000D02*
X96072000Y-141179000D01*
X98348000Y-141139000D02*
X96152000Y-141139000D01*
X98261000Y-141099000D02*
X96239000Y-141099000D01*
X98165000Y-141059000D02*
X96335000Y-141059000D01*
X98055000Y-141019000D02*
X96445000Y-141019000D01*
X97927000Y-140979000D02*
X96573000Y-140979000D01*
X97768000Y-140939000D02*
X96732000Y-140939000D01*
X97534000Y-140899000D02*
X96966000Y-140899000D01*
X99870000Y-143500000D02*
G75*
G03*
X99870000Y-143500000I-2620000J0D01*
G01*
X60630000Y-102970000D02*
X57970000Y-102970000D01*
X60630000Y-100370000D02*
X60630000Y-102970000D01*
X60630000Y-100370000D02*
X57970000Y-100370000D01*
X60630000Y-99100000D02*
X60630000Y-97770000D01*
X60630000Y-97770000D02*
X59300000Y-97770000D01*
X57970000Y-100370000D02*
X57970000Y-102970000D01*
X94400000Y-91000000D02*
G75*
G03*
X94400000Y-91000000I-1700000J0D01*
G01*
X59835000Y-46785000D02*
X54765000Y-46785000D01*
X59835000Y-37015000D02*
X59835000Y-46785000D01*
X59835000Y-37015000D02*
X54765000Y-37015000D01*
X54765000Y-37015000D02*
X54765000Y-46785000D01*
X90300000Y-91000000D02*
G75*
G03*
X90300000Y-91000000I-1700000J0D01*
G01*
X86535000Y-92845000D02*
X81465000Y-92845000D01*
X86535000Y-83075000D02*
X86535000Y-92845000D01*
X86535000Y-83075000D02*
X81465000Y-83075000D01*
X81465000Y-83075000D02*
X81465000Y-92845000D01*
X90535000Y-46585000D02*
X85465000Y-46585000D01*
X90535000Y-36815000D02*
X90535000Y-46585000D01*
X90535000Y-36815000D02*
X85465000Y-36815000D01*
X85465000Y-36815000D02*
X85465000Y-46585000D01*
X92250000Y-136210000D02*
X92250000Y-136630000D01*
X94020000Y-136630000D02*
X94020000Y-143870000D01*
X90480000Y-136630000D02*
X94020000Y-136630000D01*
X94020000Y-143870000D02*
X90480000Y-143870000D01*
X90480000Y-143870000D02*
X90480000Y-136630000D01*
X92250000Y-144290000D02*
X92250000Y-143870000D01*
X66750000Y-136210000D02*
X66750000Y-136630000D01*
X68520000Y-136630000D02*
X68520000Y-143870000D01*
X64980000Y-136630000D02*
X68520000Y-136630000D01*
X68520000Y-143870000D02*
X64980000Y-143870000D01*
X64980000Y-143870000D02*
X64980000Y-136630000D01*
X66750000Y-144290000D02*
X66750000Y-143870000D01*
X104135000Y-46625000D02*
X99065000Y-46625000D01*
X104135000Y-36855000D02*
X104135000Y-46625000D01*
X104135000Y-36855000D02*
X99065000Y-36855000D01*
X99065000Y-36855000D02*
X99065000Y-46625000D01*
%LPC*%
D12*
X102300000Y-127780000D03*
D13*
X102300000Y-117620000D03*
D12*
X85220000Y-60600000D03*
D13*
X95380000Y-60600000D03*
D12*
X85240000Y-50900000D03*
D13*
X95400000Y-50900000D03*
D14*
X102750000Y-76750000D03*
D15*
X102750000Y-79290000D03*
X102750000Y-81830000D03*
X102750000Y-84370000D03*
X102750000Y-86910000D03*
X102750000Y-89450000D03*
X102750000Y-91990000D03*
X102750000Y-94530000D03*
D12*
X79300000Y-105700000D03*
X74300000Y-105700000D03*
X97000000Y-105220000D03*
D13*
X97000000Y-115380000D03*
D16*
X95050000Y-80500000D03*
X98550000Y-80500000D03*
D12*
X69300000Y-51000000D03*
D13*
X69300000Y-40840000D03*
D12*
X79300000Y-92100000D03*
X79300000Y-87100000D03*
X87600000Y-115400000D03*
D13*
X87600000Y-105240000D03*
D12*
X76820000Y-128900000D03*
D13*
X86980000Y-128900000D03*
D17*
X78870000Y-68240000D03*
D18*
X77600000Y-68240000D03*
X76330000Y-68240000D03*
D16*
X75800000Y-90600000D03*
X75800000Y-84100000D03*
D12*
X61100000Y-58500000D03*
X61100000Y-53500000D03*
X59140000Y-82900000D03*
D13*
X69300000Y-82900000D03*
D12*
X90700000Y-115200000D03*
X90700000Y-110200000D03*
X102800000Y-59300000D03*
X97800000Y-59300000D03*
X99080000Y-83300000D03*
D13*
X88920000Y-83300000D03*
D12*
X79500000Y-51260000D03*
D13*
X79500000Y-41100000D03*
D19*
X72500000Y-84690000D03*
D13*
X72500000Y-92310000D03*
D12*
X76820000Y-132000000D03*
D13*
X86980000Y-132000000D03*
D14*
X91000000Y-72250000D03*
D15*
X88460000Y-72250000D03*
X85920000Y-72250000D03*
X83380000Y-72250000D03*
D12*
X75200000Y-61600000D03*
X75200000Y-56600000D03*
D20*
X79500000Y-112400000D03*
D16*
X68850000Y-77000000D03*
X65350000Y-77000000D03*
D12*
X61200000Y-115360000D03*
D13*
X61200000Y-105200000D03*
D12*
X58100000Y-105200000D03*
D13*
X58100000Y-115360000D03*
D12*
X84500000Y-105240000D03*
D13*
X84500000Y-115400000D03*
D12*
X71400000Y-133600000D03*
X71400000Y-128600000D03*
X64300000Y-105220000D03*
D13*
X64300000Y-115380000D03*
D12*
X98000000Y-138580000D03*
D13*
X98000000Y-128420000D03*
D16*
X65350000Y-85700000D03*
X68850000Y-85700000D03*
D12*
X69260000Y-74200000D03*
D13*
X59100000Y-74200000D03*
D12*
X100100000Y-115400000D03*
D13*
X100100000Y-105240000D03*
D12*
X88920000Y-86400000D03*
D13*
X99080000Y-86400000D03*
D12*
X93800000Y-115200000D03*
X93800000Y-110200000D03*
X94800000Y-133600000D03*
X94800000Y-128600000D03*
D19*
X79025000Y-118060000D03*
D13*
X76485000Y-118060000D03*
X73945000Y-118060000D03*
X71405000Y-118060000D03*
X68865000Y-118060000D03*
X66325000Y-118060000D03*
X63785000Y-118060000D03*
X63785000Y-125680000D03*
X66325000Y-125680000D03*
X68865000Y-125680000D03*
X71405000Y-125680000D03*
X73945000Y-125680000D03*
X76485000Y-125680000D03*
X79025000Y-125680000D03*
D12*
X69280000Y-79800000D03*
D13*
X59120000Y-79800000D03*
D12*
X73600000Y-115200000D03*
X73600000Y-110200000D03*
D21*
X79225000Y-94975000D03*
D22*
X76685000Y-94975000D03*
X74145000Y-94975000D03*
X71605000Y-94975000D03*
X69065000Y-94975000D03*
X66525000Y-94975000D03*
X63985000Y-94975000D03*
X63985000Y-102595000D03*
X66525000Y-102595000D03*
X69065000Y-102595000D03*
X71605000Y-102595000D03*
X74145000Y-102595000D03*
X76685000Y-102595000D03*
X79225000Y-102595000D03*
D19*
X102900000Y-107780000D03*
D13*
X102900000Y-115400000D03*
D12*
X102600000Y-72060000D03*
D13*
X102600000Y-61900000D03*
D12*
X72400000Y-45750000D03*
X72400000Y-50750000D03*
X73500000Y-67700000D03*
X68500000Y-67700000D03*
D19*
X98725000Y-118100000D03*
D13*
X96185000Y-118100000D03*
X93645000Y-118100000D03*
X91105000Y-118100000D03*
X88565000Y-118100000D03*
X86025000Y-118100000D03*
X83485000Y-118100000D03*
X83485000Y-125720000D03*
X86025000Y-125720000D03*
X88565000Y-125720000D03*
X91105000Y-125720000D03*
X93645000Y-125720000D03*
X96185000Y-125720000D03*
X98725000Y-125720000D03*
D12*
X95380000Y-57500000D03*
D13*
X85220000Y-57500000D03*
D12*
X99080000Y-77700000D03*
D13*
X88920000Y-77700000D03*
D16*
X68850000Y-71400000D03*
X65350000Y-71400000D03*
D12*
X62900000Y-51000000D03*
D13*
X62900000Y-40840000D03*
D12*
X86980000Y-135100000D03*
D13*
X76820000Y-135100000D03*
D12*
X56400000Y-61400000D03*
X61400000Y-61400000D03*
X55940000Y-64600000D03*
D13*
X66100000Y-64600000D03*
D12*
X89700000Y-133600000D03*
X89700000Y-128600000D03*
X90200000Y-54400000D03*
X95200000Y-54400000D03*
X95400000Y-47800000D03*
D13*
X85240000Y-47800000D03*
D12*
X69280000Y-88500000D03*
D13*
X59120000Y-88500000D03*
D12*
X68340000Y-64600000D03*
D13*
X78500000Y-64600000D03*
D12*
X62400000Y-128420000D03*
D13*
X62400000Y-138580000D03*
D12*
X99500000Y-61900000D03*
D13*
X99500000Y-72060000D03*
D19*
X72000000Y-53700000D03*
D13*
X69460000Y-53700000D03*
X66920000Y-53700000D03*
X64380000Y-53700000D03*
X64380000Y-61320000D03*
X66920000Y-61320000D03*
X69460000Y-61320000D03*
X72000000Y-61320000D03*
D12*
X70500000Y-115200000D03*
X70500000Y-110200000D03*
D14*
X56250000Y-76750000D03*
D15*
X56250000Y-79290000D03*
X56250000Y-81830000D03*
X56250000Y-84370000D03*
X56250000Y-86910000D03*
X56250000Y-89450000D03*
X56250000Y-91990000D03*
X56250000Y-94530000D03*
D12*
X66100000Y-40840000D03*
D13*
X66100000Y-51000000D03*
D12*
X59300000Y-128420000D03*
D13*
X59300000Y-138580000D03*
D12*
X82600000Y-51260000D03*
D13*
X82600000Y-41100000D03*
D17*
X86370000Y-101300000D03*
D18*
X85100000Y-101300000D03*
X83830000Y-101300000D03*
D12*
X69280000Y-91700000D03*
D13*
X59120000Y-91700000D03*
D12*
X67400000Y-115380000D03*
D13*
X67400000Y-105220000D03*
D12*
X75500000Y-40790000D03*
D13*
X75500000Y-50950000D03*
D19*
X102900000Y-97980000D03*
D13*
X102900000Y-105600000D03*
D17*
X83830000Y-96900000D03*
D18*
X85100000Y-96900000D03*
X86370000Y-96900000D03*
D19*
X61750000Y-142300000D03*
D12*
X61750000Y-144300000D03*
D23*
X78000000Y-54000000D03*
G36*
G01*
X73820000Y-139400000D02*
X75020000Y-139400000D01*
G75*
G02*
X75270000Y-139650000I0J-250000D01*
G01*
X75270000Y-140850000D01*
G75*
G02*
X75020000Y-141100000I-250000J0D01*
G01*
X73820000Y-141100000D01*
G75*
G02*
X73570000Y-140850000I0J250000D01*
G01*
X73570000Y-139650000D01*
G75*
G02*
X73820000Y-139400000I250000J0D01*
G01*
G37*
D24*
X74420000Y-142790000D03*
X76960000Y-140250000D03*
X76960000Y-142790000D03*
X79500000Y-140250000D03*
X79500000Y-142790000D03*
X82040000Y-140250000D03*
X82040000Y-142790000D03*
X84580000Y-140250000D03*
X84580000Y-142790000D03*
D25*
X94800000Y-44280000D03*
X94800000Y-41740000D03*
X94800000Y-39200000D03*
D19*
X97250000Y-144500000D03*
D12*
X97250000Y-142500000D03*
D14*
X59300000Y-99100000D03*
D15*
X59300000Y-101640000D03*
D23*
X92700000Y-91000000D03*
D25*
X57300000Y-39360000D03*
X57300000Y-41900000D03*
X57300000Y-44440000D03*
D23*
X88600000Y-91000000D03*
D25*
X84000000Y-85420000D03*
X84000000Y-87960000D03*
X84000000Y-90500000D03*
X88000000Y-39160000D03*
X88000000Y-41700000D03*
X88000000Y-44240000D03*
D12*
X92250000Y-135170000D03*
D13*
X92250000Y-145330000D03*
D12*
X66750000Y-135170000D03*
D13*
X66750000Y-145330000D03*
D25*
X101600000Y-39200000D03*
X101600000Y-41740000D03*
X101600000Y-44280000D03*
D26*
X75400000Y-121600000D03*
X101100000Y-51800000D03*
X81400000Y-103500000D03*
X81400000Y-102600000D03*
X97800000Y-97700000D03*
X98800000Y-97700000D03*
X98800000Y-98700000D03*
X85200000Y-120600000D03*
X81600000Y-94100000D03*
X97800000Y-98700000D03*
X84700000Y-121400000D03*
X75500000Y-100000000D03*
X74900000Y-120700000D03*
X81600000Y-95000000D03*
X81700000Y-99300000D03*
X76600000Y-100000000D03*
X77700000Y-100000000D03*
X84200000Y-120600000D03*
X101100000Y-50600000D03*
X75900000Y-120700000D03*
X60700000Y-85900000D03*
X78100000Y-60500000D03*
X101200000Y-54400000D03*
X78600000Y-97800000D03*
X78000000Y-58600000D03*
X62400000Y-85900000D03*
X61800000Y-75300000D03*
X68400000Y-122700000D03*
X100800000Y-117500000D03*
X91900000Y-98200000D03*
X69200000Y-98600000D03*
X81000000Y-121300000D03*
X89600000Y-98949500D03*
X92400000Y-57600000D03*
%LPD*%
M02*
