%TF.GenerationSoftware,KiCad,Pcbnew,9.0.4-9.0.4-0~ubuntu22.04.1*%
%TF.CreationDate,2025-10-19T11:48:00+01:00*%
%TF.ProjectId,CD40106_VCO,43443430-3130-4365-9f56-434f2e6b6963,rev?*%
%TF.SameCoordinates,Original*%
%TF.FileFunction,Drillmap*%
%TF.FilePolarity,Positive*%
%FSLAX45Y45*%
G04 Gerber Fmt 4.5, Leading zero omitted, Abs format (unit mm)*
G04 Created by KiCad (PCBNEW 9.0.4-9.0.4-0~ubuntu22.04.1) date 2025-10-19 11:48:00*
%MOMM*%
%LPD*%
G01*
G04 APERTURE LIST*
%ADD10C,0.050000*%
%ADD11C,0.200000*%
%ADD12C,0.320000*%
G04 APERTURE END LIST*
D10*
X5450000Y-3650000D02*
X10450000Y-3650000D01*
X5450000Y-3650000D02*
X5450000Y-14650000D01*
X5450000Y-14650000D02*
X10450000Y-14650000D01*
X10450000Y-3650000D02*
X10450000Y-14650000D01*
D11*
D12*
X7790000Y-11080000D02*
X8110000Y-11400000D01*
X8110000Y-11080000D02*
X7790000Y-11400000D01*
D11*
X5708277Y-14963984D02*
X5708277Y-14763984D01*
X5708277Y-14763984D02*
X5755896Y-14763984D01*
X5755896Y-14763984D02*
X5784467Y-14773508D01*
X5784467Y-14773508D02*
X5803515Y-14792555D01*
X5803515Y-14792555D02*
X5813039Y-14811603D01*
X5813039Y-14811603D02*
X5822562Y-14849698D01*
X5822562Y-14849698D02*
X5822562Y-14878269D01*
X5822562Y-14878269D02*
X5813039Y-14916365D01*
X5813039Y-14916365D02*
X5803515Y-14935412D01*
X5803515Y-14935412D02*
X5784467Y-14954460D01*
X5784467Y-14954460D02*
X5755896Y-14963984D01*
X5755896Y-14963984D02*
X5708277Y-14963984D01*
X5908277Y-14963984D02*
X5908277Y-14830650D01*
X5908277Y-14868746D02*
X5917801Y-14849698D01*
X5917801Y-14849698D02*
X5927324Y-14840174D01*
X5927324Y-14840174D02*
X5946372Y-14830650D01*
X5946372Y-14830650D02*
X5965420Y-14830650D01*
X6032086Y-14963984D02*
X6032086Y-14830650D01*
X6032086Y-14763984D02*
X6022562Y-14773508D01*
X6022562Y-14773508D02*
X6032086Y-14783031D01*
X6032086Y-14783031D02*
X6041610Y-14773508D01*
X6041610Y-14773508D02*
X6032086Y-14763984D01*
X6032086Y-14763984D02*
X6032086Y-14783031D01*
X6155896Y-14963984D02*
X6136848Y-14954460D01*
X6136848Y-14954460D02*
X6127324Y-14935412D01*
X6127324Y-14935412D02*
X6127324Y-14763984D01*
X6260658Y-14963984D02*
X6241610Y-14954460D01*
X6241610Y-14954460D02*
X6232086Y-14935412D01*
X6232086Y-14935412D02*
X6232086Y-14763984D01*
X6489229Y-14963984D02*
X6489229Y-14763984D01*
X6489229Y-14763984D02*
X6555896Y-14906841D01*
X6555896Y-14906841D02*
X6622562Y-14763984D01*
X6622562Y-14763984D02*
X6622562Y-14963984D01*
X6803515Y-14963984D02*
X6803515Y-14859222D01*
X6803515Y-14859222D02*
X6793991Y-14840174D01*
X6793991Y-14840174D02*
X6774943Y-14830650D01*
X6774943Y-14830650D02*
X6736848Y-14830650D01*
X6736848Y-14830650D02*
X6717801Y-14840174D01*
X6803515Y-14954460D02*
X6784467Y-14963984D01*
X6784467Y-14963984D02*
X6736848Y-14963984D01*
X6736848Y-14963984D02*
X6717801Y-14954460D01*
X6717801Y-14954460D02*
X6708277Y-14935412D01*
X6708277Y-14935412D02*
X6708277Y-14916365D01*
X6708277Y-14916365D02*
X6717801Y-14897317D01*
X6717801Y-14897317D02*
X6736848Y-14887793D01*
X6736848Y-14887793D02*
X6784467Y-14887793D01*
X6784467Y-14887793D02*
X6803515Y-14878269D01*
X6898753Y-14830650D02*
X6898753Y-15030650D01*
X6898753Y-14840174D02*
X6917801Y-14830650D01*
X6917801Y-14830650D02*
X6955896Y-14830650D01*
X6955896Y-14830650D02*
X6974943Y-14840174D01*
X6974943Y-14840174D02*
X6984467Y-14849698D01*
X6984467Y-14849698D02*
X6993991Y-14868746D01*
X6993991Y-14868746D02*
X6993991Y-14925888D01*
X6993991Y-14925888D02*
X6984467Y-14944936D01*
X6984467Y-14944936D02*
X6974943Y-14954460D01*
X6974943Y-14954460D02*
X6955896Y-14963984D01*
X6955896Y-14963984D02*
X6917801Y-14963984D01*
X6917801Y-14963984D02*
X6898753Y-14954460D01*
X7079705Y-14944936D02*
X7089229Y-14954460D01*
X7089229Y-14954460D02*
X7079705Y-14963984D01*
X7079705Y-14963984D02*
X7070182Y-14954460D01*
X7070182Y-14954460D02*
X7079705Y-14944936D01*
X7079705Y-14944936D02*
X7079705Y-14963984D01*
X7079705Y-14840174D02*
X7089229Y-14849698D01*
X7089229Y-14849698D02*
X7079705Y-14859222D01*
X7079705Y-14859222D02*
X7070182Y-14849698D01*
X7070182Y-14849698D02*
X7079705Y-14840174D01*
X7079705Y-14840174D02*
X7079705Y-14859222D01*
X5247500Y-15192500D02*
X5447500Y-15392500D01*
X5447500Y-15192500D02*
X5247500Y-15392500D01*
X5689229Y-15183984D02*
X5813039Y-15183984D01*
X5813039Y-15183984D02*
X5746372Y-15260174D01*
X5746372Y-15260174D02*
X5774943Y-15260174D01*
X5774943Y-15260174D02*
X5793991Y-15269698D01*
X5793991Y-15269698D02*
X5803515Y-15279222D01*
X5803515Y-15279222D02*
X5813039Y-15298269D01*
X5813039Y-15298269D02*
X5813039Y-15345888D01*
X5813039Y-15345888D02*
X5803515Y-15364936D01*
X5803515Y-15364936D02*
X5793991Y-15374460D01*
X5793991Y-15374460D02*
X5774943Y-15383984D01*
X5774943Y-15383984D02*
X5717801Y-15383984D01*
X5717801Y-15383984D02*
X5698753Y-15374460D01*
X5698753Y-15374460D02*
X5689229Y-15364936D01*
X5898753Y-15364936D02*
X5908277Y-15374460D01*
X5908277Y-15374460D02*
X5898753Y-15383984D01*
X5898753Y-15383984D02*
X5889229Y-15374460D01*
X5889229Y-15374460D02*
X5898753Y-15364936D01*
X5898753Y-15364936D02*
X5898753Y-15383984D01*
X5984467Y-15203031D02*
X5993991Y-15193508D01*
X5993991Y-15193508D02*
X6013039Y-15183984D01*
X6013039Y-15183984D02*
X6060658Y-15183984D01*
X6060658Y-15183984D02*
X6079705Y-15193508D01*
X6079705Y-15193508D02*
X6089229Y-15203031D01*
X6089229Y-15203031D02*
X6098753Y-15222079D01*
X6098753Y-15222079D02*
X6098753Y-15241127D01*
X6098753Y-15241127D02*
X6089229Y-15269698D01*
X6089229Y-15269698D02*
X5974943Y-15383984D01*
X5974943Y-15383984D02*
X6098753Y-15383984D01*
X6222562Y-15183984D02*
X6241610Y-15183984D01*
X6241610Y-15183984D02*
X6260658Y-15193508D01*
X6260658Y-15193508D02*
X6270182Y-15203031D01*
X6270182Y-15203031D02*
X6279705Y-15222079D01*
X6279705Y-15222079D02*
X6289229Y-15260174D01*
X6289229Y-15260174D02*
X6289229Y-15307793D01*
X6289229Y-15307793D02*
X6279705Y-15345888D01*
X6279705Y-15345888D02*
X6270182Y-15364936D01*
X6270182Y-15364936D02*
X6260658Y-15374460D01*
X6260658Y-15374460D02*
X6241610Y-15383984D01*
X6241610Y-15383984D02*
X6222562Y-15383984D01*
X6222562Y-15383984D02*
X6203515Y-15374460D01*
X6203515Y-15374460D02*
X6193991Y-15364936D01*
X6193991Y-15364936D02*
X6184467Y-15345888D01*
X6184467Y-15345888D02*
X6174943Y-15307793D01*
X6174943Y-15307793D02*
X6174943Y-15260174D01*
X6174943Y-15260174D02*
X6184467Y-15222079D01*
X6184467Y-15222079D02*
X6193991Y-15203031D01*
X6193991Y-15203031D02*
X6203515Y-15193508D01*
X6203515Y-15193508D02*
X6222562Y-15183984D01*
X6413039Y-15183984D02*
X6432086Y-15183984D01*
X6432086Y-15183984D02*
X6451134Y-15193508D01*
X6451134Y-15193508D02*
X6460658Y-15203031D01*
X6460658Y-15203031D02*
X6470182Y-15222079D01*
X6470182Y-15222079D02*
X6479705Y-15260174D01*
X6479705Y-15260174D02*
X6479705Y-15307793D01*
X6479705Y-15307793D02*
X6470182Y-15345888D01*
X6470182Y-15345888D02*
X6460658Y-15364936D01*
X6460658Y-15364936D02*
X6451134Y-15374460D01*
X6451134Y-15374460D02*
X6432086Y-15383984D01*
X6432086Y-15383984D02*
X6413039Y-15383984D01*
X6413039Y-15383984D02*
X6393991Y-15374460D01*
X6393991Y-15374460D02*
X6384467Y-15364936D01*
X6384467Y-15364936D02*
X6374943Y-15345888D01*
X6374943Y-15345888D02*
X6365420Y-15307793D01*
X6365420Y-15307793D02*
X6365420Y-15260174D01*
X6365420Y-15260174D02*
X6374943Y-15222079D01*
X6374943Y-15222079D02*
X6384467Y-15203031D01*
X6384467Y-15203031D02*
X6393991Y-15193508D01*
X6393991Y-15193508D02*
X6413039Y-15183984D01*
X6565420Y-15383984D02*
X6565420Y-15250650D01*
X6565420Y-15269698D02*
X6574943Y-15260174D01*
X6574943Y-15260174D02*
X6593991Y-15250650D01*
X6593991Y-15250650D02*
X6622563Y-15250650D01*
X6622563Y-15250650D02*
X6641610Y-15260174D01*
X6641610Y-15260174D02*
X6651134Y-15279222D01*
X6651134Y-15279222D02*
X6651134Y-15383984D01*
X6651134Y-15279222D02*
X6660658Y-15260174D01*
X6660658Y-15260174D02*
X6679705Y-15250650D01*
X6679705Y-15250650D02*
X6708277Y-15250650D01*
X6708277Y-15250650D02*
X6727324Y-15260174D01*
X6727324Y-15260174D02*
X6736848Y-15279222D01*
X6736848Y-15279222D02*
X6736848Y-15383984D01*
X6832086Y-15383984D02*
X6832086Y-15250650D01*
X6832086Y-15269698D02*
X6841610Y-15260174D01*
X6841610Y-15260174D02*
X6860658Y-15250650D01*
X6860658Y-15250650D02*
X6889229Y-15250650D01*
X6889229Y-15250650D02*
X6908277Y-15260174D01*
X6908277Y-15260174D02*
X6917801Y-15279222D01*
X6917801Y-15279222D02*
X6917801Y-15383984D01*
X6917801Y-15279222D02*
X6927324Y-15260174D01*
X6927324Y-15260174D02*
X6946372Y-15250650D01*
X6946372Y-15250650D02*
X6974943Y-15250650D01*
X6974943Y-15250650D02*
X6993991Y-15260174D01*
X6993991Y-15260174D02*
X7003515Y-15279222D01*
X7003515Y-15279222D02*
X7003515Y-15383984D01*
X7393991Y-15174460D02*
X7222563Y-15431603D01*
X7651134Y-15183984D02*
X7670182Y-15183984D01*
X7670182Y-15183984D02*
X7689229Y-15193508D01*
X7689229Y-15193508D02*
X7698753Y-15203031D01*
X7698753Y-15203031D02*
X7708277Y-15222079D01*
X7708277Y-15222079D02*
X7717801Y-15260174D01*
X7717801Y-15260174D02*
X7717801Y-15307793D01*
X7717801Y-15307793D02*
X7708277Y-15345888D01*
X7708277Y-15345888D02*
X7698753Y-15364936D01*
X7698753Y-15364936D02*
X7689229Y-15374460D01*
X7689229Y-15374460D02*
X7670182Y-15383984D01*
X7670182Y-15383984D02*
X7651134Y-15383984D01*
X7651134Y-15383984D02*
X7632086Y-15374460D01*
X7632086Y-15374460D02*
X7622563Y-15364936D01*
X7622563Y-15364936D02*
X7613039Y-15345888D01*
X7613039Y-15345888D02*
X7603515Y-15307793D01*
X7603515Y-15307793D02*
X7603515Y-15260174D01*
X7603515Y-15260174D02*
X7613039Y-15222079D01*
X7613039Y-15222079D02*
X7622563Y-15203031D01*
X7622563Y-15203031D02*
X7632086Y-15193508D01*
X7632086Y-15193508D02*
X7651134Y-15183984D01*
X7803515Y-15364936D02*
X7813039Y-15374460D01*
X7813039Y-15374460D02*
X7803515Y-15383984D01*
X7803515Y-15383984D02*
X7793991Y-15374460D01*
X7793991Y-15374460D02*
X7803515Y-15364936D01*
X7803515Y-15364936D02*
X7803515Y-15383984D01*
X8003515Y-15383984D02*
X7889229Y-15383984D01*
X7946372Y-15383984D02*
X7946372Y-15183984D01*
X7946372Y-15183984D02*
X7927325Y-15212555D01*
X7927325Y-15212555D02*
X7908277Y-15231603D01*
X7908277Y-15231603D02*
X7889229Y-15241127D01*
X8079706Y-15203031D02*
X8089229Y-15193508D01*
X8089229Y-15193508D02*
X8108277Y-15183984D01*
X8108277Y-15183984D02*
X8155896Y-15183984D01*
X8155896Y-15183984D02*
X8174944Y-15193508D01*
X8174944Y-15193508D02*
X8184467Y-15203031D01*
X8184467Y-15203031D02*
X8193991Y-15222079D01*
X8193991Y-15222079D02*
X8193991Y-15241127D01*
X8193991Y-15241127D02*
X8184467Y-15269698D01*
X8184467Y-15269698D02*
X8070182Y-15383984D01*
X8070182Y-15383984D02*
X8193991Y-15383984D01*
X8365420Y-15183984D02*
X8327325Y-15183984D01*
X8327325Y-15183984D02*
X8308277Y-15193508D01*
X8308277Y-15193508D02*
X8298753Y-15203031D01*
X8298753Y-15203031D02*
X8279706Y-15231603D01*
X8279706Y-15231603D02*
X8270182Y-15269698D01*
X8270182Y-15269698D02*
X8270182Y-15345888D01*
X8270182Y-15345888D02*
X8279706Y-15364936D01*
X8279706Y-15364936D02*
X8289229Y-15374460D01*
X8289229Y-15374460D02*
X8308277Y-15383984D01*
X8308277Y-15383984D02*
X8346372Y-15383984D01*
X8346372Y-15383984D02*
X8365420Y-15374460D01*
X8365420Y-15374460D02*
X8374944Y-15364936D01*
X8374944Y-15364936D02*
X8384467Y-15345888D01*
X8384467Y-15345888D02*
X8384467Y-15298269D01*
X8384467Y-15298269D02*
X8374944Y-15279222D01*
X8374944Y-15279222D02*
X8365420Y-15269698D01*
X8365420Y-15269698D02*
X8346372Y-15260174D01*
X8346372Y-15260174D02*
X8308277Y-15260174D01*
X8308277Y-15260174D02*
X8289229Y-15269698D01*
X8289229Y-15269698D02*
X8279706Y-15279222D01*
X8279706Y-15279222D02*
X8270182Y-15298269D01*
X8508277Y-15183984D02*
X8527325Y-15183984D01*
X8527325Y-15183984D02*
X8546372Y-15193508D01*
X8546372Y-15193508D02*
X8555896Y-15203031D01*
X8555896Y-15203031D02*
X8565420Y-15222079D01*
X8565420Y-15222079D02*
X8574944Y-15260174D01*
X8574944Y-15260174D02*
X8574944Y-15307793D01*
X8574944Y-15307793D02*
X8565420Y-15345888D01*
X8565420Y-15345888D02*
X8555896Y-15364936D01*
X8555896Y-15364936D02*
X8546372Y-15374460D01*
X8546372Y-15374460D02*
X8527325Y-15383984D01*
X8527325Y-15383984D02*
X8508277Y-15383984D01*
X8508277Y-15383984D02*
X8489229Y-15374460D01*
X8489229Y-15374460D02*
X8479706Y-15364936D01*
X8479706Y-15364936D02*
X8470182Y-15345888D01*
X8470182Y-15345888D02*
X8460658Y-15307793D01*
X8460658Y-15307793D02*
X8460658Y-15260174D01*
X8460658Y-15260174D02*
X8470182Y-15222079D01*
X8470182Y-15222079D02*
X8479706Y-15203031D01*
X8479706Y-15203031D02*
X8489229Y-15193508D01*
X8489229Y-15193508D02*
X8508277Y-15183984D01*
X8651134Y-15183984D02*
X8651134Y-15222079D01*
X8727325Y-15183984D02*
X8727325Y-15222079D01*
X9022563Y-15460174D02*
X9013039Y-15450650D01*
X9013039Y-15450650D02*
X8993991Y-15422079D01*
X8993991Y-15422079D02*
X8984468Y-15403031D01*
X8984468Y-15403031D02*
X8974944Y-15374460D01*
X8974944Y-15374460D02*
X8965420Y-15326841D01*
X8965420Y-15326841D02*
X8965420Y-15288746D01*
X8965420Y-15288746D02*
X8974944Y-15241127D01*
X8974944Y-15241127D02*
X8984468Y-15212555D01*
X8984468Y-15212555D02*
X8993991Y-15193508D01*
X8993991Y-15193508D02*
X9013039Y-15164936D01*
X9013039Y-15164936D02*
X9022563Y-15155412D01*
X9203515Y-15383984D02*
X9089230Y-15383984D01*
X9146372Y-15383984D02*
X9146372Y-15183984D01*
X9146372Y-15183984D02*
X9127325Y-15212555D01*
X9127325Y-15212555D02*
X9108277Y-15231603D01*
X9108277Y-15231603D02*
X9089230Y-15241127D01*
X9441611Y-15383984D02*
X9441611Y-15183984D01*
X9527325Y-15383984D02*
X9527325Y-15279222D01*
X9527325Y-15279222D02*
X9517801Y-15260174D01*
X9517801Y-15260174D02*
X9498753Y-15250650D01*
X9498753Y-15250650D02*
X9470182Y-15250650D01*
X9470182Y-15250650D02*
X9451134Y-15260174D01*
X9451134Y-15260174D02*
X9441611Y-15269698D01*
X9651134Y-15383984D02*
X9632087Y-15374460D01*
X9632087Y-15374460D02*
X9622563Y-15364936D01*
X9622563Y-15364936D02*
X9613039Y-15345888D01*
X9613039Y-15345888D02*
X9613039Y-15288746D01*
X9613039Y-15288746D02*
X9622563Y-15269698D01*
X9622563Y-15269698D02*
X9632087Y-15260174D01*
X9632087Y-15260174D02*
X9651134Y-15250650D01*
X9651134Y-15250650D02*
X9679706Y-15250650D01*
X9679706Y-15250650D02*
X9698753Y-15260174D01*
X9698753Y-15260174D02*
X9708277Y-15269698D01*
X9708277Y-15269698D02*
X9717801Y-15288746D01*
X9717801Y-15288746D02*
X9717801Y-15345888D01*
X9717801Y-15345888D02*
X9708277Y-15364936D01*
X9708277Y-15364936D02*
X9698753Y-15374460D01*
X9698753Y-15374460D02*
X9679706Y-15383984D01*
X9679706Y-15383984D02*
X9651134Y-15383984D01*
X9832087Y-15383984D02*
X9813039Y-15374460D01*
X9813039Y-15374460D02*
X9803515Y-15355412D01*
X9803515Y-15355412D02*
X9803515Y-15183984D01*
X9984468Y-15374460D02*
X9965420Y-15383984D01*
X9965420Y-15383984D02*
X9927325Y-15383984D01*
X9927325Y-15383984D02*
X9908277Y-15374460D01*
X9908277Y-15374460D02*
X9898753Y-15355412D01*
X9898753Y-15355412D02*
X9898753Y-15279222D01*
X9898753Y-15279222D02*
X9908277Y-15260174D01*
X9908277Y-15260174D02*
X9927325Y-15250650D01*
X9927325Y-15250650D02*
X9965420Y-15250650D01*
X9965420Y-15250650D02*
X9984468Y-15260174D01*
X9984468Y-15260174D02*
X9993992Y-15279222D01*
X9993992Y-15279222D02*
X9993992Y-15298269D01*
X9993992Y-15298269D02*
X9898753Y-15317317D01*
X10060658Y-15460174D02*
X10070182Y-15450650D01*
X10070182Y-15450650D02*
X10089230Y-15422079D01*
X10089230Y-15422079D02*
X10098753Y-15403031D01*
X10098753Y-15403031D02*
X10108277Y-15374460D01*
X10108277Y-15374460D02*
X10117801Y-15326841D01*
X10117801Y-15326841D02*
X10117801Y-15288746D01*
X10117801Y-15288746D02*
X10108277Y-15241127D01*
X10108277Y-15241127D02*
X10098753Y-15212555D01*
X10098753Y-15212555D02*
X10089230Y-15193508D01*
X10089230Y-15193508D02*
X10070182Y-15164936D01*
X10070182Y-15164936D02*
X10060658Y-15155412D01*
X10422563Y-15460174D02*
X10413039Y-15450650D01*
X10413039Y-15450650D02*
X10393992Y-15422079D01*
X10393992Y-15422079D02*
X10384468Y-15403031D01*
X10384468Y-15403031D02*
X10374944Y-15374460D01*
X10374944Y-15374460D02*
X10365420Y-15326841D01*
X10365420Y-15326841D02*
X10365420Y-15288746D01*
X10365420Y-15288746D02*
X10374944Y-15241127D01*
X10374944Y-15241127D02*
X10384468Y-15212555D01*
X10384468Y-15212555D02*
X10393992Y-15193508D01*
X10393992Y-15193508D02*
X10413039Y-15164936D01*
X10413039Y-15164936D02*
X10422563Y-15155412D01*
X10498753Y-15250650D02*
X10498753Y-15383984D01*
X10498753Y-15269698D02*
X10508277Y-15260174D01*
X10508277Y-15260174D02*
X10527325Y-15250650D01*
X10527325Y-15250650D02*
X10555896Y-15250650D01*
X10555896Y-15250650D02*
X10574944Y-15260174D01*
X10574944Y-15260174D02*
X10584468Y-15279222D01*
X10584468Y-15279222D02*
X10584468Y-15383984D01*
X10708277Y-15383984D02*
X10689230Y-15374460D01*
X10689230Y-15374460D02*
X10679706Y-15364936D01*
X10679706Y-15364936D02*
X10670182Y-15345888D01*
X10670182Y-15345888D02*
X10670182Y-15288746D01*
X10670182Y-15288746D02*
X10679706Y-15269698D01*
X10679706Y-15269698D02*
X10689230Y-15260174D01*
X10689230Y-15260174D02*
X10708277Y-15250650D01*
X10708277Y-15250650D02*
X10736849Y-15250650D01*
X10736849Y-15250650D02*
X10755896Y-15260174D01*
X10755896Y-15260174D02*
X10765420Y-15269698D01*
X10765420Y-15269698D02*
X10774944Y-15288746D01*
X10774944Y-15288746D02*
X10774944Y-15345888D01*
X10774944Y-15345888D02*
X10765420Y-15364936D01*
X10765420Y-15364936D02*
X10755896Y-15374460D01*
X10755896Y-15374460D02*
X10736849Y-15383984D01*
X10736849Y-15383984D02*
X10708277Y-15383984D01*
X10832087Y-15250650D02*
X10908277Y-15250650D01*
X10860658Y-15183984D02*
X10860658Y-15355412D01*
X10860658Y-15355412D02*
X10870182Y-15374460D01*
X10870182Y-15374460D02*
X10889230Y-15383984D01*
X10889230Y-15383984D02*
X10908277Y-15383984D01*
X11127325Y-15250650D02*
X11127325Y-15450650D01*
X11127325Y-15260174D02*
X11146373Y-15250650D01*
X11146373Y-15250650D02*
X11184468Y-15250650D01*
X11184468Y-15250650D02*
X11203515Y-15260174D01*
X11203515Y-15260174D02*
X11213039Y-15269698D01*
X11213039Y-15269698D02*
X11222563Y-15288746D01*
X11222563Y-15288746D02*
X11222563Y-15345888D01*
X11222563Y-15345888D02*
X11213039Y-15364936D01*
X11213039Y-15364936D02*
X11203515Y-15374460D01*
X11203515Y-15374460D02*
X11184468Y-15383984D01*
X11184468Y-15383984D02*
X11146373Y-15383984D01*
X11146373Y-15383984D02*
X11127325Y-15374460D01*
X11336849Y-15383984D02*
X11317801Y-15374460D01*
X11317801Y-15374460D02*
X11308277Y-15355412D01*
X11308277Y-15355412D02*
X11308277Y-15183984D01*
X11498753Y-15383984D02*
X11498753Y-15279222D01*
X11498753Y-15279222D02*
X11489230Y-15260174D01*
X11489230Y-15260174D02*
X11470182Y-15250650D01*
X11470182Y-15250650D02*
X11432087Y-15250650D01*
X11432087Y-15250650D02*
X11413039Y-15260174D01*
X11498753Y-15374460D02*
X11479706Y-15383984D01*
X11479706Y-15383984D02*
X11432087Y-15383984D01*
X11432087Y-15383984D02*
X11413039Y-15374460D01*
X11413039Y-15374460D02*
X11403515Y-15355412D01*
X11403515Y-15355412D02*
X11403515Y-15336365D01*
X11403515Y-15336365D02*
X11413039Y-15317317D01*
X11413039Y-15317317D02*
X11432087Y-15307793D01*
X11432087Y-15307793D02*
X11479706Y-15307793D01*
X11479706Y-15307793D02*
X11498753Y-15298269D01*
X11565420Y-15250650D02*
X11641611Y-15250650D01*
X11593992Y-15183984D02*
X11593992Y-15355412D01*
X11593992Y-15355412D02*
X11603515Y-15374460D01*
X11603515Y-15374460D02*
X11622563Y-15383984D01*
X11622563Y-15383984D02*
X11641611Y-15383984D01*
X11784468Y-15374460D02*
X11765420Y-15383984D01*
X11765420Y-15383984D02*
X11727325Y-15383984D01*
X11727325Y-15383984D02*
X11708277Y-15374460D01*
X11708277Y-15374460D02*
X11698753Y-15355412D01*
X11698753Y-15355412D02*
X11698753Y-15279222D01*
X11698753Y-15279222D02*
X11708277Y-15260174D01*
X11708277Y-15260174D02*
X11727325Y-15250650D01*
X11727325Y-15250650D02*
X11765420Y-15250650D01*
X11765420Y-15250650D02*
X11784468Y-15260174D01*
X11784468Y-15260174D02*
X11793992Y-15279222D01*
X11793992Y-15279222D02*
X11793992Y-15298269D01*
X11793992Y-15298269D02*
X11698753Y-15317317D01*
X11965420Y-15383984D02*
X11965420Y-15183984D01*
X11965420Y-15374460D02*
X11946373Y-15383984D01*
X11946373Y-15383984D02*
X11908277Y-15383984D01*
X11908277Y-15383984D02*
X11889230Y-15374460D01*
X11889230Y-15374460D02*
X11879706Y-15364936D01*
X11879706Y-15364936D02*
X11870182Y-15345888D01*
X11870182Y-15345888D02*
X11870182Y-15288746D01*
X11870182Y-15288746D02*
X11879706Y-15269698D01*
X11879706Y-15269698D02*
X11889230Y-15260174D01*
X11889230Y-15260174D02*
X11908277Y-15250650D01*
X11908277Y-15250650D02*
X11946373Y-15250650D01*
X11946373Y-15250650D02*
X11965420Y-15260174D01*
X12041611Y-15460174D02*
X12051134Y-15450650D01*
X12051134Y-15450650D02*
X12070182Y-15422079D01*
X12070182Y-15422079D02*
X12079706Y-15403031D01*
X12079706Y-15403031D02*
X12089230Y-15374460D01*
X12089230Y-15374460D02*
X12098753Y-15326841D01*
X12098753Y-15326841D02*
X12098753Y-15288746D01*
X12098753Y-15288746D02*
X12089230Y-15241127D01*
X12089230Y-15241127D02*
X12079706Y-15212555D01*
X12079706Y-15212555D02*
X12070182Y-15193508D01*
X12070182Y-15193508D02*
X12051134Y-15164936D01*
X12051134Y-15164936D02*
X12041611Y-15155412D01*
M02*
