G04 #@! TF.GenerationSoftware,KiCad,Pcbnew,7.0.7-7.0.7~ubuntu22.04.1*
G04 #@! TF.CreationDate,2023-12-10T22:01:21+01:00*
G04 #@! TF.ProjectId,CD40106_VCO,43443430-3130-4365-9f56-434f2e6b6963,rev?*
G04 #@! TF.SameCoordinates,Original*
G04 #@! TF.FileFunction,Legend,Top*
G04 #@! TF.FilePolarity,Positive*
%FSLAX46Y46*%
G04 Gerber Fmt 4.6, Leading zero omitted, Abs format (unit mm)*
G04 Created by KiCad (PCBNEW 7.0.7-7.0.7~ubuntu22.04.1) date 2023-12-10 22:01:21*
%MOMM*%
%LPD*%
G01*
G04 APERTURE LIST*
%ADD10C,0.150000*%
%ADD11C,0.120000*%
%ADD12C,1.600000*%
%ADD13O,1.600000X1.600000*%
%ADD14R,1.700000X1.700000*%
%ADD15O,1.700000X1.700000*%
%ADD16C,1.524000*%
%ADD17R,1.050000X1.500000*%
%ADD18O,1.050000X1.500000*%
%ADD19R,1.600000X1.600000*%
%ADD20C,3.200000*%
%ADD21R,1.600000X2.400000*%
%ADD22O,1.600000X2.400000*%
%ADD23C,3.000000*%
%ADD24C,1.700000*%
%ADD25C,1.440000*%
%ADD26C,0.800000*%
G04 APERTURE END LIST*
D10*
X91254580Y-107076190D02*
X91302200Y-107123809D01*
X91302200Y-107123809D02*
X91349819Y-107266666D01*
X91349819Y-107266666D02*
X91349819Y-107361904D01*
X91349819Y-107361904D02*
X91302200Y-107504761D01*
X91302200Y-107504761D02*
X91206961Y-107599999D01*
X91206961Y-107599999D02*
X91111723Y-107647618D01*
X91111723Y-107647618D02*
X90921247Y-107695237D01*
X90921247Y-107695237D02*
X90778390Y-107695237D01*
X90778390Y-107695237D02*
X90587914Y-107647618D01*
X90587914Y-107647618D02*
X90492676Y-107599999D01*
X90492676Y-107599999D02*
X90397438Y-107504761D01*
X90397438Y-107504761D02*
X90349819Y-107361904D01*
X90349819Y-107361904D02*
X90349819Y-107266666D01*
X90349819Y-107266666D02*
X90397438Y-107123809D01*
X90397438Y-107123809D02*
X90445057Y-107076190D01*
X91349819Y-106647618D02*
X90349819Y-106647618D01*
X90349819Y-106647618D02*
X90349819Y-106409523D01*
X90349819Y-106409523D02*
X90397438Y-106266666D01*
X90397438Y-106266666D02*
X90492676Y-106171428D01*
X90492676Y-106171428D02*
X90587914Y-106123809D01*
X90587914Y-106123809D02*
X90778390Y-106076190D01*
X90778390Y-106076190D02*
X90921247Y-106076190D01*
X90921247Y-106076190D02*
X91111723Y-106123809D01*
X91111723Y-106123809D02*
X91206961Y-106171428D01*
X91206961Y-106171428D02*
X91302200Y-106266666D01*
X91302200Y-106266666D02*
X91349819Y-106409523D01*
X91349819Y-106409523D02*
X91349819Y-106647618D01*
X90683152Y-105219047D02*
X91349819Y-105219047D01*
X90302200Y-105457142D02*
X91016485Y-105695237D01*
X91016485Y-105695237D02*
X91016485Y-105076190D01*
X90349819Y-104504761D02*
X90349819Y-104409523D01*
X90349819Y-104409523D02*
X90397438Y-104314285D01*
X90397438Y-104314285D02*
X90445057Y-104266666D01*
X90445057Y-104266666D02*
X90540295Y-104219047D01*
X90540295Y-104219047D02*
X90730771Y-104171428D01*
X90730771Y-104171428D02*
X90968866Y-104171428D01*
X90968866Y-104171428D02*
X91159342Y-104219047D01*
X91159342Y-104219047D02*
X91254580Y-104266666D01*
X91254580Y-104266666D02*
X91302200Y-104314285D01*
X91302200Y-104314285D02*
X91349819Y-104409523D01*
X91349819Y-104409523D02*
X91349819Y-104504761D01*
X91349819Y-104504761D02*
X91302200Y-104599999D01*
X91302200Y-104599999D02*
X91254580Y-104647618D01*
X91254580Y-104647618D02*
X91159342Y-104695237D01*
X91159342Y-104695237D02*
X90968866Y-104742856D01*
X90968866Y-104742856D02*
X90730771Y-104742856D01*
X90730771Y-104742856D02*
X90540295Y-104695237D01*
X90540295Y-104695237D02*
X90445057Y-104647618D01*
X90445057Y-104647618D02*
X90397438Y-104599999D01*
X90397438Y-104599999D02*
X90349819Y-104504761D01*
X91349819Y-103219047D02*
X91349819Y-103790475D01*
X91349819Y-103504761D02*
X90349819Y-103504761D01*
X90349819Y-103504761D02*
X90492676Y-103599999D01*
X90492676Y-103599999D02*
X90587914Y-103695237D01*
X90587914Y-103695237D02*
X90635533Y-103790475D01*
X90349819Y-102599999D02*
X90349819Y-102504761D01*
X90349819Y-102504761D02*
X90397438Y-102409523D01*
X90397438Y-102409523D02*
X90445057Y-102361904D01*
X90445057Y-102361904D02*
X90540295Y-102314285D01*
X90540295Y-102314285D02*
X90730771Y-102266666D01*
X90730771Y-102266666D02*
X90968866Y-102266666D01*
X90968866Y-102266666D02*
X91159342Y-102314285D01*
X91159342Y-102314285D02*
X91254580Y-102361904D01*
X91254580Y-102361904D02*
X91302200Y-102409523D01*
X91302200Y-102409523D02*
X91349819Y-102504761D01*
X91349819Y-102504761D02*
X91349819Y-102599999D01*
X91349819Y-102599999D02*
X91302200Y-102695237D01*
X91302200Y-102695237D02*
X91254580Y-102742856D01*
X91254580Y-102742856D02*
X91159342Y-102790475D01*
X91159342Y-102790475D02*
X90968866Y-102838094D01*
X90968866Y-102838094D02*
X90730771Y-102838094D01*
X90730771Y-102838094D02*
X90540295Y-102790475D01*
X90540295Y-102790475D02*
X90445057Y-102742856D01*
X90445057Y-102742856D02*
X90397438Y-102695237D01*
X90397438Y-102695237D02*
X90349819Y-102599999D01*
X90349819Y-101409523D02*
X90349819Y-101599999D01*
X90349819Y-101599999D02*
X90397438Y-101695237D01*
X90397438Y-101695237D02*
X90445057Y-101742856D01*
X90445057Y-101742856D02*
X90587914Y-101838094D01*
X90587914Y-101838094D02*
X90778390Y-101885713D01*
X90778390Y-101885713D02*
X91159342Y-101885713D01*
X91159342Y-101885713D02*
X91254580Y-101838094D01*
X91254580Y-101838094D02*
X91302200Y-101790475D01*
X91302200Y-101790475D02*
X91349819Y-101695237D01*
X91349819Y-101695237D02*
X91349819Y-101504761D01*
X91349819Y-101504761D02*
X91302200Y-101409523D01*
X91302200Y-101409523D02*
X91254580Y-101361904D01*
X91254580Y-101361904D02*
X91159342Y-101314285D01*
X91159342Y-101314285D02*
X90921247Y-101314285D01*
X90921247Y-101314285D02*
X90826009Y-101361904D01*
X90826009Y-101361904D02*
X90778390Y-101409523D01*
X90778390Y-101409523D02*
X90730771Y-101504761D01*
X90730771Y-101504761D02*
X90730771Y-101695237D01*
X90730771Y-101695237D02*
X90778390Y-101790475D01*
X90778390Y-101790475D02*
X90826009Y-101838094D01*
X90826009Y-101838094D02*
X90921247Y-101885713D01*
X90349819Y-100266665D02*
X91349819Y-99933332D01*
X91349819Y-99933332D02*
X90349819Y-99599999D01*
X91254580Y-98695237D02*
X91302200Y-98742856D01*
X91302200Y-98742856D02*
X91349819Y-98885713D01*
X91349819Y-98885713D02*
X91349819Y-98980951D01*
X91349819Y-98980951D02*
X91302200Y-99123808D01*
X91302200Y-99123808D02*
X91206961Y-99219046D01*
X91206961Y-99219046D02*
X91111723Y-99266665D01*
X91111723Y-99266665D02*
X90921247Y-99314284D01*
X90921247Y-99314284D02*
X90778390Y-99314284D01*
X90778390Y-99314284D02*
X90587914Y-99266665D01*
X90587914Y-99266665D02*
X90492676Y-99219046D01*
X90492676Y-99219046D02*
X90397438Y-99123808D01*
X90397438Y-99123808D02*
X90349819Y-98980951D01*
X90349819Y-98980951D02*
X90349819Y-98885713D01*
X90349819Y-98885713D02*
X90397438Y-98742856D01*
X90397438Y-98742856D02*
X90445057Y-98695237D01*
X90349819Y-98076189D02*
X90349819Y-97885713D01*
X90349819Y-97885713D02*
X90397438Y-97790475D01*
X90397438Y-97790475D02*
X90492676Y-97695237D01*
X90492676Y-97695237D02*
X90683152Y-97647618D01*
X90683152Y-97647618D02*
X91016485Y-97647618D01*
X91016485Y-97647618D02*
X91206961Y-97695237D01*
X91206961Y-97695237D02*
X91302200Y-97790475D01*
X91302200Y-97790475D02*
X91349819Y-97885713D01*
X91349819Y-97885713D02*
X91349819Y-98076189D01*
X91349819Y-98076189D02*
X91302200Y-98171427D01*
X91302200Y-98171427D02*
X91206961Y-98266665D01*
X91206961Y-98266665D02*
X91016485Y-98314284D01*
X91016485Y-98314284D02*
X90683152Y-98314284D01*
X90683152Y-98314284D02*
X90492676Y-98266665D01*
X90492676Y-98266665D02*
X90397438Y-98171427D01*
X90397438Y-98171427D02*
X90349819Y-98076189D01*
X91349819Y-95933332D02*
X91349819Y-96504760D01*
X91349819Y-96219046D02*
X90349819Y-96219046D01*
X90349819Y-96219046D02*
X90492676Y-96314284D01*
X90492676Y-96314284D02*
X90587914Y-96409522D01*
X90587914Y-96409522D02*
X90635533Y-96504760D01*
X91254580Y-95504760D02*
X91302200Y-95457141D01*
X91302200Y-95457141D02*
X91349819Y-95504760D01*
X91349819Y-95504760D02*
X91302200Y-95552379D01*
X91302200Y-95552379D02*
X91254580Y-95504760D01*
X91254580Y-95504760D02*
X91349819Y-95504760D01*
X90349819Y-94838094D02*
X90349819Y-94742856D01*
X90349819Y-94742856D02*
X90397438Y-94647618D01*
X90397438Y-94647618D02*
X90445057Y-94599999D01*
X90445057Y-94599999D02*
X90540295Y-94552380D01*
X90540295Y-94552380D02*
X90730771Y-94504761D01*
X90730771Y-94504761D02*
X90968866Y-94504761D01*
X90968866Y-94504761D02*
X91159342Y-94552380D01*
X91159342Y-94552380D02*
X91254580Y-94599999D01*
X91254580Y-94599999D02*
X91302200Y-94647618D01*
X91302200Y-94647618D02*
X91349819Y-94742856D01*
X91349819Y-94742856D02*
X91349819Y-94838094D01*
X91349819Y-94838094D02*
X91302200Y-94933332D01*
X91302200Y-94933332D02*
X91254580Y-94980951D01*
X91254580Y-94980951D02*
X91159342Y-95028570D01*
X91159342Y-95028570D02*
X90968866Y-95076189D01*
X90968866Y-95076189D02*
X90730771Y-95076189D01*
X90730771Y-95076189D02*
X90540295Y-95028570D01*
X90540295Y-95028570D02*
X90445057Y-94980951D01*
X90445057Y-94980951D02*
X90397438Y-94933332D01*
X90397438Y-94933332D02*
X90349819Y-94838094D01*
X92436009Y-107552381D02*
X92483628Y-107409524D01*
X92483628Y-107409524D02*
X92531247Y-107361905D01*
X92531247Y-107361905D02*
X92626485Y-107314286D01*
X92626485Y-107314286D02*
X92769342Y-107314286D01*
X92769342Y-107314286D02*
X92864580Y-107361905D01*
X92864580Y-107361905D02*
X92912200Y-107409524D01*
X92912200Y-107409524D02*
X92959819Y-107504762D01*
X92959819Y-107504762D02*
X92959819Y-107885714D01*
X92959819Y-107885714D02*
X91959819Y-107885714D01*
X91959819Y-107885714D02*
X91959819Y-107552381D01*
X91959819Y-107552381D02*
X92007438Y-107457143D01*
X92007438Y-107457143D02*
X92055057Y-107409524D01*
X92055057Y-107409524D02*
X92150295Y-107361905D01*
X92150295Y-107361905D02*
X92245533Y-107361905D01*
X92245533Y-107361905D02*
X92340771Y-107409524D01*
X92340771Y-107409524D02*
X92388390Y-107457143D01*
X92388390Y-107457143D02*
X92436009Y-107552381D01*
X92436009Y-107552381D02*
X92436009Y-107885714D01*
X92959819Y-106742857D02*
X92912200Y-106838095D01*
X92912200Y-106838095D02*
X92816961Y-106885714D01*
X92816961Y-106885714D02*
X91959819Y-106885714D01*
X92912200Y-105980952D02*
X92959819Y-106076190D01*
X92959819Y-106076190D02*
X92959819Y-106266666D01*
X92959819Y-106266666D02*
X92912200Y-106361904D01*
X92912200Y-106361904D02*
X92816961Y-106409523D01*
X92816961Y-106409523D02*
X92436009Y-106409523D01*
X92436009Y-106409523D02*
X92340771Y-106361904D01*
X92340771Y-106361904D02*
X92293152Y-106266666D01*
X92293152Y-106266666D02*
X92293152Y-106076190D01*
X92293152Y-106076190D02*
X92340771Y-105980952D01*
X92340771Y-105980952D02*
X92436009Y-105933333D01*
X92436009Y-105933333D02*
X92531247Y-105933333D01*
X92531247Y-105933333D02*
X92626485Y-106409523D01*
X92912200Y-105123809D02*
X92959819Y-105219047D01*
X92959819Y-105219047D02*
X92959819Y-105409523D01*
X92959819Y-105409523D02*
X92912200Y-105504761D01*
X92912200Y-105504761D02*
X92816961Y-105552380D01*
X92816961Y-105552380D02*
X92436009Y-105552380D01*
X92436009Y-105552380D02*
X92340771Y-105504761D01*
X92340771Y-105504761D02*
X92293152Y-105409523D01*
X92293152Y-105409523D02*
X92293152Y-105219047D01*
X92293152Y-105219047D02*
X92340771Y-105123809D01*
X92340771Y-105123809D02*
X92436009Y-105076190D01*
X92436009Y-105076190D02*
X92531247Y-105076190D01*
X92531247Y-105076190D02*
X92626485Y-105552380D01*
X92293152Y-104647618D02*
X93293152Y-104647618D01*
X92340771Y-104647618D02*
X92293152Y-104552380D01*
X92293152Y-104552380D02*
X92293152Y-104361904D01*
X92293152Y-104361904D02*
X92340771Y-104266666D01*
X92340771Y-104266666D02*
X92388390Y-104219047D01*
X92388390Y-104219047D02*
X92483628Y-104171428D01*
X92483628Y-104171428D02*
X92769342Y-104171428D01*
X92769342Y-104171428D02*
X92864580Y-104219047D01*
X92864580Y-104219047D02*
X92912200Y-104266666D01*
X92912200Y-104266666D02*
X92959819Y-104361904D01*
X92959819Y-104361904D02*
X92959819Y-104552380D01*
X92959819Y-104552380D02*
X92912200Y-104647618D01*
X92912200Y-103028570D02*
X92959819Y-102885713D01*
X92959819Y-102885713D02*
X92959819Y-102647618D01*
X92959819Y-102647618D02*
X92912200Y-102552380D01*
X92912200Y-102552380D02*
X92864580Y-102504761D01*
X92864580Y-102504761D02*
X92769342Y-102457142D01*
X92769342Y-102457142D02*
X92674104Y-102457142D01*
X92674104Y-102457142D02*
X92578866Y-102504761D01*
X92578866Y-102504761D02*
X92531247Y-102552380D01*
X92531247Y-102552380D02*
X92483628Y-102647618D01*
X92483628Y-102647618D02*
X92436009Y-102838094D01*
X92436009Y-102838094D02*
X92388390Y-102933332D01*
X92388390Y-102933332D02*
X92340771Y-102980951D01*
X92340771Y-102980951D02*
X92245533Y-103028570D01*
X92245533Y-103028570D02*
X92150295Y-103028570D01*
X92150295Y-103028570D02*
X92055057Y-102980951D01*
X92055057Y-102980951D02*
X92007438Y-102933332D01*
X92007438Y-102933332D02*
X91959819Y-102838094D01*
X91959819Y-102838094D02*
X91959819Y-102599999D01*
X91959819Y-102599999D02*
X92007438Y-102457142D01*
X92959819Y-101885713D02*
X92912200Y-101980951D01*
X92912200Y-101980951D02*
X92864580Y-102028570D01*
X92864580Y-102028570D02*
X92769342Y-102076189D01*
X92769342Y-102076189D02*
X92483628Y-102076189D01*
X92483628Y-102076189D02*
X92388390Y-102028570D01*
X92388390Y-102028570D02*
X92340771Y-101980951D01*
X92340771Y-101980951D02*
X92293152Y-101885713D01*
X92293152Y-101885713D02*
X92293152Y-101742856D01*
X92293152Y-101742856D02*
X92340771Y-101647618D01*
X92340771Y-101647618D02*
X92388390Y-101599999D01*
X92388390Y-101599999D02*
X92483628Y-101552380D01*
X92483628Y-101552380D02*
X92769342Y-101552380D01*
X92769342Y-101552380D02*
X92864580Y-101599999D01*
X92864580Y-101599999D02*
X92912200Y-101647618D01*
X92912200Y-101647618D02*
X92959819Y-101742856D01*
X92959819Y-101742856D02*
X92959819Y-101885713D01*
X92293152Y-100695237D02*
X92959819Y-100695237D01*
X92293152Y-101123808D02*
X92816961Y-101123808D01*
X92816961Y-101123808D02*
X92912200Y-101076189D01*
X92912200Y-101076189D02*
X92959819Y-100980951D01*
X92959819Y-100980951D02*
X92959819Y-100838094D01*
X92959819Y-100838094D02*
X92912200Y-100742856D01*
X92912200Y-100742856D02*
X92864580Y-100695237D01*
X92293152Y-100219046D02*
X92959819Y-100219046D01*
X92388390Y-100219046D02*
X92340771Y-100171427D01*
X92340771Y-100171427D02*
X92293152Y-100076189D01*
X92293152Y-100076189D02*
X92293152Y-99933332D01*
X92293152Y-99933332D02*
X92340771Y-99838094D01*
X92340771Y-99838094D02*
X92436009Y-99790475D01*
X92436009Y-99790475D02*
X92959819Y-99790475D01*
X92959819Y-98885713D02*
X91959819Y-98885713D01*
X92912200Y-98885713D02*
X92959819Y-98980951D01*
X92959819Y-98980951D02*
X92959819Y-99171427D01*
X92959819Y-99171427D02*
X92912200Y-99266665D01*
X92912200Y-99266665D02*
X92864580Y-99314284D01*
X92864580Y-99314284D02*
X92769342Y-99361903D01*
X92769342Y-99361903D02*
X92483628Y-99361903D01*
X92483628Y-99361903D02*
X92388390Y-99314284D01*
X92388390Y-99314284D02*
X92340771Y-99266665D01*
X92340771Y-99266665D02*
X92293152Y-99171427D01*
X92293152Y-99171427D02*
X92293152Y-98980951D01*
X92293152Y-98980951D02*
X92340771Y-98885713D01*
X92055057Y-97695236D02*
X92007438Y-97647617D01*
X92007438Y-97647617D02*
X91959819Y-97552379D01*
X91959819Y-97552379D02*
X91959819Y-97314284D01*
X91959819Y-97314284D02*
X92007438Y-97219046D01*
X92007438Y-97219046D02*
X92055057Y-97171427D01*
X92055057Y-97171427D02*
X92150295Y-97123808D01*
X92150295Y-97123808D02*
X92245533Y-97123808D01*
X92245533Y-97123808D02*
X92388390Y-97171427D01*
X92388390Y-97171427D02*
X92959819Y-97742855D01*
X92959819Y-97742855D02*
X92959819Y-97123808D01*
X91959819Y-96504760D02*
X91959819Y-96409522D01*
X91959819Y-96409522D02*
X92007438Y-96314284D01*
X92007438Y-96314284D02*
X92055057Y-96266665D01*
X92055057Y-96266665D02*
X92150295Y-96219046D01*
X92150295Y-96219046D02*
X92340771Y-96171427D01*
X92340771Y-96171427D02*
X92578866Y-96171427D01*
X92578866Y-96171427D02*
X92769342Y-96219046D01*
X92769342Y-96219046D02*
X92864580Y-96266665D01*
X92864580Y-96266665D02*
X92912200Y-96314284D01*
X92912200Y-96314284D02*
X92959819Y-96409522D01*
X92959819Y-96409522D02*
X92959819Y-96504760D01*
X92959819Y-96504760D02*
X92912200Y-96599998D01*
X92912200Y-96599998D02*
X92864580Y-96647617D01*
X92864580Y-96647617D02*
X92769342Y-96695236D01*
X92769342Y-96695236D02*
X92578866Y-96742855D01*
X92578866Y-96742855D02*
X92340771Y-96742855D01*
X92340771Y-96742855D02*
X92150295Y-96695236D01*
X92150295Y-96695236D02*
X92055057Y-96647617D01*
X92055057Y-96647617D02*
X92007438Y-96599998D01*
X92007438Y-96599998D02*
X91959819Y-96504760D01*
X92055057Y-95790474D02*
X92007438Y-95742855D01*
X92007438Y-95742855D02*
X91959819Y-95647617D01*
X91959819Y-95647617D02*
X91959819Y-95409522D01*
X91959819Y-95409522D02*
X92007438Y-95314284D01*
X92007438Y-95314284D02*
X92055057Y-95266665D01*
X92055057Y-95266665D02*
X92150295Y-95219046D01*
X92150295Y-95219046D02*
X92245533Y-95219046D01*
X92245533Y-95219046D02*
X92388390Y-95266665D01*
X92388390Y-95266665D02*
X92959819Y-95838093D01*
X92959819Y-95838093D02*
X92959819Y-95219046D01*
X91959819Y-94885712D02*
X91959819Y-94266665D01*
X91959819Y-94266665D02*
X92340771Y-94599998D01*
X92340771Y-94599998D02*
X92340771Y-94457141D01*
X92340771Y-94457141D02*
X92388390Y-94361903D01*
X92388390Y-94361903D02*
X92436009Y-94314284D01*
X92436009Y-94314284D02*
X92531247Y-94266665D01*
X92531247Y-94266665D02*
X92769342Y-94266665D01*
X92769342Y-94266665D02*
X92864580Y-94314284D01*
X92864580Y-94314284D02*
X92912200Y-94361903D01*
X92912200Y-94361903D02*
X92959819Y-94457141D01*
X92959819Y-94457141D02*
X92959819Y-94742855D01*
X92959819Y-94742855D02*
X92912200Y-94838093D01*
X92912200Y-94838093D02*
X92864580Y-94885712D01*
X94831009Y-103252381D02*
X94878628Y-103109524D01*
X94878628Y-103109524D02*
X94926247Y-103061905D01*
X94926247Y-103061905D02*
X95021485Y-103014286D01*
X95021485Y-103014286D02*
X95164342Y-103014286D01*
X95164342Y-103014286D02*
X95259580Y-103061905D01*
X95259580Y-103061905D02*
X95307200Y-103109524D01*
X95307200Y-103109524D02*
X95354819Y-103204762D01*
X95354819Y-103204762D02*
X95354819Y-103585714D01*
X95354819Y-103585714D02*
X94354819Y-103585714D01*
X94354819Y-103585714D02*
X94354819Y-103252381D01*
X94354819Y-103252381D02*
X94402438Y-103157143D01*
X94402438Y-103157143D02*
X94450057Y-103109524D01*
X94450057Y-103109524D02*
X94545295Y-103061905D01*
X94545295Y-103061905D02*
X94640533Y-103061905D01*
X94640533Y-103061905D02*
X94735771Y-103109524D01*
X94735771Y-103109524D02*
X94783390Y-103157143D01*
X94783390Y-103157143D02*
X94831009Y-103252381D01*
X94831009Y-103252381D02*
X94831009Y-103585714D01*
X95354819Y-102442857D02*
X95307200Y-102538095D01*
X95307200Y-102538095D02*
X95259580Y-102585714D01*
X95259580Y-102585714D02*
X95164342Y-102633333D01*
X95164342Y-102633333D02*
X94878628Y-102633333D01*
X94878628Y-102633333D02*
X94783390Y-102585714D01*
X94783390Y-102585714D02*
X94735771Y-102538095D01*
X94735771Y-102538095D02*
X94688152Y-102442857D01*
X94688152Y-102442857D02*
X94688152Y-102300000D01*
X94688152Y-102300000D02*
X94735771Y-102204762D01*
X94735771Y-102204762D02*
X94783390Y-102157143D01*
X94783390Y-102157143D02*
X94878628Y-102109524D01*
X94878628Y-102109524D02*
X95164342Y-102109524D01*
X95164342Y-102109524D02*
X95259580Y-102157143D01*
X95259580Y-102157143D02*
X95307200Y-102204762D01*
X95307200Y-102204762D02*
X95354819Y-102300000D01*
X95354819Y-102300000D02*
X95354819Y-102442857D01*
X95354819Y-101252381D02*
X94831009Y-101252381D01*
X94831009Y-101252381D02*
X94735771Y-101300000D01*
X94735771Y-101300000D02*
X94688152Y-101395238D01*
X94688152Y-101395238D02*
X94688152Y-101585714D01*
X94688152Y-101585714D02*
X94735771Y-101680952D01*
X95307200Y-101252381D02*
X95354819Y-101347619D01*
X95354819Y-101347619D02*
X95354819Y-101585714D01*
X95354819Y-101585714D02*
X95307200Y-101680952D01*
X95307200Y-101680952D02*
X95211961Y-101728571D01*
X95211961Y-101728571D02*
X95116723Y-101728571D01*
X95116723Y-101728571D02*
X95021485Y-101680952D01*
X95021485Y-101680952D02*
X94973866Y-101585714D01*
X94973866Y-101585714D02*
X94973866Y-101347619D01*
X94973866Y-101347619D02*
X94926247Y-101252381D01*
X95354819Y-100776190D02*
X94688152Y-100776190D01*
X94878628Y-100776190D02*
X94783390Y-100728571D01*
X94783390Y-100728571D02*
X94735771Y-100680952D01*
X94735771Y-100680952D02*
X94688152Y-100585714D01*
X94688152Y-100585714D02*
X94688152Y-100490476D01*
X95354819Y-99728571D02*
X94354819Y-99728571D01*
X95307200Y-99728571D02*
X95354819Y-99823809D01*
X95354819Y-99823809D02*
X95354819Y-100014285D01*
X95354819Y-100014285D02*
X95307200Y-100109523D01*
X95307200Y-100109523D02*
X95259580Y-100157142D01*
X95259580Y-100157142D02*
X95164342Y-100204761D01*
X95164342Y-100204761D02*
X94878628Y-100204761D01*
X94878628Y-100204761D02*
X94783390Y-100157142D01*
X94783390Y-100157142D02*
X94735771Y-100109523D01*
X94735771Y-100109523D02*
X94688152Y-100014285D01*
X94688152Y-100014285D02*
X94688152Y-99823809D01*
X94688152Y-99823809D02*
X94735771Y-99728571D01*
X95354819Y-97966666D02*
X95354819Y-98538094D01*
X95354819Y-98252380D02*
X94354819Y-98252380D01*
X94354819Y-98252380D02*
X94497676Y-98347618D01*
X94497676Y-98347618D02*
X94592914Y-98442856D01*
X94592914Y-98442856D02*
X94640533Y-98538094D01*
X102754819Y-123342857D02*
X102278628Y-123676190D01*
X102754819Y-123914285D02*
X101754819Y-123914285D01*
X101754819Y-123914285D02*
X101754819Y-123533333D01*
X101754819Y-123533333D02*
X101802438Y-123438095D01*
X101802438Y-123438095D02*
X101850057Y-123390476D01*
X101850057Y-123390476D02*
X101945295Y-123342857D01*
X101945295Y-123342857D02*
X102088152Y-123342857D01*
X102088152Y-123342857D02*
X102183390Y-123390476D01*
X102183390Y-123390476D02*
X102231009Y-123438095D01*
X102231009Y-123438095D02*
X102278628Y-123533333D01*
X102278628Y-123533333D02*
X102278628Y-123914285D01*
X101754819Y-123009523D02*
X101754819Y-122390476D01*
X101754819Y-122390476D02*
X102135771Y-122723809D01*
X102135771Y-122723809D02*
X102135771Y-122580952D01*
X102135771Y-122580952D02*
X102183390Y-122485714D01*
X102183390Y-122485714D02*
X102231009Y-122438095D01*
X102231009Y-122438095D02*
X102326247Y-122390476D01*
X102326247Y-122390476D02*
X102564342Y-122390476D01*
X102564342Y-122390476D02*
X102659580Y-122438095D01*
X102659580Y-122438095D02*
X102707200Y-122485714D01*
X102707200Y-122485714D02*
X102754819Y-122580952D01*
X102754819Y-122580952D02*
X102754819Y-122866666D01*
X102754819Y-122866666D02*
X102707200Y-122961904D01*
X102707200Y-122961904D02*
X102659580Y-123009523D01*
X102183390Y-121819047D02*
X102135771Y-121914285D01*
X102135771Y-121914285D02*
X102088152Y-121961904D01*
X102088152Y-121961904D02*
X101992914Y-122009523D01*
X101992914Y-122009523D02*
X101945295Y-122009523D01*
X101945295Y-122009523D02*
X101850057Y-121961904D01*
X101850057Y-121961904D02*
X101802438Y-121914285D01*
X101802438Y-121914285D02*
X101754819Y-121819047D01*
X101754819Y-121819047D02*
X101754819Y-121628571D01*
X101754819Y-121628571D02*
X101802438Y-121533333D01*
X101802438Y-121533333D02*
X101850057Y-121485714D01*
X101850057Y-121485714D02*
X101945295Y-121438095D01*
X101945295Y-121438095D02*
X101992914Y-121438095D01*
X101992914Y-121438095D02*
X102088152Y-121485714D01*
X102088152Y-121485714D02*
X102135771Y-121533333D01*
X102135771Y-121533333D02*
X102183390Y-121628571D01*
X102183390Y-121628571D02*
X102183390Y-121819047D01*
X102183390Y-121819047D02*
X102231009Y-121914285D01*
X102231009Y-121914285D02*
X102278628Y-121961904D01*
X102278628Y-121961904D02*
X102373866Y-122009523D01*
X102373866Y-122009523D02*
X102564342Y-122009523D01*
X102564342Y-122009523D02*
X102659580Y-121961904D01*
X102659580Y-121961904D02*
X102707200Y-121914285D01*
X102707200Y-121914285D02*
X102754819Y-121819047D01*
X102754819Y-121819047D02*
X102754819Y-121628571D01*
X102754819Y-121628571D02*
X102707200Y-121533333D01*
X102707200Y-121533333D02*
X102659580Y-121485714D01*
X102659580Y-121485714D02*
X102564342Y-121438095D01*
X102564342Y-121438095D02*
X102373866Y-121438095D01*
X102373866Y-121438095D02*
X102278628Y-121485714D01*
X102278628Y-121485714D02*
X102231009Y-121533333D01*
X102231009Y-121533333D02*
X102183390Y-121628571D01*
X89657142Y-61054819D02*
X89323809Y-60578628D01*
X89085714Y-61054819D02*
X89085714Y-60054819D01*
X89085714Y-60054819D02*
X89466666Y-60054819D01*
X89466666Y-60054819D02*
X89561904Y-60102438D01*
X89561904Y-60102438D02*
X89609523Y-60150057D01*
X89609523Y-60150057D02*
X89657142Y-60245295D01*
X89657142Y-60245295D02*
X89657142Y-60388152D01*
X89657142Y-60388152D02*
X89609523Y-60483390D01*
X89609523Y-60483390D02*
X89561904Y-60531009D01*
X89561904Y-60531009D02*
X89466666Y-60578628D01*
X89466666Y-60578628D02*
X89085714Y-60578628D01*
X89990476Y-60054819D02*
X90609523Y-60054819D01*
X90609523Y-60054819D02*
X90276190Y-60435771D01*
X90276190Y-60435771D02*
X90419047Y-60435771D01*
X90419047Y-60435771D02*
X90514285Y-60483390D01*
X90514285Y-60483390D02*
X90561904Y-60531009D01*
X90561904Y-60531009D02*
X90609523Y-60626247D01*
X90609523Y-60626247D02*
X90609523Y-60864342D01*
X90609523Y-60864342D02*
X90561904Y-60959580D01*
X90561904Y-60959580D02*
X90514285Y-61007200D01*
X90514285Y-61007200D02*
X90419047Y-61054819D01*
X90419047Y-61054819D02*
X90133333Y-61054819D01*
X90133333Y-61054819D02*
X90038095Y-61007200D01*
X90038095Y-61007200D02*
X89990476Y-60959580D01*
X90942857Y-60054819D02*
X91561904Y-60054819D01*
X91561904Y-60054819D02*
X91228571Y-60435771D01*
X91228571Y-60435771D02*
X91371428Y-60435771D01*
X91371428Y-60435771D02*
X91466666Y-60483390D01*
X91466666Y-60483390D02*
X91514285Y-60531009D01*
X91514285Y-60531009D02*
X91561904Y-60626247D01*
X91561904Y-60626247D02*
X91561904Y-60864342D01*
X91561904Y-60864342D02*
X91514285Y-60959580D01*
X91514285Y-60959580D02*
X91466666Y-61007200D01*
X91466666Y-61007200D02*
X91371428Y-61054819D01*
X91371428Y-61054819D02*
X91085714Y-61054819D01*
X91085714Y-61054819D02*
X90990476Y-61007200D01*
X90990476Y-61007200D02*
X90942857Y-60959580D01*
X89677142Y-51354819D02*
X89343809Y-50878628D01*
X89105714Y-51354819D02*
X89105714Y-50354819D01*
X89105714Y-50354819D02*
X89486666Y-50354819D01*
X89486666Y-50354819D02*
X89581904Y-50402438D01*
X89581904Y-50402438D02*
X89629523Y-50450057D01*
X89629523Y-50450057D02*
X89677142Y-50545295D01*
X89677142Y-50545295D02*
X89677142Y-50688152D01*
X89677142Y-50688152D02*
X89629523Y-50783390D01*
X89629523Y-50783390D02*
X89581904Y-50831009D01*
X89581904Y-50831009D02*
X89486666Y-50878628D01*
X89486666Y-50878628D02*
X89105714Y-50878628D01*
X90058095Y-50450057D02*
X90105714Y-50402438D01*
X90105714Y-50402438D02*
X90200952Y-50354819D01*
X90200952Y-50354819D02*
X90439047Y-50354819D01*
X90439047Y-50354819D02*
X90534285Y-50402438D01*
X90534285Y-50402438D02*
X90581904Y-50450057D01*
X90581904Y-50450057D02*
X90629523Y-50545295D01*
X90629523Y-50545295D02*
X90629523Y-50640533D01*
X90629523Y-50640533D02*
X90581904Y-50783390D01*
X90581904Y-50783390D02*
X90010476Y-51354819D01*
X90010476Y-51354819D02*
X90629523Y-51354819D01*
X91105714Y-51354819D02*
X91296190Y-51354819D01*
X91296190Y-51354819D02*
X91391428Y-51307200D01*
X91391428Y-51307200D02*
X91439047Y-51259580D01*
X91439047Y-51259580D02*
X91534285Y-51116723D01*
X91534285Y-51116723D02*
X91581904Y-50926247D01*
X91581904Y-50926247D02*
X91581904Y-50545295D01*
X91581904Y-50545295D02*
X91534285Y-50450057D01*
X91534285Y-50450057D02*
X91486666Y-50402438D01*
X91486666Y-50402438D02*
X91391428Y-50354819D01*
X91391428Y-50354819D02*
X91200952Y-50354819D01*
X91200952Y-50354819D02*
X91105714Y-50402438D01*
X91105714Y-50402438D02*
X91058095Y-50450057D01*
X91058095Y-50450057D02*
X91010476Y-50545295D01*
X91010476Y-50545295D02*
X91010476Y-50783390D01*
X91010476Y-50783390D02*
X91058095Y-50878628D01*
X91058095Y-50878628D02*
X91105714Y-50926247D01*
X91105714Y-50926247D02*
X91200952Y-50973866D01*
X91200952Y-50973866D02*
X91391428Y-50973866D01*
X91391428Y-50973866D02*
X91486666Y-50926247D01*
X91486666Y-50926247D02*
X91534285Y-50878628D01*
X91534285Y-50878628D02*
X91581904Y-50783390D01*
X102416666Y-73434819D02*
X102416666Y-74149104D01*
X102416666Y-74149104D02*
X102369047Y-74291961D01*
X102369047Y-74291961D02*
X102273809Y-74387200D01*
X102273809Y-74387200D02*
X102130952Y-74434819D01*
X102130952Y-74434819D02*
X102035714Y-74434819D01*
X102797619Y-73434819D02*
X103464285Y-73434819D01*
X103464285Y-73434819D02*
X103035714Y-74434819D01*
X76157142Y-106059580D02*
X76109523Y-106107200D01*
X76109523Y-106107200D02*
X75966666Y-106154819D01*
X75966666Y-106154819D02*
X75871428Y-106154819D01*
X75871428Y-106154819D02*
X75728571Y-106107200D01*
X75728571Y-106107200D02*
X75633333Y-106011961D01*
X75633333Y-106011961D02*
X75585714Y-105916723D01*
X75585714Y-105916723D02*
X75538095Y-105726247D01*
X75538095Y-105726247D02*
X75538095Y-105583390D01*
X75538095Y-105583390D02*
X75585714Y-105392914D01*
X75585714Y-105392914D02*
X75633333Y-105297676D01*
X75633333Y-105297676D02*
X75728571Y-105202438D01*
X75728571Y-105202438D02*
X75871428Y-105154819D01*
X75871428Y-105154819D02*
X75966666Y-105154819D01*
X75966666Y-105154819D02*
X76109523Y-105202438D01*
X76109523Y-105202438D02*
X76157142Y-105250057D01*
X76538095Y-105250057D02*
X76585714Y-105202438D01*
X76585714Y-105202438D02*
X76680952Y-105154819D01*
X76680952Y-105154819D02*
X76919047Y-105154819D01*
X76919047Y-105154819D02*
X77014285Y-105202438D01*
X77014285Y-105202438D02*
X77061904Y-105250057D01*
X77061904Y-105250057D02*
X77109523Y-105345295D01*
X77109523Y-105345295D02*
X77109523Y-105440533D01*
X77109523Y-105440533D02*
X77061904Y-105583390D01*
X77061904Y-105583390D02*
X76490476Y-106154819D01*
X76490476Y-106154819D02*
X77109523Y-106154819D01*
X77490476Y-105250057D02*
X77538095Y-105202438D01*
X77538095Y-105202438D02*
X77633333Y-105154819D01*
X77633333Y-105154819D02*
X77871428Y-105154819D01*
X77871428Y-105154819D02*
X77966666Y-105202438D01*
X77966666Y-105202438D02*
X78014285Y-105250057D01*
X78014285Y-105250057D02*
X78061904Y-105345295D01*
X78061904Y-105345295D02*
X78061904Y-105440533D01*
X78061904Y-105440533D02*
X78014285Y-105583390D01*
X78014285Y-105583390D02*
X77442857Y-106154819D01*
X77442857Y-106154819D02*
X78061904Y-106154819D01*
X97454819Y-110942857D02*
X96978628Y-111276190D01*
X97454819Y-111514285D02*
X96454819Y-111514285D01*
X96454819Y-111514285D02*
X96454819Y-111133333D01*
X96454819Y-111133333D02*
X96502438Y-111038095D01*
X96502438Y-111038095D02*
X96550057Y-110990476D01*
X96550057Y-110990476D02*
X96645295Y-110942857D01*
X96645295Y-110942857D02*
X96788152Y-110942857D01*
X96788152Y-110942857D02*
X96883390Y-110990476D01*
X96883390Y-110990476D02*
X96931009Y-111038095D01*
X96931009Y-111038095D02*
X96978628Y-111133333D01*
X96978628Y-111133333D02*
X96978628Y-111514285D01*
X96454819Y-110609523D02*
X96454819Y-109990476D01*
X96454819Y-109990476D02*
X96835771Y-110323809D01*
X96835771Y-110323809D02*
X96835771Y-110180952D01*
X96835771Y-110180952D02*
X96883390Y-110085714D01*
X96883390Y-110085714D02*
X96931009Y-110038095D01*
X96931009Y-110038095D02*
X97026247Y-109990476D01*
X97026247Y-109990476D02*
X97264342Y-109990476D01*
X97264342Y-109990476D02*
X97359580Y-110038095D01*
X97359580Y-110038095D02*
X97407200Y-110085714D01*
X97407200Y-110085714D02*
X97454819Y-110180952D01*
X97454819Y-110180952D02*
X97454819Y-110466666D01*
X97454819Y-110466666D02*
X97407200Y-110561904D01*
X97407200Y-110561904D02*
X97359580Y-110609523D01*
X96454819Y-109371428D02*
X96454819Y-109276190D01*
X96454819Y-109276190D02*
X96502438Y-109180952D01*
X96502438Y-109180952D02*
X96550057Y-109133333D01*
X96550057Y-109133333D02*
X96645295Y-109085714D01*
X96645295Y-109085714D02*
X96835771Y-109038095D01*
X96835771Y-109038095D02*
X97073866Y-109038095D01*
X97073866Y-109038095D02*
X97264342Y-109085714D01*
X97264342Y-109085714D02*
X97359580Y-109133333D01*
X97359580Y-109133333D02*
X97407200Y-109180952D01*
X97407200Y-109180952D02*
X97454819Y-109276190D01*
X97454819Y-109276190D02*
X97454819Y-109371428D01*
X97454819Y-109371428D02*
X97407200Y-109466666D01*
X97407200Y-109466666D02*
X97359580Y-109514285D01*
X97359580Y-109514285D02*
X97264342Y-109561904D01*
X97264342Y-109561904D02*
X97073866Y-109609523D01*
X97073866Y-109609523D02*
X96835771Y-109609523D01*
X96835771Y-109609523D02*
X96645295Y-109561904D01*
X96645295Y-109561904D02*
X96550057Y-109514285D01*
X96550057Y-109514285D02*
X96502438Y-109466666D01*
X96502438Y-109466666D02*
X96454819Y-109371428D01*
X90914286Y-79954819D02*
X91485714Y-79954819D01*
X91200000Y-80954819D02*
X91200000Y-79954819D01*
X91819048Y-80954819D02*
X91819048Y-79954819D01*
X91819048Y-80431009D02*
X92390476Y-80431009D01*
X92390476Y-80954819D02*
X92390476Y-79954819D01*
X93390476Y-80954819D02*
X92819048Y-80954819D01*
X93104762Y-80954819D02*
X93104762Y-79954819D01*
X93104762Y-79954819D02*
X93009524Y-80097676D01*
X93009524Y-80097676D02*
X92914286Y-80192914D01*
X92914286Y-80192914D02*
X92819048Y-80240533D01*
X69754819Y-46492857D02*
X69278628Y-46826190D01*
X69754819Y-47064285D02*
X68754819Y-47064285D01*
X68754819Y-47064285D02*
X68754819Y-46683333D01*
X68754819Y-46683333D02*
X68802438Y-46588095D01*
X68802438Y-46588095D02*
X68850057Y-46540476D01*
X68850057Y-46540476D02*
X68945295Y-46492857D01*
X68945295Y-46492857D02*
X69088152Y-46492857D01*
X69088152Y-46492857D02*
X69183390Y-46540476D01*
X69183390Y-46540476D02*
X69231009Y-46588095D01*
X69231009Y-46588095D02*
X69278628Y-46683333D01*
X69278628Y-46683333D02*
X69278628Y-47064285D01*
X69754819Y-45540476D02*
X69754819Y-46111904D01*
X69754819Y-45826190D02*
X68754819Y-45826190D01*
X68754819Y-45826190D02*
X68897676Y-45921428D01*
X68897676Y-45921428D02*
X68992914Y-46016666D01*
X68992914Y-46016666D02*
X69040533Y-46111904D01*
X69183390Y-44969047D02*
X69135771Y-45064285D01*
X69135771Y-45064285D02*
X69088152Y-45111904D01*
X69088152Y-45111904D02*
X68992914Y-45159523D01*
X68992914Y-45159523D02*
X68945295Y-45159523D01*
X68945295Y-45159523D02*
X68850057Y-45111904D01*
X68850057Y-45111904D02*
X68802438Y-45064285D01*
X68802438Y-45064285D02*
X68754819Y-44969047D01*
X68754819Y-44969047D02*
X68754819Y-44778571D01*
X68754819Y-44778571D02*
X68802438Y-44683333D01*
X68802438Y-44683333D02*
X68850057Y-44635714D01*
X68850057Y-44635714D02*
X68945295Y-44588095D01*
X68945295Y-44588095D02*
X68992914Y-44588095D01*
X68992914Y-44588095D02*
X69088152Y-44635714D01*
X69088152Y-44635714D02*
X69135771Y-44683333D01*
X69135771Y-44683333D02*
X69183390Y-44778571D01*
X69183390Y-44778571D02*
X69183390Y-44969047D01*
X69183390Y-44969047D02*
X69231009Y-45064285D01*
X69231009Y-45064285D02*
X69278628Y-45111904D01*
X69278628Y-45111904D02*
X69373866Y-45159523D01*
X69373866Y-45159523D02*
X69564342Y-45159523D01*
X69564342Y-45159523D02*
X69659580Y-45111904D01*
X69659580Y-45111904D02*
X69707200Y-45064285D01*
X69707200Y-45064285D02*
X69754819Y-44969047D01*
X69754819Y-44969047D02*
X69754819Y-44778571D01*
X69754819Y-44778571D02*
X69707200Y-44683333D01*
X69707200Y-44683333D02*
X69659580Y-44635714D01*
X69659580Y-44635714D02*
X69564342Y-44588095D01*
X69564342Y-44588095D02*
X69373866Y-44588095D01*
X69373866Y-44588095D02*
X69278628Y-44635714D01*
X69278628Y-44635714D02*
X69231009Y-44683333D01*
X69231009Y-44683333D02*
X69183390Y-44778571D01*
X79659580Y-89766666D02*
X79707200Y-89814285D01*
X79707200Y-89814285D02*
X79754819Y-89957142D01*
X79754819Y-89957142D02*
X79754819Y-90052380D01*
X79754819Y-90052380D02*
X79707200Y-90195237D01*
X79707200Y-90195237D02*
X79611961Y-90290475D01*
X79611961Y-90290475D02*
X79516723Y-90338094D01*
X79516723Y-90338094D02*
X79326247Y-90385713D01*
X79326247Y-90385713D02*
X79183390Y-90385713D01*
X79183390Y-90385713D02*
X78992914Y-90338094D01*
X78992914Y-90338094D02*
X78897676Y-90290475D01*
X78897676Y-90290475D02*
X78802438Y-90195237D01*
X78802438Y-90195237D02*
X78754819Y-90052380D01*
X78754819Y-90052380D02*
X78754819Y-89957142D01*
X78754819Y-89957142D02*
X78802438Y-89814285D01*
X78802438Y-89814285D02*
X78850057Y-89766666D01*
X78850057Y-89385713D02*
X78802438Y-89338094D01*
X78802438Y-89338094D02*
X78754819Y-89242856D01*
X78754819Y-89242856D02*
X78754819Y-89004761D01*
X78754819Y-89004761D02*
X78802438Y-88909523D01*
X78802438Y-88909523D02*
X78850057Y-88861904D01*
X78850057Y-88861904D02*
X78945295Y-88814285D01*
X78945295Y-88814285D02*
X79040533Y-88814285D01*
X79040533Y-88814285D02*
X79183390Y-88861904D01*
X79183390Y-88861904D02*
X79754819Y-89433332D01*
X79754819Y-89433332D02*
X79754819Y-88814285D01*
X88054819Y-110962857D02*
X87578628Y-111296190D01*
X88054819Y-111534285D02*
X87054819Y-111534285D01*
X87054819Y-111534285D02*
X87054819Y-111153333D01*
X87054819Y-111153333D02*
X87102438Y-111058095D01*
X87102438Y-111058095D02*
X87150057Y-111010476D01*
X87150057Y-111010476D02*
X87245295Y-110962857D01*
X87245295Y-110962857D02*
X87388152Y-110962857D01*
X87388152Y-110962857D02*
X87483390Y-111010476D01*
X87483390Y-111010476D02*
X87531009Y-111058095D01*
X87531009Y-111058095D02*
X87578628Y-111153333D01*
X87578628Y-111153333D02*
X87578628Y-111534285D01*
X87054819Y-110629523D02*
X87054819Y-110010476D01*
X87054819Y-110010476D02*
X87435771Y-110343809D01*
X87435771Y-110343809D02*
X87435771Y-110200952D01*
X87435771Y-110200952D02*
X87483390Y-110105714D01*
X87483390Y-110105714D02*
X87531009Y-110058095D01*
X87531009Y-110058095D02*
X87626247Y-110010476D01*
X87626247Y-110010476D02*
X87864342Y-110010476D01*
X87864342Y-110010476D02*
X87959580Y-110058095D01*
X87959580Y-110058095D02*
X88007200Y-110105714D01*
X88007200Y-110105714D02*
X88054819Y-110200952D01*
X88054819Y-110200952D02*
X88054819Y-110486666D01*
X88054819Y-110486666D02*
X88007200Y-110581904D01*
X88007200Y-110581904D02*
X87959580Y-110629523D01*
X87054819Y-109677142D02*
X87054819Y-109010476D01*
X87054819Y-109010476D02*
X88054819Y-109439047D01*
X81257142Y-129354819D02*
X80923809Y-128878628D01*
X80685714Y-129354819D02*
X80685714Y-128354819D01*
X80685714Y-128354819D02*
X81066666Y-128354819D01*
X81066666Y-128354819D02*
X81161904Y-128402438D01*
X81161904Y-128402438D02*
X81209523Y-128450057D01*
X81209523Y-128450057D02*
X81257142Y-128545295D01*
X81257142Y-128545295D02*
X81257142Y-128688152D01*
X81257142Y-128688152D02*
X81209523Y-128783390D01*
X81209523Y-128783390D02*
X81161904Y-128831009D01*
X81161904Y-128831009D02*
X81066666Y-128878628D01*
X81066666Y-128878628D02*
X80685714Y-128878628D01*
X81590476Y-128354819D02*
X82209523Y-128354819D01*
X82209523Y-128354819D02*
X81876190Y-128735771D01*
X81876190Y-128735771D02*
X82019047Y-128735771D01*
X82019047Y-128735771D02*
X82114285Y-128783390D01*
X82114285Y-128783390D02*
X82161904Y-128831009D01*
X82161904Y-128831009D02*
X82209523Y-128926247D01*
X82209523Y-128926247D02*
X82209523Y-129164342D01*
X82209523Y-129164342D02*
X82161904Y-129259580D01*
X82161904Y-129259580D02*
X82114285Y-129307200D01*
X82114285Y-129307200D02*
X82019047Y-129354819D01*
X82019047Y-129354819D02*
X81733333Y-129354819D01*
X81733333Y-129354819D02*
X81638095Y-129307200D01*
X81638095Y-129307200D02*
X81590476Y-129259580D01*
X82685714Y-129354819D02*
X82876190Y-129354819D01*
X82876190Y-129354819D02*
X82971428Y-129307200D01*
X82971428Y-129307200D02*
X83019047Y-129259580D01*
X83019047Y-129259580D02*
X83114285Y-129116723D01*
X83114285Y-129116723D02*
X83161904Y-128926247D01*
X83161904Y-128926247D02*
X83161904Y-128545295D01*
X83161904Y-128545295D02*
X83114285Y-128450057D01*
X83114285Y-128450057D02*
X83066666Y-128402438D01*
X83066666Y-128402438D02*
X82971428Y-128354819D01*
X82971428Y-128354819D02*
X82780952Y-128354819D01*
X82780952Y-128354819D02*
X82685714Y-128402438D01*
X82685714Y-128402438D02*
X82638095Y-128450057D01*
X82638095Y-128450057D02*
X82590476Y-128545295D01*
X82590476Y-128545295D02*
X82590476Y-128783390D01*
X82590476Y-128783390D02*
X82638095Y-128878628D01*
X82638095Y-128878628D02*
X82685714Y-128926247D01*
X82685714Y-128926247D02*
X82780952Y-128973866D01*
X82780952Y-128973866D02*
X82971428Y-128973866D01*
X82971428Y-128973866D02*
X83066666Y-128926247D01*
X83066666Y-128926247D02*
X83114285Y-128878628D01*
X83114285Y-128878628D02*
X83161904Y-128783390D01*
X76838095Y-71254819D02*
X76838095Y-72064342D01*
X76838095Y-72064342D02*
X76885714Y-72159580D01*
X76885714Y-72159580D02*
X76933333Y-72207200D01*
X76933333Y-72207200D02*
X77028571Y-72254819D01*
X77028571Y-72254819D02*
X77219047Y-72254819D01*
X77219047Y-72254819D02*
X77314285Y-72207200D01*
X77314285Y-72207200D02*
X77361904Y-72159580D01*
X77361904Y-72159580D02*
X77409523Y-72064342D01*
X77409523Y-72064342D02*
X77409523Y-71254819D01*
X77790476Y-71254819D02*
X78409523Y-71254819D01*
X78409523Y-71254819D02*
X78076190Y-71635771D01*
X78076190Y-71635771D02*
X78219047Y-71635771D01*
X78219047Y-71635771D02*
X78314285Y-71683390D01*
X78314285Y-71683390D02*
X78361904Y-71731009D01*
X78361904Y-71731009D02*
X78409523Y-71826247D01*
X78409523Y-71826247D02*
X78409523Y-72064342D01*
X78409523Y-72064342D02*
X78361904Y-72159580D01*
X78361904Y-72159580D02*
X78314285Y-72207200D01*
X78314285Y-72207200D02*
X78219047Y-72254819D01*
X78219047Y-72254819D02*
X77933333Y-72254819D01*
X77933333Y-72254819D02*
X77838095Y-72207200D01*
X77838095Y-72207200D02*
X77790476Y-72159580D01*
X76159580Y-87516666D02*
X76207200Y-87564285D01*
X76207200Y-87564285D02*
X76254819Y-87707142D01*
X76254819Y-87707142D02*
X76254819Y-87802380D01*
X76254819Y-87802380D02*
X76207200Y-87945237D01*
X76207200Y-87945237D02*
X76111961Y-88040475D01*
X76111961Y-88040475D02*
X76016723Y-88088094D01*
X76016723Y-88088094D02*
X75826247Y-88135713D01*
X75826247Y-88135713D02*
X75683390Y-88135713D01*
X75683390Y-88135713D02*
X75492914Y-88088094D01*
X75492914Y-88088094D02*
X75397676Y-88040475D01*
X75397676Y-88040475D02*
X75302438Y-87945237D01*
X75302438Y-87945237D02*
X75254819Y-87802380D01*
X75254819Y-87802380D02*
X75254819Y-87707142D01*
X75254819Y-87707142D02*
X75302438Y-87564285D01*
X75302438Y-87564285D02*
X75350057Y-87516666D01*
X76254819Y-86564285D02*
X76254819Y-87135713D01*
X76254819Y-86849999D02*
X75254819Y-86849999D01*
X75254819Y-86849999D02*
X75397676Y-86945237D01*
X75397676Y-86945237D02*
X75492914Y-87040475D01*
X75492914Y-87040475D02*
X75540533Y-87135713D01*
X61459580Y-56642857D02*
X61507200Y-56690476D01*
X61507200Y-56690476D02*
X61554819Y-56833333D01*
X61554819Y-56833333D02*
X61554819Y-56928571D01*
X61554819Y-56928571D02*
X61507200Y-57071428D01*
X61507200Y-57071428D02*
X61411961Y-57166666D01*
X61411961Y-57166666D02*
X61316723Y-57214285D01*
X61316723Y-57214285D02*
X61126247Y-57261904D01*
X61126247Y-57261904D02*
X60983390Y-57261904D01*
X60983390Y-57261904D02*
X60792914Y-57214285D01*
X60792914Y-57214285D02*
X60697676Y-57166666D01*
X60697676Y-57166666D02*
X60602438Y-57071428D01*
X60602438Y-57071428D02*
X60554819Y-56928571D01*
X60554819Y-56928571D02*
X60554819Y-56833333D01*
X60554819Y-56833333D02*
X60602438Y-56690476D01*
X60602438Y-56690476D02*
X60650057Y-56642857D01*
X61554819Y-55690476D02*
X61554819Y-56261904D01*
X61554819Y-55976190D02*
X60554819Y-55976190D01*
X60554819Y-55976190D02*
X60697676Y-56071428D01*
X60697676Y-56071428D02*
X60792914Y-56166666D01*
X60792914Y-56166666D02*
X60840533Y-56261904D01*
X61554819Y-55214285D02*
X61554819Y-55023809D01*
X61554819Y-55023809D02*
X61507200Y-54928571D01*
X61507200Y-54928571D02*
X61459580Y-54880952D01*
X61459580Y-54880952D02*
X61316723Y-54785714D01*
X61316723Y-54785714D02*
X61126247Y-54738095D01*
X61126247Y-54738095D02*
X60745295Y-54738095D01*
X60745295Y-54738095D02*
X60650057Y-54785714D01*
X60650057Y-54785714D02*
X60602438Y-54833333D01*
X60602438Y-54833333D02*
X60554819Y-54928571D01*
X60554819Y-54928571D02*
X60554819Y-55119047D01*
X60554819Y-55119047D02*
X60602438Y-55214285D01*
X60602438Y-55214285D02*
X60650057Y-55261904D01*
X60650057Y-55261904D02*
X60745295Y-55309523D01*
X60745295Y-55309523D02*
X60983390Y-55309523D01*
X60983390Y-55309523D02*
X61078628Y-55261904D01*
X61078628Y-55261904D02*
X61126247Y-55214285D01*
X61126247Y-55214285D02*
X61173866Y-55119047D01*
X61173866Y-55119047D02*
X61173866Y-54928571D01*
X61173866Y-54928571D02*
X61126247Y-54833333D01*
X61126247Y-54833333D02*
X61078628Y-54785714D01*
X61078628Y-54785714D02*
X60983390Y-54738095D01*
X64033333Y-83354819D02*
X63700000Y-82878628D01*
X63461905Y-83354819D02*
X63461905Y-82354819D01*
X63461905Y-82354819D02*
X63842857Y-82354819D01*
X63842857Y-82354819D02*
X63938095Y-82402438D01*
X63938095Y-82402438D02*
X63985714Y-82450057D01*
X63985714Y-82450057D02*
X64033333Y-82545295D01*
X64033333Y-82545295D02*
X64033333Y-82688152D01*
X64033333Y-82688152D02*
X63985714Y-82783390D01*
X63985714Y-82783390D02*
X63938095Y-82831009D01*
X63938095Y-82831009D02*
X63842857Y-82878628D01*
X63842857Y-82878628D02*
X63461905Y-82878628D01*
X64414286Y-82450057D02*
X64461905Y-82402438D01*
X64461905Y-82402438D02*
X64557143Y-82354819D01*
X64557143Y-82354819D02*
X64795238Y-82354819D01*
X64795238Y-82354819D02*
X64890476Y-82402438D01*
X64890476Y-82402438D02*
X64938095Y-82450057D01*
X64938095Y-82450057D02*
X64985714Y-82545295D01*
X64985714Y-82545295D02*
X64985714Y-82640533D01*
X64985714Y-82640533D02*
X64938095Y-82783390D01*
X64938095Y-82783390D02*
X64366667Y-83354819D01*
X64366667Y-83354819D02*
X64985714Y-83354819D01*
X91059580Y-112866666D02*
X91107200Y-112914285D01*
X91107200Y-112914285D02*
X91154819Y-113057142D01*
X91154819Y-113057142D02*
X91154819Y-113152380D01*
X91154819Y-113152380D02*
X91107200Y-113295237D01*
X91107200Y-113295237D02*
X91011961Y-113390475D01*
X91011961Y-113390475D02*
X90916723Y-113438094D01*
X90916723Y-113438094D02*
X90726247Y-113485713D01*
X90726247Y-113485713D02*
X90583390Y-113485713D01*
X90583390Y-113485713D02*
X90392914Y-113438094D01*
X90392914Y-113438094D02*
X90297676Y-113390475D01*
X90297676Y-113390475D02*
X90202438Y-113295237D01*
X90202438Y-113295237D02*
X90154819Y-113152380D01*
X90154819Y-113152380D02*
X90154819Y-113057142D01*
X90154819Y-113057142D02*
X90202438Y-112914285D01*
X90202438Y-112914285D02*
X90250057Y-112866666D01*
X90583390Y-112295237D02*
X90535771Y-112390475D01*
X90535771Y-112390475D02*
X90488152Y-112438094D01*
X90488152Y-112438094D02*
X90392914Y-112485713D01*
X90392914Y-112485713D02*
X90345295Y-112485713D01*
X90345295Y-112485713D02*
X90250057Y-112438094D01*
X90250057Y-112438094D02*
X90202438Y-112390475D01*
X90202438Y-112390475D02*
X90154819Y-112295237D01*
X90154819Y-112295237D02*
X90154819Y-112104761D01*
X90154819Y-112104761D02*
X90202438Y-112009523D01*
X90202438Y-112009523D02*
X90250057Y-111961904D01*
X90250057Y-111961904D02*
X90345295Y-111914285D01*
X90345295Y-111914285D02*
X90392914Y-111914285D01*
X90392914Y-111914285D02*
X90488152Y-111961904D01*
X90488152Y-111961904D02*
X90535771Y-112009523D01*
X90535771Y-112009523D02*
X90583390Y-112104761D01*
X90583390Y-112104761D02*
X90583390Y-112295237D01*
X90583390Y-112295237D02*
X90631009Y-112390475D01*
X90631009Y-112390475D02*
X90678628Y-112438094D01*
X90678628Y-112438094D02*
X90773866Y-112485713D01*
X90773866Y-112485713D02*
X90964342Y-112485713D01*
X90964342Y-112485713D02*
X91059580Y-112438094D01*
X91059580Y-112438094D02*
X91107200Y-112390475D01*
X91107200Y-112390475D02*
X91154819Y-112295237D01*
X91154819Y-112295237D02*
X91154819Y-112104761D01*
X91154819Y-112104761D02*
X91107200Y-112009523D01*
X91107200Y-112009523D02*
X91059580Y-111961904D01*
X91059580Y-111961904D02*
X90964342Y-111914285D01*
X90964342Y-111914285D02*
X90773866Y-111914285D01*
X90773866Y-111914285D02*
X90678628Y-111961904D01*
X90678628Y-111961904D02*
X90631009Y-112009523D01*
X90631009Y-112009523D02*
X90583390Y-112104761D01*
X99657142Y-59659580D02*
X99609523Y-59707200D01*
X99609523Y-59707200D02*
X99466666Y-59754819D01*
X99466666Y-59754819D02*
X99371428Y-59754819D01*
X99371428Y-59754819D02*
X99228571Y-59707200D01*
X99228571Y-59707200D02*
X99133333Y-59611961D01*
X99133333Y-59611961D02*
X99085714Y-59516723D01*
X99085714Y-59516723D02*
X99038095Y-59326247D01*
X99038095Y-59326247D02*
X99038095Y-59183390D01*
X99038095Y-59183390D02*
X99085714Y-58992914D01*
X99085714Y-58992914D02*
X99133333Y-58897676D01*
X99133333Y-58897676D02*
X99228571Y-58802438D01*
X99228571Y-58802438D02*
X99371428Y-58754819D01*
X99371428Y-58754819D02*
X99466666Y-58754819D01*
X99466666Y-58754819D02*
X99609523Y-58802438D01*
X99609523Y-58802438D02*
X99657142Y-58850057D01*
X100609523Y-59754819D02*
X100038095Y-59754819D01*
X100323809Y-59754819D02*
X100323809Y-58754819D01*
X100323809Y-58754819D02*
X100228571Y-58897676D01*
X100228571Y-58897676D02*
X100133333Y-58992914D01*
X100133333Y-58992914D02*
X100038095Y-59040533D01*
X100990476Y-58850057D02*
X101038095Y-58802438D01*
X101038095Y-58802438D02*
X101133333Y-58754819D01*
X101133333Y-58754819D02*
X101371428Y-58754819D01*
X101371428Y-58754819D02*
X101466666Y-58802438D01*
X101466666Y-58802438D02*
X101514285Y-58850057D01*
X101514285Y-58850057D02*
X101561904Y-58945295D01*
X101561904Y-58945295D02*
X101561904Y-59040533D01*
X101561904Y-59040533D02*
X101514285Y-59183390D01*
X101514285Y-59183390D02*
X100942857Y-59754819D01*
X100942857Y-59754819D02*
X101561904Y-59754819D01*
X93833333Y-83754819D02*
X93500000Y-83278628D01*
X93261905Y-83754819D02*
X93261905Y-82754819D01*
X93261905Y-82754819D02*
X93642857Y-82754819D01*
X93642857Y-82754819D02*
X93738095Y-82802438D01*
X93738095Y-82802438D02*
X93785714Y-82850057D01*
X93785714Y-82850057D02*
X93833333Y-82945295D01*
X93833333Y-82945295D02*
X93833333Y-83088152D01*
X93833333Y-83088152D02*
X93785714Y-83183390D01*
X93785714Y-83183390D02*
X93738095Y-83231009D01*
X93738095Y-83231009D02*
X93642857Y-83278628D01*
X93642857Y-83278628D02*
X93261905Y-83278628D01*
X94738095Y-82754819D02*
X94261905Y-82754819D01*
X94261905Y-82754819D02*
X94214286Y-83231009D01*
X94214286Y-83231009D02*
X94261905Y-83183390D01*
X94261905Y-83183390D02*
X94357143Y-83135771D01*
X94357143Y-83135771D02*
X94595238Y-83135771D01*
X94595238Y-83135771D02*
X94690476Y-83183390D01*
X94690476Y-83183390D02*
X94738095Y-83231009D01*
X94738095Y-83231009D02*
X94785714Y-83326247D01*
X94785714Y-83326247D02*
X94785714Y-83564342D01*
X94785714Y-83564342D02*
X94738095Y-83659580D01*
X94738095Y-83659580D02*
X94690476Y-83707200D01*
X94690476Y-83707200D02*
X94595238Y-83754819D01*
X94595238Y-83754819D02*
X94357143Y-83754819D01*
X94357143Y-83754819D02*
X94261905Y-83707200D01*
X94261905Y-83707200D02*
X94214286Y-83659580D01*
X79954819Y-46922857D02*
X79478628Y-47256190D01*
X79954819Y-47494285D02*
X78954819Y-47494285D01*
X78954819Y-47494285D02*
X78954819Y-47113333D01*
X78954819Y-47113333D02*
X79002438Y-47018095D01*
X79002438Y-47018095D02*
X79050057Y-46970476D01*
X79050057Y-46970476D02*
X79145295Y-46922857D01*
X79145295Y-46922857D02*
X79288152Y-46922857D01*
X79288152Y-46922857D02*
X79383390Y-46970476D01*
X79383390Y-46970476D02*
X79431009Y-47018095D01*
X79431009Y-47018095D02*
X79478628Y-47113333D01*
X79478628Y-47113333D02*
X79478628Y-47494285D01*
X79050057Y-46541904D02*
X79002438Y-46494285D01*
X79002438Y-46494285D02*
X78954819Y-46399047D01*
X78954819Y-46399047D02*
X78954819Y-46160952D01*
X78954819Y-46160952D02*
X79002438Y-46065714D01*
X79002438Y-46065714D02*
X79050057Y-46018095D01*
X79050057Y-46018095D02*
X79145295Y-45970476D01*
X79145295Y-45970476D02*
X79240533Y-45970476D01*
X79240533Y-45970476D02*
X79383390Y-46018095D01*
X79383390Y-46018095D02*
X79954819Y-46589523D01*
X79954819Y-46589523D02*
X79954819Y-45970476D01*
X78954819Y-45637142D02*
X78954819Y-44970476D01*
X78954819Y-44970476D02*
X79954819Y-45399047D01*
X72954819Y-89238094D02*
X71954819Y-89238094D01*
X71954819Y-89238094D02*
X71954819Y-88999999D01*
X71954819Y-88999999D02*
X72002438Y-88857142D01*
X72002438Y-88857142D02*
X72097676Y-88761904D01*
X72097676Y-88761904D02*
X72192914Y-88714285D01*
X72192914Y-88714285D02*
X72383390Y-88666666D01*
X72383390Y-88666666D02*
X72526247Y-88666666D01*
X72526247Y-88666666D02*
X72716723Y-88714285D01*
X72716723Y-88714285D02*
X72811961Y-88761904D01*
X72811961Y-88761904D02*
X72907200Y-88857142D01*
X72907200Y-88857142D02*
X72954819Y-88999999D01*
X72954819Y-88999999D02*
X72954819Y-89238094D01*
X72050057Y-88285713D02*
X72002438Y-88238094D01*
X72002438Y-88238094D02*
X71954819Y-88142856D01*
X71954819Y-88142856D02*
X71954819Y-87904761D01*
X71954819Y-87904761D02*
X72002438Y-87809523D01*
X72002438Y-87809523D02*
X72050057Y-87761904D01*
X72050057Y-87761904D02*
X72145295Y-87714285D01*
X72145295Y-87714285D02*
X72240533Y-87714285D01*
X72240533Y-87714285D02*
X72383390Y-87761904D01*
X72383390Y-87761904D02*
X72954819Y-88333332D01*
X72954819Y-88333332D02*
X72954819Y-87714285D01*
X81257142Y-132454819D02*
X80923809Y-131978628D01*
X80685714Y-132454819D02*
X80685714Y-131454819D01*
X80685714Y-131454819D02*
X81066666Y-131454819D01*
X81066666Y-131454819D02*
X81161904Y-131502438D01*
X81161904Y-131502438D02*
X81209523Y-131550057D01*
X81209523Y-131550057D02*
X81257142Y-131645295D01*
X81257142Y-131645295D02*
X81257142Y-131788152D01*
X81257142Y-131788152D02*
X81209523Y-131883390D01*
X81209523Y-131883390D02*
X81161904Y-131931009D01*
X81161904Y-131931009D02*
X81066666Y-131978628D01*
X81066666Y-131978628D02*
X80685714Y-131978628D01*
X82114285Y-131788152D02*
X82114285Y-132454819D01*
X81876190Y-131407200D02*
X81638095Y-132121485D01*
X81638095Y-132121485D02*
X82257142Y-132121485D01*
X82828571Y-131454819D02*
X82923809Y-131454819D01*
X82923809Y-131454819D02*
X83019047Y-131502438D01*
X83019047Y-131502438D02*
X83066666Y-131550057D01*
X83066666Y-131550057D02*
X83114285Y-131645295D01*
X83114285Y-131645295D02*
X83161904Y-131835771D01*
X83161904Y-131835771D02*
X83161904Y-132073866D01*
X83161904Y-132073866D02*
X83114285Y-132264342D01*
X83114285Y-132264342D02*
X83066666Y-132359580D01*
X83066666Y-132359580D02*
X83019047Y-132407200D01*
X83019047Y-132407200D02*
X82923809Y-132454819D01*
X82923809Y-132454819D02*
X82828571Y-132454819D01*
X82828571Y-132454819D02*
X82733333Y-132407200D01*
X82733333Y-132407200D02*
X82685714Y-132359580D01*
X82685714Y-132359580D02*
X82638095Y-132264342D01*
X82638095Y-132264342D02*
X82590476Y-132073866D01*
X82590476Y-132073866D02*
X82590476Y-131835771D01*
X82590476Y-131835771D02*
X82638095Y-131645295D01*
X82638095Y-131645295D02*
X82685714Y-131550057D01*
X82685714Y-131550057D02*
X82733333Y-131502438D01*
X82733333Y-131502438D02*
X82828571Y-131454819D01*
X92784819Y-73059523D02*
X93499104Y-73059523D01*
X93499104Y-73059523D02*
X93641961Y-73107142D01*
X93641961Y-73107142D02*
X93737200Y-73202380D01*
X93737200Y-73202380D02*
X93784819Y-73345237D01*
X93784819Y-73345237D02*
X93784819Y-73440475D01*
X93784819Y-72059523D02*
X93784819Y-72630951D01*
X93784819Y-72345237D02*
X92784819Y-72345237D01*
X92784819Y-72345237D02*
X92927676Y-72440475D01*
X92927676Y-72440475D02*
X93022914Y-72535713D01*
X93022914Y-72535713D02*
X93070533Y-72630951D01*
X93784819Y-71107142D02*
X93784819Y-71678570D01*
X93784819Y-71392856D02*
X92784819Y-71392856D01*
X92784819Y-71392856D02*
X92927676Y-71488094D01*
X92927676Y-71488094D02*
X93022914Y-71583332D01*
X93022914Y-71583332D02*
X93070533Y-71678570D01*
X75559580Y-59742857D02*
X75607200Y-59790476D01*
X75607200Y-59790476D02*
X75654819Y-59933333D01*
X75654819Y-59933333D02*
X75654819Y-60028571D01*
X75654819Y-60028571D02*
X75607200Y-60171428D01*
X75607200Y-60171428D02*
X75511961Y-60266666D01*
X75511961Y-60266666D02*
X75416723Y-60314285D01*
X75416723Y-60314285D02*
X75226247Y-60361904D01*
X75226247Y-60361904D02*
X75083390Y-60361904D01*
X75083390Y-60361904D02*
X74892914Y-60314285D01*
X74892914Y-60314285D02*
X74797676Y-60266666D01*
X74797676Y-60266666D02*
X74702438Y-60171428D01*
X74702438Y-60171428D02*
X74654819Y-60028571D01*
X74654819Y-60028571D02*
X74654819Y-59933333D01*
X74654819Y-59933333D02*
X74702438Y-59790476D01*
X74702438Y-59790476D02*
X74750057Y-59742857D01*
X75654819Y-58790476D02*
X75654819Y-59361904D01*
X75654819Y-59076190D02*
X74654819Y-59076190D01*
X74654819Y-59076190D02*
X74797676Y-59171428D01*
X74797676Y-59171428D02*
X74892914Y-59266666D01*
X74892914Y-59266666D02*
X74940533Y-59361904D01*
X75083390Y-58219047D02*
X75035771Y-58314285D01*
X75035771Y-58314285D02*
X74988152Y-58361904D01*
X74988152Y-58361904D02*
X74892914Y-58409523D01*
X74892914Y-58409523D02*
X74845295Y-58409523D01*
X74845295Y-58409523D02*
X74750057Y-58361904D01*
X74750057Y-58361904D02*
X74702438Y-58314285D01*
X74702438Y-58314285D02*
X74654819Y-58219047D01*
X74654819Y-58219047D02*
X74654819Y-58028571D01*
X74654819Y-58028571D02*
X74702438Y-57933333D01*
X74702438Y-57933333D02*
X74750057Y-57885714D01*
X74750057Y-57885714D02*
X74845295Y-57838095D01*
X74845295Y-57838095D02*
X74892914Y-57838095D01*
X74892914Y-57838095D02*
X74988152Y-57885714D01*
X74988152Y-57885714D02*
X75035771Y-57933333D01*
X75035771Y-57933333D02*
X75083390Y-58028571D01*
X75083390Y-58028571D02*
X75083390Y-58219047D01*
X75083390Y-58219047D02*
X75131009Y-58314285D01*
X75131009Y-58314285D02*
X75178628Y-58361904D01*
X75178628Y-58361904D02*
X75273866Y-58409523D01*
X75273866Y-58409523D02*
X75464342Y-58409523D01*
X75464342Y-58409523D02*
X75559580Y-58361904D01*
X75559580Y-58361904D02*
X75607200Y-58314285D01*
X75607200Y-58314285D02*
X75654819Y-58219047D01*
X75654819Y-58219047D02*
X75654819Y-58028571D01*
X75654819Y-58028571D02*
X75607200Y-57933333D01*
X75607200Y-57933333D02*
X75559580Y-57885714D01*
X75559580Y-57885714D02*
X75464342Y-57838095D01*
X75464342Y-57838095D02*
X75273866Y-57838095D01*
X75273866Y-57838095D02*
X75178628Y-57885714D01*
X75178628Y-57885714D02*
X75131009Y-57933333D01*
X75131009Y-57933333D02*
X75083390Y-58028571D01*
X60814286Y-76454819D02*
X61385714Y-76454819D01*
X61100000Y-77454819D02*
X61100000Y-76454819D01*
X61719048Y-77454819D02*
X61719048Y-76454819D01*
X61719048Y-76931009D02*
X62290476Y-76931009D01*
X62290476Y-77454819D02*
X62290476Y-76454819D01*
X63195238Y-76788152D02*
X63195238Y-77454819D01*
X62957143Y-76407200D02*
X62719048Y-77121485D01*
X62719048Y-77121485D02*
X63338095Y-77121485D01*
X61654819Y-110922857D02*
X61178628Y-111256190D01*
X61654819Y-111494285D02*
X60654819Y-111494285D01*
X60654819Y-111494285D02*
X60654819Y-111113333D01*
X60654819Y-111113333D02*
X60702438Y-111018095D01*
X60702438Y-111018095D02*
X60750057Y-110970476D01*
X60750057Y-110970476D02*
X60845295Y-110922857D01*
X60845295Y-110922857D02*
X60988152Y-110922857D01*
X60988152Y-110922857D02*
X61083390Y-110970476D01*
X61083390Y-110970476D02*
X61131009Y-111018095D01*
X61131009Y-111018095D02*
X61178628Y-111113333D01*
X61178628Y-111113333D02*
X61178628Y-111494285D01*
X61654819Y-109970476D02*
X61654819Y-110541904D01*
X61654819Y-110256190D02*
X60654819Y-110256190D01*
X60654819Y-110256190D02*
X60797676Y-110351428D01*
X60797676Y-110351428D02*
X60892914Y-110446666D01*
X60892914Y-110446666D02*
X60940533Y-110541904D01*
X60654819Y-109637142D02*
X60654819Y-109018095D01*
X60654819Y-109018095D02*
X61035771Y-109351428D01*
X61035771Y-109351428D02*
X61035771Y-109208571D01*
X61035771Y-109208571D02*
X61083390Y-109113333D01*
X61083390Y-109113333D02*
X61131009Y-109065714D01*
X61131009Y-109065714D02*
X61226247Y-109018095D01*
X61226247Y-109018095D02*
X61464342Y-109018095D01*
X61464342Y-109018095D02*
X61559580Y-109065714D01*
X61559580Y-109065714D02*
X61607200Y-109113333D01*
X61607200Y-109113333D02*
X61654819Y-109208571D01*
X61654819Y-109208571D02*
X61654819Y-109494285D01*
X61654819Y-109494285D02*
X61607200Y-109589523D01*
X61607200Y-109589523D02*
X61559580Y-109637142D01*
X58554819Y-110922857D02*
X58078628Y-111256190D01*
X58554819Y-111494285D02*
X57554819Y-111494285D01*
X57554819Y-111494285D02*
X57554819Y-111113333D01*
X57554819Y-111113333D02*
X57602438Y-111018095D01*
X57602438Y-111018095D02*
X57650057Y-110970476D01*
X57650057Y-110970476D02*
X57745295Y-110922857D01*
X57745295Y-110922857D02*
X57888152Y-110922857D01*
X57888152Y-110922857D02*
X57983390Y-110970476D01*
X57983390Y-110970476D02*
X58031009Y-111018095D01*
X58031009Y-111018095D02*
X58078628Y-111113333D01*
X58078628Y-111113333D02*
X58078628Y-111494285D01*
X58554819Y-109970476D02*
X58554819Y-110541904D01*
X58554819Y-110256190D02*
X57554819Y-110256190D01*
X57554819Y-110256190D02*
X57697676Y-110351428D01*
X57697676Y-110351428D02*
X57792914Y-110446666D01*
X57792914Y-110446666D02*
X57840533Y-110541904D01*
X57554819Y-109065714D02*
X57554819Y-109541904D01*
X57554819Y-109541904D02*
X58031009Y-109589523D01*
X58031009Y-109589523D02*
X57983390Y-109541904D01*
X57983390Y-109541904D02*
X57935771Y-109446666D01*
X57935771Y-109446666D02*
X57935771Y-109208571D01*
X57935771Y-109208571D02*
X57983390Y-109113333D01*
X57983390Y-109113333D02*
X58031009Y-109065714D01*
X58031009Y-109065714D02*
X58126247Y-109018095D01*
X58126247Y-109018095D02*
X58364342Y-109018095D01*
X58364342Y-109018095D02*
X58459580Y-109065714D01*
X58459580Y-109065714D02*
X58507200Y-109113333D01*
X58507200Y-109113333D02*
X58554819Y-109208571D01*
X58554819Y-109208571D02*
X58554819Y-109446666D01*
X58554819Y-109446666D02*
X58507200Y-109541904D01*
X58507200Y-109541904D02*
X58459580Y-109589523D01*
X84954819Y-110486666D02*
X84478628Y-110819999D01*
X84954819Y-111058094D02*
X83954819Y-111058094D01*
X83954819Y-111058094D02*
X83954819Y-110677142D01*
X83954819Y-110677142D02*
X84002438Y-110581904D01*
X84002438Y-110581904D02*
X84050057Y-110534285D01*
X84050057Y-110534285D02*
X84145295Y-110486666D01*
X84145295Y-110486666D02*
X84288152Y-110486666D01*
X84288152Y-110486666D02*
X84383390Y-110534285D01*
X84383390Y-110534285D02*
X84431009Y-110581904D01*
X84431009Y-110581904D02*
X84478628Y-110677142D01*
X84478628Y-110677142D02*
X84478628Y-111058094D01*
X83954819Y-109629523D02*
X83954819Y-109819999D01*
X83954819Y-109819999D02*
X84002438Y-109915237D01*
X84002438Y-109915237D02*
X84050057Y-109962856D01*
X84050057Y-109962856D02*
X84192914Y-110058094D01*
X84192914Y-110058094D02*
X84383390Y-110105713D01*
X84383390Y-110105713D02*
X84764342Y-110105713D01*
X84764342Y-110105713D02*
X84859580Y-110058094D01*
X84859580Y-110058094D02*
X84907200Y-110010475D01*
X84907200Y-110010475D02*
X84954819Y-109915237D01*
X84954819Y-109915237D02*
X84954819Y-109724761D01*
X84954819Y-109724761D02*
X84907200Y-109629523D01*
X84907200Y-109629523D02*
X84859580Y-109581904D01*
X84859580Y-109581904D02*
X84764342Y-109534285D01*
X84764342Y-109534285D02*
X84526247Y-109534285D01*
X84526247Y-109534285D02*
X84431009Y-109581904D01*
X84431009Y-109581904D02*
X84383390Y-109629523D01*
X84383390Y-109629523D02*
X84335771Y-109724761D01*
X84335771Y-109724761D02*
X84335771Y-109915237D01*
X84335771Y-109915237D02*
X84383390Y-110010475D01*
X84383390Y-110010475D02*
X84431009Y-110058094D01*
X84431009Y-110058094D02*
X84526247Y-110105713D01*
X99538095Y-46054819D02*
X99538095Y-46864342D01*
X99538095Y-46864342D02*
X99585714Y-46959580D01*
X99585714Y-46959580D02*
X99633333Y-47007200D01*
X99633333Y-47007200D02*
X99728571Y-47054819D01*
X99728571Y-47054819D02*
X99919047Y-47054819D01*
X99919047Y-47054819D02*
X100014285Y-47007200D01*
X100014285Y-47007200D02*
X100061904Y-46959580D01*
X100061904Y-46959580D02*
X100109523Y-46864342D01*
X100109523Y-46864342D02*
X100109523Y-46054819D01*
X101014285Y-46054819D02*
X100823809Y-46054819D01*
X100823809Y-46054819D02*
X100728571Y-46102438D01*
X100728571Y-46102438D02*
X100680952Y-46150057D01*
X100680952Y-46150057D02*
X100585714Y-46292914D01*
X100585714Y-46292914D02*
X100538095Y-46483390D01*
X100538095Y-46483390D02*
X100538095Y-46864342D01*
X100538095Y-46864342D02*
X100585714Y-46959580D01*
X100585714Y-46959580D02*
X100633333Y-47007200D01*
X100633333Y-47007200D02*
X100728571Y-47054819D01*
X100728571Y-47054819D02*
X100919047Y-47054819D01*
X100919047Y-47054819D02*
X101014285Y-47007200D01*
X101014285Y-47007200D02*
X101061904Y-46959580D01*
X101061904Y-46959580D02*
X101109523Y-46864342D01*
X101109523Y-46864342D02*
X101109523Y-46626247D01*
X101109523Y-46626247D02*
X101061904Y-46531009D01*
X101061904Y-46531009D02*
X101014285Y-46483390D01*
X101014285Y-46483390D02*
X100919047Y-46435771D01*
X100919047Y-46435771D02*
X100728571Y-46435771D01*
X100728571Y-46435771D02*
X100633333Y-46483390D01*
X100633333Y-46483390D02*
X100585714Y-46531009D01*
X100585714Y-46531009D02*
X100538095Y-46626247D01*
X71759580Y-131742857D02*
X71807200Y-131790476D01*
X71807200Y-131790476D02*
X71854819Y-131933333D01*
X71854819Y-131933333D02*
X71854819Y-132028571D01*
X71854819Y-132028571D02*
X71807200Y-132171428D01*
X71807200Y-132171428D02*
X71711961Y-132266666D01*
X71711961Y-132266666D02*
X71616723Y-132314285D01*
X71616723Y-132314285D02*
X71426247Y-132361904D01*
X71426247Y-132361904D02*
X71283390Y-132361904D01*
X71283390Y-132361904D02*
X71092914Y-132314285D01*
X71092914Y-132314285D02*
X70997676Y-132266666D01*
X70997676Y-132266666D02*
X70902438Y-132171428D01*
X70902438Y-132171428D02*
X70854819Y-132028571D01*
X70854819Y-132028571D02*
X70854819Y-131933333D01*
X70854819Y-131933333D02*
X70902438Y-131790476D01*
X70902438Y-131790476D02*
X70950057Y-131742857D01*
X71854819Y-130790476D02*
X71854819Y-131361904D01*
X71854819Y-131076190D02*
X70854819Y-131076190D01*
X70854819Y-131076190D02*
X70997676Y-131171428D01*
X70997676Y-131171428D02*
X71092914Y-131266666D01*
X71092914Y-131266666D02*
X71140533Y-131361904D01*
X70854819Y-130457142D02*
X70854819Y-129790476D01*
X70854819Y-129790476D02*
X71854819Y-130219047D01*
X64754819Y-110942857D02*
X64278628Y-111276190D01*
X64754819Y-111514285D02*
X63754819Y-111514285D01*
X63754819Y-111514285D02*
X63754819Y-111133333D01*
X63754819Y-111133333D02*
X63802438Y-111038095D01*
X63802438Y-111038095D02*
X63850057Y-110990476D01*
X63850057Y-110990476D02*
X63945295Y-110942857D01*
X63945295Y-110942857D02*
X64088152Y-110942857D01*
X64088152Y-110942857D02*
X64183390Y-110990476D01*
X64183390Y-110990476D02*
X64231009Y-111038095D01*
X64231009Y-111038095D02*
X64278628Y-111133333D01*
X64278628Y-111133333D02*
X64278628Y-111514285D01*
X64754819Y-109990476D02*
X64754819Y-110561904D01*
X64754819Y-110276190D02*
X63754819Y-110276190D01*
X63754819Y-110276190D02*
X63897676Y-110371428D01*
X63897676Y-110371428D02*
X63992914Y-110466666D01*
X63992914Y-110466666D02*
X64040533Y-110561904D01*
X64754819Y-109038095D02*
X64754819Y-109609523D01*
X64754819Y-109323809D02*
X63754819Y-109323809D01*
X63754819Y-109323809D02*
X63897676Y-109419047D01*
X63897676Y-109419047D02*
X63992914Y-109514285D01*
X63992914Y-109514285D02*
X64040533Y-109609523D01*
X98454819Y-134142857D02*
X97978628Y-134476190D01*
X98454819Y-134714285D02*
X97454819Y-134714285D01*
X97454819Y-134714285D02*
X97454819Y-134333333D01*
X97454819Y-134333333D02*
X97502438Y-134238095D01*
X97502438Y-134238095D02*
X97550057Y-134190476D01*
X97550057Y-134190476D02*
X97645295Y-134142857D01*
X97645295Y-134142857D02*
X97788152Y-134142857D01*
X97788152Y-134142857D02*
X97883390Y-134190476D01*
X97883390Y-134190476D02*
X97931009Y-134238095D01*
X97931009Y-134238095D02*
X97978628Y-134333333D01*
X97978628Y-134333333D02*
X97978628Y-134714285D01*
X97788152Y-133285714D02*
X98454819Y-133285714D01*
X97407200Y-133523809D02*
X98121485Y-133761904D01*
X98121485Y-133761904D02*
X98121485Y-133142857D01*
X97788152Y-132333333D02*
X98454819Y-132333333D01*
X97407200Y-132571428D02*
X98121485Y-132809523D01*
X98121485Y-132809523D02*
X98121485Y-132190476D01*
X61014286Y-85154819D02*
X61585714Y-85154819D01*
X61300000Y-86154819D02*
X61300000Y-85154819D01*
X61919048Y-86154819D02*
X61919048Y-85154819D01*
X61919048Y-85631009D02*
X62490476Y-85631009D01*
X62490476Y-86154819D02*
X62490476Y-85154819D01*
X62919048Y-85250057D02*
X62966667Y-85202438D01*
X62966667Y-85202438D02*
X63061905Y-85154819D01*
X63061905Y-85154819D02*
X63300000Y-85154819D01*
X63300000Y-85154819D02*
X63395238Y-85202438D01*
X63395238Y-85202438D02*
X63442857Y-85250057D01*
X63442857Y-85250057D02*
X63490476Y-85345295D01*
X63490476Y-85345295D02*
X63490476Y-85440533D01*
X63490476Y-85440533D02*
X63442857Y-85583390D01*
X63442857Y-85583390D02*
X62871429Y-86154819D01*
X62871429Y-86154819D02*
X63490476Y-86154819D01*
X64013333Y-74654819D02*
X63680000Y-74178628D01*
X63441905Y-74654819D02*
X63441905Y-73654819D01*
X63441905Y-73654819D02*
X63822857Y-73654819D01*
X63822857Y-73654819D02*
X63918095Y-73702438D01*
X63918095Y-73702438D02*
X63965714Y-73750057D01*
X63965714Y-73750057D02*
X64013333Y-73845295D01*
X64013333Y-73845295D02*
X64013333Y-73988152D01*
X64013333Y-73988152D02*
X63965714Y-74083390D01*
X63965714Y-74083390D02*
X63918095Y-74131009D01*
X63918095Y-74131009D02*
X63822857Y-74178628D01*
X63822857Y-74178628D02*
X63441905Y-74178628D01*
X64346667Y-73654819D02*
X64965714Y-73654819D01*
X64965714Y-73654819D02*
X64632381Y-74035771D01*
X64632381Y-74035771D02*
X64775238Y-74035771D01*
X64775238Y-74035771D02*
X64870476Y-74083390D01*
X64870476Y-74083390D02*
X64918095Y-74131009D01*
X64918095Y-74131009D02*
X64965714Y-74226247D01*
X64965714Y-74226247D02*
X64965714Y-74464342D01*
X64965714Y-74464342D02*
X64918095Y-74559580D01*
X64918095Y-74559580D02*
X64870476Y-74607200D01*
X64870476Y-74607200D02*
X64775238Y-74654819D01*
X64775238Y-74654819D02*
X64489524Y-74654819D01*
X64489524Y-74654819D02*
X64394286Y-74607200D01*
X64394286Y-74607200D02*
X64346667Y-74559580D01*
X100554819Y-110962857D02*
X100078628Y-111296190D01*
X100554819Y-111534285D02*
X99554819Y-111534285D01*
X99554819Y-111534285D02*
X99554819Y-111153333D01*
X99554819Y-111153333D02*
X99602438Y-111058095D01*
X99602438Y-111058095D02*
X99650057Y-111010476D01*
X99650057Y-111010476D02*
X99745295Y-110962857D01*
X99745295Y-110962857D02*
X99888152Y-110962857D01*
X99888152Y-110962857D02*
X99983390Y-111010476D01*
X99983390Y-111010476D02*
X100031009Y-111058095D01*
X100031009Y-111058095D02*
X100078628Y-111153333D01*
X100078628Y-111153333D02*
X100078628Y-111534285D01*
X99554819Y-110629523D02*
X99554819Y-110010476D01*
X99554819Y-110010476D02*
X99935771Y-110343809D01*
X99935771Y-110343809D02*
X99935771Y-110200952D01*
X99935771Y-110200952D02*
X99983390Y-110105714D01*
X99983390Y-110105714D02*
X100031009Y-110058095D01*
X100031009Y-110058095D02*
X100126247Y-110010476D01*
X100126247Y-110010476D02*
X100364342Y-110010476D01*
X100364342Y-110010476D02*
X100459580Y-110058095D01*
X100459580Y-110058095D02*
X100507200Y-110105714D01*
X100507200Y-110105714D02*
X100554819Y-110200952D01*
X100554819Y-110200952D02*
X100554819Y-110486666D01*
X100554819Y-110486666D02*
X100507200Y-110581904D01*
X100507200Y-110581904D02*
X100459580Y-110629523D01*
X99888152Y-109153333D02*
X100554819Y-109153333D01*
X99507200Y-109391428D02*
X100221485Y-109629523D01*
X100221485Y-109629523D02*
X100221485Y-109010476D01*
X93833333Y-86854819D02*
X93500000Y-86378628D01*
X93261905Y-86854819D02*
X93261905Y-85854819D01*
X93261905Y-85854819D02*
X93642857Y-85854819D01*
X93642857Y-85854819D02*
X93738095Y-85902438D01*
X93738095Y-85902438D02*
X93785714Y-85950057D01*
X93785714Y-85950057D02*
X93833333Y-86045295D01*
X93833333Y-86045295D02*
X93833333Y-86188152D01*
X93833333Y-86188152D02*
X93785714Y-86283390D01*
X93785714Y-86283390D02*
X93738095Y-86331009D01*
X93738095Y-86331009D02*
X93642857Y-86378628D01*
X93642857Y-86378628D02*
X93261905Y-86378628D01*
X94166667Y-85854819D02*
X94833333Y-85854819D01*
X94833333Y-85854819D02*
X94404762Y-86854819D01*
X94159580Y-113342857D02*
X94207200Y-113390476D01*
X94207200Y-113390476D02*
X94254819Y-113533333D01*
X94254819Y-113533333D02*
X94254819Y-113628571D01*
X94254819Y-113628571D02*
X94207200Y-113771428D01*
X94207200Y-113771428D02*
X94111961Y-113866666D01*
X94111961Y-113866666D02*
X94016723Y-113914285D01*
X94016723Y-113914285D02*
X93826247Y-113961904D01*
X93826247Y-113961904D02*
X93683390Y-113961904D01*
X93683390Y-113961904D02*
X93492914Y-113914285D01*
X93492914Y-113914285D02*
X93397676Y-113866666D01*
X93397676Y-113866666D02*
X93302438Y-113771428D01*
X93302438Y-113771428D02*
X93254819Y-113628571D01*
X93254819Y-113628571D02*
X93254819Y-113533333D01*
X93254819Y-113533333D02*
X93302438Y-113390476D01*
X93302438Y-113390476D02*
X93350057Y-113342857D01*
X94254819Y-112390476D02*
X94254819Y-112961904D01*
X94254819Y-112676190D02*
X93254819Y-112676190D01*
X93254819Y-112676190D02*
X93397676Y-112771428D01*
X93397676Y-112771428D02*
X93492914Y-112866666D01*
X93492914Y-112866666D02*
X93540533Y-112961904D01*
X93588152Y-111533333D02*
X94254819Y-111533333D01*
X93207200Y-111771428D02*
X93921485Y-112009523D01*
X93921485Y-112009523D02*
X93921485Y-111390476D01*
X95159580Y-131742857D02*
X95207200Y-131790476D01*
X95207200Y-131790476D02*
X95254819Y-131933333D01*
X95254819Y-131933333D02*
X95254819Y-132028571D01*
X95254819Y-132028571D02*
X95207200Y-132171428D01*
X95207200Y-132171428D02*
X95111961Y-132266666D01*
X95111961Y-132266666D02*
X95016723Y-132314285D01*
X95016723Y-132314285D02*
X94826247Y-132361904D01*
X94826247Y-132361904D02*
X94683390Y-132361904D01*
X94683390Y-132361904D02*
X94492914Y-132314285D01*
X94492914Y-132314285D02*
X94397676Y-132266666D01*
X94397676Y-132266666D02*
X94302438Y-132171428D01*
X94302438Y-132171428D02*
X94254819Y-132028571D01*
X94254819Y-132028571D02*
X94254819Y-131933333D01*
X94254819Y-131933333D02*
X94302438Y-131790476D01*
X94302438Y-131790476D02*
X94350057Y-131742857D01*
X95254819Y-130790476D02*
X95254819Y-131361904D01*
X95254819Y-131076190D02*
X94254819Y-131076190D01*
X94254819Y-131076190D02*
X94397676Y-131171428D01*
X94397676Y-131171428D02*
X94492914Y-131266666D01*
X94492914Y-131266666D02*
X94540533Y-131361904D01*
X94254819Y-129885714D02*
X94254819Y-130361904D01*
X94254819Y-130361904D02*
X94731009Y-130409523D01*
X94731009Y-130409523D02*
X94683390Y-130361904D01*
X94683390Y-130361904D02*
X94635771Y-130266666D01*
X94635771Y-130266666D02*
X94635771Y-130028571D01*
X94635771Y-130028571D02*
X94683390Y-129933333D01*
X94683390Y-129933333D02*
X94731009Y-129885714D01*
X94731009Y-129885714D02*
X94826247Y-129838095D01*
X94826247Y-129838095D02*
X95064342Y-129838095D01*
X95064342Y-129838095D02*
X95159580Y-129885714D01*
X95159580Y-129885714D02*
X95207200Y-129933333D01*
X95207200Y-129933333D02*
X95254819Y-130028571D01*
X95254819Y-130028571D02*
X95254819Y-130266666D01*
X95254819Y-130266666D02*
X95207200Y-130361904D01*
X95207200Y-130361904D02*
X95159580Y-130409523D01*
X66554819Y-129161904D02*
X67364342Y-129161904D01*
X67364342Y-129161904D02*
X67459580Y-129114285D01*
X67459580Y-129114285D02*
X67507200Y-129066666D01*
X67507200Y-129066666D02*
X67554819Y-128971428D01*
X67554819Y-128971428D02*
X67554819Y-128780952D01*
X67554819Y-128780952D02*
X67507200Y-128685714D01*
X67507200Y-128685714D02*
X67459580Y-128638095D01*
X67459580Y-128638095D02*
X67364342Y-128590476D01*
X67364342Y-128590476D02*
X66554819Y-128590476D01*
X67554819Y-127590476D02*
X67554819Y-128161904D01*
X67554819Y-127876190D02*
X66554819Y-127876190D01*
X66554819Y-127876190D02*
X66697676Y-127971428D01*
X66697676Y-127971428D02*
X66792914Y-128066666D01*
X66792914Y-128066666D02*
X66840533Y-128161904D01*
X63933333Y-80254819D02*
X63600000Y-79778628D01*
X63361905Y-80254819D02*
X63361905Y-79254819D01*
X63361905Y-79254819D02*
X63742857Y-79254819D01*
X63742857Y-79254819D02*
X63838095Y-79302438D01*
X63838095Y-79302438D02*
X63885714Y-79350057D01*
X63885714Y-79350057D02*
X63933333Y-79445295D01*
X63933333Y-79445295D02*
X63933333Y-79588152D01*
X63933333Y-79588152D02*
X63885714Y-79683390D01*
X63885714Y-79683390D02*
X63838095Y-79731009D01*
X63838095Y-79731009D02*
X63742857Y-79778628D01*
X63742857Y-79778628D02*
X63361905Y-79778628D01*
X64790476Y-79588152D02*
X64790476Y-80254819D01*
X64552381Y-79207200D02*
X64314286Y-79921485D01*
X64314286Y-79921485D02*
X64933333Y-79921485D01*
X73959580Y-112866666D02*
X74007200Y-112914285D01*
X74007200Y-112914285D02*
X74054819Y-113057142D01*
X74054819Y-113057142D02*
X74054819Y-113152380D01*
X74054819Y-113152380D02*
X74007200Y-113295237D01*
X74007200Y-113295237D02*
X73911961Y-113390475D01*
X73911961Y-113390475D02*
X73816723Y-113438094D01*
X73816723Y-113438094D02*
X73626247Y-113485713D01*
X73626247Y-113485713D02*
X73483390Y-113485713D01*
X73483390Y-113485713D02*
X73292914Y-113438094D01*
X73292914Y-113438094D02*
X73197676Y-113390475D01*
X73197676Y-113390475D02*
X73102438Y-113295237D01*
X73102438Y-113295237D02*
X73054819Y-113152380D01*
X73054819Y-113152380D02*
X73054819Y-113057142D01*
X73054819Y-113057142D02*
X73102438Y-112914285D01*
X73102438Y-112914285D02*
X73150057Y-112866666D01*
X73054819Y-112533332D02*
X73054819Y-111914285D01*
X73054819Y-111914285D02*
X73435771Y-112247618D01*
X73435771Y-112247618D02*
X73435771Y-112104761D01*
X73435771Y-112104761D02*
X73483390Y-112009523D01*
X73483390Y-112009523D02*
X73531009Y-111961904D01*
X73531009Y-111961904D02*
X73626247Y-111914285D01*
X73626247Y-111914285D02*
X73864342Y-111914285D01*
X73864342Y-111914285D02*
X73959580Y-111961904D01*
X73959580Y-111961904D02*
X74007200Y-112009523D01*
X74007200Y-112009523D02*
X74054819Y-112104761D01*
X74054819Y-112104761D02*
X74054819Y-112390475D01*
X74054819Y-112390475D02*
X74007200Y-112485713D01*
X74007200Y-112485713D02*
X73959580Y-112533332D01*
X61354819Y-99546904D02*
X62164342Y-99546904D01*
X62164342Y-99546904D02*
X62259580Y-99499285D01*
X62259580Y-99499285D02*
X62307200Y-99451666D01*
X62307200Y-99451666D02*
X62354819Y-99356428D01*
X62354819Y-99356428D02*
X62354819Y-99165952D01*
X62354819Y-99165952D02*
X62307200Y-99070714D01*
X62307200Y-99070714D02*
X62259580Y-99023095D01*
X62259580Y-99023095D02*
X62164342Y-98975476D01*
X62164342Y-98975476D02*
X61354819Y-98975476D01*
X61450057Y-98546904D02*
X61402438Y-98499285D01*
X61402438Y-98499285D02*
X61354819Y-98404047D01*
X61354819Y-98404047D02*
X61354819Y-98165952D01*
X61354819Y-98165952D02*
X61402438Y-98070714D01*
X61402438Y-98070714D02*
X61450057Y-98023095D01*
X61450057Y-98023095D02*
X61545295Y-97975476D01*
X61545295Y-97975476D02*
X61640533Y-97975476D01*
X61640533Y-97975476D02*
X61783390Y-98023095D01*
X61783390Y-98023095D02*
X62354819Y-98594523D01*
X62354819Y-98594523D02*
X62354819Y-97975476D01*
X103354819Y-112328094D02*
X102354819Y-112328094D01*
X102354819Y-112328094D02*
X102354819Y-112089999D01*
X102354819Y-112089999D02*
X102402438Y-111947142D01*
X102402438Y-111947142D02*
X102497676Y-111851904D01*
X102497676Y-111851904D02*
X102592914Y-111804285D01*
X102592914Y-111804285D02*
X102783390Y-111756666D01*
X102783390Y-111756666D02*
X102926247Y-111756666D01*
X102926247Y-111756666D02*
X103116723Y-111804285D01*
X103116723Y-111804285D02*
X103211961Y-111851904D01*
X103211961Y-111851904D02*
X103307200Y-111947142D01*
X103307200Y-111947142D02*
X103354819Y-112089999D01*
X103354819Y-112089999D02*
X103354819Y-112328094D01*
X102688152Y-110899523D02*
X103354819Y-110899523D01*
X102307200Y-111137618D02*
X103021485Y-111375713D01*
X103021485Y-111375713D02*
X103021485Y-110756666D01*
X103054819Y-67622857D02*
X102578628Y-67956190D01*
X103054819Y-68194285D02*
X102054819Y-68194285D01*
X102054819Y-68194285D02*
X102054819Y-67813333D01*
X102054819Y-67813333D02*
X102102438Y-67718095D01*
X102102438Y-67718095D02*
X102150057Y-67670476D01*
X102150057Y-67670476D02*
X102245295Y-67622857D01*
X102245295Y-67622857D02*
X102388152Y-67622857D01*
X102388152Y-67622857D02*
X102483390Y-67670476D01*
X102483390Y-67670476D02*
X102531009Y-67718095D01*
X102531009Y-67718095D02*
X102578628Y-67813333D01*
X102578628Y-67813333D02*
X102578628Y-68194285D01*
X102054819Y-67289523D02*
X102054819Y-66670476D01*
X102054819Y-66670476D02*
X102435771Y-67003809D01*
X102435771Y-67003809D02*
X102435771Y-66860952D01*
X102435771Y-66860952D02*
X102483390Y-66765714D01*
X102483390Y-66765714D02*
X102531009Y-66718095D01*
X102531009Y-66718095D02*
X102626247Y-66670476D01*
X102626247Y-66670476D02*
X102864342Y-66670476D01*
X102864342Y-66670476D02*
X102959580Y-66718095D01*
X102959580Y-66718095D02*
X103007200Y-66765714D01*
X103007200Y-66765714D02*
X103054819Y-66860952D01*
X103054819Y-66860952D02*
X103054819Y-67146666D01*
X103054819Y-67146666D02*
X103007200Y-67241904D01*
X103007200Y-67241904D02*
X102959580Y-67289523D01*
X102054819Y-65813333D02*
X102054819Y-66003809D01*
X102054819Y-66003809D02*
X102102438Y-66099047D01*
X102102438Y-66099047D02*
X102150057Y-66146666D01*
X102150057Y-66146666D02*
X102292914Y-66241904D01*
X102292914Y-66241904D02*
X102483390Y-66289523D01*
X102483390Y-66289523D02*
X102864342Y-66289523D01*
X102864342Y-66289523D02*
X102959580Y-66241904D01*
X102959580Y-66241904D02*
X103007200Y-66194285D01*
X103007200Y-66194285D02*
X103054819Y-66099047D01*
X103054819Y-66099047D02*
X103054819Y-65908571D01*
X103054819Y-65908571D02*
X103007200Y-65813333D01*
X103007200Y-65813333D02*
X102959580Y-65765714D01*
X102959580Y-65765714D02*
X102864342Y-65718095D01*
X102864342Y-65718095D02*
X102626247Y-65718095D01*
X102626247Y-65718095D02*
X102531009Y-65765714D01*
X102531009Y-65765714D02*
X102483390Y-65813333D01*
X102483390Y-65813333D02*
X102435771Y-65908571D01*
X102435771Y-65908571D02*
X102435771Y-66099047D01*
X102435771Y-66099047D02*
X102483390Y-66194285D01*
X102483390Y-66194285D02*
X102531009Y-66241904D01*
X102531009Y-66241904D02*
X102626247Y-66289523D01*
X72759580Y-48416666D02*
X72807200Y-48464285D01*
X72807200Y-48464285D02*
X72854819Y-48607142D01*
X72854819Y-48607142D02*
X72854819Y-48702380D01*
X72854819Y-48702380D02*
X72807200Y-48845237D01*
X72807200Y-48845237D02*
X72711961Y-48940475D01*
X72711961Y-48940475D02*
X72616723Y-48988094D01*
X72616723Y-48988094D02*
X72426247Y-49035713D01*
X72426247Y-49035713D02*
X72283390Y-49035713D01*
X72283390Y-49035713D02*
X72092914Y-48988094D01*
X72092914Y-48988094D02*
X71997676Y-48940475D01*
X71997676Y-48940475D02*
X71902438Y-48845237D01*
X71902438Y-48845237D02*
X71854819Y-48702380D01*
X71854819Y-48702380D02*
X71854819Y-48607142D01*
X71854819Y-48607142D02*
X71902438Y-48464285D01*
X71902438Y-48464285D02*
X71950057Y-48416666D01*
X71854819Y-47511904D02*
X71854819Y-47988094D01*
X71854819Y-47988094D02*
X72331009Y-48035713D01*
X72331009Y-48035713D02*
X72283390Y-47988094D01*
X72283390Y-47988094D02*
X72235771Y-47892856D01*
X72235771Y-47892856D02*
X72235771Y-47654761D01*
X72235771Y-47654761D02*
X72283390Y-47559523D01*
X72283390Y-47559523D02*
X72331009Y-47511904D01*
X72331009Y-47511904D02*
X72426247Y-47464285D01*
X72426247Y-47464285D02*
X72664342Y-47464285D01*
X72664342Y-47464285D02*
X72759580Y-47511904D01*
X72759580Y-47511904D02*
X72807200Y-47559523D01*
X72807200Y-47559523D02*
X72854819Y-47654761D01*
X72854819Y-47654761D02*
X72854819Y-47892856D01*
X72854819Y-47892856D02*
X72807200Y-47988094D01*
X72807200Y-47988094D02*
X72759580Y-48035713D01*
X70833333Y-68059580D02*
X70785714Y-68107200D01*
X70785714Y-68107200D02*
X70642857Y-68154819D01*
X70642857Y-68154819D02*
X70547619Y-68154819D01*
X70547619Y-68154819D02*
X70404762Y-68107200D01*
X70404762Y-68107200D02*
X70309524Y-68011961D01*
X70309524Y-68011961D02*
X70261905Y-67916723D01*
X70261905Y-67916723D02*
X70214286Y-67726247D01*
X70214286Y-67726247D02*
X70214286Y-67583390D01*
X70214286Y-67583390D02*
X70261905Y-67392914D01*
X70261905Y-67392914D02*
X70309524Y-67297676D01*
X70309524Y-67297676D02*
X70404762Y-67202438D01*
X70404762Y-67202438D02*
X70547619Y-67154819D01*
X70547619Y-67154819D02*
X70642857Y-67154819D01*
X70642857Y-67154819D02*
X70785714Y-67202438D01*
X70785714Y-67202438D02*
X70833333Y-67250057D01*
X71690476Y-67488152D02*
X71690476Y-68154819D01*
X71452381Y-67107200D02*
X71214286Y-67821485D01*
X71214286Y-67821485D02*
X71833333Y-67821485D01*
X82054819Y-129061904D02*
X82864342Y-129061904D01*
X82864342Y-129061904D02*
X82959580Y-129014285D01*
X82959580Y-129014285D02*
X83007200Y-128966666D01*
X83007200Y-128966666D02*
X83054819Y-128871428D01*
X83054819Y-128871428D02*
X83054819Y-128680952D01*
X83054819Y-128680952D02*
X83007200Y-128585714D01*
X83007200Y-128585714D02*
X82959580Y-128538095D01*
X82959580Y-128538095D02*
X82864342Y-128490476D01*
X82864342Y-128490476D02*
X82054819Y-128490476D01*
X82054819Y-128109523D02*
X82054819Y-127442857D01*
X82054819Y-127442857D02*
X83054819Y-127871428D01*
X89657142Y-57954819D02*
X89323809Y-57478628D01*
X89085714Y-57954819D02*
X89085714Y-56954819D01*
X89085714Y-56954819D02*
X89466666Y-56954819D01*
X89466666Y-56954819D02*
X89561904Y-57002438D01*
X89561904Y-57002438D02*
X89609523Y-57050057D01*
X89609523Y-57050057D02*
X89657142Y-57145295D01*
X89657142Y-57145295D02*
X89657142Y-57288152D01*
X89657142Y-57288152D02*
X89609523Y-57383390D01*
X89609523Y-57383390D02*
X89561904Y-57431009D01*
X89561904Y-57431009D02*
X89466666Y-57478628D01*
X89466666Y-57478628D02*
X89085714Y-57478628D01*
X89990476Y-56954819D02*
X90609523Y-56954819D01*
X90609523Y-56954819D02*
X90276190Y-57335771D01*
X90276190Y-57335771D02*
X90419047Y-57335771D01*
X90419047Y-57335771D02*
X90514285Y-57383390D01*
X90514285Y-57383390D02*
X90561904Y-57431009D01*
X90561904Y-57431009D02*
X90609523Y-57526247D01*
X90609523Y-57526247D02*
X90609523Y-57764342D01*
X90609523Y-57764342D02*
X90561904Y-57859580D01*
X90561904Y-57859580D02*
X90514285Y-57907200D01*
X90514285Y-57907200D02*
X90419047Y-57954819D01*
X90419047Y-57954819D02*
X90133333Y-57954819D01*
X90133333Y-57954819D02*
X90038095Y-57907200D01*
X90038095Y-57907200D02*
X89990476Y-57859580D01*
X90990476Y-57050057D02*
X91038095Y-57002438D01*
X91038095Y-57002438D02*
X91133333Y-56954819D01*
X91133333Y-56954819D02*
X91371428Y-56954819D01*
X91371428Y-56954819D02*
X91466666Y-57002438D01*
X91466666Y-57002438D02*
X91514285Y-57050057D01*
X91514285Y-57050057D02*
X91561904Y-57145295D01*
X91561904Y-57145295D02*
X91561904Y-57240533D01*
X91561904Y-57240533D02*
X91514285Y-57383390D01*
X91514285Y-57383390D02*
X90942857Y-57954819D01*
X90942857Y-57954819D02*
X91561904Y-57954819D01*
X93833333Y-78154819D02*
X93500000Y-77678628D01*
X93261905Y-78154819D02*
X93261905Y-77154819D01*
X93261905Y-77154819D02*
X93642857Y-77154819D01*
X93642857Y-77154819D02*
X93738095Y-77202438D01*
X93738095Y-77202438D02*
X93785714Y-77250057D01*
X93785714Y-77250057D02*
X93833333Y-77345295D01*
X93833333Y-77345295D02*
X93833333Y-77488152D01*
X93833333Y-77488152D02*
X93785714Y-77583390D01*
X93785714Y-77583390D02*
X93738095Y-77631009D01*
X93738095Y-77631009D02*
X93642857Y-77678628D01*
X93642857Y-77678628D02*
X93261905Y-77678628D01*
X94785714Y-78154819D02*
X94214286Y-78154819D01*
X94500000Y-78154819D02*
X94500000Y-77154819D01*
X94500000Y-77154819D02*
X94404762Y-77297676D01*
X94404762Y-77297676D02*
X94309524Y-77392914D01*
X94309524Y-77392914D02*
X94214286Y-77440533D01*
X61014286Y-70854819D02*
X61585714Y-70854819D01*
X61300000Y-71854819D02*
X61300000Y-70854819D01*
X61919048Y-71854819D02*
X61919048Y-70854819D01*
X61919048Y-71331009D02*
X62490476Y-71331009D01*
X62490476Y-71854819D02*
X62490476Y-70854819D01*
X62871429Y-70854819D02*
X63490476Y-70854819D01*
X63490476Y-70854819D02*
X63157143Y-71235771D01*
X63157143Y-71235771D02*
X63300000Y-71235771D01*
X63300000Y-71235771D02*
X63395238Y-71283390D01*
X63395238Y-71283390D02*
X63442857Y-71331009D01*
X63442857Y-71331009D02*
X63490476Y-71426247D01*
X63490476Y-71426247D02*
X63490476Y-71664342D01*
X63490476Y-71664342D02*
X63442857Y-71759580D01*
X63442857Y-71759580D02*
X63395238Y-71807200D01*
X63395238Y-71807200D02*
X63300000Y-71854819D01*
X63300000Y-71854819D02*
X63014286Y-71854819D01*
X63014286Y-71854819D02*
X62919048Y-71807200D01*
X62919048Y-71807200D02*
X62871429Y-71759580D01*
X63354819Y-46562857D02*
X62878628Y-46896190D01*
X63354819Y-47134285D02*
X62354819Y-47134285D01*
X62354819Y-47134285D02*
X62354819Y-46753333D01*
X62354819Y-46753333D02*
X62402438Y-46658095D01*
X62402438Y-46658095D02*
X62450057Y-46610476D01*
X62450057Y-46610476D02*
X62545295Y-46562857D01*
X62545295Y-46562857D02*
X62688152Y-46562857D01*
X62688152Y-46562857D02*
X62783390Y-46610476D01*
X62783390Y-46610476D02*
X62831009Y-46658095D01*
X62831009Y-46658095D02*
X62878628Y-46753333D01*
X62878628Y-46753333D02*
X62878628Y-47134285D01*
X62450057Y-46181904D02*
X62402438Y-46134285D01*
X62402438Y-46134285D02*
X62354819Y-46039047D01*
X62354819Y-46039047D02*
X62354819Y-45800952D01*
X62354819Y-45800952D02*
X62402438Y-45705714D01*
X62402438Y-45705714D02*
X62450057Y-45658095D01*
X62450057Y-45658095D02*
X62545295Y-45610476D01*
X62545295Y-45610476D02*
X62640533Y-45610476D01*
X62640533Y-45610476D02*
X62783390Y-45658095D01*
X62783390Y-45658095D02*
X63354819Y-46229523D01*
X63354819Y-46229523D02*
X63354819Y-45610476D01*
X63354819Y-44658095D02*
X63354819Y-45229523D01*
X63354819Y-44943809D02*
X62354819Y-44943809D01*
X62354819Y-44943809D02*
X62497676Y-45039047D01*
X62497676Y-45039047D02*
X62592914Y-45134285D01*
X62592914Y-45134285D02*
X62640533Y-45229523D01*
X81257142Y-135554819D02*
X80923809Y-135078628D01*
X80685714Y-135554819D02*
X80685714Y-134554819D01*
X80685714Y-134554819D02*
X81066666Y-134554819D01*
X81066666Y-134554819D02*
X81161904Y-134602438D01*
X81161904Y-134602438D02*
X81209523Y-134650057D01*
X81209523Y-134650057D02*
X81257142Y-134745295D01*
X81257142Y-134745295D02*
X81257142Y-134888152D01*
X81257142Y-134888152D02*
X81209523Y-134983390D01*
X81209523Y-134983390D02*
X81161904Y-135031009D01*
X81161904Y-135031009D02*
X81066666Y-135078628D01*
X81066666Y-135078628D02*
X80685714Y-135078628D01*
X82114285Y-134888152D02*
X82114285Y-135554819D01*
X81876190Y-134507200D02*
X81638095Y-135221485D01*
X81638095Y-135221485D02*
X82257142Y-135221485D01*
X82590476Y-134650057D02*
X82638095Y-134602438D01*
X82638095Y-134602438D02*
X82733333Y-134554819D01*
X82733333Y-134554819D02*
X82971428Y-134554819D01*
X82971428Y-134554819D02*
X83066666Y-134602438D01*
X83066666Y-134602438D02*
X83114285Y-134650057D01*
X83114285Y-134650057D02*
X83161904Y-134745295D01*
X83161904Y-134745295D02*
X83161904Y-134840533D01*
X83161904Y-134840533D02*
X83114285Y-134983390D01*
X83114285Y-134983390D02*
X82542857Y-135554819D01*
X82542857Y-135554819D02*
X83161904Y-135554819D01*
X58733333Y-61759580D02*
X58685714Y-61807200D01*
X58685714Y-61807200D02*
X58542857Y-61854819D01*
X58542857Y-61854819D02*
X58447619Y-61854819D01*
X58447619Y-61854819D02*
X58304762Y-61807200D01*
X58304762Y-61807200D02*
X58209524Y-61711961D01*
X58209524Y-61711961D02*
X58161905Y-61616723D01*
X58161905Y-61616723D02*
X58114286Y-61426247D01*
X58114286Y-61426247D02*
X58114286Y-61283390D01*
X58114286Y-61283390D02*
X58161905Y-61092914D01*
X58161905Y-61092914D02*
X58209524Y-60997676D01*
X58209524Y-60997676D02*
X58304762Y-60902438D01*
X58304762Y-60902438D02*
X58447619Y-60854819D01*
X58447619Y-60854819D02*
X58542857Y-60854819D01*
X58542857Y-60854819D02*
X58685714Y-60902438D01*
X58685714Y-60902438D02*
X58733333Y-60950057D01*
X59066667Y-60854819D02*
X59733333Y-60854819D01*
X59733333Y-60854819D02*
X59304762Y-61854819D01*
X60377142Y-65054819D02*
X60043809Y-64578628D01*
X59805714Y-65054819D02*
X59805714Y-64054819D01*
X59805714Y-64054819D02*
X60186666Y-64054819D01*
X60186666Y-64054819D02*
X60281904Y-64102438D01*
X60281904Y-64102438D02*
X60329523Y-64150057D01*
X60329523Y-64150057D02*
X60377142Y-64245295D01*
X60377142Y-64245295D02*
X60377142Y-64388152D01*
X60377142Y-64388152D02*
X60329523Y-64483390D01*
X60329523Y-64483390D02*
X60281904Y-64531009D01*
X60281904Y-64531009D02*
X60186666Y-64578628D01*
X60186666Y-64578628D02*
X59805714Y-64578628D01*
X61329523Y-65054819D02*
X60758095Y-65054819D01*
X61043809Y-65054819D02*
X61043809Y-64054819D01*
X61043809Y-64054819D02*
X60948571Y-64197676D01*
X60948571Y-64197676D02*
X60853333Y-64292914D01*
X60853333Y-64292914D02*
X60758095Y-64340533D01*
X62186666Y-64054819D02*
X61996190Y-64054819D01*
X61996190Y-64054819D02*
X61900952Y-64102438D01*
X61900952Y-64102438D02*
X61853333Y-64150057D01*
X61853333Y-64150057D02*
X61758095Y-64292914D01*
X61758095Y-64292914D02*
X61710476Y-64483390D01*
X61710476Y-64483390D02*
X61710476Y-64864342D01*
X61710476Y-64864342D02*
X61758095Y-64959580D01*
X61758095Y-64959580D02*
X61805714Y-65007200D01*
X61805714Y-65007200D02*
X61900952Y-65054819D01*
X61900952Y-65054819D02*
X62091428Y-65054819D01*
X62091428Y-65054819D02*
X62186666Y-65007200D01*
X62186666Y-65007200D02*
X62234285Y-64959580D01*
X62234285Y-64959580D02*
X62281904Y-64864342D01*
X62281904Y-64864342D02*
X62281904Y-64626247D01*
X62281904Y-64626247D02*
X62234285Y-64531009D01*
X62234285Y-64531009D02*
X62186666Y-64483390D01*
X62186666Y-64483390D02*
X62091428Y-64435771D01*
X62091428Y-64435771D02*
X61900952Y-64435771D01*
X61900952Y-64435771D02*
X61805714Y-64483390D01*
X61805714Y-64483390D02*
X61758095Y-64531009D01*
X61758095Y-64531009D02*
X61710476Y-64626247D01*
X90059580Y-131266666D02*
X90107200Y-131314285D01*
X90107200Y-131314285D02*
X90154819Y-131457142D01*
X90154819Y-131457142D02*
X90154819Y-131552380D01*
X90154819Y-131552380D02*
X90107200Y-131695237D01*
X90107200Y-131695237D02*
X90011961Y-131790475D01*
X90011961Y-131790475D02*
X89916723Y-131838094D01*
X89916723Y-131838094D02*
X89726247Y-131885713D01*
X89726247Y-131885713D02*
X89583390Y-131885713D01*
X89583390Y-131885713D02*
X89392914Y-131838094D01*
X89392914Y-131838094D02*
X89297676Y-131790475D01*
X89297676Y-131790475D02*
X89202438Y-131695237D01*
X89202438Y-131695237D02*
X89154819Y-131552380D01*
X89154819Y-131552380D02*
X89154819Y-131457142D01*
X89154819Y-131457142D02*
X89202438Y-131314285D01*
X89202438Y-131314285D02*
X89250057Y-131266666D01*
X90154819Y-130790475D02*
X90154819Y-130599999D01*
X90154819Y-130599999D02*
X90107200Y-130504761D01*
X90107200Y-130504761D02*
X90059580Y-130457142D01*
X90059580Y-130457142D02*
X89916723Y-130361904D01*
X89916723Y-130361904D02*
X89726247Y-130314285D01*
X89726247Y-130314285D02*
X89345295Y-130314285D01*
X89345295Y-130314285D02*
X89250057Y-130361904D01*
X89250057Y-130361904D02*
X89202438Y-130409523D01*
X89202438Y-130409523D02*
X89154819Y-130504761D01*
X89154819Y-130504761D02*
X89154819Y-130695237D01*
X89154819Y-130695237D02*
X89202438Y-130790475D01*
X89202438Y-130790475D02*
X89250057Y-130838094D01*
X89250057Y-130838094D02*
X89345295Y-130885713D01*
X89345295Y-130885713D02*
X89583390Y-130885713D01*
X89583390Y-130885713D02*
X89678628Y-130838094D01*
X89678628Y-130838094D02*
X89726247Y-130790475D01*
X89726247Y-130790475D02*
X89773866Y-130695237D01*
X89773866Y-130695237D02*
X89773866Y-130504761D01*
X89773866Y-130504761D02*
X89726247Y-130409523D01*
X89726247Y-130409523D02*
X89678628Y-130361904D01*
X89678628Y-130361904D02*
X89583390Y-130314285D01*
X92057142Y-54759580D02*
X92009523Y-54807200D01*
X92009523Y-54807200D02*
X91866666Y-54854819D01*
X91866666Y-54854819D02*
X91771428Y-54854819D01*
X91771428Y-54854819D02*
X91628571Y-54807200D01*
X91628571Y-54807200D02*
X91533333Y-54711961D01*
X91533333Y-54711961D02*
X91485714Y-54616723D01*
X91485714Y-54616723D02*
X91438095Y-54426247D01*
X91438095Y-54426247D02*
X91438095Y-54283390D01*
X91438095Y-54283390D02*
X91485714Y-54092914D01*
X91485714Y-54092914D02*
X91533333Y-53997676D01*
X91533333Y-53997676D02*
X91628571Y-53902438D01*
X91628571Y-53902438D02*
X91771428Y-53854819D01*
X91771428Y-53854819D02*
X91866666Y-53854819D01*
X91866666Y-53854819D02*
X92009523Y-53902438D01*
X92009523Y-53902438D02*
X92057142Y-53950057D01*
X93009523Y-54854819D02*
X92438095Y-54854819D01*
X92723809Y-54854819D02*
X92723809Y-53854819D01*
X92723809Y-53854819D02*
X92628571Y-53997676D01*
X92628571Y-53997676D02*
X92533333Y-54092914D01*
X92533333Y-54092914D02*
X92438095Y-54140533D01*
X93342857Y-53854819D02*
X93961904Y-53854819D01*
X93961904Y-53854819D02*
X93628571Y-54235771D01*
X93628571Y-54235771D02*
X93771428Y-54235771D01*
X93771428Y-54235771D02*
X93866666Y-54283390D01*
X93866666Y-54283390D02*
X93914285Y-54331009D01*
X93914285Y-54331009D02*
X93961904Y-54426247D01*
X93961904Y-54426247D02*
X93961904Y-54664342D01*
X93961904Y-54664342D02*
X93914285Y-54759580D01*
X93914285Y-54759580D02*
X93866666Y-54807200D01*
X93866666Y-54807200D02*
X93771428Y-54854819D01*
X93771428Y-54854819D02*
X93485714Y-54854819D01*
X93485714Y-54854819D02*
X93390476Y-54807200D01*
X93390476Y-54807200D02*
X93342857Y-54759580D01*
X89677142Y-48254819D02*
X89343809Y-47778628D01*
X89105714Y-48254819D02*
X89105714Y-47254819D01*
X89105714Y-47254819D02*
X89486666Y-47254819D01*
X89486666Y-47254819D02*
X89581904Y-47302438D01*
X89581904Y-47302438D02*
X89629523Y-47350057D01*
X89629523Y-47350057D02*
X89677142Y-47445295D01*
X89677142Y-47445295D02*
X89677142Y-47588152D01*
X89677142Y-47588152D02*
X89629523Y-47683390D01*
X89629523Y-47683390D02*
X89581904Y-47731009D01*
X89581904Y-47731009D02*
X89486666Y-47778628D01*
X89486666Y-47778628D02*
X89105714Y-47778628D01*
X90010476Y-47254819D02*
X90629523Y-47254819D01*
X90629523Y-47254819D02*
X90296190Y-47635771D01*
X90296190Y-47635771D02*
X90439047Y-47635771D01*
X90439047Y-47635771D02*
X90534285Y-47683390D01*
X90534285Y-47683390D02*
X90581904Y-47731009D01*
X90581904Y-47731009D02*
X90629523Y-47826247D01*
X90629523Y-47826247D02*
X90629523Y-48064342D01*
X90629523Y-48064342D02*
X90581904Y-48159580D01*
X90581904Y-48159580D02*
X90534285Y-48207200D01*
X90534285Y-48207200D02*
X90439047Y-48254819D01*
X90439047Y-48254819D02*
X90153333Y-48254819D01*
X90153333Y-48254819D02*
X90058095Y-48207200D01*
X90058095Y-48207200D02*
X90010476Y-48159580D01*
X91581904Y-48254819D02*
X91010476Y-48254819D01*
X91296190Y-48254819D02*
X91296190Y-47254819D01*
X91296190Y-47254819D02*
X91200952Y-47397676D01*
X91200952Y-47397676D02*
X91105714Y-47492914D01*
X91105714Y-47492914D02*
X91010476Y-47540533D01*
X64033333Y-88954819D02*
X63700000Y-88478628D01*
X63461905Y-88954819D02*
X63461905Y-87954819D01*
X63461905Y-87954819D02*
X63842857Y-87954819D01*
X63842857Y-87954819D02*
X63938095Y-88002438D01*
X63938095Y-88002438D02*
X63985714Y-88050057D01*
X63985714Y-88050057D02*
X64033333Y-88145295D01*
X64033333Y-88145295D02*
X64033333Y-88288152D01*
X64033333Y-88288152D02*
X63985714Y-88383390D01*
X63985714Y-88383390D02*
X63938095Y-88431009D01*
X63938095Y-88431009D02*
X63842857Y-88478628D01*
X63842857Y-88478628D02*
X63461905Y-88478628D01*
X64509524Y-88954819D02*
X64700000Y-88954819D01*
X64700000Y-88954819D02*
X64795238Y-88907200D01*
X64795238Y-88907200D02*
X64842857Y-88859580D01*
X64842857Y-88859580D02*
X64938095Y-88716723D01*
X64938095Y-88716723D02*
X64985714Y-88526247D01*
X64985714Y-88526247D02*
X64985714Y-88145295D01*
X64985714Y-88145295D02*
X64938095Y-88050057D01*
X64938095Y-88050057D02*
X64890476Y-88002438D01*
X64890476Y-88002438D02*
X64795238Y-87954819D01*
X64795238Y-87954819D02*
X64604762Y-87954819D01*
X64604762Y-87954819D02*
X64509524Y-88002438D01*
X64509524Y-88002438D02*
X64461905Y-88050057D01*
X64461905Y-88050057D02*
X64414286Y-88145295D01*
X64414286Y-88145295D02*
X64414286Y-88383390D01*
X64414286Y-88383390D02*
X64461905Y-88478628D01*
X64461905Y-88478628D02*
X64509524Y-88526247D01*
X64509524Y-88526247D02*
X64604762Y-88573866D01*
X64604762Y-88573866D02*
X64795238Y-88573866D01*
X64795238Y-88573866D02*
X64890476Y-88526247D01*
X64890476Y-88526247D02*
X64938095Y-88478628D01*
X64938095Y-88478628D02*
X64985714Y-88383390D01*
X72777142Y-65054819D02*
X72443809Y-64578628D01*
X72205714Y-65054819D02*
X72205714Y-64054819D01*
X72205714Y-64054819D02*
X72586666Y-64054819D01*
X72586666Y-64054819D02*
X72681904Y-64102438D01*
X72681904Y-64102438D02*
X72729523Y-64150057D01*
X72729523Y-64150057D02*
X72777142Y-64245295D01*
X72777142Y-64245295D02*
X72777142Y-64388152D01*
X72777142Y-64388152D02*
X72729523Y-64483390D01*
X72729523Y-64483390D02*
X72681904Y-64531009D01*
X72681904Y-64531009D02*
X72586666Y-64578628D01*
X72586666Y-64578628D02*
X72205714Y-64578628D01*
X73729523Y-65054819D02*
X73158095Y-65054819D01*
X73443809Y-65054819D02*
X73443809Y-64054819D01*
X73443809Y-64054819D02*
X73348571Y-64197676D01*
X73348571Y-64197676D02*
X73253333Y-64292914D01*
X73253333Y-64292914D02*
X73158095Y-64340533D01*
X74062857Y-64054819D02*
X74729523Y-64054819D01*
X74729523Y-64054819D02*
X74300952Y-65054819D01*
X62854819Y-134142857D02*
X62378628Y-134476190D01*
X62854819Y-134714285D02*
X61854819Y-134714285D01*
X61854819Y-134714285D02*
X61854819Y-134333333D01*
X61854819Y-134333333D02*
X61902438Y-134238095D01*
X61902438Y-134238095D02*
X61950057Y-134190476D01*
X61950057Y-134190476D02*
X62045295Y-134142857D01*
X62045295Y-134142857D02*
X62188152Y-134142857D01*
X62188152Y-134142857D02*
X62283390Y-134190476D01*
X62283390Y-134190476D02*
X62331009Y-134238095D01*
X62331009Y-134238095D02*
X62378628Y-134333333D01*
X62378628Y-134333333D02*
X62378628Y-134714285D01*
X62854819Y-133190476D02*
X62854819Y-133761904D01*
X62854819Y-133476190D02*
X61854819Y-133476190D01*
X61854819Y-133476190D02*
X61997676Y-133571428D01*
X61997676Y-133571428D02*
X62092914Y-133666666D01*
X62092914Y-133666666D02*
X62140533Y-133761904D01*
X61950057Y-132809523D02*
X61902438Y-132761904D01*
X61902438Y-132761904D02*
X61854819Y-132666666D01*
X61854819Y-132666666D02*
X61854819Y-132428571D01*
X61854819Y-132428571D02*
X61902438Y-132333333D01*
X61902438Y-132333333D02*
X61950057Y-132285714D01*
X61950057Y-132285714D02*
X62045295Y-132238095D01*
X62045295Y-132238095D02*
X62140533Y-132238095D01*
X62140533Y-132238095D02*
X62283390Y-132285714D01*
X62283390Y-132285714D02*
X62854819Y-132857142D01*
X62854819Y-132857142D02*
X62854819Y-132238095D01*
X99954819Y-67622857D02*
X99478628Y-67956190D01*
X99954819Y-68194285D02*
X98954819Y-68194285D01*
X98954819Y-68194285D02*
X98954819Y-67813333D01*
X98954819Y-67813333D02*
X99002438Y-67718095D01*
X99002438Y-67718095D02*
X99050057Y-67670476D01*
X99050057Y-67670476D02*
X99145295Y-67622857D01*
X99145295Y-67622857D02*
X99288152Y-67622857D01*
X99288152Y-67622857D02*
X99383390Y-67670476D01*
X99383390Y-67670476D02*
X99431009Y-67718095D01*
X99431009Y-67718095D02*
X99478628Y-67813333D01*
X99478628Y-67813333D02*
X99478628Y-68194285D01*
X98954819Y-67289523D02*
X98954819Y-66670476D01*
X98954819Y-66670476D02*
X99335771Y-67003809D01*
X99335771Y-67003809D02*
X99335771Y-66860952D01*
X99335771Y-66860952D02*
X99383390Y-66765714D01*
X99383390Y-66765714D02*
X99431009Y-66718095D01*
X99431009Y-66718095D02*
X99526247Y-66670476D01*
X99526247Y-66670476D02*
X99764342Y-66670476D01*
X99764342Y-66670476D02*
X99859580Y-66718095D01*
X99859580Y-66718095D02*
X99907200Y-66765714D01*
X99907200Y-66765714D02*
X99954819Y-66860952D01*
X99954819Y-66860952D02*
X99954819Y-67146666D01*
X99954819Y-67146666D02*
X99907200Y-67241904D01*
X99907200Y-67241904D02*
X99859580Y-67289523D01*
X98954819Y-65765714D02*
X98954819Y-66241904D01*
X98954819Y-66241904D02*
X99431009Y-66289523D01*
X99431009Y-66289523D02*
X99383390Y-66241904D01*
X99383390Y-66241904D02*
X99335771Y-66146666D01*
X99335771Y-66146666D02*
X99335771Y-65908571D01*
X99335771Y-65908571D02*
X99383390Y-65813333D01*
X99383390Y-65813333D02*
X99431009Y-65765714D01*
X99431009Y-65765714D02*
X99526247Y-65718095D01*
X99526247Y-65718095D02*
X99764342Y-65718095D01*
X99764342Y-65718095D02*
X99859580Y-65765714D01*
X99859580Y-65765714D02*
X99907200Y-65813333D01*
X99907200Y-65813333D02*
X99954819Y-65908571D01*
X99954819Y-65908571D02*
X99954819Y-66146666D01*
X99954819Y-66146666D02*
X99907200Y-66241904D01*
X99907200Y-66241904D02*
X99859580Y-66289523D01*
X73838095Y-53154819D02*
X73838095Y-53964342D01*
X73838095Y-53964342D02*
X73885714Y-54059580D01*
X73885714Y-54059580D02*
X73933333Y-54107200D01*
X73933333Y-54107200D02*
X74028571Y-54154819D01*
X74028571Y-54154819D02*
X74219047Y-54154819D01*
X74219047Y-54154819D02*
X74314285Y-54107200D01*
X74314285Y-54107200D02*
X74361904Y-54059580D01*
X74361904Y-54059580D02*
X74409523Y-53964342D01*
X74409523Y-53964342D02*
X74409523Y-53154819D01*
X75314285Y-53488152D02*
X75314285Y-54154819D01*
X75076190Y-53107200D02*
X74838095Y-53821485D01*
X74838095Y-53821485D02*
X75457142Y-53821485D01*
X70859580Y-113342857D02*
X70907200Y-113390476D01*
X70907200Y-113390476D02*
X70954819Y-113533333D01*
X70954819Y-113533333D02*
X70954819Y-113628571D01*
X70954819Y-113628571D02*
X70907200Y-113771428D01*
X70907200Y-113771428D02*
X70811961Y-113866666D01*
X70811961Y-113866666D02*
X70716723Y-113914285D01*
X70716723Y-113914285D02*
X70526247Y-113961904D01*
X70526247Y-113961904D02*
X70383390Y-113961904D01*
X70383390Y-113961904D02*
X70192914Y-113914285D01*
X70192914Y-113914285D02*
X70097676Y-113866666D01*
X70097676Y-113866666D02*
X70002438Y-113771428D01*
X70002438Y-113771428D02*
X69954819Y-113628571D01*
X69954819Y-113628571D02*
X69954819Y-113533333D01*
X69954819Y-113533333D02*
X70002438Y-113390476D01*
X70002438Y-113390476D02*
X70050057Y-113342857D01*
X70954819Y-112390476D02*
X70954819Y-112961904D01*
X70954819Y-112676190D02*
X69954819Y-112676190D01*
X69954819Y-112676190D02*
X70097676Y-112771428D01*
X70097676Y-112771428D02*
X70192914Y-112866666D01*
X70192914Y-112866666D02*
X70240533Y-112961904D01*
X69954819Y-111533333D02*
X69954819Y-111723809D01*
X69954819Y-111723809D02*
X70002438Y-111819047D01*
X70002438Y-111819047D02*
X70050057Y-111866666D01*
X70050057Y-111866666D02*
X70192914Y-111961904D01*
X70192914Y-111961904D02*
X70383390Y-112009523D01*
X70383390Y-112009523D02*
X70764342Y-112009523D01*
X70764342Y-112009523D02*
X70859580Y-111961904D01*
X70859580Y-111961904D02*
X70907200Y-111914285D01*
X70907200Y-111914285D02*
X70954819Y-111819047D01*
X70954819Y-111819047D02*
X70954819Y-111628571D01*
X70954819Y-111628571D02*
X70907200Y-111533333D01*
X70907200Y-111533333D02*
X70859580Y-111485714D01*
X70859580Y-111485714D02*
X70764342Y-111438095D01*
X70764342Y-111438095D02*
X70526247Y-111438095D01*
X70526247Y-111438095D02*
X70431009Y-111485714D01*
X70431009Y-111485714D02*
X70383390Y-111533333D01*
X70383390Y-111533333D02*
X70335771Y-111628571D01*
X70335771Y-111628571D02*
X70335771Y-111819047D01*
X70335771Y-111819047D02*
X70383390Y-111914285D01*
X70383390Y-111914285D02*
X70431009Y-111961904D01*
X70431009Y-111961904D02*
X70526247Y-112009523D01*
X55916666Y-73434819D02*
X55916666Y-74149104D01*
X55916666Y-74149104D02*
X55869047Y-74291961D01*
X55869047Y-74291961D02*
X55773809Y-74387200D01*
X55773809Y-74387200D02*
X55630952Y-74434819D01*
X55630952Y-74434819D02*
X55535714Y-74434819D01*
X56869047Y-73434819D02*
X56392857Y-73434819D01*
X56392857Y-73434819D02*
X56345238Y-73911009D01*
X56345238Y-73911009D02*
X56392857Y-73863390D01*
X56392857Y-73863390D02*
X56488095Y-73815771D01*
X56488095Y-73815771D02*
X56726190Y-73815771D01*
X56726190Y-73815771D02*
X56821428Y-73863390D01*
X56821428Y-73863390D02*
X56869047Y-73911009D01*
X56869047Y-73911009D02*
X56916666Y-74006247D01*
X56916666Y-74006247D02*
X56916666Y-74244342D01*
X56916666Y-74244342D02*
X56869047Y-74339580D01*
X56869047Y-74339580D02*
X56821428Y-74387200D01*
X56821428Y-74387200D02*
X56726190Y-74434819D01*
X56726190Y-74434819D02*
X56488095Y-74434819D01*
X56488095Y-74434819D02*
X56392857Y-74387200D01*
X56392857Y-74387200D02*
X56345238Y-74339580D01*
X66554819Y-46562857D02*
X66078628Y-46896190D01*
X66554819Y-47134285D02*
X65554819Y-47134285D01*
X65554819Y-47134285D02*
X65554819Y-46753333D01*
X65554819Y-46753333D02*
X65602438Y-46658095D01*
X65602438Y-46658095D02*
X65650057Y-46610476D01*
X65650057Y-46610476D02*
X65745295Y-46562857D01*
X65745295Y-46562857D02*
X65888152Y-46562857D01*
X65888152Y-46562857D02*
X65983390Y-46610476D01*
X65983390Y-46610476D02*
X66031009Y-46658095D01*
X66031009Y-46658095D02*
X66078628Y-46753333D01*
X66078628Y-46753333D02*
X66078628Y-47134285D01*
X65650057Y-46181904D02*
X65602438Y-46134285D01*
X65602438Y-46134285D02*
X65554819Y-46039047D01*
X65554819Y-46039047D02*
X65554819Y-45800952D01*
X65554819Y-45800952D02*
X65602438Y-45705714D01*
X65602438Y-45705714D02*
X65650057Y-45658095D01*
X65650057Y-45658095D02*
X65745295Y-45610476D01*
X65745295Y-45610476D02*
X65840533Y-45610476D01*
X65840533Y-45610476D02*
X65983390Y-45658095D01*
X65983390Y-45658095D02*
X66554819Y-46229523D01*
X66554819Y-46229523D02*
X66554819Y-45610476D01*
X65888152Y-44753333D02*
X66554819Y-44753333D01*
X65507200Y-44991428D02*
X66221485Y-45229523D01*
X66221485Y-45229523D02*
X66221485Y-44610476D01*
X59754819Y-134142857D02*
X59278628Y-134476190D01*
X59754819Y-134714285D02*
X58754819Y-134714285D01*
X58754819Y-134714285D02*
X58754819Y-134333333D01*
X58754819Y-134333333D02*
X58802438Y-134238095D01*
X58802438Y-134238095D02*
X58850057Y-134190476D01*
X58850057Y-134190476D02*
X58945295Y-134142857D01*
X58945295Y-134142857D02*
X59088152Y-134142857D01*
X59088152Y-134142857D02*
X59183390Y-134190476D01*
X59183390Y-134190476D02*
X59231009Y-134238095D01*
X59231009Y-134238095D02*
X59278628Y-134333333D01*
X59278628Y-134333333D02*
X59278628Y-134714285D01*
X59754819Y-133190476D02*
X59754819Y-133761904D01*
X59754819Y-133476190D02*
X58754819Y-133476190D01*
X58754819Y-133476190D02*
X58897676Y-133571428D01*
X58897676Y-133571428D02*
X58992914Y-133666666D01*
X58992914Y-133666666D02*
X59040533Y-133761904D01*
X59088152Y-132333333D02*
X59754819Y-132333333D01*
X58707200Y-132571428D02*
X59421485Y-132809523D01*
X59421485Y-132809523D02*
X59421485Y-132190476D01*
X83054819Y-46822857D02*
X82578628Y-47156190D01*
X83054819Y-47394285D02*
X82054819Y-47394285D01*
X82054819Y-47394285D02*
X82054819Y-47013333D01*
X82054819Y-47013333D02*
X82102438Y-46918095D01*
X82102438Y-46918095D02*
X82150057Y-46870476D01*
X82150057Y-46870476D02*
X82245295Y-46822857D01*
X82245295Y-46822857D02*
X82388152Y-46822857D01*
X82388152Y-46822857D02*
X82483390Y-46870476D01*
X82483390Y-46870476D02*
X82531009Y-46918095D01*
X82531009Y-46918095D02*
X82578628Y-47013333D01*
X82578628Y-47013333D02*
X82578628Y-47394285D01*
X82150057Y-46441904D02*
X82102438Y-46394285D01*
X82102438Y-46394285D02*
X82054819Y-46299047D01*
X82054819Y-46299047D02*
X82054819Y-46060952D01*
X82054819Y-46060952D02*
X82102438Y-45965714D01*
X82102438Y-45965714D02*
X82150057Y-45918095D01*
X82150057Y-45918095D02*
X82245295Y-45870476D01*
X82245295Y-45870476D02*
X82340533Y-45870476D01*
X82340533Y-45870476D02*
X82483390Y-45918095D01*
X82483390Y-45918095D02*
X83054819Y-46489523D01*
X83054819Y-46489523D02*
X83054819Y-45870476D01*
X82483390Y-45299047D02*
X82435771Y-45394285D01*
X82435771Y-45394285D02*
X82388152Y-45441904D01*
X82388152Y-45441904D02*
X82292914Y-45489523D01*
X82292914Y-45489523D02*
X82245295Y-45489523D01*
X82245295Y-45489523D02*
X82150057Y-45441904D01*
X82150057Y-45441904D02*
X82102438Y-45394285D01*
X82102438Y-45394285D02*
X82054819Y-45299047D01*
X82054819Y-45299047D02*
X82054819Y-45108571D01*
X82054819Y-45108571D02*
X82102438Y-45013333D01*
X82102438Y-45013333D02*
X82150057Y-44965714D01*
X82150057Y-44965714D02*
X82245295Y-44918095D01*
X82245295Y-44918095D02*
X82292914Y-44918095D01*
X82292914Y-44918095D02*
X82388152Y-44965714D01*
X82388152Y-44965714D02*
X82435771Y-45013333D01*
X82435771Y-45013333D02*
X82483390Y-45108571D01*
X82483390Y-45108571D02*
X82483390Y-45299047D01*
X82483390Y-45299047D02*
X82531009Y-45394285D01*
X82531009Y-45394285D02*
X82578628Y-45441904D01*
X82578628Y-45441904D02*
X82673866Y-45489523D01*
X82673866Y-45489523D02*
X82864342Y-45489523D01*
X82864342Y-45489523D02*
X82959580Y-45441904D01*
X82959580Y-45441904D02*
X83007200Y-45394285D01*
X83007200Y-45394285D02*
X83054819Y-45299047D01*
X83054819Y-45299047D02*
X83054819Y-45108571D01*
X83054819Y-45108571D02*
X83007200Y-45013333D01*
X83007200Y-45013333D02*
X82959580Y-44965714D01*
X82959580Y-44965714D02*
X82864342Y-44918095D01*
X82864342Y-44918095D02*
X82673866Y-44918095D01*
X82673866Y-44918095D02*
X82578628Y-44965714D01*
X82578628Y-44965714D02*
X82531009Y-45013333D01*
X82531009Y-45013333D02*
X82483390Y-45108571D01*
X85004761Y-105410057D02*
X84909523Y-105362438D01*
X84909523Y-105362438D02*
X84814285Y-105267200D01*
X84814285Y-105267200D02*
X84671428Y-105124342D01*
X84671428Y-105124342D02*
X84576190Y-105076723D01*
X84576190Y-105076723D02*
X84480952Y-105076723D01*
X84528571Y-105314819D02*
X84433333Y-105267200D01*
X84433333Y-105267200D02*
X84338095Y-105171961D01*
X84338095Y-105171961D02*
X84290476Y-104981485D01*
X84290476Y-104981485D02*
X84290476Y-104648152D01*
X84290476Y-104648152D02*
X84338095Y-104457676D01*
X84338095Y-104457676D02*
X84433333Y-104362438D01*
X84433333Y-104362438D02*
X84528571Y-104314819D01*
X84528571Y-104314819D02*
X84719047Y-104314819D01*
X84719047Y-104314819D02*
X84814285Y-104362438D01*
X84814285Y-104362438D02*
X84909523Y-104457676D01*
X84909523Y-104457676D02*
X84957142Y-104648152D01*
X84957142Y-104648152D02*
X84957142Y-104981485D01*
X84957142Y-104981485D02*
X84909523Y-105171961D01*
X84909523Y-105171961D02*
X84814285Y-105267200D01*
X84814285Y-105267200D02*
X84719047Y-105314819D01*
X84719047Y-105314819D02*
X84528571Y-105314819D01*
X85338095Y-104410057D02*
X85385714Y-104362438D01*
X85385714Y-104362438D02*
X85480952Y-104314819D01*
X85480952Y-104314819D02*
X85719047Y-104314819D01*
X85719047Y-104314819D02*
X85814285Y-104362438D01*
X85814285Y-104362438D02*
X85861904Y-104410057D01*
X85861904Y-104410057D02*
X85909523Y-104505295D01*
X85909523Y-104505295D02*
X85909523Y-104600533D01*
X85909523Y-104600533D02*
X85861904Y-104743390D01*
X85861904Y-104743390D02*
X85290476Y-105314819D01*
X85290476Y-105314819D02*
X85909523Y-105314819D01*
X63557142Y-92154819D02*
X63223809Y-91678628D01*
X62985714Y-92154819D02*
X62985714Y-91154819D01*
X62985714Y-91154819D02*
X63366666Y-91154819D01*
X63366666Y-91154819D02*
X63461904Y-91202438D01*
X63461904Y-91202438D02*
X63509523Y-91250057D01*
X63509523Y-91250057D02*
X63557142Y-91345295D01*
X63557142Y-91345295D02*
X63557142Y-91488152D01*
X63557142Y-91488152D02*
X63509523Y-91583390D01*
X63509523Y-91583390D02*
X63461904Y-91631009D01*
X63461904Y-91631009D02*
X63366666Y-91678628D01*
X63366666Y-91678628D02*
X62985714Y-91678628D01*
X64509523Y-92154819D02*
X63938095Y-92154819D01*
X64223809Y-92154819D02*
X64223809Y-91154819D01*
X64223809Y-91154819D02*
X64128571Y-91297676D01*
X64128571Y-91297676D02*
X64033333Y-91392914D01*
X64033333Y-91392914D02*
X63938095Y-91440533D01*
X65128571Y-91154819D02*
X65223809Y-91154819D01*
X65223809Y-91154819D02*
X65319047Y-91202438D01*
X65319047Y-91202438D02*
X65366666Y-91250057D01*
X65366666Y-91250057D02*
X65414285Y-91345295D01*
X65414285Y-91345295D02*
X65461904Y-91535771D01*
X65461904Y-91535771D02*
X65461904Y-91773866D01*
X65461904Y-91773866D02*
X65414285Y-91964342D01*
X65414285Y-91964342D02*
X65366666Y-92059580D01*
X65366666Y-92059580D02*
X65319047Y-92107200D01*
X65319047Y-92107200D02*
X65223809Y-92154819D01*
X65223809Y-92154819D02*
X65128571Y-92154819D01*
X65128571Y-92154819D02*
X65033333Y-92107200D01*
X65033333Y-92107200D02*
X64985714Y-92059580D01*
X64985714Y-92059580D02*
X64938095Y-91964342D01*
X64938095Y-91964342D02*
X64890476Y-91773866D01*
X64890476Y-91773866D02*
X64890476Y-91535771D01*
X64890476Y-91535771D02*
X64938095Y-91345295D01*
X64938095Y-91345295D02*
X64985714Y-91250057D01*
X64985714Y-91250057D02*
X65033333Y-91202438D01*
X65033333Y-91202438D02*
X65128571Y-91154819D01*
X67854819Y-110466666D02*
X67378628Y-110799999D01*
X67854819Y-111038094D02*
X66854819Y-111038094D01*
X66854819Y-111038094D02*
X66854819Y-110657142D01*
X66854819Y-110657142D02*
X66902438Y-110561904D01*
X66902438Y-110561904D02*
X66950057Y-110514285D01*
X66950057Y-110514285D02*
X67045295Y-110466666D01*
X67045295Y-110466666D02*
X67188152Y-110466666D01*
X67188152Y-110466666D02*
X67283390Y-110514285D01*
X67283390Y-110514285D02*
X67331009Y-110561904D01*
X67331009Y-110561904D02*
X67378628Y-110657142D01*
X67378628Y-110657142D02*
X67378628Y-111038094D01*
X67283390Y-109895237D02*
X67235771Y-109990475D01*
X67235771Y-109990475D02*
X67188152Y-110038094D01*
X67188152Y-110038094D02*
X67092914Y-110085713D01*
X67092914Y-110085713D02*
X67045295Y-110085713D01*
X67045295Y-110085713D02*
X66950057Y-110038094D01*
X66950057Y-110038094D02*
X66902438Y-109990475D01*
X66902438Y-109990475D02*
X66854819Y-109895237D01*
X66854819Y-109895237D02*
X66854819Y-109704761D01*
X66854819Y-109704761D02*
X66902438Y-109609523D01*
X66902438Y-109609523D02*
X66950057Y-109561904D01*
X66950057Y-109561904D02*
X67045295Y-109514285D01*
X67045295Y-109514285D02*
X67092914Y-109514285D01*
X67092914Y-109514285D02*
X67188152Y-109561904D01*
X67188152Y-109561904D02*
X67235771Y-109609523D01*
X67235771Y-109609523D02*
X67283390Y-109704761D01*
X67283390Y-109704761D02*
X67283390Y-109895237D01*
X67283390Y-109895237D02*
X67331009Y-109990475D01*
X67331009Y-109990475D02*
X67378628Y-110038094D01*
X67378628Y-110038094D02*
X67473866Y-110085713D01*
X67473866Y-110085713D02*
X67664342Y-110085713D01*
X67664342Y-110085713D02*
X67759580Y-110038094D01*
X67759580Y-110038094D02*
X67807200Y-109990475D01*
X67807200Y-109990475D02*
X67854819Y-109895237D01*
X67854819Y-109895237D02*
X67854819Y-109704761D01*
X67854819Y-109704761D02*
X67807200Y-109609523D01*
X67807200Y-109609523D02*
X67759580Y-109561904D01*
X67759580Y-109561904D02*
X67664342Y-109514285D01*
X67664342Y-109514285D02*
X67473866Y-109514285D01*
X67473866Y-109514285D02*
X67378628Y-109561904D01*
X67378628Y-109561904D02*
X67331009Y-109609523D01*
X67331009Y-109609523D02*
X67283390Y-109704761D01*
X75954819Y-46512857D02*
X75478628Y-46846190D01*
X75954819Y-47084285D02*
X74954819Y-47084285D01*
X74954819Y-47084285D02*
X74954819Y-46703333D01*
X74954819Y-46703333D02*
X75002438Y-46608095D01*
X75002438Y-46608095D02*
X75050057Y-46560476D01*
X75050057Y-46560476D02*
X75145295Y-46512857D01*
X75145295Y-46512857D02*
X75288152Y-46512857D01*
X75288152Y-46512857D02*
X75383390Y-46560476D01*
X75383390Y-46560476D02*
X75431009Y-46608095D01*
X75431009Y-46608095D02*
X75478628Y-46703333D01*
X75478628Y-46703333D02*
X75478628Y-47084285D01*
X75954819Y-45560476D02*
X75954819Y-46131904D01*
X75954819Y-45846190D02*
X74954819Y-45846190D01*
X74954819Y-45846190D02*
X75097676Y-45941428D01*
X75097676Y-45941428D02*
X75192914Y-46036666D01*
X75192914Y-46036666D02*
X75240533Y-46131904D01*
X75954819Y-45084285D02*
X75954819Y-44893809D01*
X75954819Y-44893809D02*
X75907200Y-44798571D01*
X75907200Y-44798571D02*
X75859580Y-44750952D01*
X75859580Y-44750952D02*
X75716723Y-44655714D01*
X75716723Y-44655714D02*
X75526247Y-44608095D01*
X75526247Y-44608095D02*
X75145295Y-44608095D01*
X75145295Y-44608095D02*
X75050057Y-44655714D01*
X75050057Y-44655714D02*
X75002438Y-44703333D01*
X75002438Y-44703333D02*
X74954819Y-44798571D01*
X74954819Y-44798571D02*
X74954819Y-44989047D01*
X74954819Y-44989047D02*
X75002438Y-45084285D01*
X75002438Y-45084285D02*
X75050057Y-45131904D01*
X75050057Y-45131904D02*
X75145295Y-45179523D01*
X75145295Y-45179523D02*
X75383390Y-45179523D01*
X75383390Y-45179523D02*
X75478628Y-45131904D01*
X75478628Y-45131904D02*
X75526247Y-45084285D01*
X75526247Y-45084285D02*
X75573866Y-44989047D01*
X75573866Y-44989047D02*
X75573866Y-44798571D01*
X75573866Y-44798571D02*
X75526247Y-44703333D01*
X75526247Y-44703333D02*
X75478628Y-44655714D01*
X75478628Y-44655714D02*
X75383390Y-44608095D01*
X103354819Y-102928094D02*
X102354819Y-102928094D01*
X102354819Y-102928094D02*
X102354819Y-102689999D01*
X102354819Y-102689999D02*
X102402438Y-102547142D01*
X102402438Y-102547142D02*
X102497676Y-102451904D01*
X102497676Y-102451904D02*
X102592914Y-102404285D01*
X102592914Y-102404285D02*
X102783390Y-102356666D01*
X102783390Y-102356666D02*
X102926247Y-102356666D01*
X102926247Y-102356666D02*
X103116723Y-102404285D01*
X103116723Y-102404285D02*
X103211961Y-102451904D01*
X103211961Y-102451904D02*
X103307200Y-102547142D01*
X103307200Y-102547142D02*
X103354819Y-102689999D01*
X103354819Y-102689999D02*
X103354819Y-102928094D01*
X102354819Y-102023332D02*
X102354819Y-101404285D01*
X102354819Y-101404285D02*
X102735771Y-101737618D01*
X102735771Y-101737618D02*
X102735771Y-101594761D01*
X102735771Y-101594761D02*
X102783390Y-101499523D01*
X102783390Y-101499523D02*
X102831009Y-101451904D01*
X102831009Y-101451904D02*
X102926247Y-101404285D01*
X102926247Y-101404285D02*
X103164342Y-101404285D01*
X103164342Y-101404285D02*
X103259580Y-101451904D01*
X103259580Y-101451904D02*
X103307200Y-101499523D01*
X103307200Y-101499523D02*
X103354819Y-101594761D01*
X103354819Y-101594761D02*
X103354819Y-101880475D01*
X103354819Y-101880475D02*
X103307200Y-101975713D01*
X103307200Y-101975713D02*
X103259580Y-102023332D01*
X85004761Y-93890057D02*
X84909523Y-93842438D01*
X84909523Y-93842438D02*
X84814285Y-93747200D01*
X84814285Y-93747200D02*
X84671428Y-93604342D01*
X84671428Y-93604342D02*
X84576190Y-93556723D01*
X84576190Y-93556723D02*
X84480952Y-93556723D01*
X84528571Y-93794819D02*
X84433333Y-93747200D01*
X84433333Y-93747200D02*
X84338095Y-93651961D01*
X84338095Y-93651961D02*
X84290476Y-93461485D01*
X84290476Y-93461485D02*
X84290476Y-93128152D01*
X84290476Y-93128152D02*
X84338095Y-92937676D01*
X84338095Y-92937676D02*
X84433333Y-92842438D01*
X84433333Y-92842438D02*
X84528571Y-92794819D01*
X84528571Y-92794819D02*
X84719047Y-92794819D01*
X84719047Y-92794819D02*
X84814285Y-92842438D01*
X84814285Y-92842438D02*
X84909523Y-92937676D01*
X84909523Y-92937676D02*
X84957142Y-93128152D01*
X84957142Y-93128152D02*
X84957142Y-93461485D01*
X84957142Y-93461485D02*
X84909523Y-93651961D01*
X84909523Y-93651961D02*
X84814285Y-93747200D01*
X84814285Y-93747200D02*
X84719047Y-93794819D01*
X84719047Y-93794819D02*
X84528571Y-93794819D01*
X85909523Y-93794819D02*
X85338095Y-93794819D01*
X85623809Y-93794819D02*
X85623809Y-92794819D01*
X85623809Y-92794819D02*
X85528571Y-92937676D01*
X85528571Y-92937676D02*
X85433333Y-93032914D01*
X85433333Y-93032914D02*
X85338095Y-93080533D01*
D11*
X102300000Y-126740000D02*
X102300000Y-125970000D01*
X100930000Y-125970000D02*
X103670000Y-125970000D01*
X103670000Y-125970000D02*
X103670000Y-119430000D01*
X100930000Y-119430000D02*
X100930000Y-125970000D01*
X103670000Y-119430000D02*
X100930000Y-119430000D01*
X102300000Y-118660000D02*
X102300000Y-119430000D01*
X86260000Y-60600000D02*
X87030000Y-60600000D01*
X87030000Y-59230000D02*
X87030000Y-61970000D01*
X87030000Y-61970000D02*
X93570000Y-61970000D01*
X93570000Y-59230000D02*
X87030000Y-59230000D01*
X93570000Y-61970000D02*
X93570000Y-59230000D01*
X94340000Y-60600000D02*
X93570000Y-60600000D01*
X86280000Y-50900000D02*
X87050000Y-50900000D01*
X87050000Y-49530000D02*
X87050000Y-52270000D01*
X87050000Y-52270000D02*
X93590000Y-52270000D01*
X93590000Y-49530000D02*
X87050000Y-49530000D01*
X93590000Y-52270000D02*
X93590000Y-49530000D01*
X94360000Y-50900000D02*
X93590000Y-50900000D01*
X101420000Y-78020000D02*
X101420000Y-95860000D01*
X101420000Y-78020000D02*
X104080000Y-78020000D01*
X101420000Y-95860000D02*
X104080000Y-95860000D01*
X102750000Y-75420000D02*
X104080000Y-75420000D01*
X104080000Y-75420000D02*
X104080000Y-76750000D01*
X104080000Y-78020000D02*
X104080000Y-95860000D01*
X80420000Y-107070000D02*
X80420000Y-104330000D01*
X80420000Y-107070000D02*
X73180000Y-107070000D01*
X80420000Y-104330000D02*
X73180000Y-104330000D01*
X73180000Y-107070000D02*
X73180000Y-104330000D01*
X97000000Y-106260000D02*
X97000000Y-107030000D01*
X98370000Y-107030000D02*
X95630000Y-107030000D01*
X95630000Y-107030000D02*
X95630000Y-113570000D01*
X98370000Y-113570000D02*
X98370000Y-107030000D01*
X95630000Y-113570000D02*
X98370000Y-113570000D01*
X97000000Y-114340000D02*
X97000000Y-113570000D01*
X93550000Y-79400000D02*
X100050000Y-79400000D01*
X100050000Y-79400000D02*
X100050000Y-81600000D01*
X100050000Y-81600000D02*
X93550000Y-81600000D01*
X93550000Y-81600000D02*
X93550000Y-79400000D01*
X69300000Y-49960000D02*
X69300000Y-49190000D01*
X67930000Y-49190000D02*
X70670000Y-49190000D01*
X70670000Y-49190000D02*
X70670000Y-42650000D01*
X67930000Y-42650000D02*
X67930000Y-49190000D01*
X70670000Y-42650000D02*
X67930000Y-42650000D01*
X69300000Y-41880000D02*
X69300000Y-42650000D01*
X77930000Y-93220000D02*
X80670000Y-93220000D01*
X77930000Y-93220000D02*
X77930000Y-85980000D01*
X80670000Y-93220000D02*
X80670000Y-85980000D01*
X77930000Y-85980000D02*
X80670000Y-85980000D01*
X87600000Y-114360000D02*
X87600000Y-113590000D01*
X86230000Y-113590000D02*
X88970000Y-113590000D01*
X88970000Y-113590000D02*
X88970000Y-107050000D01*
X86230000Y-107050000D02*
X86230000Y-113590000D01*
X88970000Y-107050000D02*
X86230000Y-107050000D01*
X87600000Y-106280000D02*
X87600000Y-107050000D01*
X77860000Y-128900000D02*
X78630000Y-128900000D01*
X78630000Y-127530000D02*
X78630000Y-130270000D01*
X78630000Y-130270000D02*
X85170000Y-130270000D01*
X85170000Y-127530000D02*
X78630000Y-127530000D01*
X85170000Y-130270000D02*
X85170000Y-127530000D01*
X85940000Y-128900000D02*
X85170000Y-128900000D01*
X79400000Y-66390000D02*
X75800000Y-66390000D01*
X77600000Y-70840000D02*
G75*
G03*
X79438478Y-66401522I0J2600000D01*
G01*
X75761522Y-66401522D02*
G75*
G03*
X77600000Y-70840000I1838478J-1838478D01*
G01*
X74000000Y-93250000D02*
X77600000Y-93250000D01*
X77600000Y-93250000D02*
X77600000Y-81450000D01*
X77600000Y-81450000D02*
X74000000Y-81450000D01*
X74000000Y-81450000D02*
X74000000Y-93250000D01*
X59730000Y-59620000D02*
X62470000Y-59620000D01*
X59730000Y-59620000D02*
X59730000Y-52380000D01*
X62470000Y-59620000D02*
X62470000Y-52380000D01*
X59730000Y-52380000D02*
X62470000Y-52380000D01*
X60180000Y-82900000D02*
X60950000Y-82900000D01*
X60950000Y-81530000D02*
X60950000Y-84270000D01*
X60950000Y-84270000D02*
X67490000Y-84270000D01*
X67490000Y-81530000D02*
X60950000Y-81530000D01*
X67490000Y-84270000D02*
X67490000Y-81530000D01*
X68260000Y-82900000D02*
X67490000Y-82900000D01*
X89330000Y-116320000D02*
X92070000Y-116320000D01*
X89330000Y-116320000D02*
X89330000Y-109080000D01*
X92070000Y-116320000D02*
X92070000Y-109080000D01*
X89330000Y-109080000D02*
X92070000Y-109080000D01*
X103920000Y-60670000D02*
X103920000Y-57930000D01*
X103920000Y-60670000D02*
X96680000Y-60670000D01*
X103920000Y-57930000D02*
X96680000Y-57930000D01*
X96680000Y-60670000D02*
X96680000Y-57930000D01*
X98040000Y-83300000D02*
X97270000Y-83300000D01*
X97270000Y-84670000D02*
X97270000Y-81930000D01*
X97270000Y-81930000D02*
X90730000Y-81930000D01*
X90730000Y-84670000D02*
X97270000Y-84670000D01*
X90730000Y-81930000D02*
X90730000Y-84670000D01*
X89960000Y-83300000D02*
X90730000Y-83300000D01*
X79500000Y-50220000D02*
X79500000Y-49450000D01*
X78130000Y-49450000D02*
X80870000Y-49450000D01*
X80870000Y-49450000D02*
X80870000Y-42910000D01*
X78130000Y-42910000D02*
X78130000Y-49450000D01*
X80870000Y-42910000D02*
X78130000Y-42910000D01*
X79500000Y-42140000D02*
X79500000Y-42910000D01*
X72500000Y-85730000D02*
X72500000Y-86380000D01*
X73620000Y-86380000D02*
X71380000Y-86380000D01*
X71380000Y-86380000D02*
X71380000Y-90620000D01*
X73620000Y-86980000D02*
X71380000Y-86980000D01*
X73620000Y-87100000D02*
X71380000Y-87100000D01*
X73620000Y-87220000D02*
X71380000Y-87220000D01*
X73620000Y-90620000D02*
X73620000Y-86380000D01*
X71380000Y-90620000D02*
X73620000Y-90620000D01*
X72500000Y-91270000D02*
X72500000Y-90620000D01*
X77860000Y-132000000D02*
X78630000Y-132000000D01*
X78630000Y-130630000D02*
X78630000Y-133370000D01*
X78630000Y-133370000D02*
X85170000Y-133370000D01*
X85170000Y-130630000D02*
X78630000Y-130630000D01*
X85170000Y-133370000D02*
X85170000Y-130630000D01*
X85940000Y-132000000D02*
X85170000Y-132000000D01*
X92330000Y-70920000D02*
X92330000Y-72250000D01*
X91000000Y-70920000D02*
X92330000Y-70920000D01*
X89730000Y-70920000D02*
X82050000Y-70920000D01*
X89730000Y-70920000D02*
X89730000Y-73580000D01*
X82050000Y-70920000D02*
X82050000Y-73580000D01*
X89730000Y-73580000D02*
X82050000Y-73580000D01*
X73830000Y-62720000D02*
X76570000Y-62720000D01*
X73830000Y-62720000D02*
X73830000Y-55480000D01*
X76570000Y-62720000D02*
X76570000Y-55480000D01*
X73830000Y-55480000D02*
X76570000Y-55480000D01*
X70350000Y-78100000D02*
X63850000Y-78100000D01*
X63850000Y-78100000D02*
X63850000Y-75900000D01*
X63850000Y-75900000D02*
X70350000Y-75900000D01*
X70350000Y-75900000D02*
X70350000Y-78100000D01*
X61200000Y-114320000D02*
X61200000Y-113550000D01*
X59830000Y-113550000D02*
X62570000Y-113550000D01*
X62570000Y-113550000D02*
X62570000Y-107010000D01*
X59830000Y-107010000D02*
X59830000Y-113550000D01*
X62570000Y-107010000D02*
X59830000Y-107010000D01*
X61200000Y-106240000D02*
X61200000Y-107010000D01*
X58100000Y-106240000D02*
X58100000Y-107010000D01*
X59470000Y-107010000D02*
X56730000Y-107010000D01*
X56730000Y-107010000D02*
X56730000Y-113550000D01*
X59470000Y-113550000D02*
X59470000Y-107010000D01*
X56730000Y-113550000D02*
X59470000Y-113550000D01*
X58100000Y-114320000D02*
X58100000Y-113550000D01*
X84500000Y-106280000D02*
X84500000Y-107050000D01*
X85870000Y-107050000D02*
X83130000Y-107050000D01*
X83130000Y-107050000D02*
X83130000Y-113590000D01*
X85870000Y-113590000D02*
X85870000Y-107050000D01*
X83130000Y-113590000D02*
X85870000Y-113590000D01*
X84500000Y-114360000D02*
X84500000Y-113590000D01*
X100300000Y-47440000D02*
X96850000Y-47440000D01*
X100300000Y-47440000D02*
X102250000Y-47440000D01*
X100300000Y-57560000D02*
X98350000Y-57560000D01*
X100300000Y-57560000D02*
X102250000Y-57560000D01*
X70030000Y-134720000D02*
X72770000Y-134720000D01*
X70030000Y-134720000D02*
X70030000Y-127480000D01*
X72770000Y-134720000D02*
X72770000Y-127480000D01*
X70030000Y-127480000D02*
X72770000Y-127480000D01*
X64300000Y-106260000D02*
X64300000Y-107030000D01*
X65670000Y-107030000D02*
X62930000Y-107030000D01*
X62930000Y-107030000D02*
X62930000Y-113570000D01*
X65670000Y-113570000D02*
X65670000Y-107030000D01*
X62930000Y-113570000D02*
X65670000Y-113570000D01*
X64300000Y-114340000D02*
X64300000Y-113570000D01*
X98000000Y-137540000D02*
X98000000Y-136770000D01*
X96630000Y-136770000D02*
X99370000Y-136770000D01*
X99370000Y-136770000D02*
X99370000Y-130230000D01*
X96630000Y-130230000D02*
X96630000Y-136770000D01*
X99370000Y-130230000D02*
X96630000Y-130230000D01*
X98000000Y-129460000D02*
X98000000Y-130230000D01*
X63850000Y-84600000D02*
X70350000Y-84600000D01*
X70350000Y-84600000D02*
X70350000Y-86800000D01*
X70350000Y-86800000D02*
X63850000Y-86800000D01*
X63850000Y-86800000D02*
X63850000Y-84600000D01*
X68220000Y-74200000D02*
X67450000Y-74200000D01*
X67450000Y-75570000D02*
X67450000Y-72830000D01*
X67450000Y-72830000D02*
X60910000Y-72830000D01*
X60910000Y-75570000D02*
X67450000Y-75570000D01*
X60910000Y-72830000D02*
X60910000Y-75570000D01*
X60140000Y-74200000D02*
X60910000Y-74200000D01*
X100100000Y-114360000D02*
X100100000Y-113590000D01*
X98730000Y-113590000D02*
X101470000Y-113590000D01*
X101470000Y-113590000D02*
X101470000Y-107050000D01*
X98730000Y-107050000D02*
X98730000Y-113590000D01*
X101470000Y-107050000D02*
X98730000Y-107050000D01*
X100100000Y-106280000D02*
X100100000Y-107050000D01*
X89960000Y-86400000D02*
X90730000Y-86400000D01*
X90730000Y-85030000D02*
X90730000Y-87770000D01*
X90730000Y-87770000D02*
X97270000Y-87770000D01*
X97270000Y-85030000D02*
X90730000Y-85030000D01*
X97270000Y-87770000D02*
X97270000Y-85030000D01*
X98040000Y-86400000D02*
X97270000Y-86400000D01*
X92430000Y-116320000D02*
X95170000Y-116320000D01*
X92430000Y-116320000D02*
X92430000Y-109080000D01*
X95170000Y-116320000D02*
X95170000Y-109080000D01*
X92430000Y-109080000D02*
X95170000Y-109080000D01*
X93430000Y-134720000D02*
X96170000Y-134720000D01*
X93430000Y-134720000D02*
X93430000Y-127480000D01*
X96170000Y-134720000D02*
X96170000Y-127480000D01*
X93430000Y-127480000D02*
X96170000Y-127480000D01*
X80415000Y-116730000D02*
X62395000Y-116730000D01*
X62395000Y-116730000D02*
X62395000Y-127010000D01*
X80355000Y-119220000D02*
X62455000Y-119220000D01*
X62455000Y-119220000D02*
X62455000Y-124520000D01*
X80355000Y-120870000D02*
X80355000Y-119220000D01*
X80355000Y-124520000D02*
X80355000Y-122870000D01*
X62455000Y-124520000D02*
X80355000Y-124520000D01*
X80415000Y-127010000D02*
X80415000Y-116730000D01*
X62395000Y-127010000D02*
X80415000Y-127010000D01*
X80355000Y-120870000D02*
G75*
G03*
X80355000Y-122870000I0J-1000000D01*
G01*
X68240000Y-79800000D02*
X67470000Y-79800000D01*
X67470000Y-81170000D02*
X67470000Y-78430000D01*
X67470000Y-78430000D02*
X60930000Y-78430000D01*
X60930000Y-81170000D02*
X67470000Y-81170000D01*
X60930000Y-78430000D02*
X60930000Y-81170000D01*
X60160000Y-79800000D02*
X60930000Y-79800000D01*
X72230000Y-116320000D02*
X74970000Y-116320000D01*
X72230000Y-116320000D02*
X72230000Y-109080000D01*
X74970000Y-116320000D02*
X74970000Y-109080000D01*
X72230000Y-109080000D02*
X74970000Y-109080000D01*
X80555000Y-96535000D02*
X62655000Y-96535000D01*
X62655000Y-96535000D02*
X62655000Y-101035000D01*
X80555000Y-97785000D02*
X80555000Y-96535000D01*
X80555000Y-101035000D02*
X80555000Y-99785000D01*
X62655000Y-101035000D02*
X80555000Y-101035000D01*
X80555000Y-97785000D02*
G75*
G03*
X80555000Y-99785000I0J-1000000D01*
G01*
X102900000Y-108820000D02*
X102900000Y-109470000D01*
X104020000Y-109470000D02*
X101780000Y-109470000D01*
X101780000Y-109470000D02*
X101780000Y-113710000D01*
X104020000Y-110070000D02*
X101780000Y-110070000D01*
X104020000Y-110190000D02*
X101780000Y-110190000D01*
X104020000Y-110310000D02*
X101780000Y-110310000D01*
X104020000Y-113710000D02*
X104020000Y-109470000D01*
X101780000Y-113710000D02*
X104020000Y-113710000D01*
X102900000Y-114360000D02*
X102900000Y-113710000D01*
X102600000Y-71020000D02*
X102600000Y-70250000D01*
X101230000Y-70250000D02*
X103970000Y-70250000D01*
X103970000Y-70250000D02*
X103970000Y-63710000D01*
X101230000Y-63710000D02*
X101230000Y-70250000D01*
X103970000Y-63710000D02*
X101230000Y-63710000D01*
X102600000Y-62940000D02*
X102600000Y-63710000D01*
X73770000Y-44630000D02*
X71030000Y-44630000D01*
X73770000Y-44630000D02*
X73770000Y-51870000D01*
X71030000Y-44630000D02*
X71030000Y-51870000D01*
X73770000Y-51870000D02*
X71030000Y-51870000D01*
X74620000Y-69070000D02*
X74620000Y-66330000D01*
X74620000Y-69070000D02*
X67380000Y-69070000D01*
X74620000Y-66330000D02*
X67380000Y-66330000D01*
X67380000Y-69070000D02*
X67380000Y-66330000D01*
X100115000Y-116770000D02*
X82095000Y-116770000D01*
X82095000Y-116770000D02*
X82095000Y-127050000D01*
X100055000Y-119260000D02*
X82155000Y-119260000D01*
X82155000Y-119260000D02*
X82155000Y-124560000D01*
X100055000Y-120910000D02*
X100055000Y-119260000D01*
X100055000Y-124560000D02*
X100055000Y-122910000D01*
X82155000Y-124560000D02*
X100055000Y-124560000D01*
X100115000Y-127050000D02*
X100115000Y-116770000D01*
X82095000Y-127050000D02*
X100115000Y-127050000D01*
X100055000Y-120910000D02*
G75*
G03*
X100055000Y-122910000I0J-1000000D01*
G01*
X94340000Y-57500000D02*
X93570000Y-57500000D01*
X93570000Y-58870000D02*
X93570000Y-56130000D01*
X93570000Y-56130000D02*
X87030000Y-56130000D01*
X87030000Y-58870000D02*
X93570000Y-58870000D01*
X87030000Y-56130000D02*
X87030000Y-58870000D01*
X86260000Y-57500000D02*
X87030000Y-57500000D01*
X98040000Y-77700000D02*
X97270000Y-77700000D01*
X97270000Y-79070000D02*
X97270000Y-76330000D01*
X97270000Y-76330000D02*
X90730000Y-76330000D01*
X90730000Y-79070000D02*
X97270000Y-79070000D01*
X90730000Y-76330000D02*
X90730000Y-79070000D01*
X89960000Y-77700000D02*
X90730000Y-77700000D01*
X70350000Y-72500000D02*
X63850000Y-72500000D01*
X63850000Y-72500000D02*
X63850000Y-70300000D01*
X63850000Y-70300000D02*
X70350000Y-70300000D01*
X70350000Y-70300000D02*
X70350000Y-72500000D01*
X62900000Y-49960000D02*
X62900000Y-49190000D01*
X61530000Y-49190000D02*
X64270000Y-49190000D01*
X64270000Y-49190000D02*
X64270000Y-42650000D01*
X61530000Y-42650000D02*
X61530000Y-49190000D01*
X64270000Y-42650000D02*
X61530000Y-42650000D01*
X62900000Y-41880000D02*
X62900000Y-42650000D01*
X85940000Y-135100000D02*
X85170000Y-135100000D01*
X85170000Y-136470000D02*
X85170000Y-133730000D01*
X85170000Y-133730000D02*
X78630000Y-133730000D01*
X78630000Y-136470000D02*
X85170000Y-136470000D01*
X78630000Y-133730000D02*
X78630000Y-136470000D01*
X77860000Y-135100000D02*
X78630000Y-135100000D01*
X55280000Y-60030000D02*
X55280000Y-62770000D01*
X55280000Y-60030000D02*
X62520000Y-60030000D01*
X55280000Y-62770000D02*
X62520000Y-62770000D01*
X62520000Y-60030000D02*
X62520000Y-62770000D01*
X56980000Y-64600000D02*
X57750000Y-64600000D01*
X57750000Y-63230000D02*
X57750000Y-65970000D01*
X57750000Y-65970000D02*
X64290000Y-65970000D01*
X64290000Y-63230000D02*
X57750000Y-63230000D01*
X64290000Y-65970000D02*
X64290000Y-63230000D01*
X65060000Y-64600000D02*
X64290000Y-64600000D01*
X88330000Y-134720000D02*
X91070000Y-134720000D01*
X88330000Y-134720000D02*
X88330000Y-127480000D01*
X91070000Y-134720000D02*
X91070000Y-127480000D01*
X88330000Y-127480000D02*
X91070000Y-127480000D01*
X89080000Y-53030000D02*
X89080000Y-55770000D01*
X89080000Y-53030000D02*
X96320000Y-53030000D01*
X89080000Y-55770000D02*
X96320000Y-55770000D01*
X96320000Y-53030000D02*
X96320000Y-55770000D01*
X94360000Y-47800000D02*
X93590000Y-47800000D01*
X93590000Y-49170000D02*
X93590000Y-46430000D01*
X93590000Y-46430000D02*
X87050000Y-46430000D01*
X87050000Y-49170000D02*
X93590000Y-49170000D01*
X87050000Y-46430000D02*
X87050000Y-49170000D01*
X86280000Y-47800000D02*
X87050000Y-47800000D01*
X68240000Y-88500000D02*
X67470000Y-88500000D01*
X67470000Y-89870000D02*
X67470000Y-87130000D01*
X67470000Y-87130000D02*
X60930000Y-87130000D01*
X60930000Y-89870000D02*
X67470000Y-89870000D01*
X60930000Y-87130000D02*
X60930000Y-89870000D01*
X60160000Y-88500000D02*
X60930000Y-88500000D01*
X69380000Y-64600000D02*
X70150000Y-64600000D01*
X70150000Y-63230000D02*
X70150000Y-65970000D01*
X70150000Y-65970000D02*
X76690000Y-65970000D01*
X76690000Y-63230000D02*
X70150000Y-63230000D01*
X76690000Y-65970000D02*
X76690000Y-63230000D01*
X77460000Y-64600000D02*
X76690000Y-64600000D01*
X62400000Y-129460000D02*
X62400000Y-130230000D01*
X63770000Y-130230000D02*
X61030000Y-130230000D01*
X61030000Y-130230000D02*
X61030000Y-136770000D01*
X63770000Y-136770000D02*
X63770000Y-130230000D01*
X61030000Y-136770000D02*
X63770000Y-136770000D01*
X62400000Y-137540000D02*
X62400000Y-136770000D01*
X99500000Y-62940000D02*
X99500000Y-63710000D01*
X100870000Y-63710000D02*
X98130000Y-63710000D01*
X98130000Y-63710000D02*
X98130000Y-70250000D01*
X100870000Y-70250000D02*
X100870000Y-63710000D01*
X98130000Y-70250000D02*
X100870000Y-70250000D01*
X99500000Y-71020000D02*
X99500000Y-70250000D01*
X73390000Y-52370000D02*
X62990000Y-52370000D01*
X62990000Y-52370000D02*
X62990000Y-62650000D01*
X73330000Y-54860000D02*
X63050000Y-54860000D01*
X63050000Y-54860000D02*
X63050000Y-60160000D01*
X73330000Y-56510000D02*
X73330000Y-54860000D01*
X73330000Y-60160000D02*
X73330000Y-58510000D01*
X63050000Y-60160000D02*
X73330000Y-60160000D01*
X73390000Y-62650000D02*
X73390000Y-52370000D01*
X62990000Y-62650000D02*
X73390000Y-62650000D01*
X73330000Y-56510000D02*
G75*
G03*
X73330000Y-58510000I0J-1000000D01*
G01*
X69130000Y-116320000D02*
X71870000Y-116320000D01*
X69130000Y-116320000D02*
X69130000Y-109080000D01*
X71870000Y-116320000D02*
X71870000Y-109080000D01*
X69130000Y-109080000D02*
X71870000Y-109080000D01*
X54920000Y-78020000D02*
X54920000Y-95860000D01*
X54920000Y-78020000D02*
X57580000Y-78020000D01*
X54920000Y-95860000D02*
X57580000Y-95860000D01*
X56250000Y-75420000D02*
X57580000Y-75420000D01*
X57580000Y-75420000D02*
X57580000Y-76750000D01*
X57580000Y-78020000D02*
X57580000Y-95860000D01*
X66100000Y-41880000D02*
X66100000Y-42650000D01*
X67470000Y-42650000D02*
X64730000Y-42650000D01*
X64730000Y-42650000D02*
X64730000Y-49190000D01*
X67470000Y-49190000D02*
X67470000Y-42650000D01*
X64730000Y-49190000D02*
X67470000Y-49190000D01*
X66100000Y-49960000D02*
X66100000Y-49190000D01*
X59300000Y-129460000D02*
X59300000Y-130230000D01*
X60670000Y-130230000D02*
X57930000Y-130230000D01*
X57930000Y-130230000D02*
X57930000Y-136770000D01*
X60670000Y-136770000D02*
X60670000Y-130230000D01*
X57930000Y-136770000D02*
X60670000Y-136770000D01*
X59300000Y-137540000D02*
X59300000Y-136770000D01*
X82600000Y-50220000D02*
X82600000Y-49450000D01*
X81230000Y-49450000D02*
X83970000Y-49450000D01*
X83970000Y-49450000D02*
X83970000Y-42910000D01*
X81230000Y-42910000D02*
X81230000Y-49450000D01*
X83970000Y-42910000D02*
X81230000Y-42910000D01*
X82600000Y-42140000D02*
X82600000Y-42910000D01*
X86900000Y-99450000D02*
X83300000Y-99450000D01*
X85100000Y-103900000D02*
G75*
G03*
X86938478Y-99461522I0J2600000D01*
G01*
X83261522Y-99461522D02*
G75*
G03*
X85100000Y-103900000I1838478J-1838478D01*
G01*
X68240000Y-91700000D02*
X67470000Y-91700000D01*
X67470000Y-93070000D02*
X67470000Y-90330000D01*
X67470000Y-90330000D02*
X60930000Y-90330000D01*
X60930000Y-93070000D02*
X67470000Y-93070000D01*
X60930000Y-90330000D02*
X60930000Y-93070000D01*
X60160000Y-91700000D02*
X60930000Y-91700000D01*
X67400000Y-114340000D02*
X67400000Y-113570000D01*
X66030000Y-113570000D02*
X68770000Y-113570000D01*
X68770000Y-113570000D02*
X68770000Y-107030000D01*
X66030000Y-107030000D02*
X66030000Y-113570000D01*
X68770000Y-107030000D02*
X66030000Y-107030000D01*
X67400000Y-106260000D02*
X67400000Y-107030000D01*
X75500000Y-41830000D02*
X75500000Y-42600000D01*
X76870000Y-42600000D02*
X74130000Y-42600000D01*
X74130000Y-42600000D02*
X74130000Y-49140000D01*
X76870000Y-49140000D02*
X76870000Y-42600000D01*
X74130000Y-49140000D02*
X76870000Y-49140000D01*
X75500000Y-49910000D02*
X75500000Y-49140000D01*
X102900000Y-99020000D02*
X102900000Y-99670000D01*
X104020000Y-99670000D02*
X101780000Y-99670000D01*
X101780000Y-99670000D02*
X101780000Y-103910000D01*
X104020000Y-100270000D02*
X101780000Y-100270000D01*
X104020000Y-100390000D02*
X101780000Y-100390000D01*
X104020000Y-100510000D02*
X101780000Y-100510000D01*
X104020000Y-103910000D02*
X104020000Y-99670000D01*
X101780000Y-103910000D02*
X104020000Y-103910000D01*
X102900000Y-104560000D02*
X102900000Y-103910000D01*
X83300000Y-98750000D02*
X86900000Y-98750000D01*
X85100000Y-94300000D02*
G75*
G03*
X83261522Y-98738478I0J-2600000D01*
G01*
X86938478Y-98738478D02*
G75*
G03*
X85100000Y-94300000I-1838478J1838478D01*
G01*
%LPC*%
D12*
X102300000Y-127780000D03*
D13*
X102300000Y-117620000D03*
D12*
X85220000Y-60600000D03*
D13*
X95380000Y-60600000D03*
D12*
X85240000Y-50900000D03*
D13*
X95400000Y-50900000D03*
D14*
X102750000Y-76750000D03*
D15*
X102750000Y-79290000D03*
X102750000Y-81830000D03*
X102750000Y-84370000D03*
X102750000Y-86910000D03*
X102750000Y-89450000D03*
X102750000Y-91990000D03*
X102750000Y-94530000D03*
D12*
X79300000Y-105700000D03*
X74300000Y-105700000D03*
X97000000Y-105220000D03*
D13*
X97000000Y-115380000D03*
D16*
X95050000Y-80500000D03*
X98550000Y-80500000D03*
D12*
X69300000Y-51000000D03*
D13*
X69300000Y-40840000D03*
D12*
X79300000Y-92100000D03*
X79300000Y-87100000D03*
X87600000Y-115400000D03*
D13*
X87600000Y-105240000D03*
D12*
X76820000Y-128900000D03*
D13*
X86980000Y-128900000D03*
D17*
X78870000Y-68240000D03*
D18*
X77600000Y-68240000D03*
X76330000Y-68240000D03*
D16*
X75800000Y-90600000D03*
X75800000Y-84100000D03*
D12*
X61100000Y-58500000D03*
X61100000Y-53500000D03*
X59140000Y-82900000D03*
D13*
X69300000Y-82900000D03*
D12*
X90700000Y-115200000D03*
X90700000Y-110200000D03*
X102800000Y-59300000D03*
X97800000Y-59300000D03*
X99080000Y-83300000D03*
D13*
X88920000Y-83300000D03*
D12*
X79500000Y-51260000D03*
D13*
X79500000Y-41100000D03*
D19*
X72500000Y-84690000D03*
D13*
X72500000Y-92310000D03*
D12*
X76820000Y-132000000D03*
D13*
X86980000Y-132000000D03*
D14*
X91000000Y-72250000D03*
D15*
X88460000Y-72250000D03*
X85920000Y-72250000D03*
X83380000Y-72250000D03*
D12*
X75200000Y-61600000D03*
X75200000Y-56600000D03*
D20*
X79500000Y-112400000D03*
D16*
X68850000Y-77000000D03*
X65350000Y-77000000D03*
D12*
X61200000Y-115360000D03*
D13*
X61200000Y-105200000D03*
D12*
X58100000Y-105200000D03*
D13*
X58100000Y-115360000D03*
D12*
X84500000Y-105240000D03*
D13*
X84500000Y-115400000D03*
G36*
G01*
X96850000Y-48205000D02*
X96850000Y-47905000D01*
G75*
G02*
X97000000Y-47755000I150000J0D01*
G01*
X98650000Y-47755000D01*
G75*
G02*
X98800000Y-47905000I0J-150000D01*
G01*
X98800000Y-48205000D01*
G75*
G02*
X98650000Y-48355000I-150000J0D01*
G01*
X97000000Y-48355000D01*
G75*
G02*
X96850000Y-48205000I0J150000D01*
G01*
G37*
G36*
G01*
X96850000Y-49475000D02*
X96850000Y-49175000D01*
G75*
G02*
X97000000Y-49025000I150000J0D01*
G01*
X98650000Y-49025000D01*
G75*
G02*
X98800000Y-49175000I0J-150000D01*
G01*
X98800000Y-49475000D01*
G75*
G02*
X98650000Y-49625000I-150000J0D01*
G01*
X97000000Y-49625000D01*
G75*
G02*
X96850000Y-49475000I0J150000D01*
G01*
G37*
G36*
G01*
X96850000Y-50745000D02*
X96850000Y-50445000D01*
G75*
G02*
X97000000Y-50295000I150000J0D01*
G01*
X98650000Y-50295000D01*
G75*
G02*
X98800000Y-50445000I0J-150000D01*
G01*
X98800000Y-50745000D01*
G75*
G02*
X98650000Y-50895000I-150000J0D01*
G01*
X97000000Y-50895000D01*
G75*
G02*
X96850000Y-50745000I0J150000D01*
G01*
G37*
G36*
G01*
X96850000Y-52015000D02*
X96850000Y-51715000D01*
G75*
G02*
X97000000Y-51565000I150000J0D01*
G01*
X98650000Y-51565000D01*
G75*
G02*
X98800000Y-51715000I0J-150000D01*
G01*
X98800000Y-52015000D01*
G75*
G02*
X98650000Y-52165000I-150000J0D01*
G01*
X97000000Y-52165000D01*
G75*
G02*
X96850000Y-52015000I0J150000D01*
G01*
G37*
G36*
G01*
X96850000Y-53285000D02*
X96850000Y-52985000D01*
G75*
G02*
X97000000Y-52835000I150000J0D01*
G01*
X98650000Y-52835000D01*
G75*
G02*
X98800000Y-52985000I0J-150000D01*
G01*
X98800000Y-53285000D01*
G75*
G02*
X98650000Y-53435000I-150000J0D01*
G01*
X97000000Y-53435000D01*
G75*
G02*
X96850000Y-53285000I0J150000D01*
G01*
G37*
G36*
G01*
X96850000Y-54555000D02*
X96850000Y-54255000D01*
G75*
G02*
X97000000Y-54105000I150000J0D01*
G01*
X98650000Y-54105000D01*
G75*
G02*
X98800000Y-54255000I0J-150000D01*
G01*
X98800000Y-54555000D01*
G75*
G02*
X98650000Y-54705000I-150000J0D01*
G01*
X97000000Y-54705000D01*
G75*
G02*
X96850000Y-54555000I0J150000D01*
G01*
G37*
G36*
G01*
X96850000Y-55825000D02*
X96850000Y-55525000D01*
G75*
G02*
X97000000Y-55375000I150000J0D01*
G01*
X98650000Y-55375000D01*
G75*
G02*
X98800000Y-55525000I0J-150000D01*
G01*
X98800000Y-55825000D01*
G75*
G02*
X98650000Y-55975000I-150000J0D01*
G01*
X97000000Y-55975000D01*
G75*
G02*
X96850000Y-55825000I0J150000D01*
G01*
G37*
G36*
G01*
X96850000Y-57095000D02*
X96850000Y-56795000D01*
G75*
G02*
X97000000Y-56645000I150000J0D01*
G01*
X98650000Y-56645000D01*
G75*
G02*
X98800000Y-56795000I0J-150000D01*
G01*
X98800000Y-57095000D01*
G75*
G02*
X98650000Y-57245000I-150000J0D01*
G01*
X97000000Y-57245000D01*
G75*
G02*
X96850000Y-57095000I0J150000D01*
G01*
G37*
G36*
G01*
X101800000Y-57095000D02*
X101800000Y-56795000D01*
G75*
G02*
X101950000Y-56645000I150000J0D01*
G01*
X103600000Y-56645000D01*
G75*
G02*
X103750000Y-56795000I0J-150000D01*
G01*
X103750000Y-57095000D01*
G75*
G02*
X103600000Y-57245000I-150000J0D01*
G01*
X101950000Y-57245000D01*
G75*
G02*
X101800000Y-57095000I0J150000D01*
G01*
G37*
G36*
G01*
X101800000Y-55825000D02*
X101800000Y-55525000D01*
G75*
G02*
X101950000Y-55375000I150000J0D01*
G01*
X103600000Y-55375000D01*
G75*
G02*
X103750000Y-55525000I0J-150000D01*
G01*
X103750000Y-55825000D01*
G75*
G02*
X103600000Y-55975000I-150000J0D01*
G01*
X101950000Y-55975000D01*
G75*
G02*
X101800000Y-55825000I0J150000D01*
G01*
G37*
G36*
G01*
X101800000Y-54555000D02*
X101800000Y-54255000D01*
G75*
G02*
X101950000Y-54105000I150000J0D01*
G01*
X103600000Y-54105000D01*
G75*
G02*
X103750000Y-54255000I0J-150000D01*
G01*
X103750000Y-54555000D01*
G75*
G02*
X103600000Y-54705000I-150000J0D01*
G01*
X101950000Y-54705000D01*
G75*
G02*
X101800000Y-54555000I0J150000D01*
G01*
G37*
G36*
G01*
X101800000Y-53285000D02*
X101800000Y-52985000D01*
G75*
G02*
X101950000Y-52835000I150000J0D01*
G01*
X103600000Y-52835000D01*
G75*
G02*
X103750000Y-52985000I0J-150000D01*
G01*
X103750000Y-53285000D01*
G75*
G02*
X103600000Y-53435000I-150000J0D01*
G01*
X101950000Y-53435000D01*
G75*
G02*
X101800000Y-53285000I0J150000D01*
G01*
G37*
G36*
G01*
X101800000Y-52015000D02*
X101800000Y-51715000D01*
G75*
G02*
X101950000Y-51565000I150000J0D01*
G01*
X103600000Y-51565000D01*
G75*
G02*
X103750000Y-51715000I0J-150000D01*
G01*
X103750000Y-52015000D01*
G75*
G02*
X103600000Y-52165000I-150000J0D01*
G01*
X101950000Y-52165000D01*
G75*
G02*
X101800000Y-52015000I0J150000D01*
G01*
G37*
G36*
G01*
X101800000Y-50745000D02*
X101800000Y-50445000D01*
G75*
G02*
X101950000Y-50295000I150000J0D01*
G01*
X103600000Y-50295000D01*
G75*
G02*
X103750000Y-50445000I0J-150000D01*
G01*
X103750000Y-50745000D01*
G75*
G02*
X103600000Y-50895000I-150000J0D01*
G01*
X101950000Y-50895000D01*
G75*
G02*
X101800000Y-50745000I0J150000D01*
G01*
G37*
G36*
G01*
X101800000Y-49475000D02*
X101800000Y-49175000D01*
G75*
G02*
X101950000Y-49025000I150000J0D01*
G01*
X103600000Y-49025000D01*
G75*
G02*
X103750000Y-49175000I0J-150000D01*
G01*
X103750000Y-49475000D01*
G75*
G02*
X103600000Y-49625000I-150000J0D01*
G01*
X101950000Y-49625000D01*
G75*
G02*
X101800000Y-49475000I0J150000D01*
G01*
G37*
G36*
G01*
X101800000Y-48205000D02*
X101800000Y-47905000D01*
G75*
G02*
X101950000Y-47755000I150000J0D01*
G01*
X103600000Y-47755000D01*
G75*
G02*
X103750000Y-47905000I0J-150000D01*
G01*
X103750000Y-48205000D01*
G75*
G02*
X103600000Y-48355000I-150000J0D01*
G01*
X101950000Y-48355000D01*
G75*
G02*
X101800000Y-48205000I0J150000D01*
G01*
G37*
D12*
X71400000Y-133600000D03*
X71400000Y-128600000D03*
X64300000Y-105220000D03*
D13*
X64300000Y-115380000D03*
D12*
X98000000Y-138580000D03*
D13*
X98000000Y-128420000D03*
D16*
X65350000Y-85700000D03*
X68850000Y-85700000D03*
D12*
X69260000Y-74200000D03*
D13*
X59100000Y-74200000D03*
D12*
X100100000Y-115400000D03*
D13*
X100100000Y-105240000D03*
D12*
X88920000Y-86400000D03*
D13*
X99080000Y-86400000D03*
D12*
X93800000Y-115200000D03*
X93800000Y-110200000D03*
X94800000Y-133600000D03*
X94800000Y-128600000D03*
D19*
X79025000Y-118060000D03*
D13*
X76485000Y-118060000D03*
X73945000Y-118060000D03*
X71405000Y-118060000D03*
X68865000Y-118060000D03*
X66325000Y-118060000D03*
X63785000Y-118060000D03*
X63785000Y-125680000D03*
X66325000Y-125680000D03*
X68865000Y-125680000D03*
X71405000Y-125680000D03*
X73945000Y-125680000D03*
X76485000Y-125680000D03*
X79025000Y-125680000D03*
D12*
X69280000Y-79800000D03*
D13*
X59120000Y-79800000D03*
D12*
X73600000Y-115200000D03*
X73600000Y-110200000D03*
D21*
X79225000Y-94975000D03*
D22*
X76685000Y-94975000D03*
X74145000Y-94975000D03*
X71605000Y-94975000D03*
X69065000Y-94975000D03*
X66525000Y-94975000D03*
X63985000Y-94975000D03*
X63985000Y-102595000D03*
X66525000Y-102595000D03*
X69065000Y-102595000D03*
X71605000Y-102595000D03*
X74145000Y-102595000D03*
X76685000Y-102595000D03*
X79225000Y-102595000D03*
D19*
X102900000Y-107780000D03*
D13*
X102900000Y-115400000D03*
D12*
X102600000Y-72060000D03*
D13*
X102600000Y-61900000D03*
D12*
X72400000Y-45750000D03*
X72400000Y-50750000D03*
X73500000Y-67700000D03*
X68500000Y-67700000D03*
D19*
X98725000Y-118100000D03*
D13*
X96185000Y-118100000D03*
X93645000Y-118100000D03*
X91105000Y-118100000D03*
X88565000Y-118100000D03*
X86025000Y-118100000D03*
X83485000Y-118100000D03*
X83485000Y-125720000D03*
X86025000Y-125720000D03*
X88565000Y-125720000D03*
X91105000Y-125720000D03*
X93645000Y-125720000D03*
X96185000Y-125720000D03*
X98725000Y-125720000D03*
D12*
X95380000Y-57500000D03*
D13*
X85220000Y-57500000D03*
D12*
X99080000Y-77700000D03*
D13*
X88920000Y-77700000D03*
D16*
X68850000Y-71400000D03*
X65350000Y-71400000D03*
D12*
X62900000Y-51000000D03*
D13*
X62900000Y-40840000D03*
D12*
X86980000Y-135100000D03*
D13*
X76820000Y-135100000D03*
D12*
X56400000Y-61400000D03*
X61400000Y-61400000D03*
X55940000Y-64600000D03*
D13*
X66100000Y-64600000D03*
D12*
X89700000Y-133600000D03*
X89700000Y-128600000D03*
X90200000Y-54400000D03*
X95200000Y-54400000D03*
X95400000Y-47800000D03*
D13*
X85240000Y-47800000D03*
D12*
X69280000Y-88500000D03*
D13*
X59120000Y-88500000D03*
D12*
X68340000Y-64600000D03*
D13*
X78500000Y-64600000D03*
D12*
X62400000Y-128420000D03*
D13*
X62400000Y-138580000D03*
D12*
X99500000Y-61900000D03*
D13*
X99500000Y-72060000D03*
D19*
X72000000Y-53700000D03*
D13*
X69460000Y-53700000D03*
X66920000Y-53700000D03*
X64380000Y-53700000D03*
X64380000Y-61320000D03*
X66920000Y-61320000D03*
X69460000Y-61320000D03*
X72000000Y-61320000D03*
D12*
X70500000Y-115200000D03*
X70500000Y-110200000D03*
D14*
X56250000Y-76750000D03*
D15*
X56250000Y-79290000D03*
X56250000Y-81830000D03*
X56250000Y-84370000D03*
X56250000Y-86910000D03*
X56250000Y-89450000D03*
X56250000Y-91990000D03*
X56250000Y-94530000D03*
D12*
X66100000Y-40840000D03*
D13*
X66100000Y-51000000D03*
D12*
X59300000Y-128420000D03*
D13*
X59300000Y-138580000D03*
D12*
X82600000Y-51260000D03*
D13*
X82600000Y-41100000D03*
D17*
X86370000Y-101300000D03*
D18*
X85100000Y-101300000D03*
X83830000Y-101300000D03*
D12*
X69280000Y-91700000D03*
D13*
X59120000Y-91700000D03*
D12*
X67400000Y-115380000D03*
D13*
X67400000Y-105220000D03*
D12*
X75500000Y-40790000D03*
D13*
X75500000Y-50950000D03*
D19*
X102900000Y-97980000D03*
D13*
X102900000Y-105600000D03*
D17*
X83830000Y-96900000D03*
D18*
X85100000Y-96900000D03*
X86370000Y-96900000D03*
D19*
X61750000Y-142300000D03*
D12*
X61750000Y-144300000D03*
D23*
X78000000Y-54000000D03*
G36*
G01*
X73820000Y-139400000D02*
X75020000Y-139400000D01*
G75*
G02*
X75270000Y-139650000I0J-250000D01*
G01*
X75270000Y-140850000D01*
G75*
G02*
X75020000Y-141100000I-250000J0D01*
G01*
X73820000Y-141100000D01*
G75*
G02*
X73570000Y-140850000I0J250000D01*
G01*
X73570000Y-139650000D01*
G75*
G02*
X73820000Y-139400000I250000J0D01*
G01*
G37*
D24*
X74420000Y-142790000D03*
X76960000Y-140250000D03*
X76960000Y-142790000D03*
X79500000Y-140250000D03*
X79500000Y-142790000D03*
X82040000Y-140250000D03*
X82040000Y-142790000D03*
X84580000Y-140250000D03*
X84580000Y-142790000D03*
D25*
X94800000Y-44280000D03*
X94800000Y-41740000D03*
X94800000Y-39200000D03*
D19*
X97250000Y-144500000D03*
D12*
X97250000Y-142500000D03*
D14*
X59300000Y-99100000D03*
D15*
X59300000Y-101640000D03*
D23*
X92700000Y-91000000D03*
D25*
X57300000Y-39360000D03*
X57300000Y-41900000D03*
X57300000Y-44440000D03*
D23*
X88600000Y-91000000D03*
D25*
X84000000Y-85420000D03*
X84000000Y-87960000D03*
X84000000Y-90500000D03*
X88000000Y-39160000D03*
X88000000Y-41700000D03*
X88000000Y-44240000D03*
D12*
X92250000Y-135170000D03*
D13*
X92250000Y-145330000D03*
D12*
X66750000Y-135170000D03*
D13*
X66750000Y-145330000D03*
D25*
X101600000Y-39200000D03*
X101600000Y-41740000D03*
X101600000Y-44280000D03*
D26*
X75400000Y-121600000D03*
X101100000Y-51800000D03*
X81400000Y-103500000D03*
X81400000Y-102600000D03*
X97800000Y-97700000D03*
X98800000Y-97700000D03*
X98800000Y-98700000D03*
X85200000Y-120600000D03*
X81600000Y-94100000D03*
X97800000Y-98700000D03*
X84700000Y-121400000D03*
X75500000Y-100000000D03*
X74900000Y-120700000D03*
X81600000Y-95000000D03*
X81700000Y-99300000D03*
X76600000Y-100000000D03*
X77700000Y-100000000D03*
X84200000Y-120600000D03*
X101100000Y-50600000D03*
X75900000Y-120700000D03*
X60700000Y-85900000D03*
X78100000Y-60500000D03*
X101200000Y-54400000D03*
X78600000Y-97800000D03*
X78000000Y-58600000D03*
X62400000Y-85900000D03*
X61800000Y-75300000D03*
X68400000Y-122700000D03*
X100800000Y-117500000D03*
X91900000Y-98200000D03*
X69200000Y-98600000D03*
X81000000Y-121300000D03*
X89600000Y-98949500D03*
X92400000Y-57600000D03*
%LPD*%
M02*
