G04 #@! TF.GenerationSoftware,KiCad,Pcbnew,7.0.7-7.0.7~ubuntu22.04.1*
G04 #@! TF.CreationDate,2023-12-10T22:01:21+01:00*
G04 #@! TF.ProjectId,CD40106_VCO,43443430-3130-4365-9f56-434f2e6b6963,rev?*
G04 #@! TF.SameCoordinates,Original*
G04 #@! TF.FileFunction,Soldermask,Top*
G04 #@! TF.FilePolarity,Negative*
%FSLAX46Y46*%
G04 Gerber Fmt 4.6, Leading zero omitted, Abs format (unit mm)*
G04 Created by KiCad (PCBNEW 7.0.7-7.0.7~ubuntu22.04.1) date 2023-12-10 22:01:21*
%MOMM*%
%LPD*%
G01*
G04 APERTURE LIST*
%ADD10C,1.600000*%
%ADD11O,1.600000X1.600000*%
%ADD12R,1.700000X1.700000*%
%ADD13O,1.700000X1.700000*%
%ADD14C,1.524000*%
%ADD15R,1.050000X1.500000*%
%ADD16O,1.050000X1.500000*%
%ADD17R,1.600000X1.600000*%
%ADD18C,3.200000*%
%ADD19R,1.600000X2.400000*%
%ADD20O,1.600000X2.400000*%
%ADD21C,3.000000*%
%ADD22C,1.700000*%
%ADD23C,1.440000*%
%ADD24C,0.800000*%
G04 APERTURE END LIST*
D10*
X102300000Y-127780000D03*
D11*
X102300000Y-117620000D03*
D10*
X85220000Y-60600000D03*
D11*
X95380000Y-60600000D03*
D10*
X85240000Y-50900000D03*
D11*
X95400000Y-50900000D03*
D12*
X102750000Y-76750000D03*
D13*
X102750000Y-79290000D03*
X102750000Y-81830000D03*
X102750000Y-84370000D03*
X102750000Y-86910000D03*
X102750000Y-89450000D03*
X102750000Y-91990000D03*
X102750000Y-94530000D03*
D10*
X79300000Y-105700000D03*
X74300000Y-105700000D03*
X97000000Y-105220000D03*
D11*
X97000000Y-115380000D03*
D14*
X95050000Y-80500000D03*
X98550000Y-80500000D03*
D10*
X69300000Y-51000000D03*
D11*
X69300000Y-40840000D03*
D10*
X79300000Y-92100000D03*
X79300000Y-87100000D03*
X87600000Y-115400000D03*
D11*
X87600000Y-105240000D03*
D10*
X76820000Y-128900000D03*
D11*
X86980000Y-128900000D03*
D15*
X78870000Y-68240000D03*
D16*
X77600000Y-68240000D03*
X76330000Y-68240000D03*
D14*
X75800000Y-90600000D03*
X75800000Y-84100000D03*
D10*
X61100000Y-58500000D03*
X61100000Y-53500000D03*
X59140000Y-82900000D03*
D11*
X69300000Y-82900000D03*
D10*
X90700000Y-115200000D03*
X90700000Y-110200000D03*
X102800000Y-59300000D03*
X97800000Y-59300000D03*
X99080000Y-83300000D03*
D11*
X88920000Y-83300000D03*
D10*
X79500000Y-51260000D03*
D11*
X79500000Y-41100000D03*
D17*
X72500000Y-84690000D03*
D11*
X72500000Y-92310000D03*
D10*
X76820000Y-132000000D03*
D11*
X86980000Y-132000000D03*
D12*
X91000000Y-72250000D03*
D13*
X88460000Y-72250000D03*
X85920000Y-72250000D03*
X83380000Y-72250000D03*
D10*
X75200000Y-61600000D03*
X75200000Y-56600000D03*
D18*
X79500000Y-112400000D03*
D14*
X68850000Y-77000000D03*
X65350000Y-77000000D03*
D10*
X61200000Y-115360000D03*
D11*
X61200000Y-105200000D03*
D10*
X58100000Y-105200000D03*
D11*
X58100000Y-115360000D03*
D10*
X84500000Y-105240000D03*
D11*
X84500000Y-115400000D03*
G36*
G01*
X96850000Y-48205000D02*
X96850000Y-47905000D01*
G75*
G02*
X97000000Y-47755000I150000J0D01*
G01*
X98650000Y-47755000D01*
G75*
G02*
X98800000Y-47905000I0J-150000D01*
G01*
X98800000Y-48205000D01*
G75*
G02*
X98650000Y-48355000I-150000J0D01*
G01*
X97000000Y-48355000D01*
G75*
G02*
X96850000Y-48205000I0J150000D01*
G01*
G37*
G36*
G01*
X96850000Y-49475000D02*
X96850000Y-49175000D01*
G75*
G02*
X97000000Y-49025000I150000J0D01*
G01*
X98650000Y-49025000D01*
G75*
G02*
X98800000Y-49175000I0J-150000D01*
G01*
X98800000Y-49475000D01*
G75*
G02*
X98650000Y-49625000I-150000J0D01*
G01*
X97000000Y-49625000D01*
G75*
G02*
X96850000Y-49475000I0J150000D01*
G01*
G37*
G36*
G01*
X96850000Y-50745000D02*
X96850000Y-50445000D01*
G75*
G02*
X97000000Y-50295000I150000J0D01*
G01*
X98650000Y-50295000D01*
G75*
G02*
X98800000Y-50445000I0J-150000D01*
G01*
X98800000Y-50745000D01*
G75*
G02*
X98650000Y-50895000I-150000J0D01*
G01*
X97000000Y-50895000D01*
G75*
G02*
X96850000Y-50745000I0J150000D01*
G01*
G37*
G36*
G01*
X96850000Y-52015000D02*
X96850000Y-51715000D01*
G75*
G02*
X97000000Y-51565000I150000J0D01*
G01*
X98650000Y-51565000D01*
G75*
G02*
X98800000Y-51715000I0J-150000D01*
G01*
X98800000Y-52015000D01*
G75*
G02*
X98650000Y-52165000I-150000J0D01*
G01*
X97000000Y-52165000D01*
G75*
G02*
X96850000Y-52015000I0J150000D01*
G01*
G37*
G36*
G01*
X96850000Y-53285000D02*
X96850000Y-52985000D01*
G75*
G02*
X97000000Y-52835000I150000J0D01*
G01*
X98650000Y-52835000D01*
G75*
G02*
X98800000Y-52985000I0J-150000D01*
G01*
X98800000Y-53285000D01*
G75*
G02*
X98650000Y-53435000I-150000J0D01*
G01*
X97000000Y-53435000D01*
G75*
G02*
X96850000Y-53285000I0J150000D01*
G01*
G37*
G36*
G01*
X96850000Y-54555000D02*
X96850000Y-54255000D01*
G75*
G02*
X97000000Y-54105000I150000J0D01*
G01*
X98650000Y-54105000D01*
G75*
G02*
X98800000Y-54255000I0J-150000D01*
G01*
X98800000Y-54555000D01*
G75*
G02*
X98650000Y-54705000I-150000J0D01*
G01*
X97000000Y-54705000D01*
G75*
G02*
X96850000Y-54555000I0J150000D01*
G01*
G37*
G36*
G01*
X96850000Y-55825000D02*
X96850000Y-55525000D01*
G75*
G02*
X97000000Y-55375000I150000J0D01*
G01*
X98650000Y-55375000D01*
G75*
G02*
X98800000Y-55525000I0J-150000D01*
G01*
X98800000Y-55825000D01*
G75*
G02*
X98650000Y-55975000I-150000J0D01*
G01*
X97000000Y-55975000D01*
G75*
G02*
X96850000Y-55825000I0J150000D01*
G01*
G37*
G36*
G01*
X96850000Y-57095000D02*
X96850000Y-56795000D01*
G75*
G02*
X97000000Y-56645000I150000J0D01*
G01*
X98650000Y-56645000D01*
G75*
G02*
X98800000Y-56795000I0J-150000D01*
G01*
X98800000Y-57095000D01*
G75*
G02*
X98650000Y-57245000I-150000J0D01*
G01*
X97000000Y-57245000D01*
G75*
G02*
X96850000Y-57095000I0J150000D01*
G01*
G37*
G36*
G01*
X101800000Y-57095000D02*
X101800000Y-56795000D01*
G75*
G02*
X101950000Y-56645000I150000J0D01*
G01*
X103600000Y-56645000D01*
G75*
G02*
X103750000Y-56795000I0J-150000D01*
G01*
X103750000Y-57095000D01*
G75*
G02*
X103600000Y-57245000I-150000J0D01*
G01*
X101950000Y-57245000D01*
G75*
G02*
X101800000Y-57095000I0J150000D01*
G01*
G37*
G36*
G01*
X101800000Y-55825000D02*
X101800000Y-55525000D01*
G75*
G02*
X101950000Y-55375000I150000J0D01*
G01*
X103600000Y-55375000D01*
G75*
G02*
X103750000Y-55525000I0J-150000D01*
G01*
X103750000Y-55825000D01*
G75*
G02*
X103600000Y-55975000I-150000J0D01*
G01*
X101950000Y-55975000D01*
G75*
G02*
X101800000Y-55825000I0J150000D01*
G01*
G37*
G36*
G01*
X101800000Y-54555000D02*
X101800000Y-54255000D01*
G75*
G02*
X101950000Y-54105000I150000J0D01*
G01*
X103600000Y-54105000D01*
G75*
G02*
X103750000Y-54255000I0J-150000D01*
G01*
X103750000Y-54555000D01*
G75*
G02*
X103600000Y-54705000I-150000J0D01*
G01*
X101950000Y-54705000D01*
G75*
G02*
X101800000Y-54555000I0J150000D01*
G01*
G37*
G36*
G01*
X101800000Y-53285000D02*
X101800000Y-52985000D01*
G75*
G02*
X101950000Y-52835000I150000J0D01*
G01*
X103600000Y-52835000D01*
G75*
G02*
X103750000Y-52985000I0J-150000D01*
G01*
X103750000Y-53285000D01*
G75*
G02*
X103600000Y-53435000I-150000J0D01*
G01*
X101950000Y-53435000D01*
G75*
G02*
X101800000Y-53285000I0J150000D01*
G01*
G37*
G36*
G01*
X101800000Y-52015000D02*
X101800000Y-51715000D01*
G75*
G02*
X101950000Y-51565000I150000J0D01*
G01*
X103600000Y-51565000D01*
G75*
G02*
X103750000Y-51715000I0J-150000D01*
G01*
X103750000Y-52015000D01*
G75*
G02*
X103600000Y-52165000I-150000J0D01*
G01*
X101950000Y-52165000D01*
G75*
G02*
X101800000Y-52015000I0J150000D01*
G01*
G37*
G36*
G01*
X101800000Y-50745000D02*
X101800000Y-50445000D01*
G75*
G02*
X101950000Y-50295000I150000J0D01*
G01*
X103600000Y-50295000D01*
G75*
G02*
X103750000Y-50445000I0J-150000D01*
G01*
X103750000Y-50745000D01*
G75*
G02*
X103600000Y-50895000I-150000J0D01*
G01*
X101950000Y-50895000D01*
G75*
G02*
X101800000Y-50745000I0J150000D01*
G01*
G37*
G36*
G01*
X101800000Y-49475000D02*
X101800000Y-49175000D01*
G75*
G02*
X101950000Y-49025000I150000J0D01*
G01*
X103600000Y-49025000D01*
G75*
G02*
X103750000Y-49175000I0J-150000D01*
G01*
X103750000Y-49475000D01*
G75*
G02*
X103600000Y-49625000I-150000J0D01*
G01*
X101950000Y-49625000D01*
G75*
G02*
X101800000Y-49475000I0J150000D01*
G01*
G37*
G36*
G01*
X101800000Y-48205000D02*
X101800000Y-47905000D01*
G75*
G02*
X101950000Y-47755000I150000J0D01*
G01*
X103600000Y-47755000D01*
G75*
G02*
X103750000Y-47905000I0J-150000D01*
G01*
X103750000Y-48205000D01*
G75*
G02*
X103600000Y-48355000I-150000J0D01*
G01*
X101950000Y-48355000D01*
G75*
G02*
X101800000Y-48205000I0J150000D01*
G01*
G37*
D10*
X71400000Y-133600000D03*
X71400000Y-128600000D03*
X64300000Y-105220000D03*
D11*
X64300000Y-115380000D03*
D10*
X98000000Y-138580000D03*
D11*
X98000000Y-128420000D03*
D14*
X65350000Y-85700000D03*
X68850000Y-85700000D03*
D10*
X69260000Y-74200000D03*
D11*
X59100000Y-74200000D03*
D10*
X100100000Y-115400000D03*
D11*
X100100000Y-105240000D03*
D10*
X88920000Y-86400000D03*
D11*
X99080000Y-86400000D03*
D10*
X93800000Y-115200000D03*
X93800000Y-110200000D03*
X94800000Y-133600000D03*
X94800000Y-128600000D03*
D17*
X79025000Y-118060000D03*
D11*
X76485000Y-118060000D03*
X73945000Y-118060000D03*
X71405000Y-118060000D03*
X68865000Y-118060000D03*
X66325000Y-118060000D03*
X63785000Y-118060000D03*
X63785000Y-125680000D03*
X66325000Y-125680000D03*
X68865000Y-125680000D03*
X71405000Y-125680000D03*
X73945000Y-125680000D03*
X76485000Y-125680000D03*
X79025000Y-125680000D03*
D10*
X69280000Y-79800000D03*
D11*
X59120000Y-79800000D03*
D10*
X73600000Y-115200000D03*
X73600000Y-110200000D03*
D19*
X79225000Y-94975000D03*
D20*
X76685000Y-94975000D03*
X74145000Y-94975000D03*
X71605000Y-94975000D03*
X69065000Y-94975000D03*
X66525000Y-94975000D03*
X63985000Y-94975000D03*
X63985000Y-102595000D03*
X66525000Y-102595000D03*
X69065000Y-102595000D03*
X71605000Y-102595000D03*
X74145000Y-102595000D03*
X76685000Y-102595000D03*
X79225000Y-102595000D03*
D17*
X102900000Y-107780000D03*
D11*
X102900000Y-115400000D03*
D10*
X102600000Y-72060000D03*
D11*
X102600000Y-61900000D03*
D10*
X72400000Y-45750000D03*
X72400000Y-50750000D03*
X73500000Y-67700000D03*
X68500000Y-67700000D03*
D17*
X98725000Y-118100000D03*
D11*
X96185000Y-118100000D03*
X93645000Y-118100000D03*
X91105000Y-118100000D03*
X88565000Y-118100000D03*
X86025000Y-118100000D03*
X83485000Y-118100000D03*
X83485000Y-125720000D03*
X86025000Y-125720000D03*
X88565000Y-125720000D03*
X91105000Y-125720000D03*
X93645000Y-125720000D03*
X96185000Y-125720000D03*
X98725000Y-125720000D03*
D10*
X95380000Y-57500000D03*
D11*
X85220000Y-57500000D03*
D10*
X99080000Y-77700000D03*
D11*
X88920000Y-77700000D03*
D14*
X68850000Y-71400000D03*
X65350000Y-71400000D03*
D10*
X62900000Y-51000000D03*
D11*
X62900000Y-40840000D03*
D10*
X86980000Y-135100000D03*
D11*
X76820000Y-135100000D03*
D10*
X56400000Y-61400000D03*
X61400000Y-61400000D03*
X55940000Y-64600000D03*
D11*
X66100000Y-64600000D03*
D10*
X89700000Y-133600000D03*
X89700000Y-128600000D03*
X90200000Y-54400000D03*
X95200000Y-54400000D03*
X95400000Y-47800000D03*
D11*
X85240000Y-47800000D03*
D10*
X69280000Y-88500000D03*
D11*
X59120000Y-88500000D03*
D10*
X68340000Y-64600000D03*
D11*
X78500000Y-64600000D03*
D10*
X62400000Y-128420000D03*
D11*
X62400000Y-138580000D03*
D10*
X99500000Y-61900000D03*
D11*
X99500000Y-72060000D03*
D17*
X72000000Y-53700000D03*
D11*
X69460000Y-53700000D03*
X66920000Y-53700000D03*
X64380000Y-53700000D03*
X64380000Y-61320000D03*
X66920000Y-61320000D03*
X69460000Y-61320000D03*
X72000000Y-61320000D03*
D10*
X70500000Y-115200000D03*
X70500000Y-110200000D03*
D12*
X56250000Y-76750000D03*
D13*
X56250000Y-79290000D03*
X56250000Y-81830000D03*
X56250000Y-84370000D03*
X56250000Y-86910000D03*
X56250000Y-89450000D03*
X56250000Y-91990000D03*
X56250000Y-94530000D03*
D10*
X66100000Y-40840000D03*
D11*
X66100000Y-51000000D03*
D10*
X59300000Y-128420000D03*
D11*
X59300000Y-138580000D03*
D10*
X82600000Y-51260000D03*
D11*
X82600000Y-41100000D03*
D15*
X86370000Y-101300000D03*
D16*
X85100000Y-101300000D03*
X83830000Y-101300000D03*
D10*
X69280000Y-91700000D03*
D11*
X59120000Y-91700000D03*
D10*
X67400000Y-115380000D03*
D11*
X67400000Y-105220000D03*
D10*
X75500000Y-40790000D03*
D11*
X75500000Y-50950000D03*
D17*
X102900000Y-97980000D03*
D11*
X102900000Y-105600000D03*
D15*
X83830000Y-96900000D03*
D16*
X85100000Y-96900000D03*
X86370000Y-96900000D03*
D17*
X61750000Y-142300000D03*
D10*
X61750000Y-144300000D03*
D21*
X78000000Y-54000000D03*
G36*
G01*
X73820000Y-139400000D02*
X75020000Y-139400000D01*
G75*
G02*
X75270000Y-139650000I0J-250000D01*
G01*
X75270000Y-140850000D01*
G75*
G02*
X75020000Y-141100000I-250000J0D01*
G01*
X73820000Y-141100000D01*
G75*
G02*
X73570000Y-140850000I0J250000D01*
G01*
X73570000Y-139650000D01*
G75*
G02*
X73820000Y-139400000I250000J0D01*
G01*
G37*
D22*
X74420000Y-142790000D03*
X76960000Y-140250000D03*
X76960000Y-142790000D03*
X79500000Y-140250000D03*
X79500000Y-142790000D03*
X82040000Y-140250000D03*
X82040000Y-142790000D03*
X84580000Y-140250000D03*
X84580000Y-142790000D03*
D23*
X94800000Y-44280000D03*
X94800000Y-41740000D03*
X94800000Y-39200000D03*
D17*
X97250000Y-144500000D03*
D10*
X97250000Y-142500000D03*
D12*
X59300000Y-99100000D03*
D13*
X59300000Y-101640000D03*
D21*
X92700000Y-91000000D03*
D23*
X57300000Y-39360000D03*
X57300000Y-41900000D03*
X57300000Y-44440000D03*
D21*
X88600000Y-91000000D03*
D23*
X84000000Y-85420000D03*
X84000000Y-87960000D03*
X84000000Y-90500000D03*
X88000000Y-39160000D03*
X88000000Y-41700000D03*
X88000000Y-44240000D03*
D10*
X92250000Y-135170000D03*
D11*
X92250000Y-145330000D03*
D10*
X66750000Y-135170000D03*
D11*
X66750000Y-145330000D03*
D23*
X101600000Y-39200000D03*
X101600000Y-41740000D03*
X101600000Y-44280000D03*
D24*
X75400000Y-121600000D03*
X101100000Y-51800000D03*
X81400000Y-103500000D03*
X81400000Y-102600000D03*
X97800000Y-97700000D03*
X98800000Y-97700000D03*
X98800000Y-98700000D03*
X85200000Y-120600000D03*
X81600000Y-94100000D03*
X97800000Y-98700000D03*
X84700000Y-121400000D03*
X75500000Y-100000000D03*
X74900000Y-120700000D03*
X81600000Y-95000000D03*
X81700000Y-99300000D03*
X76600000Y-100000000D03*
X77700000Y-100000000D03*
X84200000Y-120600000D03*
X101100000Y-50600000D03*
X75900000Y-120700000D03*
X60700000Y-85900000D03*
X78100000Y-60500000D03*
X101200000Y-54400000D03*
X78600000Y-97800000D03*
X78000000Y-58600000D03*
X62400000Y-85900000D03*
X61800000Y-75300000D03*
X68400000Y-122700000D03*
X100800000Y-117500000D03*
X91900000Y-98200000D03*
X69200000Y-98600000D03*
X81000000Y-121300000D03*
X89600000Y-98949500D03*
X92400000Y-57600000D03*
M02*
